<?xml version="1.0" encoding="UTF-8" standalone="no"?>
<svg
   width="582.17163"
   height="166.85191"
   viewBox="0 0 582.17161 166.85192"
   version="1.1"
   id="svg34"
   sodipodi:docname="DQUALC01.hpgl.svg"
   inkscape:version="1.1.2 (0a00cf5339, 2022-02-04)"
   xmlns:inkscape="http://www.inkscape.org/namespaces/inkscape"
   xmlns:sodipodi="http://sodipodi.sourceforge.net/DTD/sodipodi-0.dtd"
   xmlns="http://www.w3.org/2000/svg"
   xmlns:svg="http://www.w3.org/2000/svg">
  <defs
     id="defs38" />
  <sodipodi:namedview
     id="namedview36"
     pagecolor="#ffffff"
     bordercolor="#666666"
     borderopacity="1.0"
     inkscape:pageshadow="2"
     inkscape:pageopacity="0.0"
     inkscape:pagecheckerboard="0"
     showgrid="false"
     inkscape:zoom="2.3389172"
     inkscape:cx="291.16037"
     inkscape:cy="-364.91244"
     inkscape:window-width="1495"
     inkscape:window-height="970"
     inkscape:window-x="0"
     inkscape:window-y="32"
     inkscape:window-maximized="0"
     inkscape:current-layer="svg34" />
  <g
     id="g2"
     transform="translate(7.5806056,-440.60016)" />
  <g
     style="fill:none;stroke:#000000;stroke-width:1mm"
     id="g4"
     transform="translate(7.5806056,-440.60016)" />
  <g
     style="fill:none;stroke:#000000;stroke-width:4mm"
     id="g32"
     transform="translate(7.5806056,-440.60016)">
    <path
       d="m 505.51044,486.697 -63.974,84.827"
       id="path6" />
    <path
       d="m 441.89044,486.697 63.62,84.474"
       id="path8" />
    <path
       d="m 321.01144,486.697 -63.974,84.827"
       id="path10" />
    <path
       d="m 257.39044,486.697 63.621,84.474"
       id="path12" />
    <path
       d="M 134.03744,488.464 70.063441,573.291"
       id="path14" />
    <path
       d="m 70.417441,488.464 63.619999,84.474"
       id="path16" />
    <path
       d="m 67.943441,447.818 -15.905,4.948 -12.371,4.948 -12.371,8.836 -9.896,12.371 -8.8359997,14.845 -4.949,13.431 -3.53399999,17.319 2.47399999,18.379 3.534,14.845 6.3619997,16.258"
       id="path18" />
    <path
       d="m 12.451441,573.998 15.906,13.431 19.793,8.836 17.319,3.535"
       id="path20" />
    <path
       d="M 62.994441,449.231 H 506.57144 l 14.844,4.949 18.38,9.896 11.31,10.957 9.896,13.784 2.475,9.897 2.474,13.431 1.06,12.371 -1.06,15.905 -2.474,14.844 -6.363,14.845"
       id="path22" />
    <path
       d="m 557.11344,570.11 -6.008,8.836 -13.785,12.371 -9.896,6.009 -8.483,2.474 -12.37,-1.061 H 64.408441"
       id="path24" />
    <path
       d="M 49.563441,529.817 H 155.59844"
       id="path26" />
    <path
       d="m 420.32944,528.757 h 106.035"
       id="path28" />
    <path
       d="m 232.64944,528.05 h 106.034"
       id="path30" />
  </g>
</svg>
