<?xml version="1.0" encoding="UTF-8" standalone="no"?>
<svg
   width="582.17163"
   height="166.85281"
   viewBox="0 0 582.17161 166.85282"
   version="1.1"
   id="svg20"
   sodipodi:docname="DQUALU01.hpgl.svg"
   inkscape:version="1.1.2 (0a00cf5339, 2022-02-04)"
   xmlns:inkscape="http://www.inkscape.org/namespaces/inkscape"
   xmlns:sodipodi="http://sodipodi.sourceforge.net/DTD/sodipodi-0.dtd"
   xmlns="http://www.w3.org/2000/svg"
   xmlns:svg="http://www.w3.org/2000/svg">
  <defs
     id="defs24" />
  <sodipodi:namedview
     id="namedview22"
     pagecolor="#ffffff"
     bordercolor="#666666"
     borderopacity="1.0"
     inkscape:pageshadow="2"
     inkscape:pageopacity="0.0"
     inkscape:pagecheckerboard="0"
     showgrid="false"
     inkscape:zoom="2.3389172"
     inkscape:cx="291.16037"
     inkscape:cy="-366.19509"
     inkscape:window-width="1495"
     inkscape:window-height="970"
     inkscape:window-x="0"
     inkscape:window-y="32"
     inkscape:window-maximized="0"
     inkscape:current-layer="svg20" />
  <g
     id="g2"
     transform="translate(7.5806074,-442.01328)" />
  <g
     style="fill:none;stroke:#000000;stroke-width:1mm"
     id="g4"
     transform="translate(7.5806074,-442.01328)" />
  <g
     style="fill:none;stroke:#000000;stroke-width:4mm"
     id="g18"
     transform="translate(7.5806074,-442.01328)">
    <path
       d="m 67.943434,449.231 -15.905,4.949 -12.371,4.948 -12.371,8.836 -9.896,12.371 -8.836,14.844 -4.949,13.431 -3.53400002,17.319 2.47400002,18.38 3.534,14.844 6.362,16.259"
       id="path6" />
    <path
       d="m 12.451434,575.412 15.906,13.431 19.793,8.836 17.319,3.535"
       id="path8" />
    <path
       d="M 62.994434,450.645 H 506.57143 l 14.844,4.948 18.38,9.897 11.31,10.957 9.896,13.784 2.475,9.897 2.474,13.431 1.06,12.37 -1.06,15.905 -2.474,14.845 -6.363,14.845"
       id="path10" />
    <path
       d="m 557.11343,571.524 -6.008,8.836 -13.785,12.371 -9.896,6.008 -8.483,2.475 -12.37,-1.061 H 64.408434"
       id="path12" />
    <path
       d="m 253.50243,486.343 0.354,67.509 3.534,10.25 7.423,7.069 10.957,5.301 12.017,0.707 8.129,-3.534 10.25,-6.362 6.362,-6.009 3.535,-8.483 v -66.448"
       id="path14" />
    <path
       d="M 316.06343,486.343"
       id="path16" />
  </g>
</svg>
