<?xml version="1.0" encoding="UTF-8" standalone="no"?>
<svg
   width="582.17163"
   height="166.85182"
   viewBox="0 0 582.17161 166.85183"
   version="1.1"
   id="svg28"
   sodipodi:docname="DQUALD01.hpgl.svg"
   inkscape:version="1.1.2 (0a00cf5339, 2022-02-04)"
   xmlns:inkscape="http://www.inkscape.org/namespaces/inkscape"
   xmlns:sodipodi="http://sodipodi.sourceforge.net/DTD/sodipodi-0.dtd"
   xmlns="http://www.w3.org/2000/svg"
   xmlns:svg="http://www.w3.org/2000/svg">
  <defs
     id="defs32" />
  <sodipodi:namedview
     id="namedview30"
     pagecolor="#ffffff"
     bordercolor="#666666"
     borderopacity="1.0"
     inkscape:pageshadow="2"
     inkscape:pageopacity="0.0"
     inkscape:pagecheckerboard="0"
     showgrid="false"
     inkscape:zoom="2.3389172"
     inkscape:cx="291.16037"
     inkscape:cy="-366.62264"
     inkscape:window-width="1495"
     inkscape:window-height="970"
     inkscape:window-x="0"
     inkscape:window-y="32"
     inkscape:window-maximized="0"
     inkscape:current-layer="svg28" />
  <g
     id="g2"
     transform="translate(7.5806074,-442.72016)" />
  <g
     style="fill:none;stroke:#000000;stroke-width:1mm"
     id="g4"
     transform="translate(7.5806074,-442.72016)" />
  <g
     style="fill:none;stroke:#000000;stroke-width:4mm"
     id="g26"
     transform="translate(7.5806074,-442.72016)">
    <path
       d="m 450.01944,484.929 -63.974,84.828"
       id="path6" />
    <path
       d="m 386.39944,484.929 63.62,84.474"
       id="path8" />
    <path
       d="m 178.21844,488.464 -63.974,84.827"
       id="path10" />
    <path
       d="m 114.59844,488.464 63.62,84.474"
       id="path12" />
    <path
       d="m 67.94344,449.938 -15.905,4.948 -12.371,4.949 -12.371,8.836 -9.896,12.371 -8.8360004,14.844 -4.949,13.431 -3.53400003,17.319 2.47400003,18.379 3.534,14.845 6.3620004,16.259"
       id="path14" />
    <path
       d="m 12.45144,576.119 15.906,13.431 19.793,8.836 17.319,3.534"
       id="path16" />
    <path
       d="m 62.99444,451.352 h 443.577 l 14.844,4.948 18.38,9.897 11.31,10.957 9.896,13.784 2.475,9.897 2.474,13.431 1.06,12.37 -1.06,15.905 -2.474,14.845 -6.363,14.845"
       id="path18" />
    <path
       d="m 557.11344,572.231 -6.008,8.836 -13.785,12.371 -9.896,6.008 -8.483,2.474 -12.37,-1.06 h -442.163"
       id="path20" />
    <path
       d="m 94.80544,529.817 106.034,-0.707"
       id="path22" />
    <path
       d="m 363.07144,528.05 h 113.81"
       id="path24" />
  </g>
</svg>
