<?xml version="1.0" encoding="UTF-8"?>
<svg id="svg38" width="582.33" height="410.84" version="1.1" viewBox="0 0 582.33 410.84" xmlns="http://www.w3.org/2000/svg">
 <g id="g36" transform="translate(7.5591 -673.96)" fill="none" stroke="#000" stroke-width="4mm">
  <path id="path6" d="m404.18 751.67h100.56"/>
  <path id="path8" d="m485.02 711.92-60.468 80.178"/>
  <path id="path10" d="m424.89 711.92 60.134 79.844"/>
  <path id="path12" d="m229.79 751.67h100.56"/>
  <path id="path14" d="m310.64 711.92-60.468 80.178"/>
  <path id="path16" d="m250.5 711.92 60.134 79.844"/>
  <path id="path18" d="m53.062 753.34h100.56"/>
  <path id="path20" d="m133.91 713.59-60.468 80.179"/>
  <path id="path22" d="m73.775 713.59 60.134 79.845"/>
  <path id="path24" d="m228.45 882.97h100.56"/>
  <path id="path26" d="m309.3 843.21-60.468 80.179"/>
  <path id="path28" d="m249.17 843.21 60.134 79.845"/>
  <path id="path30" d="m10.3 747-10.022-27.06 3.675-18.041 6.347-12.695 15.702-6.681 10.356-1.002h476.73l27.061 2.338 16.704 7.684 6.681 9.354 3.675 10.022"/>
  <path id="path32" d="m567.21 710.92v20.713l-6.347 10.357-229.51 305.35-9.02 10.357-9.02 10.356-9.02 5.345-6.347 1.003-6.348 2.672-11.692-1.336"/>
  <path id="path34" d="m279.9 1075.7-6.348-1.336-13.029-3.675-6.347-5.345-6.682-7.684-7.684-9.02-229.51-301.67"/>
 </g>
</svg>
