<?xml version="1.0" encoding="UTF-8"?>
<svg id="svg34" width="582.17" height="166.85" version="1.1" viewBox="0 0 582.17 166.85" xmlns="http://www.w3.org/2000/svg">
 <g id="g32" transform="translate(7.5806 -440.6)" fill="none" stroke="#000" stroke-width="4mm">
  <path id="path6" d="m505.51 486.7-63.974 84.827"/>
  <path id="path8" d="m441.89 486.7 63.62 84.474"/>
  <path id="path10" d="m321.01 486.7-63.974 84.827"/>
  <path id="path12" d="m257.39 486.7 63.621 84.474"/>
  <path id="path14" d="m134.04 488.46-63.974 84.827"/>
  <path id="path16" d="m70.417 488.46 63.62 84.474"/>
  <path id="path18" d="m67.943 447.82-15.905 4.948-12.371 4.948-12.371 8.836-9.896 12.371-8.836 14.845-4.949 13.431-3.534 17.319 2.474 18.379 3.534 14.845 6.362 16.258"/>
  <path id="path20" d="m12.451 574 15.906 13.431 19.793 8.836 17.319 3.535"/>
  <path id="path22" d="m62.994 449.23h443.58l14.844 4.949 18.38 9.896 11.31 10.957 9.896 13.784 2.475 9.897 2.474 13.431 1.06 12.371-1.06 15.905-2.474 14.844-6.363 14.845"/>
  <path id="path24" d="m557.11 570.11-6.008 8.836-13.785 12.371-9.896 6.009-8.483 2.474-12.37-1.061h-442.16"/>
  <path id="path26" d="m49.563 529.82h106.03"/>
  <path id="path28" d="m420.33 528.76h106.04"/>
  <path id="path30" d="m232.65 528.05h106.03"/>
 </g>
</svg>
