<?xml version="1.0" encoding="UTF-8"?>
<svg id="svg28" width="582.17" height="166.85" version="1.1" viewBox="0 0 582.17 166.85" xmlns="http://www.w3.org/2000/svg">
 <g id="g26" transform="translate(7.5806 -442.72)" fill="none" stroke="#000" stroke-width="4mm">
  <path id="path6" d="m450.02 484.93-63.974 84.828"/>
  <path id="path8" d="m386.4 484.93 63.62 84.474"/>
  <path id="path10" d="m178.22 488.46-63.974 84.827"/>
  <path id="path12" d="m114.6 488.46 63.62 84.474"/>
  <path id="path14" d="m67.943 449.94-15.905 4.948-12.371 4.949-12.371 8.836-9.896 12.371-8.836 14.844-4.949 13.431-3.534 17.319 2.474 18.379 3.534 14.845 6.362 16.259"/>
  <path id="path16" d="m12.451 576.12 15.906 13.431 19.793 8.836 17.319 3.534"/>
  <path id="path18" d="m62.994 451.35h443.58l14.844 4.948 18.38 9.897 11.31 10.957 9.896 13.784 2.475 9.897 2.474 13.431 1.06 12.37-1.06 15.905-2.474 14.845-6.363 14.845"/>
  <path id="path20" d="m557.11 572.23-6.008 8.836-13.785 12.371-9.896 6.008-8.483 2.474-12.37-1.06h-442.16"/>
  <path id="path22" d="m94.805 529.82 106.03-0.707"/>
  <path id="path24" d="m363.07 528.05h113.81"/>
 </g>
</svg>
