<?xml version="1.0" encoding="UTF-8" standalone="no"?>
<svg
   width="579.03516"
   height="244.83292"
   viewBox="0 0 579.03514 244.83292"
   version="1.1"
   id="svg18"
   sodipodi:docname="FSHHAV02.hpgl.svg"
   inkscape:version="1.1.2 (0a00cf5339, 2022-02-04)"
   xmlns:inkscape="http://www.inkscape.org/namespaces/inkscape"
   xmlns:sodipodi="http://sodipodi.sourceforge.net/DTD/sodipodi-0.dtd"
   xmlns="http://www.w3.org/2000/svg"
   xmlns:svg="http://www.w3.org/2000/svg">
  <defs
     id="defs22" />
  <sodipodi:namedview
     id="namedview20"
     pagecolor="#ffffff"
     bordercolor="#666666"
     borderopacity="1.0"
     inkscape:pageshadow="2"
     inkscape:pageopacity="0.0"
     inkscape:pagecheckerboard="0"
     showgrid="false"
     inkscape:zoom="2.3389172"
     inkscape:cx="290.30527"
     inkscape:cy="-1065.2365"
     inkscape:window-width="1495"
     inkscape:window-height="970"
     inkscape:window-x="0"
     inkscape:window-y="32"
     inkscape:window-maximized="0"
     inkscape:current-layer="svg18" />
  <g
     id="g2"
     transform="translate(6.7610874,-1180.0906)" />
  <g
     style="fill:none;stroke:#000000;stroke-width:1mm"
     id="g4"
     transform="translate(6.7610874,-1180.0906)" />
  <g
     style="fill:none;stroke:#000000;stroke-width:4mm"
     id="g16"
     transform="translate(6.7610874,-1180.0906)">
    <path
       d="M 88.287972,1298.914 9.3479719,1202.033"
       id="path6" />
    <path
       d="m 88.287972,1306.09 -89.7040001,89.704"
       id="path8" />
    <path
       d="m 88.287972,1306.09 39.469998,-43.058 50.234,-35.881 64.587,-28.706 71.763,-10.764 64.587,3.588 71.763,14.353 60.999,28.705 43.058,32.293 10.764,21.529"
       id="path10" />
    <path
       d="m 91.875972,1302.502 60.998998,50.234 75.351,43.058 78.94,17.941 57.41,3.588 60.999,-10.765 57.41,-21.528 46.646,-43.058 35.882,-50.235"
       id="path12" />
    <path
       d="m 468.63297,1219.974 -17.941,46.646 v 64.587 l 32.293,46.646"
       id="path14" />
  </g>
</svg>
