<?xml version="1.0" encoding="UTF-8" standalone="no"?>
<svg
   width="582.04675"
   height="337.58411"
   viewBox="0 0 582.04674 337.5841"
   version="1.1"
   id="svg28"
   sodipodi:docname="MARCUL02.hpgl.svg"
   inkscape:version="1.1.2 (0a00cf5339, 2022-02-04)"
   xmlns:inkscape="http://www.inkscape.org/namespaces/inkscape"
   xmlns:sodipodi="http://sodipodi.sourceforge.net/DTD/sodipodi-0.dtd"
   xmlns="http://www.w3.org/2000/svg"
   xmlns:svg="http://www.w3.org/2000/svg">
  <defs
     id="defs32" />
  <sodipodi:namedview
     id="namedview30"
     pagecolor="#ffffff"
     bordercolor="#666666"
     borderopacity="1.0"
     inkscape:pageshadow="2"
     inkscape:pageopacity="0.0"
     inkscape:pagecheckerboard="0"
     showgrid="false"
     inkscape:zoom="2.2186291"
     inkscape:cx="291.1708"
     inkscape:cy="-612.76579"
     inkscape:window-width="1495"
     inkscape:window-height="970"
     inkscape:window-x="0"
     inkscape:window-y="32"
     inkscape:window-maximized="0"
     inkscape:current-layer="svg28" />
  <g
     id="g2"
     transform="translate(7.5586776,-774.88394)" />
  <g
     style="fill:none;stroke:#000000;stroke-width:1mm"
     id="g4"
     transform="translate(7.5586776,-774.88394)" />
  <g
     style="fill:none;stroke:#000000;stroke-width:4mm"
     id="g26"
     transform="translate(7.5586776,-774.88394)">
    <path
       d="m 71.570378,1005.194 109.365002,-98.107 58.703,-32.971 45.837,-12.866 41.012,-4.825 48.249,8.846 49.858,16.083 32.166,19.3 27.341,21.712 16.887,24.124 -28.145,23.321"
       id="path6" />
    <path
       d="m 472.84338,969.811 -28.95,22.516 -43.424,19.3 -34.579,11.258 -41.816,1.608 -45.032,-1.608 -43.425,-9.65 -31.362,-17.691 L 71.570378,885.375"
       id="path8" />
    <path
       d="M 3.7777406e-4,862.054 V 782.443 H 563.71238 v 77.199"
       id="path10" />
    <path
       d="m 3.7777406e-4,1024.493 v 80.416 H 566.12538 l 0.804,-80.416"
       id="path12" />
    <path
       d="m 119.01538,1024.493 v 80.416"
       id="path14" />
    <path
       d="m 441.48138,1024.493 v 80.416"
       id="path16" />
    <path
       d="m 280.65038,1023.689 v 78.807"
       id="path18" />
    <path
       d="m 119.01538,783.247 v 81.22"
       id="path20" />
    <path
       d="m 441.48138,781.639 v 81.219"
       id="path22" />
    <path
       d="M 279.84638,780.834 V 861.25"
       id="path24" />
  </g>
</svg>
