<?xml version="1.0" encoding="UTF-8" standalone="no"?>
<svg
   width="295.96017"
   height="582.15826"
   viewBox="0 0 295.96016 582.15825"
   version="1.1"
   id="svg16"
   sodipodi:docname="QUESMRK1.hpgl.svg"
   inkscape:version="1.1.2 (0a00cf5339, 2022-02-04)"
   xmlns:inkscape="http://www.inkscape.org/namespaces/inkscape"
   xmlns:sodipodi="http://sodipodi.sourceforge.net/DTD/sodipodi-0.dtd"
   xmlns="http://www.w3.org/2000/svg"
   xmlns:svg="http://www.w3.org/2000/svg">
  <defs
     id="defs20" />
  <sodipodi:namedview
     id="namedview18"
     pagecolor="#ffffff"
     bordercolor="#666666"
     borderopacity="1.0"
     inkscape:pageshadow="2"
     inkscape:pageopacity="0.0"
     inkscape:pagecheckerboard="0"
     showgrid="false"
     inkscape:zoom="1.2682364"
     inkscape:cx="149.02584"
     inkscape:cy="-1846.2646"
     inkscape:window-width="1495"
     inkscape:window-height="970"
     inkscape:window-x="0"
     inkscape:window-y="32"
     inkscape:window-maximized="0"
     inkscape:current-layer="svg16" />
  <g
     id="g2"
     transform="translate(7.5590554,-2129.5118)" />
  <g
     style="fill:none;stroke:#000000;stroke-width:1mm"
     id="g4"
     transform="translate(7.5590554,-2129.5118)" />
  <g
     style="fill:none;stroke:#000000;stroke-width:4mm"
     id="g14"
     transform="translate(7.5590554,-2129.5118)">
    <path
       d="m -0.70294263,2260.038 16.63699963,-35.833 16.637,-31.993 21.755,-21.756 21.756,-21.756 33.274003,-11.518 29.434,2.56 38.392,11.518 35.833,7.678 29.435,43.512 23.035,24.315"
       id="path6" />
    <path
       d="m 265.48506,2226.765 15.357,28.154 v 31.994 l -15.357,30.714 -16.637,26.875 -25.595,30.714 -29.434,31.994 -26.875,33.273 -16.636,24.315 -14.078,21.756 -2.559,28.154"
       id="path8" />
    <path
       d="m 133.67106,2514.708 v 29.435 21.755 l 2.559,28.155 v 2.559"
       id="path10" />
    <path
       d="m 109.35606,2704.111 h 67.826"
       id="path12" />
  </g>
</svg>
