<?xml version="1.0" encoding="UTF-8" standalone="no"?>
<svg
   width="577.28027"
   height="499.21033"
   viewBox="0 0 577.28026 499.21033"
   version="1.1"
   id="svg36"
   sodipodi:docname="RCKLDG01.hpgl.svg"
   inkscape:version="1.1.2 (0a00cf5339, 2022-02-04)"
   xmlns:inkscape="http://www.inkscape.org/namespaces/inkscape"
   xmlns:sodipodi="http://sodipodi.sourceforge.net/DTD/sodipodi-0.dtd"
   xmlns="http://www.w3.org/2000/svg"
   xmlns:svg="http://www.w3.org/2000/svg">
  <defs
     id="defs40" />
  <sodipodi:namedview
     id="namedview38"
     pagecolor="#ffffff"
     bordercolor="#666666"
     borderopacity="1.0"
     inkscape:pageshadow="2"
     inkscape:pageopacity="0.0"
     inkscape:pagecheckerboard="0"
     showgrid="false"
     inkscape:zoom="1.4672302"
     inkscape:cx="290.343"
     inkscape:cy="-541.4965"
     inkscape:window-width="1495"
     inkscape:window-height="970"
     inkscape:window-x="0"
     inkscape:window-y="32"
     inkscape:window-maximized="0"
     inkscape:current-layer="svg36" />
  <g
     id="g2"
     transform="translate(6.8907299,-786.3024)" />
  <g
     style="fill:none;stroke:#000000;stroke-width:1mm"
     id="g4"
     transform="translate(6.8907299,-786.3024)" />
  <g
     style="fill:none;stroke:#000000;stroke-width:4mm"
     id="g34"
     transform="translate(6.8907299,-786.3024)">
    <path
       d="m 82.657811,1279.546 79.464999,-61.807"
       id="path6" />
    <path
       d="m 57.272811,868.973 37.893,112.944"
       id="path8" />
    <path
       d="m 282.42581,1009.509 -58.864,84.617"
       id="path10" />
    <path
       d="m 227.60881,879.642 27.592,-89.767"
       id="path12" />
    <path
       d="m 316.27181,1151.15 18.395,106.322"
       id="path14" />
    <path
       d="m 521.19081,1137.905 42.308,-93.813"
       id="path16" />
    <path
       d="M 527.44481,916.799 435.47081,887"
       id="path18" />
    <path
       d="M 95.165811,979.71 -3.4301893,928.94"
       id="path20" />
    <path
       d="m 226.87281,1093.39 -9.933,-97.861"
       id="path22" />
    <path
       d="m 80.817811,1279.546 10.669,-94.55"
       id="path24" />
    <path
       d="m 317.37581,1151.15 77.994,62.542"
       id="path26" />
    <path
       d="m 560.92381,1044.459 -97.125,40.837"
       id="path28" />
    <path
       d="m 436.94181,888.471 75.419,-49.666"
       id="path30" />
    <path
       d="m 255.20081,789.507 40.469,86.456"
       id="path32" />
  </g>
</svg>
