<?xml version="1.0" encoding="UTF-8"?>
<svg id="svg36" width="577.28" height="499.21" version="1.1" viewBox="0 0 577.28 499.21" xmlns="http://www.w3.org/2000/svg">
 <g id="g34" transform="translate(6.8907 -786.3)" fill="none" stroke="#000" stroke-width="4mm">
  <path id="path6" d="m82.658 1279.5 79.465-61.807"/>
  <path id="path8" d="m57.273 868.97 37.893 112.94"/>
  <path id="path10" d="m282.43 1009.5-58.864 84.617"/>
  <path id="path12" d="m227.61 879.64 27.592-89.767"/>
  <path id="path14" d="m316.27 1151.2 18.395 106.32"/>
  <path id="path16" d="m521.19 1137.9 42.308-93.813"/>
  <path id="path18" d="m527.44 916.8-91.974-29.799"/>
  <path id="path20" d="m95.166 979.71-98.596-50.77"/>
  <path id="path22" d="m226.87 1093.4-9.933-97.861"/>
  <path id="path24" d="m80.818 1279.5 10.669-94.55"/>
  <path id="path26" d="m317.38 1151.2 77.994 62.542"/>
  <path id="path28" d="m560.92 1044.5-97.125 40.837"/>
  <path id="path30" d="m436.94 888.47 75.419-49.666"/>
  <path id="path32" d="m255.2 789.51 40.469 86.456"/>
 </g>
</svg>
