<?xml version="1.0" encoding="UTF-8" standalone="no"?>
<svg
   width="566.92902"
   height="440.3295"
   viewBox="0 0 566.929 440.32951"
   version="1.1"
   id="svg28"
   sodipodi:docname="VEGATN04.hpgl.svg"
   inkscape:version="1.1.2 (0a00cf5339, 2022-02-04)"
   xmlns:inkscape="http://www.inkscape.org/namespaces/inkscape"
   xmlns:sodipodi="http://sodipodi.sourceforge.net/DTD/sodipodi-0.dtd"
   xmlns="http://www.w3.org/2000/svg"
   xmlns:svg="http://www.w3.org/2000/svg">
  <defs
     id="defs32" />
  <sodipodi:namedview
     id="namedview30"
     pagecolor="#ffffff"
     bordercolor="#666666"
     borderopacity="1.0"
     inkscape:pageshadow="2"
     inkscape:pageopacity="0.0"
     inkscape:pagecheckerboard="0"
     showgrid="false"
     inkscape:zoom="1.6909809"
     inkscape:cx="283.26754"
     inkscape:cy="-843.00184"
     inkscape:window-width="1495"
     inkscape:window-height="970"
     inkscape:window-x="0"
     inkscape:window-y="32"
     inkscape:window-maximized="0"
     inkscape:current-layer="svg28" />
  <g
     id="g2"
     transform="translate(0,-1055.4257)" />
  <g
     style="fill:none;stroke:#000000;stroke-width:1mm"
     id="g4"
     transform="translate(0,-1055.4257)" />
  <g
     style="fill:none;stroke:#000000;stroke-width:4mm"
     id="g26"
     transform="translate(0,-1055.4257)">
    <path
       d="m 496.063,1275.591 -0.809,18.529 -2.421,18.388 -4.014,18.107 -5.577,17.689 -7.098,17.135 -8.564,16.451 -9.965,15.642 -11.291,14.714 -12.53,13.675 -13.674,12.53"
       id="path6" />
    <path
       d="m 420.12,1438.451 -14.714,11.29 -15.642,9.965 -16.452,8.564 -17.135,7.098 -17.688,5.577 -18.107,4.014 -18.388,2.421 -18.53,0.809 -18.529,-0.809 -18.388,-2.421"
       id="path8" />
    <path
       d="m 246.547,1484.959 -18.107,-4.014 -17.689,-5.577 -17.135,-7.098 -16.451,-8.564 -15.642,-9.965 -14.714,-11.29 -13.674,-12.53 -12.53,-13.675 -11.291,-14.714 -9.965,-15.642"
       id="path10" />
    <path
       d="m 99.349,1381.89 -8.564,-16.451 -7.098,-17.135 -5.577,-17.689 -4.014,-18.107 -2.421,-18.388 -0.809,-18.529 0.809,-18.529 2.421,-18.389 4.014,-18.107 5.577,-17.688"
       id="path12" />
    <path
       d="m 83.687,1202.878 7.098,-17.135 8.564,-16.452 9.965,-15.642 11.291,-14.714 12.53,-13.674 13.674,-12.53 14.714,-11.291 15.642,-9.965 16.451,-8.564 17.135,-7.097"
       id="path14" />
    <path
       d="m 210.751,1075.814 17.689,-5.578 18.107,-4.014 18.388,-2.421 18.529,-0.809 18.53,0.809 18.388,2.421 18.107,4.014 17.688,5.578 17.135,7.097 16.452,8.564"
       id="path16" />
    <path
       d="m 389.764,1091.475 15.642,9.965 14.714,11.291 13.674,12.53 12.53,13.674 11.291,14.714 9.965,15.642 8.564,16.452 7.098,17.135 5.577,17.688 4.014,18.107"
       id="path18" />
    <path
       d="m 492.833,1238.673 2.421,18.389 0.809,18.529 -0.809,18.529"
       id="path20" />
    <path
       d="M 0,1488.189 H 566.929"
       id="path22" />
    <path
       d="M 283.464,1485.354 V 1257.165"
       id="path24" />
  </g>
</svg>
