<?xml version="1.0" encoding="UTF-8"?>
<svg id="svg28" width="566.93" height="440.33" version="1.1" viewBox="0 0 566.93 440.33" xmlns="http://www.w3.org/2000/svg">
 <g id="g26" transform="translate(0 -1055.4)" fill="none" stroke="#000" stroke-width="4mm">
  <path id="path6" d="m496.06 1275.6-0.809 18.529-2.421 18.388-4.014 18.107-5.577 17.689-7.098 17.135-8.564 16.451-9.965 15.642-11.291 14.714-12.53 13.675-13.674 12.53"/>
  <path id="path8" d="m420.12 1438.5-14.714 11.29-15.642 9.965-16.452 8.564-17.135 7.098-17.688 5.577-18.107 4.014-18.388 2.421-18.53 0.809-18.529-0.809-18.388-2.421"/>
  <path id="path10" d="m246.55 1485-18.107-4.014-17.689-5.577-17.135-7.098-16.451-8.564-15.642-9.965-14.714-11.29-13.674-12.53-12.53-13.675-11.291-14.714-9.965-15.642"/>
  <path id="path12" d="m99.349 1381.9-8.564-16.451-7.098-17.135-5.577-17.689-4.014-18.107-2.421-18.388-0.809-18.529 0.809-18.529 2.421-18.389 4.014-18.107 5.577-17.688"/>
  <path id="path14" d="m83.687 1202.9 7.098-17.135 8.564-16.452 9.965-15.642 11.291-14.714 12.53-13.674 13.674-12.53 14.714-11.291 15.642-9.965 16.451-8.564 17.135-7.097"/>
  <path id="path16" d="m210.75 1075.8 17.689-5.578 18.107-4.014 18.388-2.421 18.529-0.809 18.53 0.809 18.388 2.421 18.107 4.014 17.688 5.578 17.135 7.097 16.452 8.564"/>
  <path id="path18" d="m389.76 1091.5 15.642 9.965 14.714 11.291 13.674 12.53 12.53 13.674 11.291 14.714 9.965 15.642 8.564 16.452 7.098 17.135 5.577 17.688 4.014 18.107"/>
  <path id="path20" d="m492.83 1238.7 2.421 18.389 0.809 18.529-0.809 18.529"/>
  <path id="path22" d="m0 1488.2h566.93"/>
  <path id="path24" d="m283.46 1485.4v-228.19"/>
 </g>
</svg>
