<?xml version="1.0" encoding="UTF-8"?>
<svg id="svg40" width="566.93" height="112.05" version="1.1" viewBox="0 0 566.93 112.05" xmlns="http://www.w3.org/2000/svg">
 <g id="g38" transform="translate(0 -209.1)" fill="none" stroke="#000" stroke-width="4mm">
  <path id="path6" d="m0 250.72h112.26"/>
  <path id="path8" d="m453.92 250.72h113.01"/>
  <path id="path10" d="m484.98 251.47 30.124 30.124 31.808-31.434"/>
  <path id="path12" d="m303.48 252.03h112.26"/>
  <path id="path14" d="m328.93 251.84 31.059 30.872 30.686-30.872"/>
  <path id="path16" d="m25.072 252.4 29.188 29.001 30.873-30.311"/>
  <path id="path18" d="m257.46 265.13-0.185 4.224-0.551 4.191-0.915 4.128-1.272 4.032-1.618 3.905-1.952 3.75-2.271 3.566-2.574 3.354-2.856 3.117-3.117 2.856"/>
  <path id="path20" d="m240.15 302.25-3.354 2.574-3.565 2.271-3.75 1.952-3.906 1.618-4.032 1.271-4.127 0.915-4.192 0.552-4.224 0.185-4.223-0.185-4.192-0.552"/>
  <path id="path22" d="m200.58 312.85-4.127-0.915-4.032-1.271-3.906-1.618-3.75-1.952-3.565-2.271-3.354-2.574-3.117-2.856-2.856-3.117-2.574-3.354-2.271-3.566"/>
  <path id="path24" d="m167.03 289.36-1.952-3.75-1.618-3.905-1.272-4.032-0.915-4.128-0.551-4.191-0.185-4.224 0.185-4.223 0.551-4.192 0.915-4.127 1.272-4.032"/>
  <path id="path26" d="m163.46 248.55 1.618-3.906 1.952-3.75 2.271-3.565 2.574-3.354 2.856-3.117 3.117-2.856 3.354-2.574 3.565-2.272 3.75-1.952 3.906-1.617"/>
  <path id="path28" d="m192.42 219.59 4.032-1.272 4.127-0.915 4.192-0.552 4.223-0.184 4.224 0.184 4.192 0.552 4.127 0.915 4.032 1.271 3.906 1.618 3.75 1.952"/>
  <path id="path30" d="m233.23 223.16 3.565 2.272 3.354 2.574 3.117 2.856 2.856 3.117 2.574 3.354 2.271 3.565 1.952 3.75 1.618 3.906 1.272 4.032 0.915 4.127"/>
  <path id="path32" d="m256.72 256.71 0.551 4.192 0.185 4.223-0.185 4.224"/>
  <path id="path34" d="m208.25 232.57v42.099"/>
  <path id="path36" d="m205.25 292.07h10.291"/>
 </g>
</svg>
