<?xml version="1.0" encoding="UTF-8" standalone="no"?>
<svg
   width="566.92902"
   height="112.05353"
   viewBox="0 0 566.929 112.05353"
   version="1.1"
   id="svg40"
   sodipodi:docname="CTNARE51.hpgl.svg"
   inkscape:version="1.1.2 (0a00cf5339, 2022-02-04)"
   xmlns:inkscape="http://www.inkscape.org/namespaces/inkscape"
   xmlns:sodipodi="http://sodipodi.sourceforge.net/DTD/sodipodi-0.dtd"
   xmlns="http://www.w3.org/2000/svg"
   xmlns:svg="http://www.w3.org/2000/svg">
  <defs
     id="defs44" />
  <sodipodi:namedview
     id="namedview42"
     pagecolor="#ffffff"
     bordercolor="#666666"
     borderopacity="1.0"
     inkscape:pageshadow="2"
     inkscape:pageopacity="0.0"
     inkscape:pagecheckerboard="0"
     showgrid="false"
     inkscape:zoom="2.3389172"
     inkscape:cx="283.4645"
     inkscape:cy="-160.54437"
     inkscape:window-width="1495"
     inkscape:window-height="970"
     inkscape:window-x="0"
     inkscape:window-y="32"
     inkscape:window-maximized="0"
     inkscape:current-layer="svg40" />
  <g
     id="g2"
     transform="translate(0,-209.10177)" />
  <g
     style="fill:none;stroke:#000000;stroke-width:1mm"
     id="g4"
     transform="translate(0,-209.10177)" />
  <g
     style="fill:none;stroke:#000000;stroke-width:4mm"
     id="g38"
     transform="translate(0,-209.10177)">
    <path
       d="M 0,250.721 H 112.263"
       id="path6" />
    <path
       d="M 453.917,250.721 H 566.929"
       id="path8" />
    <path
       d="m 484.977,251.47 30.124,30.124 31.808,-31.434"
       id="path10" />
    <path
       d="M 303.485,252.031 H 415.748"
       id="path12" />
    <path
       d="m 328.931,251.844 31.059,30.872 30.686,-30.872"
       id="path14" />
    <path
       d="M 25.072,252.405 54.26,281.406 85.133,251.095"
       id="path16" />
    <path
       d="m 257.457,265.128 -0.185,4.224 -0.551,4.191 -0.915,4.128 -1.272,4.032 -1.618,3.905 -1.952,3.75 -2.271,3.566 -2.574,3.354 -2.856,3.117 -3.117,2.856"
       id="path18" />
    <path
       d="m 240.146,302.251 -3.354,2.574 -3.565,2.271 -3.75,1.952 -3.906,1.618 -4.032,1.271 -4.127,0.915 -4.192,0.552 -4.224,0.185 -4.223,-0.185 -4.192,-0.552"
       id="path20" />
    <path
       d="m 200.581,312.852 -4.127,-0.915 -4.032,-1.271 -3.906,-1.618 -3.75,-1.952 -3.565,-2.271 -3.354,-2.574 -3.117,-2.856 -2.856,-3.117 -2.574,-3.354 -2.271,-3.566"
       id="path22" />
    <path
       d="m 167.029,289.358 -1.952,-3.75 -1.618,-3.905 -1.272,-4.032 -0.915,-4.128 -0.551,-4.191 -0.185,-4.224 0.185,-4.223 0.551,-4.192 0.915,-4.127 1.272,-4.032"
       id="path24" />
    <path
       d="m 163.459,248.554 1.618,-3.906 1.952,-3.75 2.271,-3.565 2.574,-3.354 2.856,-3.117 3.117,-2.856 3.354,-2.574 3.565,-2.272 3.75,-1.952 3.906,-1.617"
       id="path26" />
    <path
       d="m 192.422,219.591 4.032,-1.272 4.127,-0.915 4.192,-0.552 4.223,-0.184 4.224,0.184 4.192,0.552 4.127,0.915 4.032,1.271 3.906,1.618 3.75,1.952"
       id="path28" />
    <path
       d="m 233.227,223.16 3.565,2.272 3.354,2.574 3.117,2.856 2.856,3.117 2.574,3.354 2.271,3.565 1.952,3.75 1.618,3.906 1.272,4.032 0.915,4.127"
       id="path30" />
    <path
       d="m 256.721,256.713 0.551,4.192 0.185,4.223 v 0 l -0.185,4.224"
       id="path32" />
    <path
       d="m 208.248,232.572 v 42.099"
       id="path34" />
    <path
       d="m 205.254,292.071 h 10.291"
       id="path36" />
  </g>
</svg>
