<?xml version="1.0" encoding="UTF-8"?>
<svg id="svg30" width="574.32" height="132.17" version="1.1" viewBox="0 0 574.32 132.17" xmlns="http://www.w3.org/2000/svg">
 <g id="g28" transform="translate(7.3881 -374.28)" fill="none" stroke="#000" stroke-width="4mm">
  <path id="path6" d="m420.81 399.3v67.587h23.122l22.232-10.005v-48.022l-22.899-9.56h-22.455"/>
  <path id="path8" d="m493.07 398.41 16.896 68.698 15.786-68.698 19.12 67.809 14.673-67.809"/>
  <path id="path10" d="m-7.3881 431.53h72.255"/>
  <path id="path12" d="m305.2 431.53h72.256"/>
  <path id="path14" d="m142.24 465.99-45.577-34.461 45.577-34.46"/>
  <path id="path16" d="m442.15 498.9h89.82"/>
  <path id="path18" d="m160.91 403.3 2.89-6.225 2.89-5.558 7.559-7.559 5.781-2.001 5.113 0.444 6.67 2.001 6.225 1.334 5.114 7.559 4.002 4.224"/>
  <path id="path20" d="m207.16 397.52 2.667 4.892v5.558l-2.667 5.336-2.891 4.668-4.446 5.336-5.114 5.558-4.668 5.781-2.891 4.224-2.445 3.779-0.445 4.892"/>
  <path id="path22" d="m184.26 447.54v8.893l0.445 4.891v0.444"/>
  <path id="path24" d="m180.03 480.44h11.783"/>
  <path id="path26" d="m227.61 464.88 45.577-34.46-45.577-34.461"/>
 </g>
</svg>
