<?xml version="1.0" encoding="UTF-8" standalone="no"?>
<svg
   width="566.92902"
   height="135.20752"
   viewBox="0 0 566.929 135.20752"
   version="1.1"
   id="svg42"
   sodipodi:docname="ENTRES51.hpgl.svg"
   inkscape:version="1.1.2 (0a00cf5339, 2022-02-04)"
   xmlns:inkscape="http://www.inkscape.org/namespaces/inkscape"
   xmlns:sodipodi="http://sodipodi.sourceforge.net/DTD/sodipodi-0.dtd"
   xmlns="http://www.w3.org/2000/svg"
   xmlns:svg="http://www.w3.org/2000/svg">
  <defs
     id="defs46" />
  <sodipodi:namedview
     id="namedview44"
     pagecolor="#ffffff"
     bordercolor="#666666"
     borderopacity="1.0"
     inkscape:pageshadow="2"
     inkscape:pageopacity="0.0"
     inkscape:pagecheckerboard="0"
     showgrid="false"
     inkscape:zoom="2.3389172"
     inkscape:cx="283.4645"
     inkscape:cy="-160.97192"
     inkscape:window-width="1495"
     inkscape:window-height="970"
     inkscape:window-x="0"
     inkscape:window-y="32"
     inkscape:window-maximized="0"
     inkscape:current-layer="svg42" />
  <g
     id="g2"
     transform="translate(0,-220.95077)" />
  <g
     style="fill:none;stroke:#000000;stroke-width:1mm"
     id="g4"
     transform="translate(0,-220.95077)" />
  <g
     style="fill:none;stroke:#000000;stroke-width:4mm"
     id="g40"
     transform="translate(0,-220.95077)">
    <path
       d="m 374.352,288.139 h 63.153"
       id="path6" />
    <path
       d="M 406.76,288.139 V 319.3"
       id="path8" />
    <path
       d="M 0,288.347 H 62.53"
       id="path10" />
    <path
       d="m 504.399,288.347 h 62.53"
       id="path12" />
    <path
       d="m 536.806,288.347 v 33.446"
       id="path14" />
    <path
       d="m 251.16,288.762 h 62.739"
       id="path16" />
    <path
       d="m 282.945,288.762 v 34.693"
       id="path18" />
    <path
       d="m 30.953,288.762 v 32.823"
       id="path20" />
    <path
       d="m 224.362,288.554 -0.229,5.233 -0.683,5.193 -1.134,5.113 -1.575,4.995 -2.004,4.839 -2.419,4.646 -2.814,4.417 -3.188,4.156 -3.539,3.861 -3.862,3.539"
       id="path22" />
    <path
       d="m 202.915,334.546 -4.155,3.188 -4.417,2.814 -4.646,2.419 -4.839,2.004 -4.995,1.575 -5.114,1.134 -5.192,0.683 -5.233,0.229 -5.233,-0.229 -5.192,-0.683"
       id="path24" />
    <path
       d="m 153.899,347.68 -5.114,-1.134 -4.995,-1.575 -4.839,-2.004 -4.646,-2.419 -4.417,-2.814 -4.155,-3.188 -3.862,-3.539 -3.538,-3.861 -3.189,-4.156 -2.814,-4.417"
       id="path26" />
    <path
       d="m 112.33,318.573 -2.418,-4.646 -2.005,-4.839 -1.575,-4.995 -1.133,-5.113 -0.684,-5.193 -0.229,-5.233 0.229,-5.232 0.684,-5.193 1.133,-5.114 1.575,-4.995"
       id="path28" />
    <path
       d="m 107.907,268.02 2.005,-4.839 2.418,-4.645 2.814,-4.418 3.189,-4.155 3.538,-3.862 3.862,-3.538 4.155,-3.189 4.417,-2.814 4.646,-2.418 4.839,-2.005"
       id="path30" />
    <path
       d="m 143.79,232.137 4.995,-1.575 5.114,-1.133 5.192,-0.684 5.233,-0.228 5.233,0.228 5.192,0.684 5.114,1.133 4.995,1.575 4.839,2.005 4.646,2.418"
       id="path32" />
    <path
       d="m 194.343,236.56 4.417,2.814 4.155,3.189 3.862,3.538 3.539,3.862 3.188,4.155 2.814,4.418 2.419,4.645 2.004,4.839 1.575,4.995 1.134,5.114"
       id="path34" />
    <path
       d="m 223.45,278.129 0.683,5.193 0.229,5.232 v 0 l -0.229,5.233"
       id="path36" />
    <path
       d="m 132.747,290.009 h 64.608"
       id="path38" />
  </g>
</svg>
