<?xml version="1.0" encoding="UTF-8"?>
<svg id="svg42" width="566.93" height="135.21" version="1.1" viewBox="0 0 566.93 135.21" xmlns="http://www.w3.org/2000/svg">
 <g id="g40" transform="translate(0 -220.95)" fill="none" stroke="#000" stroke-width="4mm">
  <path id="path6" d="m374.35 288.14h63.153"/>
  <path id="path8" d="m406.76 288.14v31.161"/>
  <path id="path10" d="m0 288.35h62.53"/>
  <path id="path12" d="m504.4 288.35h62.53"/>
  <path id="path14" d="m536.81 288.35v33.446"/>
  <path id="path16" d="m251.16 288.76h62.739"/>
  <path id="path18" d="m282.94 288.76v34.693"/>
  <path id="path20" d="m30.953 288.76v32.823"/>
  <path id="path22" d="m224.36 288.55-0.229 5.233-0.683 5.193-1.134 5.113-1.575 4.995-2.004 4.839-2.419 4.646-2.814 4.417-3.188 4.156-3.539 3.861-3.862 3.539"/>
  <path id="path24" d="m202.92 334.55-4.155 3.188-4.417 2.814-4.646 2.419-4.839 2.004-4.995 1.575-5.114 1.134-5.192 0.683-5.233 0.229-5.233-0.229-5.192-0.683"/>
  <path id="path26" d="m153.9 347.68-5.114-1.134-4.995-1.575-4.839-2.004-4.646-2.419-4.417-2.814-4.155-3.188-3.862-3.539-3.538-3.861-3.189-4.156-2.814-4.417"/>
  <path id="path28" d="m112.33 318.57-2.418-4.646-2.005-4.839-1.575-4.995-1.133-5.113-0.684-5.193-0.229-5.233 0.229-5.232 0.684-5.193 1.133-5.114 1.575-4.995"/>
  <path id="path30" d="m107.91 268.02 2.005-4.839 2.418-4.645 2.814-4.418 3.189-4.155 3.538-3.862 3.862-3.538 4.155-3.189 4.417-2.814 4.646-2.418 4.839-2.005"/>
  <path id="path32" d="m143.79 232.14 4.995-1.575 5.114-1.133 5.192-0.684 5.233-0.228 5.233 0.228 5.192 0.684 5.114 1.133 4.995 1.575 4.839 2.005 4.646 2.418"/>
  <path id="path34" d="m194.34 236.56 4.417 2.814 4.155 3.189 3.862 3.538 3.539 3.862 3.188 4.155 2.814 4.418 2.419 4.645 2.004 4.839 1.575 4.995 1.134 5.114"/>
  <path id="path36" d="m223.45 278.13 0.683 5.193 0.229 5.232-0.229 5.233"/>
  <path id="path38" d="m132.75 290.01h64.608"/>
 </g>
</svg>
