<?xml version="1.0" encoding="UTF-8"?>
<svg id="svg36" width="566.93" height="93.486" version="1.1" viewBox="0 0 566.93 93.486" xmlns="http://www.w3.org/2000/svg">
 <g id="g34" transform="translate(0 -222.61)" fill="none" stroke="#000" stroke-width="4mm">
  <path id="path6" d="m379.64 253.23h64.046"/>
  <path id="path8" d="m412.5 253.23v31.601"/>
  <path id="path10" d="m0 253.44h63.413"/>
  <path id="path12" d="m503.52 253.44h63.413"/>
  <path id="path14" d="m536.38 253.44v33.919"/>
  <path id="path16" d="m254.71 253.86h63.624"/>
  <path id="path18" d="m286.94 253.86v35.183"/>
  <path id="path20" d="m31.391 253.86v33.286"/>
  <path id="path22" d="m94.593 287.78 24.86-20.856 10.534-11.588 12.219-8.005 12.851-4.846 12.009-3.581h13.272l11.166 1.264 13.484 4.635 12.219 5.477 10.955 8.216"/>
  <path id="path24" d="m228.16 258.5 6.531 8.428-8.216 7.584-7.795 6.952-9.692 4.846-12.851 4.845-12.851 2.528h-14.537l-13.694-2.528-13.483-4.845-11.587-7.795"/>
  <path id="path26" d="m129.99 278.51-8.006-6.531"/>
  <path id="path28" d="m116.08 264.61-17.486-22.753"/>
  <path id="path30" d="m121.56 271.77-5.688-6.32"/>
  <path id="path32" d="m221.84 227.95-82.796 82.796"/>
 </g>
</svg>
