<?xml version="1.0" encoding="UTF-8" standalone="no"?>
<svg
   width="566.92902"
   height="93.486122"
   viewBox="0 0 566.929 93.486125"
   version="1.1"
   id="svg36"
   sodipodi:docname="FSHRES51.hpgl.svg"
   inkscape:version="1.1.2 (0a00cf5339, 2022-02-04)"
   xmlns:inkscape="http://www.inkscape.org/namespaces/inkscape"
   xmlns:sodipodi="http://sodipodi.sourceforge.net/DTD/sodipodi-0.dtd"
   xmlns="http://www.w3.org/2000/svg"
   xmlns:svg="http://www.w3.org/2000/svg">
  <defs
     id="defs40" />
  <sodipodi:namedview
     id="namedview38"
     pagecolor="#ffffff"
     bordercolor="#666666"
     borderopacity="1.0"
     inkscape:pageshadow="2"
     inkscape:pageopacity="0.0"
     inkscape:pagecheckerboard="0"
     showgrid="false"
     inkscape:zoom="2.3389172"
     inkscape:cx="283.4645"
     inkscape:cy="-181.49424"
     inkscape:window-width="1495"
     inkscape:window-height="970"
     inkscape:window-x="0"
     inkscape:window-y="32"
     inkscape:window-maximized="0"
     inkscape:current-layer="svg36" />
  <g
     id="g2"
     transform="translate(0,-222.60594)" />
  <g
     style="fill:none;stroke:#000000;stroke-width:1mm"
     id="g4"
     transform="translate(0,-222.60594)" />
  <g
     style="fill:none;stroke:#000000;stroke-width:4mm"
     id="g34"
     transform="translate(0,-222.60594)">
    <path
       d="m 379.638,253.233 h 64.046"
       id="path6" />
    <path
       d="m 412.503,253.233 v 31.601"
       id="path8" />
    <path
       d="M 0,253.443 H 63.413"
       id="path10" />
    <path
       d="m 503.516,253.443 h 63.413"
       id="path12" />
    <path
       d="m 536.381,253.443 v 33.919"
       id="path14" />
    <path
       d="m 254.707,253.865 h 63.624"
       id="path16" />
    <path
       d="m 286.941,253.865 v 35.183"
       id="path18" />
    <path
       d="m 31.391,253.865 v 33.286"
       id="path20" />
    <path
       d="m 94.593,287.783 24.86,-20.856 10.534,-11.588 12.219,-8.005 12.851,-4.846 12.009,-3.581 h 13.272 l 11.166,1.264 13.484,4.635 12.219,5.477 10.955,8.216"
       id="path22" />
    <path
       d="m 228.162,258.499 6.531,8.428 -8.216,7.584 -7.795,6.952 -9.692,4.846 -12.851,4.845 -12.851,2.528 h -14.537 l -13.694,-2.528 -13.483,-4.845 -11.587,-7.795"
       id="path24" />
    <path
       d="m 129.987,278.514 -8.006,-6.531"
       id="path26" />
    <path
       d="M 116.082,264.609 98.596,241.856"
       id="path28" />
    <path
       d="m 121.56,271.772 -5.688,-6.32"
       id="path30" />
    <path
       d="m 221.842,227.951 -82.796,82.796"
       id="path32" />
  </g>
</svg>
