<?xml version="1.0" encoding="UTF-8" standalone="no"?>
<svg
   width="570.54694"
   height="102.24328"
   viewBox="0 0 570.54692 102.24328"
   version="1.1"
   id="svg36"
   sodipodi:docname="MARSYS51.hpgl.svg"
   inkscape:version="1.1.2 (0a00cf5339, 2022-02-04)"
   xmlns:inkscape="http://www.inkscape.org/namespaces/inkscape"
   xmlns:sodipodi="http://sodipodi.sourceforge.net/DTD/sodipodi-0.dtd"
   xmlns="http://www.w3.org/2000/svg"
   xmlns:svg="http://www.w3.org/2000/svg">
  <defs
     id="defs40" />
  <sodipodi:namedview
     id="namedview38"
     pagecolor="#ffffff"
     bordercolor="#666666"
     borderopacity="1.0"
     inkscape:pageshadow="2"
     inkscape:pageopacity="0.0"
     inkscape:pagecheckerboard="0"
     showgrid="false"
     inkscape:zoom="2.3389172"
     inkscape:cx="283.4645"
     inkscape:cy="-162.68212"
     inkscape:window-width="1495"
     inkscape:window-height="970"
     inkscape:window-x="0"
     inkscape:window-y="32"
     inkscape:window-maximized="0"
     inkscape:current-layer="svg36" />
  <g
     id="g2"
     transform="translate(1.1522558e-8,-198.08878)" />
  <g
     style="fill:none;stroke:#000000;stroke-width:1mm"
     id="g4"
     transform="translate(1.1522558e-8,-198.08878)" />
  <g
     style="fill:none;stroke:#000000;stroke-width:4mm"
     id="g34"
     transform="translate(1.1522558e-8,-198.08878)">
    <path
       d="m 341.38195,258.42 h 64.716"
       id="path6" />
    <path
       d="m 505.83095,258.42 h 64.716"
       id="path8" />
    <path
       d="m 293.06595,258.42 h -67.818"
       id="path10" />
    <path
       d="m 144.13095,288.562 22.163,-66.711 22.606,66.711"
       id="path12" />
    <path
       d="m 152.99595,262.188 h 27.926"
       id="path14" />
    <path
       d="m 462.83495,226.062 h -21.941 v 66.711 h 21.941"
       id="path16" />
    <path
       d="m 440.89395,259.75 h 21.941"
       id="path18" />
    <path
       d="m 472.36495,232.711 v 21.942"
       id="path20" />
    <path
       d="m 472.14295,265.734 v 21.942"
       id="path22" />
    <path
       d="m 462.83495,226.062 9.53,6.649"
       id="path24" />
    <path
       d="m 462.83495,292.773 9.53,-7.314"
       id="path26" />
    <path
       d="m 472.36495,253.988 -10.195,6.649 9.53,5.762"
       id="path28" />
    <path
       d="M 116.42695,258.42 H 49.051953"
       id="path30" />
    <path
       d="m 3.617953,259.085 2.438,-1.329"
       id="path32" />
  </g>
</svg>
