<?xml version="1.0" encoding="UTF-8" standalone="no"?>
<svg
   width="566.92902"
   height="59.606205"
   viewBox="0 0 566.929 59.606207"
   version="1.1"
   id="svg38"
   sodipodi:docname="PIPARE51.hpgl.svg"
   inkscape:version="1.1.2 (0a00cf5339, 2022-02-04)"
   xmlns:inkscape="http://www.inkscape.org/namespaces/inkscape"
   xmlns:sodipodi="http://sodipodi.sourceforge.net/DTD/sodipodi-0.dtd"
   xmlns="http://www.w3.org/2000/svg"
   xmlns:svg="http://www.w3.org/2000/svg">
  <defs
     id="defs42" />
  <sodipodi:namedview
     id="namedview40"
     pagecolor="#ffffff"
     bordercolor="#666666"
     borderopacity="1.0"
     inkscape:pageshadow="2"
     inkscape:pageopacity="0.0"
     inkscape:pagecheckerboard="0"
     showgrid="false"
     inkscape:zoom="2.3389172"
     inkscape:cx="283.4645"
     inkscape:cy="-157.55154"
     inkscape:window-width="1495"
     inkscape:window-height="970"
     inkscape:window-x="0"
     inkscape:window-y="32"
     inkscape:window-maximized="0"
     inkscape:current-layer="svg38" />
  <g
     id="g2"
     transform="translate(0,-178.22988)" />
  <g
     style="fill:none;stroke:#000000;stroke-width:1mm"
     id="g4"
     transform="translate(0,-178.22988)" />
  <g
     style="fill:none;stroke:#000000;stroke-width:4mm"
     id="g36"
     transform="translate(0,-178.22988)">
    <path
       d="m 264.941,203.571 -0.068,1.549 -0.202,1.537 -0.336,1.514 -0.466,1.479 -0.593,1.433 -0.716,1.375 -0.834,1.308 -0.944,1.23 -1.047,1.143 -1.143,1.048"
       id="path6" />
    <path
       d="m 258.592,217.187 -1.231,0.944 -1.308,0.833 -1.375,0.716 -1.433,0.594 -1.479,0.466 -1.513,0.336 -1.538,0.202 -1.549,0.068 -1.549,-0.068 -1.538,-0.202"
       id="path8" />
    <path
       d="m 244.079,221.076 -1.514,-0.336 -1.478,-0.466 -1.433,-0.594 -1.376,-0.716 -1.307,-0.833 -1.231,-0.944 -1.143,-1.048 -1.047,-1.143 -0.944,-1.23 -0.834,-1.308"
       id="path10" />
    <path
       d="m 231.772,212.458 -0.716,-1.375 -0.593,-1.433 -0.466,-1.479 -0.336,-1.514 -0.202,-1.537 -0.068,-1.549 0.068,-1.55 0.202,-1.537 0.336,-1.514 0.466,-1.479"
       id="path12" />
    <path
       d="m 230.463,197.491 0.593,-1.432 0.716,-1.376 0.834,-1.308 0.944,-1.23 1.047,-1.143 1.143,-1.048 1.231,-0.944 1.307,-0.833 1.376,-0.716 1.433,-0.593"
       id="path14" />
    <path
       d="m 241.087,186.868 1.478,-0.467 1.514,-0.335 1.538,-0.203 1.549,-0.067 1.549,0.067 1.538,0.203 1.513,0.335 1.479,0.467 1.433,0.593 1.375,0.716"
       id="path16" />
    <path
       d="m 256.053,188.177 1.308,0.833 1.231,0.944 1.143,1.048 1.047,1.143 0.944,1.23 0.834,1.308 0.716,1.376 0.593,1.432 0.466,1.479 0.336,1.514"
       id="path18" />
    <path
       d="m 264.671,200.484 0.202,1.537 0.068,1.55 -0.068,1.549"
       id="path20" />
    <path
       d="m 154.736,203.571 h 74.281"
       id="path22" />
    <path
       d="M 0,195.151 H 112.263"
       id="path24" />
    <path
       d="M 453.917,195.151 H 566.929"
       id="path26" />
    <path
       d="m 484.977,195.899 30.124,30.124 31.808,-31.433"
       id="path28" />
    <path
       d="M 303.485,196.461 H 415.748"
       id="path30" />
    <path
       d="m 328.931,196.274 31.059,30.872 30.686,-30.872"
       id="path32" />
    <path
       d="M 25.072,196.835 54.26,225.836 85.133,195.525"
       id="path34" />
  </g>
</svg>
