<?xml version="1.0" encoding="UTF-8"?>
<svg id="svg38" width="566.93" height="59.606" version="1.1" viewBox="0 0 566.93 59.606" xmlns="http://www.w3.org/2000/svg">
 <g id="g36" transform="translate(0 -178.23)" fill="none" stroke="#000" stroke-width="4mm">
  <path id="path6" d="m264.94 203.57-0.068 1.549-0.202 1.537-0.336 1.514-0.466 1.479-0.593 1.433-0.716 1.375-0.834 1.308-0.944 1.23-1.047 1.143-1.143 1.048"/>
  <path id="path8" d="m258.59 217.19-1.231 0.944-1.308 0.833-1.375 0.716-1.433 0.594-1.479 0.466-1.513 0.336-1.538 0.202-1.549 0.068-1.549-0.068-1.538-0.202"/>
  <path id="path10" d="m244.08 221.08-1.514-0.336-1.478-0.466-1.433-0.594-1.376-0.716-1.307-0.833-1.231-0.944-1.143-1.048-1.047-1.143-0.944-1.23-0.834-1.308"/>
  <path id="path12" d="m231.77 212.46-0.716-1.375-0.593-1.433-0.466-1.479-0.336-1.514-0.202-1.537-0.068-1.549 0.068-1.55 0.202-1.537 0.336-1.514 0.466-1.479"/>
  <path id="path14" d="m230.46 197.49 0.593-1.432 0.716-1.376 0.834-1.308 0.944-1.23 1.047-1.143 1.143-1.048 1.231-0.944 1.307-0.833 1.376-0.716 1.433-0.593"/>
  <path id="path16" d="m241.09 186.87 1.478-0.467 1.514-0.335 1.538-0.203 1.549-0.067 1.549 0.067 1.538 0.203 1.513 0.335 1.479 0.467 1.433 0.593 1.375 0.716"/>
  <path id="path18" d="m256.05 188.18 1.308 0.833 1.231 0.944 1.143 1.048 1.047 1.143 0.944 1.23 0.834 1.308 0.716 1.376 0.593 1.432 0.466 1.479 0.336 1.514"/>
  <path id="path20" d="m264.67 200.48 0.202 1.537 0.068 1.55-0.068 1.549"/>
  <path id="path22" d="m154.74 203.57h74.281"/>
  <path id="path24" d="m0 195.15h112.26"/>
  <path id="path26" d="m453.92 195.15h113.01"/>
  <path id="path28" d="m484.98 195.9 30.124 30.124 31.808-31.433"/>
  <path id="path30" d="m303.48 196.46h112.26"/>
  <path id="path32" d="m328.93 196.27 31.059 30.872 30.686-30.872"/>
  <path id="path34" d="m25.072 196.84 29.188 29.001 30.873-30.311"/>
 </g>
</svg>
