<?xml version="1.0" encoding="UTF-8"?>
<svg id="svg26" width="574.5" height="198.01" version="1.1" viewBox="0 0 574.5 198.01" xmlns="http://www.w3.org/2000/svg">
 <g id="g24" transform="translate(7.5663 -2200.5)" fill="none" stroke="#000" stroke-width="4mm">
  <path id="path6" d="m559.36 2299.5-0.348 7.97-1.041 7.909-1.727 7.788-2.399 7.608-3.052 7.369-3.684 7.076-4.286 6.728-4.856 6.329-5.389 5.881-5.881 5.389"/>
  <path id="path8" d="m526.7 2369.5-6.329 4.857-6.728 4.286-7.076 3.683-7.37 3.053-7.608 2.399-7.788 1.726-7.909 1.041-7.969 0.348-7.97-0.348-7.909-1.041"/>
  <path id="path10" d="m452.04 2389.5-7.788-1.726-7.608-2.399-7.369-3.053-7.076-3.683-6.728-4.286-6.329-4.857-5.881-5.389-5.389-5.881-4.857-6.329-4.286-6.728"/>
  <path id="path12" d="m388.73 2345.2-3.683-7.076-3.053-7.369-2.399-7.608-1.726-7.788-1.041-7.909-0.348-7.97 0.348-7.969 1.041-7.909 1.726-7.788 2.399-7.608"/>
  <path id="path14" d="m382 2268.2 3.053-7.37 3.683-7.076 4.286-6.728 4.857-6.328 5.389-5.882 5.881-5.389 6.329-4.856 6.728-4.286 7.076-3.684 7.369-3.052"/>
  <path id="path16" d="m436.65 2213.6 7.608-2.399 7.788-1.727 7.909-1.041 7.97-0.348 7.969 0.348 7.909 1.041 7.788 1.727 7.608 2.399 7.37 3.052 7.076 3.684"/>
  <path id="path18" d="m513.64 2220.3 6.728 4.286 6.328 4.856 5.882 5.389 5.389 5.881 4.856 6.329 4.286 6.728 3.684 7.076 3.052 7.37 2.399 7.608 1.727 7.788"/>
  <path id="path20" d="m557.97 2283.6 1.041 7.909 0.348 7.969-0.348 7.97"/>
  <path id="path22" d="m-7.5663 2299.5h382.12"/>
 </g>
</svg>
