<?xml version="1.0" encoding="UTF-8" standalone="no"?>
<svg
   width="574.49524"
   height="198.01251"
   viewBox="0 0 574.49522 198.01251"
   version="1.1"
   id="svg26"
   sodipodi:docname="PIPSOL05.hpgl.svg"
   inkscape:version="1.1.2 (0a00cf5339, 2022-02-04)"
   xmlns:inkscape="http://www.inkscape.org/namespaces/inkscape"
   xmlns:sodipodi="http://sodipodi.sourceforge.net/DTD/sodipodi-0.dtd"
   xmlns="http://www.w3.org/2000/svg"
   xmlns:svg="http://www.w3.org/2000/svg">
  <defs
     id="defs30" />
  <sodipodi:namedview
     id="namedview28"
     pagecolor="#ffffff"
     bordercolor="#666666"
     borderopacity="1.0"
     inkscape:pageshadow="2"
     inkscape:pageopacity="0.0"
     inkscape:pagecheckerboard="0"
     showgrid="false"
     inkscape:zoom="2.3389172"
     inkscape:cx="291.16037"
     inkscape:cy="-2109.3094"
     inkscape:window-width="1495"
     inkscape:window-height="970"
     inkscape:window-x="0"
     inkscape:window-y="32"
     inkscape:window-maximized="0"
     inkscape:current-layer="svg26" />
  <g
     id="g2"
     transform="translate(7.5662586,-2200.4737)" />
  <g
     style="fill:none;stroke:#000000;stroke-width:1mm"
     id="g4"
     transform="translate(7.5662586,-2200.4737)" />
  <g
     style="fill:none;stroke:#000000;stroke-width:4mm"
     id="g24"
     transform="translate(7.5662586,-2200.4737)">
    <path
       d="m 559.36274,2299.48 -0.348,7.97 -1.041,7.909 -1.727,7.788 -2.399,7.608 -3.052,7.369 -3.684,7.076 -4.286,6.728 -4.856,6.329 -5.389,5.881 -5.881,5.389"
       id="path6" />
    <path
       d="m 526.69974,2369.527 -6.329,4.857 -6.728,4.286 -7.076,3.683 -7.37,3.053 -7.608,2.399 -7.788,1.726 -7.909,1.041 -7.969,0.348 -7.97,-0.348 -7.909,-1.041"
       id="path8" />
    <path
       d="m 452.04374,2389.531 -7.788,-1.726 -7.608,-2.399 -7.369,-3.053 -7.076,-3.683 -6.728,-4.286 -6.329,-4.857 -5.881,-5.389 -5.389,-5.881 -4.857,-6.329 -4.286,-6.728"
       id="path10" />
    <path
       d="m 388.73274,2345.2 -3.683,-7.076 -3.053,-7.369 -2.399,-7.608 -1.726,-7.788 -1.041,-7.909 -0.348,-7.97 0.348,-7.969 1.041,-7.909 1.726,-7.788 2.399,-7.608"
       id="path12" />
    <path
       d="m 381.99674,2268.206 3.053,-7.37 3.683,-7.076 4.286,-6.728 4.857,-6.328 5.389,-5.882 5.881,-5.389 6.329,-4.856 6.728,-4.286 7.076,-3.684 7.369,-3.052"
       id="path14" />
    <path
       d="m 436.64774,2213.555 7.608,-2.399 7.788,-1.727 7.909,-1.041 7.97,-0.348 7.969,0.348 7.909,1.041 7.788,1.727 7.608,2.399 7.37,3.052 7.076,3.684"
       id="path16" />
    <path
       d="m 513.64274,2220.291 6.728,4.286 6.328,4.856 5.882,5.389 5.389,5.881 4.856,6.329 4.286,6.728 3.684,7.076 3.052,7.37 2.399,7.608 1.727,7.788"
       id="path18" />
    <path
       d="m 557.97374,2283.602 1.041,7.909 0.348,7.969 -0.348,7.97"
       id="path20" />
    <path
       d="M -7.5662586,2299.48 H 374.55774"
       id="path22" />
  </g>
</svg>
