<?xml version="1.0" encoding="UTF-8"?>
<svg id="svg26" width="574.5" height="141.36" version="1.1" viewBox="0 0 574.5 141.36" xmlns="http://www.w3.org/2000/svg">
 <g id="g24" transform="translate(7.5662 -2488.3)" fill="none" stroke="#000" stroke-width="4mm">
  <path id="path6" d="m-7.5662 2558.9h440.7"/>
  <path id="path8" d="m559.36 2558.9-0.24 5.501-0.719 5.459-1.191 5.376-1.656 5.251-2.108 5.087-2.542 4.884-2.958 4.644-3.352 4.368-3.72 4.06-4.059 3.719"/>
  <path id="path10" d="m536.82 2607.3-4.369 3.352-4.644 2.959-4.883 2.542-5.088 2.107-5.251 1.656-5.375 1.192-5.459 0.718-5.501 0.241-5.501-0.241-5.459-0.718"/>
  <path id="path12" d="m485.29 2621.1-5.376-1.192-5.251-1.656-5.087-2.107-4.884-2.542-4.644-2.959-4.368-3.352-4.059-3.719-3.72-4.06-3.352-4.368-2.959-4.644"/>
  <path id="path14" d="m441.59 2590.5-2.542-4.884-2.107-5.087-1.656-5.251-1.191-5.376-0.719-5.459-0.24-5.501 0.24-5.5 0.719-5.459 1.191-5.376 1.656-5.251"/>
  <path id="path16" d="m436.94 2537.3 2.107-5.087 2.542-4.884 2.959-4.644 3.352-4.368 3.72-4.06 4.059-3.72 4.368-3.352 4.644-2.958 4.884-2.542 5.087-2.107"/>
  <path id="path18" d="m474.66 2499.6 5.251-1.656 5.376-1.192 5.459-0.719 5.501-0.24 5.501 0.24 5.459 0.719 5.375 1.192 5.251 1.656 5.087 2.106 4.884 2.543"/>
  <path id="path20" d="m527.8 2504.3 4.644 2.958 4.369 3.352 4.059 3.72 3.72 4.06 3.352 4.368 2.958 4.644 2.542 4.884 2.108 5.087 1.656 5.251 1.191 5.376"/>
  <path id="path22" d="m558.4 2548 0.719 5.459 0.24 5.5-0.24 5.501"/>
 </g>
</svg>
