<?xml version="1.0" encoding="UTF-8"?>
<svg id="svg3446" width="566.93" height="581.39" version="1.1" viewBox="0 0 566.93 581.39" xmlns="http://www.w3.org/2000/svg">
 <g id="g3444" transform="translate(0 -4986.4)" fill="none" stroke="#000" stroke-width="4mm">
  <path id="path6" d="m275.92 4993.9h15.098"/>
  <path id="path8" d="m268.37 4994.2h30.196"/>
  <path id="path10" d="m260.82 4994.6h45.294"/>
  <path id="path12" d="m256.94 4994.9h53.053"/>
  <path id="path14" d="m254.43 4995.2h58.06"/>
  <path id="path16" d="m251.93 4995.6h63.067"/>
  <path id="path18" d="m249.43 4995.9h68.075"/>
  <path id="path20" d="m246.92 4996.2h73.083"/>
  <path id="path22" d="m244.42 4996.6h78.09"/>
  <path id="path24" d="m241.92 4996.9h83.097"/>
  <path id="path26" d="m239.41 4997.2h88.105"/>
  <path id="path28" d="m236.91 4997.5h93.113"/>
  <path id="path30" d="m234.4 4997.9h98.119"/>
  <path id="path32" d="m232.85 4998.2h101.22"/>
  <path id="path34" d="m231.36 4998.5h104.2"/>
  <path id="path36" d="m229.88 4998.9h107.17"/>
  <path id="path38" d="m228.39 4999.2h110.14"/>
  <path id="path40" d="m226.9 4999.5h113.12"/>
  <path id="path42" d="m225.42 4999.9h116.09"/>
  <path id="path44" d="m223.93 5000.2h119.07"/>
  <path id="path46" d="m222.44 5000.5h122.04"/>
  <path id="path48" d="m220.96 5000.8h125.01"/>
  <path id="path50" d="m219.47 5001.2h127.99"/>
  <path id="path52" d="m217.98 5001.5h130.96"/>
  <path id="path54" d="m216.5 5001.8h133.93"/>
  <path id="path56" d="m215.01 5002.2h136.91"/>
  <path id="path58" d="m213.52 5002.5h139.88"/>
  <path id="path60" d="m212.04 5002.8h142.85"/>
  <path id="path62" d="m210.55 5003.2h145.83"/>
  <path id="path64" d="m209.37 5003.5h148.19"/>
  <path id="path66" d="m208.33 5003.8h150.28"/>
  <path id="path68" d="m207.28 5004.1h152.37"/>
  <path id="path70" d="m206.24 5004.5h154.46"/>
  <path id="path72" d="m205.19 5004.8h156.55"/>
  <path id="path74" d="m204.14 5005.1h158.64"/>
  <path id="path76" d="m203.1 5005.5h160.73"/>
  <path id="path78" d="m202.05 5005.8h162.82"/>
  <path id="path80" d="m201.01 5006.1h164.91"/>
  <path id="path82" d="m199.96 5006.4h167"/>
  <path id="path84" d="m198.92 5006.8h169.1"/>
  <path id="path86" d="m197.87 5007.1h171.19"/>
  <path id="path88" d="m196.83 5007.4h173.28"/>
  <path id="path90" d="m195.78 5007.8h175.37"/>
  <path id="path92" d="m194.74 5008.1h177.46"/>
  <path id="path94" d="m193.69 5008.4h179.55"/>
  <path id="path96" d="m192.64 5008.8h181.64"/>
  <path id="path98" d="m191.6 5009.1h183.73"/>
  <path id="path100" d="m190.55 5009.4h185.82"/>
  <path id="path102" d="m189.51 5009.7h187.91"/>
  <path id="path104" d="m188.46 5010.1h190"/>
  <path id="path106" d="m187.42 5010.4h192.1"/>
  <path id="path108" d="m186.41 5010.7h194.12"/>
  <path id="path110" d="m185.61 5011.1h195.71"/>
  <path id="path112" d="m184.81 5011.4h197.3"/>
  <path id="path114" d="m184.02 5011.7h198.89"/>
  <path id="path116" d="m183.22 5012h200.48"/>
  <path id="path118" d="m182.43 5012.4h202.08"/>
  <path id="path120" d="m181.63 5012.7h203.67"/>
  <path id="path122" d="m180.84 5013h205.26"/>
  <path id="path124" d="m180.04 5013.4h206.85"/>
  <path id="path126" d="m179.24 5013.7h208.44"/>
  <path id="path128" d="m178.45 5014h210.03"/>
  <path id="path130" d="m177.65 5014.4h211.62"/>
  <path id="path132" d="m176.86 5014.7h213.22"/>
  <path id="path134" d="m176.06 5015h214.81"/>
  <path id="path136" d="m175.26 5015.3h216.4"/>
  <path id="path138" d="m174.47 5015.7h217.99"/>
  <path id="path140" d="m173.67 5016h219.58"/>
  <path id="path142" d="m172.88 5016.3h221.17"/>
  <path id="path144" d="m172.08 5016.7h222.76"/>
  <path id="path146" d="m171.29 5017h224.36"/>
  <path id="path148" d="m170.49 5017.3h225.95"/>
  <path id="path150" d="m169.7 5017.7h227.54"/>
  <path id="path152" d="m168.9 5018h229.13"/>
  <path id="path154" d="m168.1 5018.3h230.72"/>
  <path id="path156" d="m167.31 5018.6h232.31"/>
  <path id="path158" d="m166.51 5019h233.9"/>
  <path id="path160" d="m165.72 5019.3h235.5"/>
  <path id="path162" d="m164.92 5019.6h237.09"/>
  <path id="path164" d="m164.12 5020h238.68"/>
  <path id="path166" d="m163.4 5020.3h240.13"/>
  <path id="path168" d="m162.76 5020.6h241.4"/>
  <path id="path170" d="m162.13 5020.9h242.66"/>
  <path id="path172" d="m161.5 5021.3h243.93"/>
  <path id="path174" d="m160.86 5021.6h245.2"/>
  <path id="path176" d="m160.23 5021.9h246.46"/>
  <path id="path178" d="m159.6 5022.3h247.73"/>
  <path id="path180" d="m158.97 5022.6h249"/>
  <path id="path182" d="m158.33 5022.9h250.26"/>
  <path id="path184" d="m157.7 5023.3h251.53"/>
  <path id="path186" d="m157.07 5023.6h252.8"/>
  <path id="path188" d="m156.43 5023.9h254.06"/>
  <path id="path190" d="m155.8 5024.2h255.33"/>
  <path id="path192" d="m155.17 5024.6h256.6"/>
  <path id="path194" d="m154.53 5024.9h257.86"/>
  <path id="path196" d="m153.9 5025.2h259.13"/>
  <path id="path198" d="m153.27 5025.6h260.4"/>
  <path id="path200" d="m152.63 5025.9h261.66"/>
  <path id="path202" d="m152 5026.2h262.93"/>
  <path id="path204" d="m151.37 5026.6h264.19"/>
  <path id="path206" d="m150.74 5026.9h265.46"/>
  <path id="path208" d="m150.1 5027.2h266.72"/>
  <path id="path210" d="m149.47 5027.5h267.99"/>
  <path id="path212" d="m148.84 5027.9h269.26"/>
  <path id="path214" d="m148.2 5028.2h270.52"/>
  <path id="path216" d="m147.57 5028.5h271.79"/>
  <path id="path218" d="m146.94 5028.9h273.06"/>
  <path id="path220" d="m146.3 5029.2h274.32"/>
  <path id="path222" d="m145.67 5029.5h275.59"/>
  <path id="path224" d="m145.04 5029.8h276.86"/>
  <path id="path226" d="m144.4 5030.2h278.12"/>
  <path id="path228" d="m143.77 5030.5h279.39"/>
  <path id="path230" d="m143.14 5030.8h280.66"/>
  <path id="path232" d="m142.5 5031.2h281.92"/>
  <path id="path234" d="m141.87 5031.5h283.19"/>
  <path id="path236" d="m141.33 5031.8h284.27"/>
  <path id="path238" d="m140.81 5032.2h285.31"/>
  <path id="path240" d="m140.29 5032.5h286.34"/>
  <path id="path242" d="m139.78 5032.8h287.38"/>
  <path id="path244" d="m139.26 5033.1h288.41"/>
  <path id="path246" d="m138.74 5033.5h289.45"/>
  <path id="path248" d="m138.22 5033.8h290.48"/>
  <path id="path250" d="m137.71 5034.1h291.52"/>
  <path id="path252" d="m137.19 5034.5h292.55"/>
  <path id="path254" d="m136.67 5034.8h293.59"/>
  <path id="path256" d="m136.15 5035.1h294.62"/>
  <path id="path258" d="m135.64 5035.5h295.66"/>
  <path id="path260" d="m135.12 5035.8h296.69"/>
  <path id="path262" d="m134.6 5036.1h297.72"/>
  <path id="path264" d="m134.08 5036.4h298.76"/>
  <path id="path266" d="m133.57 5036.8h299.8"/>
  <path id="path268" d="m133.05 5037.1h300.83"/>
  <path id="path270" d="m132.53 5037.4h301.86"/>
  <path id="path272" d="m132.02 5037.8h302.9"/>
  <path id="path274" d="m131.5 5038.1h303.93"/>
  <path id="path276" d="m130.98 5038.4h304.97"/>
  <path id="path278" d="m130.46 5038.7h306"/>
  <path id="path280" d="m129.94 5039.1h307.04"/>
  <path id="path282" d="m129.43 5039.4h308.07"/>
  <path id="path284" d="m128.91 5039.7h309.11"/>
  <path id="path286" d="m128.39 5040.1h310.14"/>
  <path id="path288" d="m127.88 5040.4h311.18"/>
  <path id="path290" d="m127.36 5040.7h312.21"/>
  <path id="path292" d="m126.84 5041.1h313.25"/>
  <path id="path294" d="m126.32 5041.4h314.28"/>
  <path id="path296" d="m125.81 5041.7h315.32"/>
  <path id="path298" d="m125.29 5042h316.35"/>
  <path id="path300" d="m124.77 5042.4h317.39"/>
  <path id="path302" d="m124.25 5042.7h318.42"/>
  <path id="path304" d="m123.74 5043h319.46"/>
  <path id="path306" d="m123.22 5043.4h320.49"/>
  <path id="path308" d="m122.7 5043.7h321.52"/>
  <path id="path310" d="m122.18 5044h322.56"/>
  <path id="path312" d="m121.67 5044.4h323.6"/>
  <path id="path314" d="m121.15 5044.7h324.63"/>
  <path id="path316" d="m120.67 5045h325.58"/>
  <path id="path318" d="m120.24 5045.3h326.44"/>
  <path id="path320" d="m119.82 5045.7h327.3"/>
  <path id="path322" d="m119.38 5046h328.16"/>
  <path id="path324" d="m118.96 5046.3h329.02"/>
  <path id="path326" d="m118.53 5046.7h329.88"/>
  <path id="path328" d="m118.1 5047h330.74"/>
  <path id="path330" d="m117.67 5047.3h331.6"/>
  <path id="path332" d="m117.24 5047.6h332.46"/>
  <path id="path334" d="m116.81 5048h333.31"/>
  <path id="path336" d="m116.38 5048.3h334.17"/>
  <path id="path338" d="m115.95 5048.6h335.03"/>
  <path id="path340" d="m115.52 5049h335.89"/>
  <path id="path342" d="m115.09 5049.3h336.75"/>
  <path id="path344" d="m114.66 5049.6h337.61"/>
  <path id="path346" d="m114.23 5050h338.47"/>
  <path id="path348" d="m113.8 5050.3h339.33"/>
  <path id="path350" d="m113.37 5050.6h340.19"/>
  <path id="path352" d="m112.94 5050.9h341.04"/>
  <path id="path354" d="m112.51 5051.3h341.9"/>
  <path id="path356" d="m112.08 5051.6h342.76"/>
  <path id="path358" d="m111.65 5051.9h343.62"/>
  <path id="path360" d="m111.22 5052.3h344.48"/>
  <path id="path362" d="m110.79 5052.6h345.34"/>
  <path id="path364" d="m110.36 5052.9h346.2"/>
  <path id="path366" d="m109.94 5053.3h347.06"/>
  <path id="path368" d="m109.5 5053.6h347.92"/>
  <path id="path370" d="m109.08 5053.9h348.78"/>
  <path id="path372" d="m108.65 5054.2h349.64"/>
  <path id="path374" d="m108.22 5054.6h350.5"/>
  <path id="path376" d="m107.79 5054.9h351.36"/>
  <path id="path378" d="m107.36 5055.2h352.22"/>
  <path id="path380" d="m106.93 5055.6h353.07"/>
  <path id="path382" d="m106.5 5055.9h353.93"/>
  <path id="path384" d="m106.07 5056.2h354.79"/>
  <path id="path386" d="m105.64 5056.5h355.65"/>
  <path id="path388" d="m105.21 5056.9h356.51"/>
  <path id="path390" d="m104.78 5057.2h357.37"/>
  <path id="path392" d="m104.35 5057.5h358.23"/>
  <path id="path394" d="m103.92 5057.9h359.09"/>
  <path id="path396" d="m103.49 5058.2h359.95"/>
  <path id="path398" d="m103.06 5058.5h360.8"/>
  <path id="path400" d="m102.63 5058.9h361.66"/>
  <path id="path402" d="m102.2 5059.2h362.52"/>
  <path id="path404" d="m101.77 5059.5h363.38"/>
  <path id="path406" d="m101.34 5059.8h364.24"/>
  <path id="path408" d="m100.97 5060.2h364.99"/>
  <path id="path410" d="m100.61 5060.5h365.71"/>
  <path id="path412" d="m100.25 5060.8h366.43"/>
  <path id="path414" d="m99.891 5061.2h367.15"/>
  <path id="path416" d="m99.531 5061.5h367.87"/>
  <path id="path418" d="m99.171 5061.8h368.59"/>
  <path id="path420" d="m98.812 5062.2h369.3"/>
  <path id="path422" d="m98.452 5062.5h370.02"/>
  <path id="path424" d="m98.092 5062.8h370.74"/>
  <path id="path426" d="m97.732 5063.1h371.46"/>
  <path id="path428" d="m97.373 5063.5h372.18"/>
  <path id="path430" d="m97.013 5063.8h372.9"/>
  <path id="path432" d="m96.653 5064.1h373.62"/>
  <path id="path434" d="m96.294 5064.5h374.34"/>
  <path id="path436" d="m95.934 5064.8h375.06"/>
  <path id="path438" d="m95.574 5065.1h375.78"/>
  <path id="path440" d="m95.215 5065.4h376.5"/>
  <path id="path442" d="m94.855 5065.8h377.22"/>
  <path id="path444" d="m94.495 5066.1h377.94"/>
  <path id="path446" d="m94.135 5066.4h378.66"/>
  <path id="path448" d="m93.776 5066.8h379.38"/>
  <path id="path450" d="m93.416 5067.1h380.1"/>
  <path id="path452" d="m93.056 5067.4h380.82"/>
  <path id="path454" d="m92.697 5067.8h381.54"/>
  <path id="path456" d="m92.337 5068.1h382.26"/>
  <path id="path458" d="m91.977 5068.4h382.98"/>
  <path id="path460" d="m91.617 5068.7h383.69"/>
  <path id="path462" d="m91.258 5069.1h384.41"/>
  <path id="path464" d="m90.898 5069.4h385.13"/>
  <path id="path466" d="m90.538 5069.7h385.85"/>
  <path id="path468" d="m90.179 5070.1h386.57"/>
  <path id="path470" d="m89.819 5070.4h387.29"/>
  <path id="path472" d="m89.459 5070.7h388.01"/>
  <path id="path474" d="m89.1 5071h388.73"/>
  <path id="path476" d="m88.74 5071.4h389.45"/>
  <path id="path478" d="m88.38 5071.7h390.17"/>
  <path id="path480" d="m88.02 5072h390.89"/>
  <path id="path482" d="m87.661 5072.4h391.61"/>
  <path id="path484" d="m87.301 5072.7h392.33"/>
  <path id="path486" d="m86.941 5073h393.05"/>
  <path id="path488" d="m86.582 5073.4h393.76"/>
  <path id="path490" d="m86.222 5073.7h394.48"/>
  <path id="path492" d="m85.862 5074h395.2"/>
  <path id="path494" d="m85.502 5074.3h395.92"/>
  <path id="path496" d="m85.143 5074.7h396.64"/>
  <path id="path498" d="m84.783 5075h397.36"/>
  <path id="path500" d="m84.423 5075.3h398.08"/>
  <path id="path502" d="m84.064 5075.7h398.8"/>
  <path id="path504" d="m83.704 5076h399.52"/>
  <path id="path506" d="m83.344 5076.3h400.24"/>
  <path id="path508" d="m82.991 5076.7h400.95"/>
  <path id="path510" d="m82.689 5077h401.55"/>
  <path id="path512" d="m82.387 5077.3h402.16"/>
  <path id="path514" d="m82.085 5077.6h402.76"/>
  <path id="path516" d="m81.783 5078h403.36"/>
  <path id="path518" d="m81.481 5078.3h403.97"/>
  <path id="path520" d="m81.179 5078.6h404.57"/>
  <path id="path522" d="m80.877 5079h405.18"/>
  <path id="path524" d="m80.575 5079.3h405.78"/>
  <path id="path526" d="m80.273 5079.6h406.38"/>
  <path id="path528" d="m79.97 5079.9h406.99"/>
  <path id="path530" d="m79.669 5080.3h407.59"/>
  <path id="path532" d="m79.367 5080.6h408.2"/>
  <path id="path534" d="m79.064 5080.9h408.8"/>
  <path id="path536" d="m78.763 5081.3h409.4"/>
  <path id="path538" d="m78.46 5081.6h410.01"/>
  <path id="path540" d="m78.158 5081.9h410.61"/>
  <path id="path542" d="m77.856 5082.3h411.22"/>
  <path id="path544" d="m77.554 5082.6h411.82"/>
  <path id="path546" d="m77.252 5082.9h412.42"/>
  <path id="path548" d="m76.95 5083.2h413.03"/>
  <path id="path550" d="m76.648 5083.6h413.63"/>
  <path id="path552" d="m76.346 5083.9h414.24"/>
  <path id="path554" d="m76.044 5084.2h414.84"/>
  <path id="path556" d="m75.742 5084.6h415.44"/>
  <path id="path558" d="m75.44 5084.9h416.05"/>
  <path id="path560" d="m75.138 5085.2h416.65"/>
  <path id="path562" d="m74.836 5085.6h417.26"/>
  <path id="path564" d="m74.534 5085.9h417.86"/>
  <path id="path566" d="m74.232 5086.2h418.46"/>
  <path id="path568" d="m73.93 5086.5h419.07"/>
  <path id="path570" d="m73.628 5086.9h419.67"/>
  <path id="path572" d="m73.326 5087.2h420.28"/>
  <path id="path574" d="m73.024 5087.5h420.88"/>
  <path id="path576" d="m72.722 5087.9h421.48"/>
  <path id="path578" d="m72.419 5088.2h422.09"/>
  <path id="path580" d="m72.118 5088.5h422.69"/>
  <path id="path582" d="m71.816 5088.8h423.3"/>
  <path id="path584" d="m71.513 5089.2h423.9"/>
  <path id="path586" d="m71.212 5089.5h424.5"/>
  <path id="path588" d="m70.909 5089.8h425.11"/>
  <path id="path590" d="m70.607 5090.2h425.71"/>
  <path id="path592" d="m70.305 5090.5h426.32"/>
  <path id="path594" d="m70.003 5090.8h426.92"/>
  <path id="path596" d="m69.701 5091.2h427.53"/>
  <path id="path598" d="m69.399 5091.5h428.13"/>
  <path id="path600" d="m69.097 5091.8h428.73"/>
  <path id="path602" d="m68.795 5092.1h429.34"/>
  <path id="path604" d="m68.493 5092.5h429.94"/>
  <path id="path606" d="m68.191 5092.8h430.55"/>
  <path id="path608" d="m67.889 5093.1h431.15"/>
  <path id="path610" d="m67.587 5093.5h431.76"/>
  <path id="path612" d="m67.285 5093.8h432.36"/>
  <path id="path614" d="m66.983 5094.1h432.96"/>
  <path id="path616" d="m66.681 5094.5h433.57"/>
  <path id="path618" d="m66.379 5094.8h434.17"/>
  <path id="path620" d="m66.116 5095.1h434.7"/>
  <path id="path622" d="m65.863 5095.4h435.2"/>
  <path id="path624" d="m65.61 5095.8h435.71"/>
  <path id="path626" d="m65.357 5096.1h436.21"/>
  <path id="path628" d="m65.104 5096.4h436.72"/>
  <path id="path630" d="m64.852 5096.8h437.22"/>
  <path id="path632" d="m64.598 5097.1h437.73"/>
  <path id="path634" d="m64.346 5097.4h438.24"/>
  <path id="path636" d="m64.093 5097.7h438.74"/>
  <path id="path638" d="m63.84 5098.1h439.25"/>
  <path id="path640" d="m63.587 5098.4h439.75"/>
  <path id="path642" d="m63.334 5098.7h440.26"/>
  <path id="path644" d="m63.081 5099.1h440.77"/>
  <path id="path646" d="m62.828 5099.4h441.27"/>
  <path id="path648" d="m62.575 5099.7h441.78"/>
  <path id="path650" d="m62.322 5100.1h442.28"/>
  <path id="path652" d="m62.069 5100.4h442.79"/>
  <path id="path654" d="m61.817 5100.7h443.3"/>
  <path id="path656" d="m61.563 5101h443.8"/>
  <path id="path658" d="m61.311 5101.4h444.31"/>
  <path id="path660" d="m61.058 5101.7h444.81"/>
  <path id="path662" d="m60.805 5102h445.32"/>
  <path id="path664" d="m60.552 5102.4h445.82"/>
  <path id="path666" d="m60.299 5102.7h446.33"/>
  <path id="path668" d="m60.046 5103h446.84"/>
  <path id="path670" d="m59.793 5103.4h447.34"/>
  <path id="path672" d="m59.54 5103.7h447.85"/>
  <path id="path674" d="m59.287 5104h448.35"/>
  <path id="path676" d="m59.035 5104.3h448.86"/>
  <path id="path678" d="m58.782 5104.7h449.36"/>
  <path id="path680" d="m58.529 5105h449.87"/>
  <path id="path682" d="m58.276 5105.3h450.38"/>
  <path id="path684" d="m58.023 5105.7h450.88"/>
  <path id="path686" d="m57.77 5106h451.39"/>
  <path id="path688" d="m57.517 5106.3h451.9"/>
  <path id="path690" d="m57.264 5106.6h452.4"/>
  <path id="path692" d="m57.011 5107h452.91"/>
  <path id="path694" d="m56.759 5107.3h453.41"/>
  <path id="path696" d="m56.505 5107.6h453.92"/>
  <path id="path698" d="m56.252 5108h454.42"/>
  <path id="path700" d="m56 5108.3h454.93"/>
  <path id="path702" d="m55.747 5108.6h455.44"/>
  <path id="path704" d="m55.494 5109h455.94"/>
  <path id="path706" d="m55.241 5109.3h456.45"/>
  <path id="path708" d="m54.988 5109.6h456.95"/>
  <path id="path710" d="m54.735 5109.9h457.46"/>
  <path id="path712" d="m54.482 5110.3h457.96"/>
  <path id="path714" d="m54.229 5110.6h458.47"/>
  <path id="path716" d="m53.976 5110.9h458.98"/>
  <path id="path718" d="m53.724 5111.3h459.48"/>
  <path id="path720" d="m53.471 5111.6h459.99"/>
  <path id="path722" d="m53.218 5111.9h460.49"/>
  <path id="path724" d="m52.965 5112.3h461"/>
  <path id="path726" d="m52.712 5112.6h461.5"/>
  <path id="path728" d="m52.459 5112.9h462.01"/>
  <path id="path730" d="m52.206 5113.2h462.52"/>
  <path id="path732" d="m51.953 5113.6h463.02"/>
  <path id="path734" d="m51.7 5113.9h463.53"/>
  <path id="path736" d="m51.447 5114.2h464.04"/>
  <path id="path738" d="m51.206 5114.6h464.52"/>
  <path id="path740" d="m50.996 5114.9h464.94"/>
  <path id="path742" d="m50.786 5115.2h465.36"/>
  <path id="path744" d="m50.576 5115.5h465.78"/>
  <path id="path746" d="m50.366 5115.9h466.2"/>
  <path id="path748" d="m50.156 5116.2h466.62"/>
  <path id="path750" d="m49.946 5116.5h467.04"/>
  <path id="path752" d="m49.736 5116.9h467.46"/>
  <path id="path754" d="m49.526 5117.2h467.88"/>
  <path id="path756" d="m49.316 5117.5h468.3"/>
  <path id="path758" d="m49.106 5117.9h468.72"/>
  <path id="path760" d="m48.897 5118.2h469.14"/>
  <path id="path762" d="m48.686 5118.5h469.56"/>
  <path id="path764" d="m48.476 5118.8h469.98"/>
  <path id="path766" d="m48.266 5119.2h470.4"/>
  <path id="path768" d="m48.056 5119.5h470.82"/>
  <path id="path770" d="m47.846 5119.8h471.24"/>
  <path id="path772" d="m47.636 5120.2h471.66"/>
  <path id="path774" d="m47.426 5120.5h472.08"/>
  <path id="path776" d="m47.216 5120.8h472.5"/>
  <path id="path778" d="m47.006 5121.2h472.92"/>
  <path id="path780" d="m46.797 5121.5h473.34"/>
  <path id="path782" d="m46.587 5121.8h473.76"/>
  <path id="path784" d="m46.377 5122.1h474.18"/>
  <path id="path786" d="m46.167 5122.5h474.6"/>
  <path id="path788" d="m45.957 5122.8h475.02"/>
  <path id="path790" d="m45.746 5123.1h475.44"/>
  <path id="path792" d="m45.536 5123.5h475.86"/>
  <path id="path794" d="m45.326 5123.8h476.28"/>
  <path id="path796" d="m45.116 5124.1h476.7"/>
  <path id="path798" d="m44.907 5124.4h477.12"/>
  <path id="path800" d="m44.697 5124.8h477.54"/>
  <path id="path802" d="m44.487 5125.1h477.96"/>
  <path id="path804" d="m44.277 5125.4h478.38"/>
  <path id="path806" d="m44.067 5125.8h478.8"/>
  <path id="path808" d="m43.857 5126.1h479.22"/>
  <path id="path810" d="m43.647 5126.4h479.64"/>
  <path id="path812" d="m43.437 5126.8h480.06"/>
  <path id="path814" d="m43.227 5127.1h480.48"/>
  <path id="path816" d="m43.016 5127.4h480.9"/>
  <path id="path818" d="m42.807 5127.7h481.32"/>
  <path id="path820" d="m42.597 5128.1h481.74"/>
  <path id="path822" d="m42.387 5128.4h482.16"/>
  <path id="path824" d="m42.177 5128.7h482.58"/>
  <path id="path826" d="m41.967 5129.1h483"/>
  <path id="path828" d="m41.757 5129.4h483.42"/>
  <path id="path830" d="m41.547 5129.7h483.84"/>
  <path id="path832" d="m41.337 5130h484.26"/>
  <path id="path834" d="m41.127 5130.4h484.68"/>
  <path id="path836" d="m40.917 5130.7h485.1"/>
  <path id="path838" d="m40.707 5131h485.52"/>
  <path id="path840" d="m40.497 5131.4h485.94"/>
  <path id="path842" d="m40.287 5131.7h486.36"/>
  <path id="path844" d="m40.077 5132h486.78"/>
  <path id="path846" d="m39.867 5132.4h487.2"/>
  <path id="path848" d="m39.657 5132.7h487.62"/>
  <path id="path850" d="m39.447 5133h488.04"/>
  <path id="path852" d="m39.237 5133.3h488.46"/>
  <path id="path854" d="m39.027 5133.7h488.88"/>
  <path id="path856" d="m38.817 5134h489.3"/>
  <path id="path858" d="m38.607 5134.3h489.72"/>
  <path id="path860" d="m38.397 5134.7h490.14"/>
  <path id="path862" d="m38.187 5135h490.56"/>
  <path id="path864" d="m37.977 5135.3h490.98"/>
  <path id="path866" d="m37.806 5135.7h491.32"/>
  <path id="path868" d="m37.634 5136h491.66"/>
  <path id="path870" d="m37.462 5136.3h492"/>
  <path id="path872" d="m37.291 5136.6h492.35"/>
  <path id="path874" d="m37.119 5137h492.69"/>
  <path id="path876" d="m36.947 5137.3h493.03"/>
  <path id="path878" d="m36.776 5137.6h493.38"/>
  <path id="path880" d="m36.604 5138h493.72"/>
  <path id="path882" d="m36.433 5138.3h494.06"/>
  <path id="path884" d="m36.261 5138.6h494.41"/>
  <path id="path886" d="m36.09 5138.9h494.75"/>
  <path id="path888" d="m35.918 5139.3h495.09"/>
  <path id="path890" d="m35.746 5139.6h495.44"/>
  <path id="path892" d="m35.575 5139.9h495.78"/>
  <path id="path894" d="m35.403 5140.3h496.12"/>
  <path id="path896" d="m35.232 5140.6h496.46"/>
  <path id="path898" d="m35.06 5140.9h496.81"/>
  <path id="path900" d="m34.889 5141.3h497.15"/>
  <path id="path902" d="m34.717 5141.6h497.5"/>
  <path id="path904" d="m34.545 5141.9h497.84"/>
  <path id="path906" d="m34.373 5142.2h498.18"/>
  <path id="path908" d="m34.202 5142.6h498.52"/>
  <path id="path910" d="m34.03 5142.9h498.87"/>
  <path id="path912" d="m33.859 5143.2h499.21"/>
  <path id="path914" d="m33.687 5143.6h499.56"/>
  <path id="path916" d="m33.516 5143.9h499.9"/>
  <path id="path918" d="m33.344 5144.2h500.24"/>
  <path id="path920" d="m33.172 5144.6h500.58"/>
  <path id="path922" d="m33.001 5144.9h500.93"/>
  <path id="path924" d="m32.829 5145.2h501.27"/>
  <path id="path926" d="m32.658 5145.5h501.61"/>
  <path id="path928" d="m32.486 5145.9h501.96"/>
  <path id="path930" d="m32.315 5146.2h502.3"/>
  <path id="path932" d="m32.143 5146.5h502.64"/>
  <path id="path934" d="m31.971 5146.9h502.99"/>
  <path id="path936" d="m31.8 5147.2h503.33"/>
  <path id="path938" d="m31.628 5147.5h503.67"/>
  <path id="path940" d="m31.457 5147.8h504.02"/>
  <path id="path942" d="m31.285 5148.2h504.36"/>
  <path id="path944" d="m31.114 5148.5h504.7"/>
  <path id="path946" d="m30.942 5148.8h505.04"/>
  <path id="path948" d="m30.77 5149.2h505.39"/>
  <path id="path950" d="m30.599 5149.5h505.73"/>
  <path id="path952" d="m30.427 5149.8h506.08"/>
  <path id="path954" d="m30.255 5150.2h506.42"/>
  <path id="path956" d="m30.084 5150.5h506.76"/>
  <path id="path958" d="m29.912 5150.8h507.1"/>
  <path id="path960" d="m29.741 5151.1h507.45"/>
  <path id="path962" d="m29.569 5151.5h507.79"/>
  <path id="path964" d="m29.398 5151.8h508.13"/>
  <path id="path966" d="m29.226 5152.1h508.48"/>
  <path id="path968" d="m29.054 5152.5h508.82"/>
  <path id="path970" d="m28.883 5152.8h509.16"/>
  <path id="path972" d="m28.711 5153.1h509.51"/>
  <path id="path974" d="m28.54 5153.5h509.85"/>
  <path id="path976" d="m28.368 5153.8h510.19"/>
  <path id="path978" d="m28.197 5154.1h510.54"/>
  <path id="path980" d="m28.025 5154.4h510.88"/>
  <path id="path982" d="m27.853 5154.8h511.22"/>
  <path id="path984" d="m27.682 5155.1h511.56"/>
  <path id="path986" d="m27.51 5155.4h511.91"/>
  <path id="path988" d="m27.338 5155.8h512.25"/>
  <path id="path990" d="m27.167 5156.1h512.6"/>
  <path id="path992" d="m26.995 5156.4h512.94"/>
  <path id="path994" d="m26.824 5156.7h513.28"/>
  <path id="path996" d="m26.652 5157.1h513.62"/>
  <path id="path998" d="m26.497 5157.4h513.94"/>
  <path id="path1000" d="m26.36 5157.7h514.21"/>
  <path id="path1002" d="m26.223 5158.1h514.48"/>
  <path id="path1004" d="m26.087 5158.4h514.76"/>
  <path id="path1006" d="m25.95 5158.7h515.03"/>
  <path id="path1008" d="m25.814 5159.1h515.3"/>
  <path id="path1010" d="m25.677 5159.4h515.57"/>
  <path id="path1012" d="m25.541 5159.7h515.85"/>
  <path id="path1014" d="m25.404 5160h516.12"/>
  <path id="path1016" d="m25.268 5160.4h516.39"/>
  <path id="path1018" d="m25.131 5160.7h516.67"/>
  <path id="path1020" d="m24.995 5161h516.94"/>
  <path id="path1022" d="m24.858 5161.4h517.21"/>
  <path id="path1024" d="m24.721 5161.7h517.49"/>
  <path id="path1026" d="m24.585 5162h517.76"/>
  <path id="path1028" d="m24.449 5162.4h518.03"/>
  <path id="path1030" d="m24.312 5162.7h518.3"/>
  <path id="path1032" d="m24.175 5163h518.58"/>
  <path id="path1034" d="m24.039 5163.3h518.85"/>
  <path id="path1036" d="m23.903 5163.7h519.12"/>
  <path id="path1038" d="m23.766 5164h519.4"/>
  <path id="path1040" d="m23.629 5164.3h519.67"/>
  <path id="path1042" d="m23.493 5164.7h519.94"/>
  <path id="path1044" d="m23.356 5165h520.22"/>
  <path id="path1046" d="m23.22 5165.3h520.49"/>
  <path id="path1048" d="m23.083 5165.6h520.76"/>
  <path id="path1050" d="m22.947 5166h521.04"/>
  <path id="path1052" d="m22.81 5166.3h521.31"/>
  <path id="path1054" d="m22.674 5166.6h521.58"/>
  <path id="path1056" d="m22.537 5167h521.86"/>
  <path id="path1058" d="m22.401 5167.3h522.13"/>
  <path id="path1060" d="m22.264 5167.6h522.4"/>
  <path id="path1062" d="m22.127 5168h522.67"/>
  <path id="path1064" d="m21.991 5168.3h522.95"/>
  <path id="path1066" d="m21.855 5168.6h523.22"/>
  <path id="path1068" d="m21.718 5168.9h523.49"/>
  <path id="path1070" d="m21.581 5169.3h523.77"/>
  <path id="path1072" d="m21.445 5169.6h524.04"/>
  <path id="path1074" d="m21.308 5169.9h524.31"/>
  <path id="path1076" d="m21.172 5170.3h524.58"/>
  <path id="path1078" d="m21.035 5170.6h524.86"/>
  <path id="path1080" d="m20.899 5170.9h525.13"/>
  <path id="path1082" d="m20.762 5171.3h525.4"/>
  <path id="path1084" d="m20.626 5171.6h525.68"/>
  <path id="path1086" d="m20.489 5171.9h525.95"/>
  <path id="path1088" d="m20.353 5172.2h526.22"/>
  <path id="path1090" d="m20.216 5172.6h526.5"/>
  <path id="path1092" d="m20.08 5172.9h526.77"/>
  <path id="path1094" d="m19.943 5173.2h527.04"/>
  <path id="path1096" d="m19.807 5173.6h527.32"/>
  <path id="path1098" d="m19.67 5173.9h527.59"/>
  <path id="path1100" d="m19.533 5174.2h527.86"/>
  <path id="path1102" d="m19.397 5174.5h528.14"/>
  <path id="path1104" d="m19.261 5174.9h528.41"/>
  <path id="path1106" d="m19.124 5175.2h528.68"/>
  <path id="path1108" d="m18.987 5175.5h528.95"/>
  <path id="path1110" d="m18.851 5175.9h529.23"/>
  <path id="path1112" d="m18.714 5176.2h529.5"/>
  <path id="path1114" d="m18.578 5176.5h529.77"/>
  <path id="path1116" d="m18.441 5176.9h530.05"/>
  <path id="path1118" d="m18.305 5177.2h530.32"/>
  <path id="path1120" d="m18.168 5177.5h530.59"/>
  <path id="path1122" d="m18.032 5177.8h530.86"/>
  <path id="path1124" d="m17.895 5178.2h531.14"/>
  <path id="path1126" d="m17.759 5178.5h531.41"/>
  <path id="path1128" d="m17.622 5178.8h531.68"/>
  <path id="path1130" d="m17.485 5179.2h531.96"/>
  <path id="path1132" d="m17.349 5179.5h532.23"/>
  <path id="path1134" d="m17.213 5179.8h532.5"/>
  <path id="path1136" d="m17.081 5180.2h532.77"/>
  <path id="path1138" d="m16.976 5180.5h532.98"/>
  <path id="path1140" d="m16.873 5180.8h533.18"/>
  <path id="path1142" d="m16.769 5181.1h533.39"/>
  <path id="path1144" d="m16.665 5181.5h533.6"/>
  <path id="path1146" d="m16.561 5181.8h533.81"/>
  <path id="path1148" d="m16.457 5182.1h534.02"/>
  <path id="path1150" d="m16.353 5182.5h534.22"/>
  <path id="path1152" d="m16.249 5182.8h534.43"/>
  <path id="path1154" d="m16.145 5183.1h534.64"/>
  <path id="path1156" d="m16.041 5183.4h534.85"/>
  <path id="path1158" d="m15.937 5183.8h535.06"/>
  <path id="path1160" d="m15.833 5184.1h535.26"/>
  <path id="path1162" d="m15.73 5184.4h535.47"/>
  <path id="path1164" d="m15.626 5184.8h535.68"/>
  <path id="path1166" d="m15.522 5185.1h535.88"/>
  <path id="path1168" d="m15.418 5185.4h536.09"/>
  <path id="path1170" d="m15.314 5185.8h536.3"/>
  <path id="path1172" d="m15.21 5186.1h536.51"/>
  <path id="path1174" d="m15.106 5186.4h536.72"/>
  <path id="path1176" d="m15.002 5186.7h536.92"/>
  <path id="path1178" d="m14.898 5187.1h537.13"/>
  <path id="path1180" d="m14.794 5187.4h537.34"/>
  <path id="path1182" d="m14.69 5187.7h537.55"/>
  <path id="path1184" d="m14.586 5188.1h537.76"/>
  <path id="path1186" d="m14.482 5188.4h537.96"/>
  <path id="path1188" d="m14.378 5188.7h538.17"/>
  <path id="path1190" d="m14.275 5189h538.38"/>
  <path id="path1192" d="m14.171 5189.4h538.59"/>
  <path id="path1194" d="m14.067 5189.7h538.8"/>
  <path id="path1196" d="m13.963 5190h539"/>
  <path id="path1198" d="m13.859 5190.4h539.21"/>
  <path id="path1200" d="m13.755 5190.7h539.42"/>
  <path id="path1202" d="m13.651 5191h539.63"/>
  <path id="path1204" d="m13.547 5191.4h539.84"/>
  <path id="path1206" d="m13.443 5191.7h540.04"/>
  <path id="path1208" d="m13.339 5192h540.25"/>
  <path id="path1210" d="m13.235 5192.3h540.46"/>
  <path id="path1212" d="m13.132 5192.7h540.66"/>
  <path id="path1214" d="m13.028 5193h540.87"/>
  <path id="path1216" d="m12.923 5193.3h541.08"/>
  <path id="path1218" d="m12.82 5193.7h541.29"/>
  <path id="path1220" d="m12.716 5194h541.5"/>
  <path id="path1222" d="m12.612 5194.3h541.7"/>
  <path id="path1224" d="m12.508 5194.7h541.91"/>
  <path id="path1226" d="m12.404 5195h542.12"/>
  <path id="path1228" d="m12.3 5195.3h542.33"/>
  <path id="path1230" d="m12.196 5195.6h542.54"/>
  <path id="path1232" d="m12.092 5196h542.74"/>
  <path id="path1234" d="m11.988 5196.3h542.95"/>
  <path id="path1236" d="m11.884 5196.6h543.16"/>
  <path id="path1238" d="m11.78 5197h543.37"/>
  <path id="path1240" d="m11.677 5197.3h543.58"/>
  <path id="path1242" d="m11.573 5197.6h543.78"/>
  <path id="path1244" d="m11.469 5198h543.99"/>
  <path id="path1246" d="m11.365 5198.3h544.2"/>
  <path id="path1248" d="m11.261 5198.6h544.41"/>
  <path id="path1250" d="m11.157 5198.9h544.62"/>
  <path id="path1252" d="m11.053 5199.3h544.82"/>
  <path id="path1254" d="m10.949 5199.6h545.03"/>
  <path id="path1256" d="m10.845 5199.9h545.24"/>
  <path id="path1258" d="m10.741 5200.3h545.45"/>
  <path id="path1260" d="m10.637 5200.6h545.66"/>
  <path id="path1262" d="m10.533 5200.9h545.86"/>
  <path id="path1264" d="m10.429 5201.2h546.07"/>
  <path id="path1266" d="m10.325 5201.6h546.28"/>
  <path id="path1268" d="m10.222 5201.9h546.48"/>
  <path id="path1270" d="m10.118 5202.2h546.69"/>
  <path id="path1272" d="m10.014 5202.6h546.9"/>
  <path id="path1274" d="m9.91 5202.9h547.11"/>
  <path id="path1276" d="m9.806 5203.2h547.32"/>
  <path id="path1278" d="m9.702 5203.6h547.52"/>
  <path id="path1280" d="m9.616 5203.9h547.7"/>
  <path id="path1282" d="m9.543 5204.2h547.84"/>
  <path id="path1284" d="m9.47 5204.5h547.99"/>
  <path id="path1286" d="m9.397 5204.9h548.14"/>
  <path id="path1288" d="m9.324 5205.2h548.28"/>
  <path id="path1290" d="m9.251 5205.5h548.43"/>
  <path id="path1292" d="m9.178 5205.9h548.57"/>
  <path id="path1294" d="m9.105 5206.2h548.72"/>
  <path id="path1296" d="m9.032 5206.5h548.86"/>
  <path id="path1298" d="m8.958 5206.8h549.01"/>
  <path id="path1300" d="m8.885 5207.2h549.16"/>
  <path id="path1302" d="m8.812 5207.5h549.3"/>
  <path id="path1304" d="m8.739 5207.8h549.45"/>
  <path id="path1306" d="m8.666 5208.2h549.6"/>
  <path id="path1308" d="m8.593 5208.5h549.74"/>
  <path id="path1310" d="m8.52 5208.8h549.89"/>
  <path id="path1312" d="m8.447 5209.2h550.04"/>
  <path id="path1314" d="m8.374 5209.5h550.18"/>
  <path id="path1316" d="m8.301 5209.8h550.33"/>
  <path id="path1318" d="m8.228 5210.1h550.47"/>
  <path id="path1320" d="m8.155 5210.5h550.62"/>
  <path id="path1322" d="m8.082 5210.8h550.76"/>
  <path id="path1324" d="m8.008 5211.1h550.91"/>
  <path id="path1326" d="m7.935 5211.5h551.06"/>
  <path id="path1328" d="m7.862 5211.8h551.2"/>
  <path id="path1330" d="m7.789 5212.1h551.35"/>
  <path id="path1332" d="m7.716 5212.5h551.5"/>
  <path id="path1334" d="m7.643 5212.8h551.64"/>
  <path id="path1336" d="m7.57 5213.1h551.79"/>
  <path id="path1338" d="m7.497 5213.4h551.94"/>
  <path id="path1340" d="m7.424 5213.8h552.08"/>
  <path id="path1342" d="m7.351 5214.1h552.23"/>
  <path id="path1344" d="m7.278 5214.4h552.37"/>
  <path id="path1346" d="m7.204 5214.8h552.52"/>
  <path id="path1348" d="m7.132 5215.1h552.66"/>
  <path id="path1350" d="m7.058 5215.4h552.81"/>
  <path id="path1352" d="m6.986 5215.7h552.96"/>
  <path id="path1354" d="m6.912 5216.1h553.1"/>
  <path id="path1356" d="m6.839 5216.4h553.25"/>
  <path id="path1358" d="m6.766 5216.7h553.4"/>
  <path id="path1360" d="m6.693 5217.1h553.54"/>
  <path id="path1362" d="m6.62 5217.4h553.69"/>
  <path id="path1364" d="m6.547 5217.7h553.84"/>
  <path id="path1366" d="m6.474 5218.1h553.98"/>
  <path id="path1368" d="m6.401 5218.4h554.13"/>
  <path id="path1370" d="m6.328 5218.7h554.27"/>
  <path id="path1372" d="m6.254 5219h554.42"/>
  <path id="path1374" d="m6.182 5219.4h554.56"/>
  <path id="path1376" d="m6.108 5219.7h554.71"/>
  <path id="path1378" d="m6.036 5220h554.86"/>
  <path id="path1380" d="m5.962 5220.4h555"/>
  <path id="path1382" d="m5.889 5220.7h555.15"/>
  <path id="path1384" d="m5.816 5221h555.3"/>
  <path id="path1386" d="m5.743 5221.4h555.44"/>
  <path id="path1388" d="m5.67 5221.7h555.59"/>
  <path id="path1390" d="m5.597 5222h555.74"/>
  <path id="path1392" d="m5.524 5222.3h555.88"/>
  <path id="path1394" d="m5.451 5222.7h556.03"/>
  <path id="path1396" d="m5.378 5223h556.17"/>
  <path id="path1398" d="m5.304 5223.3h556.32"/>
  <path id="path1400" d="m5.232 5223.7h556.46"/>
  <path id="path1402" d="m5.158 5224h556.61"/>
  <path id="path1404" d="m5.086 5224.3h556.76"/>
  <path id="path1406" d="m5.012 5224.6h556.9"/>
  <path id="path1408" d="m4.939 5225h557.05"/>
  <path id="path1410" d="m4.866 5225.3h557.2"/>
  <path id="path1412" d="m4.793 5225.6h557.34"/>
  <path id="path1414" d="m4.72 5226h557.49"/>
  <path id="path1416" d="m4.647 5226.3h557.64"/>
  <path id="path1418" d="m4.574 5226.6h557.78"/>
  <path id="path1420" d="m4.501 5227h557.93"/>
  <path id="path1422" d="m4.428 5227.3h558.07"/>
  <path id="path1424" d="m4.355 5227.6h558.22"/>
  <path id="path1426" d="m4.292 5227.9h558.34"/>
  <path id="path1428" d="m4.248 5228.3h558.43"/>
  <path id="path1430" d="m4.205 5228.6h558.52"/>
  <path id="path1432" d="m4.161 5228.9h558.61"/>
  <path id="path1434" d="m4.118 5229.3h558.69"/>
  <path id="path1436" d="m4.074 5229.6h558.78"/>
  <path id="path1438" d="m4.031 5229.9h558.87"/>
  <path id="path1440" d="m3.988 5230.3h558.95"/>
  <path id="path1442" d="m3.945 5230.6h559.04"/>
  <path id="path1444" d="m3.901 5230.9h559.13"/>
  <path id="path1446" d="m3.858 5231.2h559.21"/>
  <path id="path1448" d="m3.814 5231.6h559.3"/>
  <path id="path1450" d="m3.771 5231.9h559.39"/>
  <path id="path1452" d="m3.728 5232.2h559.47"/>
  <path id="path1454" d="m3.684 5232.6h559.56"/>
  <path id="path1456" d="m3.641 5232.9h559.65"/>
  <path id="path1458" d="m3.597 5233.2h559.74"/>
  <path id="path1460" d="m3.554 5233.5h559.82"/>
  <path id="path1462" d="m3.51 5233.9h559.91"/>
  <path id="path1464" d="m3.467 5234.2h559.99"/>
  <path id="path1466" d="m3.424 5234.5h560.08"/>
  <path id="path1468" d="m3.38 5234.9h560.17"/>
  <path id="path1470" d="m3.337 5235.2h560.26"/>
  <path id="path1472" d="m3.294 5235.5h560.34"/>
  <path id="path1474" d="m3.25 5235.9h560.43"/>
  <path id="path1476" d="m3.207 5236.2h560.52"/>
  <path id="path1478" d="m3.164 5236.5h560.6"/>
  <path id="path1480" d="m3.12 5236.8h560.69"/>
  <path id="path1482" d="m3.077 5237.2h560.78"/>
  <path id="path1484" d="m3.033 5237.5h560.86"/>
  <path id="path1486" d="m2.99 5237.8h560.95"/>
  <path id="path1488" d="m2.946 5238.2h561.04"/>
  <path id="path1490" d="m2.903 5238.5h561.12"/>
  <path id="path1492" d="m2.86 5238.8h561.21"/>
  <path id="path1494" d="m2.816 5239.2h561.3"/>
  <path id="path1496" d="m2.773 5239.5h561.38"/>
  <path id="path1498" d="m2.729 5239.8h561.47"/>
  <path id="path1500" d="m2.686 5240.1h561.56"/>
  <path id="path1502" d="m2.642 5240.5h561.64"/>
  <path id="path1504" d="m2.599 5240.8h561.73"/>
  <path id="path1506" d="m2.556 5241.1h561.82"/>
  <path id="path1508" d="m2.513 5241.5h561.9"/>
  <path id="path1510" d="m2.469 5241.8h561.99"/>
  <path id="path1512" d="m2.426 5242.1h562.08"/>
  <path id="path1514" d="m2.382 5242.4h562.16"/>
  <path id="path1516" d="m2.339 5242.8h562.25"/>
  <path id="path1518" d="m2.296 5243.1h562.34"/>
  <path id="path1520" d="m2.252 5243.4h562.42"/>
  <path id="path1522" d="m2.209 5243.8h562.51"/>
  <path id="path1524" d="m2.165 5244.1h562.6"/>
  <path id="path1526" d="m2.122 5244.4h562.68"/>
  <path id="path1528" d="m2.078 5244.8h562.77"/>
  <path id="path1530" d="m2.035 5245.1h562.86"/>
  <path id="path1532" d="m1.992 5245.4h562.94"/>
  <path id="path1534" d="m1.948 5245.7h563.03"/>
  <path id="path1536" d="m1.905 5246.1h563.12"/>
  <path id="path1538" d="m1.862 5246.4h563.2"/>
  <path id="path1540" d="m1.818 5246.7h563.29"/>
  <path id="path1542" d="m1.775 5247.1h563.38"/>
  <path id="path1544" d="m1.732 5247.4h563.46"/>
  <path id="path1546" d="m1.688 5247.7h563.55"/>
  <path id="path1548" d="m1.645 5248h563.64"/>
  <path id="path1550" d="m1.601 5248.4h563.73"/>
  <path id="path1552" d="m1.558 5248.7h563.81"/>
  <path id="path1554" d="m1.514 5249h563.9"/>
  <path id="path1556" d="m1.471 5249.4h563.99"/>
  <path id="path1558" d="m1.428 5249.7h564.07"/>
  <path id="path1560" d="m1.384 5250h564.16"/>
  <path id="path1562" d="m1.341 5250.4h564.25"/>
  <path id="path1564" d="m1.297 5250.7h564.33"/>
  <path id="path1566" d="m1.254 5251h564.42"/>
  <path id="path1568" d="m1.211 5251.3h564.51"/>
  <path id="path1570" d="m1.167 5251.7h564.59"/>
  <path id="path1572" d="m1.124 5252h564.68"/>
  <path id="path1574" d="m1.081 5252.3h564.77"/>
  <path id="path1576" d="m1.065 5252.7h564.8"/>
  <path id="path1578" d="m1.05 5253h564.83"/>
  <path id="path1580" d="m1.036 5253.3h564.86"/>
  <path id="path1582" d="m1.022 5253.7h564.88"/>
  <path id="path1584" d="m1.007 5254h564.92"/>
  <path id="path1586" d="m0.993 5254.3h564.94"/>
  <path id="path1588" d="m0.978 5254.6h564.97"/>
  <path id="path1590" d="m0.964 5255h565"/>
  <path id="path1592" d="m0.95 5255.3h565.03"/>
  <path id="path1594" d="m0.935 5255.6h565.06"/>
  <path id="path1596" d="m0.921 5256h565.09"/>
  <path id="path1598" d="m0.906 5256.3h565.12"/>
  <path id="path1600" d="m0.892 5256.6h565.14"/>
  <path id="path1602" d="m0.878 5257h565.17"/>
  <path id="path1604" d="m0.863 5257.3h565.2"/>
  <path id="path1606" d="m0.849 5257.6h565.23"/>
  <path id="path1608" d="m0.835 5257.9h565.26"/>
  <path id="path1610" d="m0.82 5258.3h565.29"/>
  <path id="path1612" d="m0.806 5258.6h565.32"/>
  <path id="path1614" d="m0.791 5258.9h565.35"/>
  <path id="path1616" d="m0.777 5259.3h565.38"/>
  <path id="path1618" d="m0.763 5259.6h565.4"/>
  <path id="path1620" d="m0.748 5259.9h565.43"/>
  <path id="path1622" d="m0.734 5260.2h565.46"/>
  <path id="path1624" d="m0.719 5260.6h565.49"/>
  <path id="path1626" d="m0.705 5260.9h565.52"/>
  <path id="path1628" d="m0.691 5261.2h565.55"/>
  <path id="path1630" d="m0.676 5261.6h565.58"/>
  <path id="path1632" d="m0.662 5261.9h565.6"/>
  <path id="path1634" d="m0.648 5262.2h565.63"/>
  <path id="path1636" d="m0.633 5262.6h565.66"/>
  <path id="path1638" d="m0.619 5262.9h565.69"/>
  <path id="path1640" d="m0.604 5263.2h565.72"/>
  <path id="path1642" d="m0.59 5263.5h565.75"/>
  <path id="path1644" d="m0.576 5263.9h565.78"/>
  <path id="path1646" d="m0.561 5264.2h565.81"/>
  <path id="path1648" d="m0.547 5264.5h565.84"/>
  <path id="path1650" d="m0.532 5264.9h565.86"/>
  <path id="path1652" d="m0.518 5265.2h565.89"/>
  <path id="path1654" d="m0.504 5265.5h565.92"/>
  <path id="path1656" d="m0.489 5265.8h565.95"/>
  <path id="path1658" d="m0.475 5266.2h565.98"/>
  <path id="path1660" d="m0.461 5266.5h566.01"/>
  <path id="path1662" d="m0.446 5266.8h566.04"/>
  <path id="path1664" d="m0.432 5267.2h566.06"/>
  <path id="path1666" d="m0.417 5267.5h566.1"/>
  <path id="path1668" d="m0.403 5267.8h566.12"/>
  <path id="path1670" d="m0.388 5268.2h566.15"/>
  <path id="path1672" d="m0.374 5268.5h566.18"/>
  <path id="path1674" d="m0.36 5268.8h566.21"/>
  <path id="path1676" d="m0.345 5269.1h566.24"/>
  <path id="path1678" d="m0.331 5269.5h566.27"/>
  <path id="path1680" d="m0.316 5269.8h566.3"/>
  <path id="path1682" d="m0.302 5270.1h566.32"/>
  <path id="path1684" d="m0.288 5270.5h566.35"/>
  <path id="path1686" d="m0.273 5270.8h566.38"/>
  <path id="path1688" d="m0.259 5271.1h566.41"/>
  <path id="path1690" d="m0.244 5271.5h566.44"/>
  <path id="path1692" d="m0.23 5271.8h566.47"/>
  <path id="path1694" d="m0.216 5272.1h566.5"/>
  <path id="path1696" d="m0.201 5272.4h566.53"/>
  <path id="path1698" d="m0.187 5272.8h566.56"/>
  <path id="path1700" d="m0.172 5273.1h566.58"/>
  <path id="path1702" d="m0.158 5273.4h566.61"/>
  <path id="path1704" d="m0.144 5273.8h566.64"/>
  <path id="path1706" d="m0.129 5274.1h566.67"/>
  <path id="path1708" d="m0.115 5274.4h566.7"/>
  <path id="path1710" d="m0.1 5274.7h566.73"/>
  <path id="path1712" d="m0.086 5275.1h566.76"/>
  <path id="path1714" d="m0.072 5275.4h566.78"/>
  <path id="path1716" d="m0.057 5275.7h566.81"/>
  <path id="path1718" d="m0.043 5276.1h566.84"/>
  <path id="path1720" d="m0.029 5276.4h566.87"/>
  <path id="path1722" d="m0.014 5276.7h566.9"/>
  <path id="path1724" d="m0 5277.1h566.93"/>
  <path id="path1726" d="m0.014 5277.4h566.9"/>
  <path id="path1728" d="m0.029 5277.7h566.87"/>
  <path id="path1730" d="m0.043 5278h566.84"/>
  <path id="path1732" d="m0.057 5278.4h566.81"/>
  <path id="path1734" d="m0.072 5278.7h566.78"/>
  <path id="path1736" d="m0.086 5279h566.76"/>
  <path id="path1738" d="m0.1 5279.4h566.73"/>
  <path id="path1740" d="m0.115 5279.7h566.7"/>
  <path id="path1742" d="m0.129 5280h566.67"/>
  <path id="path1744" d="m0.144 5280.4h566.64"/>
  <path id="path1746" d="m0.158 5280.7h566.61"/>
  <path id="path1748" d="m0.172 5281h566.58"/>
  <path id="path1750" d="m0.187 5281.3h566.56"/>
  <path id="path1752" d="m0.201 5281.7h566.53"/>
  <path id="path1754" d="m0.216 5282h566.5"/>
  <path id="path1756" d="m0.23 5282.3h566.47"/>
  <path id="path1758" d="m0.244 5282.7h566.44"/>
  <path id="path1760" d="m0.259 5283h566.41"/>
  <path id="path1762" d="m0.273 5283.3h566.38"/>
  <path id="path1764" d="m0.288 5283.6h566.35"/>
  <path id="path1766" d="m0.302 5284h566.32"/>
  <path id="path1768" d="m0.316 5284.3h566.3"/>
  <path id="path1770" d="m0.331 5284.6h566.27"/>
  <path id="path1772" d="m0.345 5285h566.24"/>
  <path id="path1774" d="m0.36 5285.3h566.21"/>
  <path id="path1776" d="m0.374 5285.6h566.18"/>
  <path id="path1778" d="m0.388 5286h566.15"/>
  <path id="path1780" d="m0.403 5286.3h566.12"/>
  <path id="path1782" d="m0.417 5286.6h566.1"/>
  <path id="path1784" d="m0.432 5286.9h566.06"/>
  <path id="path1786" d="m0.446 5287.3h566.04"/>
  <path id="path1788" d="m0.461 5287.6h566.01"/>
  <path id="path1790" d="m0.475 5287.9h565.98"/>
  <path id="path1792" d="m0.489 5288.3h565.95"/>
  <path id="path1794" d="m0.504 5288.6h565.92"/>
  <path id="path1796" d="m0.518 5288.9h565.89"/>
  <path id="path1798" d="m0.532 5289.3h565.86"/>
  <path id="path1800" d="m0.547 5289.6h565.84"/>
  <path id="path1802" d="m0.561 5289.9h565.81"/>
  <path id="path1804" d="m0.576 5290.2h565.78"/>
  <path id="path1806" d="m0.59 5290.6h565.75"/>
  <path id="path1808" d="m0.604 5290.9h565.72"/>
  <path id="path1810" d="m0.619 5291.2h565.69"/>
  <path id="path1812" d="m0.633 5291.6h565.66"/>
  <path id="path1814" d="m0.648 5291.9h565.63"/>
  <path id="path1816" d="m0.662 5292.2h565.6"/>
  <path id="path1818" d="m0.676 5292.5h565.58"/>
  <path id="path1820" d="m0.691 5292.9h565.55"/>
  <path id="path1822" d="m0.705 5293.2h565.52"/>
  <path id="path1824" d="m0.719 5293.5h565.49"/>
  <path id="path1826" d="m0.734 5293.9h565.46"/>
  <path id="path1828" d="m0.748 5294.2h565.43"/>
  <path id="path1830" d="m0.763 5294.5h565.4"/>
  <path id="path1832" d="m0.777 5294.9h565.38"/>
  <path id="path1834" d="m0.791 5295.2h565.35"/>
  <path id="path1836" d="m0.806 5295.5h565.32"/>
  <path id="path1838" d="m0.82 5295.8h565.29"/>
  <path id="path1840" d="m0.835 5296.2h565.26"/>
  <path id="path1842" d="m0.849 5296.5h565.23"/>
  <path id="path1844" d="m0.863 5296.8h565.2"/>
  <path id="path1846" d="m0.878 5297.2h565.17"/>
  <path id="path1848" d="m0.892 5297.5h565.14"/>
  <path id="path1850" d="m0.906 5297.8h565.12"/>
  <path id="path1852" d="m0.921 5298.2h565.09"/>
  <path id="path1854" d="m0.935 5298.5h565.06"/>
  <path id="path1856" d="m0.95 5298.8h565.03"/>
  <path id="path1858" d="m0.964 5299.1h565"/>
  <path id="path1860" d="m0.978 5299.5h564.97"/>
  <path id="path1862" d="m0.993 5299.8h564.94"/>
  <path id="path1864" d="m1.007 5300.1h564.92"/>
  <path id="path1866" d="m1.022 5300.5h564.88"/>
  <path id="path1868" d="m1.036 5300.8h564.86"/>
  <path id="path1870" d="m1.05 5301.1h564.83"/>
  <path id="path1872" d="m1.065 5301.4h564.8"/>
  <path id="path1874" d="m1.081 5301.8h564.77"/>
  <path id="path1876" d="m1.124 5302.1h564.68"/>
  <path id="path1878" d="m1.167 5302.4h564.59"/>
  <path id="path1880" d="m1.211 5302.8h564.51"/>
  <path id="path1882" d="m1.254 5303.1h564.42"/>
  <path id="path1884" d="m1.297 5303.4h564.33"/>
  <path id="path1886" d="m1.341 5303.8h564.25"/>
  <path id="path1888" d="m1.384 5304.1h564.16"/>
  <path id="path1890" d="m1.428 5304.4h564.07"/>
  <path id="path1892" d="m1.471 5304.7h563.99"/>
  <path id="path1894" d="m1.514 5305.1h563.9"/>
  <path id="path1896" d="m1.558 5305.4h563.81"/>
  <path id="path1898" d="m1.601 5305.7h563.73"/>
  <path id="path1900" d="m1.645 5306.1h563.64"/>
  <path id="path1902" d="m1.688 5306.4h563.55"/>
  <path id="path1904" d="m1.732 5306.7h563.46"/>
  <path id="path1906" d="m1.775 5307h563.38"/>
  <path id="path1908" d="m1.818 5307.4h563.29"/>
  <path id="path1910" d="m1.862 5307.7h563.2"/>
  <path id="path1912" d="m1.905 5308h563.12"/>
  <path id="path1914" d="m1.948 5308.4h563.03"/>
  <path id="path1916" d="m1.992 5308.7h562.94"/>
  <path id="path1918" d="m2.035 5309h562.86"/>
  <path id="path1920" d="m2.078 5309.4h562.77"/>
  <path id="path1922" d="m2.122 5309.7h562.68"/>
  <path id="path1924" d="m2.165 5310h562.6"/>
  <path id="path1926" d="m2.209 5310.3h562.51"/>
  <path id="path1928" d="m2.252 5310.7h562.42"/>
  <path id="path1930" d="m2.296 5311h562.34"/>
  <path id="path1932" d="m2.339 5311.3h562.25"/>
  <path id="path1934" d="m2.382 5311.7h562.16"/>
  <path id="path1936" d="m2.426 5312h562.08"/>
  <path id="path1938" d="m2.469 5312.3h561.99"/>
  <path id="path1940" d="m2.513 5312.7h561.9"/>
  <path id="path1942" d="m2.556 5313h561.82"/>
  <path id="path1944" d="m2.599 5313.3h561.73"/>
  <path id="path1946" d="m2.642 5313.6h561.64"/>
  <path id="path1948" d="m2.686 5314h561.56"/>
  <path id="path1950" d="m2.729 5314.3h561.47"/>
  <path id="path1952" d="m2.773 5314.6h561.38"/>
  <path id="path1954" d="m2.816 5315h561.3"/>
  <path id="path1956" d="m2.86 5315.3h561.21"/>
  <path id="path1958" d="m2.903 5315.6h561.12"/>
  <path id="path1960" d="m2.946 5316h561.04"/>
  <path id="path1962" d="m2.99 5316.3h560.95"/>
  <path id="path1964" d="m3.033 5316.6h560.86"/>
  <path id="path1966" d="m3.077 5316.9h560.78"/>
  <path id="path1968" d="m3.12 5317.3h560.69"/>
  <path id="path1970" d="m3.164 5317.6h560.6"/>
  <path id="path1972" d="m3.207 5317.9h560.52"/>
  <path id="path1974" d="m3.25 5318.3h560.43"/>
  <path id="path1976" d="m3.294 5318.6h560.34"/>
  <path id="path1978" d="m3.337 5318.9h560.26"/>
  <path id="path1980" d="m3.38 5319.2h560.17"/>
  <path id="path1982" d="m3.424 5319.6h560.08"/>
  <path id="path1984" d="m3.467 5319.9h559.99"/>
  <path id="path1986" d="m3.51 5320.2h559.91"/>
  <path id="path1988" d="m3.554 5320.6h559.82"/>
  <path id="path1990" d="m3.597 5320.9h559.74"/>
  <path id="path1992" d="m3.641 5321.2h559.65"/>
  <path id="path1994" d="m3.684 5321.6h559.56"/>
  <path id="path1996" d="m3.728 5321.9h559.47"/>
  <path id="path1998" d="m3.771 5322.2h559.39"/>
  <path id="path2000" d="m3.814 5322.5h559.3"/>
  <path id="path2002" d="m3.858 5322.9h559.21"/>
  <path id="path2004" d="m3.901 5323.2h559.13"/>
  <path id="path2006" d="m3.945 5323.5h559.04"/>
  <path id="path2008" d="m3.988 5323.9h558.95"/>
  <path id="path2010" d="m4.031 5324.2h558.87"/>
  <path id="path2012" d="m4.074 5324.5h558.78"/>
  <path id="path2014" d="m4.118 5324.8h558.69"/>
  <path id="path2016" d="m4.161 5325.2h558.61"/>
  <path id="path2018" d="m4.205 5325.5h558.52"/>
  <path id="path2020" d="m4.248 5325.8h558.43"/>
  <path id="path2022" d="m4.292 5326.2h558.34"/>
  <path id="path2024" d="m4.355 5326.5h558.22"/>
  <path id="path2026" d="m4.428 5326.8h558.07"/>
  <path id="path2028" d="m4.501 5327.2h557.93"/>
  <path id="path2030" d="m4.574 5327.5h557.78"/>
  <path id="path2032" d="m4.647 5327.8h557.64"/>
  <path id="path2034" d="m4.72 5328.1h557.49"/>
  <path id="path2036" d="m4.793 5328.5h557.34"/>
  <path id="path2038" d="m4.866 5328.8h557.2"/>
  <path id="path2040" d="m4.939 5329.1h557.05"/>
  <path id="path2042" d="m5.012 5329.5h556.9"/>
  <path id="path2044" d="m5.086 5329.8h556.76"/>
  <path id="path2046" d="m5.158 5330.1h556.61"/>
  <path id="path2048" d="m5.232 5330.5h556.46"/>
  <path id="path2050" d="m5.304 5330.8h556.32"/>
  <path id="path2052" d="m5.378 5331.1h556.17"/>
  <path id="path2054" d="m5.451 5331.4h556.03"/>
  <path id="path2056" d="m5.524 5331.8h555.88"/>
  <path id="path2058" d="m5.597 5332.1h555.74"/>
  <path id="path2060" d="m5.67 5332.4h555.59"/>
  <path id="path2062" d="m5.743 5332.8h555.44"/>
  <path id="path2064" d="m5.816 5333.1h555.3"/>
  <path id="path2066" d="m5.889 5333.4h555.15"/>
  <path id="path2068" d="m5.962 5333.7h555"/>
  <path id="path2070" d="m6.036 5334.1h554.86"/>
  <path id="path2072" d="m6.108 5334.4h554.71"/>
  <path id="path2074" d="m6.182 5334.7h554.56"/>
  <path id="path2076" d="m6.254 5335.1h554.42"/>
  <path id="path2078" d="m6.328 5335.4h554.27"/>
  <path id="path2080" d="m6.401 5335.7h554.13"/>
  <path id="path2082" d="m6.474 5336.1h553.98"/>
  <path id="path2084" d="m6.547 5336.4h553.84"/>
  <path id="path2086" d="m6.62 5336.7h553.69"/>
  <path id="path2088" d="m6.693 5337h553.54"/>
  <path id="path2090" d="m6.766 5337.4h553.4"/>
  <path id="path2092" d="m6.839 5337.7h553.25"/>
  <path id="path2094" d="m6.912 5338h553.1"/>
  <path id="path2096" d="m6.986 5338.4h552.96"/>
  <path id="path2098" d="m7.058 5338.7h552.81"/>
  <path id="path2100" d="m7.132 5339h552.66"/>
  <path id="path2102" d="m7.204 5339.4h552.52"/>
  <path id="path2104" d="m7.278 5339.7h552.37"/>
  <path id="path2106" d="m7.351 5340h552.23"/>
  <path id="path2108" d="m7.424 5340.3h552.08"/>
  <path id="path2110" d="m7.497 5340.7h551.94"/>
  <path id="path2112" d="m7.57 5341h551.79"/>
  <path id="path2114" d="m7.643 5341.3h551.64"/>
  <path id="path2116" d="m7.716 5341.7h551.5"/>
  <path id="path2118" d="m7.789 5342h551.35"/>
  <path id="path2120" d="m7.862 5342.3h551.2"/>
  <path id="path2122" d="m7.935 5342.6h551.06"/>
  <path id="path2124" d="m8.008 5343h550.91"/>
  <path id="path2126" d="m8.082 5343.3h550.76"/>
  <path id="path2128" d="m8.155 5343.6h550.62"/>
  <path id="path2130" d="m8.228 5344h550.47"/>
  <path id="path2132" d="m8.301 5344.3h550.33"/>
  <path id="path2134" d="m8.374 5344.6h550.18"/>
  <path id="path2136" d="m8.447 5345h550.04"/>
  <path id="path2138" d="m8.52 5345.3h549.89"/>
  <path id="path2140" d="m8.593 5345.6h549.74"/>
  <path id="path2142" d="m8.666 5345.9h549.6"/>
  <path id="path2144" d="m8.739 5346.3h549.45"/>
  <path id="path2146" d="m8.812 5346.6h549.3"/>
  <path id="path2148" d="m8.885 5346.9h549.16"/>
  <path id="path2150" d="m8.958 5347.3h549.01"/>
  <path id="path2152" d="m9.032 5347.6h548.86"/>
  <path id="path2154" d="m9.105 5347.9h548.72"/>
  <path id="path2156" d="m9.178 5348.3h548.57"/>
  <path id="path2158" d="m9.251 5348.6h548.43"/>
  <path id="path2160" d="m9.324 5348.9h548.28"/>
  <path id="path2162" d="m9.397 5349.2h548.14"/>
  <path id="path2164" d="m9.47 5349.6h547.99"/>
  <path id="path2166" d="m9.543 5349.9h547.84"/>
  <path id="path2168" d="m9.616 5350.2h547.7"/>
  <path id="path2170" d="m9.702 5350.6h547.52"/>
  <path id="path2172" d="m9.806 5350.9h547.32"/>
  <path id="path2174" d="m9.91 5351.2h547.11"/>
  <path id="path2176" d="m10.014 5351.5h546.9"/>
  <path id="path2178" d="m10.118 5351.9h546.69"/>
  <path id="path2180" d="m10.222 5352.2h546.48"/>
  <path id="path2182" d="m10.325 5352.5h546.28"/>
  <path id="path2184" d="m10.429 5352.9h546.07"/>
  <path id="path2186" d="m10.533 5353.2h545.86"/>
  <path id="path2188" d="m10.637 5353.5h545.66"/>
  <path id="path2190" d="m10.741 5353.9h545.45"/>
  <path id="path2192" d="m10.845 5354.2h545.24"/>
  <path id="path2194" d="m10.949 5354.5h545.03"/>
  <path id="path2196" d="m11.053 5354.8h544.82"/>
  <path id="path2198" d="m11.157 5355.2h544.62"/>
  <path id="path2200" d="m11.261 5355.5h544.41"/>
  <path id="path2202" d="m11.365 5355.8h544.2"/>
  <path id="path2204" d="m11.469 5356.2h543.99"/>
  <path id="path2206" d="m11.573 5356.5h543.78"/>
  <path id="path2208" d="m11.677 5356.8h543.58"/>
  <path id="path2210" d="m11.78 5357.2h543.37"/>
  <path id="path2212" d="m11.884 5357.5h543.16"/>
  <path id="path2214" d="m11.988 5357.8h542.95"/>
  <path id="path2216" d="m12.092 5358.1h542.74"/>
  <path id="path2218" d="m12.196 5358.5h542.54"/>
  <path id="path2220" d="m12.3 5358.8h542.33"/>
  <path id="path2222" d="m12.404 5359.1h542.12"/>
  <path id="path2224" d="m12.508 5359.5h541.91"/>
  <path id="path2226" d="m12.612 5359.8h541.7"/>
  <path id="path2228" d="m12.716 5360.1h541.5"/>
  <path id="path2230" d="m12.82 5360.4h541.29"/>
  <path id="path2232" d="m12.923 5360.8h541.08"/>
  <path id="path2234" d="m13.028 5361.1h540.87"/>
  <path id="path2236" d="m13.132 5361.4h540.66"/>
  <path id="path2238" d="m13.235 5361.8h540.46"/>
  <path id="path2240" d="m13.339 5362.1h540.25"/>
  <path id="path2242" d="m13.443 5362.4h540.04"/>
  <path id="path2244" d="m13.547 5362.8h539.84"/>
  <path id="path2246" d="m13.651 5363.1h539.63"/>
  <path id="path2248" d="m13.755 5363.4h539.42"/>
  <path id="path2250" d="m13.859 5363.7h539.21"/>
  <path id="path2252" d="m13.963 5364.1h539"/>
  <path id="path2254" d="m14.067 5364.4h538.8"/>
  <path id="path2256" d="m14.171 5364.7h538.59"/>
  <path id="path2258" d="m14.275 5365.1h538.38"/>
  <path id="path2260" d="m14.378 5365.4h538.17"/>
  <path id="path2262" d="m14.482 5365.7h537.96"/>
  <path id="path2264" d="m14.586 5366.1h537.76"/>
  <path id="path2266" d="m14.69 5366.4h537.55"/>
  <path id="path2268" d="m14.794 5366.7h537.34"/>
  <path id="path2270" d="m14.898 5367h537.13"/>
  <path id="path2272" d="m15.002 5367.4h536.92"/>
  <path id="path2274" d="m15.106 5367.7h536.72"/>
  <path id="path2276" d="m15.21 5368h536.51"/>
  <path id="path2278" d="m15.314 5368.4h536.3"/>
  <path id="path2280" d="m15.418 5368.7h536.09"/>
  <path id="path2282" d="m15.522 5369h535.88"/>
  <path id="path2284" d="m15.626 5369.3h535.68"/>
  <path id="path2286" d="m15.73 5369.7h535.47"/>
  <path id="path2288" d="m15.833 5370h535.26"/>
  <path id="path2290" d="m15.937 5370.3h535.06"/>
  <path id="path2292" d="m16.041 5370.7h534.85"/>
  <path id="path2294" d="m16.145 5371h534.64"/>
  <path id="path2296" d="m16.249 5371.3h534.43"/>
  <path id="path2298" d="m16.353 5371.7h534.22"/>
  <path id="path2300" d="m16.457 5372h534.02"/>
  <path id="path2302" d="m16.561 5372.3h533.81"/>
  <path id="path2304" d="m16.665 5372.6h533.6"/>
  <path id="path2306" d="m16.769 5373h533.39"/>
  <path id="path2308" d="m16.873 5373.3h533.18"/>
  <path id="path2310" d="m16.976 5373.6h532.98"/>
  <path id="path2312" d="m17.081 5374h532.77"/>
  <path id="path2314" d="m17.213 5374.3h532.5"/>
  <path id="path2316" d="m17.349 5374.6h532.23"/>
  <path id="path2318" d="m17.485 5375h531.96"/>
  <path id="path2320" d="m17.622 5375.3h531.68"/>
  <path id="path2322" d="m17.759 5375.6h531.41"/>
  <path id="path2324" d="m17.895 5375.9h531.14"/>
  <path id="path2326" d="m18.032 5376.3h530.86"/>
  <path id="path2328" d="m18.168 5376.6h530.59"/>
  <path id="path2330" d="m18.305 5376.9h530.32"/>
  <path id="path2332" d="m18.441 5377.3h530.05"/>
  <path id="path2334" d="m18.578 5377.6h529.77"/>
  <path id="path2336" d="m18.714 5377.9h529.5"/>
  <path id="path2338" d="m18.851 5378.2h529.23"/>
  <path id="path2340" d="m18.987 5378.6h528.95"/>
  <path id="path2342" d="m19.124 5378.9h528.68"/>
  <path id="path2344" d="m19.261 5379.2h528.41"/>
  <path id="path2346" d="m19.397 5379.6h528.14"/>
  <path id="path2348" d="m19.533 5379.9h527.86"/>
  <path id="path2350" d="m19.67 5380.2h527.59"/>
  <path id="path2352" d="m19.807 5380.6h527.32"/>
  <path id="path2354" d="m19.943 5380.9h527.04"/>
  <path id="path2356" d="m20.08 5381.2h526.77"/>
  <path id="path2358" d="m20.216 5381.5h526.5"/>
  <path id="path2360" d="m20.353 5381.9h526.22"/>
  <path id="path2362" d="m20.489 5382.2h525.95"/>
  <path id="path2364" d="m20.626 5382.5h525.68"/>
  <path id="path2366" d="m20.762 5382.9h525.4"/>
  <path id="path2368" d="m20.899 5383.2h525.13"/>
  <path id="path2370" d="m21.035 5383.5h524.86"/>
  <path id="path2372" d="m21.172 5383.8h524.58"/>
  <path id="path2374" d="m21.308 5384.2h524.31"/>
  <path id="path2376" d="m21.445 5384.5h524.04"/>
  <path id="path2378" d="m21.581 5384.8h523.77"/>
  <path id="path2380" d="m21.718 5385.2h523.49"/>
  <path id="path2382" d="m21.855 5385.5h523.22"/>
  <path id="path2384" d="m21.991 5385.8h522.95"/>
  <path id="path2386" d="m22.127 5386.2h522.67"/>
  <path id="path2388" d="m22.264 5386.5h522.4"/>
  <path id="path2390" d="m22.401 5386.8h522.13"/>
  <path id="path2392" d="m22.537 5387.1h521.86"/>
  <path id="path2394" d="m22.674 5387.5h521.58"/>
  <path id="path2396" d="m22.81 5387.8h521.31"/>
  <path id="path2398" d="m22.947 5388.1h521.04"/>
  <path id="path2400" d="m23.083 5388.5h520.76"/>
  <path id="path2402" d="m23.22 5388.8h520.49"/>
  <path id="path2404" d="m23.356 5389.1h520.22"/>
  <path id="path2406" d="m23.493 5389.5h519.94"/>
  <path id="path2408" d="m23.629 5389.8h519.67"/>
  <path id="path2410" d="m23.766 5390.1h519.4"/>
  <path id="path2412" d="m23.903 5390.4h519.12"/>
  <path id="path2414" d="m24.039 5390.8h518.85"/>
  <path id="path2416" d="m24.175 5391.1h518.58"/>
  <path id="path2418" d="m24.312 5391.4h518.3"/>
  <path id="path2420" d="m24.449 5391.8h518.03"/>
  <path id="path2422" d="m24.585 5392.1h517.76"/>
  <path id="path2424" d="m24.721 5392.4h517.49"/>
  <path id="path2426" d="m24.858 5392.7h517.21"/>
  <path id="path2428" d="m24.995 5393.1h516.94"/>
  <path id="path2430" d="m25.131 5393.4h516.67"/>
  <path id="path2432" d="m25.268 5393.7h516.39"/>
  <path id="path2434" d="m25.404 5394.1h516.12"/>
  <path id="path2436" d="m25.541 5394.4h515.85"/>
  <path id="path2438" d="m25.677 5394.7h515.57"/>
  <path id="path2440" d="m25.814 5395.1h515.3"/>
  <path id="path2442" d="m25.95 5395.4h515.03"/>
  <path id="path2444" d="m26.087 5395.7h514.76"/>
  <path id="path2446" d="m26.223 5396h514.48"/>
  <path id="path2448" d="m26.36 5396.4h514.21"/>
  <path id="path2450" d="m26.497 5396.7h513.94"/>
  <path id="path2452" d="m26.652 5397h513.62"/>
  <path id="path2454" d="m26.824 5397.4h513.28"/>
  <path id="path2456" d="m26.995 5397.7h512.94"/>
  <path id="path2458" d="m27.167 5398h512.6"/>
  <path id="path2460" d="m27.338 5398.4h512.25"/>
  <path id="path2462" d="m27.51 5398.7h511.91"/>
  <path id="path2464" d="m27.682 5399h511.56"/>
  <path id="path2466" d="m27.853 5399.3h511.22"/>
  <path id="path2468" d="m28.025 5399.7h510.88"/>
  <path id="path2470" d="m28.197 5400h510.54"/>
  <path id="path2472" d="m28.368 5400.3h510.19"/>
  <path id="path2474" d="m28.54 5400.7h509.85"/>
  <path id="path2476" d="m28.711 5401h509.51"/>
  <path id="path2478" d="m28.883 5401.3h509.16"/>
  <path id="path2480" d="m29.054 5401.6h508.82"/>
  <path id="path2482" d="m29.226 5402h508.48"/>
  <path id="path2484" d="m29.398 5402.3h508.13"/>
  <path id="path2486" d="m29.569 5402.6h507.79"/>
  <path id="path2488" d="m29.741 5403h507.45"/>
  <path id="path2490" d="m29.912 5403.3h507.1"/>
  <path id="path2492" d="m30.084 5403.6h506.76"/>
  <path id="path2494" d="m30.255 5404h506.42"/>
  <path id="path2496" d="m30.427 5404.3h506.08"/>
  <path id="path2498" d="m30.599 5404.6h505.73"/>
  <path id="path2500" d="m30.77 5404.9h505.39"/>
  <path id="path2502" d="m30.942 5405.3h505.04"/>
  <path id="path2504" d="m31.114 5405.6h504.7"/>
  <path id="path2506" d="m31.285 5405.9h504.36"/>
  <path id="path2508" d="m31.457 5406.3h504.02"/>
  <path id="path2510" d="m31.628 5406.6h503.67"/>
  <path id="path2512" d="m31.8 5406.9h503.33"/>
  <path id="path2514" d="m31.971 5407.3h502.99"/>
  <path id="path2516" d="m32.143 5407.6h502.64"/>
  <path id="path2518" d="m32.315 5407.9h502.3"/>
  <path id="path2520" d="m32.486 5408.2h501.96"/>
  <path id="path2522" d="m32.658 5408.6h501.61"/>
  <path id="path2524" d="m32.829 5408.9h501.27"/>
  <path id="path2526" d="m33.001 5409.2h500.93"/>
  <path id="path2528" d="m33.172 5409.6h500.58"/>
  <path id="path2530" d="m33.344 5409.9h500.24"/>
  <path id="path2532" d="m33.516 5410.2h499.9"/>
  <path id="path2534" d="m33.687 5410.5h499.56"/>
  <path id="path2536" d="m33.859 5410.9h499.21"/>
  <path id="path2538" d="m34.03 5411.2h498.87"/>
  <path id="path2540" d="m34.202 5411.5h498.52"/>
  <path id="path2542" d="m34.373 5411.9h498.18"/>
  <path id="path2544" d="m34.545 5412.2h497.84"/>
  <path id="path2546" d="m34.717 5412.5h497.5"/>
  <path id="path2548" d="m34.889 5412.9h497.15"/>
  <path id="path2550" d="m35.06 5413.2h496.81"/>
  <path id="path2552" d="m35.232 5413.5h496.46"/>
  <path id="path2554" d="m35.403 5413.8h496.12"/>
  <path id="path2556" d="m35.575 5414.2h495.78"/>
  <path id="path2558" d="m35.746 5414.5h495.44"/>
  <path id="path2560" d="m35.918 5414.8h495.09"/>
  <path id="path2562" d="m36.09 5415.2h494.75"/>
  <path id="path2564" d="m36.261 5415.5h494.41"/>
  <path id="path2566" d="m36.433 5415.8h494.06"/>
  <path id="path2568" d="m36.604 5416.2h493.72"/>
  <path id="path2570" d="m36.776 5416.5h493.38"/>
  <path id="path2572" d="m36.947 5416.8h493.03"/>
  <path id="path2574" d="m37.119 5417.1h492.69"/>
  <path id="path2576" d="m37.291 5417.5h492.35"/>
  <path id="path2578" d="m37.462 5417.8h492"/>
  <path id="path2580" d="m37.634 5418.1h491.66"/>
  <path id="path2582" d="m37.806 5418.5h491.32"/>
  <path id="path2584" d="m37.977 5418.8h490.98"/>
  <path id="path2586" d="m38.187 5419.1h490.56"/>
  <path id="path2588" d="m38.397 5419.4h490.14"/>
  <path id="path2590" d="m38.607 5419.8h489.72"/>
  <path id="path2592" d="m38.817 5420.1h489.3"/>
  <path id="path2594" d="m39.027 5420.4h488.88"/>
  <path id="path2596" d="m39.237 5420.8h488.46"/>
  <path id="path2598" d="m39.447 5421.1h488.04"/>
  <path id="path2600" d="m39.657 5421.4h487.62"/>
  <path id="path2602" d="m39.867 5421.8h487.2"/>
  <path id="path2604" d="m40.077 5422.1h486.78"/>
  <path id="path2606" d="m40.287 5422.4h486.36"/>
  <path id="path2608" d="m40.497 5422.7h485.94"/>
  <path id="path2610" d="m40.707 5423.1h485.52"/>
  <path id="path2612" d="m40.917 5423.4h485.1"/>
  <path id="path2614" d="m41.127 5423.7h484.68"/>
  <path id="path2616" d="m41.337 5424.1h484.26"/>
  <path id="path2618" d="m41.547 5424.4h483.84"/>
  <path id="path2620" d="m41.757 5424.7h483.42"/>
  <path id="path2622" d="m41.967 5425.1h483"/>
  <path id="path2624" d="m42.177 5425.4h482.58"/>
  <path id="path2626" d="m42.387 5425.7h482.16"/>
  <path id="path2628" d="m42.596 5426h481.74"/>
  <path id="path2630" d="m42.806 5426.4h481.32"/>
  <path id="path2632" d="m43.016 5426.7h480.9"/>
  <path id="path2634" d="m43.227 5427h480.48"/>
  <path id="path2636" d="m43.437 5427.4h480.06"/>
  <path id="path2638" d="m43.647 5427.7h479.64"/>
  <path id="path2640" d="m43.857 5428h479.22"/>
  <path id="path2642" d="m44.067 5428.3h478.8"/>
  <path id="path2644" d="m44.277 5428.7h478.38"/>
  <path id="path2646" d="m44.486 5429h477.96"/>
  <path id="path2648" d="m44.696 5429.3h477.54"/>
  <path id="path2650" d="m44.906 5429.7h477.12"/>
  <path id="path2652" d="m45.116 5430h476.7"/>
  <path id="path2654" d="m45.326 5430.3h476.28"/>
  <path id="path2656" d="m45.536 5430.7h475.86"/>
  <path id="path2658" d="m45.746 5431h475.44"/>
  <path id="path2660" d="m45.957 5431.3h475.02"/>
  <path id="path2662" d="m46.167 5431.6h474.6"/>
  <path id="path2664" d="m46.376 5432h474.18"/>
  <path id="path2666" d="m46.586 5432.3h473.76"/>
  <path id="path2668" d="m46.796 5432.6h473.34"/>
  <path id="path2670" d="m47.006 5433h472.92"/>
  <path id="path2672" d="m47.216 5433.3h472.5"/>
  <path id="path2674" d="m47.426 5433.6h472.08"/>
  <path id="path2676" d="m47.636 5434h471.66"/>
  <path id="path2678" d="m47.846 5434.3h471.24"/>
  <path id="path2680" d="m48.056 5434.6h470.82"/>
  <path id="path2682" d="m48.266 5434.9h470.4"/>
  <path id="path2684" d="m48.476 5435.3h469.98"/>
  <path id="path2686" d="m48.686 5435.6h469.56"/>
  <path id="path2688" d="m48.896 5435.9h469.14"/>
  <path id="path2690" d="m49.106 5436.3h468.72"/>
  <path id="path2692" d="m49.316 5436.6h468.3"/>
  <path id="path2694" d="m49.526 5436.9h467.88"/>
  <path id="path2696" d="m49.736 5437.2h467.46"/>
  <path id="path2698" d="m49.946 5437.6h467.04"/>
  <path id="path2700" d="m50.156 5437.9h466.62"/>
  <path id="path2702" d="m50.366 5438.2h466.2"/>
  <path id="path2704" d="m50.576 5438.6h465.78"/>
  <path id="path2706" d="m50.786 5438.9h465.36"/>
  <path id="path2708" d="m50.996 5439.2h464.94"/>
  <path id="path2710" d="m51.206 5439.6h464.52"/>
  <path id="path2712" d="m51.447 5439.9h464.03"/>
  <path id="path2714" d="m51.7 5440.2h463.53"/>
  <path id="path2716" d="m51.953 5440.5h463.02"/>
  <path id="path2718" d="m52.206 5440.9h462.52"/>
  <path id="path2720" d="m52.459 5441.2h462.01"/>
  <path id="path2722" d="m52.712 5441.5h461.5"/>
  <path id="path2724" d="m52.964 5441.9h461"/>
  <path id="path2726" d="m53.217 5442.2h460.49"/>
  <path id="path2728" d="m53.471 5442.5h459.99"/>
  <path id="path2730" d="m53.723 5442.8h459.48"/>
  <path id="path2732" d="m53.976 5443.2h458.98"/>
  <path id="path2734" d="m54.229 5443.5h458.47"/>
  <path id="path2736" d="m54.482 5443.8h457.96"/>
  <path id="path2738" d="m54.735 5444.2h457.46"/>
  <path id="path2740" d="m54.988 5444.5h456.95"/>
  <path id="path2742" d="m55.241 5444.8h456.45"/>
  <path id="path2744" d="m55.494 5445.2h455.94"/>
  <path id="path2746" d="m55.747 5445.5h455.44"/>
  <path id="path2748" d="m56 5445.8h454.93"/>
  <path id="path2750" d="m56.252 5446.1h454.42"/>
  <path id="path2752" d="m56.505 5446.5h453.92"/>
  <path id="path2754" d="m56.758 5446.8h453.41"/>
  <path id="path2756" d="m57.011 5447.1h452.91"/>
  <path id="path2758" d="m57.264 5447.5h452.4"/>
  <path id="path2760" d="m57.517 5447.8h451.9"/>
  <path id="path2762" d="m57.77 5448.1h451.39"/>
  <path id="path2764" d="m58.023 5448.5h450.88"/>
  <path id="path2766" d="m58.276 5448.8h450.38"/>
  <path id="path2768" d="m58.529 5449.1h449.87"/>
  <path id="path2770" d="m58.782 5449.4h449.36"/>
  <path id="path2772" d="m59.035 5449.8h448.86"/>
  <path id="path2774" d="m59.287 5450.1h448.35"/>
  <path id="path2776" d="m59.54 5450.4h447.85"/>
  <path id="path2778" d="m59.794 5450.8h447.34"/>
  <path id="path2780" d="m60.046 5451.1h446.84"/>
  <path id="path2782" d="m60.299 5451.4h446.33"/>
  <path id="path2784" d="m60.552 5451.7h445.82"/>
  <path id="path2786" d="m60.805 5452.1h445.32"/>
  <path id="path2788" d="m61.058 5452.4h444.81"/>
  <path id="path2790" d="m61.311 5452.7h444.31"/>
  <path id="path2792" d="m61.564 5453.1h443.8"/>
  <path id="path2794" d="m61.817 5453.4h443.3"/>
  <path id="path2796" d="m62.07 5453.7h442.79"/>
  <path id="path2798" d="m62.323 5454.1h442.28"/>
  <path id="path2800" d="m62.575 5454.4h441.78"/>
  <path id="path2802" d="m62.829 5454.7h441.27"/>
  <path id="path2804" d="m63.081 5455h440.77"/>
  <path id="path2806" d="m63.334 5455.4h440.26"/>
  <path id="path2808" d="m63.587 5455.7h439.76"/>
  <path id="path2810" d="m63.84 5456h439.25"/>
  <path id="path2812" d="m64.093 5456.4h438.74"/>
  <path id="path2814" d="m64.346 5456.7h438.24"/>
  <path id="path2816" d="m64.599 5457h437.73"/>
  <path id="path2818" d="m64.852 5457.4h437.22"/>
  <path id="path2820" d="m65.105 5457.7h436.72"/>
  <path id="path2822" d="m65.358 5458h436.21"/>
  <path id="path2824" d="m65.61 5458.3h435.71"/>
  <path id="path2826" d="m65.863 5458.7h435.2"/>
  <path id="path2828" d="m66.116 5459h434.7"/>
  <path id="path2830" d="m66.379 5459.3h434.17"/>
  <path id="path2832" d="m66.681 5459.7h433.57"/>
  <path id="path2834" d="m66.983 5460h432.96"/>
  <path id="path2836" d="m67.285 5460.3h432.36"/>
  <path id="path2838" d="m67.587 5460.6h431.76"/>
  <path id="path2840" d="m67.889 5461h431.15"/>
  <path id="path2842" d="m68.192 5461.3h430.55"/>
  <path id="path2844" d="m68.493 5461.6h429.94"/>
  <path id="path2846" d="m68.795 5462h429.34"/>
  <path id="path2848" d="m69.098 5462.3h428.73"/>
  <path id="path2850" d="m69.399 5462.6h428.13"/>
  <path id="path2852" d="m69.702 5463h427.53"/>
  <path id="path2854" d="m70.004 5463.3h426.92"/>
  <path id="path2856" d="m70.305 5463.6h426.32"/>
  <path id="path2858" d="m70.608 5463.9h425.71"/>
  <path id="path2860" d="m70.91 5464.3h425.11"/>
  <path id="path2862" d="m71.212 5464.6h424.5"/>
  <path id="path2864" d="m71.514 5464.9h423.9"/>
  <path id="path2866" d="m71.816 5465.3h423.3"/>
  <path id="path2868" d="m72.118 5465.6h422.69"/>
  <path id="path2870" d="m72.42 5465.9h422.09"/>
  <path id="path2872" d="m72.722 5466.3h421.48"/>
  <path id="path2874" d="m73.024 5466.6h420.88"/>
  <path id="path2876" d="m73.326 5466.9h420.28"/>
  <path id="path2878" d="m73.628 5467.2h419.67"/>
  <path id="path2880" d="m73.93 5467.6h419.07"/>
  <path id="path2882" d="m74.232 5467.9h418.46"/>
  <path id="path2884" d="m74.534 5468.2h417.86"/>
  <path id="path2886" d="m74.836 5468.6h417.26"/>
  <path id="path2888" d="m75.138 5468.9h416.65"/>
  <path id="path2890" d="m75.44 5469.2h416.05"/>
  <path id="path2892" d="m75.742 5469.5h415.44"/>
  <path id="path2894" d="m76.044 5469.9h414.84"/>
  <path id="path2896" d="m76.346 5470.2h414.24"/>
  <path id="path2898" d="m76.648 5470.5h413.63"/>
  <path id="path2900" d="m76.95 5470.9h413.03"/>
  <path id="path2902" d="m77.253 5471.2h412.42"/>
  <path id="path2904" d="m77.554 5471.5h411.82"/>
  <path id="path2906" d="m77.856 5471.9h411.22"/>
  <path id="path2908" d="m78.159 5472.2h410.61"/>
  <path id="path2910" d="m78.46 5472.5h410.01"/>
  <path id="path2912" d="m78.763 5472.8h409.4"/>
  <path id="path2914" d="m79.065 5473.2h408.8"/>
  <path id="path2916" d="m79.367 5473.5h408.2"/>
  <path id="path2918" d="m79.669 5473.8h407.59"/>
  <path id="path2920" d="m79.971 5474.2h406.99"/>
  <path id="path2922" d="m80.273 5474.5h406.38"/>
  <path id="path2924" d="m80.575 5474.8h405.78"/>
  <path id="path2926" d="m80.877 5475.2h405.18"/>
  <path id="path2928" d="m81.179 5475.5h404.57"/>
  <path id="path2930" d="m81.481 5475.8h403.97"/>
  <path id="path2932" d="m81.783 5476.1h403.36"/>
  <path id="path2934" d="m82.085 5476.5h402.76"/>
  <path id="path2936" d="m82.387 5476.8h402.16"/>
  <path id="path2938" d="m82.689 5477.1h401.55"/>
  <path id="path2940" d="m82.991 5477.5h400.95"/>
  <path id="path2942" d="m83.344 5477.8h400.24"/>
  <path id="path2944" d="m83.704 5478.1h399.52"/>
  <path id="path2946" d="m84.064 5478.4h398.8"/>
  <path id="path2948" d="m84.423 5478.8h398.08"/>
  <path id="path2950" d="m84.783 5479.1h397.36"/>
  <path id="path2952" d="m85.143 5479.4h396.64"/>
  <path id="path2954" d="m85.502 5479.8h395.92"/>
  <path id="path2956" d="m85.862 5480.1h395.2"/>
  <path id="path2958" d="m86.222 5480.4h394.48"/>
  <path id="path2960" d="m86.582 5480.8h393.76"/>
  <path id="path2962" d="m86.941 5481.1h393.05"/>
  <path id="path2964" d="m87.301 5481.4h392.33"/>
  <path id="path2966" d="m87.661 5481.7h391.61"/>
  <path id="path2968" d="m88.02 5482.1h390.89"/>
  <path id="path2970" d="m88.38 5482.4h390.17"/>
  <path id="path2972" d="m88.74 5482.7h389.45"/>
  <path id="path2974" d="m89.1 5483.1h388.73"/>
  <path id="path2976" d="m89.459 5483.4h388.01"/>
  <path id="path2978" d="m89.819 5483.7h387.29"/>
  <path id="path2980" d="m90.179 5484.1h386.57"/>
  <path id="path2982" d="m90.538 5484.4h385.85"/>
  <path id="path2984" d="m90.898 5484.7h385.13"/>
  <path id="path2986" d="m91.258 5485h384.41"/>
  <path id="path2988" d="m91.617 5485.4h383.69"/>
  <path id="path2990" d="m91.977 5485.7h382.98"/>
  <path id="path2992" d="m92.337 5486h382.26"/>
  <path id="path2994" d="m92.697 5486.4h381.54"/>
  <path id="path2996" d="m93.056 5486.7h380.82"/>
  <path id="path2998" d="m93.416 5487h380.1"/>
  <path id="path3000" d="m93.775 5487.3h379.38"/>
  <path id="path3002" d="m94.135 5487.7h378.66"/>
  <path id="path3004" d="m94.495 5488h377.94"/>
  <path id="path3006" d="m94.854 5488.3h377.22"/>
  <path id="path3008" d="m95.214 5488.7h376.5"/>
  <path id="path3010" d="m95.574 5489h375.78"/>
  <path id="path3012" d="m95.934 5489.3h375.06"/>
  <path id="path3014" d="m96.293 5489.7h374.34"/>
  <path id="path3016" d="m96.653 5490h373.62"/>
  <path id="path3018" d="m97.013 5490.3h372.9"/>
  <path id="path3020" d="m97.372 5490.6h372.18"/>
  <path id="path3022" d="m97.732 5491h371.46"/>
  <path id="path3024" d="m98.092 5491.3h370.74"/>
  <path id="path3026" d="m98.451 5491.6h370.03"/>
  <path id="path3028" d="m98.811 5492h369.31"/>
  <path id="path3030" d="m99.171 5492.3h368.59"/>
  <path id="path3032" d="m99.531 5492.6h367.87"/>
  <path id="path3034" d="m99.89 5493h367.15"/>
  <path id="path3036" d="m100.25 5493.3h366.43"/>
  <path id="path3038" d="m100.61 5493.6h365.71"/>
  <path id="path3040" d="m100.97 5493.9h364.99"/>
  <path id="path3042" d="m101.34 5494.3h364.24"/>
  <path id="path3044" d="m101.77 5494.6h363.38"/>
  <path id="path3046" d="m102.2 5494.9h362.52"/>
  <path id="path3048" d="m102.63 5495.3h361.66"/>
  <path id="path3050" d="m103.06 5495.6h360.81"/>
  <path id="path3052" d="m103.49 5495.9h359.95"/>
  <path id="path3054" d="m103.92 5496.2h359.09"/>
  <path id="path3056" d="m104.35 5496.6h358.23"/>
  <path id="path3058" d="m104.78 5496.9h357.37"/>
  <path id="path3060" d="m105.21 5497.2h356.51"/>
  <path id="path3062" d="m105.64 5497.6h355.65"/>
  <path id="path3064" d="m106.07 5497.9h354.79"/>
  <path id="path3066" d="m106.5 5498.2h353.93"/>
  <path id="path3068" d="m106.93 5498.6h353.07"/>
  <path id="path3070" d="m107.36 5498.9h352.21"/>
  <path id="path3072" d="m107.79 5499.2h351.36"/>
  <path id="path3074" d="m108.22 5499.5h350.5"/>
  <path id="path3076" d="m108.65 5499.9h349.64"/>
  <path id="path3078" d="m109.08 5500.2h348.78"/>
  <path id="path3080" d="m109.5 5500.5h347.92"/>
  <path id="path3082" d="m109.94 5500.9h347.06"/>
  <path id="path3084" d="m110.36 5501.2h346.2"/>
  <path id="path3086" d="m110.79 5501.5h345.34"/>
  <path id="path3088" d="m111.22 5501.8h344.48"/>
  <path id="path3090" d="m111.65 5502.2h343.62"/>
  <path id="path3092" d="m112.08 5502.5h342.76"/>
  <path id="path3094" d="m112.51 5502.8h341.9"/>
  <path id="path3096" d="m112.94 5503.2h341.04"/>
  <path id="path3098" d="m113.37 5503.5h340.19"/>
  <path id="path3100" d="m113.8 5503.8h339.33"/>
  <path id="path3102" d="m114.23 5504.2h338.47"/>
  <path id="path3104" d="m114.66 5504.5h337.61"/>
  <path id="path3106" d="m115.09 5504.8h336.75"/>
  <path id="path3108" d="m115.52 5505.1h335.89"/>
  <path id="path3110" d="m115.95 5505.5h335.03"/>
  <path id="path3112" d="m116.38 5505.8h334.17"/>
  <path id="path3114" d="m116.81 5506.1h333.31"/>
  <path id="path3116" d="m117.24 5506.5h332.45"/>
  <path id="path3118" d="m117.67 5506.8h331.6"/>
  <path id="path3120" d="m118.1 5507.1h330.74"/>
  <path id="path3122" d="m118.53 5507.5h329.88"/>
  <path id="path3124" d="m118.96 5507.8h329.02"/>
  <path id="path3126" d="m119.38 5508.1h328.16"/>
  <path id="path3128" d="m119.82 5508.4h327.3"/>
  <path id="path3130" d="m120.24 5508.8h326.44"/>
  <path id="path3132" d="m120.67 5509.1h325.58"/>
  <path id="path3134" d="m121.15 5509.4h324.63"/>
  <path id="path3136" d="m121.67 5509.8h323.59"/>
  <path id="path3138" d="m122.18 5510.1h322.56"/>
  <path id="path3140" d="m122.7 5510.4h321.52"/>
  <path id="path3142" d="m123.22 5510.8h320.49"/>
  <path id="path3144" d="m123.74 5511.1h319.46"/>
  <path id="path3146" d="m124.25 5511.4h318.42"/>
  <path id="path3148" d="m124.77 5511.7h317.38"/>
  <path id="path3150" d="m125.29 5512.1h316.35"/>
  <path id="path3152" d="m125.81 5512.4h315.32"/>
  <path id="path3154" d="m126.32 5512.7h314.28"/>
  <path id="path3156" d="m126.84 5513.1h313.25"/>
  <path id="path3158" d="m127.36 5513.4h312.21"/>
  <path id="path3160" d="m127.88 5513.7h311.18"/>
  <path id="path3162" d="m128.39 5514h310.14"/>
  <path id="path3164" d="m128.91 5514.4h309.11"/>
  <path id="path3166" d="m129.43 5514.7h308.07"/>
  <path id="path3168" d="m129.94 5515h307.04"/>
  <path id="path3170" d="m130.46 5515.4h306"/>
  <path id="path3172" d="m130.98 5515.7h304.97"/>
  <path id="path3174" d="m131.5 5516h303.93"/>
  <path id="path3176" d="m132.02 5516.4h302.9"/>
  <path id="path3178" d="m132.53 5516.7h301.86"/>
  <path id="path3180" d="m133.05 5517h300.83"/>
  <path id="path3182" d="m133.57 5517.3h299.8"/>
  <path id="path3184" d="m134.08 5517.7h298.76"/>
  <path id="path3186" d="m134.6 5518h297.72"/>
  <path id="path3188" d="m135.12 5518.3h296.69"/>
  <path id="path3190" d="m135.64 5518.7h295.66"/>
  <path id="path3192" d="m136.15 5519h294.62"/>
  <path id="path3194" d="m136.67 5519.3h293.59"/>
  <path id="path3196" d="m137.19 5519.6h292.55"/>
  <path id="path3198" d="m137.71 5520h291.52"/>
  <path id="path3200" d="m138.22 5520.3h290.48"/>
  <path id="path3202" d="m138.74 5520.6h289.45"/>
  <path id="path3204" d="m139.26 5521h288.41"/>
  <path id="path3206" d="m139.78 5521.3h287.38"/>
  <path id="path3208" d="m140.29 5521.6h286.34"/>
  <path id="path3210" d="m140.81 5522h285.31"/>
  <path id="path3212" d="m141.33 5522.3h284.27"/>
  <path id="path3214" d="m141.87 5522.6h283.19"/>
  <path id="path3216" d="m142.5 5522.9h281.92"/>
  <path id="path3218" d="m143.14 5523.3h280.66"/>
  <path id="path3220" d="m143.77 5523.6h279.39"/>
  <path id="path3222" d="m144.4 5523.9h278.12"/>
  <path id="path3224" d="m145.04 5524.3h276.86"/>
  <path id="path3226" d="m145.67 5524.6h275.59"/>
  <path id="path3228" d="m146.3 5524.9h274.32"/>
  <path id="path3230" d="m146.94 5525.3h273.06"/>
  <path id="path3232" d="m147.57 5525.6h271.79"/>
  <path id="path3234" d="m148.2 5525.9h270.52"/>
  <path id="path3236" d="m148.84 5526.2h269.26"/>
  <path id="path3238" d="m149.47 5526.6h267.99"/>
  <path id="path3240" d="m150.1 5526.9h266.72"/>
  <path id="path3242" d="m150.74 5527.2h265.46"/>
  <path id="path3244" d="m151.37 5527.6h264.19"/>
  <path id="path3246" d="m152 5527.9h262.93"/>
  <path id="path3248" d="m152.63 5528.2h261.66"/>
  <path id="path3250" d="m153.27 5528.5h260.4"/>
  <path id="path3252" d="m153.9 5528.9h259.13"/>
  <path id="path3254" d="m154.53 5529.2h257.86"/>
  <path id="path3256" d="m155.17 5529.5h256.6"/>
  <path id="path3258" d="m155.8 5529.9h255.33"/>
  <path id="path3260" d="m156.43 5530.2h254.06"/>
  <path id="path3262" d="m157.07 5530.5h252.8"/>
  <path id="path3264" d="m157.7 5530.9h251.53"/>
  <path id="path3266" d="m158.33 5531.2h250.26"/>
  <path id="path3268" d="m158.97 5531.5h249"/>
  <path id="path3270" d="m159.6 5531.8h247.73"/>
  <path id="path3272" d="m160.23 5532.2h246.46"/>
  <path id="path3274" d="m160.86 5532.5h245.2"/>
  <path id="path3276" d="m161.5 5532.8h243.93"/>
  <path id="path3278" d="m162.13 5533.2h242.66"/>
  <path id="path3280" d="m162.76 5533.5h241.4"/>
  <path id="path3282" d="m163.4 5533.8h240.13"/>
  <path id="path3284" d="m164.12 5534.2h238.68"/>
  <path id="path3286" d="m164.92 5534.5h237.09"/>
  <path id="path3288" d="m165.72 5534.8h235.5"/>
  <path id="path3290" d="m166.51 5535.1h233.9"/>
  <path id="path3292" d="m167.31 5535.5h232.31"/>
  <path id="path3294" d="m168.1 5535.8h230.72"/>
  <path id="path3296" d="m168.9 5536.1h229.13"/>
  <path id="path3298" d="m169.7 5536.5h227.54"/>
  <path id="path3300" d="m170.49 5536.8h225.95"/>
  <path id="path3302" d="m171.29 5537.1h224.36"/>
  <path id="path3304" d="m172.08 5537.4h222.76"/>
  <path id="path3306" d="m172.88 5537.8h221.17"/>
  <path id="path3308" d="m173.67 5538.1h219.58"/>
  <path id="path3310" d="m174.47 5538.4h217.99"/>
  <path id="path3312" d="m175.26 5538.8h216.4"/>
  <path id="path3314" d="m176.06 5539.1h214.81"/>
  <path id="path3316" d="m176.86 5539.4h213.22"/>
  <path id="path3318" d="m177.65 5539.8h211.62"/>
  <path id="path3320" d="m178.45 5540.1h210.03"/>
  <path id="path3322" d="m179.24 5540.4h208.44"/>
  <path id="path3324" d="m180.04 5540.7h206.85"/>
  <path id="path3326" d="m180.84 5541.1h205.26"/>
  <path id="path3328" d="m181.63 5541.4h203.67"/>
  <path id="path3330" d="m182.43 5541.7h202.08"/>
  <path id="path3332" d="m183.22 5542.1h200.48"/>
  <path id="path3334" d="m184.02 5542.4h198.89"/>
  <path id="path3336" d="m184.81 5542.7h197.3"/>
  <path id="path3338" d="m185.61 5543.1h195.71"/>
  <path id="path3340" d="m186.41 5543.4h194.12"/>
  <path id="path3342" d="m187.42 5543.7h192.1"/>
  <path id="path3344" d="m188.46 5544h190"/>
  <path id="path3346" d="m189.51 5544.4h187.91"/>
  <path id="path3348" d="m190.55 5544.7h185.82"/>
  <path id="path3350" d="m191.6 5545h183.73"/>
  <path id="path3352" d="m192.64 5545.4h181.64"/>
  <path id="path3354" d="m193.69 5545.7h179.55"/>
  <path id="path3356" d="m194.74 5546h177.46"/>
  <path id="path3358" d="m195.78 5546.3h175.37"/>
  <path id="path3360" d="m196.83 5546.7h173.28"/>
  <path id="path3362" d="m197.87 5547h171.19"/>
  <path id="path3364" d="m198.92 5547.3h169.1"/>
  <path id="path3366" d="m199.96 5547.7h167"/>
  <path id="path3368" d="m201.01 5548h164.91"/>
  <path id="path3370" d="m202.05 5548.3h162.82"/>
  <path id="path3372" d="m203.1 5548.7h160.73"/>
  <path id="path3374" d="m204.14 5549h158.64"/>
  <path id="path3376" d="m205.19 5549.3h156.55"/>
  <path id="path3378" d="m206.24 5549.6h154.46"/>
  <path id="path3380" d="m207.28 5550h152.37"/>
  <path id="path3382" d="m208.33 5550.3h150.28"/>
  <path id="path3384" d="m209.37 5550.6h148.19"/>
  <path id="path3386" d="m210.55 5551h145.83"/>
  <path id="path3388" d="m212.04 5551.3h142.85"/>
  <path id="path3390" d="m213.52 5551.6h139.88"/>
  <path id="path3392" d="m215.01 5552h136.91"/>
  <path id="path3394" d="m216.5 5552.3h133.93"/>
  <path id="path3396" d="m217.98 5552.6h130.96"/>
  <path id="path3398" d="m219.47 5552.9h127.99"/>
  <path id="path3400" d="m220.96 5553.3h125.01"/>
  <path id="path3402" d="m222.44 5553.6h122.04"/>
  <path id="path3404" d="m223.93 5553.9h119.07"/>
  <path id="path3406" d="m225.42 5554.3h116.09"/>
  <path id="path3408" d="m226.9 5554.6h113.12"/>
  <path id="path3410" d="m228.39 5554.9h110.14"/>
  <path id="path3412" d="m229.88 5555.2h107.17"/>
  <path id="path3414" d="m231.36 5555.6h104.2"/>
  <path id="path3416" d="m232.85 5555.9h101.22"/>
  <path id="path3418" d="m234.4 5556.2h98.119"/>
  <path id="path3420" d="m236.91 5556.6h93.113"/>
  <path id="path3422" d="m239.41 5556.9h88.105"/>
  <path id="path3424" d="m241.92 5557.2h83.097"/>
  <path id="path3426" d="m244.42 5557.6h78.09"/>
  <path id="path3428" d="m246.92 5557.9h73.083"/>
  <path id="path3430" d="m249.43 5558.2h68.075"/>
  <path id="path3432" d="m251.93 5558.5h63.067"/>
  <path id="path3434" d="m254.43 5558.9h58.06"/>
  <path id="path3436" d="m256.94 5559.2h53.053"/>
  <path id="path3438" d="m260.82 5559.5h45.294"/>
  <path id="path3440" d="m268.37 5559.9h30.196"/>
  <path id="path3442" d="m275.92 5560.2h15.098"/>
 </g>
</svg>
