<?xml version="1.0" encoding="UTF-8"?>
<svg id="svg22" width="566.93" height="187.72" version="1.1" viewBox="0 0 566.93 187.72" xmlns="http://www.w3.org/2000/svg">
 <g id="g20" transform="translate(0 -642.58)" fill="none" stroke="#000" stroke-width="4mm">
  <path id="path6" d="m337.98 687.64 5.062-10.902 5.062-9.735 13.238-13.238 10.124-3.505 8.956 0.779 11.681 3.504 10.902 2.337 8.956 13.238 7.009 7.399"/>
  <path id="path8" d="m418.97 677.51 4.672 8.566v9.734l-4.672 9.345-5.062 8.177-7.788 9.345-8.955 9.734-8.177 10.124-5.062 7.398-4.283 6.62-0.779 8.566"/>
  <path id="path10" d="m378.86 765.12v15.575l0.779 8.566v0.779"/>
  <path id="path12" d="m371.46 822.75h20.637"/>
  <path id="path14" d="m0 755.78h116.81"/>
  <path id="path16" d="m194.69 755.78h116.81"/>
  <path id="path18" d="m450.12 755.78h116.81"/>
 </g>
</svg>
