<?xml version="1.0" encoding="UTF-8" standalone="no"?>
<svg
   width="566.92902"
   height="187.72231"
   viewBox="0 0 566.929 187.72231"
   version="1.1"
   id="svg22"
   sodipodi:docname="QUESMRK1.hpgl.svg"
   inkscape:version="1.1.2 (0a00cf5339, 2022-02-04)"
   xmlns:inkscape="http://www.inkscape.org/namespaces/inkscape"
   xmlns:sodipodi="http://sodipodi.sourceforge.net/DTD/sodipodi-0.dtd"
   xmlns="http://www.w3.org/2000/svg"
   xmlns:svg="http://www.w3.org/2000/svg">
  <defs
     id="defs26" />
  <sodipodi:namedview
     id="namedview24"
     pagecolor="#ffffff"
     bordercolor="#666666"
     borderopacity="1.0"
     inkscape:pageshadow="2"
     inkscape:pageopacity="0.0"
     inkscape:pagecheckerboard="0"
     showgrid="false"
     inkscape:zoom="2.3389172"
     inkscape:cx="283.4645"
     inkscape:cy="-556.45407"
     inkscape:window-width="1495"
     inkscape:window-height="970"
     inkscape:window-x="0"
     inkscape:window-y="32"
     inkscape:window-maximized="0"
     inkscape:current-layer="svg22" />
  <g
     id="g2"
     transform="translate(0,-642.58475)" />
  <g
     style="fill:none;stroke:#000000;stroke-width:1mm"
     id="g4"
     transform="translate(0,-642.58475)" />
  <g
     style="fill:none;stroke:#000000;stroke-width:4mm"
     id="g20"
     transform="translate(0,-642.58475)">
    <path
       d="m 337.977,687.635 5.062,-10.902 5.062,-9.735 6.619,-6.619 6.619,-6.619 10.124,-3.505 8.956,0.779 11.681,3.504 10.902,2.337 8.956,13.238 7.009,7.399"
       id="path6" />
    <path
       d="m 418.967,677.512 4.672,8.566 v 9.734 l -4.672,9.345 -5.062,8.177 -7.788,9.345 -8.955,9.734 -8.177,10.124 -5.062,7.398 -4.283,6.62 -0.779,8.566"
       id="path8" />
    <path
       d="m 378.861,765.121 v 8.955 6.62 l 0.779,8.566 v 0.779"
       id="path10" />
    <path
       d="M 371.463,822.748 H 392.1"
       id="path12" />
    <path
       d="M 0,755.776 H 116.812"
       id="path14" />
    <path
       d="M 194.687,755.776 H 311.499"
       id="path16" />
    <path
       d="M 450.117,755.776 H 566.929"
       id="path18" />
  </g>
</svg>
