<?xml version="1.0" encoding="UTF-8"?>
<svg id="svg40" width="598.18" height="144.43" version="1.1" viewBox="0 0 598.18 144.43" xmlns="http://www.w3.org/2000/svg">
 <g id="g38" transform="translate(15.054 -418.27)" fill="none" stroke="#000" stroke-width="4mm">
  <path id="path6" d="m124.14 489.81h74.192"/>
  <path id="path8" d="m369.41 489.81h76.144"/>
  <path id="path10" d="m490.95 489.81h74.191"/>
  <path id="path12" d="m2.6063 489.81h73.215"/>
  <path id="path14" d="m38.237 514.95-37.095 20.501 40.756 20.5"/>
  <path id="path16" d="m530.73 424.89 37.34 20.5-34.655 21.232"/>
  <path id="path18" d="m368.44 446.86h51.25"/>
  <path id="path20" d="m442.14 446.86h49.298"/>
  <path id="path22" d="m515.6 445.88h50.275"/>
  <path id="path24" d="m2.8503 534.96h48.566"/>
  <path id="path26" d="m74.601 534.96h50.274"/>
  <path id="path28" d="m149.04 534.96h49.543"/>
  <path id="path30" d="m247.15 450.76 3.172-6.833 3.173-6.102 4.149-4.148 4.149-4.149 6.345-2.197 5.613 0.488 7.322 2.197 6.833 1.464 5.613 8.298 4.393 4.637"/>
  <path id="path32" d="m297.91 444.42 2.929 5.369v6.101l-2.929 5.857-3.172 5.125-4.882 5.858-5.613 6.101-5.125 6.345-3.172 4.637-2.685 4.149-0.488 5.369"/>
  <path id="path34" d="m272.77 499.33v9.762l0.488 5.369v0.488"/>
  <path id="path36" d="m268.13 535.2h12.203"/>
 </g>
</svg>
