<?xml version="1.0" encoding="UTF-8"?>
<svg id="svg26" width="566.93" height="128.36" version="1.1" viewBox="0 0 566.93 128.36" xmlns="http://www.w3.org/2000/svg">
 <g id="g24" transform="translate(0 -406.55)" fill="none" stroke="#000" stroke-width="4mm">
  <path id="path6" d="m0 474.48h80.698"/>
  <path id="path8" d="m124.88 474.48h82.997"/>
  <path id="path10" d="m483.93 474.48h82.996"/>
  <path id="path12" d="m319.47 438.73 3.32-7.151 3.32-6.384 4.341-4.341 4.341-4.342 6.64-2.298 5.874 0.511 7.661 2.298 7.15 1.532 5.874 8.683 4.597 4.852"/>
  <path id="path14" d="m372.59 432.09 3.064 5.618v6.385l-3.064 6.128-3.32 5.363-5.108 6.129-5.873 6.385-5.363 6.639-3.32 4.852-2.809 4.342-0.511 5.618"/>
  <path id="path16" d="m346.29 489.55v10.215l0.511 5.618v0.511"/>
  <path id="path18" d="m341.43 527.35h13.535"/>
  <path id="path20" d="m292.91 514.07-52.351-39.583 52.351-39.583"/>
  <path id="path22" d="m396.6 513.04 52.351-39.583-52.351-39.582"/>
 </g>
</svg>
