<?xml version="1.0" encoding="UTF-8" standalone="no"?>
<svg
   width="566.92902"
   height="128.35928"
   viewBox="0 0 566.929 128.35929"
   version="1.1"
   id="svg26"
   sodipodi:docname="RECDEF02.hpgl.svg"
   inkscape:version="1.1.2 (0a00cf5339, 2022-02-04)"
   xmlns:inkscape="http://www.inkscape.org/namespaces/inkscape"
   xmlns:sodipodi="http://sodipodi.sourceforge.net/DTD/sodipodi-0.dtd"
   xmlns="http://www.w3.org/2000/svg"
   xmlns:svg="http://www.w3.org/2000/svg">
  <defs
     id="defs30" />
  <sodipodi:namedview
     id="namedview28"
     pagecolor="#ffffff"
     bordercolor="#666666"
     borderopacity="1.0"
     inkscape:pageshadow="2"
     inkscape:pageopacity="0.0"
     inkscape:pagecheckerboard="0"
     showgrid="false"
     inkscape:zoom="2.3389172"
     inkscape:cx="283.4645"
     inkscape:cy="-349.94826"
     inkscape:window-width="1495"
     inkscape:window-height="970"
     inkscape:window-x="0"
     inkscape:window-y="32"
     inkscape:window-maximized="0"
     inkscape:current-layer="svg26" />
  <g
     id="g2"
     transform="translate(0,-406.54577)" />
  <g
     style="fill:none;stroke:#000000;stroke-width:1mm"
     id="g4"
     transform="translate(0,-406.54577)" />
  <g
     style="fill:none;stroke:#000000;stroke-width:4mm"
     id="g24"
     transform="translate(0,-406.54577)">
    <path
       d="M 0,474.484 H 80.698"
       id="path6" />
    <path
       d="m 124.877,474.484 h 82.997"
       id="path8" />
    <path
       d="m 483.933,474.484 h 82.996"
       id="path10" />
    <path
       d="m 319.472,438.732 3.32,-7.151 3.32,-6.384 4.341,-4.341 4.341,-4.342 6.64,-2.298 5.874,0.511 7.661,2.298 7.15,1.532 5.874,8.683 4.597,4.852"
       id="path12" />
    <path
       d="m 372.59,432.092 3.064,5.618 v 6.385 l -3.064,6.128 -3.32,5.363 -5.108,6.129 -5.873,6.385 -5.363,6.639 -3.32,4.852 -2.809,4.342 -0.511,5.618"
       id="path14" />
    <path
       d="m 346.286,489.551 v 5.874 4.341 l 0.511,5.618 v 0.511"
       id="path16" />
    <path
       d="m 341.434,527.346 h 13.535"
       id="path18" />
    <path
       d="m 292.913,514.067 -52.351,-39.583 52.351,-39.583"
       id="path20" />
    <path
       d="M 396.595,513.045 448.946,473.462 396.595,433.88"
       id="path22" />
  </g>
</svg>
