<?xml version="1.0" encoding="UTF-8"?>
<svg id="svg30" width="566.93" height="75.581" version="1.1" viewBox="0 0 566.93 75.581" xmlns="http://www.w3.org/2000/svg">
 <g id="g28" transform="translate(0 -164.06)" fill="none" stroke="#000" stroke-width="4mm">
  <path id="path6" d="m0 200.4h103.83"/>
  <path id="path8" d="m462.4 199.36h104.52"/>
  <path id="path10" d="m491.13 200.05 27.862 27.862 29.419-29.073"/>
  <path id="path12" d="m323.27 200.57h103.83"/>
  <path id="path14" d="m346.8 200.4 28.727 28.554 28.381-28.554"/>
  <path id="path16" d="m23.189 201.96 26.997 26.823 28.554-28.035"/>
  <path id="path18" d="m135.85 200.74h152.98"/>
  <path id="path20" d="m148.31 200.57v-4.153l1.212-5.365 2.595-5.711 3.808-4.845 5.018-3.808 5.884-2.768 5.711-1.904 5.365-0.346 5.71 1.211 5.192 1.731"/>
  <path id="path22" d="m188.8 174.61 4.846 2.942 3.98 3.288 3.807 5.538 2.942 6.576v12.114l0.865 5.018 1.212 3.98 2.596 5.019"/>
  <path id="path24" d="m209.05 219.09 5.191 4.326 2.077 1.731 2.942 1.731 3.461 1.557 5.365 1.038 6.057 0.346 6.749-1.384 5.018-2.25 5.711-3.634 4.154-4.153"/>
  <path id="path26" d="m255.78 218.4 3.288-5.884 1.903-5.538 0.865-2.942v-3.461"/>
 </g>
</svg>
