<?xml version="1.0" encoding="UTF-8" standalone="no"?>
<svg
   width="566.92902"
   height="75.581467"
   viewBox="0 0 566.929 75.581468"
   version="1.1"
   id="svg30"
   sodipodi:docname="TIDINF51.hpgl.svg"
   inkscape:version="1.1.2 (0a00cf5339, 2022-02-04)"
   xmlns:inkscape="http://www.inkscape.org/namespaces/inkscape"
   xmlns:sodipodi="http://sodipodi.sourceforge.net/DTD/sodipodi-0.dtd"
   xmlns="http://www.w3.org/2000/svg"
   xmlns:svg="http://www.w3.org/2000/svg">
  <defs
     id="defs34" />
  <sodipodi:namedview
     id="namedview32"
     pagecolor="#ffffff"
     bordercolor="#666666"
     borderopacity="1.0"
     inkscape:pageshadow="2"
     inkscape:pageopacity="0.0"
     inkscape:pagecheckerboard="0"
     showgrid="false"
     inkscape:zoom="2.3389172"
     inkscape:cx="283.4645"
     inkscape:cy="-134.89148"
     inkscape:window-width="1495"
     inkscape:window-height="970"
     inkscape:window-x="0"
     inkscape:window-y="32"
     inkscape:window-maximized="0"
     inkscape:current-layer="svg30" />
  <g
     id="g2"
     transform="translate(0,-164.0607)" />
  <g
     style="fill:none;stroke:#000000;stroke-width:1mm"
     id="g4"
     transform="translate(0,-164.0607)" />
  <g
     style="fill:none;stroke:#000000;stroke-width:4mm"
     id="g28"
     transform="translate(0,-164.0607)">
    <path
       d="M 0,200.398 H 103.833"
       id="path6" />
    <path
       d="M 462.404,199.36 H 566.929"
       id="path8" />
    <path
       d="m 491.131,200.052 27.862,27.862 29.419,-29.073"
       id="path10" />
    <path
       d="M 323.267,200.571 H 427.1"
       id="path12" />
    <path
       d="m 346.803,200.398 28.727,28.554 28.381,-28.554"
       id="path14" />
    <path
       d="M 23.189,201.956 50.186,228.779 78.74,200.744"
       id="path16" />
    <path
       d="M 135.848,200.744 H 288.829"
       id="path18" />
    <path
       d="m 148.308,200.571 v -4.153 l 1.212,-5.365 2.595,-5.711 3.808,-4.845 5.018,-3.808 5.884,-2.768 5.711,-1.904 5.365,-0.346 5.71,1.211 5.192,1.731"
       id="path20" />
    <path
       d="m 188.803,174.613 4.846,2.942 3.98,3.288 3.807,5.538 2.942,6.576 v 5.018 2.596 4.5 l 0.865,5.018 1.212,3.98 2.596,5.019"
       id="path22" />
    <path
       d="m 209.051,219.088 5.191,4.326 2.077,1.731 2.942,1.731 3.461,1.557 5.365,1.038 6.057,0.346 6.749,-1.384 5.018,-2.25 5.711,-3.634 4.154,-4.153"
       id="path24" />
    <path
       d="m 255.776,218.396 3.288,-5.884 1.903,-5.538 0.865,-2.942 v -3.461"
       id="path26" />
  </g>
</svg>
