<?xml version="1.0" encoding="UTF-8"?>
<svg id="svg32" width="577.58" height="572.25" version="1.1" viewBox="0 0 577.58 572.25" xmlns="http://www.w3.org/2000/svg">
 <g id="g30" transform="translate(5.3451 -1444.2)" fill="none" stroke="#000" stroke-width="4mm">
  <path id="path6" d="m282.31 1444.2v247.61"/>
  <path id="path8" d="m282.31 2011.1v-91.874"/>
  <path id="path10" d="m566.89 1838.6-170.3 170.3h-220.72l-175.91-173.66"/>
  <path id="path12" d="m394.35 1800.5-0.43 9.863-1.289 9.788-2.137 9.638-2.968 9.415-3.778 9.121-4.559 8.756-5.304 8.326-6.009 7.832-6.67 7.279-7.278 6.669"/>
  <path id="path14" d="m353.93 1887.2-7.832 6.01-8.327 5.304-8.756 4.559-9.121 3.778-9.415 2.968-9.638 2.137-9.788 1.289-9.862 0.43-9.863-0.43-9.788-1.289"/>
  <path id="path16" d="m261.54 1911.9-9.638-2.137-9.415-2.968-9.121-3.778-8.756-4.559-8.326-5.304-7.832-6.01-7.279-6.669-6.669-7.279-6.01-7.832-5.304-8.326"/>
  <path id="path18" d="m183.19 1857.1-4.559-8.756-3.778-9.121-2.968-9.415-2.137-9.638-1.289-9.788-0.43-9.863 0.43-9.862 1.289-9.788 2.137-9.638 2.968-9.415"/>
  <path id="path20" d="m174.85 1761.8 3.778-9.121 4.559-8.757 5.304-8.325 6.01-7.833 6.669-7.278 7.279-6.67 7.832-6.009 8.326-5.305 8.756-4.558 9.121-3.778"/>
  <path id="path22" d="m242.49 1694.2 9.415-2.969 9.638-2.136 9.788-1.289 9.863-0.43 9.862 0.43 9.788 1.289 9.638 2.136 9.415 2.969 9.121 3.778 8.756 4.558"/>
  <path id="path24" d="m337.77 1702.5 8.326 5.305 7.833 6.009 7.278 6.67 6.67 7.278 6.009 7.832 5.304 8.326 4.559 8.757 3.778 9.121 2.968 9.415 2.137 9.638"/>
  <path id="path26" d="m392.63 1780.9 1.289 9.788 0.43 9.862-0.43 9.863"/>
  <path id="path28" d="m108.65 1616.8h355.17"/>
 </g>
</svg>
