<?xml version="1.0" encoding="UTF-8" standalone="no"?>
<svg
   width="577.58478"
   height="572.24707"
   viewBox="0 0 577.58476 572.24705"
   version="1.1"
   id="svg32"
   sodipodi:docname="ACHBRT07.hpgl.svg"
   inkscape:version="1.1.2 (0a00cf5339, 2022-02-04)"
   xmlns:inkscape="http://www.inkscape.org/namespaces/inkscape"
   xmlns:sodipodi="http://sodipodi.sourceforge.net/DTD/sodipodi-0.dtd"
   xmlns="http://www.w3.org/2000/svg"
   xmlns:svg="http://www.w3.org/2000/svg">
  <defs
     id="defs36" />
  <sodipodi:namedview
     id="namedview34"
     pagecolor="#ffffff"
     bordercolor="#666666"
     borderopacity="1.0"
     inkscape:pageshadow="2"
     inkscape:pageopacity="0.0"
     inkscape:pagecheckerboard="0"
     showgrid="false"
     inkscape:zoom="1.2682364"
     inkscape:cx="288.58973"
     inkscape:cy="-1161.0611"
     inkscape:window-width="1495"
     inkscape:window-height="970"
     inkscape:window-x="0"
     inkscape:window-y="32"
     inkscape:window-maximized="0"
     inkscape:current-layer="svg32" />
  <g
     id="g2"
     transform="translate(5.3450592,-1444.213)" />
  <g
     style="fill:none;stroke:#000000;stroke-width:1mm"
     id="g4"
     transform="translate(5.3450592,-1444.213)" />
  <g
     style="fill:none;stroke:#000000;stroke-width:4mm"
     id="g30"
     transform="translate(5.3450592,-1444.213)">
    <path
       d="m 282.30963,1444.213 v 247.611"
       id="path6" />
    <path
       d="m 282.30963,2011.142 v -91.874"
       id="path8" />
    <path
       d="m 566.89463,1838.598 -170.303,170.303 h -220.721 L -0.03437497,1835.237"
       id="path10" />
    <path
       d="m 394.35063,1800.504 -0.43,9.863 -1.289,9.788 -2.137,9.638 -2.968,9.415 -3.778,9.121 -4.559,8.756 -5.304,8.326 -6.009,7.832 -6.67,7.279 -7.278,6.669"
       id="path12" />
    <path
       d="m 353.92863,1887.191 -7.832,6.01 -8.327,5.304 -8.756,4.559 -9.121,3.778 -9.415,2.968 -9.638,2.137 -9.788,1.289 -9.862,0.43 -9.863,-0.43 -9.788,-1.289"
       id="path14" />
    <path
       d="m 261.53863,1911.947 -9.638,-2.137 -9.415,-2.968 -9.121,-3.778 -8.756,-4.559 -8.326,-5.304 -7.832,-6.01 -7.279,-6.669 -6.669,-7.279 -6.01,-7.832 -5.304,-8.326"
       id="path16" />
    <path
       d="m 183.18863,1857.085 -4.559,-8.756 -3.778,-9.121 -2.968,-9.415 -2.137,-9.638 -1.289,-9.788 -0.43,-9.863 0.43,-9.862 1.289,-9.788 2.137,-9.638 2.968,-9.415"
       id="path18" />
    <path
       d="m 174.85163,1761.801 3.778,-9.121 4.559,-8.757 5.304,-8.325 6.01,-7.833 6.669,-7.278 7.279,-6.67 7.832,-6.009 8.326,-5.305 8.756,-4.558 9.121,-3.778"
       id="path20" />
    <path
       d="m 242.48563,1694.167 9.415,-2.969 9.638,-2.136 9.788,-1.289 9.863,-0.43 9.862,0.43 9.788,1.289 9.638,2.136 9.415,2.969 9.121,3.778 8.756,4.558"
       id="path22" />
    <path
       d="m 337.76963,1702.503 8.326,5.305 7.833,6.009 7.278,6.67 6.67,7.278 6.009,7.832 5.304,8.326 4.559,8.757 3.778,9.121 2.968,9.415 2.137,9.638"
       id="path24" />
    <path
       d="m 392.63163,1780.854 1.289,9.788 0.43,9.862 -0.43,9.863"
       id="path26" />
    <path
       d="m 108.64563,1616.757 h 355.171"
       id="path28" />
  </g>
</svg>
