<?xml version="1.0" encoding="UTF-8" standalone="no"?>
<svg
   width="582.06152"
   height="582.06152"
   viewBox="0 0 582.06151 582.06151"
   version="1.1"
   id="svg28"
   sodipodi:docname="AIRARE02.hpgl.svg"
   inkscape:version="1.1.2 (0a00cf5339, 2022-02-04)"
   xmlns:inkscape="http://www.inkscape.org/namespaces/inkscape"
   xmlns:sodipodi="http://sodipodi.sourceforge.net/DTD/sodipodi-0.dtd"
   xmlns="http://www.w3.org/2000/svg"
   xmlns:svg="http://www.w3.org/2000/svg">
  <defs
     id="defs32" />
  <sodipodi:namedview
     id="namedview30"
     pagecolor="#ffffff"
     bordercolor="#666666"
     borderopacity="1.0"
     inkscape:pageshadow="2"
     inkscape:pageopacity="0.0"
     inkscape:pagecheckerboard="0"
     showgrid="false"
     inkscape:zoom="1.2682364"
     inkscape:cx="290.95522"
     inkscape:cy="-526.32143"
     inkscape:window-width="1495"
     inkscape:window-height="970"
     inkscape:window-x="0"
     inkscape:window-y="32"
     inkscape:window-maximized="0"
     inkscape:current-layer="svg28" />
  <g
     id="g2"
     transform="translate(7.5662612,-810.06575)" />
  <g
     style="fill:none;stroke:#000000;stroke-width:1mm"
     id="g4"
     transform="translate(7.5662612,-810.06575)" />
  <g
     style="fill:none;stroke:#000000;stroke-width:4mm"
     id="g26"
     transform="translate(7.5662612,-810.06575)">
    <path
       d="m 566.92899,1101.096 -1.079,24.706 -3.227,24.517 -5.353,24.143 -7.436,23.585 -9.463,22.847 -11.419,21.934 -13.287,20.857 -15.054,19.619 -16.707,18.232 -18.232,16.707"
       id="path6" />
    <path
       d="m 465.67199,1318.243 -19.619,15.054 -20.856,13.287 -21.935,11.418 -22.847,9.464 -23.585,7.436 -24.142,5.352 -24.518,3.228 -24.706,1.079 -24.705,-1.079 -24.518,-3.228"
       id="path8" />
    <path
       d="m 234.24099,1380.254 -24.143,-5.352 -23.584,-7.436 -22.847,-9.464 -21.935,-11.418 -20.856,-13.287 -19.619,-15.054 -18.232003,-16.707 -16.707,-18.232 -15.054,-19.619 -13.287,-20.857"
       id="path10" />
    <path
       d="m 37.976987,1242.828 -11.419,-21.934 -9.463,-22.847 -7.4360003,-23.585 -5.353,-24.143 -3.228,-24.517 L -1.3344028e-5,1101.096 1.0779867,1076.391 l 3.228,-24.518 5.353,-24.143 7.4360003,-23.584"
       id="path12" />
    <path
       d="m 17.094987,1004.146 9.463,-22.847 11.419,-21.935 13.287,-20.856 15.054,-19.619 16.707,-18.233 18.232003,-16.706 19.619,-15.054 20.856,-13.287 21.935,-11.419 22.847,-9.463"
       id="path14" />
    <path
       d="m 186.51399,834.727 23.584,-7.437 24.143,-5.352 24.518,-3.228 24.705,-1.078 24.706,1.078 24.517,3.228 24.143,5.352 23.585,7.437 22.847,9.463 21.935,11.419"
       id="path16" />
    <path
       d="m 425.19699,855.609 20.856,13.287 19.619,15.054 18.232,16.706 16.707,18.233 15.054,19.619 13.287,20.856 11.419,21.935 9.463,22.847 7.436,23.584 5.353,24.143"
       id="path18" />
    <path
       d="m 562.62299,1051.873 3.227,24.518 1.079,24.705 v 0 l -1.079,24.706"
       id="path20" />
    <path
       d="m 193.72399,1264.907 h 168.085 l -49.143,-56.265 v -71.222 h 187.314 l -173.07,-116.093 v -86.891 l -42.021,-45.582 -50.568,45.582 v 86.891 L 59.825987,1133.146"
       id="path22" />
    <path
       d="m 59.825987,1133.146 177.344003,1.425 v 78.344 l -43.446,51.992"
       id="path24" />
  </g>
</svg>
