<?xml version="1.0" encoding="UTF-8"?>
<svg id="svg1256" width="439.27" height="575.77" version="1.1" viewBox="0 0 439.27 575.77" xmlns="http://www.w3.org/2000/svg">
 <g id="g1254" transform="translate(7.5591 -860.82)" fill="none" stroke="#000" stroke-width="4mm">
  <path id="path6" d="m94.041 1337.8h3.458"/>
  <path id="path8" d="m93.26 1337.8h5.02"/>
  <path id="path10" d="m92.687 1337.9h6.166"/>
  <path id="path12" d="m92.113 1338h7.314"/>
  <path id="path14" d="m91.607 1338.1h8.326"/>
  <path id="path16" d="m91.267 1338.1h9.006"/>
  <path id="path18" d="m90.926 1338.2h9.688"/>
  <path id="path20" d="m90.586 1338.3h10.368"/>
  <path id="path22" d="m90.245 1338.4h11.05"/>
  <path id="path24" d="m89.905 1338.4h11.73"/>
  <path id="path26" d="m89.608 1338.5h12.323"/>
  <path id="path28" d="m89.369 1338.6h12.802"/>
  <path id="path30" d="m89.13 1338.7h13.28"/>
  <path id="path32" d="m88.89 1338.7h13.76"/>
  <path id="path34" d="m88.651 1338.8h14.238"/>
  <path id="path36" d="m88.411 1338.9h14.718"/>
  <path id="path38" d="m88.172 1339h15.196"/>
  <path id="path40" d="m87.932 1339h15.675"/>
  <path id="path42" d="m87.71 1339.1h16.119"/>
  <path id="path44" d="m87.528 1339.2h16.484"/>
  <path id="path46" d="m87.346 1339.3h16.848"/>
  <path id="path48" d="m87.164 1339.3h17.212"/>
  <path id="path50" d="m86.981 1339.4h17.577"/>
  <path id="path52" d="m86.799 1339.5h17.942"/>
  <path id="path54" d="m86.617 1339.6h18.306"/>
  <path id="path56" d="m86.435 1339.6h18.67"/>
  <path id="path58" d="m86.252 1339.7h19.035"/>
  <path id="path60" d="m86.07 1339.8h19.4"/>
  <path id="path62" d="m85.888 1339.9h19.764"/>
  <path id="path64" d="m85.741 1339.9h20.057"/>
  <path id="path66" d="m85.596 1340h20.348"/>
  <path id="path68" d="m85.451 1340.1h20.638"/>
  <path id="path70" d="m85.306 1340.2h20.928"/>
  <path id="path72" d="m85.161 1340.2h21.218"/>
  <path id="path74" d="m85.016 1340.3h21.508"/>
  <path id="path76" d="m84.871 1340.4h21.798"/>
  <path id="path78" d="m84.726 1340.5h22.088"/>
  <path id="path80" d="m84.581 1340.6h22.378"/>
  <path id="path82" d="m84.436 1340.6h22.668"/>
  <path id="path84" d="m84.291 1340.7h22.958"/>
  <path id="path86" d="m84.146 1340.8h23.248"/>
  <path id="path88" d="m84.014 1340.9h23.512"/>
  <path id="path90" d="m83.895 1340.9h23.75"/>
  <path id="path92" d="m83.777 1341h23.986"/>
  <path id="path94" d="m83.658 1341.1h24.224"/>
  <path id="path96" d="m83.54 1341.2h24.46"/>
  <path id="path98" d="m83.421 1341.2h24.698"/>
  <path id="path100" d="m83.303 1341.3h24.934"/>
  <path id="path102" d="m83.184 1341.4h25.172"/>
  <path id="path104" d="m83.066 1341.5h25.408"/>
  <path id="path106" d="m82.947 1341.5h25.646"/>
  <path id="path108" d="m82.829 1341.6h25.882"/>
  <path id="path110" d="m82.71 1341.7h26.12"/>
  <path id="path112" d="m82.592 1341.8h26.356"/>
  <path id="path114" d="m82.473 1341.8h26.594"/>
  <path id="path116" d="m82.355 1341.9h26.83"/>
  <path id="path118" d="m82.255 1342h27.03"/>
  <path id="path120" d="m82.157 1342.1h27.226"/>
  <path id="path122" d="m82.058 1342.1h27.424"/>
  <path id="path124" d="m81.96 1342.2h27.62"/>
  <path id="path126" d="m81.861 1342.3h27.817"/>
  <path id="path128" d="m81.763 1342.4h28.014"/>
  <path id="path130" d="m81.665 1342.4h28.21"/>
  <path id="path132" d="m81.566 1342.5h28.408"/>
  <path id="path134" d="m81.468 1342.6h28.604"/>
  <path id="path136" d="m81.37 1342.7h28.8"/>
  <path id="path138" d="m81.271 1342.7h28.998"/>
  <path id="path140" d="m81.173 1342.8h29.194"/>
  <path id="path142" d="m81.074 1342.9h29.391"/>
  <path id="path144" d="m80.976 1343h29.588"/>
  <path id="path146" d="m80.878 1343h29.784"/>
  <path id="path148" d="m80.779 1343.1h29.982"/>
  <path id="path150" d="m80.688 1343.2h30.163"/>
  <path id="path152" d="m80.606 1343.3h30.328"/>
  <path id="path154" d="m80.524 1343.3h30.492"/>
  <path id="path156" d="m80.441 1343.4h30.658"/>
  <path id="path158" d="m80.359 1343.5h30.822"/>
  <path id="path160" d="m80.277 1343.6h30.986"/>
  <path id="path162" d="m80.194 1343.6h31.152"/>
  <path id="path164" d="m80.112 1343.7h31.316"/>
  <path id="path166" d="m80.029 1343.8h31.481"/>
  <path id="path168" d="m79.947 1343.9h31.646"/>
  <path id="path170" d="m79.865 1343.9h31.81"/>
  <path id="path172" d="m79.782 1344h31.976"/>
  <path id="path174" d="m79.7 1344.1h32.14"/>
  <path id="path176" d="m79.617 1344.2h32.305"/>
  <path id="path178" d="m79.535 1344.2h32.47"/>
  <path id="path180" d="m79.453 1344.3h32.634"/>
  <path id="path182" d="m79.37 1344.4h32.799"/>
  <path id="path184" d="m79.288 1344.5h32.964"/>
  <path id="path186" d="m79.208 1344.6h33.124"/>
  <path id="path188" d="m79.139 1344.6h33.262"/>
  <path id="path190" d="m79.07 1344.7h33.4"/>
  <path id="path192" d="m79.001 1344.8h33.538"/>
  <path id="path194" d="m78.932 1344.9h33.676"/>
  <path id="path196" d="m78.862 1344.9h33.815"/>
  <path id="path198" d="m78.793 1345h33.954"/>
  <path id="path200" d="m78.724 1345.1h34.092"/>
  <path id="path202" d="m78.655 1345.2h34.23"/>
  <path id="path204" d="m78.586 1345.2h34.368"/>
  <path id="path206" d="m78.517 1345.3h34.506"/>
  <path id="path208" d="m78.447 1345.4h34.645"/>
  <path id="path210" d="m78.378 1345.5h34.784"/>
  <path id="path212" d="m78.309 1345.5h34.922"/>
  <path id="path214" d="m78.24 1345.6h35.06"/>
  <path id="path216" d="m78.171 1345.7h35.198"/>
  <path id="path218" d="m78.101 1345.8h35.337"/>
  <path id="path220" d="m78.032 1345.8h35.476"/>
  <path id="path222" d="m77.963 1345.9h35.614"/>
  <path id="path224" d="m77.894 1346h35.752"/>
  <path id="path226" d="m77.828 1346.1h35.884"/>
  <path id="path228" d="m77.77 1346.1h36"/>
  <path id="path230" d="m77.712 1346.2h36.116"/>
  <path id="path232" d="m77.654 1346.3h36.232"/>
  <path id="path234" d="m77.596 1346.4h36.348"/>
  <path id="path236" d="m77.538 1346.4h36.464"/>
  <path id="path238" d="m77.48 1346.5h36.58"/>
  <path id="path240" d="m77.422 1346.6h36.696"/>
  <path id="path242" d="m77.364 1346.7h36.811"/>
  <path id="path244" d="m77.306 1346.7h36.927"/>
  <path id="path246" d="m77.248 1346.8h37.043"/>
  <path id="path248" d="m77.191 1346.9h37.158"/>
  <path id="path250" d="m77.133 1347h37.274"/>
  <path id="path252" d="m77.075 1347h37.39"/>
  <path id="path254" d="m77.017 1347.1h37.506"/>
  <path id="path256" d="m76.959 1347.2h37.622"/>
  <path id="path258" d="m76.901 1347.3h37.738"/>
  <path id="path260" d="m76.843 1347.3h37.854"/>
  <path id="path262" d="m76.785 1347.4h37.97"/>
  <path id="path264" d="m76.727 1347.5h38.086"/>
  <path id="path266" d="m76.669 1347.6h38.202"/>
  <path id="path268" d="m76.611 1347.6h38.318"/>
  <path id="path270" d="m76.561 1347.7h38.417"/>
  <path id="path272" d="m76.513 1347.8h38.514"/>
  <path id="path274" d="m76.465 1347.9h38.61"/>
  <path id="path276" d="m76.417 1347.9h38.706"/>
  <path id="path278" d="m76.369 1348h38.802"/>
  <path id="path280" d="m76.321 1348.1h38.898"/>
  <path id="path282" d="m76.273 1348.2h38.994"/>
  <path id="path284" d="m76.225 1348.2h39.09"/>
  <path id="path286" d="m76.177 1348.3h39.186"/>
  <path id="path288" d="m76.128 1348.4h39.283"/>
  <path id="path290" d="m76.08 1348.5h39.379"/>
  <path id="path292" d="m76.032 1348.6h39.475"/>
  <path id="path294" d="m75.984 1348.6h39.572"/>
  <path id="path296" d="m75.936 1348.7h39.668"/>
  <path id="path298" d="m75.888 1348.8h39.764"/>
  <path id="path300" d="m75.84 1348.9h39.86"/>
  <path id="path302" d="m75.792 1348.9h39.956"/>
  <path id="path304" d="m75.744 1349h40.052"/>
  <path id="path306" d="m75.696 1349.1h40.148"/>
  <path id="path308" d="m75.648 1349.2h40.244"/>
  <path id="path310" d="m75.599 1349.2h40.341"/>
  <path id="path312" d="m75.551 1349.3h40.437"/>
  <path id="path314" d="m75.503 1349.4h40.534"/>
  <path id="path316" d="m75.464 1349.5h40.612"/>
  <path id="path318" d="m75.425 1349.5h40.69"/>
  <path id="path320" d="m75.385 1349.6h40.769"/>
  <path id="path322" d="m75.346 1349.7h40.848"/>
  <path id="path324" d="m75.307 1349.8h40.926"/>
  <path id="path326" d="m75.267 1349.8h41.005"/>
  <path id="path328" d="m75.228 1349.9h41.084"/>
  <path id="path330" d="m75.189 1350h41.162"/>
  <path id="path332" d="m75.15 1350.1h41.24"/>
  <path id="path334" d="m75.11 1350.1h41.32"/>
  <path id="path336" d="m75.071 1350.2h41.398"/>
  <path id="path338" d="m75.032 1350.3h41.476"/>
  <path id="path340" d="m74.992 1350.4h41.555"/>
  <path id="path342" d="m74.953 1350.4h41.634"/>
  <path id="path344" d="m74.914 1350.5h41.712"/>
  <path id="path346" d="m74.875 1350.6h41.79"/>
  <path id="path348" d="m74.835 1350.7h41.87"/>
  <path id="path350" d="m74.796 1350.7h41.948"/>
  <path id="path352" d="m74.757 1350.8h42.026"/>
  <path id="path354" d="m74.717 1350.9h42.105"/>
  <path id="path356" d="m74.678 1351h42.184"/>
  <path id="path358" d="m74.639 1351h42.262"/>
  <path id="path360" d="m74.599 1351.1h42.341"/>
  <path id="path362" d="m74.56 1351.2h42.42"/>
  <path id="path364" d="m74.529 1351.3h42.482"/>
  <path id="path366" d="m74.498 1351.3h42.544"/>
  <path id="path368" d="m74.466 1351.4h42.607"/>
  <path id="path370" d="m74.435 1351.5h42.67"/>
  <path id="path372" d="m74.404 1351.6h42.732"/>
  <path id="path374" d="m74.373 1351.6h42.794"/>
  <path id="path376" d="m74.341 1351.7h42.857"/>
  <path id="path378" d="m74.31 1351.8h42.92"/>
  <path id="path380" d="m74.279 1351.9h42.982"/>
  <path id="path382" d="m74.248 1351.9h43.044"/>
  <path id="path384" d="m74.216 1352h43.108"/>
  <path id="path386" d="m74.185 1352.1h43.17"/>
  <path id="path388" d="m74.154 1352.2h43.232"/>
  <path id="path390" d="m74.122 1352.3h43.295"/>
  <path id="path392" d="m74.091 1352.3h43.358"/>
  <path id="path394" d="m74.06 1352.4h43.42"/>
  <path id="path396" d="m74.029 1352.5h43.482"/>
  <path id="path398" d="m73.997 1352.6h43.545"/>
  <path id="path400" d="m73.966 1352.6h43.608"/>
  <path id="path402" d="m73.935 1352.7h43.67"/>
  <path id="path404" d="m73.904 1352.8h43.732"/>
  <path id="path406" d="m73.872 1352.9h43.795"/>
  <path id="path408" d="m73.841 1352.9h43.858"/>
  <path id="path410" d="m73.81 1353h43.92"/>
  <path id="path412" d="m73.779 1353.1h43.982"/>
  <path id="path414" d="m73.755 1353.2h44.03"/>
  <path id="path416" d="m73.731 1353.2h44.078"/>
  <path id="path418" d="m73.707 1353.3h44.125"/>
  <path id="path420" d="m73.684 1353.4h44.172"/>
  <path id="path422" d="m73.66 1353.5h44.22"/>
  <path id="path424" d="m73.636 1353.5h44.268"/>
  <path id="path426" d="m73.612 1353.6h44.316"/>
  <path id="path428" d="m73.588 1353.7h44.364"/>
  <path id="path430" d="m73.564 1353.8h44.411"/>
  <path id="path432" d="m73.541 1353.8h44.458"/>
  <path id="path434" d="m73.517 1353.9h44.506"/>
  <path id="path436" d="m73.493 1354h44.554"/>
  <path id="path438" d="m73.469 1354.1h44.602"/>
  <path id="path440" d="m73.445 1354.1h44.649"/>
  <path id="path442" d="m73.422 1354.2h44.696"/>
  <path id="path444" d="m73.398 1354.3h44.744"/>
  <path id="path446" d="m73.374 1354.4h44.792"/>
  <path id="path448" d="m73.35 1354.4h44.84"/>
  <path id="path450" d="m73.326 1354.5h44.887"/>
  <path id="path452" d="m73.303 1354.6h44.934"/>
  <path id="path454" d="m73.279 1354.7h44.982"/>
  <path id="path456" d="m73.255 1354.7h45.03"/>
  <path id="path458" d="m73.231 1354.8h45.078"/>
  <path id="path460" d="m73.207 1354.9h45.125"/>
  <path id="path462" d="m73.184 1355h45.172"/>
  <path id="path464" d="m73.162 1355h45.216"/>
  <path id="path466" d="m73.145 1355.1h45.25"/>
  <path id="path468" d="m73.128 1355.2h45.284"/>
  <path id="path470" d="m73.111 1355.3h45.318"/>
  <path id="path472" d="m73.095 1355.3h45.35"/>
  <path id="path474" d="m73.078 1355.4h45.384"/>
  <path id="path476" d="m73.061 1355.5h45.418"/>
  <path id="path478" d="m73.044 1355.6h45.451"/>
  <path id="path480" d="m73.028 1355.6h45.484"/>
  <path id="path482" d="m73.011 1355.7h45.518"/>
  <path id="path484" d="m72.994 1355.8h45.552"/>
  <path id="path486" d="m72.977 1355.9h45.585"/>
  <path id="path488" d="m72.961 1356h45.618"/>
  <path id="path490" d="m72.944 1356h45.652"/>
  <path id="path492" d="m72.927 1356.1h45.686"/>
  <path id="path494" d="m72.91 1356.2h45.719"/>
  <path id="path496" d="m72.894 1356.3h45.752"/>
  <path id="path498" d="m72.877 1356.3h45.786"/>
  <path id="path500" d="m72.86 1356.4h45.82"/>
  <path id="path502" d="m72.844 1356.5h45.852"/>
  <path id="path504" d="m72.827 1356.6h45.886"/>
  <path id="path506" d="m72.81 1356.6h45.92"/>
  <path id="path508" d="m72.793 1356.7h45.953"/>
  <path id="path510" d="m72.777 1356.8h45.986"/>
  <path id="path512" d="m72.76 1356.9h46.02"/>
  <path id="path514" d="m72.743 1356.9h46.054"/>
  <path id="path516" d="m72.726 1357h46.087"/>
  <path id="path518" d="m72.715 1357.1h46.109"/>
  <path id="path520" d="m72.705 1357.2h46.129"/>
  <path id="path522" d="m72.695 1357.2h46.149"/>
  <path id="path524" d="m72.685 1357.3h46.169"/>
  <path id="path526" d="m72.676 1357.4h46.188"/>
  <path id="path528" d="m72.666 1357.5h46.208"/>
  <path id="path530" d="m72.656 1357.5h46.228"/>
  <path id="path532" d="m72.646 1357.6h46.248"/>
  <path id="path534" d="m72.636 1357.7h46.268"/>
  <path id="path536" d="m72.626 1357.8h46.288"/>
  <path id="path538" d="m72.616 1357.8h46.308"/>
  <path id="path540" d="m72.606 1357.9h46.328"/>
  <path id="path542" d="m72.596 1358h46.348"/>
  <path id="path544" d="m72.586 1358.1h46.368"/>
  <path id="path546" d="m72.576 1358.1h46.388"/>
  <path id="path548" d="m72.566 1358.2h46.408"/>
  <path id="path550" d="m72.556 1358.3h46.428"/>
  <path id="path552" d="m72.546 1358.4h46.447"/>
  <path id="path554" d="m72.536 1358.4h46.467"/>
  <path id="path556" d="m72.526 1358.5h46.487"/>
  <path id="path558" d="m72.517 1358.6h46.506"/>
  <path id="path560" d="m72.507 1358.7h46.526"/>
  <path id="path562" d="m72.497 1358.7h46.546"/>
  <path id="path564" d="m72.487 1358.8h46.566"/>
  <path id="path566" d="m72.477 1358.9h46.586"/>
  <path id="path568" d="m72.467 1359h46.606"/>
  <path id="path570" d="m72.457 1359h46.626"/>
  <path id="path572" d="m72.454 1359.1h46.632"/>
  <path id="path574" d="m72.45 1359.2h46.639"/>
  <path id="path576" d="m72.447 1359.3h46.646"/>
  <path id="path578" d="m72.444 1359.3h46.652"/>
  <path id="path580" d="m72.441 1359.4h46.658"/>
  <path id="path582" d="m72.437 1359.5h46.666"/>
  <path id="path584" d="m72.434 1359.6h46.672"/>
  <path id="path586" d="m72.431 1359.6h46.678"/>
  <path id="path588" d="m72.427 1359.7h46.685"/>
  <path id="path590" d="m72.424 1359.8h46.692"/>
  <path id="path592" d="m72.421 1359.9h46.698"/>
  <path id="path594" d="m72.417 1360h46.705"/>
  <path id="path596" d="m72.414 1360h46.712"/>
  <path id="path598" d="m72.411 1360.1h46.718"/>
  <path id="path600" d="m72.408 1360.2h46.724"/>
  <path id="path602" d="m72.404 1360.3h46.732"/>
  <path id="path604" d="m72.401 1360.3h46.738"/>
  <path id="path606" d="m72.398 1360.4h46.744"/>
  <path id="path608" d="m72.394 1360.5h46.751"/>
  <path id="path610" d="m72.391 1360.6h46.758"/>
  <path id="path612" d="m72.388 1360.6h46.764"/>
  <path id="path614" d="m72.384 1360.7h46.771"/>
  <path id="path616" d="m72.381 1360.8h46.778"/>
  <path id="path618" d="m72.378 1360.9h46.784"/>
  <path id="path620" d="m72.375 1360.9h46.79"/>
  <path id="path622" d="m72.371 1361h46.797"/>
  <path id="path624" d="m72.368 1361.1h46.804"/>
  <path id="path626" d="m72.371 1361.2h46.797"/>
  <path id="path628" d="m72.375 1361.2h46.79"/>
  <path id="path630" d="m72.378 1361.3h46.784"/>
  <path id="path632" d="m72.381 1361.4h46.778"/>
  <path id="path634" d="m72.384 1361.5h46.771"/>
  <path id="path636" d="m72.388 1361.5h46.764"/>
  <path id="path638" d="m72.391 1361.6h46.758"/>
  <path id="path640" d="m72.394 1361.7h46.751"/>
  <path id="path642" d="m72.398 1361.8h46.744"/>
  <path id="path644" d="m72.401 1361.8h46.738"/>
  <path id="path646" d="m72.404 1361.9h46.732"/>
  <path id="path648" d="m72.408 1362h46.724"/>
  <path id="path650" d="m72.411 1362.1h46.718"/>
  <path id="path652" d="m72.414 1362.1h46.712"/>
  <path id="path654" d="m72.417 1362.2h46.705"/>
  <path id="path656" d="m72.421 1362.3h46.698"/>
  <path id="path658" d="m72.424 1362.4h46.692"/>
  <path id="path660" d="m72.427 1362.4h46.685"/>
  <path id="path662" d="m72.431 1362.5h46.678"/>
  <path id="path664" d="m72.434 1362.6h46.672"/>
  <path id="path666" d="m72.437 1362.7h46.666"/>
  <path id="path668" d="m72.441 1362.7h46.658"/>
  <path id="path670" d="m72.444 1362.8h46.652"/>
  <path id="path672" d="m72.447 1362.9h46.646"/>
  <path id="path674" d="m72.45 1363h46.639"/>
  <path id="path676" d="m72.454 1363h46.632"/>
  <path id="path678" d="m72.457 1363.1h46.626"/>
  <path id="path680" d="m72.467 1363.2h46.606"/>
  <path id="path682" d="m72.477 1363.3h46.586"/>
  <path id="path684" d="m72.487 1363.3h46.566"/>
  <path id="path686" d="m72.497 1363.4h46.546"/>
  <path id="path688" d="m72.507 1363.5h46.526"/>
  <path id="path690" d="m72.517 1363.6h46.506"/>
  <path id="path692" d="m72.526 1363.6h46.487"/>
  <path id="path694" d="m72.536 1363.7h46.467"/>
  <path id="path696" d="m72.546 1363.8h46.447"/>
  <path id="path698" d="m72.556 1363.9h46.428"/>
  <path id="path700" d="m72.566 1364h46.408"/>
  <path id="path702" d="m72.576 1364h46.388"/>
  <path id="path704" d="m72.586 1364.1h46.368"/>
  <path id="path706" d="m72.596 1364.2h46.348"/>
  <path id="path708" d="m72.606 1364.3h46.328"/>
  <path id="path710" d="m72.616 1364.3h46.308"/>
  <path id="path712" d="m72.626 1364.4h46.288"/>
  <path id="path714" d="m72.636 1364.5h46.268"/>
  <path id="path716" d="m72.646 1364.6h46.248"/>
  <path id="path718" d="m72.656 1364.6h46.228"/>
  <path id="path720" d="m72.666 1364.7h46.208"/>
  <path id="path722" d="m72.676 1364.8h46.188"/>
  <path id="path724" d="m72.685 1364.9h46.169"/>
  <path id="path726" d="m72.695 1364.9h46.149"/>
  <path id="path728" d="m72.705 1365h46.129"/>
  <path id="path730" d="m72.715 1365.1h46.109"/>
  <path id="path732" d="m72.726 1365.2h46.087"/>
  <path id="path734" d="m72.743 1365.2h46.054"/>
  <path id="path736" d="m72.76 1365.3h46.02"/>
  <path id="path738" d="m72.777 1365.4h45.986"/>
  <path id="path740" d="m72.793 1365.5h45.953"/>
  <path id="path742" d="m72.81 1365.5h45.92"/>
  <path id="path744" d="m72.827 1365.6h45.886"/>
  <path id="path746" d="m72.844 1365.7h45.852"/>
  <path id="path748" d="m72.86 1365.8h45.82"/>
  <path id="path750" d="m72.877 1365.8h45.786"/>
  <path id="path752" d="m72.894 1365.9h45.752"/>
  <path id="path754" d="m72.91 1366h45.719"/>
  <path id="path756" d="m72.927 1366.1h45.686"/>
  <path id="path758" d="m72.944 1366.1h45.652"/>
  <path id="path760" d="m72.961 1366.2h45.618"/>
  <path id="path762" d="m72.977 1366.3h45.585"/>
  <path id="path764" d="m72.994 1366.4h45.552"/>
  <path id="path766" d="m73.011 1366.4h45.518"/>
  <path id="path768" d="m73.028 1366.5h45.484"/>
  <path id="path770" d="m73.044 1366.6h45.451"/>
  <path id="path772" d="m73.061 1366.7h45.418"/>
  <path id="path774" d="m73.078 1366.7h45.384"/>
  <path id="path776" d="m73.095 1366.8h45.35"/>
  <path id="path778" d="m73.111 1366.9h45.318"/>
  <path id="path780" d="m73.128 1367h45.284"/>
  <path id="path782" d="m73.145 1367h45.25"/>
  <path id="path784" d="m73.162 1367.1h45.216"/>
  <path id="path786" d="m73.184 1367.2h45.172"/>
  <path id="path788" d="m73.207 1367.3h45.125"/>
  <path id="path790" d="m73.231 1367.3h45.078"/>
  <path id="path792" d="m73.255 1367.4h45.03"/>
  <path id="path794" d="m73.279 1367.5h44.982"/>
  <path id="path796" d="m73.303 1367.6h44.934"/>
  <path id="path798" d="m73.326 1367.7h44.887"/>
  <path id="path800" d="m73.35 1367.7h44.84"/>
  <path id="path802" d="m73.374 1367.8h44.792"/>
  <path id="path804" d="m73.398 1367.9h44.744"/>
  <path id="path806" d="m73.422 1368h44.696"/>
  <path id="path808" d="m73.445 1368h44.649"/>
  <path id="path810" d="m73.469 1368.1h44.602"/>
  <path id="path812" d="m73.493 1368.2h44.554"/>
  <path id="path814" d="m73.517 1368.3h44.506"/>
  <path id="path816" d="m73.541 1368.3h44.458"/>
  <path id="path818" d="m73.564 1368.4h44.411"/>
  <path id="path820" d="m73.588 1368.5h44.364"/>
  <path id="path822" d="m73.612 1368.6h44.316"/>
  <path id="path824" d="m73.636 1368.6h44.268"/>
  <path id="path826" d="m73.66 1368.7h44.22"/>
  <path id="path828" d="m73.684 1368.8h44.172"/>
  <path id="path830" d="m73.707 1368.9h44.125"/>
  <path id="path832" d="m73.731 1368.9h44.078"/>
  <path id="path834" d="m73.755 1369h44.03"/>
  <path id="path836" d="m73.779 1369.1h43.982"/>
  <path id="path838" d="m73.81 1369.2h43.92"/>
  <path id="path840" d="m73.841 1369.2h43.858"/>
  <path id="path842" d="m73.872 1369.3h43.795"/>
  <path id="path844" d="m73.904 1369.4h43.732"/>
  <path id="path846" d="m73.935 1369.5h43.67"/>
  <path id="path848" d="m73.966 1369.5h43.608"/>
  <path id="path850" d="m73.997 1369.6h43.545"/>
  <path id="path852" d="m74.029 1369.7h43.482"/>
  <path id="path854" d="m74.06 1369.8h43.42"/>
  <path id="path856" d="m74.091 1369.8h43.358"/>
  <path id="path858" d="m74.122 1369.9h43.295"/>
  <path id="path860" d="m74.154 1370h43.232"/>
  <path id="path862" d="m74.185 1370.1h43.17"/>
  <path id="path864" d="m74.216 1370.1h43.108"/>
  <path id="path866" d="m74.248 1370.2h43.044"/>
  <path id="path868" d="m74.279 1370.3h42.982"/>
  <path id="path870" d="m74.31 1370.4h42.92"/>
  <path id="path872" d="m74.341 1370.4h42.857"/>
  <path id="path874" d="m74.373 1370.5h42.794"/>
  <path id="path876" d="m74.404 1370.6h42.732"/>
  <path id="path878" d="m74.435 1370.7h42.67"/>
  <path id="path880" d="m74.466 1370.7h42.607"/>
  <path id="path882" d="m74.498 1370.8h42.544"/>
  <path id="path884" d="m74.529 1370.9h42.482"/>
  <path id="path886" d="m74.56 1371h42.42"/>
  <path id="path888" d="m74.599 1371h42.341"/>
  <path id="path890" d="m74.639 1371.1h42.262"/>
  <path id="path892" d="m74.678 1371.2h42.184"/>
  <path id="path894" d="m74.717 1371.3h42.105"/>
  <path id="path896" d="m74.757 1371.4h42.026"/>
  <path id="path898" d="m74.796 1371.4h41.948"/>
  <path id="path900" d="m74.835 1371.5h41.87"/>
  <path id="path902" d="m74.875 1371.6h41.79"/>
  <path id="path904" d="m74.914 1371.7h41.712"/>
  <path id="path906" d="m74.953 1371.7h41.634"/>
  <path id="path908" d="m74.992 1371.8h41.555"/>
  <path id="path910" d="m75.032 1371.9h41.476"/>
  <path id="path912" d="m75.071 1372h41.398"/>
  <path id="path914" d="m75.11 1372h41.32"/>
  <path id="path916" d="m75.15 1372.1h41.24"/>
  <path id="path918" d="m75.189 1372.2h41.162"/>
  <path id="path920" d="m75.228 1372.3h41.084"/>
  <path id="path922" d="m75.268 1372.3h41.004"/>
  <path id="path924" d="m75.307 1372.4h40.926"/>
  <path id="path926" d="m75.346 1372.5h40.848"/>
  <path id="path928" d="m75.385 1372.6h40.769"/>
  <path id="path930" d="m75.425 1372.6h40.69"/>
  <path id="path932" d="m75.464 1372.7h40.612"/>
  <path id="path934" d="m75.503 1372.8h40.534"/>
  <path id="path936" d="m75.551 1372.9h40.437"/>
  <path id="path938" d="m75.599 1372.9h40.341"/>
  <path id="path940" d="m75.648 1373h40.244"/>
  <path id="path942" d="m75.696 1373.1h40.148"/>
  <path id="path944" d="m75.744 1373.2h40.052"/>
  <path id="path946" d="m75.792 1373.2h39.956"/>
  <path id="path948" d="m75.84 1373.3h39.86"/>
  <path id="path950" d="m75.888 1373.4h39.764"/>
  <path id="path952" d="m75.936 1373.5h39.668"/>
  <path id="path954" d="m75.984 1373.5h39.572"/>
  <path id="path956" d="m76.032 1373.6h39.476"/>
  <path id="path958" d="m76.08 1373.7h39.379"/>
  <path id="path960" d="m76.128 1373.8h39.283"/>
  <path id="path962" d="m76.177 1373.8h39.186"/>
  <path id="path964" d="m76.225 1373.9h39.09"/>
  <path id="path966" d="m76.273 1374h38.994"/>
  <path id="path968" d="m76.321 1374.1h38.898"/>
  <path id="path970" d="m76.369 1374.1h38.802"/>
  <path id="path972" d="m76.417 1374.2h38.706"/>
  <path id="path974" d="m76.465 1374.3h38.61"/>
  <path id="path976" d="m76.513 1374.4h38.514"/>
  <path id="path978" d="m76.561 1374.4h38.417"/>
  <path id="path980" d="m76.611 1374.5h38.318"/>
  <path id="path982" d="m76.669 1374.6h38.202"/>
  <path id="path984" d="m76.727 1374.7h38.086"/>
  <path id="path986" d="m76.785 1374.7h37.97"/>
  <path id="path988" d="m76.843 1374.8h37.854"/>
  <path id="path990" d="m76.901 1374.9h37.738"/>
  <path id="path992" d="m76.959 1375h37.622"/>
  <path id="path994" d="m77.017 1375h37.506"/>
  <path id="path996" d="m77.075 1375.1h37.39"/>
  <path id="path998" d="m77.133 1375.2h37.274"/>
  <path id="path1000" d="m77.191 1375.3h37.158"/>
  <path id="path1002" d="m77.248 1375.4h37.043"/>
  <path id="path1004" d="m77.306 1375.4h36.927"/>
  <path id="path1006" d="m77.364 1375.5h36.811"/>
  <path id="path1008" d="m77.422 1375.6h36.696"/>
  <path id="path1010" d="m77.48 1375.7h36.58"/>
  <path id="path1012" d="m77.538 1375.7h36.464"/>
  <path id="path1014" d="m77.596 1375.8h36.348"/>
  <path id="path1016" d="m77.654 1375.9h36.232"/>
  <path id="path1018" d="m77.712 1376h36.116"/>
  <path id="path1020" d="m77.77 1376h36"/>
  <path id="path1022" d="m77.828 1376.1h35.884"/>
  <path id="path1024" d="m77.894 1376.2h35.752"/>
  <path id="path1026" d="m77.963 1376.3h35.614"/>
  <path id="path1028" d="m78.032 1376.3h35.476"/>
  <path id="path1030" d="m78.101 1376.4h35.337"/>
  <path id="path1032" d="m78.171 1376.5h35.198"/>
  <path id="path1034" d="m78.24 1376.6h35.06"/>
  <path id="path1036" d="m78.309 1376.6h34.922"/>
  <path id="path1038" d="m78.378 1376.7h34.784"/>
  <path id="path1040" d="m78.447 1376.8h34.645"/>
  <path id="path1042" d="m78.517 1376.9h34.506"/>
  <path id="path1044" d="m78.586 1376.9h34.368"/>
  <path id="path1046" d="m78.655 1377h34.23"/>
  <path id="path1048" d="m78.724 1377.1h34.092"/>
  <path id="path1050" d="m78.793 1377.2h33.954"/>
  <path id="path1052" d="m78.862 1377.2h33.815"/>
  <path id="path1054" d="m78.932 1377.3h33.676"/>
  <path id="path1056" d="m79.001 1377.4h33.538"/>
  <path id="path1058" d="m79.07 1377.5h33.4"/>
  <path id="path1060" d="m79.139 1377.5h33.262"/>
  <path id="path1062" d="m79.208 1377.6h33.124"/>
  <path id="path1064" d="m79.288 1377.7h32.964"/>
  <path id="path1066" d="m79.37 1377.8h32.799"/>
  <path id="path1068" d="m79.453 1377.8h32.634"/>
  <path id="path1070" d="m79.535 1377.9h32.47"/>
  <path id="path1072" d="m79.617 1378h32.305"/>
  <path id="path1074" d="m79.7 1378.1h32.14"/>
  <path id="path1076" d="m79.782 1378.1h31.976"/>
  <path id="path1078" d="m79.865 1378.2h31.81"/>
  <path id="path1080" d="m79.947 1378.3h31.646"/>
  <path id="path1082" d="m80.029 1378.4h31.481"/>
  <path id="path1084" d="m80.112 1378.4h31.316"/>
  <path id="path1086" d="m80.194 1378.5h31.152"/>
  <path id="path1088" d="m80.276 1378.6h30.987"/>
  <path id="path1090" d="m80.359 1378.7h30.822"/>
  <path id="path1092" d="m80.441 1378.7h30.658"/>
  <path id="path1094" d="m80.524 1378.8h30.492"/>
  <path id="path1096" d="m80.606 1378.9h30.328"/>
  <path id="path1098" d="m80.688 1379h30.163"/>
  <path id="path1100" d="m80.779 1379h29.982"/>
  <path id="path1102" d="m80.878 1379.1h29.784"/>
  <path id="path1104" d="m80.976 1379.2h29.588"/>
  <path id="path1106" d="m81.074 1379.3h29.391"/>
  <path id="path1108" d="m81.173 1379.4h29.194"/>
  <path id="path1110" d="m81.271 1379.4h28.998"/>
  <path id="path1112" d="m81.369 1379.5h28.801"/>
  <path id="path1114" d="m81.468 1379.6h28.604"/>
  <path id="path1116" d="m81.566 1379.7h28.408"/>
  <path id="path1118" d="m81.665 1379.7h28.21"/>
  <path id="path1120" d="m81.763 1379.8h28.014"/>
  <path id="path1122" d="m81.861 1379.9h27.817"/>
  <path id="path1124" d="m81.96 1380h27.62"/>
  <path id="path1126" d="m82.058 1380h27.424"/>
  <path id="path1128" d="m82.157 1380.1h27.226"/>
  <path id="path1130" d="m82.255 1380.2h27.03"/>
  <path id="path1132" d="m82.355 1380.3h26.83"/>
  <path id="path1134" d="m82.473 1380.3h26.594"/>
  <path id="path1136" d="m82.592 1380.4h26.356"/>
  <path id="path1138" d="m82.71 1380.5h26.12"/>
  <path id="path1140" d="m82.829 1380.6h25.882"/>
  <path id="path1142" d="m82.947 1380.6h25.646"/>
  <path id="path1144" d="m83.066 1380.7h25.408"/>
  <path id="path1146" d="m83.184 1380.8h25.172"/>
  <path id="path1148" d="m83.303 1380.9h24.934"/>
  <path id="path1150" d="m83.421 1380.9h24.698"/>
  <path id="path1152" d="m83.54 1381h24.46"/>
  <path id="path1154" d="m83.658 1381.1h24.224"/>
  <path id="path1156" d="m83.777 1381.2h23.986"/>
  <path id="path1158" d="m83.895 1381.2h23.75"/>
  <path id="path1160" d="m84.014 1381.3h23.512"/>
  <path id="path1162" d="m84.146 1381.4h23.248"/>
  <path id="path1164" d="m84.291 1381.5h22.958"/>
  <path id="path1166" d="m84.436 1381.5h22.668"/>
  <path id="path1168" d="m84.581 1381.6h22.378"/>
  <path id="path1170" d="m84.726 1381.7h22.088"/>
  <path id="path1172" d="m84.871 1381.8h21.798"/>
  <path id="path1174" d="m85.016 1381.8h21.508"/>
  <path id="path1176" d="m85.161 1381.9h21.218"/>
  <path id="path1178" d="m85.306 1382h20.928"/>
  <path id="path1180" d="m85.451 1382.1h20.638"/>
  <path id="path1182" d="m85.596 1382.1h20.348"/>
  <path id="path1184" d="m85.741 1382.2h20.058"/>
  <path id="path1186" d="m85.888 1382.3h19.764"/>
  <path id="path1188" d="m86.07 1382.4h19.4"/>
  <path id="path1190" d="m86.252 1382.4h19.035"/>
  <path id="path1192" d="m86.435 1382.5h18.67"/>
  <path id="path1194" d="m86.617 1382.6h18.306"/>
  <path id="path1196" d="m86.799 1382.7h17.942"/>
  <path id="path1198" d="m86.981 1382.7h17.577"/>
  <path id="path1200" d="m87.164 1382.8h17.212"/>
  <path id="path1202" d="m87.346 1382.9h16.848"/>
  <path id="path1204" d="m87.528 1383h16.484"/>
  <path id="path1206" d="m87.71 1383.1h16.119"/>
  <path id="path1208" d="m87.932 1383.1h15.675"/>
  <path id="path1210" d="m88.172 1383.2h15.196"/>
  <path id="path1212" d="m88.411 1383.3h14.718"/>
  <path id="path1214" d="m88.651 1383.4h14.238"/>
  <path id="path1216" d="m88.89 1383.4h13.76"/>
  <path id="path1218" d="m89.13 1383.5h13.28"/>
  <path id="path1220" d="m89.369 1383.6h12.802"/>
  <path id="path1222" d="m89.608 1383.7h12.323"/>
  <path id="path1224" d="m89.905 1383.7h11.73"/>
  <path id="path1226" d="m90.245 1383.8h11.05"/>
  <path id="path1228" d="m90.586 1383.9h10.368"/>
  <path id="path1230" d="m90.926 1384h9.688"/>
  <path id="path1232" d="m91.267 1384h9.006"/>
  <path id="path1234" d="m91.607 1384.1h8.326"/>
  <path id="path1236" d="m92.113 1384.2h7.314"/>
  <path id="path1238" d="m92.686 1384.3h6.167"/>
  <path id="path1240" d="m93.26 1384.3h5.02"/>
  <path id="path1242" d="m94.04 1384.4h3.46"/>
  <path id="path1244" d="m3.6725 1429h187.21l-97.382-566.93-93.607 565.42"/>
  <path id="path1246" d="m258.07 1048.6 9.814-21.137 9.814-18.873 25.666-25.666 19.628-6.794 17.362 1.509 22.647 6.794 21.137 4.53 17.363 25.666 13.588 14.343"/>
  <path id="path1248" d="m415.09 1028.9 9.059 16.608v18.873l-9.059 18.117-9.813 15.853-15.098 18.118-17.363 18.872-15.853 19.628-9.814 14.343-8.304 12.833-1.509 16.608"/>
  <path id="path1250" d="m337.34 1198.8v30.196l1.509 16.607v1.51"/>
  <path id="path1252" d="m324.5 1268.2h27.177"/>
 </g>
</svg>
