<?xml version="1.0" encoding="UTF-8" standalone="no"?>
<svg
   width="439.26959"
   height="575.76776"
   viewBox="0 0 439.2696 575.76774"
   version="1.1"
   id="svg1256"
   sodipodi:docname="AISDEF01.hpgl.svg"
   inkscape:version="1.1.2 (0a00cf5339, 2022-02-04)"
   xmlns:inkscape="http://www.inkscape.org/namespaces/inkscape"
   xmlns:sodipodi="http://sodipodi.sourceforge.net/DTD/sodipodi-0.dtd"
   xmlns="http://www.w3.org/2000/svg"
   xmlns:svg="http://www.w3.org/2000/svg">
  <defs
     id="defs1260" />
  <sodipodi:namedview
     id="namedview1258"
     pagecolor="#ffffff"
     bordercolor="#666666"
     borderopacity="1.0"
     inkscape:pageshadow="2"
     inkscape:pageopacity="0.0"
     inkscape:pagecheckerboard="0"
     showgrid="false"
     inkscape:zoom="1.2682364"
     inkscape:cx="219.99053"
     inkscape:cy="-577.5737"
     inkscape:window-width="1495"
     inkscape:window-height="970"
     inkscape:window-x="0"
     inkscape:window-y="32"
     inkscape:window-maximized="0"
     inkscape:current-layer="svg1256" />
  <g
     id="g2"
     transform="translate(7.5590553,-860.81531)" />
  <g
     style="fill:none;stroke:#000000;stroke-width:1mm"
     id="g4"
     transform="translate(7.5590553,-860.81531)" />
  <g
     style="fill:none;stroke:#000000;stroke-width:4mm"
     id="g1254"
     transform="translate(7.5590553,-860.81531)">
    <path
       d="m 94.041493,1337.757 h 3.458"
       id="path6" />
    <path
       d="m 93.260493,1337.832 h 5.02"
       id="path8" />
    <path
       d="m 92.687493,1337.908 h 6.166"
       id="path10" />
    <path
       d="m 92.113493,1337.983 h 7.314"
       id="path12" />
    <path
       d="m 91.607493,1338.059 h 8.326"
       id="path14" />
    <path
       d="m 91.267493,1338.134 h 9.005997"
       id="path16" />
    <path
       d="m 90.926493,1338.21 h 9.687997"
       id="path18" />
    <path
       d="M 90.586493,1338.285 H 100.95449"
       id="path20" />
    <path
       d="M 90.245493,1338.361 H 101.29549"
       id="path22" />
    <path
       d="M 89.905493,1338.436 H 101.63549"
       id="path24" />
    <path
       d="M 89.608493,1338.512 H 101.93149"
       id="path26" />
    <path
       d="M 89.369493,1338.587 H 102.17149"
       id="path28" />
    <path
       d="M 89.130493,1338.663 H 102.41049"
       id="path30" />
    <path
       d="M 88.890493,1338.738 H 102.65049"
       id="path32" />
    <path
       d="M 88.651493,1338.814 H 102.88949"
       id="path34" />
    <path
       d="M 88.411493,1338.889 H 103.12949"
       id="path36" />
    <path
       d="M 88.172493,1338.965 H 103.36849"
       id="path38" />
    <path
       d="M 87.932493,1339.04 H 103.60749"
       id="path40" />
    <path
       d="M 87.710493,1339.116 H 103.82949"
       id="path42" />
    <path
       d="M 87.528493,1339.191 H 104.01249"
       id="path44" />
    <path
       d="M 87.346493,1339.266 H 104.19449"
       id="path46" />
    <path
       d="M 87.164493,1339.342 H 104.37649"
       id="path48" />
    <path
       d="M 86.981493,1339.417 H 104.55849"
       id="path50" />
    <path
       d="M 86.799493,1339.493 H 104.74149"
       id="path52" />
    <path
       d="M 86.617493,1339.568 H 104.92349"
       id="path54" />
    <path
       d="M 86.435493,1339.644 H 105.10549"
       id="path56" />
    <path
       d="M 86.252493,1339.719 H 105.28749"
       id="path58" />
    <path
       d="M 86.070493,1339.795 H 105.47049"
       id="path60" />
    <path
       d="M 85.888493,1339.87 H 105.65249"
       id="path62" />
    <path
       d="M 85.741493,1339.946 H 105.79849"
       id="path64" />
    <path
       d="M 85.596493,1340.021 H 105.94449"
       id="path66" />
    <path
       d="M 85.451493,1340.097 H 106.08949"
       id="path68" />
    <path
       d="M 85.306493,1340.172 H 106.23449"
       id="path70" />
    <path
       d="M 85.161493,1340.248 H 106.37949"
       id="path72" />
    <path
       d="M 85.016493,1340.323 H 106.52449"
       id="path74" />
    <path
       d="M 84.871493,1340.399 H 106.66949"
       id="path76" />
    <path
       d="M 84.726493,1340.474 H 106.81449"
       id="path78" />
    <path
       d="M 84.581493,1340.55 H 106.95949"
       id="path80" />
    <path
       d="M 84.436493,1340.625 H 107.10449"
       id="path82" />
    <path
       d="M 84.291493,1340.701 H 107.24949"
       id="path84" />
    <path
       d="M 84.146493,1340.776 H 107.39449"
       id="path86" />
    <path
       d="M 84.014493,1340.852 H 107.52649"
       id="path88" />
    <path
       d="M 83.895493,1340.927 H 107.64549"
       id="path90" />
    <path
       d="M 83.777493,1341.003 H 107.76349"
       id="path92" />
    <path
       d="M 83.658493,1341.078 H 107.88249"
       id="path94" />
    <path
       d="M 83.540493,1341.154 H 108.00049"
       id="path96" />
    <path
       d="M 83.421493,1341.229 H 108.11949"
       id="path98" />
    <path
       d="M 83.303493,1341.305 H 108.23749"
       id="path100" />
    <path
       d="M 83.184493,1341.38 H 108.35649"
       id="path102" />
    <path
       d="M 83.066493,1341.456 H 108.47449"
       id="path104" />
    <path
       d="M 82.947493,1341.531 H 108.59349"
       id="path106" />
    <path
       d="M 82.829493,1341.607 H 108.71149"
       id="path108" />
    <path
       d="M 82.710493,1341.682 H 108.83049"
       id="path110" />
    <path
       d="M 82.592493,1341.758 H 108.94849"
       id="path112" />
    <path
       d="M 82.473493,1341.833 H 109.06749"
       id="path114" />
    <path
       d="M 82.355493,1341.909 H 109.18549"
       id="path116" />
    <path
       d="M 82.255493,1341.984 H 109.28549"
       id="path118" />
    <path
       d="M 82.157493,1342.06 H 109.38349"
       id="path120" />
    <path
       d="M 82.058493,1342.135 H 109.48249"
       id="path122" />
    <path
       d="M 81.960493,1342.211 H 109.58049"
       id="path124" />
    <path
       d="M 81.861493,1342.286 H 109.67849"
       id="path126" />
    <path
       d="M 81.763493,1342.362 H 109.77749"
       id="path128" />
    <path
       d="M 81.665493,1342.437 H 109.87549"
       id="path130" />
    <path
       d="M 81.566493,1342.513 H 109.97449"
       id="path132" />
    <path
       d="M 81.468493,1342.588 H 110.07249"
       id="path134" />
    <path
       d="M 81.370493,1342.663 H 110.17049"
       id="path136" />
    <path
       d="M 81.271493,1342.739 H 110.26949"
       id="path138" />
    <path
       d="M 81.173493,1342.815 H 110.36749"
       id="path140" />
    <path
       d="M 81.074493,1342.89 H 110.46549"
       id="path142" />
    <path
       d="M 80.976493,1342.965 H 110.56449"
       id="path144" />
    <path
       d="M 80.878493,1343.041 H 110.66249"
       id="path146" />
    <path
       d="M 80.779493,1343.116 H 110.76149"
       id="path148" />
    <path
       d="M 80.688493,1343.192 H 110.85149"
       id="path150" />
    <path
       d="M 80.606493,1343.267 H 110.93449"
       id="path152" />
    <path
       d="M 80.524493,1343.343 H 111.01649"
       id="path154" />
    <path
       d="M 80.441493,1343.418 H 111.09949"
       id="path156" />
    <path
       d="M 80.359493,1343.494 H 111.18149"
       id="path158" />
    <path
       d="M 80.277493,1343.569 H 111.26349"
       id="path160" />
    <path
       d="M 80.194493,1343.645 H 111.34649"
       id="path162" />
    <path
       d="M 80.112493,1343.72 H 111.42849"
       id="path164" />
    <path
       d="M 80.029493,1343.796 H 111.51049"
       id="path166" />
    <path
       d="M 79.947493,1343.871 H 111.59349"
       id="path168" />
    <path
       d="M 79.865493,1343.947 H 111.67549"
       id="path170" />
    <path
       d="M 79.782493,1344.022 H 111.75849"
       id="path172" />
    <path
       d="M 79.700493,1344.098 H 111.84049"
       id="path174" />
    <path
       d="M 79.617493,1344.173 H 111.92249"
       id="path176" />
    <path
       d="M 79.535493,1344.249 H 112.00549"
       id="path178" />
    <path
       d="M 79.453493,1344.324 H 112.08749"
       id="path180" />
    <path
       d="M 79.370493,1344.4 H 112.16949"
       id="path182" />
    <path
       d="M 79.288493,1344.475 H 112.25249"
       id="path184" />
    <path
       d="M 79.208493,1344.551 H 112.33249"
       id="path186" />
    <path
       d="M 79.139493,1344.626 H 112.40149"
       id="path188" />
    <path
       d="M 79.070493,1344.702 H 112.47049"
       id="path190" />
    <path
       d="M 79.001493,1344.777 H 112.53949"
       id="path192" />
    <path
       d="M 78.932493,1344.853 H 112.60849"
       id="path194" />
    <path
       d="M 78.862493,1344.928 H 112.67749"
       id="path196" />
    <path
       d="M 78.793493,1345.004 H 112.74749"
       id="path198" />
    <path
       d="M 78.724493,1345.079 H 112.81649"
       id="path200" />
    <path
       d="M 78.655493,1345.155 H 112.88549"
       id="path202" />
    <path
       d="M 78.586493,1345.23 H 112.95449"
       id="path204" />
    <path
       d="M 78.517493,1345.306 H 113.02349"
       id="path206" />
    <path
       d="M 78.447493,1345.381 H 113.09249"
       id="path208" />
    <path
       d="M 78.378493,1345.457 H 113.16249"
       id="path210" />
    <path
       d="M 78.309493,1345.532 H 113.23149"
       id="path212" />
    <path
       d="M 78.240493,1345.608 H 113.30049"
       id="path214" />
    <path
       d="M 78.171493,1345.683 H 113.36949"
       id="path216" />
    <path
       d="M 78.101493,1345.759 H 113.43849"
       id="path218" />
    <path
       d="M 78.032493,1345.834 H 113.50849"
       id="path220" />
    <path
       d="M 77.963493,1345.91 H 113.57749"
       id="path222" />
    <path
       d="M 77.894493,1345.985 H 113.64649"
       id="path224" />
    <path
       d="M 77.828493,1346.061 H 113.71249"
       id="path226" />
    <path
       d="M 77.770493,1346.136 H 113.77049"
       id="path228" />
    <path
       d="M 77.712493,1346.212 H 113.82849"
       id="path230" />
    <path
       d="M 77.654493,1346.287 H 113.88649"
       id="path232" />
    <path
       d="M 77.596493,1346.363 H 113.94449"
       id="path234" />
    <path
       d="M 77.538493,1346.438 H 114.00249"
       id="path236" />
    <path
       d="M 77.480493,1346.513 H 114.06049"
       id="path238" />
    <path
       d="M 77.422493,1346.589 H 114.11849"
       id="path240" />
    <path
       d="M 77.364493,1346.664 H 114.17549"
       id="path242" />
    <path
       d="M 77.306493,1346.74 H 114.23349"
       id="path244" />
    <path
       d="M 77.248493,1346.815 H 114.29149"
       id="path246" />
    <path
       d="M 77.191493,1346.891 H 114.34949"
       id="path248" />
    <path
       d="M 77.133493,1346.966 H 114.40749"
       id="path250" />
    <path
       d="M 77.075493,1347.042 H 114.46549"
       id="path252" />
    <path
       d="M 77.017493,1347.117 H 114.52349"
       id="path254" />
    <path
       d="M 76.959493,1347.193 H 114.58149"
       id="path256" />
    <path
       d="M 76.901493,1347.268 H 114.63949"
       id="path258" />
    <path
       d="M 76.843493,1347.344 H 114.69749"
       id="path260" />
    <path
       d="M 76.785493,1347.419 H 114.75549"
       id="path262" />
    <path
       d="M 76.727493,1347.495 H 114.81349"
       id="path264" />
    <path
       d="M 76.669493,1347.57 H 114.87149"
       id="path266" />
    <path
       d="M 76.611493,1347.646 H 114.92949"
       id="path268" />
    <path
       d="M 76.561493,1347.721 H 114.97849"
       id="path270" />
    <path
       d="M 76.513493,1347.797 H 115.02749"
       id="path272" />
    <path
       d="M 76.465493,1347.872 H 115.07549"
       id="path274" />
    <path
       d="M 76.417493,1347.948 H 115.12349"
       id="path276" />
    <path
       d="M 76.369493,1348.023 H 115.17149"
       id="path278" />
    <path
       d="M 76.321493,1348.099 H 115.21949"
       id="path280" />
    <path
       d="M 76.273493,1348.174 H 115.26749"
       id="path282" />
    <path
       d="M 76.225493,1348.25 H 115.31549"
       id="path284" />
    <path
       d="M 76.177493,1348.325 H 115.36349"
       id="path286" />
    <path
       d="M 76.128493,1348.401 H 115.41149"
       id="path288" />
    <path
       d="M 76.080493,1348.476 H 115.45949"
       id="path290" />
    <path
       d="M 76.032493,1348.552 H 115.50749"
       id="path292" />
    <path
       d="M 75.984493,1348.627 H 115.55649"
       id="path294" />
    <path
       d="M 75.936493,1348.703 H 115.60449"
       id="path296" />
    <path
       d="M 75.888493,1348.778 H 115.65249"
       id="path298" />
    <path
       d="M 75.840493,1348.854 H 115.70049"
       id="path300" />
    <path
       d="M 75.792493,1348.929 H 115.74849"
       id="path302" />
    <path
       d="M 75.744493,1349.005 H 115.79649"
       id="path304" />
    <path
       d="M 75.696493,1349.08 H 115.84449"
       id="path306" />
    <path
       d="M 75.648493,1349.156 H 115.89249"
       id="path308" />
    <path
       d="M 75.599493,1349.231 H 115.94049"
       id="path310" />
    <path
       d="M 75.551493,1349.307 H 115.98849"
       id="path312" />
    <path
       d="M 75.503493,1349.382 H 116.03749"
       id="path314" />
    <path
       d="M 75.464493,1349.458 H 116.07649"
       id="path316" />
    <path
       d="M 75.425493,1349.533 H 116.11549"
       id="path318" />
    <path
       d="M 75.385493,1349.609 H 116.15449"
       id="path320" />
    <path
       d="M 75.346493,1349.684 H 116.19449"
       id="path322" />
    <path
       d="M 75.307493,1349.76 H 116.23349"
       id="path324" />
    <path
       d="M 75.267493,1349.835 H 116.27249"
       id="path326" />
    <path
       d="M 75.228493,1349.911 H 116.31249"
       id="path328" />
    <path
       d="M 75.189493,1349.986 H 116.35149"
       id="path330" />
    <path
       d="M 75.150493,1350.062 H 116.39049"
       id="path332" />
    <path
       d="M 75.110493,1350.137 H 116.43049"
       id="path334" />
    <path
       d="M 75.071493,1350.212 H 116.46949"
       id="path336" />
    <path
       d="M 75.032493,1350.288 H 116.50849"
       id="path338" />
    <path
       d="M 74.992493,1350.364 H 116.54749"
       id="path340" />
    <path
       d="M 74.953493,1350.439 H 116.58749"
       id="path342" />
    <path
       d="M 74.914493,1350.514 H 116.62649"
       id="path344" />
    <path
       d="M 74.875493,1350.59 H 116.66549"
       id="path346" />
    <path
       d="M 74.835493,1350.665 H 116.70549"
       id="path348" />
    <path
       d="M 74.796493,1350.741 H 116.74449"
       id="path350" />
    <path
       d="M 74.757493,1350.816 H 116.78349"
       id="path352" />
    <path
       d="M 74.717493,1350.892 H 116.82249"
       id="path354" />
    <path
       d="M 74.678493,1350.967 H 116.86249"
       id="path356" />
    <path
       d="M 74.639493,1351.043 H 116.90149"
       id="path358" />
    <path
       d="M 74.599493,1351.118 H 116.94049"
       id="path360" />
    <path
       d="M 74.560493,1351.194 H 116.98049"
       id="path362" />
    <path
       d="M 74.529493,1351.269 H 117.01149"
       id="path364" />
    <path
       d="M 74.498493,1351.345 H 117.04249"
       id="path366" />
    <path
       d="M 74.466493,1351.42 H 117.07349"
       id="path368" />
    <path
       d="M 74.435493,1351.496 H 117.10549"
       id="path370" />
    <path
       d="M 74.404493,1351.571 H 117.13649"
       id="path372" />
    <path
       d="M 74.373493,1351.647 H 117.16749"
       id="path374" />
    <path
       d="M 74.341493,1351.722 H 117.19849"
       id="path376" />
    <path
       d="M 74.310493,1351.798 H 117.23049"
       id="path378" />
    <path
       d="M 74.279493,1351.873 H 117.26149"
       id="path380" />
    <path
       d="M 74.248493,1351.949 H 117.29249"
       id="path382" />
    <path
       d="M 74.216493,1352.024 H 117.32449"
       id="path384" />
    <path
       d="M 74.185493,1352.1 H 117.35549"
       id="path386" />
    <path
       d="M 74.154493,1352.175 H 117.38649"
       id="path388" />
    <path
       d="M 74.122493,1352.251 H 117.41749"
       id="path390" />
    <path
       d="M 74.091493,1352.326 H 117.44949"
       id="path392" />
    <path
       d="M 74.060493,1352.402 H 117.48049"
       id="path394" />
    <path
       d="M 74.029493,1352.477 H 117.51149"
       id="path396" />
    <path
       d="M 73.997493,1352.553 H 117.54249"
       id="path398" />
    <path
       d="M 73.966493,1352.628 H 117.57449"
       id="path400" />
    <path
       d="M 73.935493,1352.704 H 117.60549"
       id="path402" />
    <path
       d="M 73.904493,1352.779 H 117.63649"
       id="path404" />
    <path
       d="M 73.872493,1352.855 H 117.66749"
       id="path406" />
    <path
       d="M 73.841493,1352.93 H 117.69949"
       id="path408" />
    <path
       d="M 73.810493,1353.006 H 117.73049"
       id="path410" />
    <path
       d="M 73.779493,1353.081 H 117.76149"
       id="path412" />
    <path
       d="M 73.755493,1353.157 H 117.78549"
       id="path414" />
    <path
       d="M 73.731493,1353.232 H 117.80949"
       id="path416" />
    <path
       d="M 73.707493,1353.308 H 117.83249"
       id="path418" />
    <path
       d="M 73.684493,1353.383 H 117.85649"
       id="path420" />
    <path
       d="M 73.660493,1353.459 H 117.88049"
       id="path422" />
    <path
       d="M 73.636493,1353.534 H 117.90449"
       id="path424" />
    <path
       d="M 73.612493,1353.61 H 117.92849"
       id="path426" />
    <path
       d="M 73.588493,1353.685 H 117.95249"
       id="path428" />
    <path
       d="M 73.564493,1353.761 H 117.97549"
       id="path430" />
    <path
       d="M 73.541493,1353.836 H 117.99949"
       id="path432" />
    <path
       d="M 73.517493,1353.912 H 118.02349"
       id="path434" />
    <path
       d="M 73.493493,1353.987 H 118.04749"
       id="path436" />
    <path
       d="M 73.469493,1354.062 H 118.07149"
       id="path438" />
    <path
       d="M 73.445493,1354.138 H 118.09449"
       id="path440" />
    <path
       d="M 73.422493,1354.213 H 118.11849"
       id="path442" />
    <path
       d="M 73.398493,1354.289 H 118.14249"
       id="path444" />
    <path
       d="M 73.374493,1354.364 H 118.16649"
       id="path446" />
    <path
       d="M 73.350493,1354.44 H 118.19049"
       id="path448" />
    <path
       d="M 73.326493,1354.515 H 118.21349"
       id="path450" />
    <path
       d="M 73.303493,1354.591 H 118.23749"
       id="path452" />
    <path
       d="M 73.279493,1354.666 H 118.26149"
       id="path454" />
    <path
       d="M 73.255493,1354.742 H 118.28549"
       id="path456" />
    <path
       d="M 73.231493,1354.817 H 118.30949"
       id="path458" />
    <path
       d="M 73.207493,1354.893 H 118.33249"
       id="path460" />
    <path
       d="M 73.184493,1354.968 H 118.35649"
       id="path462" />
    <path
       d="M 73.162493,1355.044 H 118.37849"
       id="path464" />
    <path
       d="M 73.145493,1355.119 H 118.39549"
       id="path466" />
    <path
       d="M 73.128493,1355.195 H 118.41249"
       id="path468" />
    <path
       d="M 73.111493,1355.27 H 118.42949"
       id="path470" />
    <path
       d="M 73.095493,1355.346 H 118.44549"
       id="path472" />
    <path
       d="M 73.078493,1355.421 H 118.46249"
       id="path474" />
    <path
       d="M 73.061493,1355.497 H 118.47949"
       id="path476" />
    <path
       d="M 73.044493,1355.572 H 118.49549"
       id="path478" />
    <path
       d="M 73.028493,1355.648 H 118.51249"
       id="path480" />
    <path
       d="M 73.011493,1355.723 H 118.52949"
       id="path482" />
    <path
       d="M 72.994493,1355.799 H 118.54649"
       id="path484" />
    <path
       d="M 72.977493,1355.874 H 118.56249"
       id="path486" />
    <path
       d="M 72.961493,1355.95 H 118.57949"
       id="path488" />
    <path
       d="M 72.944493,1356.025 H 118.59649"
       id="path490" />
    <path
       d="M 72.927493,1356.101 H 118.61349"
       id="path492" />
    <path
       d="M 72.910493,1356.176 H 118.62949"
       id="path494" />
    <path
       d="M 72.894493,1356.252 H 118.64649"
       id="path496" />
    <path
       d="M 72.877493,1356.327 H 118.66349"
       id="path498" />
    <path
       d="M 72.860493,1356.403 H 118.68049"
       id="path500" />
    <path
       d="M 72.844493,1356.478 H 118.69649"
       id="path502" />
    <path
       d="M 72.827493,1356.554 H 118.71349"
       id="path504" />
    <path
       d="M 72.810493,1356.629 H 118.73049"
       id="path506" />
    <path
       d="M 72.793493,1356.705 H 118.74649"
       id="path508" />
    <path
       d="M 72.777493,1356.78 H 118.76349"
       id="path510" />
    <path
       d="M 72.760493,1356.856 H 118.78049"
       id="path512" />
    <path
       d="M 72.743493,1356.931 H 118.79749"
       id="path514" />
    <path
       d="M 72.726493,1357.007 H 118.81349"
       id="path516" />
    <path
       d="M 72.715493,1357.082 H 118.82449"
       id="path518" />
    <path
       d="M 72.705493,1357.158 H 118.83449"
       id="path520" />
    <path
       d="M 72.695493,1357.233 H 118.84449"
       id="path522" />
    <path
       d="M 72.685493,1357.309 H 118.85449"
       id="path524" />
    <path
       d="M 72.676493,1357.384 H 118.86449"
       id="path526" />
    <path
       d="M 72.666493,1357.459 H 118.87449"
       id="path528" />
    <path
       d="M 72.656493,1357.535 H 118.88449"
       id="path530" />
    <path
       d="M 72.646493,1357.611 H 118.89449"
       id="path532" />
    <path
       d="M 72.636493,1357.686 H 118.90449"
       id="path534" />
    <path
       d="M 72.626493,1357.761 H 118.91449"
       id="path536" />
    <path
       d="M 72.616493,1357.837 H 118.92449"
       id="path538" />
    <path
       d="M 72.606493,1357.913 H 118.93449"
       id="path540" />
    <path
       d="M 72.596493,1357.988 H 118.94449"
       id="path542" />
    <path
       d="M 72.586493,1358.063 H 118.95449"
       id="path544" />
    <path
       d="M 72.576493,1358.139 H 118.96449"
       id="path546" />
    <path
       d="M 72.566493,1358.214 H 118.97449"
       id="path548" />
    <path
       d="M 72.556493,1358.29 H 118.98449"
       id="path550" />
    <path
       d="M 72.546493,1358.365 H 118.99349"
       id="path552" />
    <path
       d="M 72.536493,1358.441 H 119.00349"
       id="path554" />
    <path
       d="M 72.526493,1358.516 H 119.01349"
       id="path556" />
    <path
       d="M 72.517493,1358.592 H 119.02349"
       id="path558" />
    <path
       d="M 72.507493,1358.667 H 119.03349"
       id="path560" />
    <path
       d="M 72.497493,1358.743 H 119.04349"
       id="path562" />
    <path
       d="M 72.487493,1358.818 H 119.05349"
       id="path564" />
    <path
       d="M 72.477493,1358.894 H 119.06349"
       id="path566" />
    <path
       d="M 72.467493,1358.969 H 119.07349"
       id="path568" />
    <path
       d="M 72.457493,1359.045 H 119.08349"
       id="path570" />
    <path
       d="M 72.454493,1359.12 H 119.08649"
       id="path572" />
    <path
       d="M 72.450493,1359.196 H 119.08949"
       id="path574" />
    <path
       d="M 72.447493,1359.271 H 119.09349"
       id="path576" />
    <path
       d="M 72.444493,1359.347 H 119.09649"
       id="path578" />
    <path
       d="M 72.441493,1359.422 H 119.09949"
       id="path580" />
    <path
       d="M 72.437493,1359.498 H 119.10349"
       id="path582" />
    <path
       d="M 72.434493,1359.573 H 119.10649"
       id="path584" />
    <path
       d="M 72.431493,1359.649 H 119.10949"
       id="path586" />
    <path
       d="M 72.427493,1359.724 H 119.11249"
       id="path588" />
    <path
       d="M 72.424493,1359.8 H 119.11649"
       id="path590" />
    <path
       d="M 72.421493,1359.875 H 119.11949"
       id="path592" />
    <path
       d="M 72.417493,1359.951 H 119.12249"
       id="path594" />
    <path
       d="M 72.414493,1360.026 H 119.12649"
       id="path596" />
    <path
       d="M 72.411493,1360.102 H 119.12949"
       id="path598" />
    <path
       d="M 72.408493,1360.177 H 119.13249"
       id="path600" />
    <path
       d="M 72.404493,1360.253 H 119.13649"
       id="path602" />
    <path
       d="M 72.401493,1360.328 H 119.13949"
       id="path604" />
    <path
       d="M 72.398493,1360.404 H 119.14249"
       id="path606" />
    <path
       d="M 72.394493,1360.479 H 119.14549"
       id="path608" />
    <path
       d="M 72.391493,1360.555 H 119.14949"
       id="path610" />
    <path
       d="M 72.388493,1360.63 H 119.15249"
       id="path612" />
    <path
       d="M 72.384493,1360.706 H 119.15549"
       id="path614" />
    <path
       d="M 72.381493,1360.781 H 119.15949"
       id="path616" />
    <path
       d="M 72.378493,1360.857 H 119.16249"
       id="path618" />
    <path
       d="M 72.375493,1360.932 H 119.16549"
       id="path620" />
    <path
       d="M 72.371493,1361.008 H 119.16849"
       id="path622" />
    <path
       d="M 72.368493,1361.083 H 119.17249"
       id="path624" />
    <path
       d="M 72.371493,1361.159 H 119.16849"
       id="path626" />
    <path
       d="M 72.375493,1361.234 H 119.16549"
       id="path628" />
    <path
       d="M 72.378493,1361.31 H 119.16249"
       id="path630" />
    <path
       d="M 72.381493,1361.385 H 119.15949"
       id="path632" />
    <path
       d="M 72.384493,1361.46 H 119.15549"
       id="path634" />
    <path
       d="M 72.388493,1361.536 H 119.15249"
       id="path636" />
    <path
       d="M 72.391493,1361.611 H 119.14949"
       id="path638" />
    <path
       d="M 72.394493,1361.687 H 119.14549"
       id="path640" />
    <path
       d="M 72.398493,1361.762 H 119.14249"
       id="path642" />
    <path
       d="M 72.401493,1361.838 H 119.13949"
       id="path644" />
    <path
       d="M 72.404493,1361.913 H 119.13649"
       id="path646" />
    <path
       d="M 72.408493,1361.989 H 119.13249"
       id="path648" />
    <path
       d="M 72.411493,1362.064 H 119.12949"
       id="path650" />
    <path
       d="M 72.414493,1362.14 H 119.12649"
       id="path652" />
    <path
       d="M 72.417493,1362.215 H 119.12249"
       id="path654" />
    <path
       d="M 72.421493,1362.291 H 119.11949"
       id="path656" />
    <path
       d="M 72.424493,1362.366 H 119.11649"
       id="path658" />
    <path
       d="M 72.427493,1362.442 H 119.11249"
       id="path660" />
    <path
       d="M 72.431493,1362.517 H 119.10949"
       id="path662" />
    <path
       d="M 72.434493,1362.593 H 119.10649"
       id="path664" />
    <path
       d="M 72.437493,1362.668 H 119.10349"
       id="path666" />
    <path
       d="M 72.441493,1362.744 H 119.09949"
       id="path668" />
    <path
       d="M 72.444493,1362.819 H 119.09649"
       id="path670" />
    <path
       d="M 72.447493,1362.895 H 119.09349"
       id="path672" />
    <path
       d="M 72.450493,1362.97 H 119.08949"
       id="path674" />
    <path
       d="M 72.454493,1363.046 H 119.08649"
       id="path676" />
    <path
       d="M 72.457493,1363.121 H 119.08349"
       id="path678" />
    <path
       d="M 72.467493,1363.197 H 119.07349"
       id="path680" />
    <path
       d="M 72.477493,1363.272 H 119.06349"
       id="path682" />
    <path
       d="M 72.487493,1363.348 H 119.05349"
       id="path684" />
    <path
       d="M 72.497493,1363.423 H 119.04349"
       id="path686" />
    <path
       d="M 72.507493,1363.499 H 119.03349"
       id="path688" />
    <path
       d="M 72.517493,1363.574 H 119.02349"
       id="path690" />
    <path
       d="M 72.526493,1363.65 H 119.01349"
       id="path692" />
    <path
       d="M 72.536493,1363.725 H 119.00349"
       id="path694" />
    <path
       d="M 72.546493,1363.801 H 118.99349"
       id="path696" />
    <path
       d="M 72.556493,1363.876 H 118.98449"
       id="path698" />
    <path
       d="M 72.566493,1363.952 H 118.97449"
       id="path700" />
    <path
       d="M 72.576493,1364.027 H 118.96449"
       id="path702" />
    <path
       d="M 72.586493,1364.103 H 118.95449"
       id="path704" />
    <path
       d="M 72.596493,1364.178 H 118.94449"
       id="path706" />
    <path
       d="M 72.606493,1364.254 H 118.93449"
       id="path708" />
    <path
       d="M 72.616493,1364.329 H 118.92449"
       id="path710" />
    <path
       d="M 72.626493,1364.405 H 118.91449"
       id="path712" />
    <path
       d="M 72.636493,1364.48 H 118.90449"
       id="path714" />
    <path
       d="M 72.646493,1364.556 H 118.89449"
       id="path716" />
    <path
       d="M 72.656493,1364.631 H 118.88449"
       id="path718" />
    <path
       d="M 72.666493,1364.707 H 118.87449"
       id="path720" />
    <path
       d="M 72.676493,1364.782 H 118.86449"
       id="path722" />
    <path
       d="M 72.685493,1364.858 H 118.85449"
       id="path724" />
    <path
       d="M 72.695493,1364.933 H 118.84449"
       id="path726" />
    <path
       d="M 72.705493,1365.008 H 118.83449"
       id="path728" />
    <path
       d="M 72.715493,1365.084 H 118.82449"
       id="path730" />
    <path
       d="M 72.726493,1365.16 H 118.81349"
       id="path732" />
    <path
       d="M 72.743493,1365.235 H 118.79749"
       id="path734" />
    <path
       d="M 72.760493,1365.31 H 118.78049"
       id="path736" />
    <path
       d="M 72.777493,1365.386 H 118.76349"
       id="path738" />
    <path
       d="M 72.793493,1365.462 H 118.74649"
       id="path740" />
    <path
       d="M 72.810493,1365.537 H 118.73049"
       id="path742" />
    <path
       d="M 72.827493,1365.612 H 118.71349"
       id="path744" />
    <path
       d="M 72.844493,1365.688 H 118.69649"
       id="path746" />
    <path
       d="M 72.860493,1365.763 H 118.68049"
       id="path748" />
    <path
       d="M 72.877493,1365.839 H 118.66349"
       id="path750" />
    <path
       d="M 72.894493,1365.914 H 118.64649"
       id="path752" />
    <path
       d="M 72.910493,1365.99 H 118.62949"
       id="path754" />
    <path
       d="M 72.927493,1366.065 H 118.61349"
       id="path756" />
    <path
       d="M 72.944493,1366.141 H 118.59649"
       id="path758" />
    <path
       d="M 72.961493,1366.216 H 118.57949"
       id="path760" />
    <path
       d="M 72.977493,1366.292 H 118.56249"
       id="path762" />
    <path
       d="M 72.994493,1366.367 H 118.54649"
       id="path764" />
    <path
       d="M 73.011493,1366.443 H 118.52949"
       id="path766" />
    <path
       d="M 73.028493,1366.518 H 118.51249"
       id="path768" />
    <path
       d="M 73.044493,1366.594 H 118.49549"
       id="path770" />
    <path
       d="M 73.061493,1366.669 H 118.47949"
       id="path772" />
    <path
       d="M 73.078493,1366.745 H 118.46249"
       id="path774" />
    <path
       d="M 73.095493,1366.82 H 118.44549"
       id="path776" />
    <path
       d="M 73.111493,1366.896 H 118.42949"
       id="path778" />
    <path
       d="M 73.128493,1366.971 H 118.41249"
       id="path780" />
    <path
       d="M 73.145493,1367.047 H 118.39549"
       id="path782" />
    <path
       d="M 73.162493,1367.122 H 118.37849"
       id="path784" />
    <path
       d="M 73.184493,1367.198 H 118.35649"
       id="path786" />
    <path
       d="M 73.207493,1367.273 H 118.33249"
       id="path788" />
    <path
       d="M 73.231493,1367.349 H 118.30949"
       id="path790" />
    <path
       d="M 73.255493,1367.424 H 118.28549"
       id="path792" />
    <path
       d="M 73.279493,1367.5 H 118.26149"
       id="path794" />
    <path
       d="M 73.303493,1367.575 H 118.23749"
       id="path796" />
    <path
       d="M 73.326493,1367.651 H 118.21349"
       id="path798" />
    <path
       d="M 73.350493,1367.726 H 118.19049"
       id="path800" />
    <path
       d="M 73.374493,1367.802 H 118.16649"
       id="path802" />
    <path
       d="M 73.398493,1367.877 H 118.14249"
       id="path804" />
    <path
       d="M 73.422493,1367.953 H 118.11849"
       id="path806" />
    <path
       d="M 73.445493,1368.028 H 118.09449"
       id="path808" />
    <path
       d="M 73.469493,1368.104 H 118.07149"
       id="path810" />
    <path
       d="M 73.493493,1368.179 H 118.04749"
       id="path812" />
    <path
       d="M 73.517493,1368.255 H 118.02349"
       id="path814" />
    <path
       d="M 73.541493,1368.33 H 117.99949"
       id="path816" />
    <path
       d="M 73.564493,1368.406 H 117.97549"
       id="path818" />
    <path
       d="M 73.588493,1368.481 H 117.95249"
       id="path820" />
    <path
       d="M 73.612493,1368.557 H 117.92849"
       id="path822" />
    <path
       d="M 73.636493,1368.632 H 117.90449"
       id="path824" />
    <path
       d="M 73.660493,1368.708 H 117.88049"
       id="path826" />
    <path
       d="M 73.684493,1368.783 H 117.85649"
       id="path828" />
    <path
       d="M 73.707493,1368.859 H 117.83249"
       id="path830" />
    <path
       d="M 73.731493,1368.934 H 117.80949"
       id="path832" />
    <path
       d="M 73.755493,1369.009 H 117.78549"
       id="path834" />
    <path
       d="M 73.779493,1369.085 H 117.76149"
       id="path836" />
    <path
       d="M 73.810493,1369.16 H 117.73049"
       id="path838" />
    <path
       d="M 73.841493,1369.236 H 117.69949"
       id="path840" />
    <path
       d="M 73.872493,1369.311 H 117.66749"
       id="path842" />
    <path
       d="M 73.904493,1369.387 H 117.63649"
       id="path844" />
    <path
       d="M 73.935493,1369.462 H 117.60549"
       id="path846" />
    <path
       d="M 73.966493,1369.538 H 117.57449"
       id="path848" />
    <path
       d="M 73.997493,1369.613 H 117.54249"
       id="path850" />
    <path
       d="M 74.029493,1369.689 H 117.51149"
       id="path852" />
    <path
       d="M 74.060493,1369.764 H 117.48049"
       id="path854" />
    <path
       d="M 74.091493,1369.84 H 117.44949"
       id="path856" />
    <path
       d="M 74.122493,1369.915 H 117.41749"
       id="path858" />
    <path
       d="M 74.154493,1369.991 H 117.38649"
       id="path860" />
    <path
       d="M 74.185493,1370.066 H 117.35549"
       id="path862" />
    <path
       d="M 74.216493,1370.142 H 117.32449"
       id="path864" />
    <path
       d="M 74.248493,1370.217 H 117.29249"
       id="path866" />
    <path
       d="M 74.279493,1370.293 H 117.26149"
       id="path868" />
    <path
       d="M 74.310493,1370.368 H 117.23049"
       id="path870" />
    <path
       d="M 74.341493,1370.444 H 117.19849"
       id="path872" />
    <path
       d="M 74.373493,1370.519 H 117.16749"
       id="path874" />
    <path
       d="M 74.404493,1370.595 H 117.13649"
       id="path876" />
    <path
       d="M 74.435493,1370.67 H 117.10549"
       id="path878" />
    <path
       d="M 74.466493,1370.746 H 117.07349"
       id="path880" />
    <path
       d="M 74.498493,1370.821 H 117.04249"
       id="path882" />
    <path
       d="M 74.529493,1370.897 H 117.01149"
       id="path884" />
    <path
       d="M 74.560493,1370.972 H 116.98049"
       id="path886" />
    <path
       d="M 74.599493,1371.048 H 116.94049"
       id="path888" />
    <path
       d="M 74.639493,1371.123 H 116.90149"
       id="path890" />
    <path
       d="M 74.678493,1371.199 H 116.86249"
       id="path892" />
    <path
       d="M 74.717493,1371.274 H 116.82249"
       id="path894" />
    <path
       d="M 74.757493,1371.35 H 116.78349"
       id="path896" />
    <path
       d="M 74.796493,1371.425 H 116.74449"
       id="path898" />
    <path
       d="M 74.835493,1371.501 H 116.70549"
       id="path900" />
    <path
       d="M 74.875493,1371.576 H 116.66549"
       id="path902" />
    <path
       d="M 74.914493,1371.652 H 116.62649"
       id="path904" />
    <path
       d="M 74.953493,1371.727 H 116.58749"
       id="path906" />
    <path
       d="M 74.992493,1371.803 H 116.54749"
       id="path908" />
    <path
       d="M 75.032493,1371.878 H 116.50849"
       id="path910" />
    <path
       d="M 75.071493,1371.954 H 116.46949"
       id="path912" />
    <path
       d="M 75.110493,1372.029 H 116.43049"
       id="path914" />
    <path
       d="M 75.150493,1372.105 H 116.39049"
       id="path916" />
    <path
       d="M 75.189493,1372.18 H 116.35149"
       id="path918" />
    <path
       d="M 75.228493,1372.256 H 116.31249"
       id="path920" />
    <path
       d="M 75.268493,1372.331 H 116.27249"
       id="path922" />
    <path
       d="M 75.307493,1372.407 H 116.23349"
       id="path924" />
    <path
       d="M 75.346493,1372.482 H 116.19449"
       id="path926" />
    <path
       d="M 75.385493,1372.557 H 116.15449"
       id="path928" />
    <path
       d="M 75.425493,1372.633 H 116.11549"
       id="path930" />
    <path
       d="M 75.464493,1372.709 H 116.07649"
       id="path932" />
    <path
       d="M 75.503493,1372.784 H 116.03749"
       id="path934" />
    <path
       d="M 75.551493,1372.859 H 115.98849"
       id="path936" />
    <path
       d="M 75.599493,1372.935 H 115.94049"
       id="path938" />
    <path
       d="M 75.648493,1373.01 H 115.89249"
       id="path940" />
    <path
       d="M 75.696493,1373.086 H 115.84449"
       id="path942" />
    <path
       d="M 75.744493,1373.161 H 115.79649"
       id="path944" />
    <path
       d="M 75.792493,1373.237 H 115.74849"
       id="path946" />
    <path
       d="M 75.840493,1373.312 H 115.70049"
       id="path948" />
    <path
       d="M 75.888493,1373.388 H 115.65249"
       id="path950" />
    <path
       d="M 75.936493,1373.463 H 115.60449"
       id="path952" />
    <path
       d="M 75.984493,1373.539 H 115.55649"
       id="path954" />
    <path
       d="M 76.032493,1373.614 H 115.50849"
       id="path956" />
    <path
       d="M 76.080493,1373.69 H 115.45949"
       id="path958" />
    <path
       d="M 76.128493,1373.765 H 115.41149"
       id="path960" />
    <path
       d="M 76.177493,1373.841 H 115.36349"
       id="path962" />
    <path
       d="M 76.225493,1373.916 H 115.31549"
       id="path964" />
    <path
       d="M 76.273493,1373.992 H 115.26749"
       id="path966" />
    <path
       d="M 76.321493,1374.067 H 115.21949"
       id="path968" />
    <path
       d="M 76.369493,1374.143 H 115.17149"
       id="path970" />
    <path
       d="M 76.417493,1374.218 H 115.12349"
       id="path972" />
    <path
       d="M 76.465493,1374.294 H 115.07549"
       id="path974" />
    <path
       d="M 76.513493,1374.369 H 115.02749"
       id="path976" />
    <path
       d="M 76.561493,1374.445 H 114.97849"
       id="path978" />
    <path
       d="M 76.611493,1374.52 H 114.92949"
       id="path980" />
    <path
       d="M 76.669493,1374.596 H 114.87149"
       id="path982" />
    <path
       d="M 76.727493,1374.671 H 114.81349"
       id="path984" />
    <path
       d="M 76.785493,1374.747 H 114.75549"
       id="path986" />
    <path
       d="M 76.843493,1374.822 H 114.69749"
       id="path988" />
    <path
       d="M 76.901493,1374.898 H 114.63949"
       id="path990" />
    <path
       d="M 76.959493,1374.973 H 114.58149"
       id="path992" />
    <path
       d="M 77.017493,1375.049 H 114.52349"
       id="path994" />
    <path
       d="M 77.075493,1375.124 H 114.46549"
       id="path996" />
    <path
       d="M 77.133493,1375.2 H 114.40749"
       id="path998" />
    <path
       d="M 77.191493,1375.275 H 114.34949"
       id="path1000" />
    <path
       d="M 77.248493,1375.351 H 114.29149"
       id="path1002" />
    <path
       d="M 77.306493,1375.426 H 114.23349"
       id="path1004" />
    <path
       d="M 77.364493,1375.502 H 114.17549"
       id="path1006" />
    <path
       d="M 77.422493,1375.577 H 114.11849"
       id="path1008" />
    <path
       d="M 77.480493,1375.653 H 114.06049"
       id="path1010" />
    <path
       d="M 77.538493,1375.728 H 114.00249"
       id="path1012" />
    <path
       d="M 77.596493,1375.804 H 113.94449"
       id="path1014" />
    <path
       d="M 77.654493,1375.879 H 113.88649"
       id="path1016" />
    <path
       d="M 77.712493,1375.955 H 113.82849"
       id="path1018" />
    <path
       d="M 77.770493,1376.03 H 113.77049"
       id="path1020" />
    <path
       d="M 77.828493,1376.106 H 113.71249"
       id="path1022" />
    <path
       d="M 77.894493,1376.181 H 113.64649"
       id="path1024" />
    <path
       d="M 77.963493,1376.257 H 113.57749"
       id="path1026" />
    <path
       d="M 78.032493,1376.332 H 113.50849"
       id="path1028" />
    <path
       d="M 78.101493,1376.408 H 113.43849"
       id="path1030" />
    <path
       d="M 78.171493,1376.483 H 113.36949"
       id="path1032" />
    <path
       d="M 78.240493,1376.558 H 113.30049"
       id="path1034" />
    <path
       d="M 78.309493,1376.634 H 113.23149"
       id="path1036" />
    <path
       d="M 78.378493,1376.709 H 113.16249"
       id="path1038" />
    <path
       d="M 78.447493,1376.785 H 113.09249"
       id="path1040" />
    <path
       d="M 78.517493,1376.86 H 113.02349"
       id="path1042" />
    <path
       d="M 78.586493,1376.936 H 112.95449"
       id="path1044" />
    <path
       d="M 78.655493,1377.011 H 112.88549"
       id="path1046" />
    <path
       d="M 78.724493,1377.087 H 112.81649"
       id="path1048" />
    <path
       d="M 78.793493,1377.162 H 112.74749"
       id="path1050" />
    <path
       d="M 78.862493,1377.238 H 112.67749"
       id="path1052" />
    <path
       d="M 78.932493,1377.313 H 112.60849"
       id="path1054" />
    <path
       d="M 79.001493,1377.389 H 112.53949"
       id="path1056" />
    <path
       d="M 79.070493,1377.464 H 112.47049"
       id="path1058" />
    <path
       d="M 79.139493,1377.54 H 112.40149"
       id="path1060" />
    <path
       d="M 79.208493,1377.615 H 112.33249"
       id="path1062" />
    <path
       d="M 79.288493,1377.691 H 112.25249"
       id="path1064" />
    <path
       d="M 79.370493,1377.766 H 112.16949"
       id="path1066" />
    <path
       d="M 79.453493,1377.842 H 112.08749"
       id="path1068" />
    <path
       d="M 79.535493,1377.917 H 112.00549"
       id="path1070" />
    <path
       d="M 79.617493,1377.993 H 111.92249"
       id="path1072" />
    <path
       d="M 79.700493,1378.068 H 111.84049"
       id="path1074" />
    <path
       d="M 79.782493,1378.144 H 111.75849"
       id="path1076" />
    <path
       d="M 79.865493,1378.219 H 111.67549"
       id="path1078" />
    <path
       d="M 79.947493,1378.295 H 111.59349"
       id="path1080" />
    <path
       d="M 80.029493,1378.37 H 111.51049"
       id="path1082" />
    <path
       d="M 80.112493,1378.446 H 111.42849"
       id="path1084" />
    <path
       d="M 80.194493,1378.521 H 111.34649"
       id="path1086" />
    <path
       d="M 80.276493,1378.597 H 111.26349"
       id="path1088" />
    <path
       d="M 80.359493,1378.672 H 111.18149"
       id="path1090" />
    <path
       d="M 80.441493,1378.748 H 111.09949"
       id="path1092" />
    <path
       d="M 80.524493,1378.823 H 111.01649"
       id="path1094" />
    <path
       d="M 80.606493,1378.899 H 110.93449"
       id="path1096" />
    <path
       d="M 80.688493,1378.974 H 110.85149"
       id="path1098" />
    <path
       d="M 80.779493,1379.05 H 110.76149"
       id="path1100" />
    <path
       d="M 80.878493,1379.125 H 110.66249"
       id="path1102" />
    <path
       d="M 80.976493,1379.201 H 110.56449"
       id="path1104" />
    <path
       d="M 81.074493,1379.276 H 110.46549"
       id="path1106" />
    <path
       d="M 81.173493,1379.352 H 110.36749"
       id="path1108" />
    <path
       d="M 81.271493,1379.427 H 110.26949"
       id="path1110" />
    <path
       d="M 81.369493,1379.503 H 110.17049"
       id="path1112" />
    <path
       d="M 81.468493,1379.578 H 110.07249"
       id="path1114" />
    <path
       d="M 81.566493,1379.654 H 109.97449"
       id="path1116" />
    <path
       d="M 81.665493,1379.729 H 109.87549"
       id="path1118" />
    <path
       d="M 81.763493,1379.805 H 109.77749"
       id="path1120" />
    <path
       d="M 81.861493,1379.88 H 109.67849"
       id="path1122" />
    <path
       d="M 81.960493,1379.956 H 109.58049"
       id="path1124" />
    <path
       d="M 82.058493,1380.031 H 109.48249"
       id="path1126" />
    <path
       d="M 82.157493,1380.106 H 109.38349"
       id="path1128" />
    <path
       d="M 82.255493,1380.182 H 109.28549"
       id="path1130" />
    <path
       d="M 82.355493,1380.258 H 109.18549"
       id="path1132" />
    <path
       d="M 82.473493,1380.333 H 109.06749"
       id="path1134" />
    <path
       d="M 82.592493,1380.408 H 108.94849"
       id="path1136" />
    <path
       d="M 82.710493,1380.484 H 108.83049"
       id="path1138" />
    <path
       d="M 82.829493,1380.559 H 108.71149"
       id="path1140" />
    <path
       d="M 82.947493,1380.635 H 108.59349"
       id="path1142" />
    <path
       d="M 83.066493,1380.71 H 108.47449"
       id="path1144" />
    <path
       d="M 83.184493,1380.786 H 108.35649"
       id="path1146" />
    <path
       d="M 83.303493,1380.861 H 108.23749"
       id="path1148" />
    <path
       d="M 83.421493,1380.937 H 108.11949"
       id="path1150" />
    <path
       d="M 83.540493,1381.012 H 108.00049"
       id="path1152" />
    <path
       d="M 83.658493,1381.088 H 107.88249"
       id="path1154" />
    <path
       d="M 83.777493,1381.163 H 107.76349"
       id="path1156" />
    <path
       d="M 83.895493,1381.239 H 107.64549"
       id="path1158" />
    <path
       d="M 84.014493,1381.314 H 107.52649"
       id="path1160" />
    <path
       d="M 84.146493,1381.39 H 107.39449"
       id="path1162" />
    <path
       d="M 84.291493,1381.465 H 107.24949"
       id="path1164" />
    <path
       d="M 84.436493,1381.541 H 107.10449"
       id="path1166" />
    <path
       d="M 84.581493,1381.616 H 106.95949"
       id="path1168" />
    <path
       d="M 84.726493,1381.692 H 106.81449"
       id="path1170" />
    <path
       d="M 84.871493,1381.767 H 106.66949"
       id="path1172" />
    <path
       d="M 85.016493,1381.843 H 106.52449"
       id="path1174" />
    <path
       d="M 85.161493,1381.918 H 106.37949"
       id="path1176" />
    <path
       d="M 85.306493,1381.994 H 106.23449"
       id="path1178" />
    <path
       d="M 85.451493,1382.069 H 106.08949"
       id="path1180" />
    <path
       d="M 85.596493,1382.145 H 105.94449"
       id="path1182" />
    <path
       d="M 85.741493,1382.22 H 105.79949"
       id="path1184" />
    <path
       d="M 85.888493,1382.296 H 105.65249"
       id="path1186" />
    <path
       d="M 86.070493,1382.371 H 105.47049"
       id="path1188" />
    <path
       d="M 86.252493,1382.447 H 105.28749"
       id="path1190" />
    <path
       d="M 86.435493,1382.522 H 105.10549"
       id="path1192" />
    <path
       d="M 86.617493,1382.598 H 104.92349"
       id="path1194" />
    <path
       d="M 86.799493,1382.673 H 104.74149"
       id="path1196" />
    <path
       d="M 86.981493,1382.749 H 104.55849"
       id="path1198" />
    <path
       d="M 87.164493,1382.824 H 104.37649"
       id="path1200" />
    <path
       d="M 87.346493,1382.9 H 104.19449"
       id="path1202" />
    <path
       d="M 87.528493,1382.975 H 104.01249"
       id="path1204" />
    <path
       d="M 87.710493,1383.051 H 103.82949"
       id="path1206" />
    <path
       d="M 87.932493,1383.126 H 103.60749"
       id="path1208" />
    <path
       d="M 88.172493,1383.202 H 103.36849"
       id="path1210" />
    <path
       d="M 88.411493,1383.277 H 103.12949"
       id="path1212" />
    <path
       d="M 88.651493,1383.353 H 102.88949"
       id="path1214" />
    <path
       d="M 88.890493,1383.428 H 102.65049"
       id="path1216" />
    <path
       d="M 89.130493,1383.504 H 102.41049"
       id="path1218" />
    <path
       d="M 89.369493,1383.579 H 102.17149"
       id="path1220" />
    <path
       d="M 89.608493,1383.655 H 101.93149"
       id="path1222" />
    <path
       d="M 89.905493,1383.73 H 101.63549"
       id="path1224" />
    <path
       d="M 90.245493,1383.805 H 101.29549"
       id="path1226" />
    <path
       d="M 90.586493,1383.881 H 100.95449"
       id="path1228" />
    <path
       d="m 90.926493,1383.957 h 9.687997"
       id="path1230" />
    <path
       d="m 91.267493,1384.032 h 9.005997"
       id="path1232" />
    <path
       d="m 91.607493,1384.107 h 8.326"
       id="path1234" />
    <path
       d="m 92.113493,1384.183 h 7.314"
       id="path1236" />
    <path
       d="m 92.686493,1384.258 h 6.167"
       id="path1238" />
    <path
       d="m 93.260493,1384.334 h 5.02"
       id="path1240" />
    <path
       d="m 94.040493,1384.409 h 3.46"
       id="path1242" />
    <path
       d="M 3.6724929,1429.024 H 190.88749 L 93.505493,862.095 -0.10150707,1427.514"
       id="path1244" />
    <path
       d="m 258.07349,1048.555 9.814,-21.137 9.814,-18.873 12.833,-12.833 12.833,-12.833 19.628,-6.794 17.362,1.509 22.647,6.794 21.137,4.53 17.363,25.666 13.588,14.343"
       id="path1246" />
    <path
       d="m 415.09249,1028.927 9.059,16.608 v 18.873 l -9.059,18.117 -9.813,15.853 -15.098,18.118 -17.363,18.872 -15.853,19.628 -9.814,14.343 -8.304,12.833 -1.509,16.608"
       id="path1248" />
    <path
       d="m 337.33849,1198.78 v 17.362 12.834 l 1.509,16.607 v 1.51"
       id="path1250" />
    <path
       d="m 324.50449,1268.23 h 27.177"
       id="path1252" />
  </g>
</svg>
