<?xml version="1.0" encoding="UTF-8"?>
<svg id="svg1248" width="207.41" height="575.77" version="1.1" viewBox="0 0 207.41 575.77" xmlns="http://www.w3.org/2000/svg">
 <g id="g1246" transform="translate(8.9682 -860.82)" fill="none" stroke="#000" stroke-width="4mm">
  <path id="path6" d="m92.632 1337.8h3.457"/>
  <path id="path8" d="m91.851 1337.8h5.02"/>
  <path id="path10" d="m91.277 1337.9h6.167"/>
  <path id="path12" d="m90.704 1338h7.314"/>
  <path id="path14" d="m90.198 1338.1h8.325"/>
  <path id="path16" d="m89.858 1338.1h9.006"/>
  <path id="path18" d="m89.517 1338.2h9.687"/>
  <path id="path20" d="m89.177 1338.3h10.368"/>
  <path id="path22" d="m88.836 1338.4h11.049"/>
  <path id="path24" d="m88.495 1338.4h11.731"/>
  <path id="path26" d="m88.199 1338.5h12.323"/>
  <path id="path28" d="m87.96 1338.6h12.802"/>
  <path id="path30" d="m87.72 1338.7h13.281"/>
  <path id="path32" d="m87.481 1338.7h13.76"/>
  <path id="path34" d="m87.241 1338.8h14.239"/>
  <path id="path36" d="m87.002 1338.9h14.717"/>
  <path id="path38" d="m86.763 1339h15.196"/>
  <path id="path40" d="m86.523 1339h15.675"/>
  <path id="path42" d="m86.301 1339.1h16.119"/>
  <path id="path44" d="m86.119 1339.2h16.483"/>
  <path id="path46" d="m85.937 1339.3h16.848"/>
  <path id="path48" d="m85.755 1339.3h17.212"/>
  <path id="path50" d="m85.572 1339.4h17.577"/>
  <path id="path52" d="m85.39 1339.5h17.941"/>
  <path id="path54" d="m85.208 1339.6h18.306"/>
  <path id="path56" d="m85.026 1339.6h18.67"/>
  <path id="path58" d="m84.843 1339.7h19.035"/>
  <path id="path60" d="m84.661 1339.8h19.399"/>
  <path id="path62" d="m84.479 1339.9h19.764"/>
  <path id="path64" d="m84.332 1339.9h20.057"/>
  <path id="path66" d="m84.187 1340h20.347"/>
  <path id="path68" d="m84.042 1340.1h20.637"/>
  <path id="path70" d="m83.897 1340.2h20.927"/>
  <path id="path72" d="m83.752 1340.2h21.217"/>
  <path id="path74" d="m83.607 1340.3h21.507"/>
  <path id="path76" d="m83.462 1340.4h21.797"/>
  <path id="path78" d="m83.317 1340.5h22.087"/>
  <path id="path80" d="m83.172 1340.6h22.377"/>
  <path id="path82" d="m83.027 1340.6h22.667"/>
  <path id="path84" d="m82.882 1340.7h22.957"/>
  <path id="path86" d="m82.737 1340.8h23.247"/>
  <path id="path88" d="m82.604 1340.9h23.513"/>
  <path id="path90" d="m82.486 1340.9h23.75"/>
  <path id="path92" d="m82.367 1341h23.987"/>
  <path id="path94" d="m82.249 1341.1h24.224"/>
  <path id="path96" d="m82.13 1341.2h24.461"/>
  <path id="path98" d="m82.012 1341.2h24.698"/>
  <path id="path100" d="m81.893 1341.3h24.935"/>
  <path id="path102" d="m81.775 1341.4h25.172"/>
  <path id="path104" d="m81.656 1341.5h25.409"/>
  <path id="path106" d="m81.538 1341.5h25.646"/>
  <path id="path108" d="m81.419 1341.6h25.883"/>
  <path id="path110" d="m81.301 1341.7h26.12"/>
  <path id="path112" d="m81.182 1341.8h26.357"/>
  <path id="path114" d="m81.064 1341.8h26.593"/>
  <path id="path116" d="m80.945 1341.9h26.831"/>
  <path id="path118" d="m80.846 1342h27.03"/>
  <path id="path120" d="m80.747 1342.1h27.227"/>
  <path id="path122" d="m80.649 1342.1h27.423"/>
  <path id="path124" d="m80.551 1342.2h27.62"/>
  <path id="path126" d="m80.452 1342.3h27.817"/>
  <path id="path128" d="m80.354 1342.4h28.014"/>
  <path id="path130" d="m80.256 1342.4h28.21"/>
  <path id="path132" d="m80.157 1342.5h28.407"/>
  <path id="path134" d="m80.059 1342.6h28.604"/>
  <path id="path136" d="m79.96 1342.7h28.801"/>
  <path id="path138" d="m79.862 1342.7h28.998"/>
  <path id="path140" d="m79.764 1342.8h29.194"/>
  <path id="path142" d="m79.665 1342.9h29.391"/>
  <path id="path144" d="m79.567 1343h29.588"/>
  <path id="path146" d="m79.468 1343h29.785"/>
  <path id="path148" d="m79.37 1343.1h29.981"/>
  <path id="path150" d="m79.279 1343.2h30.163"/>
  <path id="path152" d="m79.197 1343.3h30.328"/>
  <path id="path154" d="m79.115 1343.3h30.492"/>
  <path id="path156" d="m79.032 1343.4h30.657"/>
  <path id="path158" d="m78.95 1343.5h30.822"/>
  <path id="path160" d="m78.867 1343.6h30.987"/>
  <path id="path162" d="m78.785 1343.6h31.151"/>
  <path id="path164" d="m78.703 1343.7h31.316"/>
  <path id="path166" d="m78.62 1343.8h31.481"/>
  <path id="path168" d="m78.538 1343.9h31.646"/>
  <path id="path170" d="m78.455 1343.9h31.811"/>
  <path id="path172" d="m78.373 1344h31.975"/>
  <path id="path174" d="m78.291 1344.1h32.14"/>
  <path id="path176" d="m78.208 1344.2h32.305"/>
  <path id="path178" d="m78.126 1344.2h32.47"/>
  <path id="path180" d="m78.044 1344.3h32.634"/>
  <path id="path182" d="m77.961 1344.4h32.799"/>
  <path id="path184" d="m77.879 1344.5h32.964"/>
  <path id="path186" d="m77.799 1344.6h33.123"/>
  <path id="path188" d="m77.73 1344.6h33.262"/>
  <path id="path190" d="m77.661 1344.7h33.4"/>
  <path id="path192" d="m77.592 1344.8h33.538"/>
  <path id="path194" d="m77.522 1344.9h33.677"/>
  <path id="path196" d="m77.453 1344.9h33.815"/>
  <path id="path198" d="m77.384 1345h33.953"/>
  <path id="path200" d="m77.315 1345.1h34.092"/>
  <path id="path202" d="m77.246 1345.2h34.23"/>
  <path id="path204" d="m77.176 1345.2h34.369"/>
  <path id="path206" d="m77.107 1345.3h34.507"/>
  <path id="path208" d="m77.038 1345.4h34.645"/>
  <path id="path210" d="m76.969 1345.5h34.783"/>
  <path id="path212" d="m76.9 1345.5h34.922"/>
  <path id="path214" d="m76.831 1345.6h35.06"/>
  <path id="path216" d="m76.761 1345.7h35.199"/>
  <path id="path218" d="m76.692 1345.8h35.337"/>
  <path id="path220" d="m76.623 1345.8h35.475"/>
  <path id="path222" d="m76.554 1345.9h35.613"/>
  <path id="path224" d="m76.485 1346h35.752"/>
  <path id="path226" d="m76.419 1346.1h35.884"/>
  <path id="path228" d="m76.361 1346.1h36"/>
  <path id="path230" d="m76.303 1346.2h36.116"/>
  <path id="path232" d="m76.245 1346.3h36.232"/>
  <path id="path234" d="m76.187 1346.4h36.348"/>
  <path id="path236" d="m76.129 1346.4h36.464"/>
  <path id="path238" d="m76.071 1346.5h36.579"/>
  <path id="path240" d="m76.013 1346.6h36.695"/>
  <path id="path242" d="m75.955 1346.7h36.811"/>
  <path id="path244" d="m75.897 1346.7h36.927"/>
  <path id="path246" d="m75.839 1346.8h37.043"/>
  <path id="path248" d="m75.781 1346.9h37.159"/>
  <path id="path250" d="m75.723 1347h37.275"/>
  <path id="path252" d="m75.666 1347h37.39"/>
  <path id="path254" d="m75.608 1347.1h37.506"/>
  <path id="path256" d="m75.55 1347.2h37.622"/>
  <path id="path258" d="m75.492 1347.3h37.738"/>
  <path id="path260" d="m75.434 1347.3h37.854"/>
  <path id="path262" d="m75.376 1347.4h37.97"/>
  <path id="path264" d="m75.318 1347.5h38.085"/>
  <path id="path266" d="m75.26 1347.6h38.201"/>
  <path id="path268" d="m75.202 1347.6h38.317"/>
  <path id="path270" d="m75.152 1347.7h38.417"/>
  <path id="path272" d="m75.104 1347.8h38.513"/>
  <path id="path274" d="m75.056 1347.9h38.609"/>
  <path id="path276" d="m75.008 1347.9h38.706"/>
  <path id="path278" d="m74.96 1348h38.802"/>
  <path id="path280" d="m74.912 1348.1h38.898"/>
  <path id="path282" d="m74.864 1348.2h38.994"/>
  <path id="path284" d="m74.815 1348.2h39.091"/>
  <path id="path286" d="m74.767 1348.3h39.187"/>
  <path id="path288" d="m74.719 1348.4h39.283"/>
  <path id="path290" d="m74.671 1348.5h39.379"/>
  <path id="path292" d="m74.623 1348.6h39.475"/>
  <path id="path294" d="m74.575 1348.6h39.571"/>
  <path id="path296" d="m74.527 1348.7h39.667"/>
  <path id="path298" d="m74.479 1348.8h39.764"/>
  <path id="path300" d="m74.431 1348.9h39.86"/>
  <path id="path302" d="m74.383 1348.9h39.956"/>
  <path id="path304" d="m74.335 1349h40.052"/>
  <path id="path306" d="m74.286 1349.1h40.149"/>
  <path id="path308" d="m74.238 1349.2h40.245"/>
  <path id="path310" d="m74.19 1349.2h40.341"/>
  <path id="path312" d="m74.142 1349.3h40.437"/>
  <path id="path314" d="m74.094 1349.4h40.533"/>
  <path id="path316" d="m74.055 1349.5h40.612"/>
  <path id="path318" d="m74.015 1349.5h40.691"/>
  <path id="path320" d="m73.976 1349.6h40.769"/>
  <path id="path322" d="m73.937 1349.7h40.848"/>
  <path id="path324" d="m73.898 1349.8h40.926"/>
  <path id="path326" d="m73.858 1349.8h41.005"/>
  <path id="path328" d="m73.819 1349.9h41.083"/>
  <path id="path330" d="m73.78 1350h41.162"/>
  <path id="path332" d="m73.74 1350.1h41.241"/>
  <path id="path334" d="m73.701 1350.1h41.319"/>
  <path id="path336" d="m73.662 1350.2h41.398"/>
  <path id="path338" d="m73.623 1350.3h41.476"/>
  <path id="path340" d="m73.583 1350.4h41.555"/>
  <path id="path342" d="m73.544 1350.4h41.634"/>
  <path id="path344" d="m73.505 1350.5h41.712"/>
  <path id="path346" d="m73.465 1350.6h41.791"/>
  <path id="path348" d="m73.426 1350.7h41.869"/>
  <path id="path350" d="m73.387 1350.7h41.948"/>
  <path id="path352" d="m73.347 1350.8h42.027"/>
  <path id="path354" d="m73.308 1350.9h42.105"/>
  <path id="path356" d="m73.269 1351h42.184"/>
  <path id="path358" d="m73.23 1351h42.262"/>
  <path id="path360" d="m73.19 1351.1h42.341"/>
  <path id="path362" d="m73.151 1351.2h42.419"/>
  <path id="path364" d="m73.12 1351.3h42.482"/>
  <path id="path366" d="m73.088 1351.3h42.545"/>
  <path id="path368" d="m73.057 1351.4h42.607"/>
  <path id="path370" d="m73.026 1351.5h42.669"/>
  <path id="path372" d="m72.995 1351.6h42.732"/>
  <path id="path374" d="m72.963 1351.6h42.795"/>
  <path id="path376" d="m72.932 1351.7h42.857"/>
  <path id="path378" d="m72.901 1351.8h42.92"/>
  <path id="path380" d="m72.87 1351.9h42.982"/>
  <path id="path382" d="m72.838 1351.9h43.045"/>
  <path id="path384" d="m72.807 1352h43.107"/>
  <path id="path386" d="m72.776 1352.1h43.17"/>
  <path id="path388" d="m72.745 1352.2h43.232"/>
  <path id="path390" d="m72.713 1352.3h43.295"/>
  <path id="path392" d="m72.682 1352.3h43.357"/>
  <path id="path394" d="m72.651 1352.4h43.42"/>
  <path id="path396" d="m72.619 1352.5h43.483"/>
  <path id="path398" d="m72.588 1352.6h43.545"/>
  <path id="path400" d="m72.557 1352.6h43.607"/>
  <path id="path402" d="m72.526 1352.7h43.67"/>
  <path id="path404" d="m72.494 1352.8h43.733"/>
  <path id="path406" d="m72.463 1352.9h43.795"/>
  <path id="path408" d="m72.432 1352.9h43.858"/>
  <path id="path410" d="m72.401 1353h43.92"/>
  <path id="path412" d="m72.37 1353.1h43.982"/>
  <path id="path414" d="m72.346 1353.2h44.03"/>
  <path id="path416" d="m72.322 1353.2h44.078"/>
  <path id="path418" d="m72.298 1353.3h44.125"/>
  <path id="path420" d="m72.274 1353.4h44.173"/>
  <path id="path422" d="m72.251 1353.5h44.22"/>
  <path id="path424" d="m72.227 1353.5h44.268"/>
  <path id="path426" d="m72.203 1353.6h44.316"/>
  <path id="path428" d="m72.179 1353.7h44.363"/>
  <path id="path430" d="m72.155 1353.8h44.411"/>
  <path id="path432" d="m72.132 1353.8h44.458"/>
  <path id="path434" d="m72.108 1353.9h44.506"/>
  <path id="path436" d="m72.084 1354h44.554"/>
  <path id="path438" d="m72.06 1354.1h44.601"/>
  <path id="path440" d="m72.036 1354.1h44.649"/>
  <path id="path442" d="m72.012 1354.2h44.697"/>
  <path id="path444" d="m71.989 1354.3h44.744"/>
  <path id="path446" d="m71.965 1354.4h44.792"/>
  <path id="path448" d="m71.941 1354.4h44.839"/>
  <path id="path450" d="m71.917 1354.5h44.887"/>
  <path id="path452" d="m71.893 1354.6h44.935"/>
  <path id="path454" d="m71.87 1354.7h44.982"/>
  <path id="path456" d="m71.846 1354.7h45.03"/>
  <path id="path458" d="m71.822 1354.8h45.077"/>
  <path id="path460" d="m71.798 1354.9h45.125"/>
  <path id="path462" d="m71.774 1355h45.173"/>
  <path id="path464" d="m71.752 1355h45.217"/>
  <path id="path466" d="m71.736 1355.1h45.25"/>
  <path id="path468" d="m71.719 1355.2h45.284"/>
  <path id="path470" d="m71.702 1355.3h45.317"/>
  <path id="path472" d="m71.685 1355.3h45.351"/>
  <path id="path474" d="m71.669 1355.4h45.384"/>
  <path id="path476" d="m71.652 1355.5h45.418"/>
  <path id="path478" d="m71.635 1355.6h45.451"/>
  <path id="path480" d="m71.618 1355.6h45.485"/>
  <path id="path482" d="m71.602 1355.7h45.518"/>
  <path id="path484" d="m71.585 1355.8h45.551"/>
  <path id="path486" d="m71.568 1355.9h45.585"/>
  <path id="path488" d="m71.551 1356h45.619"/>
  <path id="path490" d="m71.535 1356h45.652"/>
  <path id="path492" d="m71.518 1356.1h45.685"/>
  <path id="path494" d="m71.501 1356.2h45.719"/>
  <path id="path496" d="m71.485 1356.3h45.752"/>
  <path id="path498" d="m71.468 1356.3h45.786"/>
  <path id="path500" d="m71.451 1356.4h45.819"/>
  <path id="path502" d="m71.434 1356.5h45.853"/>
  <path id="path504" d="m71.418 1356.6h45.886"/>
  <path id="path506" d="m71.401 1356.6h45.92"/>
  <path id="path508" d="m71.384 1356.7h45.953"/>
  <path id="path510" d="m71.367 1356.8h45.987"/>
  <path id="path512" d="m71.351 1356.9h46.02"/>
  <path id="path514" d="m71.334 1356.9h46.053"/>
  <path id="path516" d="m71.317 1357h46.087"/>
  <path id="path518" d="m71.306 1357.1h46.109"/>
  <path id="path520" d="m71.296 1357.2h46.129"/>
  <path id="path522" d="m71.286 1357.2h46.149"/>
  <path id="path524" d="m71.276 1357.3h46.169"/>
  <path id="path526" d="m71.266 1357.4h46.189"/>
  <path id="path528" d="m71.256 1357.5h46.209"/>
  <path id="path530" d="m71.246 1357.5h46.229"/>
  <path id="path532" d="m71.237 1357.6h46.248"/>
  <path id="path534" d="m71.227 1357.7h46.268"/>
  <path id="path536" d="m71.217 1357.8h46.288"/>
  <path id="path538" d="m71.207 1357.8h46.308"/>
  <path id="path540" d="m71.197 1357.9h46.328"/>
  <path id="path542" d="m71.187 1358h46.348"/>
  <path id="path544" d="m71.177 1358.1h46.368"/>
  <path id="path546" d="m71.167 1358.1h46.387"/>
  <path id="path548" d="m71.157 1358.2h46.407"/>
  <path id="path550" d="m71.147 1358.3h46.427"/>
  <path id="path552" d="m71.137 1358.4h46.447"/>
  <path id="path554" d="m71.127 1358.4h46.467"/>
  <path id="path556" d="m71.117 1358.5h46.487"/>
  <path id="path558" d="m71.107 1358.6h46.507"/>
  <path id="path560" d="m71.097 1358.7h46.527"/>
  <path id="path562" d="m71.087 1358.7h46.547"/>
  <path id="path564" d="m71.078 1358.8h46.566"/>
  <path id="path566" d="m71.068 1358.9h46.586"/>
  <path id="path568" d="m71.058 1359h46.606"/>
  <path id="path570" d="m71.048 1359h46.626"/>
  <path id="path572" d="m71.045 1359.1h46.632"/>
  <path id="path574" d="m71.041 1359.2h46.639"/>
  <path id="path576" d="m71.038 1359.3h46.645"/>
  <path id="path578" d="m71.035 1359.3h46.652"/>
  <path id="path580" d="m71.031 1359.4h46.659"/>
  <path id="path582" d="m71.028 1359.5h46.665"/>
  <path id="path584" d="m71.025 1359.6h46.672"/>
  <path id="path586" d="m71.021 1359.6h46.679"/>
  <path id="path588" d="m71.018 1359.7h46.685"/>
  <path id="path590" d="m71.015 1359.8h46.692"/>
  <path id="path592" d="m71.012 1359.9h46.698"/>
  <path id="path594" d="m71.008 1360h46.705"/>
  <path id="path596" d="m71.005 1360h46.711"/>
  <path id="path598" d="m71.002 1360.1h46.718"/>
  <path id="path600" d="m70.998 1360.2h46.725"/>
  <path id="path602" d="m70.995 1360.3h46.731"/>
  <path id="path604" d="m70.992 1360.3h46.738"/>
  <path id="path606" d="m70.988 1360.4h46.745"/>
  <path id="path608" d="m70.985 1360.5h46.751"/>
  <path id="path610" d="m70.982 1360.6h46.758"/>
  <path id="path612" d="m70.979 1360.6h46.764"/>
  <path id="path614" d="m70.975 1360.7h46.771"/>
  <path id="path616" d="m70.972 1360.8h46.777"/>
  <path id="path618" d="m70.969 1360.9h46.784"/>
  <path id="path620" d="m70.965 1360.9h46.791"/>
  <path id="path622" d="m70.962 1361h46.797"/>
  <path id="path624" d="m70.959 1361.1h46.804"/>
  <path id="path626" d="m70.962 1361.2h46.797"/>
  <path id="path628" d="m70.965 1361.2h46.791"/>
  <path id="path630" d="m70.969 1361.3h46.784"/>
  <path id="path632" d="m70.972 1361.4h46.777"/>
  <path id="path634" d="m70.975 1361.5h46.771"/>
  <path id="path636" d="m70.979 1361.5h46.764"/>
  <path id="path638" d="m70.982 1361.6h46.758"/>
  <path id="path640" d="m70.985 1361.7h46.751"/>
  <path id="path642" d="m70.988 1361.8h46.745"/>
  <path id="path644" d="m70.992 1361.8h46.738"/>
  <path id="path646" d="m70.995 1361.9h46.731"/>
  <path id="path648" d="m70.998 1362h46.725"/>
  <path id="path650" d="m71.002 1362.1h46.718"/>
  <path id="path652" d="m71.005 1362.1h46.711"/>
  <path id="path654" d="m71.008 1362.2h46.705"/>
  <path id="path656" d="m71.012 1362.3h46.698"/>
  <path id="path658" d="m71.015 1362.4h46.692"/>
  <path id="path660" d="m71.018 1362.4h46.685"/>
  <path id="path662" d="m71.021 1362.5h46.679"/>
  <path id="path664" d="m71.025 1362.6h46.672"/>
  <path id="path666" d="m71.028 1362.7h46.665"/>
  <path id="path668" d="m71.031 1362.7h46.659"/>
  <path id="path670" d="m71.035 1362.8h46.652"/>
  <path id="path672" d="m71.038 1362.9h46.645"/>
  <path id="path674" d="m71.041 1363h46.639"/>
  <path id="path676" d="m71.045 1363h46.632"/>
  <path id="path678" d="m71.048 1363.1h46.626"/>
  <path id="path680" d="m71.058 1363.2h46.606"/>
  <path id="path682" d="m71.068 1363.3h46.586"/>
  <path id="path684" d="m71.078 1363.3h46.566"/>
  <path id="path686" d="m71.087 1363.4h46.547"/>
  <path id="path688" d="m71.097 1363.5h46.527"/>
  <path id="path690" d="m71.107 1363.6h46.507"/>
  <path id="path692" d="m71.117 1363.6h46.487"/>
  <path id="path694" d="m71.127 1363.7h46.467"/>
  <path id="path696" d="m71.137 1363.8h46.447"/>
  <path id="path698" d="m71.147 1363.9h46.427"/>
  <path id="path700" d="m71.157 1364h46.407"/>
  <path id="path702" d="m71.167 1364h46.387"/>
  <path id="path704" d="m71.177 1364.1h46.368"/>
  <path id="path706" d="m71.187 1364.2h46.348"/>
  <path id="path708" d="m71.197 1364.3h46.328"/>
  <path id="path710" d="m71.207 1364.3h46.308"/>
  <path id="path712" d="m71.217 1364.4h46.288"/>
  <path id="path714" d="m71.227 1364.5h46.268"/>
  <path id="path716" d="m71.237 1364.6h46.248"/>
  <path id="path718" d="m71.246 1364.6h46.229"/>
  <path id="path720" d="m71.256 1364.7h46.209"/>
  <path id="path722" d="m71.266 1364.8h46.189"/>
  <path id="path724" d="m71.276 1364.9h46.169"/>
  <path id="path726" d="m71.286 1364.9h46.149"/>
  <path id="path728" d="m71.296 1365h46.129"/>
  <path id="path730" d="m71.306 1365.1h46.109"/>
  <path id="path732" d="m71.317 1365.2h46.087"/>
  <path id="path734" d="m71.334 1365.2h46.053"/>
  <path id="path736" d="m71.351 1365.3h46.02"/>
  <path id="path738" d="m71.367 1365.4h45.987"/>
  <path id="path740" d="m71.384 1365.5h45.953"/>
  <path id="path742" d="m71.401 1365.5h45.92"/>
  <path id="path744" d="m71.418 1365.6h45.886"/>
  <path id="path746" d="m71.434 1365.7h45.853"/>
  <path id="path748" d="m71.451 1365.8h45.819"/>
  <path id="path750" d="m71.468 1365.8h45.786"/>
  <path id="path752" d="m71.485 1365.9h45.752"/>
  <path id="path754" d="m71.501 1366h45.719"/>
  <path id="path756" d="m71.518 1366.1h45.685"/>
  <path id="path758" d="m71.535 1366.1h45.652"/>
  <path id="path760" d="m71.551 1366.2h45.619"/>
  <path id="path762" d="m71.568 1366.3h45.585"/>
  <path id="path764" d="m71.585 1366.4h45.551"/>
  <path id="path766" d="m71.602 1366.4h45.518"/>
  <path id="path768" d="m71.618 1366.5h45.485"/>
  <path id="path770" d="m71.635 1366.6h45.451"/>
  <path id="path772" d="m71.652 1366.7h45.418"/>
  <path id="path774" d="m71.669 1366.7h45.384"/>
  <path id="path776" d="m71.685 1366.8h45.351"/>
  <path id="path778" d="m71.702 1366.9h45.317"/>
  <path id="path780" d="m71.719 1367h45.284"/>
  <path id="path782" d="m71.736 1367h45.25"/>
  <path id="path784" d="m71.752 1367.1h45.217"/>
  <path id="path786" d="m71.774 1367.2h45.173"/>
  <path id="path788" d="m71.798 1367.3h45.125"/>
  <path id="path790" d="m71.822 1367.3h45.077"/>
  <path id="path792" d="m71.846 1367.4h45.03"/>
  <path id="path794" d="m71.87 1367.5h44.982"/>
  <path id="path796" d="m71.893 1367.6h44.935"/>
  <path id="path798" d="m71.917 1367.7h44.887"/>
  <path id="path800" d="m71.941 1367.7h44.839"/>
  <path id="path802" d="m71.965 1367.8h44.792"/>
  <path id="path804" d="m71.989 1367.9h44.744"/>
  <path id="path806" d="m72.012 1368h44.697"/>
  <path id="path808" d="m72.036 1368h44.649"/>
  <path id="path810" d="m72.06 1368.1h44.601"/>
  <path id="path812" d="m72.084 1368.2h44.554"/>
  <path id="path814" d="m72.108 1368.3h44.506"/>
  <path id="path816" d="m72.132 1368.3h44.458"/>
  <path id="path818" d="m72.155 1368.4h44.411"/>
  <path id="path820" d="m72.179 1368.5h44.363"/>
  <path id="path822" d="m72.203 1368.6h44.316"/>
  <path id="path824" d="m72.227 1368.6h44.268"/>
  <path id="path826" d="m72.251 1368.7h44.22"/>
  <path id="path828" d="m72.274 1368.8h44.173"/>
  <path id="path830" d="m72.298 1368.9h44.125"/>
  <path id="path832" d="m72.322 1368.9h44.078"/>
  <path id="path834" d="m72.346 1369h44.03"/>
  <path id="path836" d="m72.37 1369.1h43.982"/>
  <path id="path838" d="m72.401 1369.2h43.92"/>
  <path id="path840" d="m72.432 1369.2h43.858"/>
  <path id="path842" d="m72.463 1369.3h43.795"/>
  <path id="path844" d="m72.494 1369.4h43.733"/>
  <path id="path846" d="m72.526 1369.5h43.67"/>
  <path id="path848" d="m72.557 1369.5h43.607"/>
  <path id="path850" d="m72.588 1369.6h43.545"/>
  <path id="path852" d="m72.619 1369.7h43.483"/>
  <path id="path854" d="m72.651 1369.8h43.42"/>
  <path id="path856" d="m72.682 1369.8h43.357"/>
  <path id="path858" d="m72.713 1369.9h43.295"/>
  <path id="path860" d="m72.745 1370h43.232"/>
  <path id="path862" d="m72.776 1370.1h43.17"/>
  <path id="path864" d="m72.807 1370.1h43.107"/>
  <path id="path866" d="m72.838 1370.2h43.045"/>
  <path id="path868" d="m72.87 1370.3h42.982"/>
  <path id="path870" d="m72.901 1370.4h42.92"/>
  <path id="path872" d="m72.932 1370.4h42.857"/>
  <path id="path874" d="m72.963 1370.5h42.795"/>
  <path id="path876" d="m72.995 1370.6h42.732"/>
  <path id="path878" d="m73.026 1370.7h42.669"/>
  <path id="path880" d="m73.057 1370.7h42.607"/>
  <path id="path882" d="m73.088 1370.8h42.545"/>
  <path id="path884" d="m73.12 1370.9h42.482"/>
  <path id="path886" d="m73.151 1371h42.419"/>
  <path id="path888" d="m73.19 1371h42.341"/>
  <path id="path890" d="m73.23 1371.1h42.262"/>
  <path id="path892" d="m73.269 1371.2h42.184"/>
  <path id="path894" d="m73.308 1371.3h42.105"/>
  <path id="path896" d="m73.347 1371.4h42.027"/>
  <path id="path898" d="m73.387 1371.4h41.948"/>
  <path id="path900" d="m73.426 1371.5h41.869"/>
  <path id="path902" d="m73.465 1371.6h41.791"/>
  <path id="path904" d="m73.505 1371.7h41.712"/>
  <path id="path906" d="m73.544 1371.7h41.634"/>
  <path id="path908" d="m73.583 1371.8h41.555"/>
  <path id="path910" d="m73.623 1371.9h41.476"/>
  <path id="path912" d="m73.662 1372h41.398"/>
  <path id="path914" d="m73.701 1372h41.319"/>
  <path id="path916" d="m73.74 1372.1h41.241"/>
  <path id="path918" d="m73.78 1372.2h41.162"/>
  <path id="path920" d="m73.819 1372.3h41.083"/>
  <path id="path922" d="m73.858 1372.3h41.005"/>
  <path id="path924" d="m73.898 1372.4h40.926"/>
  <path id="path926" d="m73.937 1372.5h40.848"/>
  <path id="path928" d="m73.976 1372.6h40.769"/>
  <path id="path930" d="m74.016 1372.6h40.69"/>
  <path id="path932" d="m74.055 1372.7h40.612"/>
  <path id="path934" d="m74.094 1372.8h40.533"/>
  <path id="path936" d="m74.142 1372.9h40.437"/>
  <path id="path938" d="m74.19 1372.9h40.341"/>
  <path id="path940" d="m74.238 1373h40.245"/>
  <path id="path942" d="m74.286 1373.1h40.149"/>
  <path id="path944" d="m74.335 1373.2h40.052"/>
  <path id="path946" d="m74.383 1373.2h39.956"/>
  <path id="path948" d="m74.431 1373.3h39.86"/>
  <path id="path950" d="m74.479 1373.4h39.764"/>
  <path id="path952" d="m74.527 1373.5h39.668"/>
  <path id="path954" d="m74.575 1373.5h39.571"/>
  <path id="path956" d="m74.623 1373.6h39.475"/>
  <path id="path958" d="m74.671 1373.7h39.379"/>
  <path id="path960" d="m74.719 1373.8h39.283"/>
  <path id="path962" d="m74.767 1373.8h39.187"/>
  <path id="path964" d="m74.815 1373.9h39.091"/>
  <path id="path966" d="m74.864 1374h38.994"/>
  <path id="path968" d="m74.912 1374.1h38.898"/>
  <path id="path970" d="m74.96 1374.1h38.802"/>
  <path id="path972" d="m75.008 1374.2h38.706"/>
  <path id="path974" d="m75.056 1374.3h38.609"/>
  <path id="path976" d="m75.104 1374.4h38.513"/>
  <path id="path978" d="m75.152 1374.4h38.417"/>
  <path id="path980" d="m75.202 1374.5h38.317"/>
  <path id="path982" d="m75.26 1374.6h38.201"/>
  <path id="path984" d="m75.318 1374.7h38.085"/>
  <path id="path986" d="m75.376 1374.7h37.97"/>
  <path id="path988" d="m75.434 1374.8h37.854"/>
  <path id="path990" d="m75.492 1374.9h37.738"/>
  <path id="path992" d="m75.55 1375h37.622"/>
  <path id="path994" d="m75.608 1375h37.506"/>
  <path id="path996" d="m75.666 1375.1h37.39"/>
  <path id="path998" d="m75.723 1375.2h37.275"/>
  <path id="path1000" d="m75.781 1375.3h37.159"/>
  <path id="path1002" d="m75.839 1375.4h37.043"/>
  <path id="path1004" d="m75.897 1375.4h36.927"/>
  <path id="path1006" d="m75.955 1375.5h36.811"/>
  <path id="path1008" d="m76.013 1375.6h36.695"/>
  <path id="path1010" d="m76.071 1375.7h36.579"/>
  <path id="path1012" d="m76.129 1375.7h36.464"/>
  <path id="path1014" d="m76.187 1375.8h36.348"/>
  <path id="path1016" d="m76.245 1375.9h36.232"/>
  <path id="path1018" d="m76.303 1376h36.116"/>
  <path id="path1020" d="m76.361 1376h36"/>
  <path id="path1022" d="m76.419 1376.1h35.884"/>
  <path id="path1024" d="m76.485 1376.2h35.752"/>
  <path id="path1026" d="m76.554 1376.3h35.613"/>
  <path id="path1028" d="m76.623 1376.3h35.475"/>
  <path id="path1030" d="m76.692 1376.4h35.337"/>
  <path id="path1032" d="m76.761 1376.5h35.199"/>
  <path id="path1034" d="m76.831 1376.6h35.06"/>
  <path id="path1036" d="m76.9 1376.6h34.922"/>
  <path id="path1038" d="m76.969 1376.7h34.783"/>
  <path id="path1040" d="m77.038 1376.8h34.645"/>
  <path id="path1042" d="m77.107 1376.9h34.507"/>
  <path id="path1044" d="m77.176 1376.9h34.369"/>
  <path id="path1046" d="m77.246 1377h34.23"/>
  <path id="path1048" d="m77.315 1377.1h34.092"/>
  <path id="path1050" d="m77.384 1377.2h33.953"/>
  <path id="path1052" d="m77.453 1377.2h33.815"/>
  <path id="path1054" d="m77.522 1377.3h33.677"/>
  <path id="path1056" d="m77.592 1377.4h33.538"/>
  <path id="path1058" d="m77.661 1377.5h33.4"/>
  <path id="path1060" d="m77.73 1377.5h33.262"/>
  <path id="path1062" d="m77.799 1377.6h33.123"/>
  <path id="path1064" d="m77.879 1377.7h32.964"/>
  <path id="path1066" d="m77.961 1377.8h32.799"/>
  <path id="path1068" d="m78.044 1377.8h32.634"/>
  <path id="path1070" d="m78.126 1377.9h32.47"/>
  <path id="path1072" d="m78.208 1378h32.305"/>
  <path id="path1074" d="m78.291 1378.1h32.14"/>
  <path id="path1076" d="m78.373 1378.1h31.975"/>
  <path id="path1078" d="m78.455 1378.2h31.811"/>
  <path id="path1080" d="m78.538 1378.3h31.646"/>
  <path id="path1082" d="m78.62 1378.4h31.481"/>
  <path id="path1084" d="m78.703 1378.4h31.316"/>
  <path id="path1086" d="m78.785 1378.5h31.151"/>
  <path id="path1088" d="m78.867 1378.6h30.987"/>
  <path id="path1090" d="m78.95 1378.7h30.822"/>
  <path id="path1092" d="m79.032 1378.7h30.657"/>
  <path id="path1094" d="m79.114 1378.8h30.493"/>
  <path id="path1096" d="m79.197 1378.9h30.328"/>
  <path id="path1098" d="m79.279 1379h30.163"/>
  <path id="path1100" d="m79.37 1379h29.981"/>
  <path id="path1102" d="m79.468 1379.1h29.785"/>
  <path id="path1104" d="m79.567 1379.2h29.588"/>
  <path id="path1106" d="m79.665 1379.3h29.391"/>
  <path id="path1108" d="m79.764 1379.4h29.194"/>
  <path id="path1110" d="m79.862 1379.4h28.998"/>
  <path id="path1112" d="m79.96 1379.5h28.801"/>
  <path id="path1114" d="m80.059 1379.6h28.604"/>
  <path id="path1116" d="m80.157 1379.7h28.407"/>
  <path id="path1118" d="m80.255 1379.7h28.211"/>
  <path id="path1120" d="m80.354 1379.8h28.014"/>
  <path id="path1122" d="m80.452 1379.9h27.817"/>
  <path id="path1124" d="m80.551 1380h27.62"/>
  <path id="path1126" d="m80.649 1380h27.423"/>
  <path id="path1128" d="m80.747 1380.1h27.227"/>
  <path id="path1130" d="m80.846 1380.2h27.03"/>
  <path id="path1132" d="m80.945 1380.3h26.831"/>
  <path id="path1134" d="m81.064 1380.3h26.593"/>
  <path id="path1136" d="m81.182 1380.4h26.357"/>
  <path id="path1138" d="m81.301 1380.5h26.12"/>
  <path id="path1140" d="m81.419 1380.6h25.883"/>
  <path id="path1142" d="m81.538 1380.6h25.646"/>
  <path id="path1144" d="m81.656 1380.7h25.409"/>
  <path id="path1146" d="m81.775 1380.8h25.172"/>
  <path id="path1148" d="m81.893 1380.9h24.935"/>
  <path id="path1150" d="m82.012 1380.9h24.698"/>
  <path id="path1152" d="m82.13 1381h24.461"/>
  <path id="path1154" d="m82.249 1381.1h24.224"/>
  <path id="path1156" d="m82.367 1381.2h23.987"/>
  <path id="path1158" d="m82.486 1381.2h23.75"/>
  <path id="path1160" d="m82.604 1381.3h23.513"/>
  <path id="path1162" d="m82.737 1381.4h23.247"/>
  <path id="path1164" d="m82.882 1381.5h22.957"/>
  <path id="path1166" d="m83.027 1381.5h22.667"/>
  <path id="path1168" d="m83.172 1381.6h22.377"/>
  <path id="path1170" d="m83.317 1381.7h22.087"/>
  <path id="path1172" d="m83.462 1381.8h21.797"/>
  <path id="path1174" d="m83.607 1381.8h21.507"/>
  <path id="path1176" d="m83.752 1381.9h21.217"/>
  <path id="path1178" d="m83.897 1382h20.927"/>
  <path id="path1180" d="m84.042 1382.1h20.637"/>
  <path id="path1182" d="m84.187 1382.1h20.347"/>
  <path id="path1184" d="m84.332 1382.2h20.057"/>
  <path id="path1186" d="m84.479 1382.3h19.764"/>
  <path id="path1188" d="m84.661 1382.4h19.399"/>
  <path id="path1190" d="m84.843 1382.4h19.035"/>
  <path id="path1192" d="m85.025 1382.5h18.671"/>
  <path id="path1194" d="m85.208 1382.6h18.306"/>
  <path id="path1196" d="m85.39 1382.7h17.941"/>
  <path id="path1198" d="m85.572 1382.7h17.577"/>
  <path id="path1200" d="m85.754 1382.8h17.213"/>
  <path id="path1202" d="m85.937 1382.9h16.848"/>
  <path id="path1204" d="m86.119 1383h16.483"/>
  <path id="path1206" d="m86.301 1383.1h16.119"/>
  <path id="path1208" d="m86.523 1383.1h15.675"/>
  <path id="path1210" d="m86.763 1383.2h15.196"/>
  <path id="path1212" d="m87.002 1383.3h14.717"/>
  <path id="path1214" d="m87.241 1383.4h14.239"/>
  <path id="path1216" d="m87.481 1383.4h13.76"/>
  <path id="path1218" d="m87.72 1383.5h13.281"/>
  <path id="path1220" d="m87.96 1383.6h12.802"/>
  <path id="path1222" d="m88.199 1383.7h12.323"/>
  <path id="path1224" d="m88.496 1383.7h11.73"/>
  <path id="path1226" d="m88.836 1383.8h11.049"/>
  <path id="path1228" d="m89.177 1383.9h10.368"/>
  <path id="path1230" d="m89.517 1384h9.687"/>
  <path id="path1232" d="m89.858 1384h9.006"/>
  <path id="path1234" d="m90.198 1384.1h8.325"/>
  <path id="path1236" d="m90.704 1384.2h7.314"/>
  <path id="path1238" d="m91.277 1384.3h6.167"/>
  <path id="path1240" d="m91.851 1384.3h5.02"/>
  <path id="path1242" d="m92.631 1384.4h3.459"/>
  <path id="path1244" d="m2.2634 1429h187.21l-97.382-566.93-93.607 565.42"/>
 </g>
</svg>
