<?xml version="1.0" encoding="UTF-8" standalone="no"?>
<svg
   width="207.41473"
   height="575.76776"
   viewBox="0 0 207.41474 575.76774"
   version="1.1"
   id="svg1248"
   sodipodi:docname="AISSLP01.hpgl.svg"
   inkscape:version="1.1.2 (0a00cf5339, 2022-02-04)"
   xmlns:inkscape="http://www.inkscape.org/namespaces/inkscape"
   xmlns:sodipodi="http://sodipodi.sourceforge.net/DTD/sodipodi-0.dtd"
   xmlns="http://www.w3.org/2000/svg"
   xmlns:svg="http://www.w3.org/2000/svg">
  <defs
     id="defs1252" />
  <sodipodi:namedview
     id="namedview1250"
     pagecolor="#ffffff"
     bordercolor="#666666"
     borderopacity="1.0"
     inkscape:pageshadow="2"
     inkscape:pageopacity="0.0"
     inkscape:pagecheckerboard="0"
     showgrid="false"
     inkscape:zoom="1.2682364"
     inkscape:cx="104.08154"
     inkscape:cy="-577.5737"
     inkscape:window-width="1495"
     inkscape:window-height="970"
     inkscape:window-x="0"
     inkscape:window-y="32"
     inkscape:window-maximized="0"
     inkscape:current-layer="svg1248" />
  <g
     id="g2"
     transform="translate(8.9681878,-860.81531)" />
  <g
     style="fill:none;stroke:#000000;stroke-width:1mm"
     id="g4"
     transform="translate(8.9681878,-860.81531)" />
  <g
     style="fill:none;stroke:#000000;stroke-width:4mm"
     id="g1246"
     transform="translate(8.9681878,-860.81531)">
    <path
       d="m 92.63236,1337.757 h 3.457"
       id="path6" />
    <path
       d="m 91.85136,1337.832 h 5.02"
       id="path8" />
    <path
       d="m 91.27736,1337.908 h 6.167"
       id="path10" />
    <path
       d="m 90.70436,1337.983 h 7.314"
       id="path12" />
    <path
       d="m 90.19836,1338.059 h 8.325"
       id="path14" />
    <path
       d="m 89.85836,1338.134 h 9.006"
       id="path16" />
    <path
       d="m 89.51736,1338.21 h 9.687"
       id="path18" />
    <path
       d="m 89.17736,1338.285 h 10.368"
       id="path20" />
    <path
       d="m 88.83636,1338.361 h 11.049"
       id="path22" />
    <path
       d="m 88.49536,1338.436 h 11.731"
       id="path24" />
    <path
       d="m 88.19936,1338.512 h 12.323"
       id="path26" />
    <path
       d="m 87.96036,1338.587 h 12.802"
       id="path28" />
    <path
       d="m 87.72036,1338.663 h 13.281"
       id="path30" />
    <path
       d="m 87.48136,1338.738 h 13.76"
       id="path32" />
    <path
       d="m 87.24136,1338.814 h 14.239"
       id="path34" />
    <path
       d="m 87.00236,1338.889 h 14.717"
       id="path36" />
    <path
       d="m 86.76336,1338.965 h 15.196"
       id="path38" />
    <path
       d="m 86.52336,1339.04 h 15.675"
       id="path40" />
    <path
       d="m 86.30136,1339.116 h 16.119"
       id="path42" />
    <path
       d="m 86.11936,1339.191 h 16.483"
       id="path44" />
    <path
       d="m 85.93736,1339.266 h 16.848"
       id="path46" />
    <path
       d="m 85.75536,1339.342 h 17.212"
       id="path48" />
    <path
       d="m 85.57236,1339.417 h 17.577"
       id="path50" />
    <path
       d="m 85.39036,1339.493 h 17.941"
       id="path52" />
    <path
       d="m 85.20836,1339.568 h 18.306"
       id="path54" />
    <path
       d="m 85.02636,1339.644 h 18.67"
       id="path56" />
    <path
       d="m 84.84336,1339.719 h 19.035"
       id="path58" />
    <path
       d="m 84.66136,1339.795 h 19.399"
       id="path60" />
    <path
       d="m 84.47936,1339.87 h 19.764"
       id="path62" />
    <path
       d="m 84.33236,1339.946 h 20.057"
       id="path64" />
    <path
       d="m 84.18736,1340.021 h 20.347"
       id="path66" />
    <path
       d="m 84.04236,1340.097 h 20.637"
       id="path68" />
    <path
       d="m 83.89736,1340.172 h 20.927"
       id="path70" />
    <path
       d="m 83.75236,1340.248 h 21.217"
       id="path72" />
    <path
       d="m 83.60736,1340.323 h 21.507"
       id="path74" />
    <path
       d="m 83.46236,1340.399 h 21.797"
       id="path76" />
    <path
       d="m 83.31736,1340.474 h 22.087"
       id="path78" />
    <path
       d="m 83.17236,1340.55 h 22.377"
       id="path80" />
    <path
       d="m 83.02736,1340.625 h 22.667"
       id="path82" />
    <path
       d="m 82.88236,1340.701 h 22.957"
       id="path84" />
    <path
       d="m 82.73736,1340.776 h 23.247"
       id="path86" />
    <path
       d="m 82.60436,1340.852 h 23.513"
       id="path88" />
    <path
       d="m 82.48636,1340.927 h 23.75"
       id="path90" />
    <path
       d="m 82.36736,1341.003 h 23.987"
       id="path92" />
    <path
       d="m 82.24936,1341.078 h 24.224"
       id="path94" />
    <path
       d="m 82.13036,1341.154 h 24.461"
       id="path96" />
    <path
       d="m 82.01236,1341.229 h 24.698"
       id="path98" />
    <path
       d="m 81.89336,1341.305 h 24.935"
       id="path100" />
    <path
       d="m 81.77536,1341.38 h 25.172"
       id="path102" />
    <path
       d="m 81.65636,1341.456 h 25.409"
       id="path104" />
    <path
       d="m 81.53836,1341.531 h 25.646"
       id="path106" />
    <path
       d="m 81.41936,1341.607 h 25.883"
       id="path108" />
    <path
       d="m 81.30136,1341.682 h 26.12"
       id="path110" />
    <path
       d="m 81.18236,1341.758 h 26.357"
       id="path112" />
    <path
       d="m 81.06436,1341.833 h 26.593"
       id="path114" />
    <path
       d="m 80.94536,1341.909 h 26.831"
       id="path116" />
    <path
       d="m 80.84636,1341.984 h 27.03"
       id="path118" />
    <path
       d="m 80.74736,1342.06 h 27.227"
       id="path120" />
    <path
       d="m 80.64936,1342.135 h 27.423"
       id="path122" />
    <path
       d="m 80.55136,1342.211 h 27.62"
       id="path124" />
    <path
       d="m 80.45236,1342.286 h 27.817"
       id="path126" />
    <path
       d="m 80.35436,1342.362 h 28.014"
       id="path128" />
    <path
       d="m 80.25636,1342.437 h 28.21"
       id="path130" />
    <path
       d="m 80.15736,1342.513 h 28.407"
       id="path132" />
    <path
       d="m 80.05936,1342.588 h 28.604"
       id="path134" />
    <path
       d="m 79.96036,1342.663 h 28.801"
       id="path136" />
    <path
       d="m 79.86236,1342.739 h 28.998"
       id="path138" />
    <path
       d="m 79.76436,1342.815 h 29.194"
       id="path140" />
    <path
       d="m 79.66536,1342.89 h 29.391"
       id="path142" />
    <path
       d="m 79.56736,1342.965 h 29.588"
       id="path144" />
    <path
       d="m 79.46836,1343.041 h 29.785"
       id="path146" />
    <path
       d="m 79.37036,1343.116 h 29.981"
       id="path148" />
    <path
       d="m 79.27936,1343.192 h 30.163"
       id="path150" />
    <path
       d="m 79.19736,1343.267 h 30.328"
       id="path152" />
    <path
       d="m 79.11536,1343.343 h 30.492"
       id="path154" />
    <path
       d="m 79.03236,1343.418 h 30.657"
       id="path156" />
    <path
       d="m 78.95036,1343.494 h 30.822"
       id="path158" />
    <path
       d="m 78.86736,1343.569 h 30.987"
       id="path160" />
    <path
       d="m 78.78536,1343.645 h 31.151"
       id="path162" />
    <path
       d="m 78.70336,1343.72 h 31.316"
       id="path164" />
    <path
       d="m 78.62036,1343.796 h 31.481"
       id="path166" />
    <path
       d="m 78.53836,1343.871 h 31.646"
       id="path168" />
    <path
       d="m 78.45536,1343.947 h 31.811"
       id="path170" />
    <path
       d="m 78.37336,1344.022 h 31.975"
       id="path172" />
    <path
       d="m 78.29136,1344.098 h 32.14"
       id="path174" />
    <path
       d="m 78.20836,1344.173 h 32.305"
       id="path176" />
    <path
       d="m 78.12636,1344.249 h 32.47"
       id="path178" />
    <path
       d="m 78.04436,1344.324 h 32.634"
       id="path180" />
    <path
       d="m 77.96136,1344.4 h 32.799"
       id="path182" />
    <path
       d="m 77.87936,1344.475 h 32.964"
       id="path184" />
    <path
       d="m 77.79936,1344.551 h 33.123"
       id="path186" />
    <path
       d="m 77.73036,1344.626 h 33.262"
       id="path188" />
    <path
       d="m 77.66136,1344.702 h 33.4"
       id="path190" />
    <path
       d="m 77.59236,1344.777 h 33.538"
       id="path192" />
    <path
       d="m 77.52236,1344.853 h 33.677"
       id="path194" />
    <path
       d="m 77.45336,1344.928 h 33.815"
       id="path196" />
    <path
       d="m 77.38436,1345.004 h 33.953"
       id="path198" />
    <path
       d="m 77.31536,1345.079 h 34.092"
       id="path200" />
    <path
       d="m 77.24636,1345.155 h 34.23"
       id="path202" />
    <path
       d="m 77.17636,1345.23 h 34.369"
       id="path204" />
    <path
       d="m 77.10736,1345.306 h 34.507"
       id="path206" />
    <path
       d="m 77.03836,1345.381 h 34.645"
       id="path208" />
    <path
       d="m 76.96936,1345.457 h 34.783"
       id="path210" />
    <path
       d="m 76.90036,1345.532 h 34.922"
       id="path212" />
    <path
       d="m 76.83136,1345.608 h 35.06"
       id="path214" />
    <path
       d="m 76.76136,1345.683 h 35.199"
       id="path216" />
    <path
       d="m 76.69236,1345.759 h 35.337"
       id="path218" />
    <path
       d="m 76.62336,1345.834 h 35.475"
       id="path220" />
    <path
       d="m 76.55436,1345.91 h 35.613"
       id="path222" />
    <path
       d="m 76.48536,1345.985 h 35.752"
       id="path224" />
    <path
       d="m 76.41936,1346.061 h 35.884"
       id="path226" />
    <path
       d="m 76.36136,1346.136 h 36"
       id="path228" />
    <path
       d="m 76.30336,1346.212 h 36.116"
       id="path230" />
    <path
       d="m 76.24536,1346.287 h 36.232"
       id="path232" />
    <path
       d="m 76.18736,1346.363 h 36.348"
       id="path234" />
    <path
       d="m 76.12936,1346.438 h 36.464"
       id="path236" />
    <path
       d="m 76.07136,1346.513 h 36.579"
       id="path238" />
    <path
       d="m 76.01336,1346.589 h 36.695"
       id="path240" />
    <path
       d="m 75.95536,1346.664 h 36.811"
       id="path242" />
    <path
       d="m 75.89736,1346.74 h 36.927"
       id="path244" />
    <path
       d="m 75.83936,1346.815 h 37.043"
       id="path246" />
    <path
       d="m 75.78136,1346.891 h 37.159"
       id="path248" />
    <path
       d="m 75.72336,1346.966 h 37.275"
       id="path250" />
    <path
       d="m 75.66636,1347.042 h 37.39"
       id="path252" />
    <path
       d="m 75.60836,1347.117 h 37.506"
       id="path254" />
    <path
       d="m 75.55036,1347.193 h 37.622"
       id="path256" />
    <path
       d="m 75.49236,1347.268 h 37.738"
       id="path258" />
    <path
       d="m 75.43436,1347.344 h 37.854"
       id="path260" />
    <path
       d="m 75.37636,1347.419 h 37.97"
       id="path262" />
    <path
       d="m 75.31836,1347.495 h 38.085"
       id="path264" />
    <path
       d="m 75.26036,1347.57 h 38.201"
       id="path266" />
    <path
       d="m 75.20236,1347.646 h 38.317"
       id="path268" />
    <path
       d="m 75.15236,1347.721 h 38.417"
       id="path270" />
    <path
       d="m 75.10436,1347.797 h 38.513"
       id="path272" />
    <path
       d="m 75.05636,1347.872 h 38.609"
       id="path274" />
    <path
       d="m 75.00836,1347.948 h 38.706"
       id="path276" />
    <path
       d="m 74.96036,1348.023 h 38.802"
       id="path278" />
    <path
       d="m 74.91236,1348.099 h 38.898"
       id="path280" />
    <path
       d="m 74.86436,1348.174 h 38.994"
       id="path282" />
    <path
       d="m 74.81536,1348.25 h 39.091"
       id="path284" />
    <path
       d="m 74.76736,1348.325 h 39.187"
       id="path286" />
    <path
       d="m 74.71936,1348.401 h 39.283"
       id="path288" />
    <path
       d="m 74.67136,1348.476 h 39.379"
       id="path290" />
    <path
       d="m 74.62336,1348.552 h 39.475"
       id="path292" />
    <path
       d="m 74.57536,1348.627 h 39.571"
       id="path294" />
    <path
       d="m 74.52736,1348.703 h 39.667"
       id="path296" />
    <path
       d="m 74.47936,1348.778 h 39.764"
       id="path298" />
    <path
       d="m 74.43136,1348.854 h 39.86"
       id="path300" />
    <path
       d="m 74.38336,1348.929 h 39.956"
       id="path302" />
    <path
       d="m 74.33536,1349.005 h 40.052"
       id="path304" />
    <path
       d="m 74.28636,1349.08 h 40.149"
       id="path306" />
    <path
       d="m 74.23836,1349.156 h 40.245"
       id="path308" />
    <path
       d="m 74.19036,1349.231 h 40.341"
       id="path310" />
    <path
       d="m 74.14236,1349.307 h 40.437"
       id="path312" />
    <path
       d="m 74.09436,1349.382 h 40.533"
       id="path314" />
    <path
       d="m 74.05536,1349.458 h 40.612"
       id="path316" />
    <path
       d="m 74.01536,1349.533 h 40.691"
       id="path318" />
    <path
       d="m 73.97636,1349.609 h 40.769"
       id="path320" />
    <path
       d="m 73.93736,1349.684 h 40.848"
       id="path322" />
    <path
       d="m 73.89836,1349.76 h 40.926"
       id="path324" />
    <path
       d="m 73.85836,1349.835 h 41.005"
       id="path326" />
    <path
       d="m 73.81936,1349.911 h 41.083"
       id="path328" />
    <path
       d="m 73.78036,1349.986 h 41.162"
       id="path330" />
    <path
       d="m 73.74036,1350.062 h 41.241"
       id="path332" />
    <path
       d="m 73.70136,1350.137 h 41.319"
       id="path334" />
    <path
       d="m 73.66236,1350.212 h 41.398"
       id="path336" />
    <path
       d="m 73.62336,1350.288 h 41.476"
       id="path338" />
    <path
       d="m 73.58336,1350.364 h 41.555"
       id="path340" />
    <path
       d="m 73.54436,1350.439 h 41.634"
       id="path342" />
    <path
       d="m 73.50536,1350.514 h 41.712"
       id="path344" />
    <path
       d="m 73.46536,1350.59 h 41.791"
       id="path346" />
    <path
       d="m 73.42636,1350.665 h 41.869"
       id="path348" />
    <path
       d="m 73.38736,1350.741 h 41.948"
       id="path350" />
    <path
       d="m 73.34736,1350.816 h 42.027"
       id="path352" />
    <path
       d="m 73.30836,1350.892 h 42.105"
       id="path354" />
    <path
       d="m 73.26936,1350.967 h 42.184"
       id="path356" />
    <path
       d="m 73.23036,1351.043 h 42.262"
       id="path358" />
    <path
       d="m 73.19036,1351.118 h 42.341"
       id="path360" />
    <path
       d="m 73.15136,1351.194 h 42.419"
       id="path362" />
    <path
       d="m 73.12036,1351.269 h 42.482"
       id="path364" />
    <path
       d="m 73.08836,1351.345 h 42.545"
       id="path366" />
    <path
       d="m 73.05736,1351.42 h 42.607"
       id="path368" />
    <path
       d="m 73.02636,1351.496 h 42.669"
       id="path370" />
    <path
       d="m 72.99536,1351.571 h 42.732"
       id="path372" />
    <path
       d="m 72.96336,1351.647 h 42.795"
       id="path374" />
    <path
       d="m 72.93236,1351.722 h 42.857"
       id="path376" />
    <path
       d="m 72.90136,1351.798 h 42.92"
       id="path378" />
    <path
       d="m 72.87036,1351.873 h 42.982"
       id="path380" />
    <path
       d="m 72.83836,1351.949 h 43.045"
       id="path382" />
    <path
       d="m 72.80736,1352.024 h 43.107"
       id="path384" />
    <path
       d="m 72.77636,1352.1 h 43.17"
       id="path386" />
    <path
       d="m 72.74536,1352.175 h 43.232"
       id="path388" />
    <path
       d="m 72.71336,1352.251 h 43.295"
       id="path390" />
    <path
       d="m 72.68236,1352.326 h 43.357"
       id="path392" />
    <path
       d="m 72.65136,1352.402 h 43.42"
       id="path394" />
    <path
       d="m 72.61936,1352.477 h 43.483"
       id="path396" />
    <path
       d="m 72.58836,1352.553 h 43.545"
       id="path398" />
    <path
       d="m 72.55736,1352.628 h 43.607"
       id="path400" />
    <path
       d="m 72.52636,1352.704 h 43.67"
       id="path402" />
    <path
       d="m 72.49436,1352.779 h 43.733"
       id="path404" />
    <path
       d="m 72.46336,1352.855 h 43.795"
       id="path406" />
    <path
       d="m 72.43236,1352.93 h 43.858"
       id="path408" />
    <path
       d="m 72.40136,1353.006 h 43.92"
       id="path410" />
    <path
       d="m 72.37036,1353.081 h 43.982"
       id="path412" />
    <path
       d="m 72.34636,1353.157 h 44.03"
       id="path414" />
    <path
       d="m 72.32236,1353.232 h 44.078"
       id="path416" />
    <path
       d="m 72.29836,1353.308 h 44.125"
       id="path418" />
    <path
       d="m 72.27436,1353.383 h 44.173"
       id="path420" />
    <path
       d="m 72.25136,1353.459 h 44.22"
       id="path422" />
    <path
       d="m 72.22736,1353.534 h 44.268"
       id="path424" />
    <path
       d="m 72.20336,1353.61 h 44.316"
       id="path426" />
    <path
       d="m 72.17936,1353.685 h 44.363"
       id="path428" />
    <path
       d="m 72.15536,1353.761 h 44.411"
       id="path430" />
    <path
       d="m 72.13236,1353.836 h 44.458"
       id="path432" />
    <path
       d="m 72.10836,1353.912 h 44.506"
       id="path434" />
    <path
       d="m 72.08436,1353.987 h 44.554"
       id="path436" />
    <path
       d="m 72.06036,1354.062 h 44.601"
       id="path438" />
    <path
       d="m 72.03636,1354.138 h 44.649"
       id="path440" />
    <path
       d="m 72.01236,1354.213 h 44.697"
       id="path442" />
    <path
       d="m 71.98936,1354.289 h 44.744"
       id="path444" />
    <path
       d="m 71.96536,1354.364 h 44.792"
       id="path446" />
    <path
       d="m 71.94136,1354.44 h 44.839"
       id="path448" />
    <path
       d="m 71.91736,1354.515 h 44.887"
       id="path450" />
    <path
       d="m 71.89336,1354.591 h 44.935"
       id="path452" />
    <path
       d="m 71.87036,1354.666 h 44.982"
       id="path454" />
    <path
       d="m 71.84636,1354.742 h 45.03"
       id="path456" />
    <path
       d="m 71.82236,1354.817 h 45.077"
       id="path458" />
    <path
       d="m 71.79836,1354.893 h 45.125"
       id="path460" />
    <path
       d="m 71.77436,1354.968 h 45.173"
       id="path462" />
    <path
       d="m 71.75236,1355.044 h 45.217"
       id="path464" />
    <path
       d="m 71.73636,1355.119 h 45.25"
       id="path466" />
    <path
       d="m 71.71936,1355.195 h 45.284"
       id="path468" />
    <path
       d="m 71.70236,1355.27 h 45.317"
       id="path470" />
    <path
       d="m 71.68536,1355.346 h 45.351"
       id="path472" />
    <path
       d="m 71.66936,1355.421 h 45.384"
       id="path474" />
    <path
       d="m 71.65236,1355.497 h 45.418"
       id="path476" />
    <path
       d="m 71.63536,1355.572 h 45.451"
       id="path478" />
    <path
       d="m 71.61836,1355.648 h 45.485"
       id="path480" />
    <path
       d="m 71.60236,1355.723 h 45.518"
       id="path482" />
    <path
       d="m 71.58536,1355.799 h 45.551"
       id="path484" />
    <path
       d="m 71.56836,1355.874 h 45.585"
       id="path486" />
    <path
       d="m 71.55136,1355.95 h 45.619"
       id="path488" />
    <path
       d="m 71.53536,1356.025 h 45.652"
       id="path490" />
    <path
       d="m 71.51836,1356.101 h 45.685"
       id="path492" />
    <path
       d="m 71.50136,1356.176 h 45.719"
       id="path494" />
    <path
       d="m 71.48536,1356.252 h 45.752"
       id="path496" />
    <path
       d="m 71.46836,1356.327 h 45.786"
       id="path498" />
    <path
       d="m 71.45136,1356.403 h 45.819"
       id="path500" />
    <path
       d="m 71.43436,1356.478 h 45.853"
       id="path502" />
    <path
       d="m 71.41836,1356.554 h 45.886"
       id="path504" />
    <path
       d="m 71.40136,1356.629 h 45.92"
       id="path506" />
    <path
       d="m 71.38436,1356.705 h 45.953"
       id="path508" />
    <path
       d="m 71.36736,1356.78 h 45.987"
       id="path510" />
    <path
       d="m 71.35136,1356.856 h 46.02"
       id="path512" />
    <path
       d="m 71.33436,1356.931 h 46.053"
       id="path514" />
    <path
       d="m 71.31736,1357.007 h 46.087"
       id="path516" />
    <path
       d="m 71.30636,1357.082 h 46.109"
       id="path518" />
    <path
       d="m 71.29636,1357.158 h 46.129"
       id="path520" />
    <path
       d="m 71.28636,1357.233 h 46.149"
       id="path522" />
    <path
       d="m 71.27636,1357.309 h 46.169"
       id="path524" />
    <path
       d="m 71.26636,1357.384 h 46.189"
       id="path526" />
    <path
       d="m 71.25636,1357.459 h 46.209"
       id="path528" />
    <path
       d="m 71.24636,1357.535 h 46.229"
       id="path530" />
    <path
       d="m 71.23736,1357.611 h 46.248"
       id="path532" />
    <path
       d="m 71.22736,1357.686 h 46.268"
       id="path534" />
    <path
       d="m 71.21736,1357.761 h 46.288"
       id="path536" />
    <path
       d="m 71.20736,1357.837 h 46.308"
       id="path538" />
    <path
       d="m 71.19736,1357.913 h 46.328"
       id="path540" />
    <path
       d="m 71.18736,1357.988 h 46.348"
       id="path542" />
    <path
       d="m 71.17736,1358.063 h 46.368"
       id="path544" />
    <path
       d="m 71.16736,1358.139 h 46.387"
       id="path546" />
    <path
       d="m 71.15736,1358.214 h 46.407"
       id="path548" />
    <path
       d="m 71.14736,1358.29 h 46.427"
       id="path550" />
    <path
       d="m 71.13736,1358.365 h 46.447"
       id="path552" />
    <path
       d="m 71.12736,1358.441 h 46.467"
       id="path554" />
    <path
       d="m 71.11736,1358.516 h 46.487"
       id="path556" />
    <path
       d="m 71.10736,1358.592 h 46.507"
       id="path558" />
    <path
       d="m 71.09736,1358.667 h 46.527"
       id="path560" />
    <path
       d="m 71.08736,1358.743 h 46.547"
       id="path562" />
    <path
       d="m 71.07836,1358.818 h 46.566"
       id="path564" />
    <path
       d="m 71.06836,1358.894 h 46.586"
       id="path566" />
    <path
       d="m 71.05836,1358.969 h 46.606"
       id="path568" />
    <path
       d="m 71.04836,1359.045 h 46.626"
       id="path570" />
    <path
       d="m 71.04536,1359.12 h 46.632"
       id="path572" />
    <path
       d="m 71.04136,1359.196 h 46.639"
       id="path574" />
    <path
       d="m 71.03836,1359.271 h 46.645"
       id="path576" />
    <path
       d="m 71.03536,1359.347 h 46.652"
       id="path578" />
    <path
       d="m 71.03136,1359.422 h 46.659"
       id="path580" />
    <path
       d="m 71.02836,1359.498 h 46.665"
       id="path582" />
    <path
       d="m 71.02536,1359.573 h 46.672"
       id="path584" />
    <path
       d="m 71.02136,1359.649 h 46.679"
       id="path586" />
    <path
       d="m 71.01836,1359.724 h 46.685"
       id="path588" />
    <path
       d="m 71.01536,1359.8 h 46.692"
       id="path590" />
    <path
       d="m 71.01236,1359.875 h 46.698"
       id="path592" />
    <path
       d="m 71.00836,1359.951 h 46.705"
       id="path594" />
    <path
       d="m 71.00536,1360.026 h 46.711"
       id="path596" />
    <path
       d="m 71.00236,1360.102 h 46.718"
       id="path598" />
    <path
       d="m 70.99836,1360.177 h 46.725"
       id="path600" />
    <path
       d="m 70.99536,1360.253 h 46.731"
       id="path602" />
    <path
       d="m 70.99236,1360.328 h 46.738"
       id="path604" />
    <path
       d="m 70.98836,1360.404 h 46.745"
       id="path606" />
    <path
       d="m 70.98536,1360.479 h 46.751"
       id="path608" />
    <path
       d="m 70.98236,1360.555 h 46.758"
       id="path610" />
    <path
       d="m 70.97936,1360.63 h 46.764"
       id="path612" />
    <path
       d="m 70.97536,1360.706 h 46.771"
       id="path614" />
    <path
       d="m 70.97236,1360.781 h 46.777"
       id="path616" />
    <path
       d="m 70.96936,1360.857 h 46.784"
       id="path618" />
    <path
       d="m 70.96536,1360.932 h 46.791"
       id="path620" />
    <path
       d="m 70.96236,1361.008 h 46.797"
       id="path622" />
    <path
       d="m 70.95936,1361.083 h 46.804"
       id="path624" />
    <path
       d="m 70.96236,1361.159 h 46.797"
       id="path626" />
    <path
       d="m 70.96536,1361.234 h 46.791"
       id="path628" />
    <path
       d="m 70.96936,1361.31 h 46.784"
       id="path630" />
    <path
       d="m 70.97236,1361.385 h 46.777"
       id="path632" />
    <path
       d="m 70.97536,1361.46 h 46.771"
       id="path634" />
    <path
       d="m 70.97936,1361.536 h 46.764"
       id="path636" />
    <path
       d="m 70.98236,1361.611 h 46.758"
       id="path638" />
    <path
       d="m 70.98536,1361.687 h 46.751"
       id="path640" />
    <path
       d="m 70.98836,1361.762 h 46.745"
       id="path642" />
    <path
       d="m 70.99236,1361.838 h 46.738"
       id="path644" />
    <path
       d="m 70.99536,1361.913 h 46.731"
       id="path646" />
    <path
       d="m 70.99836,1361.989 h 46.725"
       id="path648" />
    <path
       d="m 71.00236,1362.064 h 46.718"
       id="path650" />
    <path
       d="m 71.00536,1362.14 h 46.711"
       id="path652" />
    <path
       d="m 71.00836,1362.215 h 46.705"
       id="path654" />
    <path
       d="m 71.01236,1362.291 h 46.698"
       id="path656" />
    <path
       d="m 71.01536,1362.366 h 46.692"
       id="path658" />
    <path
       d="m 71.01836,1362.442 h 46.685"
       id="path660" />
    <path
       d="m 71.02136,1362.517 h 46.679"
       id="path662" />
    <path
       d="m 71.02536,1362.593 h 46.672"
       id="path664" />
    <path
       d="m 71.02836,1362.668 h 46.665"
       id="path666" />
    <path
       d="m 71.03136,1362.744 h 46.659"
       id="path668" />
    <path
       d="m 71.03536,1362.819 h 46.652"
       id="path670" />
    <path
       d="m 71.03836,1362.895 h 46.645"
       id="path672" />
    <path
       d="m 71.04136,1362.97 h 46.639"
       id="path674" />
    <path
       d="m 71.04536,1363.046 h 46.632"
       id="path676" />
    <path
       d="m 71.04836,1363.121 h 46.626"
       id="path678" />
    <path
       d="m 71.05836,1363.197 h 46.606"
       id="path680" />
    <path
       d="m 71.06836,1363.272 h 46.586"
       id="path682" />
    <path
       d="m 71.07836,1363.348 h 46.566"
       id="path684" />
    <path
       d="m 71.08736,1363.423 h 46.547"
       id="path686" />
    <path
       d="m 71.09736,1363.499 h 46.527"
       id="path688" />
    <path
       d="m 71.10736,1363.574 h 46.507"
       id="path690" />
    <path
       d="m 71.11736,1363.65 h 46.487"
       id="path692" />
    <path
       d="m 71.12736,1363.725 h 46.467"
       id="path694" />
    <path
       d="m 71.13736,1363.801 h 46.447"
       id="path696" />
    <path
       d="m 71.14736,1363.876 h 46.427"
       id="path698" />
    <path
       d="m 71.15736,1363.952 h 46.407"
       id="path700" />
    <path
       d="m 71.16736,1364.027 h 46.387"
       id="path702" />
    <path
       d="m 71.17736,1364.103 h 46.368"
       id="path704" />
    <path
       d="m 71.18736,1364.178 h 46.348"
       id="path706" />
    <path
       d="m 71.19736,1364.254 h 46.328"
       id="path708" />
    <path
       d="m 71.20736,1364.329 h 46.308"
       id="path710" />
    <path
       d="m 71.21736,1364.405 h 46.288"
       id="path712" />
    <path
       d="m 71.22736,1364.48 h 46.268"
       id="path714" />
    <path
       d="m 71.23736,1364.556 h 46.248"
       id="path716" />
    <path
       d="m 71.24636,1364.631 h 46.229"
       id="path718" />
    <path
       d="m 71.25636,1364.707 h 46.209"
       id="path720" />
    <path
       d="m 71.26636,1364.782 h 46.189"
       id="path722" />
    <path
       d="m 71.27636,1364.858 h 46.169"
       id="path724" />
    <path
       d="m 71.28636,1364.933 h 46.149"
       id="path726" />
    <path
       d="m 71.29636,1365.008 h 46.129"
       id="path728" />
    <path
       d="m 71.30636,1365.084 h 46.109"
       id="path730" />
    <path
       d="m 71.31736,1365.16 h 46.087"
       id="path732" />
    <path
       d="m 71.33436,1365.235 h 46.053"
       id="path734" />
    <path
       d="m 71.35136,1365.31 h 46.02"
       id="path736" />
    <path
       d="m 71.36736,1365.386 h 45.987"
       id="path738" />
    <path
       d="m 71.38436,1365.462 h 45.953"
       id="path740" />
    <path
       d="m 71.40136,1365.537 h 45.92"
       id="path742" />
    <path
       d="m 71.41836,1365.612 h 45.886"
       id="path744" />
    <path
       d="m 71.43436,1365.688 h 45.853"
       id="path746" />
    <path
       d="m 71.45136,1365.763 h 45.819"
       id="path748" />
    <path
       d="m 71.46836,1365.839 h 45.786"
       id="path750" />
    <path
       d="m 71.48536,1365.914 h 45.752"
       id="path752" />
    <path
       d="m 71.50136,1365.99 h 45.719"
       id="path754" />
    <path
       d="m 71.51836,1366.065 h 45.685"
       id="path756" />
    <path
       d="m 71.53536,1366.141 h 45.652"
       id="path758" />
    <path
       d="m 71.55136,1366.216 h 45.619"
       id="path760" />
    <path
       d="m 71.56836,1366.292 h 45.585"
       id="path762" />
    <path
       d="m 71.58536,1366.367 h 45.551"
       id="path764" />
    <path
       d="m 71.60236,1366.443 h 45.518"
       id="path766" />
    <path
       d="m 71.61836,1366.518 h 45.485"
       id="path768" />
    <path
       d="m 71.63536,1366.594 h 45.451"
       id="path770" />
    <path
       d="m 71.65236,1366.669 h 45.418"
       id="path772" />
    <path
       d="m 71.66936,1366.745 h 45.384"
       id="path774" />
    <path
       d="m 71.68536,1366.82 h 45.351"
       id="path776" />
    <path
       d="m 71.70236,1366.896 h 45.317"
       id="path778" />
    <path
       d="m 71.71936,1366.971 h 45.284"
       id="path780" />
    <path
       d="m 71.73636,1367.047 h 45.25"
       id="path782" />
    <path
       d="m 71.75236,1367.122 h 45.217"
       id="path784" />
    <path
       d="m 71.77436,1367.198 h 45.173"
       id="path786" />
    <path
       d="m 71.79836,1367.273 h 45.125"
       id="path788" />
    <path
       d="m 71.82236,1367.349 h 45.077"
       id="path790" />
    <path
       d="m 71.84636,1367.424 h 45.03"
       id="path792" />
    <path
       d="m 71.87036,1367.5 h 44.982"
       id="path794" />
    <path
       d="m 71.89336,1367.575 h 44.935"
       id="path796" />
    <path
       d="m 71.91736,1367.651 h 44.887"
       id="path798" />
    <path
       d="m 71.94136,1367.726 h 44.839"
       id="path800" />
    <path
       d="m 71.96536,1367.802 h 44.792"
       id="path802" />
    <path
       d="m 71.98936,1367.877 h 44.744"
       id="path804" />
    <path
       d="m 72.01236,1367.953 h 44.697"
       id="path806" />
    <path
       d="m 72.03636,1368.028 h 44.649"
       id="path808" />
    <path
       d="m 72.06036,1368.104 h 44.601"
       id="path810" />
    <path
       d="m 72.08436,1368.179 h 44.554"
       id="path812" />
    <path
       d="m 72.10836,1368.255 h 44.506"
       id="path814" />
    <path
       d="m 72.13236,1368.33 h 44.458"
       id="path816" />
    <path
       d="m 72.15536,1368.406 h 44.411"
       id="path818" />
    <path
       d="m 72.17936,1368.481 h 44.363"
       id="path820" />
    <path
       d="m 72.20336,1368.557 h 44.316"
       id="path822" />
    <path
       d="m 72.22736,1368.632 h 44.268"
       id="path824" />
    <path
       d="m 72.25136,1368.708 h 44.22"
       id="path826" />
    <path
       d="m 72.27436,1368.783 h 44.173"
       id="path828" />
    <path
       d="m 72.29836,1368.859 h 44.125"
       id="path830" />
    <path
       d="m 72.32236,1368.934 h 44.078"
       id="path832" />
    <path
       d="m 72.34636,1369.009 h 44.03"
       id="path834" />
    <path
       d="m 72.37036,1369.085 h 43.982"
       id="path836" />
    <path
       d="m 72.40136,1369.16 h 43.92"
       id="path838" />
    <path
       d="m 72.43236,1369.236 h 43.858"
       id="path840" />
    <path
       d="m 72.46336,1369.311 h 43.795"
       id="path842" />
    <path
       d="m 72.49436,1369.387 h 43.733"
       id="path844" />
    <path
       d="m 72.52636,1369.462 h 43.67"
       id="path846" />
    <path
       d="m 72.55736,1369.538 h 43.607"
       id="path848" />
    <path
       d="m 72.58836,1369.613 h 43.545"
       id="path850" />
    <path
       d="m 72.61936,1369.689 h 43.483"
       id="path852" />
    <path
       d="m 72.65136,1369.764 h 43.42"
       id="path854" />
    <path
       d="m 72.68236,1369.84 h 43.357"
       id="path856" />
    <path
       d="m 72.71336,1369.915 h 43.295"
       id="path858" />
    <path
       d="m 72.74536,1369.991 h 43.232"
       id="path860" />
    <path
       d="m 72.77636,1370.066 h 43.17"
       id="path862" />
    <path
       d="m 72.80736,1370.142 h 43.107"
       id="path864" />
    <path
       d="m 72.83836,1370.217 h 43.045"
       id="path866" />
    <path
       d="m 72.87036,1370.293 h 42.982"
       id="path868" />
    <path
       d="m 72.90136,1370.368 h 42.92"
       id="path870" />
    <path
       d="m 72.93236,1370.444 h 42.857"
       id="path872" />
    <path
       d="m 72.96336,1370.519 h 42.795"
       id="path874" />
    <path
       d="m 72.99536,1370.595 h 42.732"
       id="path876" />
    <path
       d="m 73.02636,1370.67 h 42.669"
       id="path878" />
    <path
       d="m 73.05736,1370.746 h 42.607"
       id="path880" />
    <path
       d="m 73.08836,1370.821 h 42.545"
       id="path882" />
    <path
       d="m 73.12036,1370.897 h 42.482"
       id="path884" />
    <path
       d="m 73.15136,1370.972 h 42.419"
       id="path886" />
    <path
       d="m 73.19036,1371.048 h 42.341"
       id="path888" />
    <path
       d="m 73.23036,1371.123 h 42.262"
       id="path890" />
    <path
       d="m 73.26936,1371.199 h 42.184"
       id="path892" />
    <path
       d="m 73.30836,1371.274 h 42.105"
       id="path894" />
    <path
       d="m 73.34736,1371.35 h 42.027"
       id="path896" />
    <path
       d="m 73.38736,1371.425 h 41.948"
       id="path898" />
    <path
       d="m 73.42636,1371.501 h 41.869"
       id="path900" />
    <path
       d="m 73.46536,1371.576 h 41.791"
       id="path902" />
    <path
       d="m 73.50536,1371.652 h 41.712"
       id="path904" />
    <path
       d="m 73.54436,1371.727 h 41.634"
       id="path906" />
    <path
       d="m 73.58336,1371.803 h 41.555"
       id="path908" />
    <path
       d="m 73.62336,1371.878 h 41.476"
       id="path910" />
    <path
       d="m 73.66236,1371.954 h 41.398"
       id="path912" />
    <path
       d="m 73.70136,1372.029 h 41.319"
       id="path914" />
    <path
       d="m 73.74036,1372.105 h 41.241"
       id="path916" />
    <path
       d="m 73.78036,1372.18 h 41.162"
       id="path918" />
    <path
       d="m 73.81936,1372.256 h 41.083"
       id="path920" />
    <path
       d="m 73.85836,1372.331 h 41.005"
       id="path922" />
    <path
       d="m 73.89836,1372.407 h 40.926"
       id="path924" />
    <path
       d="m 73.93736,1372.482 h 40.848"
       id="path926" />
    <path
       d="m 73.97636,1372.557 h 40.769"
       id="path928" />
    <path
       d="m 74.01636,1372.633 h 40.69"
       id="path930" />
    <path
       d="m 74.05536,1372.709 h 40.612"
       id="path932" />
    <path
       d="m 74.09436,1372.784 h 40.533"
       id="path934" />
    <path
       d="m 74.14236,1372.859 h 40.437"
       id="path936" />
    <path
       d="m 74.19036,1372.935 h 40.341"
       id="path938" />
    <path
       d="m 74.23836,1373.01 h 40.245"
       id="path940" />
    <path
       d="m 74.28636,1373.086 h 40.149"
       id="path942" />
    <path
       d="m 74.33536,1373.161 h 40.052"
       id="path944" />
    <path
       d="m 74.38336,1373.237 h 39.956"
       id="path946" />
    <path
       d="m 74.43136,1373.312 h 39.86"
       id="path948" />
    <path
       d="m 74.47936,1373.388 h 39.764"
       id="path950" />
    <path
       d="m 74.52736,1373.463 h 39.668"
       id="path952" />
    <path
       d="m 74.57536,1373.539 h 39.571"
       id="path954" />
    <path
       d="m 74.62336,1373.614 h 39.475"
       id="path956" />
    <path
       d="m 74.67136,1373.69 h 39.379"
       id="path958" />
    <path
       d="m 74.71936,1373.765 h 39.283"
       id="path960" />
    <path
       d="m 74.76736,1373.841 h 39.187"
       id="path962" />
    <path
       d="m 74.81536,1373.916 h 39.091"
       id="path964" />
    <path
       d="m 74.86436,1373.992 h 38.994"
       id="path966" />
    <path
       d="m 74.91236,1374.067 h 38.898"
       id="path968" />
    <path
       d="m 74.96036,1374.143 h 38.802"
       id="path970" />
    <path
       d="m 75.00836,1374.218 h 38.706"
       id="path972" />
    <path
       d="m 75.05636,1374.294 h 38.609"
       id="path974" />
    <path
       d="m 75.10436,1374.369 h 38.513"
       id="path976" />
    <path
       d="m 75.15236,1374.445 h 38.417"
       id="path978" />
    <path
       d="m 75.20236,1374.52 h 38.317"
       id="path980" />
    <path
       d="m 75.26036,1374.596 h 38.201"
       id="path982" />
    <path
       d="m 75.31836,1374.671 h 38.085"
       id="path984" />
    <path
       d="m 75.37636,1374.747 h 37.97"
       id="path986" />
    <path
       d="m 75.43436,1374.822 h 37.854"
       id="path988" />
    <path
       d="m 75.49236,1374.898 h 37.738"
       id="path990" />
    <path
       d="m 75.55036,1374.973 h 37.622"
       id="path992" />
    <path
       d="m 75.60836,1375.049 h 37.506"
       id="path994" />
    <path
       d="m 75.66636,1375.124 h 37.39"
       id="path996" />
    <path
       d="m 75.72336,1375.2 h 37.275"
       id="path998" />
    <path
       d="m 75.78136,1375.275 h 37.159"
       id="path1000" />
    <path
       d="m 75.83936,1375.351 h 37.043"
       id="path1002" />
    <path
       d="m 75.89736,1375.426 h 36.927"
       id="path1004" />
    <path
       d="m 75.95536,1375.502 h 36.811"
       id="path1006" />
    <path
       d="m 76.01336,1375.577 h 36.695"
       id="path1008" />
    <path
       d="m 76.07136,1375.653 h 36.579"
       id="path1010" />
    <path
       d="m 76.12936,1375.728 h 36.464"
       id="path1012" />
    <path
       d="m 76.18736,1375.804 h 36.348"
       id="path1014" />
    <path
       d="m 76.24536,1375.879 h 36.232"
       id="path1016" />
    <path
       d="m 76.30336,1375.955 h 36.116"
       id="path1018" />
    <path
       d="m 76.36136,1376.03 h 36"
       id="path1020" />
    <path
       d="m 76.41936,1376.106 h 35.884"
       id="path1022" />
    <path
       d="m 76.48536,1376.181 h 35.752"
       id="path1024" />
    <path
       d="m 76.55436,1376.257 h 35.613"
       id="path1026" />
    <path
       d="m 76.62336,1376.332 h 35.475"
       id="path1028" />
    <path
       d="m 76.69236,1376.408 h 35.337"
       id="path1030" />
    <path
       d="m 76.76136,1376.483 h 35.199"
       id="path1032" />
    <path
       d="m 76.83136,1376.558 h 35.06"
       id="path1034" />
    <path
       d="m 76.90036,1376.634 h 34.922"
       id="path1036" />
    <path
       d="m 76.96936,1376.709 h 34.783"
       id="path1038" />
    <path
       d="m 77.03836,1376.785 h 34.645"
       id="path1040" />
    <path
       d="m 77.10736,1376.86 h 34.507"
       id="path1042" />
    <path
       d="m 77.17636,1376.936 h 34.369"
       id="path1044" />
    <path
       d="m 77.24636,1377.011 h 34.23"
       id="path1046" />
    <path
       d="m 77.31536,1377.087 h 34.092"
       id="path1048" />
    <path
       d="m 77.38436,1377.162 h 33.953"
       id="path1050" />
    <path
       d="m 77.45336,1377.238 h 33.815"
       id="path1052" />
    <path
       d="m 77.52236,1377.313 h 33.677"
       id="path1054" />
    <path
       d="m 77.59236,1377.389 h 33.538"
       id="path1056" />
    <path
       d="m 77.66136,1377.464 h 33.4"
       id="path1058" />
    <path
       d="m 77.73036,1377.54 h 33.262"
       id="path1060" />
    <path
       d="m 77.79936,1377.615 h 33.123"
       id="path1062" />
    <path
       d="m 77.87936,1377.691 h 32.964"
       id="path1064" />
    <path
       d="m 77.96136,1377.766 h 32.799"
       id="path1066" />
    <path
       d="m 78.04436,1377.842 h 32.634"
       id="path1068" />
    <path
       d="m 78.12636,1377.917 h 32.47"
       id="path1070" />
    <path
       d="m 78.20836,1377.993 h 32.305"
       id="path1072" />
    <path
       d="m 78.29136,1378.068 h 32.14"
       id="path1074" />
    <path
       d="m 78.37336,1378.144 h 31.975"
       id="path1076" />
    <path
       d="m 78.45536,1378.219 h 31.811"
       id="path1078" />
    <path
       d="m 78.53836,1378.295 h 31.646"
       id="path1080" />
    <path
       d="m 78.62036,1378.37 h 31.481"
       id="path1082" />
    <path
       d="m 78.70336,1378.446 h 31.316"
       id="path1084" />
    <path
       d="m 78.78536,1378.521 h 31.151"
       id="path1086" />
    <path
       d="m 78.86736,1378.597 h 30.987"
       id="path1088" />
    <path
       d="m 78.95036,1378.672 h 30.822"
       id="path1090" />
    <path
       d="m 79.03236,1378.748 h 30.657"
       id="path1092" />
    <path
       d="m 79.11436,1378.823 h 30.493"
       id="path1094" />
    <path
       d="m 79.19736,1378.899 h 30.328"
       id="path1096" />
    <path
       d="m 79.27936,1378.974 h 30.163"
       id="path1098" />
    <path
       d="m 79.37036,1379.05 h 29.981"
       id="path1100" />
    <path
       d="m 79.46836,1379.125 h 29.785"
       id="path1102" />
    <path
       d="m 79.56736,1379.201 h 29.588"
       id="path1104" />
    <path
       d="m 79.66536,1379.276 h 29.391"
       id="path1106" />
    <path
       d="m 79.76436,1379.352 h 29.194"
       id="path1108" />
    <path
       d="m 79.86236,1379.427 h 28.998"
       id="path1110" />
    <path
       d="m 79.96036,1379.503 h 28.801"
       id="path1112" />
    <path
       d="m 80.05936,1379.578 h 28.604"
       id="path1114" />
    <path
       d="m 80.15736,1379.654 h 28.407"
       id="path1116" />
    <path
       d="m 80.25536,1379.729 h 28.211"
       id="path1118" />
    <path
       d="m 80.35436,1379.805 h 28.014"
       id="path1120" />
    <path
       d="m 80.45236,1379.88 h 27.817"
       id="path1122" />
    <path
       d="m 80.55136,1379.956 h 27.62"
       id="path1124" />
    <path
       d="m 80.64936,1380.031 h 27.423"
       id="path1126" />
    <path
       d="m 80.74736,1380.106 h 27.227"
       id="path1128" />
    <path
       d="m 80.84636,1380.182 h 27.03"
       id="path1130" />
    <path
       d="m 80.94536,1380.258 h 26.831"
       id="path1132" />
    <path
       d="m 81.06436,1380.333 h 26.593"
       id="path1134" />
    <path
       d="m 81.18236,1380.408 h 26.357"
       id="path1136" />
    <path
       d="m 81.30136,1380.484 h 26.12"
       id="path1138" />
    <path
       d="m 81.41936,1380.559 h 25.883"
       id="path1140" />
    <path
       d="m 81.53836,1380.635 h 25.646"
       id="path1142" />
    <path
       d="m 81.65636,1380.71 h 25.409"
       id="path1144" />
    <path
       d="m 81.77536,1380.786 h 25.172"
       id="path1146" />
    <path
       d="m 81.89336,1380.861 h 24.935"
       id="path1148" />
    <path
       d="m 82.01236,1380.937 h 24.698"
       id="path1150" />
    <path
       d="m 82.13036,1381.012 h 24.461"
       id="path1152" />
    <path
       d="m 82.24936,1381.088 h 24.224"
       id="path1154" />
    <path
       d="m 82.36736,1381.163 h 23.987"
       id="path1156" />
    <path
       d="m 82.48636,1381.239 h 23.75"
       id="path1158" />
    <path
       d="m 82.60436,1381.314 h 23.513"
       id="path1160" />
    <path
       d="m 82.73736,1381.39 h 23.247"
       id="path1162" />
    <path
       d="m 82.88236,1381.465 h 22.957"
       id="path1164" />
    <path
       d="m 83.02736,1381.541 h 22.667"
       id="path1166" />
    <path
       d="m 83.17236,1381.616 h 22.377"
       id="path1168" />
    <path
       d="m 83.31736,1381.692 h 22.087"
       id="path1170" />
    <path
       d="m 83.46236,1381.767 h 21.797"
       id="path1172" />
    <path
       d="m 83.60736,1381.843 h 21.507"
       id="path1174" />
    <path
       d="m 83.75236,1381.918 h 21.217"
       id="path1176" />
    <path
       d="m 83.89736,1381.994 h 20.927"
       id="path1178" />
    <path
       d="m 84.04236,1382.069 h 20.637"
       id="path1180" />
    <path
       d="m 84.18736,1382.145 h 20.347"
       id="path1182" />
    <path
       d="m 84.33236,1382.22 h 20.057"
       id="path1184" />
    <path
       d="m 84.47936,1382.296 h 19.764"
       id="path1186" />
    <path
       d="m 84.66136,1382.371 h 19.399"
       id="path1188" />
    <path
       d="m 84.84336,1382.447 h 19.035"
       id="path1190" />
    <path
       d="m 85.02536,1382.522 h 18.671"
       id="path1192" />
    <path
       d="m 85.20836,1382.598 h 18.306"
       id="path1194" />
    <path
       d="m 85.39036,1382.673 h 17.941"
       id="path1196" />
    <path
       d="m 85.57236,1382.749 h 17.577"
       id="path1198" />
    <path
       d="m 85.75436,1382.824 h 17.213"
       id="path1200" />
    <path
       d="m 85.93736,1382.9 h 16.848"
       id="path1202" />
    <path
       d="m 86.11936,1382.975 h 16.483"
       id="path1204" />
    <path
       d="m 86.30136,1383.051 h 16.119"
       id="path1206" />
    <path
       d="m 86.52336,1383.126 h 15.675"
       id="path1208" />
    <path
       d="m 86.76336,1383.202 h 15.196"
       id="path1210" />
    <path
       d="m 87.00236,1383.277 h 14.717"
       id="path1212" />
    <path
       d="m 87.24136,1383.353 h 14.239"
       id="path1214" />
    <path
       d="m 87.48136,1383.428 h 13.76"
       id="path1216" />
    <path
       d="m 87.72036,1383.504 h 13.281"
       id="path1218" />
    <path
       d="m 87.96036,1383.579 h 12.802"
       id="path1220" />
    <path
       d="m 88.19936,1383.655 h 12.323"
       id="path1222" />
    <path
       d="m 88.49636,1383.73 h 11.73"
       id="path1224" />
    <path
       d="m 88.83636,1383.805 h 11.049"
       id="path1226" />
    <path
       d="m 89.17736,1383.881 h 10.368"
       id="path1228" />
    <path
       d="m 89.51736,1383.957 h 9.687"
       id="path1230" />
    <path
       d="m 89.85836,1384.032 h 9.006"
       id="path1232" />
    <path
       d="m 90.19836,1384.107 h 8.325"
       id="path1234" />
    <path
       d="m 90.70436,1384.183 h 7.314"
       id="path1236" />
    <path
       d="m 91.27736,1384.258 h 6.167"
       id="path1238" />
    <path
       d="m 91.85136,1384.334 h 5.02"
       id="path1240" />
    <path
       d="m 92.63136,1384.409 h 3.459"
       id="path1242" />
    <path
       d="M 2.2633605,1429.024 H 189.47836 l -97.382,-566.929 -93.6069995,565.419"
       id="path1244" />
  </g>
</svg>
