<?xml version="1.0" encoding="UTF-8"?>
<svg id="svg1248" width="243.31" height="575.97" version="1.1" viewBox="0 0 243.31 575.97" xmlns="http://www.w3.org/2000/svg">
 <g id="g1246" transform="translate(9.2162 -588.61)" fill="none" stroke="#000" stroke-width="4mm">
  <path id="path6" d="m-1.8044 1157h226.68l-113.11-566.93-113.57 566.93"/>
  <path id="path8" d="m110.72 1029.9h2.081"/>
  <path id="path10" d="m110.25 1029.9h3.021"/>
  <path id="path12" d="m109.91 1030h3.711"/>
  <path id="path14" d="m109.56 1030h4.401"/>
  <path id="path16" d="m109.26 1030.1h5.01"/>
  <path id="path18" d="m109.05 1030.1h5.42"/>
  <path id="path20" d="m108.85 1030.1h5.829"/>
  <path id="path22" d="m108.64 1030.2h6.239"/>
  <path id="path24" d="m108.44 1030.2h6.649"/>
  <path id="path26" d="m108.23 1030.3h7.059"/>
  <path id="path28" d="m108.06 1030.3h7.415"/>
  <path id="path30" d="m107.91 1030.4h7.704"/>
  <path id="path32" d="m107.77 1030.4h7.992"/>
  <path id="path34" d="m107.62 1030.5h8.28"/>
  <path id="path36" d="m107.48 1030.5h8.568"/>
  <path id="path38" d="m107.34 1030.6h8.856"/>
  <path id="path40" d="m107.19 1030.6h9.145"/>
  <path id="path42" d="m107.05 1030.6h9.433"/>
  <path id="path44" d="m106.91 1030.7h9.7"/>
  <path id="path46" d="m106.8 1030.7h9.919"/>
  <path id="path48" d="m106.69 1030.8h10.139"/>
  <path id="path50" d="m106.58 1030.8h10.358"/>
  <path id="path52" d="m106.47 1030.9h10.577"/>
  <path id="path54" d="m106.36 1030.9h10.797"/>
  <path id="path56" d="m106.26 1031h11.016"/>
  <path id="path58" d="m106.15 1031h11.235"/>
  <path id="path60" d="m106.04 1031.1h11.455"/>
  <path id="path62" d="m105.93 1031.1h11.674"/>
  <path id="path64" d="m105.82 1031.1h11.893"/>
  <path id="path66" d="m105.73 1031.2h12.07"/>
  <path id="path68" d="m105.64 1031.2h12.244"/>
  <path id="path70" d="m105.55 1031.3h12.419"/>
  <path id="path72" d="m105.47 1031.3h12.593"/>
  <path id="path74" d="m105.38 1031.4h12.768"/>
  <path id="path76" d="m105.29 1031.4h12.942"/>
  <path id="path78" d="m105.2 1031.5h13.117"/>
  <path id="path80" d="m105.12 1031.5h13.291"/>
  <path id="path82" d="m105.03 1031.6h13.466"/>
  <path id="path84" d="m104.94 1031.6h13.641"/>
  <path id="path86" d="m104.86 1031.6h13.815"/>
  <path id="path88" d="m104.77 1031.7h13.989"/>
  <path id="path90" d="m104.69 1031.7h14.149"/>
  <path id="path92" d="m104.62 1031.8h14.292"/>
  <path id="path94" d="m104.55 1031.8h14.434"/>
  <path id="path96" d="m104.47 1031.9h14.577"/>
  <path id="path98" d="m104.4 1031.9h14.719"/>
  <path id="path100" d="m104.33 1032h14.862"/>
  <path id="path102" d="m104.26 1032h15.005"/>
  <path id="path104" d="m104.19 1032.1h15.147"/>
  <path id="path106" d="m104.12 1032.1h15.29"/>
  <path id="path108" d="m104.05 1032.1h15.433"/>
  <path id="path110" d="m103.98 1032.2h15.575"/>
  <path id="path112" d="m103.9 1032.2h15.718"/>
  <path id="path114" d="m103.83 1032.3h15.86"/>
  <path id="path116" d="m103.76 1032.3h16.003"/>
  <path id="path118" d="m103.69 1032.4h16.146"/>
  <path id="path120" d="m103.63 1032.4h16.265"/>
  <path id="path122" d="m103.57 1032.5h16.384"/>
  <path id="path124" d="m103.51 1032.5h16.502"/>
  <path id="path126" d="m103.45 1032.6h16.621"/>
  <path id="path128" d="m103.39 1032.6h16.739"/>
  <path id="path130" d="m103.33 1032.6h16.858"/>
  <path id="path132" d="m103.28 1032.7h16.976"/>
  <path id="path134" d="m103.22 1032.7h17.094"/>
  <path id="path136" d="m103.16 1032.8h17.213"/>
  <path id="path138" d="m103.1 1032.8h17.331"/>
  <path id="path140" d="m103.04 1032.9h17.45"/>
  <path id="path142" d="m102.98 1032.9h17.568"/>
  <path id="path144" d="m102.92 1033h17.686"/>
  <path id="path146" d="m102.86 1033h17.805"/>
  <path id="path148" d="m102.8 1033.1h17.923"/>
  <path id="path150" d="m102.74 1033.1h18.042"/>
  <path id="path152" d="m102.69 1033.1h18.151"/>
  <path id="path154" d="m102.64 1033.2h18.25"/>
  <path id="path156" d="m102.59 1033.2h18.349"/>
  <path id="path158" d="m102.54 1033.3h18.448"/>
  <path id="path160" d="m102.49 1033.3h18.547"/>
  <path id="path162" d="m102.44 1033.4h18.647"/>
  <path id="path164" d="m102.39 1033.4h18.746"/>
  <path id="path166" d="m102.34 1033.5h18.845"/>
  <path id="path168" d="m102.29 1033.5h18.944"/>
  <path id="path170" d="m102.24 1033.6h19.043"/>
  <path id="path172" d="m102.19 1033.6h19.142"/>
  <path id="path174" d="m102.14 1033.6h19.241"/>
  <path id="path176" d="m102.09 1033.7h19.341"/>
  <path id="path178" d="m102.04 1033.7h19.44"/>
  <path id="path180" d="m101.99 1033.8h19.539"/>
  <path id="path182" d="m101.94 1033.8h19.638"/>
  <path id="path184" d="m101.89 1033.9h19.737"/>
  <path id="path186" d="m101.84 1033.9h19.837"/>
  <path id="path188" d="m101.8 1034h19.932"/>
  <path id="path190" d="m101.76 1034h20.016"/>
  <path id="path192" d="m101.71 1034.1h20.099"/>
  <path id="path194" d="m101.67 1034.1h20.182"/>
  <path id="path196" d="m101.63 1034.1h20.265"/>
  <path id="path198" d="m101.59 1034.2h20.349"/>
  <path id="path200" d="m101.55 1034.2h20.432"/>
  <path id="path202" d="m101.51 1034.3h20.515"/>
  <path id="path204" d="m101.46 1034.3h20.598"/>
  <path id="path206" d="m101.42 1034.4h20.682"/>
  <path id="path208" d="m101.38 1034.4h20.765"/>
  <path id="path210" d="m101.34 1034.5h20.848"/>
  <path id="path212" d="m101.3 1034.5h20.931"/>
  <path id="path214" d="m101.26 1034.6h21.015"/>
  <path id="path216" d="m101.21 1034.6h21.098"/>
  <path id="path218" d="m101.17 1034.6h21.181"/>
  <path id="path220" d="m101.13 1034.7h21.264"/>
  <path id="path222" d="m101.09 1034.7h21.348"/>
  <path id="path224" d="m101.05 1034.8h21.431"/>
  <path id="path226" d="m101.01 1034.8h21.514"/>
  <path id="path228" d="m100.97 1034.9h21.594"/>
  <path id="path230" d="m100.93 1034.9h21.663"/>
  <path id="path232" d="m100.9 1035h21.733"/>
  <path id="path234" d="m100.86 1035h21.803"/>
  <path id="path236" d="m100.83 1035.1h21.873"/>
  <path id="path238" d="m100.79 1035.1h21.943"/>
  <path id="path240" d="m100.76 1035.1h22.012"/>
  <path id="path242" d="m100.72 1035.2h22.082"/>
  <path id="path244" d="m100.69 1035.2h22.152"/>
  <path id="path246" d="m100.65 1035.3h22.221"/>
  <path id="path248" d="m100.62 1035.3h22.291"/>
  <path id="path250" d="m100.58 1035.4h22.361"/>
  <path id="path252" d="m100.55 1035.4h22.431"/>
  <path id="path254" d="m100.51 1035.5h22.5"/>
  <path id="path256" d="m100.48 1035.5h22.57"/>
  <path id="path258" d="m100.44 1035.6h22.64"/>
  <path id="path260" d="m100.41 1035.6h22.709"/>
  <path id="path262" d="m100.37 1035.6h22.779"/>
  <path id="path264" d="m100.34 1035.7h22.849"/>
  <path id="path266" d="m100.3 1035.7h22.919"/>
  <path id="path268" d="m100.27 1035.8h22.988"/>
  <path id="path270" d="m100.23 1035.8h23.058"/>
  <path id="path272" d="m100.2 1035.9h23.118"/>
  <path id="path274" d="m100.18 1035.9h23.176"/>
  <path id="path276" d="m100.15 1036h23.234"/>
  <path id="path278" d="m100.12 1036h23.292"/>
  <path id="path280" d="m100.09 1036.1h23.349"/>
  <path id="path282" d="m100.06 1036.1h23.407"/>
  <path id="path284" d="m100.03 1036.1h23.465"/>
  <path id="path286" d="m100 1036.2h23.523"/>
  <path id="path288" d="m99.973 1036.2h23.581"/>
  <path id="path290" d="m99.944 1036.3h23.639"/>
  <path id="path292" d="m99.915 1036.3h23.697"/>
  <path id="path294" d="m99.886 1036.4h23.755"/>
  <path id="path296" d="m99.857 1036.4h23.813"/>
  <path id="path298" d="m99.828 1036.5h23.871"/>
  <path id="path300" d="m99.8 1036.5h23.928"/>
  <path id="path302" d="m99.771 1036.6h23.986"/>
  <path id="path304" d="m99.742 1036.6h24.044"/>
  <path id="path306" d="m99.713 1036.6h24.102"/>
  <path id="path308" d="m99.684 1036.7h24.16"/>
  <path id="path310" d="m99.655 1036.7h24.218"/>
  <path id="path312" d="m99.626 1036.8h24.276"/>
  <path id="path314" d="m99.597 1036.8h24.333"/>
  <path id="path316" d="m99.568 1036.9h24.391"/>
  <path id="path318" d="m99.544 1036.9h24.439"/>
  <path id="path320" d="m99.521 1037h24.486"/>
  <path id="path322" d="m99.497 1037h24.533"/>
  <path id="path324" d="m99.473 1037.1h24.581"/>
  <path id="path326" d="m99.45 1037.1h24.628"/>
  <path id="path328" d="m99.426 1037.1h24.675"/>
  <path id="path330" d="m99.402 1037.2h24.723"/>
  <path id="path332" d="m99.379 1037.2h24.77"/>
  <path id="path334" d="m99.355 1037.3h24.817"/>
  <path id="path336" d="m99.332 1037.3h24.864"/>
  <path id="path338" d="m99.308 1037.4h24.912"/>
  <path id="path340" d="m99.284 1037.4h24.959"/>
  <path id="path342" d="m99.261 1037.5h25.006"/>
  <path id="path344" d="m99.237 1037.5h25.053"/>
  <path id="path346" d="m99.213 1037.6h25.101"/>
  <path id="path348" d="m99.19 1037.6h25.148"/>
  <path id="path350" d="m99.166 1037.6h25.195"/>
  <path id="path352" d="m99.142 1037.7h25.243"/>
  <path id="path354" d="m99.119 1037.7h25.29"/>
  <path id="path356" d="m99.095 1037.8h25.337"/>
  <path id="path358" d="m99.071 1037.8h25.385"/>
  <path id="path360" d="m99.048 1037.9h25.432"/>
  <path id="path362" d="m99.024 1037.9h25.479"/>
  <path id="path364" d="m99.001 1038h25.526"/>
  <path id="path366" d="m98.982 1038h25.564"/>
  <path id="path368" d="m98.963 1038.1h25.602"/>
  <path id="path370" d="m98.944 1038.1h25.639"/>
  <path id="path372" d="m98.925 1038.1h25.677"/>
  <path id="path374" d="m98.906 1038.2h25.715"/>
  <path id="path376" d="m98.888 1038.2h25.752"/>
  <path id="path378" d="m98.869 1038.3h25.79"/>
  <path id="path380" d="m98.85 1038.3h25.827"/>
  <path id="path382" d="m98.831 1038.4h25.865"/>
  <path id="path384" d="m98.812 1038.4h25.903"/>
  <path id="path386" d="m98.794 1038.5h25.94"/>
  <path id="path388" d="m98.775 1038.5h25.978"/>
  <path id="path390" d="m98.756 1038.6h26.016"/>
  <path id="path392" d="m98.737 1038.6h26.053"/>
  <path id="path394" d="m98.718 1038.6h26.091"/>
  <path id="path396" d="m98.699 1038.7h26.129"/>
  <path id="path398" d="m98.681 1038.7h26.166"/>
  <path id="path400" d="m98.662 1038.8h26.204"/>
  <path id="path402" d="m98.643 1038.8h26.241"/>
  <path id="path404" d="m98.624 1038.9h26.279"/>
  <path id="path406" d="m98.605 1038.9h26.317"/>
  <path id="path408" d="m98.587 1039h26.354"/>
  <path id="path410" d="m98.568 1039h26.392"/>
  <path id="path412" d="m98.549 1039.1h26.43"/>
  <path id="path414" d="m98.53 1039.1h26.467"/>
  <path id="path416" d="m98.516 1039.1h26.496"/>
  <path id="path418" d="m98.502 1039.2h26.524"/>
  <path id="path420" d="m98.487 1039.2h26.553"/>
  <path id="path422" d="m98.473 1039.3h26.582"/>
  <path id="path424" d="m98.459 1039.3h26.61"/>
  <path id="path426" d="m98.444 1039.4h26.639"/>
  <path id="path428" d="m98.43 1039.4h26.667"/>
  <path id="path430" d="m98.416 1039.5h26.696"/>
  <path id="path432" d="m98.401 1039.5h26.725"/>
  <path id="path434" d="m98.387 1039.6h26.753"/>
  <path id="path436" d="m98.373 1039.6h26.782"/>
  <path id="path438" d="m98.358 1039.6h26.811"/>
  <path id="path440" d="m98.344 1039.7h26.839"/>
  <path id="path442" d="m98.33 1039.7h26.868"/>
  <path id="path444" d="m98.315 1039.8h26.897"/>
  <path id="path446" d="m98.301 1039.8h26.925"/>
  <path id="path448" d="m98.287 1039.9h26.954"/>
  <path id="path450" d="m98.272 1039.9h26.983"/>
  <path id="path452" d="m98.258 1040h27.011"/>
  <path id="path454" d="m98.244 1040h27.04"/>
  <path id="path456" d="m98.229 1040.1h27.069"/>
  <path id="path458" d="m98.215 1040.1h27.097"/>
  <path id="path460" d="m98.201 1040.1h27.126"/>
  <path id="path462" d="m98.186 1040.2h27.155"/>
  <path id="path464" d="m98.172 1040.2h27.183"/>
  <path id="path466" d="m98.159 1040.3h27.21"/>
  <path id="path468" d="m98.149 1040.3h27.23"/>
  <path id="path470" d="m98.139 1040.4h27.25"/>
  <path id="path472" d="m98.129 1040.4h27.27"/>
  <path id="path474" d="m98.119 1040.5h27.29"/>
  <path id="path476" d="m98.108 1040.5h27.311"/>
  <path id="path478" d="m98.098 1040.6h27.331"/>
  <path id="path480" d="m98.088 1040.6h27.351"/>
  <path id="path482" d="m98.078 1040.6h27.371"/>
  <path id="path484" d="m98.068 1040.7h27.391"/>
  <path id="path486" d="m98.058 1040.7h27.411"/>
  <path id="path488" d="m98.048 1040.8h27.431"/>
  <path id="path490" d="m98.038 1040.8h27.451"/>
  <path id="path492" d="m98.028 1040.9h27.472"/>
  <path id="path494" d="m98.018 1040.9h27.492"/>
  <path id="path496" d="m98.008 1041h27.512"/>
  <path id="path498" d="m97.998 1041h27.532"/>
  <path id="path500" d="m97.988 1041.1h27.552"/>
  <path id="path502" d="m97.978 1041.1h27.572"/>
  <path id="path504" d="m97.967 1041.1h27.593"/>
  <path id="path506" d="m97.957 1041.2h27.613"/>
  <path id="path508" d="m97.947 1041.2h27.633"/>
  <path id="path510" d="m97.937 1041.3h27.653"/>
  <path id="path512" d="m97.927 1041.3h27.673"/>
  <path id="path514" d="m97.917 1041.4h27.693"/>
  <path id="path516" d="m97.907 1041.4h27.713"/>
  <path id="path518" d="m97.897 1041.5h27.733"/>
  <path id="path520" d="m97.89 1041.5h27.747"/>
  <path id="path522" d="m97.884 1041.6h27.759"/>
  <path id="path524" d="m97.878 1041.6h27.771"/>
  <path id="path526" d="m97.872 1041.6h27.783"/>
  <path id="path528" d="m97.866 1041.7h27.795"/>
  <path id="path530" d="m97.86 1041.7h27.807"/>
  <path id="path532" d="m97.854 1041.8h27.819"/>
  <path id="path534" d="m97.848 1041.8h27.831"/>
  <path id="path536" d="m97.842 1041.9h27.843"/>
  <path id="path538" d="m97.836 1041.9h27.855"/>
  <path id="path540" d="m97.831 1042h27.866"/>
  <path id="path542" d="m97.825 1042h27.878"/>
  <path id="path544" d="m97.819 1042h27.89"/>
  <path id="path546" d="m97.813 1042.1h27.902"/>
  <path id="path548" d="m97.807 1042.1h27.914"/>
  <path id="path550" d="m97.801 1042.2h27.926"/>
  <path id="path552" d="m97.795 1042.2h27.938"/>
  <path id="path554" d="m97.789 1042.3h27.95"/>
  <path id="path556" d="m97.783 1042.3h27.962"/>
  <path id="path558" d="m97.777 1042.4h27.974"/>
  <path id="path560" d="m97.771 1042.4h27.986"/>
  <path id="path562" d="m97.765 1042.5h27.998"/>
  <path id="path564" d="m97.759 1042.5h28.01"/>
  <path id="path566" d="m97.753 1042.6h28.022"/>
  <path id="path568" d="m97.747 1042.6h28.034"/>
  <path id="path570" d="m97.741 1042.6h28.046"/>
  <path id="path572" d="m97.735 1042.7h28.058"/>
  <path id="path574" d="m97.733 1042.7h28.062"/>
  <path id="path576" d="m97.731 1042.8h28.065"/>
  <path id="path578" d="m97.729 1042.8h28.069"/>
  <path id="path580" d="m97.727 1042.9h28.073"/>
  <path id="path582" d="m97.725 1042.9h28.077"/>
  <path id="path584" d="m97.723 1043h28.081"/>
  <path id="path586" d="m97.721 1043h28.085"/>
  <path id="path588" d="m97.719 1043h28.089"/>
  <path id="path590" d="m97.717 1043.1h28.093"/>
  <path id="path592" d="m97.715 1043.1h28.097"/>
  <path id="path594" d="m97.713 1043.2h28.101"/>
  <path id="path596" d="m97.711 1043.2h28.105"/>
  <path id="path598" d="m97.709 1043.3h28.109"/>
  <path id="path600" d="m97.707 1043.3h28.113"/>
  <path id="path602" d="m97.705 1043.4h28.117"/>
  <path id="path604" d="m97.703 1043.4h28.121"/>
  <path id="path606" d="m97.701 1043.5h28.125"/>
  <path id="path608" d="m97.699 1043.5h28.129"/>
  <path id="path610" d="m97.697 1043.6h28.133"/>
  <path id="path612" d="m97.695 1043.6h28.137"/>
  <path id="path614" d="m97.693 1043.6h28.141"/>
  <path id="path616" d="m97.691 1043.7h28.145"/>
  <path id="path618" d="m97.689 1043.7h28.149"/>
  <path id="path620" d="m97.687 1043.8h28.153"/>
  <path id="path622" d="m97.685 1043.8h28.157"/>
  <path id="path624" d="m97.683 1043.9h28.161"/>
  <path id="path626" d="m97.681 1043.9h28.165"/>
  <path id="path628" d="m97.683 1044h28.161"/>
  <path id="path630" d="m97.685 1044h28.157"/>
  <path id="path632" d="m97.687 1044h28.153"/>
  <path id="path634" d="m97.689 1044.1h28.149"/>
  <path id="path636" d="m97.691 1044.1h28.145"/>
  <path id="path638" d="m97.693 1044.2h28.141"/>
  <path id="path640" d="m97.695 1044.2h28.137"/>
  <path id="path642" d="m97.697 1044.3h28.133"/>
  <path id="path644" d="m97.699 1044.3h28.129"/>
  <path id="path646" d="m97.701 1044.4h28.125"/>
  <path id="path648" d="m97.703 1044.4h28.121"/>
  <path id="path650" d="m97.705 1044.5h28.117"/>
  <path id="path652" d="m97.707 1044.5h28.113"/>
  <path id="path654" d="m97.709 1044.5h28.109"/>
  <path id="path656" d="m97.711 1044.6h28.105"/>
  <path id="path658" d="m97.713 1044.6h28.101"/>
  <path id="path660" d="m97.715 1044.7h28.097"/>
  <path id="path662" d="m97.717 1044.7h28.093"/>
  <path id="path664" d="m97.719 1044.8h28.089"/>
  <path id="path666" d="m97.721 1044.8h28.085"/>
  <path id="path668" d="m97.723 1044.9h28.081"/>
  <path id="path670" d="m97.725 1044.9h28.077"/>
  <path id="path672" d="m97.727 1045h28.073"/>
  <path id="path674" d="m97.729 1045h28.069"/>
  <path id="path676" d="m97.731 1045h28.065"/>
  <path id="path678" d="m97.733 1045.1h28.062"/>
  <path id="path680" d="m97.735 1045.1h28.058"/>
  <path id="path682" d="m97.741 1045.2h28.046"/>
  <path id="path684" d="m97.747 1045.2h28.034"/>
  <path id="path686" d="m97.753 1045.3h28.022"/>
  <path id="path688" d="m97.759 1045.3h28.01"/>
  <path id="path690" d="m97.765 1045.4h27.998"/>
  <path id="path692" d="m97.771 1045.4h27.986"/>
  <path id="path694" d="m97.777 1045.5h27.974"/>
  <path id="path696" d="m97.783 1045.5h27.962"/>
  <path id="path698" d="m97.789 1045.5h27.95"/>
  <path id="path700" d="m97.795 1045.6h27.938"/>
  <path id="path702" d="m97.801 1045.6h27.926"/>
  <path id="path704" d="m97.807 1045.7h27.914"/>
  <path id="path706" d="m97.813 1045.7h27.902"/>
  <path id="path708" d="m97.819 1045.8h27.89"/>
  <path id="path710" d="m97.825 1045.8h27.878"/>
  <path id="path712" d="m97.831 1045.9h27.866"/>
  <path id="path714" d="m97.836 1045.9h27.855"/>
  <path id="path716" d="m97.842 1046h27.843"/>
  <path id="path718" d="m97.848 1046h27.831"/>
  <path id="path720" d="m97.854 1046h27.819"/>
  <path id="path722" d="m97.86 1046.1h27.807"/>
  <path id="path724" d="m97.866 1046.1h27.795"/>
  <path id="path726" d="m97.872 1046.2h27.783"/>
  <path id="path728" d="m97.878 1046.2h27.771"/>
  <path id="path730" d="m97.884 1046.3h27.759"/>
  <path id="path732" d="m97.89 1046.3h27.747"/>
  <path id="path734" d="m97.897 1046.4h27.733"/>
  <path id="path736" d="m97.907 1046.4h27.713"/>
  <path id="path738" d="m97.917 1046.5h27.693"/>
  <path id="path740" d="m97.927 1046.5h27.673"/>
  <path id="path742" d="m97.937 1046.5h27.653"/>
  <path id="path744" d="m97.947 1046.6h27.633"/>
  <path id="path746" d="m97.957 1046.6h27.613"/>
  <path id="path748" d="m97.967 1046.7h27.593"/>
  <path id="path750" d="m97.978 1046.7h27.572"/>
  <path id="path752" d="m97.988 1046.8h27.552"/>
  <path id="path754" d="m97.998 1046.8h27.532"/>
  <path id="path756" d="m98.008 1046.9h27.512"/>
  <path id="path758" d="m98.018 1046.9h27.492"/>
  <path id="path760" d="m98.028 1047h27.472"/>
  <path id="path762" d="m98.038 1047h27.451"/>
  <path id="path764" d="m98.048 1047h27.431"/>
  <path id="path766" d="m98.058 1047.1h27.411"/>
  <path id="path768" d="m98.068 1047.1h27.391"/>
  <path id="path770" d="m98.078 1047.2h27.371"/>
  <path id="path772" d="m98.088 1047.2h27.351"/>
  <path id="path774" d="m98.098 1047.3h27.331"/>
  <path id="path776" d="m98.108 1047.3h27.311"/>
  <path id="path778" d="m98.119 1047.4h27.29"/>
  <path id="path780" d="m98.129 1047.4h27.27"/>
  <path id="path782" d="m98.139 1047.5h27.25"/>
  <path id="path784" d="m98.149 1047.5h27.23"/>
  <path id="path786" d="m98.159 1047.5h27.21"/>
  <path id="path788" d="m98.172 1047.6h27.183"/>
  <path id="path790" d="m98.186 1047.6h27.155"/>
  <path id="path792" d="m98.201 1047.7h27.126"/>
  <path id="path794" d="m98.215 1047.7h27.097"/>
  <path id="path796" d="m98.229 1047.8h27.069"/>
  <path id="path798" d="m98.244 1047.8h27.04"/>
  <path id="path800" d="m98.258 1047.9h27.011"/>
  <path id="path802" d="m98.272 1047.9h26.983"/>
  <path id="path804" d="m98.287 1048h26.954"/>
  <path id="path806" d="m98.301 1048h26.925"/>
  <path id="path808" d="m98.315 1048h26.897"/>
  <path id="path810" d="m98.33 1048.1h26.868"/>
  <path id="path812" d="m98.344 1048.1h26.839"/>
  <path id="path814" d="m98.358 1048.2h26.811"/>
  <path id="path816" d="m98.373 1048.2h26.782"/>
  <path id="path818" d="m98.387 1048.3h26.753"/>
  <path id="path820" d="m98.401 1048.3h26.725"/>
  <path id="path822" d="m98.416 1048.4h26.696"/>
  <path id="path824" d="m98.43 1048.4h26.667"/>
  <path id="path826" d="m98.444 1048.5h26.639"/>
  <path id="path828" d="m98.459 1048.5h26.61"/>
  <path id="path830" d="m98.473 1048.5h26.582"/>
  <path id="path832" d="m98.487 1048.6h26.553"/>
  <path id="path834" d="m98.502 1048.6h26.524"/>
  <path id="path836" d="m98.516 1048.7h26.496"/>
  <path id="path838" d="m98.53 1048.7h26.467"/>
  <path id="path840" d="m98.549 1048.8h26.43"/>
  <path id="path842" d="m98.568 1048.8h26.392"/>
  <path id="path844" d="m98.587 1048.9h26.354"/>
  <path id="path846" d="m98.605 1048.9h26.317"/>
  <path id="path848" d="m98.624 1049h26.279"/>
  <path id="path850" d="m98.643 1049h26.241"/>
  <path id="path852" d="m98.662 1049h26.204"/>
  <path id="path854" d="m98.681 1049.1h26.166"/>
  <path id="path856" d="m98.699 1049.1h26.129"/>
  <path id="path858" d="m98.718 1049.2h26.091"/>
  <path id="path860" d="m98.737 1049.2h26.053"/>
  <path id="path862" d="m98.756 1049.3h26.016"/>
  <path id="path864" d="m98.775 1049.3h25.978"/>
  <path id="path866" d="m98.794 1049.4h25.94"/>
  <path id="path868" d="m98.812 1049.4h25.903"/>
  <path id="path870" d="m98.831 1049.5h25.865"/>
  <path id="path872" d="m98.85 1049.5h25.827"/>
  <path id="path874" d="m98.869 1049.5h25.79"/>
  <path id="path876" d="m98.888 1049.6h25.752"/>
  <path id="path878" d="m98.906 1049.6h25.715"/>
  <path id="path880" d="m98.925 1049.7h25.677"/>
  <path id="path882" d="m98.944 1049.7h25.639"/>
  <path id="path884" d="m98.963 1049.8h25.602"/>
  <path id="path886" d="m98.982 1049.8h25.564"/>
  <path id="path888" d="m99.001 1049.9h25.526"/>
  <path id="path890" d="m99.024 1049.9h25.479"/>
  <path id="path892" d="m99.048 1050h25.432"/>
  <path id="path894" d="m99.071 1050h25.385"/>
  <path id="path896" d="m99.095 1050h25.337"/>
  <path id="path898" d="m99.119 1050.1h25.29"/>
  <path id="path900" d="m99.142 1050.1h25.243"/>
  <path id="path902" d="m99.166 1050.2h25.195"/>
  <path id="path904" d="m99.19 1050.2h25.148"/>
  <path id="path906" d="m99.213 1050.3h25.101"/>
  <path id="path908" d="m99.237 1050.3h25.053"/>
  <path id="path910" d="m99.261 1050.4h25.006"/>
  <path id="path912" d="m99.284 1050.4h24.959"/>
  <path id="path914" d="m99.308 1050.5h24.912"/>
  <path id="path916" d="m99.332 1050.5h24.864"/>
  <path id="path918" d="m99.355 1050.5h24.817"/>
  <path id="path920" d="m99.379 1050.6h24.77"/>
  <path id="path922" d="m99.402 1050.6h24.723"/>
  <path id="path924" d="m99.426 1050.7h24.675"/>
  <path id="path926" d="m99.45 1050.7h24.628"/>
  <path id="path928" d="m99.473 1050.8h24.581"/>
  <path id="path930" d="m99.497 1050.8h24.533"/>
  <path id="path932" d="m99.521 1050.9h24.486"/>
  <path id="path934" d="m99.544 1050.9h24.439"/>
  <path id="path936" d="m99.568 1051h24.391"/>
  <path id="path938" d="m99.597 1051h24.333"/>
  <path id="path940" d="m99.626 1051h24.276"/>
  <path id="path942" d="m99.655 1051.1h24.218"/>
  <path id="path944" d="m99.684 1051.1h24.16"/>
  <path id="path946" d="m99.713 1051.2h24.102"/>
  <path id="path948" d="m99.742 1051.2h24.044"/>
  <path id="path950" d="m99.771 1051.3h23.986"/>
  <path id="path952" d="m99.8 1051.3h23.928"/>
  <path id="path954" d="m99.828 1051.4h23.871"/>
  <path id="path956" d="m99.857 1051.4h23.813"/>
  <path id="path958" d="m99.886 1051.5h23.755"/>
  <path id="path960" d="m99.915 1051.5h23.697"/>
  <path id="path962" d="m99.944 1051.5h23.639"/>
  <path id="path964" d="m99.973 1051.6h23.581"/>
  <path id="path966" d="m100 1051.6h23.523"/>
  <path id="path968" d="m100.03 1051.7h23.465"/>
  <path id="path970" d="m100.06 1051.7h23.407"/>
  <path id="path972" d="m100.09 1051.8h23.349"/>
  <path id="path974" d="m100.12 1051.8h23.292"/>
  <path id="path976" d="m100.15 1051.9h23.234"/>
  <path id="path978" d="m100.18 1051.9h23.176"/>
  <path id="path980" d="m100.2 1052h23.118"/>
  <path id="path982" d="m100.23 1052h23.058"/>
  <path id="path984" d="m100.27 1052h22.988"/>
  <path id="path986" d="m100.3 1052.1h22.919"/>
  <path id="path988" d="m100.34 1052.1h22.849"/>
  <path id="path990" d="m100.37 1052.2h22.779"/>
  <path id="path992" d="m100.41 1052.2h22.709"/>
  <path id="path994" d="m100.44 1052.3h22.64"/>
  <path id="path996" d="m100.48 1052.3h22.57"/>
  <path id="path998" d="m100.51 1052.4h22.5"/>
  <path id="path1000" d="m100.55 1052.4h22.431"/>
  <path id="path1002" d="m100.58 1052.5h22.361"/>
  <path id="path1004" d="m100.62 1052.5h22.291"/>
  <path id="path1006" d="m100.65 1052.5h22.221"/>
  <path id="path1008" d="m100.69 1052.6h22.152"/>
  <path id="path1010" d="m100.72 1052.6h22.082"/>
  <path id="path1012" d="m100.76 1052.7h22.012"/>
  <path id="path1014" d="m100.79 1052.7h21.943"/>
  <path id="path1016" d="m100.83 1052.8h21.873"/>
  <path id="path1018" d="m100.86 1052.8h21.803"/>
  <path id="path1020" d="m100.9 1052.9h21.733"/>
  <path id="path1022" d="m100.93 1052.9h21.663"/>
  <path id="path1024" d="m100.97 1053h21.594"/>
  <path id="path1026" d="m101.01 1053h21.514"/>
  <path id="path1028" d="m101.05 1053h21.431"/>
  <path id="path1030" d="m101.09 1053.1h21.348"/>
  <path id="path1032" d="m101.13 1053.1h21.264"/>
  <path id="path1034" d="m101.17 1053.2h21.181"/>
  <path id="path1036" d="m101.21 1053.2h21.098"/>
  <path id="path1038" d="m101.26 1053.3h21.015"/>
  <path id="path1040" d="m101.3 1053.3h20.931"/>
  <path id="path1042" d="m101.34 1053.4h20.848"/>
  <path id="path1044" d="m101.38 1053.4h20.765"/>
  <path id="path1046" d="m101.42 1053.5h20.682"/>
  <path id="path1048" d="m101.46 1053.5h20.598"/>
  <path id="path1050" d="m101.51 1053.5h20.515"/>
  <path id="path1052" d="m101.55 1053.6h20.432"/>
  <path id="path1054" d="m101.59 1053.6h20.349"/>
  <path id="path1056" d="m101.63 1053.7h20.265"/>
  <path id="path1058" d="m101.67 1053.7h20.182"/>
  <path id="path1060" d="m101.71 1053.8h20.099"/>
  <path id="path1062" d="m101.76 1053.8h20.016"/>
  <path id="path1064" d="m101.8 1053.9h19.932"/>
  <path id="path1066" d="m101.84 1053.9h19.837"/>
  <path id="path1068" d="m101.89 1054h19.737"/>
  <path id="path1070" d="m101.94 1054h19.638"/>
  <path id="path1072" d="m101.99 1054h19.539"/>
  <path id="path1074" d="m102.04 1054.1h19.44"/>
  <path id="path1076" d="m102.09 1054.1h19.341"/>
  <path id="path1078" d="m102.14 1054.2h19.241"/>
  <path id="path1080" d="m102.19 1054.2h19.143"/>
  <path id="path1082" d="m102.24 1054.3h19.043"/>
  <path id="path1084" d="m102.29 1054.3h18.944"/>
  <path id="path1086" d="m102.34 1054.4h18.845"/>
  <path id="path1088" d="m102.39 1054.4h18.746"/>
  <path id="path1090" d="m102.44 1054.5h18.647"/>
  <path id="path1092" d="m102.49 1054.5h18.547"/>
  <path id="path1094" d="m102.54 1054.5h18.449"/>
  <path id="path1096" d="m102.59 1054.6h18.349"/>
  <path id="path1098" d="m102.64 1054.6h18.25"/>
  <path id="path1100" d="m102.69 1054.7h18.151"/>
  <path id="path1102" d="m102.74 1054.7h18.042"/>
  <path id="path1104" d="m102.8 1054.8h17.923"/>
  <path id="path1106" d="m102.86 1054.8h17.805"/>
  <path id="path1108" d="m102.92 1054.9h17.687"/>
  <path id="path1110" d="m102.98 1054.9h17.568"/>
  <path id="path1112" d="m103.04 1055h17.45"/>
  <path id="path1114" d="m103.1 1055h17.331"/>
  <path id="path1116" d="m103.16 1055h17.213"/>
  <path id="path1118" d="m103.22 1055.1h17.095"/>
  <path id="path1120" d="m103.28 1055.1h16.976"/>
  <path id="path1122" d="m103.33 1055.2h16.858"/>
  <path id="path1124" d="m103.39 1055.2h16.739"/>
  <path id="path1126" d="m103.45 1055.3h16.621"/>
  <path id="path1128" d="m103.51 1055.3h16.502"/>
  <path id="path1130" d="m103.57 1055.4h16.384"/>
  <path id="path1132" d="m103.63 1055.4h16.265"/>
  <path id="path1134" d="m103.69 1055.5h16.146"/>
  <path id="path1136" d="m103.76 1055.5h16.003"/>
  <path id="path1138" d="m103.83 1055.5h15.86"/>
  <path id="path1140" d="m103.9 1055.6h15.718"/>
  <path id="path1142" d="m103.98 1055.6h15.575"/>
  <path id="path1144" d="m104.05 1055.7h15.433"/>
  <path id="path1146" d="m104.12 1055.7h15.29"/>
  <path id="path1148" d="m104.19 1055.8h15.147"/>
  <path id="path1150" d="m104.26 1055.8h15.005"/>
  <path id="path1152" d="m104.33 1055.9h14.862"/>
  <path id="path1154" d="m104.4 1055.9h14.719"/>
  <path id="path1156" d="m104.47 1056h14.577"/>
  <path id="path1158" d="m104.55 1056h14.434"/>
  <path id="path1160" d="m104.62 1056h14.292"/>
  <path id="path1162" d="m104.69 1056.1h14.149"/>
  <path id="path1164" d="m104.77 1056.1h13.989"/>
  <path id="path1166" d="m104.86 1056.2h13.815"/>
  <path id="path1168" d="m104.94 1056.2h13.641"/>
  <path id="path1170" d="m105.03 1056.3h13.466"/>
  <path id="path1172" d="m105.12 1056.3h13.291"/>
  <path id="path1174" d="m105.2 1056.4h13.117"/>
  <path id="path1176" d="m105.29 1056.4h12.942"/>
  <path id="path1178" d="m105.38 1056.5h12.768"/>
  <path id="path1180" d="m105.47 1056.5h12.593"/>
  <path id="path1182" d="m105.55 1056.5h12.419"/>
  <path id="path1184" d="m105.64 1056.6h12.244"/>
  <path id="path1186" d="m105.73 1056.6h12.07"/>
  <path id="path1188" d="m105.82 1056.7h11.893"/>
  <path id="path1190" d="m105.93 1056.7h11.674"/>
  <path id="path1192" d="m106.04 1056.8h11.455"/>
  <path id="path1194" d="m106.15 1056.8h11.235"/>
  <path id="path1196" d="m106.26 1056.9h11.016"/>
  <path id="path1198" d="m106.36 1056.9h10.797"/>
  <path id="path1200" d="m106.47 1057h10.577"/>
  <path id="path1202" d="m106.58 1057h10.358"/>
  <path id="path1204" d="m106.69 1057h10.139"/>
  <path id="path1206" d="m106.8 1057.1h9.919"/>
  <path id="path1208" d="m106.91 1057.1h9.7"/>
  <path id="path1210" d="m107.05 1057.2h9.433"/>
  <path id="path1212" d="m107.19 1057.2h9.145"/>
  <path id="path1214" d="m107.34 1057.3h8.856"/>
  <path id="path1216" d="m107.48 1057.3h8.568"/>
  <path id="path1218" d="m107.62 1057.4h8.28"/>
  <path id="path1220" d="m107.77 1057.4h7.992"/>
  <path id="path1222" d="m107.91 1057.4h7.704"/>
  <path id="path1224" d="m108.06 1057.5h7.415"/>
  <path id="path1226" d="m108.23 1057.5h7.059"/>
  <path id="path1228" d="m108.44 1057.6h6.649"/>
  <path id="path1230" d="m108.64 1057.6h6.239"/>
  <path id="path1232" d="m108.85 1057.7h5.829"/>
  <path id="path1234" d="m109.05 1057.7h5.42"/>
  <path id="path1236" d="m109.26 1057.8h5.01"/>
  <path id="path1238" d="m109.56 1057.8h4.401"/>
  <path id="path1240" d="m109.91 1057.9h3.711"/>
  <path id="path1242" d="m110.25 1057.9h3.021"/>
  <path id="path1244" d="m110.72 1058h2.082"/>
 </g>
</svg>
