<?xml version="1.0" encoding="UTF-8" standalone="no"?>
<svg
   width="243.30902"
   height="575.97278"
   viewBox="0 0 243.30902 575.97276"
   version="1.1"
   id="svg1248"
   sodipodi:docname="AISVES01.hpgl.svg"
   inkscape:version="1.1.2 (0a00cf5339, 2022-02-04)"
   xmlns:inkscape="http://www.inkscape.org/namespaces/inkscape"
   xmlns:sodipodi="http://sodipodi.sourceforge.net/DTD/sodipodi-0.dtd"
   xmlns="http://www.w3.org/2000/svg"
   xmlns:svg="http://www.w3.org/2000/svg">
  <defs
     id="defs1252" />
  <sodipodi:namedview
     id="namedview1250"
     pagecolor="#ffffff"
     bordercolor="#666666"
     borderopacity="1.0"
     inkscape:pageshadow="2"
     inkscape:pageopacity="0.0"
     inkscape:pagecheckerboard="0"
     showgrid="false"
     inkscape:zoom="1.2682364"
     inkscape:cx="123.00546"
     inkscape:cy="-304.75391"
     inkscape:window-width="1495"
     inkscape:window-height="970"
     inkscape:window-x="0"
     inkscape:window-y="32"
     inkscape:window-maximized="0"
     inkscape:current-layer="svg1248" />
  <g
     id="g2"
     transform="translate(9.2162153,-588.61226)" />
  <g
     style="fill:none;stroke:#000000;stroke-width:1mm"
     id="g4"
     transform="translate(9.2162153,-588.61226)" />
  <g
     style="fill:none;stroke:#000000;stroke-width:4mm"
     id="g1246"
     transform="translate(9.2162153,-588.61226)">
    <path
       d="M -1.8044102,1157.026 H 224.87659 L 111.76359,590.097 -1.8044102,1157.026"
       id="path6" />
    <path
       d="m 110.72259,1029.876 h 2.081"
       id="path8" />
    <path
       d="m 110.25259,1029.921 h 3.021"
       id="path10" />
    <path
       d="m 109.90759,1029.967 h 3.711"
       id="path12" />
    <path
       d="m 109.56259,1030.012 h 4.401"
       id="path14" />
    <path
       d="m 109.25859,1030.058 h 5.01"
       id="path16" />
    <path
       d="m 109.05359,1030.103 h 5.42"
       id="path18" />
    <path
       d="m 108.84859,1030.149 h 5.829"
       id="path20" />
    <path
       d="m 108.64359,1030.194 h 6.239"
       id="path22" />
    <path
       d="m 108.43859,1030.239 h 6.649"
       id="path24" />
    <path
       d="m 108.23359,1030.285 h 7.059"
       id="path26" />
    <path
       d="m 108.05559,1030.33 h 7.415"
       id="path28" />
    <path
       d="m 107.91159,1030.376 h 7.704"
       id="path30" />
    <path
       d="m 107.76759,1030.421 h 7.992"
       id="path32" />
    <path
       d="m 107.62359,1030.467 h 8.28"
       id="path34" />
    <path
       d="m 107.47959,1030.512 h 8.568"
       id="path36" />
    <path
       d="m 107.33559,1030.557 h 8.856"
       id="path38" />
    <path
       d="m 107.19059,1030.603 h 9.145"
       id="path40" />
    <path
       d="m 107.04659,1030.648 h 9.433"
       id="path42" />
    <path
       d="m 106.91359,1030.694 h 9.7"
       id="path44" />
    <path
       d="m 106.80359,1030.739 h 9.919"
       id="path46" />
    <path
       d="m 106.69359,1030.785 h 10.139"
       id="path48" />
    <path
       d="m 106.58459,1030.83 h 10.358"
       id="path50" />
    <path
       d="m 106.47459,1030.875 h 10.577"
       id="path52" />
    <path
       d="m 106.36459,1030.921 h 10.797"
       id="path54" />
    <path
       d="m 106.25559,1030.966 h 11.016"
       id="path56" />
    <path
       d="m 106.14559,1031.012 h 11.235"
       id="path58" />
    <path
       d="m 106.03559,1031.057 h 11.455"
       id="path60" />
    <path
       d="m 105.92659,1031.103 h 11.674"
       id="path62" />
    <path
       d="m 105.81659,1031.148 h 11.893"
       id="path64" />
    <path
       d="m 105.72859,1031.193 h 12.07"
       id="path66" />
    <path
       d="m 105.64159,1031.239 h 12.244"
       id="path68" />
    <path
       d="m 105.55359,1031.284 h 12.419"
       id="path70" />
    <path
       d="m 105.46659,1031.33 h 12.593"
       id="path72" />
    <path
       d="m 105.37959,1031.375 h 12.768"
       id="path74" />
    <path
       d="m 105.29259,1031.421 h 12.942"
       id="path76" />
    <path
       d="m 105.20459,1031.466 h 13.117"
       id="path78" />
    <path
       d="m 105.11759,1031.511 h 13.291"
       id="path80" />
    <path
       d="m 105.03059,1031.557 h 13.466"
       id="path82" />
    <path
       d="m 104.94259,1031.602 h 13.641"
       id="path84" />
    <path
       d="m 104.85559,1031.648 h 13.815"
       id="path86" />
    <path
       d="m 104.76859,1031.693 h 13.989"
       id="path88" />
    <path
       d="m 104.68859,1031.739 h 14.149"
       id="path90" />
    <path
       d="m 104.61759,1031.784 h 14.292"
       id="path92" />
    <path
       d="m 104.54659,1031.829 h 14.434"
       id="path94" />
    <path
       d="m 104.47459,1031.875 h 14.577"
       id="path96" />
    <path
       d="m 104.40359,1031.92 h 14.719"
       id="path98" />
    <path
       d="m 104.33259,1031.966 h 14.862"
       id="path100" />
    <path
       d="m 104.26059,1032.011 h 15.005"
       id="path102" />
    <path
       d="m 104.18959,1032.057 h 15.147"
       id="path104" />
    <path
       d="m 104.11859,1032.102 h 15.29"
       id="path106" />
    <path
       d="m 104.04659,1032.147 h 15.433"
       id="path108" />
    <path
       d="m 103.97559,1032.193 h 15.575"
       id="path110" />
    <path
       d="m 103.90459,1032.238 h 15.718"
       id="path112" />
    <path
       d="m 103.83359,1032.284 h 15.86"
       id="path114" />
    <path
       d="m 103.76159,1032.329 h 16.003"
       id="path116" />
    <path
       d="m 103.69059,1032.374 h 16.146"
       id="path118" />
    <path
       d="m 103.63059,1032.42 h 16.265"
       id="path120" />
    <path
       d="m 103.57159,1032.465 h 16.384"
       id="path122" />
    <path
       d="m 103.51259,1032.511 h 16.502"
       id="path124" />
    <path
       d="m 103.45259,1032.556 h 16.621"
       id="path126" />
    <path
       d="m 103.39359,1032.602 h 16.739"
       id="path128" />
    <path
       d="m 103.33459,1032.647 h 16.858"
       id="path130" />
    <path
       d="m 103.27559,1032.692 h 16.976"
       id="path132" />
    <path
       d="m 103.21659,1032.738 h 17.094"
       id="path134" />
    <path
       d="m 103.15659,1032.783 h 17.213"
       id="path136" />
    <path
       d="m 103.09759,1032.829 h 17.331"
       id="path138" />
    <path
       d="m 103.03859,1032.874 h 17.45"
       id="path140" />
    <path
       d="m 102.97959,1032.92 h 17.568"
       id="path142" />
    <path
       d="m 102.92059,1032.965 h 17.686"
       id="path144" />
    <path
       d="m 102.86059,1033.01 h 17.805"
       id="path146" />
    <path
       d="m 102.80159,1033.056 h 17.923"
       id="path148" />
    <path
       d="m 102.74259,1033.101 h 18.042"
       id="path150" />
    <path
       d="m 102.68759,1033.147 h 18.151"
       id="path152" />
    <path
       d="m 102.63859,1033.192 h 18.25"
       id="path154" />
    <path
       d="m 102.58859,1033.238 h 18.349"
       id="path156" />
    <path
       d="m 102.53959,1033.283 h 18.448"
       id="path158" />
    <path
       d="m 102.48959,1033.328 h 18.547"
       id="path160" />
    <path
       d="m 102.43959,1033.374 h 18.647"
       id="path162" />
    <path
       d="m 102.39059,1033.419 h 18.746"
       id="path164" />
    <path
       d="m 102.34059,1033.465 h 18.845"
       id="path166" />
    <path
       d="m 102.29159,1033.51 h 18.944"
       id="path168" />
    <path
       d="m 102.24159,1033.556 h 19.043"
       id="path170" />
    <path
       d="m 102.19259,1033.601 h 19.142"
       id="path172" />
    <path
       d="m 102.14259,1033.646 h 19.241"
       id="path174" />
    <path
       d="m 102.09259,1033.692 h 19.341"
       id="path176" />
    <path
       d="m 102.04359,1033.737 h 19.44"
       id="path178" />
    <path
       d="m 101.99359,1033.783 h 19.539"
       id="path180" />
    <path
       d="m 101.94459,1033.828 h 19.638"
       id="path182" />
    <path
       d="m 101.89459,1033.874 h 19.737"
       id="path184" />
    <path
       d="m 101.84459,1033.919 h 19.837"
       id="path186" />
    <path
       d="m 101.79759,1033.964 h 19.932"
       id="path188" />
    <path
       d="m 101.75559,1034.01 h 20.016"
       id="path190" />
    <path
       d="m 101.71359,1034.055 h 20.099"
       id="path192" />
    <path
       d="m 101.67259,1034.101 h 20.182"
       id="path194" />
    <path
       d="m 101.63059,1034.146 h 20.265"
       id="path196" />
    <path
       d="m 101.58859,1034.192 h 20.349"
       id="path198" />
    <path
       d="m 101.54759,1034.237 h 20.432"
       id="path200" />
    <path
       d="m 101.50559,1034.282 h 20.515"
       id="path202" />
    <path
       d="m 101.46459,1034.328 h 20.598"
       id="path204" />
    <path
       d="m 101.42259,1034.373 h 20.682"
       id="path206" />
    <path
       d="m 101.38059,1034.419 h 20.765"
       id="path208" />
    <path
       d="m 101.33959,1034.464 h 20.848"
       id="path210" />
    <path
       d="m 101.29759,1034.51 h 20.931"
       id="path212" />
    <path
       d="m 101.25559,1034.555 h 21.015"
       id="path214" />
    <path
       d="m 101.21459,1034.6 h 21.098"
       id="path216" />
    <path
       d="m 101.17259,1034.646 h 21.181"
       id="path218" />
    <path
       d="m 101.13159,1034.691 h 21.264"
       id="path220" />
    <path
       d="m 101.08959,1034.737 h 21.348"
       id="path222" />
    <path
       d="m 101.04759,1034.782 h 21.431"
       id="path224" />
    <path
       d="m 101.00659,1034.828 h 21.514"
       id="path226" />
    <path
       d="m 100.96659,1034.873 h 21.594"
       id="path228" />
    <path
       d="m 100.93159,1034.918 h 21.663"
       id="path230" />
    <path
       d="m 100.89659,1034.964 h 21.733"
       id="path232" />
    <path
       d="m 100.86159,1035.009 h 21.803"
       id="path234" />
    <path
       d="m 100.82659,1035.055 h 21.873"
       id="path236" />
    <path
       d="m 100.79159,1035.1 h 21.943"
       id="path238" />
    <path
       d="m 100.75759,1035.146 h 22.012"
       id="path240" />
    <path
       d="m 100.72259,1035.191 h 22.082"
       id="path242" />
    <path
       d="m 100.68759,1035.236 h 22.152"
       id="path244" />
    <path
       d="m 100.65259,1035.282 h 22.221"
       id="path246" />
    <path
       d="m 100.61759,1035.327 h 22.291"
       id="path248" />
    <path
       d="m 100.58259,1035.373 h 22.361"
       id="path250" />
    <path
       d="m 100.54759,1035.418 h 22.431"
       id="path252" />
    <path
       d="m 100.51359,1035.464 h 22.5"
       id="path254" />
    <path
       d="m 100.47859,1035.509 h 22.57"
       id="path256" />
    <path
       d="m 100.44359,1035.554 h 22.64"
       id="path258" />
    <path
       d="m 100.40859,1035.6 h 22.709"
       id="path260" />
    <path
       d="m 100.37359,1035.645 h 22.779"
       id="path262" />
    <path
       d="m 100.33859,1035.691 h 22.849"
       id="path264" />
    <path
       d="m 100.30359,1035.736 h 22.919"
       id="path266" />
    <path
       d="m 100.26959,1035.782 h 22.988"
       id="path268" />
    <path
       d="m 100.23459,1035.827 h 23.058"
       id="path270" />
    <path
       d="m 100.20459,1035.872 h 23.118"
       id="path272" />
    <path
       d="m 100.17559,1035.918 h 23.176"
       id="path274" />
    <path
       d="m 100.14659,1035.963 h 23.234"
       id="path276" />
    <path
       d="m 100.11759,1036.009 h 23.292"
       id="path278" />
    <path
       d="m 100.08859,1036.054 h 23.349"
       id="path280" />
    <path
       d="m 100.05959,1036.1 h 23.407"
       id="path282" />
    <path
       d="m 100.03059,1036.145 h 23.465"
       id="path284" />
    <path
       d="m 100.00159,1036.19 h 23.523"
       id="path286" />
    <path
       d="m 99.97259,1036.236 h 23.581"
       id="path288" />
    <path
       d="m 99.94359,1036.281 h 23.639"
       id="path290" />
    <path
       d="m 99.91459,1036.327 h 23.697"
       id="path292" />
    <path
       d="m 99.88559,1036.372 h 23.755"
       id="path294" />
    <path
       d="m 99.85659,1036.417 h 23.813"
       id="path296" />
    <path
       d="m 99.82759,1036.463 h 23.871"
       id="path298" />
    <path
       d="m 99.79959,1036.508 h 23.928"
       id="path300" />
    <path
       d="m 99.77059,1036.554 h 23.986"
       id="path302" />
    <path
       d="m 99.74159,1036.599 h 24.044"
       id="path304" />
    <path
       d="m 99.71259,1036.645 h 24.102"
       id="path306" />
    <path
       d="m 99.68359,1036.69 h 24.16"
       id="path308" />
    <path
       d="m 99.65459,1036.735 h 24.218"
       id="path310" />
    <path
       d="m 99.62559,1036.781 h 24.276"
       id="path312" />
    <path
       d="m 99.59659,1036.826 h 24.333"
       id="path314" />
    <path
       d="m 99.56759,1036.872 h 24.391"
       id="path316" />
    <path
       d="m 99.54359,1036.917 h 24.439"
       id="path318" />
    <path
       d="m 99.52059,1036.963 h 24.486"
       id="path320" />
    <path
       d="m 99.49659,1037.008 h 24.533"
       id="path322" />
    <path
       d="m 99.47259,1037.053 h 24.581"
       id="path324" />
    <path
       d="m 99.44959,1037.099 h 24.628"
       id="path326" />
    <path
       d="m 99.42559,1037.144 h 24.675"
       id="path328" />
    <path
       d="m 99.40159,1037.19 h 24.723"
       id="path330" />
    <path
       d="m 99.37859,1037.235 h 24.77"
       id="path332" />
    <path
       d="m 99.35459,1037.281 h 24.817"
       id="path334" />
    <path
       d="m 99.33159,1037.326 h 24.864"
       id="path336" />
    <path
       d="m 99.30759,1037.371 h 24.912"
       id="path338" />
    <path
       d="m 99.28359,1037.417 h 24.959"
       id="path340" />
    <path
       d="m 99.26059,1037.462 h 25.006"
       id="path342" />
    <path
       d="m 99.23659,1037.508 h 25.053"
       id="path344" />
    <path
       d="m 99.21259,1037.553 h 25.101"
       id="path346" />
    <path
       d="m 99.18959,1037.599 h 25.148"
       id="path348" />
    <path
       d="m 99.16559,1037.644 h 25.195"
       id="path350" />
    <path
       d="m 99.14159,1037.689 h 25.243"
       id="path352" />
    <path
       d="m 99.11859,1037.735 h 25.29"
       id="path354" />
    <path
       d="m 99.09459,1037.78 h 25.337"
       id="path356" />
    <path
       d="m 99.07059,1037.826 h 25.385"
       id="path358" />
    <path
       d="m 99.04759,1037.871 h 25.432"
       id="path360" />
    <path
       d="m 99.02359,1037.917 h 25.479"
       id="path362" />
    <path
       d="m 99.00059,1037.962 h 25.526"
       id="path364" />
    <path
       d="m 98.98159,1038.007 h 25.564"
       id="path366" />
    <path
       d="m 98.96259,1038.053 h 25.602"
       id="path368" />
    <path
       d="m 98.94359,1038.098 h 25.639"
       id="path370" />
    <path
       d="m 98.92459,1038.144 h 25.677"
       id="path372" />
    <path
       d="m 98.90559,1038.189 h 25.715"
       id="path374" />
    <path
       d="m 98.88759,1038.235 h 25.752"
       id="path376" />
    <path
       d="m 98.86859,1038.28 h 25.79"
       id="path378" />
    <path
       d="m 98.84959,1038.325 h 25.827"
       id="path380" />
    <path
       d="m 98.83059,1038.371 h 25.865"
       id="path382" />
    <path
       d="m 98.81159,1038.416 h 25.903"
       id="path384" />
    <path
       d="m 98.79359,1038.462 h 25.94"
       id="path386" />
    <path
       d="m 98.77459,1038.507 h 25.978"
       id="path388" />
    <path
       d="m 98.75559,1038.553 h 26.016"
       id="path390" />
    <path
       d="m 98.73659,1038.598 h 26.053"
       id="path392" />
    <path
       d="m 98.71759,1038.643 h 26.091"
       id="path394" />
    <path
       d="m 98.69859,1038.689 h 26.129"
       id="path396" />
    <path
       d="m 98.68059,1038.734 h 26.166"
       id="path398" />
    <path
       d="m 98.66159,1038.78 h 26.204"
       id="path400" />
    <path
       d="m 98.64259,1038.825 h 26.241"
       id="path402" />
    <path
       d="m 98.62359,1038.871 h 26.279"
       id="path404" />
    <path
       d="m 98.60459,1038.916 h 26.317"
       id="path406" />
    <path
       d="m 98.58659,1038.961 h 26.354"
       id="path408" />
    <path
       d="m 98.56759,1039.007 h 26.392"
       id="path410" />
    <path
       d="m 98.54859,1039.052 h 26.43"
       id="path412" />
    <path
       d="m 98.52959,1039.098 h 26.467"
       id="path414" />
    <path
       d="m 98.51559,1039.143 h 26.496"
       id="path416" />
    <path
       d="m 98.50159,1039.189 h 26.524"
       id="path418" />
    <path
       d="m 98.48659,1039.234 h 26.553"
       id="path420" />
    <path
       d="m 98.47259,1039.279 h 26.582"
       id="path422" />
    <path
       d="m 98.45859,1039.325 h 26.61"
       id="path424" />
    <path
       d="m 98.44359,1039.37 h 26.639"
       id="path426" />
    <path
       d="m 98.42959,1039.416 h 26.667"
       id="path428" />
    <path
       d="m 98.41559,1039.461 h 26.696"
       id="path430" />
    <path
       d="m 98.40059,1039.507 h 26.725"
       id="path432" />
    <path
       d="m 98.38659,1039.552 h 26.753"
       id="path434" />
    <path
       d="m 98.37259,1039.597 h 26.782"
       id="path436" />
    <path
       d="m 98.35759,1039.643 h 26.811"
       id="path438" />
    <path
       d="m 98.34359,1039.688 h 26.839"
       id="path440" />
    <path
       d="m 98.32959,1039.734 h 26.868"
       id="path442" />
    <path
       d="m 98.31459,1039.779 h 26.897"
       id="path444" />
    <path
       d="m 98.30059,1039.825 h 26.925"
       id="path446" />
    <path
       d="m 98.28659,1039.87 h 26.954"
       id="path448" />
    <path
       d="m 98.27159,1039.915 h 26.983"
       id="path450" />
    <path
       d="m 98.25759,1039.961 h 27.011"
       id="path452" />
    <path
       d="m 98.24359,1040.006 h 27.04"
       id="path454" />
    <path
       d="m 98.22859,1040.052 h 27.069"
       id="path456" />
    <path
       d="m 98.21459,1040.097 h 27.097"
       id="path458" />
    <path
       d="m 98.20059,1040.142 h 27.126"
       id="path460" />
    <path
       d="m 98.18559,1040.188 h 27.155"
       id="path462" />
    <path
       d="m 98.17159,1040.233 h 27.183"
       id="path464" />
    <path
       d="m 98.15859,1040.279 h 27.21"
       id="path466" />
    <path
       d="m 98.14859,1040.324 h 27.23"
       id="path468" />
    <path
       d="m 98.13859,1040.37 h 27.25"
       id="path470" />
    <path
       d="m 98.12859,1040.415 h 27.27"
       id="path472" />
    <path
       d="m 98.11859,1040.461 h 27.29"
       id="path474" />
    <path
       d="m 98.10759,1040.506 h 27.311"
       id="path476" />
    <path
       d="m 98.09759,1040.551 h 27.331"
       id="path478" />
    <path
       d="m 98.08759,1040.597 h 27.351"
       id="path480" />
    <path
       d="m 98.07759,1040.642 h 27.371"
       id="path482" />
    <path
       d="m 98.06759,1040.688 h 27.391"
       id="path484" />
    <path
       d="m 98.05759,1040.733 h 27.411"
       id="path486" />
    <path
       d="m 98.04759,1040.778 h 27.431"
       id="path488" />
    <path
       d="m 98.03759,1040.824 h 27.451"
       id="path490" />
    <path
       d="m 98.02759,1040.869 h 27.472"
       id="path492" />
    <path
       d="m 98.01759,1040.915 h 27.492"
       id="path494" />
    <path
       d="m 98.00759,1040.96 h 27.512"
       id="path496" />
    <path
       d="m 97.99759,1041.006 h 27.532"
       id="path498" />
    <path
       d="m 97.98759,1041.051 h 27.552"
       id="path500" />
    <path
       d="m 97.97759,1041.096 h 27.572"
       id="path502" />
    <path
       d="m 97.96659,1041.142 h 27.593"
       id="path504" />
    <path
       d="m 97.95659,1041.187 h 27.613"
       id="path506" />
    <path
       d="m 97.94659,1041.233 h 27.633"
       id="path508" />
    <path
       d="m 97.93659,1041.278 h 27.653"
       id="path510" />
    <path
       d="m 97.92659,1041.324 h 27.673"
       id="path512" />
    <path
       d="m 97.91659,1041.369 h 27.693"
       id="path514" />
    <path
       d="m 97.90659,1041.414 h 27.713"
       id="path516" />
    <path
       d="m 97.89659,1041.46 h 27.733"
       id="path518" />
    <path
       d="m 97.88959,1041.505 h 27.747"
       id="path520" />
    <path
       d="m 97.88359,1041.551 h 27.759"
       id="path522" />
    <path
       d="m 97.87759,1041.596 h 27.771"
       id="path524" />
    <path
       d="m 97.87159,1041.642 h 27.783"
       id="path526" />
    <path
       d="m 97.86559,1041.687 h 27.795"
       id="path528" />
    <path
       d="m 97.85959,1041.732 h 27.807"
       id="path530" />
    <path
       d="m 97.85359,1041.778 h 27.819"
       id="path532" />
    <path
       d="m 97.84759,1041.823 h 27.831"
       id="path534" />
    <path
       d="m 97.84159,1041.869 h 27.843"
       id="path536" />
    <path
       d="m 97.83559,1041.914 h 27.855"
       id="path538" />
    <path
       d="m 97.83059,1041.96 h 27.866"
       id="path540" />
    <path
       d="m 97.82459,1042.005 h 27.878"
       id="path542" />
    <path
       d="m 97.81859,1042.05 h 27.89"
       id="path544" />
    <path
       d="m 97.81259,1042.096 h 27.902"
       id="path546" />
    <path
       d="m 97.80659,1042.141 h 27.914"
       id="path548" />
    <path
       d="m 97.80059,1042.187 h 27.926"
       id="path550" />
    <path
       d="m 97.79459,1042.232 h 27.938"
       id="path552" />
    <path
       d="m 97.78859,1042.278 h 27.95"
       id="path554" />
    <path
       d="m 97.78259,1042.323 h 27.962"
       id="path556" />
    <path
       d="m 97.77659,1042.368 h 27.974"
       id="path558" />
    <path
       d="m 97.77059,1042.414 h 27.986"
       id="path560" />
    <path
       d="m 97.76459,1042.459 h 27.998"
       id="path562" />
    <path
       d="m 97.75859,1042.505 h 28.01"
       id="path564" />
    <path
       d="m 97.75259,1042.55 h 28.022"
       id="path566" />
    <path
       d="m 97.74659,1042.596 h 28.034"
       id="path568" />
    <path
       d="m 97.74059,1042.641 h 28.046"
       id="path570" />
    <path
       d="m 97.73459,1042.686 h 28.058"
       id="path572" />
    <path
       d="m 97.73259,1042.732 h 28.062"
       id="path574" />
    <path
       d="m 97.73059,1042.777 h 28.065"
       id="path576" />
    <path
       d="m 97.72859,1042.823 h 28.069"
       id="path578" />
    <path
       d="m 97.72659,1042.868 h 28.073"
       id="path580" />
    <path
       d="m 97.72459,1042.914 h 28.077"
       id="path582" />
    <path
       d="m 97.72259,1042.959 h 28.081"
       id="path584" />
    <path
       d="m 97.72059,1043.004 h 28.085"
       id="path586" />
    <path
       d="m 97.71859,1043.05 h 28.089"
       id="path588" />
    <path
       d="m 97.71659,1043.095 h 28.093"
       id="path590" />
    <path
       d="m 97.71459,1043.141 h 28.097"
       id="path592" />
    <path
       d="m 97.71259,1043.186 h 28.101"
       id="path594" />
    <path
       d="m 97.71059,1043.232 h 28.105"
       id="path596" />
    <path
       d="m 97.70859,1043.277 h 28.109"
       id="path598" />
    <path
       d="m 97.70659,1043.322 h 28.113"
       id="path600" />
    <path
       d="m 97.70459,1043.368 h 28.117"
       id="path602" />
    <path
       d="m 97.70259,1043.413 h 28.121"
       id="path604" />
    <path
       d="m 97.70059,1043.459 h 28.125"
       id="path606" />
    <path
       d="m 97.69859,1043.504 h 28.129"
       id="path608" />
    <path
       d="m 97.69659,1043.55 h 28.133"
       id="path610" />
    <path
       d="m 97.69459,1043.595 h 28.137"
       id="path612" />
    <path
       d="m 97.69259,1043.64 h 28.141"
       id="path614" />
    <path
       d="m 97.69059,1043.686 h 28.145"
       id="path616" />
    <path
       d="m 97.68859,1043.731 h 28.149"
       id="path618" />
    <path
       d="m 97.68659,1043.777 h 28.153"
       id="path620" />
    <path
       d="m 97.68459,1043.822 h 28.157"
       id="path622" />
    <path
       d="m 97.68259,1043.868 h 28.161"
       id="path624" />
    <path
       d="m 97.68059,1043.913 h 28.165"
       id="path626" />
    <path
       d="m 97.68259,1043.958 h 28.161"
       id="path628" />
    <path
       d="m 97.68459,1044.004 h 28.157"
       id="path630" />
    <path
       d="m 97.68659,1044.049 h 28.153"
       id="path632" />
    <path
       d="m 97.68859,1044.095 h 28.149"
       id="path634" />
    <path
       d="m 97.69059,1044.14 h 28.145"
       id="path636" />
    <path
       d="m 97.69259,1044.186 h 28.141"
       id="path638" />
    <path
       d="m 97.69459,1044.231 h 28.137"
       id="path640" />
    <path
       d="m 97.69659,1044.276 h 28.133"
       id="path642" />
    <path
       d="m 97.69859,1044.322 h 28.129"
       id="path644" />
    <path
       d="m 97.70059,1044.367 h 28.125"
       id="path646" />
    <path
       d="m 97.70259,1044.413 h 28.121"
       id="path648" />
    <path
       d="m 97.70459,1044.458 h 28.117"
       id="path650" />
    <path
       d="m 97.70659,1044.504 h 28.113"
       id="path652" />
    <path
       d="m 97.70859,1044.549 h 28.109"
       id="path654" />
    <path
       d="m 97.71059,1044.594 h 28.105"
       id="path656" />
    <path
       d="m 97.71259,1044.64 h 28.101"
       id="path658" />
    <path
       d="m 97.71459,1044.685 h 28.097"
       id="path660" />
    <path
       d="m 97.71659,1044.731 h 28.093"
       id="path662" />
    <path
       d="m 97.71859,1044.776 h 28.089"
       id="path664" />
    <path
       d="m 97.72059,1044.821 h 28.085"
       id="path666" />
    <path
       d="m 97.72259,1044.867 h 28.081"
       id="path668" />
    <path
       d="m 97.72459,1044.912 h 28.077"
       id="path670" />
    <path
       d="m 97.72659,1044.958 h 28.073"
       id="path672" />
    <path
       d="m 97.72859,1045.003 h 28.069"
       id="path674" />
    <path
       d="m 97.73059,1045.049 h 28.065"
       id="path676" />
    <path
       d="m 97.73259,1045.094 h 28.062"
       id="path678" />
    <path
       d="m 97.73459,1045.139 h 28.058"
       id="path680" />
    <path
       d="m 97.74059,1045.185 h 28.046"
       id="path682" />
    <path
       d="m 97.74659,1045.23 h 28.034"
       id="path684" />
    <path
       d="m 97.75259,1045.276 h 28.022"
       id="path686" />
    <path
       d="m 97.75859,1045.321 h 28.01"
       id="path688" />
    <path
       d="m 97.76459,1045.367 h 27.998"
       id="path690" />
    <path
       d="m 97.77059,1045.412 h 27.986"
       id="path692" />
    <path
       d="m 97.77659,1045.457 h 27.974"
       id="path694" />
    <path
       d="m 97.78259,1045.503 h 27.962"
       id="path696" />
    <path
       d="m 97.78859,1045.548 h 27.95"
       id="path698" />
    <path
       d="m 97.79459,1045.594 h 27.938"
       id="path700" />
    <path
       d="m 97.80059,1045.639 h 27.926"
       id="path702" />
    <path
       d="m 97.80659,1045.685 h 27.914"
       id="path704" />
    <path
       d="m 97.81259,1045.73 h 27.902"
       id="path706" />
    <path
       d="m 97.81859,1045.775 h 27.89"
       id="path708" />
    <path
       d="m 97.82459,1045.821 h 27.878"
       id="path710" />
    <path
       d="m 97.83059,1045.866 h 27.866"
       id="path712" />
    <path
       d="m 97.83559,1045.912 h 27.855"
       id="path714" />
    <path
       d="m 97.84159,1045.957 h 27.843"
       id="path716" />
    <path
       d="m 97.84759,1046.003 h 27.831"
       id="path718" />
    <path
       d="m 97.85359,1046.048 h 27.819"
       id="path720" />
    <path
       d="m 97.85959,1046.093 h 27.807"
       id="path722" />
    <path
       d="m 97.86559,1046.139 h 27.795"
       id="path724" />
    <path
       d="m 97.87159,1046.184 h 27.783"
       id="path726" />
    <path
       d="m 97.87759,1046.23 h 27.771"
       id="path728" />
    <path
       d="m 97.88359,1046.275 h 27.759"
       id="path730" />
    <path
       d="m 97.88959,1046.321 h 27.747"
       id="path732" />
    <path
       d="m 97.89659,1046.366 h 27.733"
       id="path734" />
    <path
       d="m 97.90659,1046.411 h 27.713"
       id="path736" />
    <path
       d="m 97.91659,1046.457 h 27.693"
       id="path738" />
    <path
       d="m 97.92659,1046.502 h 27.673"
       id="path740" />
    <path
       d="m 97.93659,1046.548 h 27.653"
       id="path742" />
    <path
       d="m 97.94659,1046.593 h 27.633"
       id="path744" />
    <path
       d="m 97.95659,1046.639 h 27.613"
       id="path746" />
    <path
       d="m 97.96659,1046.684 h 27.593"
       id="path748" />
    <path
       d="m 97.97759,1046.729 h 27.572"
       id="path750" />
    <path
       d="m 97.98759,1046.775 h 27.552"
       id="path752" />
    <path
       d="m 97.99759,1046.82 h 27.532"
       id="path754" />
    <path
       d="m 98.00759,1046.866 h 27.512"
       id="path756" />
    <path
       d="m 98.01759,1046.911 h 27.492"
       id="path758" />
    <path
       d="m 98.02759,1046.957 h 27.472"
       id="path760" />
    <path
       d="m 98.03759,1047.002 h 27.451"
       id="path762" />
    <path
       d="m 98.04759,1047.047 h 27.431"
       id="path764" />
    <path
       d="m 98.05759,1047.093 h 27.411"
       id="path766" />
    <path
       d="m 98.06759,1047.138 h 27.391"
       id="path768" />
    <path
       d="m 98.07759,1047.184 h 27.371"
       id="path770" />
    <path
       d="m 98.08759,1047.229 h 27.351"
       id="path772" />
    <path
       d="m 98.09759,1047.275 h 27.331"
       id="path774" />
    <path
       d="m 98.10759,1047.32 h 27.311"
       id="path776" />
    <path
       d="m 98.11859,1047.365 h 27.29"
       id="path778" />
    <path
       d="m 98.12859,1047.411 h 27.27"
       id="path780" />
    <path
       d="m 98.13859,1047.456 h 27.25"
       id="path782" />
    <path
       d="m 98.14859,1047.502 h 27.23"
       id="path784" />
    <path
       d="m 98.15859,1047.547 h 27.21"
       id="path786" />
    <path
       d="m 98.17159,1047.593 h 27.183"
       id="path788" />
    <path
       d="m 98.18559,1047.638 h 27.155"
       id="path790" />
    <path
       d="m 98.20059,1047.683 h 27.126"
       id="path792" />
    <path
       d="m 98.21459,1047.729 h 27.097"
       id="path794" />
    <path
       d="m 98.22859,1047.774 h 27.069"
       id="path796" />
    <path
       d="m 98.24359,1047.82 h 27.04"
       id="path798" />
    <path
       d="m 98.25759,1047.865 h 27.011"
       id="path800" />
    <path
       d="m 98.27159,1047.911 h 26.983"
       id="path802" />
    <path
       d="m 98.28659,1047.956 h 26.954"
       id="path804" />
    <path
       d="m 98.30059,1048.001 h 26.925"
       id="path806" />
    <path
       d="m 98.31459,1048.047 h 26.897"
       id="path808" />
    <path
       d="m 98.32959,1048.092 h 26.868"
       id="path810" />
    <path
       d="m 98.34359,1048.138 h 26.839"
       id="path812" />
    <path
       d="m 98.35759,1048.183 h 26.811"
       id="path814" />
    <path
       d="m 98.37259,1048.229 h 26.782"
       id="path816" />
    <path
       d="m 98.38659,1048.274 h 26.753"
       id="path818" />
    <path
       d="m 98.40059,1048.319 h 26.725"
       id="path820" />
    <path
       d="m 98.41559,1048.365 h 26.696"
       id="path822" />
    <path
       d="m 98.42959,1048.41 h 26.667"
       id="path824" />
    <path
       d="m 98.44359,1048.456 h 26.639"
       id="path826" />
    <path
       d="m 98.45859,1048.501 h 26.61"
       id="path828" />
    <path
       d="m 98.47259,1048.546 h 26.582"
       id="path830" />
    <path
       d="m 98.48659,1048.592 h 26.553"
       id="path832" />
    <path
       d="m 98.50159,1048.637 h 26.524"
       id="path834" />
    <path
       d="m 98.51559,1048.683 h 26.496"
       id="path836" />
    <path
       d="m 98.52959,1048.728 h 26.467"
       id="path838" />
    <path
       d="m 98.54859,1048.774 h 26.43"
       id="path840" />
    <path
       d="m 98.56759,1048.819 h 26.392"
       id="path842" />
    <path
       d="m 98.58659,1048.865 h 26.354"
       id="path844" />
    <path
       d="m 98.60459,1048.91 h 26.317"
       id="path846" />
    <path
       d="m 98.62359,1048.955 h 26.279"
       id="path848" />
    <path
       d="m 98.64259,1049.001 h 26.241"
       id="path850" />
    <path
       d="m 98.66159,1049.046 h 26.204"
       id="path852" />
    <path
       d="m 98.68059,1049.092 h 26.166"
       id="path854" />
    <path
       d="m 98.69859,1049.137 h 26.129"
       id="path856" />
    <path
       d="m 98.71759,1049.182 h 26.091"
       id="path858" />
    <path
       d="m 98.73659,1049.228 h 26.053"
       id="path860" />
    <path
       d="m 98.75559,1049.273 h 26.016"
       id="path862" />
    <path
       d="m 98.77459,1049.319 h 25.978"
       id="path864" />
    <path
       d="m 98.79359,1049.364 h 25.94"
       id="path866" />
    <path
       d="m 98.81159,1049.41 h 25.903"
       id="path868" />
    <path
       d="m 98.83059,1049.455 h 25.865"
       id="path870" />
    <path
       d="m 98.84959,1049.5 h 25.827"
       id="path872" />
    <path
       d="m 98.86859,1049.546 h 25.79"
       id="path874" />
    <path
       d="m 98.88759,1049.591 h 25.752"
       id="path876" />
    <path
       d="m 98.90559,1049.637 h 25.715"
       id="path878" />
    <path
       d="m 98.92459,1049.682 h 25.677"
       id="path880" />
    <path
       d="m 98.94359,1049.728 h 25.639"
       id="path882" />
    <path
       d="m 98.96259,1049.773 h 25.602"
       id="path884" />
    <path
       d="m 98.98159,1049.818 h 25.564"
       id="path886" />
    <path
       d="m 99.00059,1049.864 h 25.526"
       id="path888" />
    <path
       d="m 99.02359,1049.909 h 25.479"
       id="path890" />
    <path
       d="m 99.04759,1049.955 h 25.432"
       id="path892" />
    <path
       d="m 99.07059,1050 h 25.385"
       id="path894" />
    <path
       d="m 99.09459,1050.046 h 25.337"
       id="path896" />
    <path
       d="m 99.11859,1050.091 h 25.29"
       id="path898" />
    <path
       d="m 99.14159,1050.136 h 25.243"
       id="path900" />
    <path
       d="m 99.16559,1050.182 h 25.195"
       id="path902" />
    <path
       d="m 99.18959,1050.227 h 25.148"
       id="path904" />
    <path
       d="m 99.21259,1050.273 h 25.101"
       id="path906" />
    <path
       d="m 99.23659,1050.318 h 25.053"
       id="path908" />
    <path
       d="m 99.26059,1050.364 h 25.006"
       id="path910" />
    <path
       d="m 99.28359,1050.409 h 24.959"
       id="path912" />
    <path
       d="m 99.30759,1050.454 h 24.912"
       id="path914" />
    <path
       d="m 99.33159,1050.5 h 24.864"
       id="path916" />
    <path
       d="m 99.35459,1050.545 h 24.817"
       id="path918" />
    <path
       d="m 99.37859,1050.591 h 24.77"
       id="path920" />
    <path
       d="m 99.40159,1050.636 h 24.723"
       id="path922" />
    <path
       d="m 99.42559,1050.682 h 24.675"
       id="path924" />
    <path
       d="m 99.44959,1050.727 h 24.628"
       id="path926" />
    <path
       d="m 99.47259,1050.772 h 24.581"
       id="path928" />
    <path
       d="m 99.49659,1050.818 h 24.533"
       id="path930" />
    <path
       d="m 99.52059,1050.863 h 24.486"
       id="path932" />
    <path
       d="m 99.54359,1050.909 h 24.439"
       id="path934" />
    <path
       d="m 99.56759,1050.954 h 24.391"
       id="path936" />
    <path
       d="m 99.59659,1051 h 24.333"
       id="path938" />
    <path
       d="m 99.62559,1051.045 h 24.276"
       id="path940" />
    <path
       d="m 99.65459,1051.09 h 24.218"
       id="path942" />
    <path
       d="m 99.68359,1051.136 h 24.16"
       id="path944" />
    <path
       d="m 99.71259,1051.181 h 24.102"
       id="path946" />
    <path
       d="m 99.74159,1051.227 h 24.044"
       id="path948" />
    <path
       d="m 99.77059,1051.272 h 23.986"
       id="path950" />
    <path
       d="m 99.79959,1051.318 h 23.928"
       id="path952" />
    <path
       d="m 99.82759,1051.363 h 23.871"
       id="path954" />
    <path
       d="m 99.85659,1051.408 h 23.813"
       id="path956" />
    <path
       d="m 99.88559,1051.454 h 23.755"
       id="path958" />
    <path
       d="m 99.91459,1051.499 h 23.697"
       id="path960" />
    <path
       d="m 99.94359,1051.545 h 23.639"
       id="path962" />
    <path
       d="m 99.97259,1051.59 h 23.581"
       id="path964" />
    <path
       d="m 100.00159,1051.636 h 23.523"
       id="path966" />
    <path
       d="m 100.03059,1051.681 h 23.465"
       id="path968" />
    <path
       d="m 100.05959,1051.726 h 23.407"
       id="path970" />
    <path
       d="m 100.08859,1051.772 h 23.349"
       id="path972" />
    <path
       d="m 100.11759,1051.817 h 23.292"
       id="path974" />
    <path
       d="m 100.14659,1051.863 h 23.234"
       id="path976" />
    <path
       d="m 100.17559,1051.908 h 23.176"
       id="path978" />
    <path
       d="m 100.20459,1051.954 h 23.118"
       id="path980" />
    <path
       d="m 100.23459,1051.999 h 23.058"
       id="path982" />
    <path
       d="m 100.26959,1052.044 h 22.988"
       id="path984" />
    <path
       d="m 100.30359,1052.09 h 22.919"
       id="path986" />
    <path
       d="m 100.33859,1052.135 h 22.849"
       id="path988" />
    <path
       d="m 100.37359,1052.181 h 22.779"
       id="path990" />
    <path
       d="m 100.40859,1052.226 h 22.709"
       id="path992" />
    <path
       d="m 100.44359,1052.272 h 22.64"
       id="path994" />
    <path
       d="m 100.47859,1052.317 h 22.57"
       id="path996" />
    <path
       d="m 100.51359,1052.362 h 22.5"
       id="path998" />
    <path
       d="m 100.54759,1052.408 h 22.431"
       id="path1000" />
    <path
       d="m 100.58259,1052.453 h 22.361"
       id="path1002" />
    <path
       d="m 100.61759,1052.499 h 22.291"
       id="path1004" />
    <path
       d="m 100.65259,1052.544 h 22.221"
       id="path1006" />
    <path
       d="m 100.68759,1052.59 h 22.152"
       id="path1008" />
    <path
       d="m 100.72259,1052.635 h 22.082"
       id="path1010" />
    <path
       d="m 100.75759,1052.68 h 22.012"
       id="path1012" />
    <path
       d="m 100.79159,1052.726 h 21.943"
       id="path1014" />
    <path
       d="m 100.82659,1052.771 h 21.873"
       id="path1016" />
    <path
       d="m 100.86159,1052.817 h 21.803"
       id="path1018" />
    <path
       d="m 100.89659,1052.862 h 21.733"
       id="path1020" />
    <path
       d="m 100.93159,1052.908 h 21.663"
       id="path1022" />
    <path
       d="m 100.96659,1052.953 h 21.594"
       id="path1024" />
    <path
       d="m 101.00659,1052.998 h 21.514"
       id="path1026" />
    <path
       d="m 101.04759,1053.044 h 21.431"
       id="path1028" />
    <path
       d="m 101.08959,1053.089 h 21.348"
       id="path1030" />
    <path
       d="m 101.13159,1053.135 h 21.264"
       id="path1032" />
    <path
       d="m 101.17259,1053.18 h 21.181"
       id="path1034" />
    <path
       d="m 101.21459,1053.225 h 21.098"
       id="path1036" />
    <path
       d="m 101.25559,1053.271 h 21.015"
       id="path1038" />
    <path
       d="m 101.29759,1053.316 h 20.931"
       id="path1040" />
    <path
       d="m 101.33959,1053.362 h 20.848"
       id="path1042" />
    <path
       d="m 101.38059,1053.407 h 20.765"
       id="path1044" />
    <path
       d="m 101.42259,1053.453 h 20.682"
       id="path1046" />
    <path
       d="m 101.46459,1053.498 h 20.598"
       id="path1048" />
    <path
       d="m 101.50559,1053.543 h 20.515"
       id="path1050" />
    <path
       d="m 101.54759,1053.589 h 20.432"
       id="path1052" />
    <path
       d="m 101.58859,1053.634 h 20.349"
       id="path1054" />
    <path
       d="m 101.63059,1053.68 h 20.265"
       id="path1056" />
    <path
       d="m 101.67259,1053.725 h 20.182"
       id="path1058" />
    <path
       d="m 101.71359,1053.771 h 20.099"
       id="path1060" />
    <path
       d="m 101.75559,1053.816 h 20.016"
       id="path1062" />
    <path
       d="m 101.79759,1053.861 h 19.932"
       id="path1064" />
    <path
       d="m 101.84459,1053.907 h 19.837"
       id="path1066" />
    <path
       d="m 101.89459,1053.952 h 19.737"
       id="path1068" />
    <path
       d="m 101.94459,1053.998 h 19.638"
       id="path1070" />
    <path
       d="m 101.99359,1054.043 h 19.539"
       id="path1072" />
    <path
       d="m 102.04359,1054.089 h 19.44"
       id="path1074" />
    <path
       d="m 102.09259,1054.134 h 19.341"
       id="path1076" />
    <path
       d="m 102.14259,1054.179 h 19.241"
       id="path1078" />
    <path
       d="m 102.19159,1054.225 h 19.143"
       id="path1080" />
    <path
       d="m 102.24159,1054.27 h 19.043"
       id="path1082" />
    <path
       d="m 102.29159,1054.316 h 18.944"
       id="path1084" />
    <path
       d="m 102.34059,1054.361 h 18.845"
       id="path1086" />
    <path
       d="m 102.39059,1054.407 h 18.746"
       id="path1088" />
    <path
       d="m 102.43959,1054.452 h 18.647"
       id="path1090" />
    <path
       d="m 102.48959,1054.497 h 18.547"
       id="path1092" />
    <path
       d="m 102.53859,1054.543 h 18.449"
       id="path1094" />
    <path
       d="m 102.58859,1054.588 h 18.349"
       id="path1096" />
    <path
       d="m 102.63859,1054.634 h 18.25"
       id="path1098" />
    <path
       d="m 102.68759,1054.679 h 18.151"
       id="path1100" />
    <path
       d="m 102.74259,1054.725 h 18.042"
       id="path1102" />
    <path
       d="m 102.80159,1054.77 h 17.923"
       id="path1104" />
    <path
       d="m 102.86059,1054.815 h 17.805"
       id="path1106" />
    <path
       d="m 102.91959,1054.861 h 17.687"
       id="path1108" />
    <path
       d="m 102.97959,1054.906 h 17.568"
       id="path1110" />
    <path
       d="m 103.03859,1054.952 h 17.45"
       id="path1112" />
    <path
       d="m 103.09759,1054.997 h 17.331"
       id="path1114" />
    <path
       d="m 103.15659,1055.043 h 17.213"
       id="path1116" />
    <path
       d="m 103.21559,1055.088 h 17.095"
       id="path1118" />
    <path
       d="m 103.27559,1055.133 h 16.976"
       id="path1120" />
    <path
       d="m 103.33459,1055.179 h 16.858"
       id="path1122" />
    <path
       d="m 103.39359,1055.224 h 16.739"
       id="path1124" />
    <path
       d="m 103.45259,1055.27 h 16.621"
       id="path1126" />
    <path
       d="m 103.51259,1055.315 h 16.502"
       id="path1128" />
    <path
       d="m 103.57159,1055.361 h 16.384"
       id="path1130" />
    <path
       d="m 103.63059,1055.406 h 16.265"
       id="path1132" />
    <path
       d="m 103.69059,1055.451 h 16.146"
       id="path1134" />
    <path
       d="m 103.76159,1055.497 h 16.003"
       id="path1136" />
    <path
       d="m 103.83359,1055.542 h 15.86"
       id="path1138" />
    <path
       d="m 103.90459,1055.588 h 15.718"
       id="path1140" />
    <path
       d="m 103.97559,1055.633 h 15.575"
       id="path1142" />
    <path
       d="m 104.04659,1055.679 h 15.433"
       id="path1144" />
    <path
       d="m 104.11859,1055.724 h 15.29"
       id="path1146" />
    <path
       d="m 104.18959,1055.769 h 15.147"
       id="path1148" />
    <path
       d="m 104.26059,1055.815 h 15.005"
       id="path1150" />
    <path
       d="m 104.33259,1055.86 h 14.862"
       id="path1152" />
    <path
       d="m 104.40359,1055.906 h 14.719"
       id="path1154" />
    <path
       d="m 104.47459,1055.951 h 14.577"
       id="path1156" />
    <path
       d="m 104.54659,1055.997 h 14.434"
       id="path1158" />
    <path
       d="m 104.61759,1056.042 h 14.292"
       id="path1160" />
    <path
       d="m 104.68859,1056.087 h 14.149"
       id="path1162" />
    <path
       d="m 104.76859,1056.133 h 13.989"
       id="path1164" />
    <path
       d="m 104.85559,1056.178 h 13.815"
       id="path1166" />
    <path
       d="m 104.94259,1056.224 h 13.641"
       id="path1168" />
    <path
       d="m 105.03059,1056.269 h 13.466"
       id="path1170" />
    <path
       d="m 105.11759,1056.315 h 13.291"
       id="path1172" />
    <path
       d="m 105.20459,1056.36 h 13.117"
       id="path1174" />
    <path
       d="m 105.29259,1056.405 h 12.942"
       id="path1176" />
    <path
       d="m 105.37959,1056.451 h 12.768"
       id="path1178" />
    <path
       d="m 105.46659,1056.496 h 12.593"
       id="path1180" />
    <path
       d="m 105.55359,1056.542 h 12.419"
       id="path1182" />
    <path
       d="m 105.64159,1056.587 h 12.244"
       id="path1184" />
    <path
       d="m 105.72859,1056.633 h 12.07"
       id="path1186" />
    <path
       d="m 105.81659,1056.678 h 11.893"
       id="path1188" />
    <path
       d="m 105.92659,1056.723 h 11.674"
       id="path1190" />
    <path
       d="m 106.03559,1056.769 h 11.455"
       id="path1192" />
    <path
       d="m 106.14559,1056.814 h 11.235"
       id="path1194" />
    <path
       d="m 106.25559,1056.86 h 11.016"
       id="path1196" />
    <path
       d="m 106.36459,1056.905 h 10.797"
       id="path1198" />
    <path
       d="m 106.47459,1056.95 h 10.577"
       id="path1200" />
    <path
       d="m 106.58459,1056.996 h 10.358"
       id="path1202" />
    <path
       d="m 106.69359,1057.041 h 10.139"
       id="path1204" />
    <path
       d="m 106.80359,1057.087 h 9.919"
       id="path1206" />
    <path
       d="m 106.91359,1057.132 h 9.7"
       id="path1208" />
    <path
       d="m 107.04659,1057.178 h 9.433"
       id="path1210" />
    <path
       d="m 107.19059,1057.223 h 9.145"
       id="path1212" />
    <path
       d="m 107.33559,1057.269 h 8.856"
       id="path1214" />
    <path
       d="m 107.47959,1057.314 h 8.568"
       id="path1216" />
    <path
       d="m 107.62359,1057.359 h 8.28"
       id="path1218" />
    <path
       d="m 107.76759,1057.405 h 7.992"
       id="path1220" />
    <path
       d="m 107.91159,1057.45 h 7.704"
       id="path1222" />
    <path
       d="m 108.05559,1057.496 h 7.415"
       id="path1224" />
    <path
       d="m 108.23359,1057.541 h 7.059"
       id="path1226" />
    <path
       d="m 108.43859,1057.586 h 6.649"
       id="path1228" />
    <path
       d="m 108.64359,1057.632 h 6.239"
       id="path1230" />
    <path
       d="m 108.84859,1057.677 h 5.829"
       id="path1232" />
    <path
       d="m 109.05359,1057.723 h 5.42"
       id="path1234" />
    <path
       d="m 109.25859,1057.768 h 5.01"
       id="path1236" />
    <path
       d="m 109.56259,1057.814 h 4.401"
       id="path1238" />
    <path
       d="m 109.90759,1057.859 h 3.711"
       id="path1240" />
    <path
       d="m 110.25259,1057.904 h 3.021"
       id="path1242" />
    <path
       d="m 110.72259,1057.95 h 2.082"
       id="path1244" />
  </g>
</svg>
