<?xml version="1.0" encoding="UTF-8" standalone="no"?>
<svg
   width="582.06152"
   height="582.06152"
   viewBox="0 0 582.06151 582.06151"
   version="1.1"
   id="svg2502"
   sodipodi:docname="ARPATG01.hpgl.svg"
   inkscape:version="1.1.2 (0a00cf5339, 2022-02-04)"
   xmlns:inkscape="http://www.inkscape.org/namespaces/inkscape"
   xmlns:sodipodi="http://sodipodi.sourceforge.net/DTD/sodipodi-0.dtd"
   xmlns="http://www.w3.org/2000/svg"
   xmlns:svg="http://www.w3.org/2000/svg">
  <defs
     id="defs2506" />
  <sodipodi:namedview
     id="namedview2504"
     pagecolor="#ffffff"
     bordercolor="#666666"
     borderopacity="1.0"
     inkscape:pageshadow="2"
     inkscape:pageopacity="0.0"
     inkscape:pagecheckerboard="0"
     showgrid="false"
     inkscape:zoom="1.2682364"
     inkscape:cx="290.95522"
     inkscape:cy="-1693.2963"
     inkscape:window-width="1495"
     inkscape:window-height="970"
     inkscape:window-x="0"
     inkscape:window-y="32"
     inkscape:window-maximized="0"
     inkscape:current-layer="svg2502" />
  <g
     id="g2"
     transform="translate(7.5662612,-1976.6857)" />
  <g
     style="fill:none;stroke:#000000;stroke-width:1mm"
     id="g4"
     transform="translate(7.5662612,-1976.6857)" />
  <g
     style="fill:none;stroke:#000000;stroke-width:4mm"
     id="g2500"
     transform="translate(7.5662612,-1976.6857)">
    <path
       d="m 566.92899,2267.717 -1.079,24.705 -3.228,24.518 -5.352,24.143 -7.436,23.584 -9.463,22.847 -11.419,21.935 -13.287,20.857 -15.054,19.618 -16.707,18.233 -18.232,16.706"
       id="path6" />
    <path
       d="m 465.67199,2484.863 -19.619,15.054 -20.856,13.287 -21.935,11.419 -22.847,9.463 -23.585,7.437 -24.142,5.352 -24.518,3.228 -24.706,1.078 -24.705,-1.078 -24.518,-3.228"
       id="path8" />
    <path
       d="m 234.24099,2546.875 -24.143,-5.352 -23.584,-7.436 -22.847,-9.464 -21.935,-11.419 -20.856,-13.287 -19.619,-15.054 -18.232003,-16.706 -16.707,-18.233 -15.054,-19.618 -13.287,-20.857"
       id="path10" />
    <path
       d="m 37.976987,2409.449 -11.419,-21.935 -9.463,-22.847 -7.4360003,-23.584 -5.353,-24.143 -3.228,-24.518 L -1.3344028e-5,2267.717 1.0779867,2243.011 l 3.228,-24.517 5.353,-24.143 7.4360003,-23.585"
       id="path12" />
    <path
       d="m 17.094987,2170.766 9.463,-22.846 11.419,-21.935 13.287,-20.857 15.054,-19.619 16.707,-18.232 18.232003,-16.707 19.619,-15.054 20.856,-13.287 21.935,-11.418 22.847,-9.464"
       id="path14" />
    <path
       d="m 186.51399,2001.347 23.584,-7.436 24.143,-5.352 24.518,-3.228 24.705,-1.079 24.706,1.079 24.517,3.228 24.143,5.352 23.585,7.436 22.847,9.464 21.935,11.418"
       id="path16" />
    <path
       d="m 425.19699,2022.229 20.856,13.287 19.619,15.054 18.232,16.707 16.707,18.232 15.054,19.619 13.287,20.857 11.419,21.934 9.463,22.847 7.436,23.585 5.352,24.143"
       id="path18" />
    <path
       d="m 562.62199,2218.494 3.228,24.517 1.079,24.706 -1.079,24.705"
       id="path20" />
    <path
       d="m 280.86799,2197.531 h 5.193"
       id="path22" />
    <path
       d="m 278.27099,2197.644 h 10.387"
       id="path24" />
    <path
       d="m 276.78599,2197.758 h 13.357"
       id="path26" />
    <path
       d="m 275.92399,2197.871 h 15.08"
       id="path28" />
    <path
       d="m 275.06299,2197.985 h 16.803"
       id="path30" />
    <path
       d="m 274.20199,2198.098 h 18.525"
       id="path32" />
    <path
       d="m 273.33999,2198.211 h 20.248"
       id="path34" />
    <path
       d="m 272.47899,2198.325 h 21.971"
       id="path36" />
    <path
       d="m 271.61799,2198.438 h 23.693"
       id="path38" />
    <path
       d="m 270.95999,2198.552 h 25.009"
       id="path40" />
    <path
       d="m 270.44799,2198.665 h 26.032"
       id="path42" />
    <path
       d="m 269.93699,2198.778 h 27.055"
       id="path44" />
    <path
       d="m 269.42499,2198.892 h 28.078"
       id="path46" />
    <path
       d="m 268.91399,2199.005 h 29.101"
       id="path48" />
    <path
       d="m 268.40299,2199.118 h 30.123"
       id="path50" />
    <path
       d="m 267.89099,2199.232 h 31.147"
       id="path52" />
    <path
       d="m 267.37999,2199.345 h 32.169"
       id="path54" />
    <path
       d="m 266.86799,2199.459 h 33.193"
       id="path56" />
    <path
       d="m 266.35699,2199.572 h 34.215"
       id="path58" />
    <path
       d="m 265.84499,2199.685 h 35.238"
       id="path60" />
    <path
       d="m 265.33399,2199.799 h 36.261"
       id="path62" />
    <path
       d="m 264.95499,2199.912 h 37.019"
       id="path64" />
    <path
       d="m 264.59599,2200.026 h 37.737"
       id="path66" />
    <path
       d="m 264.23599,2200.139 h 38.457"
       id="path68" />
    <path
       d="m 263.87599,2200.252 h 39.177"
       id="path70" />
    <path
       d="m 263.51699,2200.366 h 39.895"
       id="path72" />
    <path
       d="m 263.15699,2200.479 h 40.615"
       id="path74" />
    <path
       d="m 262.79699,2200.593 h 41.334"
       id="path76" />
    <path
       d="m 262.43799,2200.706 h 42.053"
       id="path78" />
    <path
       d="m 262.07799,2200.819 h 42.772"
       id="path80" />
    <path
       d="m 261.71899,2200.933 h 43.491"
       id="path82" />
    <path
       d="m 261.35899,2201.046 h 44.211"
       id="path84" />
    <path
       d="m 260.99899,2201.159 h 44.93"
       id="path86" />
    <path
       d="m 260.63999,2201.273 h 45.649"
       id="path88" />
    <path
       d="m 260.27999,2201.386 h 46.369"
       id="path90" />
    <path
       d="m 259.92099,2201.5 h 47.087"
       id="path92" />
    <path
       d="m 259.56099,2201.613 h 47.807"
       id="path94" />
    <path
       d="m 259.25399,2201.726 h 48.421"
       id="path96" />
    <path
       d="m 258.97999,2201.84 h 48.969"
       id="path98" />
    <path
       d="m 258.70599,2201.953 h 49.516"
       id="path100" />
    <path
       d="m 258.43299,2202.066 h 50.063"
       id="path102" />
    <path
       d="m 258.15899,2202.18 h 50.611"
       id="path104" />
    <path
       d="m 257.88499,2202.293 h 51.159"
       id="path106" />
    <path
       d="m 257.61099,2202.407 h 51.706"
       id="path108" />
    <path
       d="m 257.33799,2202.52 h 52.253"
       id="path110" />
    <path
       d="m 257.06399,2202.633 h 52.801"
       id="path112" />
    <path
       d="m 256.78999,2202.747 h 53.349"
       id="path114" />
    <path
       d="m 256.51599,2202.86 h 53.896"
       id="path116" />
    <path
       d="m 256.24299,2202.974 h 54.443"
       id="path118" />
    <path
       d="m 255.96899,2203.087 h 54.991"
       id="path120" />
    <path
       d="m 255.69499,2203.2 h 55.538"
       id="path122" />
    <path
       d="m 255.42099,2203.314 h 56.086"
       id="path124" />
    <path
       d="m 255.14799,2203.427 h 56.633"
       id="path126" />
    <path
       d="m 254.87399,2203.541 h 57.181"
       id="path128" />
    <path
       d="m 254.59999,2203.654 h 57.728"
       id="path130" />
    <path
       d="m 254.32699,2203.767 h 58.275"
       id="path132" />
    <path
       d="m 254.05299,2203.881 h 58.823"
       id="path134" />
    <path
       d="m 253.77899,2203.994 h 59.371"
       id="path136" />
    <path
       d="m 253.55599,2204.107 h 59.816"
       id="path138" />
    <path
       d="m 253.33899,2204.221 h 60.251"
       id="path140" />
    <path
       d="m 253.12099,2204.334 h 60.687"
       id="path142" />
    <path
       d="m 252.90299,2204.448 h 61.123"
       id="path144" />
    <path
       d="m 252.68499,2204.561 h 61.559"
       id="path146" />
    <path
       d="m 252.46699,2204.674 h 61.994"
       id="path148" />
    <path
       d="m 252.24899,2204.788 h 62.43"
       id="path150" />
    <path
       d="m 252.03199,2204.901 h 62.865"
       id="path152" />
    <path
       d="m 251.81399,2205.014 h 63.301"
       id="path154" />
    <path
       d="m 251.59599,2205.128 h 63.737"
       id="path156" />
    <path
       d="m 251.37799,2205.241 h 64.173"
       id="path158" />
    <path
       d="m 251.15999,2205.355 h 64.608"
       id="path160" />
    <path
       d="m 250.94299,2205.468 h 65.043"
       id="path162" />
    <path
       d="m 250.72499,2205.581 h 65.479"
       id="path164" />
    <path
       d="m 250.50699,2205.695 h 65.915"
       id="path166" />
    <path
       d="m 250.28899,2205.808 h 66.351"
       id="path168" />
    <path
       d="m 250.07099,2205.922 h 66.786"
       id="path170" />
    <path
       d="m 249.85299,2206.035 h 67.222"
       id="path172" />
    <path
       d="m 249.63599,2206.148 h 67.657"
       id="path174" />
    <path
       d="m 249.41799,2206.262 h 68.093"
       id="path176" />
    <path
       d="m 249.19999,2206.375 h 68.529"
       id="path178" />
    <path
       d="m 248.98199,2206.489 h 68.965"
       id="path180" />
    <path
       d="m 248.76399,2206.602 h 69.4"
       id="path182" />
    <path
       d="m 248.54599,2206.715 h 69.836"
       id="path184" />
    <path
       d="m 248.32899,2206.829 h 70.271"
       id="path186" />
    <path
       d="m 248.14799,2206.942 h 70.633"
       id="path188" />
    <path
       d="m 247.96999,2207.055 h 70.989"
       id="path190" />
    <path
       d="m 247.79199,2207.169 h 71.345"
       id="path192" />
    <path
       d="m 247.61399,2207.282 h 71.7"
       id="path194" />
    <path
       d="m 247.43599,2207.396 h 72.056"
       id="path196" />
    <path
       d="m 247.25799,2207.509 h 72.412"
       id="path198" />
    <path
       d="m 247.07999,2207.622 h 72.768"
       id="path200" />
    <path
       d="m 246.90199,2207.736 h 73.124"
       id="path202" />
    <path
       d="m 246.72399,2207.849 h 73.48"
       id="path204" />
    <path
       d="m 246.54599,2207.963 h 73.836"
       id="path206" />
    <path
       d="m 246.36799,2208.076 h 74.192"
       id="path208" />
    <path
       d="m 246.18999,2208.189 h 74.548"
       id="path210" />
    <path
       d="m 246.01199,2208.303 h 74.904"
       id="path212" />
    <path
       d="m 245.83399,2208.416 h 75.26"
       id="path214" />
    <path
       d="m 245.65599,2208.53 h 75.616"
       id="path216" />
    <path
       d="m 245.47799,2208.643 h 75.972"
       id="path218" />
    <path
       d="m 245.29999,2208.756 h 76.328"
       id="path220" />
    <path
       d="m 245.12199,2208.87 h 76.684"
       id="path222" />
    <path
       d="m 244.94399,2208.983 h 77.04"
       id="path224" />
    <path
       d="m 244.76599,2209.096 h 77.396"
       id="path226" />
    <path
       d="m 244.58799,2209.21 h 77.752"
       id="path228" />
    <path
       d="m 244.40999,2209.323 h 78.108"
       id="path230" />
    <path
       d="m 244.23199,2209.437 h 78.464"
       id="path232" />
    <path
       d="m 244.05499,2209.55 h 78.819"
       id="path234" />
    <path
       d="m 243.87699,2209.663 h 79.175"
       id="path236" />
    <path
       d="m 243.69899,2209.777 h 79.531"
       id="path238" />
    <path
       d="m 243.52099,2209.89 h 79.887"
       id="path240" />
    <path
       d="m 243.34299,2210.003 h 80.243"
       id="path242" />
    <path
       d="m 243.16499,2210.117 h 80.599"
       id="path244" />
    <path
       d="m 243.01299,2210.23 h 80.903"
       id="path246" />
    <path
       d="m 242.86499,2210.344 h 81.198"
       id="path248" />
    <path
       d="m 242.71799,2210.457 h 81.493"
       id="path250" />
    <path
       d="m 242.56999,2210.57 h 81.789"
       id="path252" />
    <path
       d="m 242.42199,2210.684 h 82.085"
       id="path254" />
    <path
       d="m 242.27399,2210.797 h 82.381"
       id="path256" />
    <path
       d="m 242.12699,2210.911 h 82.675"
       id="path258" />
    <path
       d="m 241.97899,2211.024 h 82.971"
       id="path260" />
    <path
       d="m 241.83099,2211.137 h 83.267"
       id="path262" />
    <path
       d="m 241.68299,2211.251 h 83.563"
       id="path264" />
    <path
       d="m 241.53499,2211.364 h 83.858"
       id="path266" />
    <path
       d="m 241.38799,2211.478 h 84.153"
       id="path268" />
    <path
       d="m 241.23999,2211.591 h 84.449"
       id="path270" />
    <path
       d="m 241.09199,2211.704 h 84.745"
       id="path272" />
    <path
       d="m 240.94399,2211.818 h 85.04"
       id="path274" />
    <path
       d="m 240.79699,2211.931 h 85.335"
       id="path276" />
    <path
       d="m 240.64899,2212.044 h 85.631"
       id="path278" />
    <path
       d="m 240.50099,2212.158 h 85.927"
       id="path280" />
    <path
       d="m 240.35299,2212.271 h 86.222"
       id="path282" />
    <path
       d="m 240.20599,2212.385 h 86.517"
       id="path284" />
    <path
       d="m 240.05799,2212.498 h 86.813"
       id="path286" />
    <path
       d="m 239.90999,2212.611 h 87.109"
       id="path288" />
    <path
       d="m 239.76199,2212.725 h 87.404"
       id="path290" />
    <path
       d="m 239.61499,2212.838 h 87.699"
       id="path292" />
    <path
       d="m 239.46699,2212.951 h 87.995"
       id="path294" />
    <path
       d="m 239.31899,2213.065 h 88.291"
       id="path296" />
    <path
       d="m 239.17099,2213.178 h 88.587"
       id="path298" />
    <path
       d="m 239.02399,2213.292 h 88.881"
       id="path300" />
    <path
       d="m 238.87599,2213.405 h 89.177"
       id="path302" />
    <path
       d="m 238.72799,2213.518 h 89.473"
       id="path304" />
    <path
       d="m 238.57999,2213.632 h 89.769"
       id="path306" />
    <path
       d="m 238.43299,2213.745 h 90.063"
       id="path308" />
    <path
       d="m 238.28499,2213.859 h 90.359"
       id="path310" />
    <path
       d="m 238.15999,2213.972 h 90.609"
       id="path312" />
    <path
       d="m 238.03599,2214.085 h 90.857"
       id="path314" />
    <path
       d="m 237.91199,2214.199 h 91.105"
       id="path316" />
    <path
       d="m 237.78899,2214.312 h 91.351"
       id="path318" />
    <path
       d="m 237.66499,2214.426 h 91.599"
       id="path320" />
    <path
       d="m 237.54099,2214.539 h 91.847"
       id="path322" />
    <path
       d="m 237.41699,2214.652 h 92.094"
       id="path324" />
    <path
       d="m 237.29399,2214.766 h 92.341"
       id="path326" />
    <path
       d="m 237.16999,2214.879 h 92.589"
       id="path328" />
    <path
       d="m 237.04599,2214.992 h 92.837"
       id="path330" />
    <path
       d="m 236.92199,2215.106 h 93.084"
       id="path332" />
    <path
       d="m 236.79899,2215.219 h 93.331"
       id="path334" />
    <path
       d="m 236.67499,2215.333 h 93.579"
       id="path336" />
    <path
       d="m 236.55099,2215.446 h 93.827"
       id="path338" />
    <path
       d="m 236.42699,2215.559 h 94.074"
       id="path340" />
    <path
       d="m 236.30399,2215.673 h 94.321"
       id="path342" />
    <path
       d="m 236.17999,2215.786 h 94.569"
       id="path344" />
    <path
       d="m 236.05599,2215.9 h 94.817"
       id="path346" />
    <path
       d="m 235.93199,2216.013 h 95.064"
       id="path348" />
    <path
       d="m 235.80899,2216.126 h 95.311"
       id="path350" />
    <path
       d="m 235.68499,2216.24 h 95.559"
       id="path352" />
    <path
       d="m 235.56099,2216.353 h 95.807"
       id="path354" />
    <path
       d="m 235.43699,2216.467 h 96.054"
       id="path356" />
    <path
       d="m 235.31399,2216.58 h 96.301"
       id="path358" />
    <path
       d="m 235.18999,2216.693 h 96.549"
       id="path360" />
    <path
       d="m 235.06599,2216.807 h 96.797"
       id="path362" />
    <path
       d="m 234.94299,2216.92 h 97.043"
       id="path364" />
    <path
       d="m 234.81899,2217.033 h 97.291"
       id="path366" />
    <path
       d="m 234.69499,2217.147 h 97.539"
       id="path368" />
    <path
       d="m 234.57099,2217.26 h 97.786"
       id="path370" />
    <path
       d="m 234.44799,2217.374 h 98.033"
       id="path372" />
    <path
       d="m 234.32399,2217.487 h 98.281"
       id="path374" />
    <path
       d="m 234.19999,2217.6 h 98.529"
       id="path376" />
    <path
       d="m 234.07599,2217.714 h 98.776"
       id="path378" />
    <path
       d="m 233.95299,2217.827 h 99.023"
       id="path380" />
    <path
       d="m 233.82899,2217.94 h 99.271"
       id="path382" />
    <path
       d="m 233.71299,2218.054 h 99.503"
       id="path384" />
    <path
       d="m 233.60899,2218.167 h 99.71"
       id="path386" />
    <path
       d="m 233.50499,2218.281 h 99.918"
       id="path388" />
    <path
       d="m 233.40099,2218.394 h 100.126"
       id="path390" />
    <path
       d="m 233.29799,2218.507 h 100.333"
       id="path392" />
    <path
       d="m 233.19399,2218.621 h 100.541"
       id="path394" />
    <path
       d="m 233.08999,2218.734 h 100.749"
       id="path396" />
    <path
       d="m 232.98599,2218.848 h 100.957"
       id="path398" />
    <path
       d="m 232.88199,2218.961 h 101.165"
       id="path400" />
    <path
       d="m 232.77799,2219.074 h 101.373"
       id="path402" />
    <path
       d="m 232.67399,2219.188 h 101.581"
       id="path404" />
    <path
       d="m 232.56999,2219.301 h 101.788"
       id="path406" />
    <path
       d="m 232.46599,2219.415 h 101.996"
       id="path408" />
    <path
       d="m 232.36299,2219.528 h 102.203"
       id="path410" />
    <path
       d="m 232.25899,2219.641 h 102.411"
       id="path412" />
    <path
       d="m 232.15499,2219.755 h 102.619"
       id="path414" />
    <path
       d="m 232.05099,2219.868 h 102.827"
       id="path416" />
    <path
       d="m 231.94699,2219.981 h 103.035"
       id="path418" />
    <path
       d="m 231.84299,2220.095 h 103.243"
       id="path420" />
    <path
       d="m 231.73899,2220.208 h 103.451"
       id="path422" />
    <path
       d="m 231.63499,2220.322 h 103.659"
       id="path424" />
    <path
       d="m 231.53099,2220.435 h 103.867"
       id="path426" />
    <path
       d="m 231.42699,2220.548 h 104.074"
       id="path428" />
    <path
       d="m 231.32399,2220.662 h 104.281"
       id="path430" />
    <path
       d="m 231.21999,2220.775 h 104.489"
       id="path432" />
    <path
       d="m 231.11599,2220.888 h 104.697"
       id="path434" />
    <path
       d="m 231.01199,2221.002 h 104.905"
       id="path436" />
    <path
       d="m 230.90799,2221.115 h 105.113"
       id="path438" />
    <path
       d="m 230.80399,2221.229 h 105.321"
       id="path440" />
    <path
       d="m 230.69999,2221.342 h 105.529"
       id="path442" />
    <path
       d="m 230.59599,2221.455 h 105.737"
       id="path444" />
    <path
       d="m 230.49199,2221.569 h 105.944"
       id="path446" />
    <path
       d="m 230.38799,2221.682 h 106.152"
       id="path448" />
    <path
       d="m 230.28399,2221.796 h 106.36"
       id="path450" />
    <path
       d="m 230.18099,2221.909 h 106.567"
       id="path452" />
    <path
       d="m 230.07699,2222.022 h 106.775"
       id="path454" />
    <path
       d="m 229.97299,2222.136 h 106.983"
       id="path456" />
    <path
       d="m 229.86899,2222.249 h 107.191"
       id="path458" />
    <path
       d="m 229.76499,2222.363 h 107.399"
       id="path460" />
    <path
       d="m 229.66099,2222.476 h 107.607"
       id="path462" />
    <path
       d="m 229.56599,2222.589 h 107.797"
       id="path464" />
    <path
       d="m 229.47899,2222.703 h 107.971"
       id="path466" />
    <path
       d="m 229.39199,2222.816 h 108.145"
       id="path468" />
    <path
       d="m 229.30499,2222.929 h 108.319"
       id="path470" />
    <path
       d="m 229.21799,2223.043 h 108.493"
       id="path472" />
    <path
       d="m 229.13099,2223.156 h 108.667"
       id="path474" />
    <path
       d="m 229.04399,2223.27 h 108.841"
       id="path476" />
    <path
       d="m 228.95699,2223.383 h 109.015"
       id="path478" />
    <path
       d="m 228.86999,2223.496 h 109.189"
       id="path480" />
    <path
       d="m 228.78299,2223.61 h 109.363"
       id="path482" />
    <path
       d="m 228.69599,2223.723 h 109.537"
       id="path484" />
    <path
       d="m 228.60899,2223.837 h 109.711"
       id="path486" />
    <path
       d="m 228.52199,2223.95 h 109.885"
       id="path488" />
    <path
       d="m 228.43499,2224.063 h 110.059"
       id="path490" />
    <path
       d="m 228.34799,2224.177 h 110.233"
       id="path492" />
    <path
       d="m 228.26099,2224.29 h 110.407"
       id="path494" />
    <path
       d="m 228.17399,2224.404 h 110.581"
       id="path496" />
    <path
       d="m 228.08699,2224.517 h 110.755"
       id="path498" />
    <path
       d="m 227.99999,2224.63 h 110.929"
       id="path500" />
    <path
       d="m 227.91299,2224.744 h 111.103"
       id="path502" />
    <path
       d="m 227.82599,2224.857 h 111.277"
       id="path504" />
    <path
       d="m 227.73899,2224.97 h 111.451"
       id="path506" />
    <path
       d="m 227.65199,2225.084 h 111.625"
       id="path508" />
    <path
       d="m 227.56499,2225.197 h 111.799"
       id="path510" />
    <path
       d="m 227.47799,2225.311 h 111.973"
       id="path512" />
    <path
       d="m 227.39099,2225.424 h 112.147"
       id="path514" />
    <path
       d="m 227.30399,2225.537 h 112.321"
       id="path516" />
    <path
       d="m 227.21699,2225.651 h 112.495"
       id="path518" />
    <path
       d="m 227.12999,2225.764 h 112.669"
       id="path520" />
    <path
       d="m 227.04299,2225.877 h 112.843"
       id="path522" />
    <path
       d="m 226.95599,2225.991 h 113.017"
       id="path524" />
    <path
       d="m 226.86899,2226.104 h 113.191"
       id="path526" />
    <path
       d="m 226.78199,2226.218 h 113.365"
       id="path528" />
    <path
       d="m 226.69499,2226.331 h 113.539"
       id="path530" />
    <path
       d="m 226.60799,2226.444 h 113.713"
       id="path532" />
    <path
       d="m 226.52099,2226.558 h 113.887"
       id="path534" />
    <path
       d="m 226.43399,2226.671 h 114.061"
       id="path536" />
    <path
       d="m 226.34699,2226.785 h 114.235"
       id="path538" />
    <path
       d="m 226.25999,2226.898 h 114.409"
       id="path540" />
    <path
       d="m 226.17299,2227.011 h 114.583"
       id="path542" />
    <path
       d="m 226.08599,2227.125 h 114.757"
       id="path544" />
    <path
       d="m 225.99899,2227.238 h 114.931"
       id="path546" />
    <path
       d="m 225.91199,2227.352 h 115.105"
       id="path548" />
    <path
       d="m 225.83399,2227.465 h 115.261"
       id="path550" />
    <path
       d="m 225.76199,2227.578 h 115.405"
       id="path552" />
    <path
       d="m 225.68999,2227.692 h 115.549"
       id="path554" />
    <path
       d="m 225.61699,2227.805 h 115.695"
       id="path556" />
    <path
       d="m 225.54499,2227.918 h 115.839"
       id="path558" />
    <path
       d="m 225.47299,2228.032 h 115.983"
       id="path560" />
    <path
       d="m 225.40099,2228.145 h 116.127"
       id="path562" />
    <path
       d="m 225.32799,2228.259 h 116.273"
       id="path564" />
    <path
       d="m 225.25599,2228.372 h 116.417"
       id="path566" />
    <path
       d="m 225.18399,2228.485 h 116.561"
       id="path568" />
    <path
       d="m 225.11199,2228.599 h 116.705"
       id="path570" />
    <path
       d="m 225.03899,2228.712 h 116.85"
       id="path572" />
    <path
       d="m 224.96699,2228.825 h 116.995"
       id="path574" />
    <path
       d="m 224.89499,2228.939 h 117.139"
       id="path576" />
    <path
       d="m 224.82299,2229.052 h 117.283"
       id="path578" />
    <path
       d="m 224.74999,2229.166 h 117.428"
       id="path580" />
    <path
       d="m 224.67799,2229.279 h 117.572"
       id="path582" />
    <path
       d="m 224.60599,2229.392 h 117.717"
       id="path584" />
    <path
       d="m 224.53399,2229.506 h 117.861"
       id="path586" />
    <path
       d="m 224.46199,2229.619 h 118.005"
       id="path588" />
    <path
       d="m 224.38899,2229.733 h 118.15"
       id="path590" />
    <path
       d="m 224.31699,2229.846 h 118.295"
       id="path592" />
    <path
       d="m 224.24499,2229.959 h 118.439"
       id="path594" />
    <path
       d="m 224.17299,2230.073 h 118.583"
       id="path596" />
    <path
       d="m 224.09999,2230.186 h 118.728"
       id="path598" />
    <path
       d="m 224.02799,2230.3 h 118.873"
       id="path600" />
    <path
       d="m 223.95599,2230.413 h 119.017"
       id="path602" />
    <path
       d="m 223.88399,2230.526 h 119.161"
       id="path604" />
    <path
       d="m 223.81099,2230.64 h 119.306"
       id="path606" />
    <path
       d="m 223.73899,2230.753 h 119.451"
       id="path608" />
    <path
       d="m 223.66699,2230.866 h 119.595"
       id="path610" />
    <path
       d="m 223.59499,2230.98 h 119.739"
       id="path612" />
    <path
       d="m 223.52199,2231.093 h 119.884"
       id="path614" />
    <path
       d="m 223.44999,2231.207 h 120.028"
       id="path616" />
    <path
       d="m 223.37799,2231.32 h 120.173"
       id="path618" />
    <path
       d="m 223.30599,2231.433 h 120.317"
       id="path620" />
    <path
       d="m 223.23399,2231.547 h 120.461"
       id="path622" />
    <path
       d="m 223.16099,2231.66 h 120.606"
       id="path624" />
    <path
       d="m 223.08899,2231.774 h 120.751"
       id="path626" />
    <path
       d="m 223.01699,2231.887 h 120.895"
       id="path628" />
    <path
       d="m 222.94499,2232 h 121.039"
       id="path630" />
    <path
       d="m 222.87199,2232.114 h 121.184"
       id="path632" />
    <path
       d="m 222.79999,2232.227 h 121.329"
       id="path634" />
    <path
       d="m 222.72799,2232.341 h 121.473"
       id="path636" />
    <path
       d="m 222.65599,2232.454 h 121.617"
       id="path638" />
    <path
       d="m 222.58299,2232.567 h 121.762"
       id="path640" />
    <path
       d="m 222.52399,2232.681 h 121.88"
       id="path642" />
    <path
       d="m 222.46499,2232.794 h 121.998"
       id="path644" />
    <path
       d="m 222.40599,2232.907 h 122.116"
       id="path646" />
    <path
       d="m 222.34699,2233.021 h 122.234"
       id="path648" />
    <path
       d="m 222.28799,2233.134 h 122.352"
       id="path650" />
    <path
       d="m 222.22899,2233.248 h 122.471"
       id="path652" />
    <path
       d="m 222.16999,2233.361 h 122.588"
       id="path654" />
    <path
       d="m 222.11099,2233.474 h 122.707"
       id="path656" />
    <path
       d="m 222.05199,2233.588 h 122.825"
       id="path658" />
    <path
       d="m 221.99299,2233.701 h 122.943"
       id="path660" />
    <path
       d="m 221.93399,2233.814 h 123.061"
       id="path662" />
    <path
       d="m 221.87499,2233.928 h 123.179"
       id="path664" />
    <path
       d="m 221.81599,2234.041 h 123.297"
       id="path666" />
    <path
       d="m 221.75699,2234.155 h 123.415"
       id="path668" />
    <path
       d="m 221.69799,2234.268 h 123.533"
       id="path670" />
    <path
       d="m 221.63899,2234.381 h 123.651"
       id="path672" />
    <path
       d="m 221.57999,2234.495 h 123.769"
       id="path674" />
    <path
       d="m 221.52099,2234.608 h 123.887"
       id="path676" />
    <path
       d="m 221.46199,2234.722 h 124.005"
       id="path678" />
    <path
       d="m 221.40299,2234.835 h 124.123"
       id="path680" />
    <path
       d="m 221.34399,2234.948 h 124.241"
       id="path682" />
    <path
       d="m 221.28499,2235.062 h 124.359"
       id="path684" />
    <path
       d="m 221.22599,2235.175 h 124.477"
       id="path686" />
    <path
       d="m 221.16699,2235.289 h 124.595"
       id="path688" />
    <path
       d="m 221.10799,2235.402 h 124.713"
       id="path690" />
    <path
       d="m 221.04899,2235.515 h 124.831"
       id="path692" />
    <path
       d="m 220.98999,2235.629 h 124.949"
       id="path694" />
    <path
       d="m 220.93099,2235.742 h 125.067"
       id="path696" />
    <path
       d="m 220.87199,2235.855 h 125.185"
       id="path698" />
    <path
       d="m 220.81299,2235.969 h 125.303"
       id="path700" />
    <path
       d="m 220.75399,2236.082 h 125.421"
       id="path702" />
    <path
       d="m 220.69499,2236.196 h 125.539"
       id="path704" />
    <path
       d="m 220.63599,2236.309 h 125.657"
       id="path706" />
    <path
       d="m 220.57699,2236.422 h 125.775"
       id="path708" />
    <path
       d="m 220.51799,2236.536 h 125.893"
       id="path710" />
    <path
       d="m 220.45899,2236.649 h 126.011"
       id="path712" />
    <path
       d="m 220.39999,2236.762 h 126.129"
       id="path714" />
    <path
       d="m 220.34099,2236.876 h 126.247"
       id="path716" />
    <path
       d="m 220.28199,2236.989 h 126.365"
       id="path718" />
    <path
       d="m 220.22299,2237.103 h 126.483"
       id="path720" />
    <path
       d="m 220.16299,2237.216 h 126.602"
       id="path722" />
    <path
       d="m 220.10499,2237.329 h 126.719"
       id="path724" />
    <path
       d="m 220.04499,2237.443 h 126.838"
       id="path726" />
    <path
       d="m 219.98599,2237.556 h 126.956"
       id="path728" />
    <path
       d="m 219.92699,2237.67 h 127.074"
       id="path730" />
    <path
       d="m 219.86799,2237.783 h 127.192"
       id="path732" />
    <path
       d="m 219.80899,2237.896 h 127.31"
       id="path734" />
    <path
       d="m 219.75099,2238.01 h 127.427"
       id="path736" />
    <path
       d="m 219.70399,2238.123 h 127.521"
       id="path738" />
    <path
       d="m 219.65699,2238.237 h 127.615"
       id="path740" />
    <path
       d="m 219.60999,2238.35 h 127.709"
       id="path742" />
    <path
       d="m 219.56299,2238.463 h 127.803"
       id="path744" />
    <path
       d="m 219.51599,2238.577 h 127.897"
       id="path746" />
    <path
       d="m 219.46899,2238.69 h 127.991"
       id="path748" />
    <path
       d="m 219.42199,2238.803 h 128.085"
       id="path750" />
    <path
       d="m 219.37499,2238.917 h 128.179"
       id="path752" />
    <path
       d="m 219.32799,2239.03 h 128.273"
       id="path754" />
    <path
       d="m 219.28099,2239.144 h 128.367"
       id="path756" />
    <path
       d="m 219.23399,2239.257 h 128.461"
       id="path758" />
    <path
       d="m 219.18699,2239.37 h 128.555"
       id="path760" />
    <path
       d="m 219.13999,2239.484 h 128.649"
       id="path762" />
    <path
       d="m 219.09299,2239.597 h 128.743"
       id="path764" />
    <path
       d="m 219.04599,2239.711 h 128.837"
       id="path766" />
    <path
       d="m 218.99899,2239.824 h 128.931"
       id="path768" />
    <path
       d="m 218.95199,2239.937 h 129.025"
       id="path770" />
    <path
       d="m 218.90499,2240.051 h 129.119"
       id="path772" />
    <path
       d="m 218.85799,2240.164 h 129.213"
       id="path774" />
    <path
       d="m 218.81099,2240.278 h 129.307"
       id="path776" />
    <path
       d="m 218.76399,2240.391 h 129.4"
       id="path778" />
    <path
       d="m 218.71699,2240.504 h 129.494"
       id="path780" />
    <path
       d="m 218.66999,2240.618 h 129.588"
       id="path782" />
    <path
       d="m 218.62299,2240.731 h 129.682"
       id="path784" />
    <path
       d="m 218.57599,2240.844 h 129.776"
       id="path786" />
    <path
       d="m 218.52899,2240.958 h 129.87"
       id="path788" />
    <path
       d="m 218.48199,2241.071 h 129.964"
       id="path790" />
    <path
       d="m 218.43599,2241.185 h 130.057"
       id="path792" />
    <path
       d="m 218.38799,2241.298 h 130.152"
       id="path794" />
    <path
       d="m 218.34199,2241.411 h 130.245"
       id="path796" />
    <path
       d="m 218.29499,2241.525 h 130.339"
       id="path798" />
    <path
       d="m 218.24799,2241.638 h 130.433"
       id="path800" />
    <path
       d="m 218.20099,2241.751 h 130.527"
       id="path802" />
    <path
       d="m 218.15399,2241.865 h 130.621"
       id="path804" />
    <path
       d="m 218.10699,2241.978 h 130.715"
       id="path806" />
    <path
       d="m 218.05999,2242.092 h 130.809"
       id="path808" />
    <path
       d="m 218.01299,2242.205 h 130.903"
       id="path810" />
    <path
       d="m 217.96599,2242.318 h 130.997"
       id="path812" />
    <path
       d="m 217.91899,2242.432 h 131.091"
       id="path814" />
    <path
       d="m 217.87199,2242.545 h 131.185"
       id="path816" />
    <path
       d="m 217.82499,2242.659 h 131.279"
       id="path818" />
    <path
       d="m 217.77799,2242.772 h 131.373"
       id="path820" />
    <path
       d="m 217.73099,2242.885 h 131.467"
       id="path822" />
    <path
       d="m 217.68399,2242.999 h 131.561"
       id="path824" />
    <path
       d="m 217.63699,2243.112 h 131.655"
       id="path826" />
    <path
       d="m 217.58999,2243.226 h 131.749"
       id="path828" />
    <path
       d="m 217.54299,2243.339 h 131.843"
       id="path830" />
    <path
       d="m 217.49599,2243.452 h 131.937"
       id="path832" />
    <path
       d="m 217.44899,2243.566 h 132.031"
       id="path834" />
    <path
       d="m 217.40299,2243.679 h 132.123"
       id="path836" />
    <path
       d="m 217.36699,2243.792 h 132.195"
       id="path838" />
    <path
       d="m 217.33099,2243.906 h 132.266"
       id="path840" />
    <path
       d="m 217.29599,2244.019 h 132.337"
       id="path842" />
    <path
       d="m 217.25999,2244.133 h 132.409"
       id="path844" />
    <path
       d="m 217.22399,2244.246 h 132.481"
       id="path846" />
    <path
       d="m 217.18799,2244.359 h 132.552"
       id="path848" />
    <path
       d="m 217.15299,2244.473 h 132.623"
       id="path850" />
    <path
       d="m 217.11699,2244.586 h 132.695"
       id="path852" />
    <path
       d="m 217.08099,2244.7 h 132.767"
       id="path854" />
    <path
       d="m 217.04499,2244.813 h 132.838"
       id="path856" />
    <path
       d="m 217.00999,2244.926 h 132.909"
       id="path858" />
    <path
       d="m 216.97399,2245.04 h 132.981"
       id="path860" />
    <path
       d="m 216.93799,2245.153 h 133.053"
       id="path862" />
    <path
       d="m 216.90199,2245.266 h 133.125"
       id="path864" />
    <path
       d="m 216.86699,2245.38 h 133.195"
       id="path866" />
    <path
       d="m 216.83099,2245.493 h 133.267"
       id="path868" />
    <path
       d="m 216.79499,2245.607 h 133.339"
       id="path870" />
    <path
       d="m 216.75899,2245.72 h 133.411"
       id="path872" />
    <path
       d="m 216.72399,2245.833 h 133.481"
       id="path874" />
    <path
       d="m 216.68799,2245.947 h 133.553"
       id="path876" />
    <path
       d="m 216.65199,2246.06 h 133.625"
       id="path878" />
    <path
       d="m 216.61599,2246.174 h 133.696"
       id="path880" />
    <path
       d="m 216.58099,2246.287 h 133.767"
       id="path882" />
    <path
       d="m 216.54499,2246.4 h 133.839"
       id="path884" />
    <path
       d="m 216.50899,2246.514 h 133.911"
       id="path886" />
    <path
       d="m 216.47299,2246.627 h 133.982"
       id="path888" />
    <path
       d="m 216.43799,2246.741 h 134.053"
       id="path890" />
    <path
       d="m 216.40199,2246.854 h 134.125"
       id="path892" />
    <path
       d="m 216.36599,2246.967 h 134.197"
       id="path894" />
    <path
       d="m 216.32999,2247.081 h 134.268"
       id="path896" />
    <path
       d="m 216.29399,2247.194 h 134.34"
       id="path898" />
    <path
       d="m 216.25899,2247.307 h 134.411"
       id="path900" />
    <path
       d="m 216.22299,2247.421 h 134.483"
       id="path902" />
    <path
       d="m 216.18699,2247.534 h 134.554"
       id="path904" />
    <path
       d="m 216.15199,2247.648 h 134.625"
       id="path906" />
    <path
       d="m 216.11599,2247.761 h 134.697"
       id="path908" />
    <path
       d="m 216.07999,2247.874 h 134.769"
       id="path910" />
    <path
       d="m 216.04399,2247.988 h 134.841"
       id="path912" />
    <path
       d="m 216.00899,2248.101 h 134.911"
       id="path914" />
    <path
       d="m 215.97299,2248.215 h 134.983"
       id="path916" />
    <path
       d="m 215.93699,2248.328 h 135.055"
       id="path918" />
    <path
       d="m 215.90099,2248.441 h 135.127"
       id="path920" />
    <path
       d="m 215.86599,2248.555 h 135.197"
       id="path922" />
    <path
       d="m 215.82999,2248.668 h 135.269"
       id="path924" />
    <path
       d="m 215.79399,2248.782 h 135.341"
       id="path926" />
    <path
       d="m 215.75799,2248.895 h 135.412"
       id="path928" />
    <path
       d="m 215.72299,2249.008 h 135.483"
       id="path930" />
    <path
       d="m 215.68699,2249.122 h 135.555"
       id="path932" />
    <path
       d="m 215.65099,2249.235 h 135.627"
       id="path934" />
    <path
       d="m 215.61499,2249.348 h 135.698"
       id="path936" />
    <path
       d="m 215.57999,2249.462 h 135.769"
       id="path938" />
    <path
       d="m 215.54899,2249.575 h 135.831"
       id="path940" />
    <path
       d="m 215.52399,2249.689 h 135.881"
       id="path942" />
    <path
       d="m 215.49799,2249.802 h 135.932"
       id="path944" />
    <path
       d="m 215.47299,2249.915 h 135.982"
       id="path946" />
    <path
       d="m 215.44799,2250.029 h 136.033"
       id="path948" />
    <path
       d="m 215.42299,2250.142 h 136.083"
       id="path950" />
    <path
       d="m 215.39799,2250.255 h 136.133"
       id="path952" />
    <path
       d="m 215.37299,2250.369 h 136.183"
       id="path954" />
    <path
       d="m 215.34799,2250.482 h 136.233"
       id="path956" />
    <path
       d="m 215.32299,2250.596 h 136.283"
       id="path958" />
    <path
       d="m 215.29699,2250.709 h 136.334"
       id="path960" />
    <path
       d="m 215.27199,2250.822 h 136.385"
       id="path962" />
    <path
       d="m 215.24699,2250.936 h 136.435"
       id="path964" />
    <path
       d="m 215.22199,2251.049 h 136.485"
       id="path966" />
    <path
       d="m 215.19699,2251.163 h 136.535"
       id="path968" />
    <path
       d="m 215.17199,2251.276 h 136.585"
       id="path970" />
    <path
       d="m 215.14699,2251.389 h 136.635"
       id="path972" />
    <path
       d="m 215.12099,2251.503 h 136.686"
       id="path974" />
    <path
       d="m 215.09599,2251.616 h 136.737"
       id="path976" />
    <path
       d="m 215.07099,2251.73 h 136.787"
       id="path978" />
    <path
       d="m 215.04599,2251.843 h 136.837"
       id="path980" />
    <path
       d="m 215.02099,2251.956 h 136.887"
       id="path982" />
    <path
       d="m 214.99599,2252.07 h 136.937"
       id="path984" />
    <path
       d="m 214.97099,2252.183 h 136.987"
       id="path986" />
    <path
       d="m 214.94499,2252.296 h 137.038"
       id="path988" />
    <path
       d="m 214.91999,2252.41 h 137.088"
       id="path990" />
    <path
       d="m 214.89499,2252.523 h 137.139"
       id="path992" />
    <path
       d="m 214.86999,2252.637 h 137.189"
       id="path994" />
    <path
       d="m 214.84499,2252.75 h 137.239"
       id="path996" />
    <path
       d="m 214.81999,2252.863 h 137.289"
       id="path998" />
    <path
       d="m 214.79499,2252.977 h 137.339"
       id="path1000" />
    <path
       d="m 214.76899,2253.09 h 137.39"
       id="path1002" />
    <path
       d="m 214.74399,2253.203 h 137.44"
       id="path1004" />
    <path
       d="m 214.71899,2253.317 h 137.491"
       id="path1006" />
    <path
       d="m 214.69399,2253.43 h 137.541"
       id="path1008" />
    <path
       d="m 214.66899,2253.544 h 137.591"
       id="path1010" />
    <path
       d="m 214.64399,2253.657 h 137.641"
       id="path1012" />
    <path
       d="m 214.61899,2253.77 h 137.691"
       id="path1014" />
    <path
       d="m 214.59399,2253.884 h 137.741"
       id="path1016" />
    <path
       d="m 214.56799,2253.997 h 137.792"
       id="path1018" />
    <path
       d="m 214.54299,2254.111 h 137.842"
       id="path1020" />
    <path
       d="m 214.51799,2254.224 h 137.893"
       id="path1022" />
    <path
       d="m 214.49299,2254.337 h 137.943"
       id="path1024" />
    <path
       d="m 214.46799,2254.451 h 137.993"
       id="path1026" />
    <path
       d="m 214.44299,2254.564 h 138.043"
       id="path1028" />
    <path
       d="m 214.41799,2254.678 h 138.093"
       id="path1030" />
    <path
       d="m 214.39199,2254.791 h 138.144"
       id="path1032" />
    <path
       d="m 214.36699,2254.904 h 138.195"
       id="path1034" />
    <path
       d="m 214.34199,2255.018 h 138.245"
       id="path1036" />
    <path
       d="m 214.31699,2255.131 h 138.295"
       id="path1038" />
    <path
       d="m 214.29199,2255.244 h 138.345"
       id="path1040" />
    <path
       d="m 214.26699,2255.358 h 138.395"
       id="path1042" />
    <path
       d="m 214.24199,2255.471 h 138.445"
       id="path1044" />
    <path
       d="m 214.22299,2255.585 h 138.482"
       id="path1046" />
    <path
       d="m 214.20799,2255.698 h 138.512"
       id="path1048" />
    <path
       d="m 214.19299,2255.811 h 138.542"
       id="path1050" />
    <path
       d="m 214.17799,2255.925 h 138.572"
       id="path1052" />
    <path
       d="m 214.16399,2256.038 h 138.601"
       id="path1054" />
    <path
       d="m 214.14899,2256.152 h 138.631"
       id="path1056" />
    <path
       d="m 214.13399,2256.265 h 138.661"
       id="path1058" />
    <path
       d="m 214.11899,2256.378 h 138.691"
       id="path1060" />
    <path
       d="m 214.10399,2256.492 h 138.721"
       id="path1062" />
    <path
       d="m 214.08899,2256.605 h 138.751"
       id="path1064" />
    <path
       d="m 214.07399,2256.719 h 138.781"
       id="path1066" />
    <path
       d="m 214.05899,2256.832 h 138.811"
       id="path1068" />
    <path
       d="m 214.04399,2256.945 h 138.841"
       id="path1070" />
    <path
       d="m 214.02899,2257.059 h 138.871"
       id="path1072" />
    <path
       d="m 214.01399,2257.172 h 138.9"
       id="path1074" />
    <path
       d="m 213.99899,2257.285 h 138.93"
       id="path1076" />
    <path
       d="m 213.98399,2257.399 h 138.96"
       id="path1078" />
    <path
       d="m 213.96899,2257.512 h 138.99"
       id="path1080" />
    <path
       d="m 213.95499,2257.626 h 139.019"
       id="path1082" />
    <path
       d="m 213.93999,2257.739 h 139.049"
       id="path1084" />
    <path
       d="m 213.92499,2257.852 h 139.079"
       id="path1086" />
    <path
       d="m 213.90999,2257.966 h 139.109"
       id="path1088" />
    <path
       d="m 213.89499,2258.079 h 139.139"
       id="path1090" />
    <path
       d="m 213.87999,2258.192 h 139.169"
       id="path1092" />
    <path
       d="m 213.86499,2258.306 h 139.199"
       id="path1094" />
    <path
       d="m 213.84999,2258.419 h 139.229"
       id="path1096" />
    <path
       d="m 213.83499,2258.533 h 139.259"
       id="path1098" />
    <path
       d="m 213.81999,2258.646 h 139.289"
       id="path1100" />
    <path
       d="m 213.80499,2258.759 h 139.318"
       id="path1102" />
    <path
       d="m 213.78999,2258.873 h 139.348"
       id="path1104" />
    <path
       d="m 213.77499,2258.986 h 139.378"
       id="path1106" />
    <path
       d="m 213.76099,2259.1 h 139.407"
       id="path1108" />
    <path
       d="m 213.74599,2259.213 h 139.437"
       id="path1110" />
    <path
       d="m 213.73099,2259.326 h 139.467"
       id="path1112" />
    <path
       d="m 213.71599,2259.44 h 139.497"
       id="path1114" />
    <path
       d="m 213.70099,2259.553 h 139.527"
       id="path1116" />
    <path
       d="m 213.68599,2259.667 h 139.557"
       id="path1118" />
    <path
       d="m 213.67099,2259.78 h 139.587"
       id="path1120" />
    <path
       d="m 213.65599,2259.893 h 139.617"
       id="path1122" />
    <path
       d="m 213.64099,2260.007 h 139.647"
       id="path1124" />
    <path
       d="m 213.62599,2260.12 h 139.677"
       id="path1126" />
    <path
       d="m 213.61099,2260.233 h 139.707"
       id="path1128" />
    <path
       d="m 213.59599,2260.347 h 139.736"
       id="path1130" />
    <path
       d="m 213.58099,2260.46 h 139.766"
       id="path1132" />
    <path
       d="m 213.56699,2260.574 h 139.795"
       id="path1134" />
    <path
       d="m 213.55199,2260.687 h 139.825"
       id="path1136" />
    <path
       d="m 213.53699,2260.8 h 139.855"
       id="path1138" />
    <path
       d="m 213.52199,2260.914 h 139.885"
       id="path1140" />
    <path
       d="m 213.50699,2261.027 h 139.915"
       id="path1142" />
    <path
       d="m 213.49199,2261.14 h 139.945"
       id="path1144" />
    <path
       d="m 213.47699,2261.254 h 139.975"
       id="path1146" />
    <path
       d="m 213.46199,2261.367 h 140.005"
       id="path1148" />
    <path
       d="m 213.44699,2261.481 h 140.035"
       id="path1150" />
    <path
       d="m 213.43299,2261.594 h 140.063"
       id="path1152" />
    <path
       d="m 213.42799,2261.707 h 140.073"
       id="path1154" />
    <path
       d="m 213.42299,2261.821 h 140.083"
       id="path1156" />
    <path
       d="m 213.41799,2261.934 h 140.093"
       id="path1158" />
    <path
       d="m 213.41299,2262.048 h 140.103"
       id="path1160" />
    <path
       d="m 213.40799,2262.161 h 140.113"
       id="path1162" />
    <path
       d="m 213.40299,2262.274 h 140.123"
       id="path1164" />
    <path
       d="m 213.39799,2262.388 h 140.133"
       id="path1166" />
    <path
       d="m 213.39299,2262.501 h 140.143"
       id="path1168" />
    <path
       d="m 213.38799,2262.615 h 140.153"
       id="path1170" />
    <path
       d="m 213.38299,2262.728 h 140.163"
       id="path1172" />
    <path
       d="m 213.37799,2262.841 h 140.173"
       id="path1174" />
    <path
       d="m 213.37299,2262.955 h 140.183"
       id="path1176" />
    <path
       d="m 213.36799,2263.068 h 140.193"
       id="path1178" />
    <path
       d="m 213.36299,2263.181 h 140.203"
       id="path1180" />
    <path
       d="m 213.35799,2263.295 h 140.213"
       id="path1182" />
    <path
       d="m 213.35299,2263.408 h 140.223"
       id="path1184" />
    <path
       d="m 213.34799,2263.522 h 140.232"
       id="path1186" />
    <path
       d="m 213.34299,2263.635 h 140.242"
       id="path1188" />
    <path
       d="m 213.33799,2263.748 h 140.252"
       id="path1190" />
    <path
       d="m 213.33299,2263.862 h 140.262"
       id="path1192" />
    <path
       d="m 213.32799,2263.975 h 140.272"
       id="path1194" />
    <path
       d="m 213.32399,2264.089 h 140.281"
       id="path1196" />
    <path
       d="m 213.31899,2264.202 h 140.291"
       id="path1198" />
    <path
       d="m 213.31399,2264.315 h 140.301"
       id="path1200" />
    <path
       d="m 213.30899,2264.429 h 140.311"
       id="path1202" />
    <path
       d="m 213.30399,2264.542 h 140.321"
       id="path1204" />
    <path
       d="m 213.29899,2264.656 h 140.331"
       id="path1206" />
    <path
       d="m 213.29399,2264.769 h 140.341"
       id="path1208" />
    <path
       d="m 213.28899,2264.882 h 140.351"
       id="path1210" />
    <path
       d="m 213.28399,2264.996 h 140.361"
       id="path1212" />
    <path
       d="m 213.27899,2265.109 h 140.371"
       id="path1214" />
    <path
       d="m 213.27399,2265.222 h 140.381"
       id="path1216" />
    <path
       d="m 213.26899,2265.336 h 140.391"
       id="path1218" />
    <path
       d="m 213.26399,2265.449 h 140.401"
       id="path1220" />
    <path
       d="m 213.25899,2265.563 h 140.41"
       id="path1222" />
    <path
       d="m 213.25399,2265.676 h 140.42"
       id="path1224" />
    <path
       d="m 213.24899,2265.789 h 140.43"
       id="path1226" />
    <path
       d="m 213.24399,2265.903 h 140.44"
       id="path1228" />
    <path
       d="m 213.23899,2266.016 h 140.45"
       id="path1230" />
    <path
       d="m 213.23499,2266.129 h 140.459"
       id="path1232" />
    <path
       d="m 213.22999,2266.243 h 140.469"
       id="path1234" />
    <path
       d="m 213.22499,2266.356 h 140.479"
       id="path1236" />
    <path
       d="m 213.21999,2266.47 h 140.489"
       id="path1238" />
    <path
       d="m 213.21499,2266.583 h 140.499"
       id="path1240" />
    <path
       d="m 213.20999,2266.696 h 140.509"
       id="path1242" />
    <path
       d="m 213.20499,2266.81 h 140.519"
       id="path1244" />
    <path
       d="m 213.19999,2266.923 h 140.529"
       id="path1246" />
    <path
       d="m 213.19499,2267.037 h 140.539"
       id="path1248" />
    <path
       d="m 213.18999,2267.15 h 140.549"
       id="path1250" />
    <path
       d="m 213.18499,2267.263 h 140.559"
       id="path1252" />
    <path
       d="m 213.17999,2267.377 h 140.569"
       id="path1254" />
    <path
       d="m 213.17499,2267.49 h 140.579"
       id="path1256" />
    <path
       d="m 213.16999,2267.604 h 140.589"
       id="path1258" />
    <path
       d="m 213.16499,2267.717 h 140.599"
       id="path1260" />
    <path
       d="m 213.16999,2267.83 h 140.589"
       id="path1262" />
    <path
       d="m 213.17499,2267.944 h 140.579"
       id="path1264" />
    <path
       d="m 213.17999,2268.057 h 140.569"
       id="path1266" />
    <path
       d="m 213.18499,2268.17 h 140.559"
       id="path1268" />
    <path
       d="m 213.18999,2268.284 h 140.549"
       id="path1270" />
    <path
       d="m 213.19499,2268.397 h 140.539"
       id="path1272" />
    <path
       d="m 213.19999,2268.511 h 140.529"
       id="path1274" />
    <path
       d="m 213.20499,2268.624 h 140.519"
       id="path1276" />
    <path
       d="m 213.20999,2268.737 h 140.509"
       id="path1278" />
    <path
       d="m 213.21499,2268.851 h 140.499"
       id="path1280" />
    <path
       d="m 213.21999,2268.964 h 140.489"
       id="path1282" />
    <path
       d="m 213.22499,2269.077 h 140.479"
       id="path1284" />
    <path
       d="m 213.22999,2269.191 h 140.469"
       id="path1286" />
    <path
       d="m 213.23499,2269.304 h 140.459"
       id="path1288" />
    <path
       d="m 213.23899,2269.418 h 140.45"
       id="path1290" />
    <path
       d="m 213.24399,2269.531 h 140.44"
       id="path1292" />
    <path
       d="m 213.24899,2269.644 h 140.43"
       id="path1294" />
    <path
       d="m 213.25399,2269.758 h 140.42"
       id="path1296" />
    <path
       d="m 213.25899,2269.871 h 140.41"
       id="path1298" />
    <path
       d="m 213.26399,2269.985 h 140.401"
       id="path1300" />
    <path
       d="m 213.26899,2270.098 h 140.391"
       id="path1302" />
    <path
       d="m 213.27399,2270.211 h 140.381"
       id="path1304" />
    <path
       d="m 213.27899,2270.325 h 140.371"
       id="path1306" />
    <path
       d="m 213.28399,2270.438 h 140.361"
       id="path1308" />
    <path
       d="m 213.28899,2270.552 h 140.351"
       id="path1310" />
    <path
       d="m 213.29399,2270.665 h 140.341"
       id="path1312" />
    <path
       d="m 213.29899,2270.778 h 140.331"
       id="path1314" />
    <path
       d="m 213.30399,2270.892 h 140.321"
       id="path1316" />
    <path
       d="m 213.30899,2271.005 h 140.311"
       id="path1318" />
    <path
       d="m 213.31399,2271.118 h 140.301"
       id="path1320" />
    <path
       d="m 213.31899,2271.232 h 140.291"
       id="path1322" />
    <path
       d="m 213.32399,2271.345 h 140.281"
       id="path1324" />
    <path
       d="m 213.32799,2271.459 h 140.272"
       id="path1326" />
    <path
       d="m 213.33299,2271.572 h 140.262"
       id="path1328" />
    <path
       d="m 213.33799,2271.685 h 140.252"
       id="path1330" />
    <path
       d="m 213.34299,2271.799 h 140.242"
       id="path1332" />
    <path
       d="m 213.34799,2271.912 h 140.232"
       id="path1334" />
    <path
       d="m 213.35299,2272.026 h 140.223"
       id="path1336" />
    <path
       d="m 213.35799,2272.139 h 140.213"
       id="path1338" />
    <path
       d="m 213.36299,2272.252 h 140.203"
       id="path1340" />
    <path
       d="m 213.36799,2272.366 h 140.193"
       id="path1342" />
    <path
       d="m 213.37299,2272.479 h 140.183"
       id="path1344" />
    <path
       d="m 213.37799,2272.593 h 140.173"
       id="path1346" />
    <path
       d="m 213.38299,2272.706 h 140.163"
       id="path1348" />
    <path
       d="m 213.38799,2272.819 h 140.153"
       id="path1350" />
    <path
       d="m 213.39299,2272.933 h 140.143"
       id="path1352" />
    <path
       d="m 213.39799,2273.046 h 140.133"
       id="path1354" />
    <path
       d="m 213.40299,2273.159 h 140.123"
       id="path1356" />
    <path
       d="m 213.40799,2273.273 h 140.113"
       id="path1358" />
    <path
       d="m 213.41299,2273.386 h 140.103"
       id="path1360" />
    <path
       d="m 213.41799,2273.5 h 140.093"
       id="path1362" />
    <path
       d="m 213.42299,2273.613 h 140.083"
       id="path1364" />
    <path
       d="m 213.42799,2273.726 h 140.073"
       id="path1366" />
    <path
       d="m 213.43299,2273.84 h 140.063"
       id="path1368" />
    <path
       d="m 213.44699,2273.953 h 140.035"
       id="path1370" />
    <path
       d="m 213.46199,2274.066 h 140.005"
       id="path1372" />
    <path
       d="m 213.47699,2274.18 h 139.975"
       id="path1374" />
    <path
       d="m 213.49199,2274.293 h 139.945"
       id="path1376" />
    <path
       d="m 213.50699,2274.407 h 139.915"
       id="path1378" />
    <path
       d="m 213.52199,2274.52 h 139.885"
       id="path1380" />
    <path
       d="m 213.53699,2274.633 h 139.855"
       id="path1382" />
    <path
       d="m 213.55199,2274.747 h 139.825"
       id="path1384" />
    <path
       d="m 213.56699,2274.86 h 139.795"
       id="path1386" />
    <path
       d="m 213.58099,2274.974 h 139.766"
       id="path1388" />
    <path
       d="m 213.59599,2275.087 h 139.736"
       id="path1390" />
    <path
       d="m 213.61099,2275.2 h 139.707"
       id="path1392" />
    <path
       d="m 213.62599,2275.314 h 139.677"
       id="path1394" />
    <path
       d="m 213.64099,2275.427 h 139.647"
       id="path1396" />
    <path
       d="m 213.65599,2275.541 h 139.617"
       id="path1398" />
    <path
       d="m 213.67099,2275.654 h 139.587"
       id="path1400" />
    <path
       d="m 213.68599,2275.767 h 139.557"
       id="path1402" />
    <path
       d="m 213.70099,2275.881 h 139.527"
       id="path1404" />
    <path
       d="m 213.71599,2275.994 h 139.497"
       id="path1406" />
    <path
       d="m 213.73099,2276.107 h 139.467"
       id="path1408" />
    <path
       d="m 213.74599,2276.221 h 139.437"
       id="path1410" />
    <path
       d="m 213.76099,2276.334 h 139.407"
       id="path1412" />
    <path
       d="m 213.77499,2276.448 h 139.378"
       id="path1414" />
    <path
       d="m 213.78999,2276.561 h 139.348"
       id="path1416" />
    <path
       d="m 213.80499,2276.674 h 139.318"
       id="path1418" />
    <path
       d="m 213.81999,2276.788 h 139.289"
       id="path1420" />
    <path
       d="m 213.83499,2276.901 h 139.259"
       id="path1422" />
    <path
       d="m 213.84999,2277.014 h 139.229"
       id="path1424" />
    <path
       d="m 213.86499,2277.128 h 139.199"
       id="path1426" />
    <path
       d="m 213.87999,2277.241 h 139.169"
       id="path1428" />
    <path
       d="m 213.89499,2277.355 h 139.139"
       id="path1430" />
    <path
       d="m 213.90999,2277.468 h 139.109"
       id="path1432" />
    <path
       d="m 213.92499,2277.581 h 139.079"
       id="path1434" />
    <path
       d="m 213.93999,2277.695 h 139.049"
       id="path1436" />
    <path
       d="m 213.95499,2277.808 h 139.019"
       id="path1438" />
    <path
       d="m 213.96899,2277.922 h 138.99"
       id="path1440" />
    <path
       d="m 213.98399,2278.035 h 138.96"
       id="path1442" />
    <path
       d="m 213.99899,2278.148 h 138.93"
       id="path1444" />
    <path
       d="m 214.01399,2278.262 h 138.9"
       id="path1446" />
    <path
       d="m 214.02899,2278.375 h 138.871"
       id="path1448" />
    <path
       d="m 214.04399,2278.489 h 138.841"
       id="path1450" />
    <path
       d="m 214.05899,2278.602 h 138.811"
       id="path1452" />
    <path
       d="m 214.07399,2278.715 h 138.781"
       id="path1454" />
    <path
       d="m 214.08899,2278.829 h 138.751"
       id="path1456" />
    <path
       d="m 214.10399,2278.942 h 138.721"
       id="path1458" />
    <path
       d="m 214.11899,2279.055 h 138.691"
       id="path1460" />
    <path
       d="m 214.13399,2279.169 h 138.661"
       id="path1462" />
    <path
       d="m 214.14899,2279.282 h 138.631"
       id="path1464" />
    <path
       d="m 214.16399,2279.396 h 138.601"
       id="path1466" />
    <path
       d="m 214.17799,2279.509 h 138.572"
       id="path1468" />
    <path
       d="m 214.19299,2279.622 h 138.542"
       id="path1470" />
    <path
       d="m 214.20799,2279.736 h 138.512"
       id="path1472" />
    <path
       d="m 214.22299,2279.849 h 138.482"
       id="path1474" />
    <path
       d="m 214.24199,2279.963 h 138.445"
       id="path1476" />
    <path
       d="m 214.26699,2280.076 h 138.395"
       id="path1478" />
    <path
       d="m 214.29199,2280.189 h 138.345"
       id="path1480" />
    <path
       d="m 214.31699,2280.303 h 138.295"
       id="path1482" />
    <path
       d="m 214.34199,2280.416 h 138.245"
       id="path1484" />
    <path
       d="m 214.36699,2280.53 h 138.195"
       id="path1486" />
    <path
       d="m 214.39199,2280.643 h 138.144"
       id="path1488" />
    <path
       d="m 214.41799,2280.756 h 138.093"
       id="path1490" />
    <path
       d="m 214.44299,2280.87 h 138.043"
       id="path1492" />
    <path
       d="m 214.46799,2280.983 h 137.993"
       id="path1494" />
    <path
       d="m 214.49299,2281.096 h 137.943"
       id="path1496" />
    <path
       d="m 214.51799,2281.21 h 137.893"
       id="path1498" />
    <path
       d="m 214.54299,2281.323 h 137.842"
       id="path1500" />
    <path
       d="m 214.56799,2281.437 h 137.792"
       id="path1502" />
    <path
       d="m 214.59399,2281.55 h 137.741"
       id="path1504" />
    <path
       d="m 214.61899,2281.663 h 137.691"
       id="path1506" />
    <path
       d="m 214.64399,2281.777 h 137.641"
       id="path1508" />
    <path
       d="m 214.66899,2281.89 h 137.591"
       id="path1510" />
    <path
       d="m 214.69399,2282.003 h 137.541"
       id="path1512" />
    <path
       d="m 214.71899,2282.117 h 137.491"
       id="path1514" />
    <path
       d="m 214.74399,2282.23 h 137.44"
       id="path1516" />
    <path
       d="m 214.76899,2282.344 h 137.39"
       id="path1518" />
    <path
       d="m 214.79499,2282.457 h 137.339"
       id="path1520" />
    <path
       d="m 214.81999,2282.57 h 137.289"
       id="path1522" />
    <path
       d="m 214.84499,2282.684 h 137.239"
       id="path1524" />
    <path
       d="m 214.86999,2282.797 h 137.189"
       id="path1526" />
    <path
       d="m 214.89499,2282.911 h 137.139"
       id="path1528" />
    <path
       d="m 214.91999,2283.024 h 137.088"
       id="path1530" />
    <path
       d="m 214.94499,2283.137 h 137.038"
       id="path1532" />
    <path
       d="m 214.97099,2283.251 h 136.987"
       id="path1534" />
    <path
       d="m 214.99599,2283.364 h 136.937"
       id="path1536" />
    <path
       d="m 215.02099,2283.478 h 136.887"
       id="path1538" />
    <path
       d="m 215.04599,2283.591 h 136.837"
       id="path1540" />
    <path
       d="m 215.07099,2283.704 h 136.787"
       id="path1542" />
    <path
       d="m 215.09599,2283.818 h 136.737"
       id="path1544" />
    <path
       d="m 215.12099,2283.931 h 136.686"
       id="path1546" />
    <path
       d="m 215.14699,2284.044 h 136.635"
       id="path1548" />
    <path
       d="m 215.17199,2284.158 h 136.585"
       id="path1550" />
    <path
       d="m 215.19699,2284.271 h 136.535"
       id="path1552" />
    <path
       d="m 215.22199,2284.385 h 136.485"
       id="path1554" />
    <path
       d="m 215.24699,2284.498 h 136.435"
       id="path1556" />
    <path
       d="m 215.27199,2284.611 h 136.385"
       id="path1558" />
    <path
       d="m 215.29699,2284.725 h 136.334"
       id="path1560" />
    <path
       d="m 215.32299,2284.838 h 136.283"
       id="path1562" />
    <path
       d="m 215.34799,2284.951 h 136.233"
       id="path1564" />
    <path
       d="m 215.37299,2285.065 h 136.183"
       id="path1566" />
    <path
       d="m 215.39799,2285.178 h 136.133"
       id="path1568" />
    <path
       d="m 215.42299,2285.292 h 136.083"
       id="path1570" />
    <path
       d="m 215.44799,2285.405 h 136.033"
       id="path1572" />
    <path
       d="m 215.47299,2285.518 h 135.982"
       id="path1574" />
    <path
       d="m 215.49799,2285.632 h 135.932"
       id="path1576" />
    <path
       d="m 215.52399,2285.745 h 135.881"
       id="path1578" />
    <path
       d="m 215.54899,2285.859 h 135.831"
       id="path1580" />
    <path
       d="m 215.57999,2285.972 h 135.769"
       id="path1582" />
    <path
       d="m 215.61499,2286.085 h 135.698"
       id="path1584" />
    <path
       d="m 215.65099,2286.199 h 135.627"
       id="path1586" />
    <path
       d="m 215.68699,2286.312 h 135.555"
       id="path1588" />
    <path
       d="m 215.72299,2286.426 h 135.483"
       id="path1590" />
    <path
       d="m 215.75799,2286.539 h 135.412"
       id="path1592" />
    <path
       d="m 215.79399,2286.652 h 135.341"
       id="path1594" />
    <path
       d="m 215.82999,2286.766 h 135.269"
       id="path1596" />
    <path
       d="m 215.86599,2286.879 h 135.197"
       id="path1598" />
    <path
       d="m 215.90099,2286.992 h 135.127"
       id="path1600" />
    <path
       d="m 215.93699,2287.106 h 135.055"
       id="path1602" />
    <path
       d="m 215.97299,2287.219 h 134.983"
       id="path1604" />
    <path
       d="m 216.00899,2287.333 h 134.911"
       id="path1606" />
    <path
       d="m 216.04399,2287.446 h 134.841"
       id="path1608" />
    <path
       d="m 216.07999,2287.559 h 134.769"
       id="path1610" />
    <path
       d="m 216.11599,2287.673 h 134.697"
       id="path1612" />
    <path
       d="m 216.15199,2287.786 h 134.625"
       id="path1614" />
    <path
       d="m 216.18699,2287.9 h 134.554"
       id="path1616" />
    <path
       d="m 216.22299,2288.013 h 134.483"
       id="path1618" />
    <path
       d="m 216.25899,2288.126 h 134.411"
       id="path1620" />
    <path
       d="m 216.29399,2288.24 h 134.34"
       id="path1622" />
    <path
       d="m 216.32999,2288.353 h 134.268"
       id="path1624" />
    <path
       d="m 216.36599,2288.467 h 134.197"
       id="path1626" />
    <path
       d="m 216.40199,2288.58 h 134.125"
       id="path1628" />
    <path
       d="m 216.43799,2288.693 h 134.053"
       id="path1630" />
    <path
       d="m 216.47299,2288.807 h 133.982"
       id="path1632" />
    <path
       d="m 216.50899,2288.92 h 133.911"
       id="path1634" />
    <path
       d="m 216.54499,2289.033 h 133.839"
       id="path1636" />
    <path
       d="m 216.58099,2289.147 h 133.767"
       id="path1638" />
    <path
       d="m 216.61599,2289.26 h 133.696"
       id="path1640" />
    <path
       d="m 216.65199,2289.374 h 133.625"
       id="path1642" />
    <path
       d="m 216.68799,2289.487 h 133.553"
       id="path1644" />
    <path
       d="m 216.72399,2289.6 h 133.481"
       id="path1646" />
    <path
       d="m 216.75899,2289.714 h 133.411"
       id="path1648" />
    <path
       d="m 216.79499,2289.827 h 133.339"
       id="path1650" />
    <path
       d="m 216.83099,2289.94 h 133.267"
       id="path1652" />
    <path
       d="m 216.86699,2290.054 h 133.195"
       id="path1654" />
    <path
       d="m 216.90199,2290.167 h 133.125"
       id="path1656" />
    <path
       d="m 216.93799,2290.281 h 133.053"
       id="path1658" />
    <path
       d="m 216.97399,2290.394 h 132.981"
       id="path1660" />
    <path
       d="m 217.00999,2290.507 h 132.909"
       id="path1662" />
    <path
       d="m 217.04499,2290.621 h 132.838"
       id="path1664" />
    <path
       d="m 217.08099,2290.734 h 132.767"
       id="path1666" />
    <path
       d="m 217.11699,2290.848 h 132.695"
       id="path1668" />
    <path
       d="m 217.15299,2290.961 h 132.623"
       id="path1670" />
    <path
       d="m 217.18799,2291.074 h 132.552"
       id="path1672" />
    <path
       d="m 217.22399,2291.188 h 132.481"
       id="path1674" />
    <path
       d="m 217.25999,2291.301 h 132.409"
       id="path1676" />
    <path
       d="m 217.29599,2291.415 h 132.337"
       id="path1678" />
    <path
       d="m 217.33099,2291.528 h 132.266"
       id="path1680" />
    <path
       d="m 217.36699,2291.641 h 132.195"
       id="path1682" />
    <path
       d="m 217.40299,2291.755 h 132.123"
       id="path1684" />
    <path
       d="m 217.44899,2291.868 h 132.031"
       id="path1686" />
    <path
       d="m 217.49599,2291.981 h 131.937"
       id="path1688" />
    <path
       d="m 217.54299,2292.095 h 131.843"
       id="path1690" />
    <path
       d="m 217.58999,2292.208 h 131.749"
       id="path1692" />
    <path
       d="m 217.63699,2292.322 h 131.655"
       id="path1694" />
    <path
       d="m 217.68399,2292.435 h 131.561"
       id="path1696" />
    <path
       d="m 217.73099,2292.548 h 131.467"
       id="path1698" />
    <path
       d="m 217.77799,2292.662 h 131.373"
       id="path1700" />
    <path
       d="m 217.82499,2292.775 h 131.279"
       id="path1702" />
    <path
       d="m 217.87199,2292.888 h 131.185"
       id="path1704" />
    <path
       d="m 217.91899,2293.002 h 131.091"
       id="path1706" />
    <path
       d="m 217.96599,2293.115 h 130.997"
       id="path1708" />
    <path
       d="m 218.01299,2293.229 h 130.903"
       id="path1710" />
    <path
       d="m 218.05999,2293.342 h 130.809"
       id="path1712" />
    <path
       d="m 218.10699,2293.455 h 130.715"
       id="path1714" />
    <path
       d="m 218.15399,2293.569 h 130.621"
       id="path1716" />
    <path
       d="m 218.20099,2293.682 h 130.527"
       id="path1718" />
    <path
       d="m 218.24799,2293.796 h 130.433"
       id="path1720" />
    <path
       d="m 218.29499,2293.909 h 130.339"
       id="path1722" />
    <path
       d="m 218.34199,2294.022 h 130.245"
       id="path1724" />
    <path
       d="m 218.38799,2294.136 h 130.152"
       id="path1726" />
    <path
       d="m 218.43599,2294.249 h 130.057"
       id="path1728" />
    <path
       d="m 218.48199,2294.363 h 129.964"
       id="path1730" />
    <path
       d="m 218.52899,2294.476 h 129.87"
       id="path1732" />
    <path
       d="m 218.57599,2294.589 h 129.776"
       id="path1734" />
    <path
       d="m 218.62299,2294.703 h 129.682"
       id="path1736" />
    <path
       d="m 218.66999,2294.816 h 129.588"
       id="path1738" />
    <path
       d="m 218.71699,2294.929 h 129.494"
       id="path1740" />
    <path
       d="m 218.76399,2295.043 h 129.4"
       id="path1742" />
    <path
       d="m 218.81099,2295.156 h 129.306"
       id="path1744" />
    <path
       d="m 218.85799,2295.27 h 129.213"
       id="path1746" />
    <path
       d="m 218.90499,2295.383 h 129.119"
       id="path1748" />
    <path
       d="m 218.95199,2295.496 h 129.025"
       id="path1750" />
    <path
       d="m 218.99899,2295.61 h 128.931"
       id="path1752" />
    <path
       d="m 219.04599,2295.723 h 128.837"
       id="path1754" />
    <path
       d="m 219.09299,2295.837 h 128.743"
       id="path1756" />
    <path
       d="m 219.13999,2295.95 h 128.649"
       id="path1758" />
    <path
       d="m 219.18699,2296.063 h 128.555"
       id="path1760" />
    <path
       d="m 219.23399,2296.177 h 128.461"
       id="path1762" />
    <path
       d="m 219.28099,2296.29 h 128.367"
       id="path1764" />
    <path
       d="m 219.32799,2296.404 h 128.273"
       id="path1766" />
    <path
       d="m 219.37499,2296.517 h 128.179"
       id="path1768" />
    <path
       d="m 219.42199,2296.63 h 128.085"
       id="path1770" />
    <path
       d="m 219.46899,2296.744 h 127.991"
       id="path1772" />
    <path
       d="m 219.51599,2296.857 h 127.897"
       id="path1774" />
    <path
       d="m 219.56299,2296.97 h 127.803"
       id="path1776" />
    <path
       d="m 219.60999,2297.084 h 127.709"
       id="path1778" />
    <path
       d="m 219.65699,2297.197 h 127.615"
       id="path1780" />
    <path
       d="m 219.70399,2297.311 h 127.521"
       id="path1782" />
    <path
       d="m 219.75099,2297.424 h 127.427"
       id="path1784" />
    <path
       d="m 219.80899,2297.537 h 127.31"
       id="path1786" />
    <path
       d="m 219.86799,2297.651 h 127.192"
       id="path1788" />
    <path
       d="m 219.92699,2297.764 h 127.074"
       id="path1790" />
    <path
       d="m 219.98599,2297.877 h 126.956"
       id="path1792" />
    <path
       d="m 220.04499,2297.991 h 126.838"
       id="path1794" />
    <path
       d="m 220.10399,2298.104 h 126.72"
       id="path1796" />
    <path
       d="m 220.16299,2298.218 h 126.602"
       id="path1798" />
    <path
       d="m 220.22199,2298.331 h 126.484"
       id="path1800" />
    <path
       d="m 220.28199,2298.444 h 126.365"
       id="path1802" />
    <path
       d="m 220.34099,2298.558 h 126.247"
       id="path1804" />
    <path
       d="m 220.39999,2298.671 h 126.129"
       id="path1806" />
    <path
       d="m 220.45899,2298.785 h 126.011"
       id="path1808" />
    <path
       d="m 220.51799,2298.898 h 125.893"
       id="path1810" />
    <path
       d="m 220.57699,2299.011 h 125.775"
       id="path1812" />
    <path
       d="m 220.63599,2299.125 h 125.657"
       id="path1814" />
    <path
       d="m 220.69499,2299.238 h 125.539"
       id="path1816" />
    <path
       d="m 220.75399,2299.352 h 125.421"
       id="path1818" />
    <path
       d="m 220.81299,2299.465 h 125.303"
       id="path1820" />
    <path
       d="m 220.87199,2299.578 h 125.185"
       id="path1822" />
    <path
       d="m 220.93099,2299.692 h 125.067"
       id="path1824" />
    <path
       d="m 220.98999,2299.805 h 124.949"
       id="path1826" />
    <path
       d="m 221.04899,2299.918 h 124.831"
       id="path1828" />
    <path
       d="m 221.10799,2300.032 h 124.713"
       id="path1830" />
    <path
       d="m 221.16699,2300.145 h 124.595"
       id="path1832" />
    <path
       d="m 221.22599,2300.259 h 124.477"
       id="path1834" />
    <path
       d="m 221.28499,2300.372 h 124.359"
       id="path1836" />
    <path
       d="m 221.34399,2300.485 h 124.241"
       id="path1838" />
    <path
       d="m 221.40299,2300.599 h 124.123"
       id="path1840" />
    <path
       d="m 221.46199,2300.712 h 124.005"
       id="path1842" />
    <path
       d="m 221.52099,2300.825 h 123.887"
       id="path1844" />
    <path
       d="m 221.57999,2300.939 h 123.769"
       id="path1846" />
    <path
       d="m 221.63899,2301.052 h 123.651"
       id="path1848" />
    <path
       d="m 221.69799,2301.166 h 123.533"
       id="path1850" />
    <path
       d="m 221.75699,2301.279 h 123.415"
       id="path1852" />
    <path
       d="m 221.81599,2301.392 h 123.297"
       id="path1854" />
    <path
       d="m 221.87499,2301.506 h 123.179"
       id="path1856" />
    <path
       d="m 221.93399,2301.619 h 123.061"
       id="path1858" />
    <path
       d="m 221.99299,2301.733 h 122.943"
       id="path1860" />
    <path
       d="m 222.05199,2301.846 h 122.825"
       id="path1862" />
    <path
       d="m 222.11099,2301.959 h 122.706"
       id="path1864" />
    <path
       d="m 222.16999,2302.073 h 122.588"
       id="path1866" />
    <path
       d="m 222.22899,2302.186 h 122.471"
       id="path1868" />
    <path
       d="m 222.28799,2302.3 h 122.352"
       id="path1870" />
    <path
       d="m 222.34699,2302.413 h 122.234"
       id="path1872" />
    <path
       d="m 222.40599,2302.526 h 122.116"
       id="path1874" />
    <path
       d="m 222.46499,2302.64 h 121.998"
       id="path1876" />
    <path
       d="m 222.52399,2302.753 h 121.88"
       id="path1878" />
    <path
       d="m 222.58299,2302.866 h 121.762"
       id="path1880" />
    <path
       d="m 222.65599,2302.98 h 121.617"
       id="path1882" />
    <path
       d="m 222.72799,2303.093 h 121.473"
       id="path1884" />
    <path
       d="m 222.79999,2303.207 h 121.329"
       id="path1886" />
    <path
       d="m 222.87199,2303.32 h 121.184"
       id="path1888" />
    <path
       d="m 222.94499,2303.433 h 121.039"
       id="path1890" />
    <path
       d="m 223.01699,2303.547 h 120.895"
       id="path1892" />
    <path
       d="m 223.08899,2303.66 h 120.751"
       id="path1894" />
    <path
       d="m 223.16099,2303.774 h 120.606"
       id="path1896" />
    <path
       d="m 223.23399,2303.887 h 120.461"
       id="path1898" />
    <path
       d="m 223.30599,2304 h 120.317"
       id="path1900" />
    <path
       d="m 223.37799,2304.114 h 120.173"
       id="path1902" />
    <path
       d="m 223.44999,2304.227 h 120.028"
       id="path1904" />
    <path
       d="m 223.52199,2304.341 h 119.884"
       id="path1906" />
    <path
       d="m 223.59499,2304.454 h 119.739"
       id="path1908" />
    <path
       d="m 223.66699,2304.567 h 119.595"
       id="path1910" />
    <path
       d="m 223.73899,2304.681 h 119.451"
       id="path1912" />
    <path
       d="m 223.81099,2304.794 h 119.306"
       id="path1914" />
    <path
       d="m 223.88399,2304.907 h 119.161"
       id="path1916" />
    <path
       d="m 223.95599,2305.021 h 119.017"
       id="path1918" />
    <path
       d="m 224.02799,2305.134 h 118.873"
       id="path1920" />
    <path
       d="m 224.09999,2305.248 h 118.728"
       id="path1922" />
    <path
       d="m 224.17299,2305.361 h 118.583"
       id="path1924" />
    <path
       d="m 224.24499,2305.474 h 118.439"
       id="path1926" />
    <path
       d="m 224.31699,2305.588 h 118.295"
       id="path1928" />
    <path
       d="m 224.38899,2305.701 h 118.15"
       id="path1930" />
    <path
       d="m 224.46199,2305.815 h 118.005"
       id="path1932" />
    <path
       d="m 224.53399,2305.928 h 117.861"
       id="path1934" />
    <path
       d="m 224.60599,2306.041 h 117.717"
       id="path1936" />
    <path
       d="m 224.67799,2306.155 h 117.572"
       id="path1938" />
    <path
       d="m 224.74999,2306.268 h 117.428"
       id="path1940" />
    <path
       d="m 224.82299,2306.381 h 117.283"
       id="path1942" />
    <path
       d="m 224.89499,2306.495 h 117.139"
       id="path1944" />
    <path
       d="m 224.96699,2306.608 h 116.995"
       id="path1946" />
    <path
       d="m 225.03899,2306.722 h 116.85"
       id="path1948" />
    <path
       d="m 225.11199,2306.835 h 116.705"
       id="path1950" />
    <path
       d="m 225.18399,2306.948 h 116.561"
       id="path1952" />
    <path
       d="m 225.25599,2307.062 h 116.417"
       id="path1954" />
    <path
       d="m 225.32799,2307.175 h 116.273"
       id="path1956" />
    <path
       d="m 225.40099,2307.289 h 116.127"
       id="path1958" />
    <path
       d="m 225.47299,2307.402 h 115.983"
       id="path1960" />
    <path
       d="m 225.54499,2307.515 h 115.839"
       id="path1962" />
    <path
       d="m 225.61699,2307.629 h 115.695"
       id="path1964" />
    <path
       d="m 225.68999,2307.742 h 115.549"
       id="path1966" />
    <path
       d="m 225.76199,2307.856 h 115.405"
       id="path1968" />
    <path
       d="m 225.83399,2307.969 h 115.261"
       id="path1970" />
    <path
       d="m 225.91199,2308.082 h 115.105"
       id="path1972" />
    <path
       d="m 225.99899,2308.196 h 114.931"
       id="path1974" />
    <path
       d="m 226.08599,2308.309 h 114.757"
       id="path1976" />
    <path
       d="m 226.17299,2308.422 h 114.583"
       id="path1978" />
    <path
       d="m 226.25999,2308.536 h 114.409"
       id="path1980" />
    <path
       d="m 226.34699,2308.649 h 114.235"
       id="path1982" />
    <path
       d="m 226.43399,2308.763 h 114.061"
       id="path1984" />
    <path
       d="m 226.52099,2308.876 h 113.887"
       id="path1986" />
    <path
       d="m 226.60799,2308.989 h 113.713"
       id="path1988" />
    <path
       d="m 226.69499,2309.103 h 113.539"
       id="path1990" />
    <path
       d="m 226.78199,2309.216 h 113.365"
       id="path1992" />
    <path
       d="m 226.86899,2309.329 h 113.191"
       id="path1994" />
    <path
       d="m 226.95599,2309.443 h 113.017"
       id="path1996" />
    <path
       d="m 227.04299,2309.556 h 112.843"
       id="path1998" />
    <path
       d="m 227.12999,2309.67 h 112.669"
       id="path2000" />
    <path
       d="m 227.21699,2309.783 h 112.495"
       id="path2002" />
    <path
       d="m 227.30399,2309.896 h 112.321"
       id="path2004" />
    <path
       d="m 227.39099,2310.01 h 112.147"
       id="path2006" />
    <path
       d="m 227.47799,2310.123 h 111.973"
       id="path2008" />
    <path
       d="m 227.56499,2310.237 h 111.799"
       id="path2010" />
    <path
       d="m 227.65199,2310.35 h 111.625"
       id="path2012" />
    <path
       d="m 227.73899,2310.463 h 111.451"
       id="path2014" />
    <path
       d="m 227.82599,2310.577 h 111.277"
       id="path2016" />
    <path
       d="m 227.91299,2310.69 h 111.103"
       id="path2018" />
    <path
       d="m 227.99999,2310.804 h 110.929"
       id="path2020" />
    <path
       d="m 228.08699,2310.917 h 110.755"
       id="path2022" />
    <path
       d="m 228.17399,2311.03 h 110.581"
       id="path2024" />
    <path
       d="m 228.26099,2311.144 h 110.407"
       id="path2026" />
    <path
       d="m 228.34799,2311.257 h 110.233"
       id="path2028" />
    <path
       d="m 228.43499,2311.37 h 110.059"
       id="path2030" />
    <path
       d="m 228.52199,2311.484 h 109.885"
       id="path2032" />
    <path
       d="m 228.60899,2311.597 h 109.711"
       id="path2034" />
    <path
       d="m 228.69599,2311.711 h 109.537"
       id="path2036" />
    <path
       d="m 228.78299,2311.824 h 109.363"
       id="path2038" />
    <path
       d="m 228.86999,2311.937 h 109.189"
       id="path2040" />
    <path
       d="m 228.95699,2312.051 h 109.015"
       id="path2042" />
    <path
       d="m 229.04399,2312.164 h 108.841"
       id="path2044" />
    <path
       d="m 229.13099,2312.278 h 108.667"
       id="path2046" />
    <path
       d="m 229.21799,2312.391 h 108.493"
       id="path2048" />
    <path
       d="m 229.30499,2312.504 h 108.319"
       id="path2050" />
    <path
       d="m 229.39199,2312.618 h 108.145"
       id="path2052" />
    <path
       d="m 229.47899,2312.731 h 107.971"
       id="path2054" />
    <path
       d="m 229.56599,2312.845 h 107.797"
       id="path2056" />
    <path
       d="m 229.66099,2312.958 h 107.607"
       id="path2058" />
    <path
       d="m 229.76499,2313.071 h 107.399"
       id="path2060" />
    <path
       d="m 229.86899,2313.185 h 107.191"
       id="path2062" />
    <path
       d="m 229.97299,2313.298 h 106.983"
       id="path2064" />
    <path
       d="m 230.07699,2313.411 h 106.775"
       id="path2066" />
    <path
       d="m 230.18099,2313.525 h 106.567"
       id="path2068" />
    <path
       d="m 230.28399,2313.638 h 106.36"
       id="path2070" />
    <path
       d="m 230.38799,2313.752 h 106.152"
       id="path2072" />
    <path
       d="m 230.49199,2313.865 h 105.944"
       id="path2074" />
    <path
       d="m 230.59599,2313.978 h 105.737"
       id="path2076" />
    <path
       d="m 230.69999,2314.092 h 105.529"
       id="path2078" />
    <path
       d="m 230.80399,2314.205 h 105.321"
       id="path2080" />
    <path
       d="m 230.90799,2314.318 h 105.113"
       id="path2082" />
    <path
       d="m 231.01199,2314.432 h 104.905"
       id="path2084" />
    <path
       d="m 231.11599,2314.545 h 104.697"
       id="path2086" />
    <path
       d="m 231.21999,2314.659 h 104.489"
       id="path2088" />
    <path
       d="m 231.32399,2314.772 h 104.281"
       id="path2090" />
    <path
       d="m 231.42699,2314.885 h 104.074"
       id="path2092" />
    <path
       d="m 231.53099,2314.999 h 103.867"
       id="path2094" />
    <path
       d="m 231.63499,2315.112 h 103.659"
       id="path2096" />
    <path
       d="m 231.73899,2315.226 h 103.451"
       id="path2098" />
    <path
       d="m 231.84299,2315.339 h 103.243"
       id="path2100" />
    <path
       d="m 231.94699,2315.452 h 103.035"
       id="path2102" />
    <path
       d="m 232.05099,2315.566 h 102.827"
       id="path2104" />
    <path
       d="m 232.15499,2315.679 h 102.619"
       id="path2106" />
    <path
       d="m 232.25899,2315.793 h 102.411"
       id="path2108" />
    <path
       d="m 232.36299,2315.906 h 102.203"
       id="path2110" />
    <path
       d="m 232.46599,2316.019 h 101.996"
       id="path2112" />
    <path
       d="m 232.56999,2316.133 h 101.788"
       id="path2114" />
    <path
       d="m 232.67399,2316.246 h 101.581"
       id="path2116" />
    <path
       d="m 232.77799,2316.359 h 101.373"
       id="path2118" />
    <path
       d="m 232.88199,2316.473 h 101.165"
       id="path2120" />
    <path
       d="m 232.98599,2316.586 h 100.957"
       id="path2122" />
    <path
       d="m 233.08999,2316.7 h 100.749"
       id="path2124" />
    <path
       d="m 233.19399,2316.813 h 100.541"
       id="path2126" />
    <path
       d="m 233.29799,2316.926 h 100.333"
       id="path2128" />
    <path
       d="m 233.40099,2317.04 h 100.126"
       id="path2130" />
    <path
       d="m 233.50499,2317.153 h 99.918"
       id="path2132" />
    <path
       d="m 233.60899,2317.266 h 99.71"
       id="path2134" />
    <path
       d="m 233.71299,2317.38 h 99.503"
       id="path2136" />
    <path
       d="m 233.82899,2317.493 h 99.271"
       id="path2138" />
    <path
       d="m 233.95299,2317.607 h 99.023"
       id="path2140" />
    <path
       d="m 234.07599,2317.72 h 98.776"
       id="path2142" />
    <path
       d="m 234.19999,2317.833 h 98.529"
       id="path2144" />
    <path
       d="m 234.32399,2317.947 h 98.281"
       id="path2146" />
    <path
       d="m 234.44799,2318.06 h 98.033"
       id="path2148" />
    <path
       d="m 234.57099,2318.174 h 97.786"
       id="path2150" />
    <path
       d="m 234.69499,2318.287 h 97.539"
       id="path2152" />
    <path
       d="m 234.81899,2318.4 h 97.291"
       id="path2154" />
    <path
       d="m 234.94299,2318.514 h 97.043"
       id="path2156" />
    <path
       d="m 235.06599,2318.627 h 96.797"
       id="path2158" />
    <path
       d="m 235.18999,2318.741 h 96.549"
       id="path2160" />
    <path
       d="m 235.31399,2318.854 h 96.301"
       id="path2162" />
    <path
       d="m 235.43699,2318.967 h 96.054"
       id="path2164" />
    <path
       d="m 235.56099,2319.081 h 95.807"
       id="path2166" />
    <path
       d="m 235.68499,2319.194 h 95.559"
       id="path2168" />
    <path
       d="m 235.80899,2319.307 h 95.311"
       id="path2170" />
    <path
       d="m 235.93199,2319.421 h 95.064"
       id="path2172" />
    <path
       d="m 236.05599,2319.534 h 94.817"
       id="path2174" />
    <path
       d="m 236.17999,2319.648 h 94.569"
       id="path2176" />
    <path
       d="m 236.30399,2319.761 h 94.321"
       id="path2178" />
    <path
       d="m 236.42699,2319.874 h 94.074"
       id="path2180" />
    <path
       d="m 236.55099,2319.988 h 93.827"
       id="path2182" />
    <path
       d="m 236.67499,2320.101 h 93.579"
       id="path2184" />
    <path
       d="m 236.79899,2320.215 h 93.331"
       id="path2186" />
    <path
       d="m 236.92199,2320.328 h 93.084"
       id="path2188" />
    <path
       d="m 237.04599,2320.441 h 92.837"
       id="path2190" />
    <path
       d="m 237.16999,2320.555 h 92.589"
       id="path2192" />
    <path
       d="m 237.29399,2320.668 h 92.341"
       id="path2194" />
    <path
       d="m 237.41699,2320.782 h 92.094"
       id="path2196" />
    <path
       d="m 237.54099,2320.895 h 91.847"
       id="path2198" />
    <path
       d="m 237.66499,2321.008 h 91.599"
       id="path2200" />
    <path
       d="m 237.78899,2321.122 h 91.351"
       id="path2202" />
    <path
       d="m 237.91199,2321.235 h 91.105"
       id="path2204" />
    <path
       d="m 238.03599,2321.348 h 90.857"
       id="path2206" />
    <path
       d="m 238.15999,2321.462 h 90.609"
       id="path2208" />
    <path
       d="m 238.28499,2321.575 h 90.359"
       id="path2210" />
    <path
       d="m 238.43299,2321.689 h 90.063"
       id="path2212" />
    <path
       d="m 238.57999,2321.802 h 89.769"
       id="path2214" />
    <path
       d="m 238.72799,2321.915 h 89.473"
       id="path2216" />
    <path
       d="m 238.87599,2322.029 h 89.177"
       id="path2218" />
    <path
       d="m 239.02399,2322.142 h 88.881"
       id="path2220" />
    <path
       d="m 239.17099,2322.255 h 88.587"
       id="path2222" />
    <path
       d="m 239.31899,2322.369 h 88.291"
       id="path2224" />
    <path
       d="m 239.46699,2322.482 h 87.995"
       id="path2226" />
    <path
       d="m 239.61499,2322.596 h 87.699"
       id="path2228" />
    <path
       d="m 239.76199,2322.709 h 87.404"
       id="path2230" />
    <path
       d="m 239.90999,2322.822 h 87.109"
       id="path2232" />
    <path
       d="m 240.05799,2322.936 h 86.813"
       id="path2234" />
    <path
       d="m 240.20599,2323.049 h 86.517"
       id="path2236" />
    <path
       d="m 240.35299,2323.163 h 86.222"
       id="path2238" />
    <path
       d="m 240.50099,2323.276 h 85.927"
       id="path2240" />
    <path
       d="m 240.64899,2323.389 h 85.631"
       id="path2242" />
    <path
       d="m 240.79699,2323.503 h 85.335"
       id="path2244" />
    <path
       d="m 240.94399,2323.616 h 85.04"
       id="path2246" />
    <path
       d="m 241.09199,2323.73 h 84.745"
       id="path2248" />
    <path
       d="m 241.23999,2323.843 h 84.449"
       id="path2250" />
    <path
       d="m 241.38799,2323.956 h 84.153"
       id="path2252" />
    <path
       d="m 241.53499,2324.07 h 83.858"
       id="path2254" />
    <path
       d="m 241.68299,2324.183 h 83.563"
       id="path2256" />
    <path
       d="m 241.83099,2324.296 h 83.267"
       id="path2258" />
    <path
       d="m 241.97899,2324.41 h 82.971"
       id="path2260" />
    <path
       d="m 242.12699,2324.523 h 82.675"
       id="path2262" />
    <path
       d="m 242.27399,2324.637 h 82.381"
       id="path2264" />
    <path
       d="m 242.42199,2324.75 h 82.085"
       id="path2266" />
    <path
       d="m 242.56999,2324.863 h 81.789"
       id="path2268" />
    <path
       d="m 242.71799,2324.977 h 81.493"
       id="path2270" />
    <path
       d="m 242.86499,2325.09 h 81.198"
       id="path2272" />
    <path
       d="m 243.01299,2325.203 h 80.903"
       id="path2274" />
    <path
       d="m 243.16499,2325.317 h 80.599"
       id="path2276" />
    <path
       d="m 243.34299,2325.43 h 80.243"
       id="path2278" />
    <path
       d="m 243.52099,2325.544 h 79.887"
       id="path2280" />
    <path
       d="m 243.69899,2325.657 h 79.531"
       id="path2282" />
    <path
       d="m 243.87699,2325.77 h 79.175"
       id="path2284" />
    <path
       d="m 244.05499,2325.884 h 78.819"
       id="path2286" />
    <path
       d="m 244.23199,2325.997 h 78.464"
       id="path2288" />
    <path
       d="m 244.40999,2326.111 h 78.108"
       id="path2290" />
    <path
       d="m 244.58799,2326.224 h 77.752"
       id="path2292" />
    <path
       d="m 244.76599,2326.337 h 77.396"
       id="path2294" />
    <path
       d="m 244.94399,2326.451 h 77.04"
       id="path2296" />
    <path
       d="m 245.12199,2326.564 h 76.684"
       id="path2298" />
    <path
       d="m 245.29999,2326.678 h 76.328"
       id="path2300" />
    <path
       d="m 245.47799,2326.791 h 75.972"
       id="path2302" />
    <path
       d="m 245.65599,2326.904 h 75.616"
       id="path2304" />
    <path
       d="m 245.83399,2327.018 h 75.26"
       id="path2306" />
    <path
       d="m 246.01199,2327.131 h 74.904"
       id="path2308" />
    <path
       d="m 246.18999,2327.244 h 74.548"
       id="path2310" />
    <path
       d="m 246.36799,2327.358 h 74.192"
       id="path2312" />
    <path
       d="m 246.54599,2327.471 h 73.836"
       id="path2314" />
    <path
       d="m 246.72399,2327.585 h 73.48"
       id="path2316" />
    <path
       d="m 246.90199,2327.698 h 73.124"
       id="path2318" />
    <path
       d="m 247.07999,2327.811 h 72.768"
       id="path2320" />
    <path
       d="m 247.25799,2327.925 h 72.412"
       id="path2322" />
    <path
       d="m 247.43599,2328.038 h 72.056"
       id="path2324" />
    <path
       d="m 247.61399,2328.152 h 71.7"
       id="path2326" />
    <path
       d="m 247.79199,2328.265 h 71.345"
       id="path2328" />
    <path
       d="m 247.96999,2328.378 h 70.989"
       id="path2330" />
    <path
       d="m 248.14799,2328.492 h 70.633"
       id="path2332" />
    <path
       d="m 248.32899,2328.605 h 70.271"
       id="path2334" />
    <path
       d="m 248.54599,2328.719 h 69.836"
       id="path2336" />
    <path
       d="m 248.76399,2328.832 h 69.4"
       id="path2338" />
    <path
       d="m 248.98199,2328.945 h 68.965"
       id="path2340" />
    <path
       d="m 249.19999,2329.059 h 68.529"
       id="path2342" />
    <path
       d="m 249.41799,2329.172 h 68.093"
       id="path2344" />
    <path
       d="m 249.63599,2329.285 h 67.657"
       id="path2346" />
    <path
       d="m 249.85299,2329.399 h 67.222"
       id="path2348" />
    <path
       d="m 250.07099,2329.512 h 66.787"
       id="path2350" />
    <path
       d="m 250.28899,2329.626 h 66.351"
       id="path2352" />
    <path
       d="m 250.50699,2329.739 h 65.915"
       id="path2354" />
    <path
       d="m 250.72499,2329.852 h 65.479"
       id="path2356" />
    <path
       d="m 250.94299,2329.966 h 65.043"
       id="path2358" />
    <path
       d="m 251.15999,2330.079 h 64.608"
       id="path2360" />
    <path
       d="m 251.37799,2330.192 h 64.173"
       id="path2362" />
    <path
       d="m 251.59599,2330.306 h 63.737"
       id="path2364" />
    <path
       d="m 251.81399,2330.419 h 63.301"
       id="path2366" />
    <path
       d="m 252.03199,2330.533 h 62.865"
       id="path2368" />
    <path
       d="m 252.24999,2330.646 h 62.429"
       id="path2370" />
    <path
       d="m 252.46699,2330.759 h 61.995"
       id="path2372" />
    <path
       d="m 252.68499,2330.873 h 61.559"
       id="path2374" />
    <path
       d="m 252.90299,2330.986 h 61.123"
       id="path2376" />
    <path
       d="m 253.12099,2331.1 h 60.687"
       id="path2378" />
    <path
       d="m 253.33899,2331.213 h 60.251"
       id="path2380" />
    <path
       d="m 253.55599,2331.326 h 59.817"
       id="path2382" />
    <path
       d="m 253.77899,2331.44 h 59.371"
       id="path2384" />
    <path
       d="m 254.05299,2331.553 h 58.823"
       id="path2386" />
    <path
       d="m 254.32699,2331.667 h 58.275"
       id="path2388" />
    <path
       d="m 254.59999,2331.78 h 57.729"
       id="path2390" />
    <path
       d="m 254.87399,2331.893 h 57.181"
       id="path2392" />
    <path
       d="m 255.14799,2332.007 h 56.633"
       id="path2394" />
    <path
       d="m 255.42199,2332.12 h 56.085"
       id="path2396" />
    <path
       d="m 255.69499,2332.233 h 55.539"
       id="path2398" />
    <path
       d="m 255.96899,2332.347 h 54.991"
       id="path2400" />
    <path
       d="m 256.24299,2332.46 h 54.443"
       id="path2402" />
    <path
       d="m 256.51699,2332.574 h 53.895"
       id="path2404" />
    <path
       d="m 256.78999,2332.687 h 53.349"
       id="path2406" />
    <path
       d="m 257.06399,2332.8 h 52.801"
       id="path2408" />
    <path
       d="m 257.33799,2332.914 h 52.253"
       id="path2410" />
    <path
       d="m 257.61099,2333.027 h 51.706"
       id="path2412" />
    <path
       d="m 257.88499,2333.14 h 51.159"
       id="path2414" />
    <path
       d="m 258.15899,2333.254 h 50.611"
       id="path2416" />
    <path
       d="m 258.43299,2333.367 h 50.063"
       id="path2418" />
    <path
       d="m 258.70599,2333.481 h 49.516"
       id="path2420" />
    <path
       d="m 258.97999,2333.594 h 48.969"
       id="path2422" />
    <path
       d="m 259.25399,2333.707 h 48.421"
       id="path2424" />
    <path
       d="m 259.56099,2333.821 h 47.807"
       id="path2426" />
    <path
       d="m 259.92099,2333.934 h 47.087"
       id="path2428" />
    <path
       d="m 260.27999,2334.048 h 46.369"
       id="path2430" />
    <path
       d="m 260.63999,2334.161 h 45.649"
       id="path2432" />
    <path
       d="m 260.99899,2334.274 h 44.93"
       id="path2434" />
    <path
       d="m 261.35899,2334.388 h 44.211"
       id="path2436" />
    <path
       d="m 261.71899,2334.501 h 43.491"
       id="path2438" />
    <path
       d="m 262.07799,2334.615 h 42.772"
       id="path2440" />
    <path
       d="m 262.43799,2334.728 h 42.053"
       id="path2442" />
    <path
       d="m 262.79699,2334.841 h 41.334"
       id="path2444" />
    <path
       d="m 263.15699,2334.955 h 40.615"
       id="path2446" />
    <path
       d="m 263.51699,2335.068 h 39.895"
       id="path2448" />
    <path
       d="m 263.87599,2335.181 h 39.177"
       id="path2450" />
    <path
       d="m 264.23599,2335.295 h 38.457"
       id="path2452" />
    <path
       d="m 264.59599,2335.408 h 37.737"
       id="path2454" />
    <path
       d="m 264.95499,2335.522 h 37.019"
       id="path2456" />
    <path
       d="m 265.33399,2335.635 h 36.261"
       id="path2458" />
    <path
       d="m 265.84499,2335.748 h 35.238"
       id="path2460" />
    <path
       d="m 266.35699,2335.862 h 34.215"
       id="path2462" />
    <path
       d="m 266.86799,2335.975 h 33.193"
       id="path2464" />
    <path
       d="m 267.37999,2336.089 h 32.169"
       id="path2466" />
    <path
       d="m 267.89099,2336.202 h 31.147"
       id="path2468" />
    <path
       d="m 268.40299,2336.315 h 30.123"
       id="path2470" />
    <path
       d="m 268.91399,2336.429 h 29.101"
       id="path2472" />
    <path
       d="m 269.42499,2336.542 h 28.078"
       id="path2474" />
    <path
       d="m 269.93699,2336.656 h 27.055"
       id="path2476" />
    <path
       d="m 270.44799,2336.769 h 26.032"
       id="path2478" />
    <path
       d="m 270.95999,2336.882 h 25.009"
       id="path2480" />
    <path
       d="m 271.61799,2336.996 h 23.693"
       id="path2482" />
    <path
       d="m 272.47899,2337.109 h 21.971"
       id="path2484" />
    <path
       d="m 273.33999,2337.222 h 20.248"
       id="path2486" />
    <path
       d="m 274.20199,2337.336 h 18.525"
       id="path2488" />
    <path
       d="m 275.06299,2337.449 h 16.803"
       id="path2490" />
    <path
       d="m 275.92399,2337.563 h 15.08"
       id="path2492" />
    <path
       d="m 276.78599,2337.676 h 13.357"
       id="path2494" />
    <path
       d="m 278.27099,2337.789 h 10.387"
       id="path2496" />
    <path
       d="m 280.86799,2337.903 h 5.193"
       id="path2498" />
  </g>
</svg>
