<?xml version="1.0" encoding="UTF-8"?>
<svg id="svg2502" width="582.06" height="582.06" version="1.1" viewBox="0 0 582.06 582.06" xmlns="http://www.w3.org/2000/svg">
 <g id="g2500" transform="translate(7.5663 -1976.7)" fill="none" stroke="#000" stroke-width="4mm">
  <path id="path6" d="m566.93 2267.7-1.079 24.705-3.228 24.518-5.352 24.143-7.436 23.584-9.463 22.847-11.419 21.935-13.287 20.857-15.054 19.618-16.707 18.233-18.232 16.706"/>
  <path id="path8" d="m465.67 2484.9-19.619 15.054-20.856 13.287-21.935 11.419-22.847 9.463-23.585 7.437-24.142 5.352-24.518 3.228-24.706 1.078-24.705-1.078-24.518-3.228"/>
  <path id="path10" d="m234.24 2546.9-24.143-5.352-23.584-7.436-22.847-9.464-21.935-11.419-20.856-13.287-19.619-15.054-18.232-16.706-16.707-18.233-15.054-19.618-13.287-20.857"/>
  <path id="path12" d="m37.977 2409.4-11.419-21.935-9.463-22.847-7.436-23.584-5.353-24.143-3.228-24.518-1.078-24.705 1.078-24.706 3.228-24.517 5.353-24.143 7.436-23.585"/>
  <path id="path14" d="m17.095 2170.8 9.463-22.846 11.419-21.935 13.287-20.857 15.054-19.619 16.707-18.232 18.232-16.707 19.619-15.054 20.856-13.287 21.935-11.418 22.847-9.464"/>
  <path id="path16" d="m186.51 2001.3 23.584-7.436 24.143-5.352 24.518-3.228 24.705-1.079 24.706 1.079 24.517 3.228 24.143 5.352 23.585 7.436 22.847 9.464 21.935 11.418"/>
  <path id="path18" d="m425.2 2022.2 20.856 13.287 19.619 15.054 18.232 16.707 16.707 18.232 15.054 19.619 13.287 20.857 11.419 21.934 9.463 22.847 7.436 23.585 5.352 24.143"/>
  <path id="path20" d="m562.62 2218.5 3.228 24.517 1.079 24.706-1.079 24.705"/>
  <path id="path22" d="m280.87 2197.5h5.193"/>
  <path id="path24" d="m278.27 2197.6h10.387"/>
  <path id="path26" d="m276.79 2197.8h13.357"/>
  <path id="path28" d="m275.92 2197.9h15.08"/>
  <path id="path30" d="m275.06 2198h16.803"/>
  <path id="path32" d="m274.2 2198.1h18.525"/>
  <path id="path34" d="m273.34 2198.2h20.248"/>
  <path id="path36" d="m272.48 2198.3h21.971"/>
  <path id="path38" d="m271.62 2198.4h23.693"/>
  <path id="path40" d="m270.96 2198.6h25.009"/>
  <path id="path42" d="m270.45 2198.7h26.032"/>
  <path id="path44" d="m269.94 2198.8h27.055"/>
  <path id="path46" d="m269.42 2198.9h28.078"/>
  <path id="path48" d="m268.91 2199h29.101"/>
  <path id="path50" d="m268.4 2199.1h30.123"/>
  <path id="path52" d="m267.89 2199.2h31.147"/>
  <path id="path54" d="m267.38 2199.3h32.169"/>
  <path id="path56" d="m266.87 2199.5h33.193"/>
  <path id="path58" d="m266.36 2199.6h34.215"/>
  <path id="path60" d="m265.84 2199.7h35.238"/>
  <path id="path62" d="m265.33 2199.8h36.261"/>
  <path id="path64" d="m264.95 2199.9h37.019"/>
  <path id="path66" d="m264.6 2200h37.737"/>
  <path id="path68" d="m264.24 2200.1h38.457"/>
  <path id="path70" d="m263.88 2200.3h39.177"/>
  <path id="path72" d="m263.52 2200.4h39.895"/>
  <path id="path74" d="m263.16 2200.5h40.615"/>
  <path id="path76" d="m262.8 2200.6h41.334"/>
  <path id="path78" d="m262.44 2200.7h42.053"/>
  <path id="path80" d="m262.08 2200.8h42.772"/>
  <path id="path82" d="m261.72 2200.9h43.491"/>
  <path id="path84" d="m261.36 2201h44.211"/>
  <path id="path86" d="m261 2201.2h44.93"/>
  <path id="path88" d="m260.64 2201.3h45.649"/>
  <path id="path90" d="m260.28 2201.4h46.369"/>
  <path id="path92" d="m259.92 2201.5h47.087"/>
  <path id="path94" d="m259.56 2201.6h47.807"/>
  <path id="path96" d="m259.25 2201.7h48.421"/>
  <path id="path98" d="m258.98 2201.8h48.969"/>
  <path id="path100" d="m258.71 2202h49.516"/>
  <path id="path102" d="m258.43 2202.1h50.063"/>
  <path id="path104" d="m258.16 2202.2h50.611"/>
  <path id="path106" d="m257.88 2202.3h51.159"/>
  <path id="path108" d="m257.61 2202.4h51.706"/>
  <path id="path110" d="m257.34 2202.5h52.253"/>
  <path id="path112" d="m257.06 2202.6h52.801"/>
  <path id="path114" d="m256.79 2202.7h53.349"/>
  <path id="path116" d="m256.52 2202.9h53.896"/>
  <path id="path118" d="m256.24 2203h54.443"/>
  <path id="path120" d="m255.97 2203.1h54.991"/>
  <path id="path122" d="m255.69 2203.2h55.538"/>
  <path id="path124" d="m255.42 2203.3h56.086"/>
  <path id="path126" d="m255.15 2203.4h56.633"/>
  <path id="path128" d="m254.87 2203.5h57.181"/>
  <path id="path130" d="m254.6 2203.7h57.728"/>
  <path id="path132" d="m254.33 2203.8h58.275"/>
  <path id="path134" d="m254.05 2203.9h58.823"/>
  <path id="path136" d="m253.78 2204h59.371"/>
  <path id="path138" d="m253.56 2204.1h59.816"/>
  <path id="path140" d="m253.34 2204.2h60.251"/>
  <path id="path142" d="m253.12 2204.3h60.687"/>
  <path id="path144" d="m252.9 2204.4h61.123"/>
  <path id="path146" d="m252.68 2204.6h61.559"/>
  <path id="path148" d="m252.47 2204.7h61.994"/>
  <path id="path150" d="m252.25 2204.8h62.43"/>
  <path id="path152" d="m252.03 2204.9h62.865"/>
  <path id="path154" d="m251.81 2205h63.301"/>
  <path id="path156" d="m251.6 2205.1h63.737"/>
  <path id="path158" d="m251.38 2205.2h64.173"/>
  <path id="path160" d="m251.16 2205.4h64.608"/>
  <path id="path162" d="m250.94 2205.5h65.043"/>
  <path id="path164" d="m250.72 2205.6h65.479"/>
  <path id="path166" d="m250.51 2205.7h65.915"/>
  <path id="path168" d="m250.29 2205.8h66.351"/>
  <path id="path170" d="m250.07 2205.9h66.786"/>
  <path id="path172" d="m249.85 2206h67.222"/>
  <path id="path174" d="m249.64 2206.1h67.657"/>
  <path id="path176" d="m249.42 2206.3h68.093"/>
  <path id="path178" d="m249.2 2206.4h68.529"/>
  <path id="path180" d="m248.98 2206.5h68.965"/>
  <path id="path182" d="m248.76 2206.6h69.4"/>
  <path id="path184" d="m248.55 2206.7h69.836"/>
  <path id="path186" d="m248.33 2206.8h70.271"/>
  <path id="path188" d="m248.15 2206.9h70.633"/>
  <path id="path190" d="m247.97 2207.1h70.989"/>
  <path id="path192" d="m247.79 2207.2h71.345"/>
  <path id="path194" d="m247.61 2207.3h71.7"/>
  <path id="path196" d="m247.44 2207.4h72.056"/>
  <path id="path198" d="m247.26 2207.5h72.412"/>
  <path id="path200" d="m247.08 2207.6h72.768"/>
  <path id="path202" d="m246.9 2207.7h73.124"/>
  <path id="path204" d="m246.72 2207.8h73.48"/>
  <path id="path206" d="m246.55 2208h73.836"/>
  <path id="path208" d="m246.37 2208.1h74.192"/>
  <path id="path210" d="m246.19 2208.2h74.548"/>
  <path id="path212" d="m246.01 2208.3h74.904"/>
  <path id="path214" d="m245.83 2208.4h75.26"/>
  <path id="path216" d="m245.66 2208.5h75.616"/>
  <path id="path218" d="m245.48 2208.6h75.972"/>
  <path id="path220" d="m245.3 2208.8h76.328"/>
  <path id="path222" d="m245.12 2208.9h76.684"/>
  <path id="path224" d="m244.94 2209h77.04"/>
  <path id="path226" d="m244.77 2209.1h77.396"/>
  <path id="path228" d="m244.59 2209.2h77.752"/>
  <path id="path230" d="m244.41 2209.3h78.108"/>
  <path id="path232" d="m244.23 2209.4h78.464"/>
  <path id="path234" d="m244.05 2209.6h78.819"/>
  <path id="path236" d="m243.88 2209.7h79.175"/>
  <path id="path238" d="m243.7 2209.8h79.531"/>
  <path id="path240" d="m243.52 2209.9h79.887"/>
  <path id="path242" d="m243.34 2210h80.243"/>
  <path id="path244" d="m243.16 2210.1h80.599"/>
  <path id="path246" d="m243.01 2210.2h80.903"/>
  <path id="path248" d="m242.86 2210.3h81.198"/>
  <path id="path250" d="m242.72 2210.5h81.493"/>
  <path id="path252" d="m242.57 2210.6h81.789"/>
  <path id="path254" d="m242.42 2210.7h82.085"/>
  <path id="path256" d="m242.27 2210.8h82.381"/>
  <path id="path258" d="m242.13 2210.9h82.675"/>
  <path id="path260" d="m241.98 2211h82.971"/>
  <path id="path262" d="m241.83 2211.1h83.267"/>
  <path id="path264" d="m241.68 2211.3h83.563"/>
  <path id="path266" d="m241.53 2211.4h83.858"/>
  <path id="path268" d="m241.39 2211.5h84.153"/>
  <path id="path270" d="m241.24 2211.6h84.449"/>
  <path id="path272" d="m241.09 2211.7h84.745"/>
  <path id="path274" d="m240.94 2211.8h85.04"/>
  <path id="path276" d="m240.8 2211.9h85.335"/>
  <path id="path278" d="m240.65 2212h85.631"/>
  <path id="path280" d="m240.5 2212.2h85.927"/>
  <path id="path282" d="m240.35 2212.3h86.222"/>
  <path id="path284" d="m240.21 2212.4h86.517"/>
  <path id="path286" d="m240.06 2212.5h86.813"/>
  <path id="path288" d="m239.91 2212.6h87.109"/>
  <path id="path290" d="m239.76 2212.7h87.404"/>
  <path id="path292" d="m239.61 2212.8h87.699"/>
  <path id="path294" d="m239.47 2213h87.995"/>
  <path id="path296" d="m239.32 2213.1h88.291"/>
  <path id="path298" d="m239.17 2213.2h88.587"/>
  <path id="path300" d="m239.02 2213.3h88.881"/>
  <path id="path302" d="m238.88 2213.4h89.177"/>
  <path id="path304" d="m238.73 2213.5h89.473"/>
  <path id="path306" d="m238.58 2213.6h89.769"/>
  <path id="path308" d="m238.43 2213.7h90.063"/>
  <path id="path310" d="m238.28 2213.9h90.359"/>
  <path id="path312" d="m238.16 2214h90.609"/>
  <path id="path314" d="m238.04 2214.1h90.857"/>
  <path id="path316" d="m237.91 2214.2h91.105"/>
  <path id="path318" d="m237.79 2214.3h91.351"/>
  <path id="path320" d="m237.66 2214.4h91.599"/>
  <path id="path322" d="m237.54 2214.5h91.847"/>
  <path id="path324" d="m237.42 2214.7h92.094"/>
  <path id="path326" d="m237.29 2214.8h92.341"/>
  <path id="path328" d="m237.17 2214.9h92.589"/>
  <path id="path330" d="m237.05 2215h92.837"/>
  <path id="path332" d="m236.92 2215.1h93.084"/>
  <path id="path334" d="m236.8 2215.2h93.331"/>
  <path id="path336" d="m236.67 2215.3h93.579"/>
  <path id="path338" d="m236.55 2215.4h93.827"/>
  <path id="path340" d="m236.43 2215.6h94.074"/>
  <path id="path342" d="m236.3 2215.7h94.321"/>
  <path id="path344" d="m236.18 2215.8h94.569"/>
  <path id="path346" d="m236.06 2215.9h94.817"/>
  <path id="path348" d="m235.93 2216h95.064"/>
  <path id="path350" d="m235.81 2216.1h95.311"/>
  <path id="path352" d="m235.68 2216.2h95.559"/>
  <path id="path354" d="m235.56 2216.4h95.807"/>
  <path id="path356" d="m235.44 2216.5h96.054"/>
  <path id="path358" d="m235.31 2216.6h96.301"/>
  <path id="path360" d="m235.19 2216.7h96.549"/>
  <path id="path362" d="m235.07 2216.8h96.797"/>
  <path id="path364" d="m234.94 2216.9h97.043"/>
  <path id="path366" d="m234.82 2217h97.291"/>
  <path id="path368" d="m234.69 2217.1h97.539"/>
  <path id="path370" d="m234.57 2217.3h97.786"/>
  <path id="path372" d="m234.45 2217.4h98.033"/>
  <path id="path374" d="m234.32 2217.5h98.281"/>
  <path id="path376" d="m234.2 2217.6h98.529"/>
  <path id="path378" d="m234.08 2217.7h98.776"/>
  <path id="path380" d="m233.95 2217.8h99.023"/>
  <path id="path382" d="m233.83 2217.9h99.271"/>
  <path id="path384" d="m233.71 2218.1h99.503"/>
  <path id="path386" d="m233.61 2218.2h99.71"/>
  <path id="path388" d="m233.5 2218.3h99.918"/>
  <path id="path390" d="m233.4 2218.4h100.13"/>
  <path id="path392" d="m233.3 2218.5h100.33"/>
  <path id="path394" d="m233.19 2218.6h100.54"/>
  <path id="path396" d="m233.09 2218.7h100.75"/>
  <path id="path398" d="m232.99 2218.8h100.96"/>
  <path id="path400" d="m232.88 2219h101.16"/>
  <path id="path402" d="m232.78 2219.1h101.37"/>
  <path id="path404" d="m232.67 2219.2h101.58"/>
  <path id="path406" d="m232.57 2219.3h101.79"/>
  <path id="path408" d="m232.47 2219.4h102"/>
  <path id="path410" d="m232.36 2219.5h102.2"/>
  <path id="path412" d="m232.26 2219.6h102.41"/>
  <path id="path414" d="m232.15 2219.8h102.62"/>
  <path id="path416" d="m232.05 2219.9h102.83"/>
  <path id="path418" d="m231.95 2220h103.04"/>
  <path id="path420" d="m231.84 2220.1h103.24"/>
  <path id="path422" d="m231.74 2220.2h103.45"/>
  <path id="path424" d="m231.63 2220.3h103.66"/>
  <path id="path426" d="m231.53 2220.4h103.87"/>
  <path id="path428" d="m231.43 2220.5h104.07"/>
  <path id="path430" d="m231.32 2220.7h104.28"/>
  <path id="path432" d="m231.22 2220.8h104.49"/>
  <path id="path434" d="m231.12 2220.9h104.7"/>
  <path id="path436" d="m231.01 2221h104.9"/>
  <path id="path438" d="m230.91 2221.1h105.11"/>
  <path id="path440" d="m230.8 2221.2h105.32"/>
  <path id="path442" d="m230.7 2221.3h105.53"/>
  <path id="path444" d="m230.6 2221.5h105.74"/>
  <path id="path446" d="m230.49 2221.6h105.94"/>
  <path id="path448" d="m230.39 2221.7h106.15"/>
  <path id="path450" d="m230.28 2221.8h106.36"/>
  <path id="path452" d="m230.18 2221.9h106.57"/>
  <path id="path454" d="m230.08 2222h106.78"/>
  <path id="path456" d="m229.97 2222.1h106.98"/>
  <path id="path458" d="m229.87 2222.2h107.19"/>
  <path id="path460" d="m229.76 2222.4h107.4"/>
  <path id="path462" d="m229.66 2222.5h107.61"/>
  <path id="path464" d="m229.57 2222.6h107.8"/>
  <path id="path466" d="m229.48 2222.7h107.97"/>
  <path id="path468" d="m229.39 2222.8h108.14"/>
  <path id="path470" d="m229.3 2222.9h108.32"/>
  <path id="path472" d="m229.22 2223h108.49"/>
  <path id="path474" d="m229.13 2223.2h108.67"/>
  <path id="path476" d="m229.04 2223.3h108.84"/>
  <path id="path478" d="m228.96 2223.4h109.02"/>
  <path id="path480" d="m228.87 2223.5h109.19"/>
  <path id="path482" d="m228.78 2223.6h109.36"/>
  <path id="path484" d="m228.7 2223.7h109.54"/>
  <path id="path486" d="m228.61 2223.8h109.71"/>
  <path id="path488" d="m228.52 2224h109.88"/>
  <path id="path490" d="m228.43 2224.1h110.06"/>
  <path id="path492" d="m228.35 2224.2h110.23"/>
  <path id="path494" d="m228.26 2224.3h110.41"/>
  <path id="path496" d="m228.17 2224.4h110.58"/>
  <path id="path498" d="m228.09 2224.5h110.76"/>
  <path id="path500" d="m228 2224.6h110.93"/>
  <path id="path502" d="m227.91 2224.7h111.1"/>
  <path id="path504" d="m227.83 2224.9h111.28"/>
  <path id="path506" d="m227.74 2225h111.45"/>
  <path id="path508" d="m227.65 2225.1h111.62"/>
  <path id="path510" d="m227.56 2225.2h111.8"/>
  <path id="path512" d="m227.48 2225.3h111.97"/>
  <path id="path514" d="m227.39 2225.4h112.15"/>
  <path id="path516" d="m227.3 2225.5h112.32"/>
  <path id="path518" d="m227.22 2225.7h112.5"/>
  <path id="path520" d="m227.13 2225.8h112.67"/>
  <path id="path522" d="m227.04 2225.9h112.84"/>
  <path id="path524" d="m226.96 2226h113.02"/>
  <path id="path526" d="m226.87 2226.1h113.19"/>
  <path id="path528" d="m226.78 2226.2h113.36"/>
  <path id="path530" d="m226.69 2226.3h113.54"/>
  <path id="path532" d="m226.61 2226.4h113.71"/>
  <path id="path534" d="m226.52 2226.6h113.89"/>
  <path id="path536" d="m226.43 2226.7h114.06"/>
  <path id="path538" d="m226.35 2226.8h114.24"/>
  <path id="path540" d="m226.26 2226.9h114.41"/>
  <path id="path542" d="m226.17 2227h114.58"/>
  <path id="path544" d="m226.09 2227.1h114.76"/>
  <path id="path546" d="m226 2227.2h114.93"/>
  <path id="path548" d="m225.91 2227.4h115.1"/>
  <path id="path550" d="m225.83 2227.5h115.26"/>
  <path id="path552" d="m225.76 2227.6h115.4"/>
  <path id="path554" d="m225.69 2227.7h115.55"/>
  <path id="path556" d="m225.62 2227.8h115.7"/>
  <path id="path558" d="m225.54 2227.9h115.84"/>
  <path id="path560" d="m225.47 2228h115.98"/>
  <path id="path562" d="m225.4 2228.1h116.13"/>
  <path id="path564" d="m225.33 2228.3h116.27"/>
  <path id="path566" d="m225.26 2228.4h116.42"/>
  <path id="path568" d="m225.18 2228.5h116.56"/>
  <path id="path570" d="m225.11 2228.6h116.7"/>
  <path id="path572" d="m225.04 2228.7h116.85"/>
  <path id="path574" d="m224.97 2228.8h117"/>
  <path id="path576" d="m224.89 2228.9h117.14"/>
  <path id="path578" d="m224.82 2229.1h117.28"/>
  <path id="path580" d="m224.75 2229.2h117.43"/>
  <path id="path582" d="m224.68 2229.3h117.57"/>
  <path id="path584" d="m224.61 2229.4h117.72"/>
  <path id="path586" d="m224.53 2229.5h117.86"/>
  <path id="path588" d="m224.46 2229.6h118"/>
  <path id="path590" d="m224.39 2229.7h118.15"/>
  <path id="path592" d="m224.32 2229.8h118.3"/>
  <path id="path594" d="m224.24 2230h118.44"/>
  <path id="path596" d="m224.17 2230.1h118.58"/>
  <path id="path598" d="m224.1 2230.2h118.73"/>
  <path id="path600" d="m224.03 2230.3h118.87"/>
  <path id="path602" d="m223.96 2230.4h119.02"/>
  <path id="path604" d="m223.88 2230.5h119.16"/>
  <path id="path606" d="m223.81 2230.6h119.31"/>
  <path id="path608" d="m223.74 2230.8h119.45"/>
  <path id="path610" d="m223.67 2230.9h119.6"/>
  <path id="path612" d="m223.59 2231h119.74"/>
  <path id="path614" d="m223.52 2231.1h119.88"/>
  <path id="path616" d="m223.45 2231.2h120.03"/>
  <path id="path618" d="m223.38 2231.3h120.17"/>
  <path id="path620" d="m223.31 2231.4h120.32"/>
  <path id="path622" d="m223.23 2231.5h120.46"/>
  <path id="path624" d="m223.16 2231.7h120.61"/>
  <path id="path626" d="m223.09 2231.8h120.75"/>
  <path id="path628" d="m223.02 2231.9h120.9"/>
  <path id="path630" d="m222.94 2232h121.04"/>
  <path id="path632" d="m222.87 2232.1h121.18"/>
  <path id="path634" d="m222.8 2232.2h121.33"/>
  <path id="path636" d="m222.73 2232.3h121.47"/>
  <path id="path638" d="m222.66 2232.5h121.62"/>
  <path id="path640" d="m222.58 2232.6h121.76"/>
  <path id="path642" d="m222.52 2232.7h121.88"/>
  <path id="path644" d="m222.46 2232.8h122"/>
  <path id="path646" d="m222.41 2232.9h122.12"/>
  <path id="path648" d="m222.35 2233h122.23"/>
  <path id="path650" d="m222.29 2233.1h122.35"/>
  <path id="path652" d="m222.23 2233.2h122.47"/>
  <path id="path654" d="m222.17 2233.4h122.59"/>
  <path id="path656" d="m222.11 2233.5h122.71"/>
  <path id="path658" d="m222.05 2233.6h122.82"/>
  <path id="path660" d="m221.99 2233.7h122.94"/>
  <path id="path662" d="m221.93 2233.8h123.06"/>
  <path id="path664" d="m221.87 2233.9h123.18"/>
  <path id="path666" d="m221.82 2234h123.3"/>
  <path id="path668" d="m221.76 2234.2h123.42"/>
  <path id="path670" d="m221.7 2234.3h123.53"/>
  <path id="path672" d="m221.64 2234.4h123.65"/>
  <path id="path674" d="m221.58 2234.5h123.77"/>
  <path id="path676" d="m221.52 2234.6h123.89"/>
  <path id="path678" d="m221.46 2234.7h124"/>
  <path id="path680" d="m221.4 2234.8h124.12"/>
  <path id="path682" d="m221.34 2234.9h124.24"/>
  <path id="path684" d="m221.28 2235.1h124.36"/>
  <path id="path686" d="m221.23 2235.2h124.48"/>
  <path id="path688" d="m221.17 2235.3h124.6"/>
  <path id="path690" d="m221.11 2235.4h124.71"/>
  <path id="path692" d="m221.05 2235.5h124.83"/>
  <path id="path694" d="m220.99 2235.6h124.95"/>
  <path id="path696" d="m220.93 2235.7h125.07"/>
  <path id="path698" d="m220.87 2235.9h125.18"/>
  <path id="path700" d="m220.81 2236h125.3"/>
  <path id="path702" d="m220.75 2236.1h125.42"/>
  <path id="path704" d="m220.69 2236.2h125.54"/>
  <path id="path706" d="m220.64 2236.3h125.66"/>
  <path id="path708" d="m220.58 2236.4h125.78"/>
  <path id="path710" d="m220.52 2236.5h125.89"/>
  <path id="path712" d="m220.46 2236.6h126.01"/>
  <path id="path714" d="m220.4 2236.8h126.13"/>
  <path id="path716" d="m220.34 2236.9h126.25"/>
  <path id="path718" d="m220.28 2237h126.36"/>
  <path id="path720" d="m220.22 2237.1h126.48"/>
  <path id="path722" d="m220.16 2237.2h126.6"/>
  <path id="path724" d="m220.1 2237.3h126.72"/>
  <path id="path726" d="m220.04 2237.4h126.84"/>
  <path id="path728" d="m219.99 2237.6h126.96"/>
  <path id="path730" d="m219.93 2237.7h127.07"/>
  <path id="path732" d="m219.87 2237.8h127.19"/>
  <path id="path734" d="m219.81 2237.9h127.31"/>
  <path id="path736" d="m219.75 2238h127.43"/>
  <path id="path738" d="m219.7 2238.1h127.52"/>
  <path id="path740" d="m219.66 2238.2h127.62"/>
  <path id="path742" d="m219.61 2238.4h127.71"/>
  <path id="path744" d="m219.56 2238.5h127.8"/>
  <path id="path746" d="m219.52 2238.6h127.9"/>
  <path id="path748" d="m219.47 2238.7h127.99"/>
  <path id="path750" d="m219.42 2238.8h128.08"/>
  <path id="path752" d="m219.37 2238.9h128.18"/>
  <path id="path754" d="m219.33 2239h128.27"/>
  <path id="path756" d="m219.28 2239.1h128.37"/>
  <path id="path758" d="m219.23 2239.3h128.46"/>
  <path id="path760" d="m219.19 2239.4h128.56"/>
  <path id="path762" d="m219.14 2239.5h128.65"/>
  <path id="path764" d="m219.09 2239.6h128.74"/>
  <path id="path766" d="m219.05 2239.7h128.84"/>
  <path id="path768" d="m219 2239.8h128.93"/>
  <path id="path770" d="m218.95 2239.9h129.02"/>
  <path id="path772" d="m218.9 2240.1h129.12"/>
  <path id="path774" d="m218.86 2240.2h129.21"/>
  <path id="path776" d="m218.81 2240.3h129.31"/>
  <path id="path778" d="m218.76 2240.4h129.4"/>
  <path id="path780" d="m218.72 2240.5h129.49"/>
  <path id="path782" d="m218.67 2240.6h129.59"/>
  <path id="path784" d="m218.62 2240.7h129.68"/>
  <path id="path786" d="m218.58 2240.8h129.78"/>
  <path id="path788" d="m218.53 2241h129.87"/>
  <path id="path790" d="m218.48 2241.1h129.96"/>
  <path id="path792" d="m218.44 2241.2h130.06"/>
  <path id="path794" d="m218.39 2241.3h130.15"/>
  <path id="path796" d="m218.34 2241.4h130.24"/>
  <path id="path798" d="m218.29 2241.5h130.34"/>
  <path id="path800" d="m218.25 2241.6h130.43"/>
  <path id="path802" d="m218.2 2241.8h130.53"/>
  <path id="path804" d="m218.15 2241.9h130.62"/>
  <path id="path806" d="m218.11 2242h130.72"/>
  <path id="path808" d="m218.06 2242.1h130.81"/>
  <path id="path810" d="m218.01 2242.2h130.9"/>
  <path id="path812" d="m217.97 2242.3h131"/>
  <path id="path814" d="m217.92 2242.4h131.09"/>
  <path id="path816" d="m217.87 2242.5h131.18"/>
  <path id="path818" d="m217.82 2242.7h131.28"/>
  <path id="path820" d="m217.78 2242.8h131.37"/>
  <path id="path822" d="m217.73 2242.9h131.47"/>
  <path id="path824" d="m217.68 2243h131.56"/>
  <path id="path826" d="m217.64 2243.1h131.66"/>
  <path id="path828" d="m217.59 2243.2h131.75"/>
  <path id="path830" d="m217.54 2243.3h131.84"/>
  <path id="path832" d="m217.5 2243.5h131.94"/>
  <path id="path834" d="m217.45 2243.6h132.03"/>
  <path id="path836" d="m217.4 2243.7h132.12"/>
  <path id="path838" d="m217.37 2243.8h132.2"/>
  <path id="path840" d="m217.33 2243.9h132.27"/>
  <path id="path842" d="m217.3 2244h132.34"/>
  <path id="path844" d="m217.26 2244.1h132.41"/>
  <path id="path846" d="m217.22 2244.2h132.48"/>
  <path id="path848" d="m217.19 2244.4h132.55"/>
  <path id="path850" d="m217.15 2244.5h132.62"/>
  <path id="path852" d="m217.12 2244.6h132.7"/>
  <path id="path854" d="m217.08 2244.7h132.77"/>
  <path id="path856" d="m217.04 2244.8h132.84"/>
  <path id="path858" d="m217.01 2244.9h132.91"/>
  <path id="path860" d="m216.97 2245h132.98"/>
  <path id="path862" d="m216.94 2245.2h133.05"/>
  <path id="path864" d="m216.9 2245.3h133.12"/>
  <path id="path866" d="m216.87 2245.4h133.2"/>
  <path id="path868" d="m216.83 2245.5h133.27"/>
  <path id="path870" d="m216.79 2245.6h133.34"/>
  <path id="path872" d="m216.76 2245.7h133.41"/>
  <path id="path874" d="m216.72 2245.8h133.48"/>
  <path id="path876" d="m216.69 2245.9h133.55"/>
  <path id="path878" d="m216.65 2246.1h133.62"/>
  <path id="path880" d="m216.62 2246.2h133.7"/>
  <path id="path882" d="m216.58 2246.3h133.77"/>
  <path id="path884" d="m216.54 2246.4h133.84"/>
  <path id="path886" d="m216.51 2246.5h133.91"/>
  <path id="path888" d="m216.47 2246.6h133.98"/>
  <path id="path890" d="m216.44 2246.7h134.05"/>
  <path id="path892" d="m216.4 2246.9h134.12"/>
  <path id="path894" d="m216.37 2247h134.2"/>
  <path id="path896" d="m216.33 2247.1h134.27"/>
  <path id="path898" d="m216.29 2247.2h134.34"/>
  <path id="path900" d="m216.26 2247.3h134.41"/>
  <path id="path902" d="m216.22 2247.4h134.48"/>
  <path id="path904" d="m216.19 2247.5h134.55"/>
  <path id="path906" d="m216.15 2247.6h134.62"/>
  <path id="path908" d="m216.12 2247.8h134.7"/>
  <path id="path910" d="m216.08 2247.9h134.77"/>
  <path id="path912" d="m216.04 2248h134.84"/>
  <path id="path914" d="m216.01 2248.1h134.91"/>
  <path id="path916" d="m215.97 2248.2h134.98"/>
  <path id="path918" d="m215.94 2248.3h135.06"/>
  <path id="path920" d="m215.9 2248.4h135.13"/>
  <path id="path922" d="m215.87 2248.6h135.2"/>
  <path id="path924" d="m215.83 2248.7h135.27"/>
  <path id="path926" d="m215.79 2248.8h135.34"/>
  <path id="path928" d="m215.76 2248.9h135.41"/>
  <path id="path930" d="m215.72 2249h135.48"/>
  <path id="path932" d="m215.69 2249.1h135.56"/>
  <path id="path934" d="m215.65 2249.2h135.63"/>
  <path id="path936" d="m215.61 2249.3h135.7"/>
  <path id="path938" d="m215.58 2249.5h135.77"/>
  <path id="path940" d="m215.55 2249.6h135.83"/>
  <path id="path942" d="m215.52 2249.7h135.88"/>
  <path id="path944" d="m215.5 2249.8h135.93"/>
  <path id="path946" d="m215.47 2249.9h135.98"/>
  <path id="path948" d="m215.45 2250h136.03"/>
  <path id="path950" d="m215.42 2250.1h136.08"/>
  <path id="path952" d="m215.4 2250.3h136.13"/>
  <path id="path954" d="m215.37 2250.4h136.18"/>
  <path id="path956" d="m215.35 2250.5h136.23"/>
  <path id="path958" d="m215.32 2250.6h136.28"/>
  <path id="path960" d="m215.3 2250.7h136.33"/>
  <path id="path962" d="m215.27 2250.8h136.38"/>
  <path id="path964" d="m215.25 2250.9h136.44"/>
  <path id="path966" d="m215.22 2251h136.48"/>
  <path id="path968" d="m215.2 2251.2h136.54"/>
  <path id="path970" d="m215.17 2251.3h136.58"/>
  <path id="path972" d="m215.15 2251.4h136.64"/>
  <path id="path974" d="m215.12 2251.5h136.69"/>
  <path id="path976" d="m215.1 2251.6h136.74"/>
  <path id="path978" d="m215.07 2251.7h136.79"/>
  <path id="path980" d="m215.05 2251.8h136.84"/>
  <path id="path982" d="m215.02 2252h136.89"/>
  <path id="path984" d="m215 2252.1h136.94"/>
  <path id="path986" d="m214.97 2252.2h136.99"/>
  <path id="path988" d="m214.94 2252.3h137.04"/>
  <path id="path990" d="m214.92 2252.4h137.09"/>
  <path id="path992" d="m214.89 2252.5h137.14"/>
  <path id="path994" d="m214.87 2252.6h137.19"/>
  <path id="path996" d="m214.84 2252.8h137.24"/>
  <path id="path998" d="m214.82 2252.9h137.29"/>
  <path id="path1000" d="m214.79 2253h137.34"/>
  <path id="path1002" d="m214.77 2253.1h137.39"/>
  <path id="path1004" d="m214.74 2253.2h137.44"/>
  <path id="path1006" d="m214.72 2253.3h137.49"/>
  <path id="path1008" d="m214.69 2253.4h137.54"/>
  <path id="path1010" d="m214.67 2253.5h137.59"/>
  <path id="path1012" d="m214.64 2253.7h137.64"/>
  <path id="path1014" d="m214.62 2253.8h137.69"/>
  <path id="path1016" d="m214.59 2253.9h137.74"/>
  <path id="path1018" d="m214.57 2254h137.79"/>
  <path id="path1020" d="m214.54 2254.1h137.84"/>
  <path id="path1022" d="m214.52 2254.2h137.89"/>
  <path id="path1024" d="m214.49 2254.3h137.94"/>
  <path id="path1026" d="m214.47 2254.5h137.99"/>
  <path id="path1028" d="m214.44 2254.6h138.04"/>
  <path id="path1030" d="m214.42 2254.7h138.09"/>
  <path id="path1032" d="m214.39 2254.8h138.14"/>
  <path id="path1034" d="m214.37 2254.9h138.2"/>
  <path id="path1036" d="m214.34 2255h138.24"/>
  <path id="path1038" d="m214.32 2255.1h138.3"/>
  <path id="path1040" d="m214.29 2255.2h138.34"/>
  <path id="path1042" d="m214.27 2255.4h138.4"/>
  <path id="path1044" d="m214.24 2255.5h138.44"/>
  <path id="path1046" d="m214.22 2255.6h138.48"/>
  <path id="path1048" d="m214.21 2255.7h138.51"/>
  <path id="path1050" d="m214.19 2255.8h138.54"/>
  <path id="path1052" d="m214.18 2255.9h138.57"/>
  <path id="path1054" d="m214.16 2256h138.6"/>
  <path id="path1056" d="m214.15 2256.2h138.63"/>
  <path id="path1058" d="m214.13 2256.3h138.66"/>
  <path id="path1060" d="m214.12 2256.4h138.69"/>
  <path id="path1062" d="m214.1 2256.5h138.72"/>
  <path id="path1064" d="m214.09 2256.6h138.75"/>
  <path id="path1066" d="m214.07 2256.7h138.78"/>
  <path id="path1068" d="m214.06 2256.8h138.81"/>
  <path id="path1070" d="m214.04 2256.9h138.84"/>
  <path id="path1072" d="m214.03 2257.1h138.87"/>
  <path id="path1074" d="m214.01 2257.2h138.9"/>
  <path id="path1076" d="m214 2257.3h138.93"/>
  <path id="path1078" d="m213.98 2257.4h138.96"/>
  <path id="path1080" d="m213.97 2257.5h138.99"/>
  <path id="path1082" d="m213.95 2257.6h139.02"/>
  <path id="path1084" d="m213.94 2257.7h139.05"/>
  <path id="path1086" d="m213.92 2257.9h139.08"/>
  <path id="path1088" d="m213.91 2258h139.11"/>
  <path id="path1090" d="m213.89 2258.1h139.14"/>
  <path id="path1092" d="m213.88 2258.2h139.17"/>
  <path id="path1094" d="m213.86 2258.3h139.2"/>
  <path id="path1096" d="m213.85 2258.4h139.23"/>
  <path id="path1098" d="m213.83 2258.5h139.26"/>
  <path id="path1100" d="m213.82 2258.6h139.29"/>
  <path id="path1102" d="m213.8 2258.8h139.32"/>
  <path id="path1104" d="m213.79 2258.9h139.35"/>
  <path id="path1106" d="m213.77 2259h139.38"/>
  <path id="path1108" d="m213.76 2259.1h139.41"/>
  <path id="path1110" d="m213.75 2259.2h139.44"/>
  <path id="path1112" d="m213.73 2259.3h139.47"/>
  <path id="path1114" d="m213.72 2259.4h139.5"/>
  <path id="path1116" d="m213.7 2259.6h139.53"/>
  <path id="path1118" d="m213.69 2259.7h139.56"/>
  <path id="path1120" d="m213.67 2259.8h139.59"/>
  <path id="path1122" d="m213.66 2259.9h139.62"/>
  <path id="path1124" d="m213.64 2260h139.65"/>
  <path id="path1126" d="m213.63 2260.1h139.68"/>
  <path id="path1128" d="m213.61 2260.2h139.71"/>
  <path id="path1130" d="m213.6 2260.3h139.74"/>
  <path id="path1132" d="m213.58 2260.5h139.77"/>
  <path id="path1134" d="m213.57 2260.6h139.8"/>
  <path id="path1136" d="m213.55 2260.7h139.82"/>
  <path id="path1138" d="m213.54 2260.8h139.86"/>
  <path id="path1140" d="m213.52 2260.9h139.88"/>
  <path id="path1142" d="m213.51 2261h139.92"/>
  <path id="path1144" d="m213.49 2261.1h139.94"/>
  <path id="path1146" d="m213.48 2261.3h139.98"/>
  <path id="path1148" d="m213.46 2261.4h140"/>
  <path id="path1150" d="m213.45 2261.5h140.04"/>
  <path id="path1152" d="m213.43 2261.6h140.06"/>
  <path id="path1154" d="m213.43 2261.7h140.07"/>
  <path id="path1156" d="m213.42 2261.8h140.08"/>
  <path id="path1158" d="m213.42 2261.9h140.09"/>
  <path id="path1160" d="m213.41 2262h140.1"/>
  <path id="path1162" d="m213.41 2262.2h140.11"/>
  <path id="path1164" d="m213.4 2262.3h140.12"/>
  <path id="path1166" d="m213.4 2262.4h140.13"/>
  <path id="path1168" d="m213.39 2262.5h140.14"/>
  <path id="path1170" d="m213.39 2262.6h140.15"/>
  <path id="path1172" d="m213.38 2262.7h140.16"/>
  <path id="path1174" d="m213.38 2262.8h140.17"/>
  <path id="path1176" d="m213.37 2263h140.18"/>
  <path id="path1178" d="m213.37 2263.1h140.19"/>
  <path id="path1180" d="m213.36 2263.2h140.2"/>
  <path id="path1182" d="m213.36 2263.3h140.21"/>
  <path id="path1184" d="m213.35 2263.4h140.22"/>
  <path id="path1186" d="m213.35 2263.5h140.23"/>
  <path id="path1188" d="m213.34 2263.6h140.24"/>
  <path id="path1190" d="m213.34 2263.7h140.25"/>
  <path id="path1192" d="m213.33 2263.9h140.26"/>
  <path id="path1194" d="m213.33 2264h140.27"/>
  <path id="path1196" d="m213.32 2264.1h140.28"/>
  <path id="path1198" d="m213.32 2264.2h140.29"/>
  <path id="path1200" d="m213.31 2264.3h140.3"/>
  <path id="path1202" d="m213.31 2264.4h140.31"/>
  <path id="path1204" d="m213.3 2264.5h140.32"/>
  <path id="path1206" d="m213.3 2264.7h140.33"/>
  <path id="path1208" d="m213.29 2264.8h140.34"/>
  <path id="path1210" d="m213.29 2264.9h140.35"/>
  <path id="path1212" d="m213.28 2265h140.36"/>
  <path id="path1214" d="m213.28 2265.1h140.37"/>
  <path id="path1216" d="m213.27 2265.2h140.38"/>
  <path id="path1218" d="m213.27 2265.3h140.39"/>
  <path id="path1220" d="m213.26 2265.4h140.4"/>
  <path id="path1222" d="m213.26 2265.6h140.41"/>
  <path id="path1224" d="m213.25 2265.7h140.42"/>
  <path id="path1226" d="m213.25 2265.8h140.43"/>
  <path id="path1228" d="m213.24 2265.9h140.44"/>
  <path id="path1230" d="m213.24 2266h140.45"/>
  <path id="path1232" d="m213.23 2266.1h140.46"/>
  <path id="path1234" d="m213.23 2266.2h140.47"/>
  <path id="path1236" d="m213.22 2266.4h140.48"/>
  <path id="path1238" d="m213.22 2266.5h140.49"/>
  <path id="path1240" d="m213.21 2266.6h140.5"/>
  <path id="path1242" d="m213.21 2266.7h140.51"/>
  <path id="path1244" d="m213.2 2266.8h140.52"/>
  <path id="path1246" d="m213.2 2266.9h140.53"/>
  <path id="path1248" d="m213.19 2267h140.54"/>
  <path id="path1250" d="m213.19 2267.2h140.55"/>
  <path id="path1252" d="m213.18 2267.3h140.56"/>
  <path id="path1254" d="m213.18 2267.4h140.57"/>
  <path id="path1256" d="m213.17 2267.5h140.58"/>
  <path id="path1258" d="m213.17 2267.6h140.59"/>
  <path id="path1260" d="m213.16 2267.7h140.6"/>
  <path id="path1262" d="m213.17 2267.8h140.59"/>
  <path id="path1264" d="m213.17 2267.9h140.58"/>
  <path id="path1266" d="m213.18 2268.1h140.57"/>
  <path id="path1268" d="m213.18 2268.2h140.56"/>
  <path id="path1270" d="m213.19 2268.3h140.55"/>
  <path id="path1272" d="m213.19 2268.4h140.54"/>
  <path id="path1274" d="m213.2 2268.5h140.53"/>
  <path id="path1276" d="m213.2 2268.6h140.52"/>
  <path id="path1278" d="m213.21 2268.7h140.51"/>
  <path id="path1280" d="m213.21 2268.9h140.5"/>
  <path id="path1282" d="m213.22 2269h140.49"/>
  <path id="path1284" d="m213.22 2269.1h140.48"/>
  <path id="path1286" d="m213.23 2269.2h140.47"/>
  <path id="path1288" d="m213.23 2269.3h140.46"/>
  <path id="path1290" d="m213.24 2269.4h140.45"/>
  <path id="path1292" d="m213.24 2269.5h140.44"/>
  <path id="path1294" d="m213.25 2269.6h140.43"/>
  <path id="path1296" d="m213.25 2269.8h140.42"/>
  <path id="path1298" d="m213.26 2269.9h140.41"/>
  <path id="path1300" d="m213.26 2270h140.4"/>
  <path id="path1302" d="m213.27 2270.1h140.39"/>
  <path id="path1304" d="m213.27 2270.2h140.38"/>
  <path id="path1306" d="m213.28 2270.3h140.37"/>
  <path id="path1308" d="m213.28 2270.4h140.36"/>
  <path id="path1310" d="m213.29 2270.6h140.35"/>
  <path id="path1312" d="m213.29 2270.7h140.34"/>
  <path id="path1314" d="m213.3 2270.8h140.33"/>
  <path id="path1316" d="m213.3 2270.9h140.32"/>
  <path id="path1318" d="m213.31 2271h140.31"/>
  <path id="path1320" d="m213.31 2271.1h140.3"/>
  <path id="path1322" d="m213.32 2271.2h140.29"/>
  <path id="path1324" d="m213.32 2271.3h140.28"/>
  <path id="path1326" d="m213.33 2271.5h140.27"/>
  <path id="path1328" d="m213.33 2271.6h140.26"/>
  <path id="path1330" d="m213.34 2271.7h140.25"/>
  <path id="path1332" d="m213.34 2271.8h140.24"/>
  <path id="path1334" d="m213.35 2271.9h140.23"/>
  <path id="path1336" d="m213.35 2272h140.22"/>
  <path id="path1338" d="m213.36 2272.1h140.21"/>
  <path id="path1340" d="m213.36 2272.3h140.2"/>
  <path id="path1342" d="m213.37 2272.4h140.19"/>
  <path id="path1344" d="m213.37 2272.5h140.18"/>
  <path id="path1346" d="m213.38 2272.6h140.17"/>
  <path id="path1348" d="m213.38 2272.7h140.16"/>
  <path id="path1350" d="m213.39 2272.8h140.15"/>
  <path id="path1352" d="m213.39 2272.9h140.14"/>
  <path id="path1354" d="m213.4 2273h140.13"/>
  <path id="path1356" d="m213.4 2273.2h140.12"/>
  <path id="path1358" d="m213.41 2273.3h140.11"/>
  <path id="path1360" d="m213.41 2273.4h140.1"/>
  <path id="path1362" d="m213.42 2273.5h140.09"/>
  <path id="path1364" d="m213.42 2273.6h140.08"/>
  <path id="path1366" d="m213.43 2273.7h140.07"/>
  <path id="path1368" d="m213.43 2273.8h140.06"/>
  <path id="path1370" d="m213.45 2274h140.04"/>
  <path id="path1372" d="m213.46 2274.1h140"/>
  <path id="path1374" d="m213.48 2274.2h139.98"/>
  <path id="path1376" d="m213.49 2274.3h139.94"/>
  <path id="path1378" d="m213.51 2274.4h139.92"/>
  <path id="path1380" d="m213.52 2274.5h139.88"/>
  <path id="path1382" d="m213.54 2274.6h139.86"/>
  <path id="path1384" d="m213.55 2274.7h139.82"/>
  <path id="path1386" d="m213.57 2274.9h139.8"/>
  <path id="path1388" d="m213.58 2275h139.77"/>
  <path id="path1390" d="m213.6 2275.1h139.74"/>
  <path id="path1392" d="m213.61 2275.2h139.71"/>
  <path id="path1394" d="m213.63 2275.3h139.68"/>
  <path id="path1396" d="m213.64 2275.4h139.65"/>
  <path id="path1398" d="m213.66 2275.5h139.62"/>
  <path id="path1400" d="m213.67 2275.7h139.59"/>
  <path id="path1402" d="m213.69 2275.8h139.56"/>
  <path id="path1404" d="m213.7 2275.9h139.53"/>
  <path id="path1406" d="m213.72 2276h139.5"/>
  <path id="path1408" d="m213.73 2276.1h139.47"/>
  <path id="path1410" d="m213.75 2276.2h139.44"/>
  <path id="path1412" d="m213.76 2276.3h139.41"/>
  <path id="path1414" d="m213.77 2276.4h139.38"/>
  <path id="path1416" d="m213.79 2276.6h139.35"/>
  <path id="path1418" d="m213.8 2276.7h139.32"/>
  <path id="path1420" d="m213.82 2276.8h139.29"/>
  <path id="path1422" d="m213.83 2276.9h139.26"/>
  <path id="path1424" d="m213.85 2277h139.23"/>
  <path id="path1426" d="m213.86 2277.1h139.2"/>
  <path id="path1428" d="m213.88 2277.2h139.17"/>
  <path id="path1430" d="m213.89 2277.4h139.14"/>
  <path id="path1432" d="m213.91 2277.5h139.11"/>
  <path id="path1434" d="m213.92 2277.6h139.08"/>
  <path id="path1436" d="m213.94 2277.7h139.05"/>
  <path id="path1438" d="m213.95 2277.8h139.02"/>
  <path id="path1440" d="m213.97 2277.9h138.99"/>
  <path id="path1442" d="m213.98 2278h138.96"/>
  <path id="path1444" d="m214 2278.1h138.93"/>
  <path id="path1446" d="m214.01 2278.3h138.9"/>
  <path id="path1448" d="m214.03 2278.4h138.87"/>
  <path id="path1450" d="m214.04 2278.5h138.84"/>
  <path id="path1452" d="m214.06 2278.6h138.81"/>
  <path id="path1454" d="m214.07 2278.7h138.78"/>
  <path id="path1456" d="m214.09 2278.8h138.75"/>
  <path id="path1458" d="m214.1 2278.9h138.72"/>
  <path id="path1460" d="m214.12 2279.1h138.69"/>
  <path id="path1462" d="m214.13 2279.2h138.66"/>
  <path id="path1464" d="m214.15 2279.3h138.63"/>
  <path id="path1466" d="m214.16 2279.4h138.6"/>
  <path id="path1468" d="m214.18 2279.5h138.57"/>
  <path id="path1470" d="m214.19 2279.6h138.54"/>
  <path id="path1472" d="m214.21 2279.7h138.51"/>
  <path id="path1474" d="m214.22 2279.8h138.48"/>
  <path id="path1476" d="m214.24 2280h138.44"/>
  <path id="path1478" d="m214.27 2280.1h138.4"/>
  <path id="path1480" d="m214.29 2280.2h138.34"/>
  <path id="path1482" d="m214.32 2280.3h138.3"/>
  <path id="path1484" d="m214.34 2280.4h138.24"/>
  <path id="path1486" d="m214.37 2280.5h138.2"/>
  <path id="path1488" d="m214.39 2280.6h138.14"/>
  <path id="path1490" d="m214.42 2280.8h138.09"/>
  <path id="path1492" d="m214.44 2280.9h138.04"/>
  <path id="path1494" d="m214.47 2281h137.99"/>
  <path id="path1496" d="m214.49 2281.1h137.94"/>
  <path id="path1498" d="m214.52 2281.2h137.89"/>
  <path id="path1500" d="m214.54 2281.3h137.84"/>
  <path id="path1502" d="m214.57 2281.4h137.79"/>
  <path id="path1504" d="m214.59 2281.6h137.74"/>
  <path id="path1506" d="m214.62 2281.7h137.69"/>
  <path id="path1508" d="m214.64 2281.8h137.64"/>
  <path id="path1510" d="m214.67 2281.9h137.59"/>
  <path id="path1512" d="m214.69 2282h137.54"/>
  <path id="path1514" d="m214.72 2282.1h137.49"/>
  <path id="path1516" d="m214.74 2282.2h137.44"/>
  <path id="path1518" d="m214.77 2282.3h137.39"/>
  <path id="path1520" d="m214.79 2282.5h137.34"/>
  <path id="path1522" d="m214.82 2282.6h137.29"/>
  <path id="path1524" d="m214.84 2282.7h137.24"/>
  <path id="path1526" d="m214.87 2282.8h137.19"/>
  <path id="path1528" d="m214.89 2282.9h137.14"/>
  <path id="path1530" d="m214.92 2283h137.09"/>
  <path id="path1532" d="m214.94 2283.1h137.04"/>
  <path id="path1534" d="m214.97 2283.3h136.99"/>
  <path id="path1536" d="m215 2283.4h136.94"/>
  <path id="path1538" d="m215.02 2283.5h136.89"/>
  <path id="path1540" d="m215.05 2283.6h136.84"/>
  <path id="path1542" d="m215.07 2283.7h136.79"/>
  <path id="path1544" d="m215.1 2283.8h136.74"/>
  <path id="path1546" d="m215.12 2283.9h136.69"/>
  <path id="path1548" d="m215.15 2284h136.64"/>
  <path id="path1550" d="m215.17 2284.2h136.58"/>
  <path id="path1552" d="m215.2 2284.3h136.54"/>
  <path id="path1554" d="m215.22 2284.4h136.48"/>
  <path id="path1556" d="m215.25 2284.5h136.44"/>
  <path id="path1558" d="m215.27 2284.6h136.38"/>
  <path id="path1560" d="m215.3 2284.7h136.33"/>
  <path id="path1562" d="m215.32 2284.8h136.28"/>
  <path id="path1564" d="m215.35 2285h136.23"/>
  <path id="path1566" d="m215.37 2285.1h136.18"/>
  <path id="path1568" d="m215.4 2285.2h136.13"/>
  <path id="path1570" d="m215.42 2285.3h136.08"/>
  <path id="path1572" d="m215.45 2285.4h136.03"/>
  <path id="path1574" d="m215.47 2285.5h135.98"/>
  <path id="path1576" d="m215.5 2285.6h135.93"/>
  <path id="path1578" d="m215.52 2285.7h135.88"/>
  <path id="path1580" d="m215.55 2285.9h135.83"/>
  <path id="path1582" d="m215.58 2286h135.77"/>
  <path id="path1584" d="m215.61 2286.1h135.7"/>
  <path id="path1586" d="m215.65 2286.2h135.63"/>
  <path id="path1588" d="m215.69 2286.3h135.56"/>
  <path id="path1590" d="m215.72 2286.4h135.48"/>
  <path id="path1592" d="m215.76 2286.5h135.41"/>
  <path id="path1594" d="m215.79 2286.7h135.34"/>
  <path id="path1596" d="m215.83 2286.8h135.27"/>
  <path id="path1598" d="m215.87 2286.9h135.2"/>
  <path id="path1600" d="m215.9 2287h135.13"/>
  <path id="path1602" d="m215.94 2287.1h135.06"/>
  <path id="path1604" d="m215.97 2287.2h134.98"/>
  <path id="path1606" d="m216.01 2287.3h134.91"/>
  <path id="path1608" d="m216.04 2287.4h134.84"/>
  <path id="path1610" d="m216.08 2287.6h134.77"/>
  <path id="path1612" d="m216.12 2287.7h134.7"/>
  <path id="path1614" d="m216.15 2287.8h134.62"/>
  <path id="path1616" d="m216.19 2287.9h134.55"/>
  <path id="path1618" d="m216.22 2288h134.48"/>
  <path id="path1620" d="m216.26 2288.1h134.41"/>
  <path id="path1622" d="m216.29 2288.2h134.34"/>
  <path id="path1624" d="m216.33 2288.4h134.27"/>
  <path id="path1626" d="m216.37 2288.5h134.2"/>
  <path id="path1628" d="m216.4 2288.6h134.12"/>
  <path id="path1630" d="m216.44 2288.7h134.05"/>
  <path id="path1632" d="m216.47 2288.8h133.98"/>
  <path id="path1634" d="m216.51 2288.9h133.91"/>
  <path id="path1636" d="m216.54 2289h133.84"/>
  <path id="path1638" d="m216.58 2289.1h133.77"/>
  <path id="path1640" d="m216.62 2289.3h133.7"/>
  <path id="path1642" d="m216.65 2289.4h133.62"/>
  <path id="path1644" d="m216.69 2289.5h133.55"/>
  <path id="path1646" d="m216.72 2289.6h133.48"/>
  <path id="path1648" d="m216.76 2289.7h133.41"/>
  <path id="path1650" d="m216.79 2289.8h133.34"/>
  <path id="path1652" d="m216.83 2289.9h133.27"/>
  <path id="path1654" d="m216.87 2290.1h133.2"/>
  <path id="path1656" d="m216.9 2290.2h133.12"/>
  <path id="path1658" d="m216.94 2290.3h133.05"/>
  <path id="path1660" d="m216.97 2290.4h132.98"/>
  <path id="path1662" d="m217.01 2290.5h132.91"/>
  <path id="path1664" d="m217.04 2290.6h132.84"/>
  <path id="path1666" d="m217.08 2290.7h132.77"/>
  <path id="path1668" d="m217.12 2290.8h132.7"/>
  <path id="path1670" d="m217.15 2291h132.62"/>
  <path id="path1672" d="m217.19 2291.1h132.55"/>
  <path id="path1674" d="m217.22 2291.2h132.48"/>
  <path id="path1676" d="m217.26 2291.3h132.41"/>
  <path id="path1678" d="m217.3 2291.4h132.34"/>
  <path id="path1680" d="m217.33 2291.5h132.27"/>
  <path id="path1682" d="m217.37 2291.6h132.2"/>
  <path id="path1684" d="m217.4 2291.8h132.12"/>
  <path id="path1686" d="m217.45 2291.9h132.03"/>
  <path id="path1688" d="m217.5 2292h131.94"/>
  <path id="path1690" d="m217.54 2292.1h131.84"/>
  <path id="path1692" d="m217.59 2292.2h131.75"/>
  <path id="path1694" d="m217.64 2292.3h131.66"/>
  <path id="path1696" d="m217.68 2292.4h131.56"/>
  <path id="path1698" d="m217.73 2292.5h131.47"/>
  <path id="path1700" d="m217.78 2292.7h131.37"/>
  <path id="path1702" d="m217.82 2292.8h131.28"/>
  <path id="path1704" d="m217.87 2292.9h131.18"/>
  <path id="path1706" d="m217.92 2293h131.09"/>
  <path id="path1708" d="m217.97 2293.1h131"/>
  <path id="path1710" d="m218.01 2293.2h130.9"/>
  <path id="path1712" d="m218.06 2293.3h130.81"/>
  <path id="path1714" d="m218.11 2293.5h130.72"/>
  <path id="path1716" d="m218.15 2293.6h130.62"/>
  <path id="path1718" d="m218.2 2293.7h130.53"/>
  <path id="path1720" d="m218.25 2293.8h130.43"/>
  <path id="path1722" d="m218.29 2293.9h130.34"/>
  <path id="path1724" d="m218.34 2294h130.24"/>
  <path id="path1726" d="m218.39 2294.1h130.15"/>
  <path id="path1728" d="m218.44 2294.2h130.06"/>
  <path id="path1730" d="m218.48 2294.4h129.96"/>
  <path id="path1732" d="m218.53 2294.5h129.87"/>
  <path id="path1734" d="m218.58 2294.6h129.78"/>
  <path id="path1736" d="m218.62 2294.7h129.68"/>
  <path id="path1738" d="m218.67 2294.8h129.59"/>
  <path id="path1740" d="m218.72 2294.9h129.49"/>
  <path id="path1742" d="m218.76 2295h129.4"/>
  <path id="path1744" d="m218.81 2295.2h129.31"/>
  <path id="path1746" d="m218.86 2295.3h129.21"/>
  <path id="path1748" d="m218.9 2295.4h129.12"/>
  <path id="path1750" d="m218.95 2295.5h129.02"/>
  <path id="path1752" d="m219 2295.6h128.93"/>
  <path id="path1754" d="m219.05 2295.7h128.84"/>
  <path id="path1756" d="m219.09 2295.8h128.74"/>
  <path id="path1758" d="m219.14 2296h128.65"/>
  <path id="path1760" d="m219.19 2296.1h128.56"/>
  <path id="path1762" d="m219.23 2296.2h128.46"/>
  <path id="path1764" d="m219.28 2296.3h128.37"/>
  <path id="path1766" d="m219.33 2296.4h128.27"/>
  <path id="path1768" d="m219.37 2296.5h128.18"/>
  <path id="path1770" d="m219.42 2296.6h128.08"/>
  <path id="path1772" d="m219.47 2296.7h127.99"/>
  <path id="path1774" d="m219.52 2296.9h127.9"/>
  <path id="path1776" d="m219.56 2297h127.8"/>
  <path id="path1778" d="m219.61 2297.1h127.71"/>
  <path id="path1780" d="m219.66 2297.2h127.62"/>
  <path id="path1782" d="m219.7 2297.3h127.52"/>
  <path id="path1784" d="m219.75 2297.4h127.43"/>
  <path id="path1786" d="m219.81 2297.5h127.31"/>
  <path id="path1788" d="m219.87 2297.7h127.19"/>
  <path id="path1790" d="m219.93 2297.8h127.07"/>
  <path id="path1792" d="m219.99 2297.9h126.96"/>
  <path id="path1794" d="m220.04 2298h126.84"/>
  <path id="path1796" d="m220.1 2298.1h126.72"/>
  <path id="path1798" d="m220.16 2298.2h126.6"/>
  <path id="path1800" d="m220.22 2298.3h126.48"/>
  <path id="path1802" d="m220.28 2298.4h126.36"/>
  <path id="path1804" d="m220.34 2298.6h126.25"/>
  <path id="path1806" d="m220.4 2298.7h126.13"/>
  <path id="path1808" d="m220.46 2298.8h126.01"/>
  <path id="path1810" d="m220.52 2298.9h125.89"/>
  <path id="path1812" d="m220.58 2299h125.78"/>
  <path id="path1814" d="m220.64 2299.1h125.66"/>
  <path id="path1816" d="m220.69 2299.2h125.54"/>
  <path id="path1818" d="m220.75 2299.4h125.42"/>
  <path id="path1820" d="m220.81 2299.5h125.3"/>
  <path id="path1822" d="m220.87 2299.6h125.18"/>
  <path id="path1824" d="m220.93 2299.7h125.07"/>
  <path id="path1826" d="m220.99 2299.8h124.95"/>
  <path id="path1828" d="m221.05 2299.9h124.83"/>
  <path id="path1830" d="m221.11 2300h124.71"/>
  <path id="path1832" d="m221.17 2300.1h124.6"/>
  <path id="path1834" d="m221.23 2300.3h124.48"/>
  <path id="path1836" d="m221.28 2300.4h124.36"/>
  <path id="path1838" d="m221.34 2300.5h124.24"/>
  <path id="path1840" d="m221.4 2300.6h124.12"/>
  <path id="path1842" d="m221.46 2300.7h124"/>
  <path id="path1844" d="m221.52 2300.8h123.89"/>
  <path id="path1846" d="m221.58 2300.9h123.77"/>
  <path id="path1848" d="m221.64 2301.1h123.65"/>
  <path id="path1850" d="m221.7 2301.2h123.53"/>
  <path id="path1852" d="m221.76 2301.3h123.42"/>
  <path id="path1854" d="m221.82 2301.4h123.3"/>
  <path id="path1856" d="m221.87 2301.5h123.18"/>
  <path id="path1858" d="m221.93 2301.6h123.06"/>
  <path id="path1860" d="m221.99 2301.7h122.94"/>
  <path id="path1862" d="m222.05 2301.8h122.82"/>
  <path id="path1864" d="m222.11 2302h122.71"/>
  <path id="path1866" d="m222.17 2302.1h122.59"/>
  <path id="path1868" d="m222.23 2302.2h122.47"/>
  <path id="path1870" d="m222.29 2302.3h122.35"/>
  <path id="path1872" d="m222.35 2302.4h122.23"/>
  <path id="path1874" d="m222.41 2302.5h122.12"/>
  <path id="path1876" d="m222.46 2302.6h122"/>
  <path id="path1878" d="m222.52 2302.8h121.88"/>
  <path id="path1880" d="m222.58 2302.9h121.76"/>
  <path id="path1882" d="m222.66 2303h121.62"/>
  <path id="path1884" d="m222.73 2303.1h121.47"/>
  <path id="path1886" d="m222.8 2303.2h121.33"/>
  <path id="path1888" d="m222.87 2303.3h121.18"/>
  <path id="path1890" d="m222.94 2303.4h121.04"/>
  <path id="path1892" d="m223.02 2303.5h120.9"/>
  <path id="path1894" d="m223.09 2303.7h120.75"/>
  <path id="path1896" d="m223.16 2303.8h120.61"/>
  <path id="path1898" d="m223.23 2303.9h120.46"/>
  <path id="path1900" d="m223.31 2304h120.32"/>
  <path id="path1902" d="m223.38 2304.1h120.17"/>
  <path id="path1904" d="m223.45 2304.2h120.03"/>
  <path id="path1906" d="m223.52 2304.3h119.88"/>
  <path id="path1908" d="m223.59 2304.5h119.74"/>
  <path id="path1910" d="m223.67 2304.6h119.6"/>
  <path id="path1912" d="m223.74 2304.7h119.45"/>
  <path id="path1914" d="m223.81 2304.8h119.31"/>
  <path id="path1916" d="m223.88 2304.9h119.16"/>
  <path id="path1918" d="m223.96 2305h119.02"/>
  <path id="path1920" d="m224.03 2305.1h118.87"/>
  <path id="path1922" d="m224.1 2305.2h118.73"/>
  <path id="path1924" d="m224.17 2305.4h118.58"/>
  <path id="path1926" d="m224.24 2305.5h118.44"/>
  <path id="path1928" d="m224.32 2305.6h118.3"/>
  <path id="path1930" d="m224.39 2305.7h118.15"/>
  <path id="path1932" d="m224.46 2305.8h118"/>
  <path id="path1934" d="m224.53 2305.9h117.86"/>
  <path id="path1936" d="m224.61 2306h117.72"/>
  <path id="path1938" d="m224.68 2306.2h117.57"/>
  <path id="path1940" d="m224.75 2306.3h117.43"/>
  <path id="path1942" d="m224.82 2306.4h117.28"/>
  <path id="path1944" d="m224.89 2306.5h117.14"/>
  <path id="path1946" d="m224.97 2306.6h117"/>
  <path id="path1948" d="m225.04 2306.7h116.85"/>
  <path id="path1950" d="m225.11 2306.8h116.7"/>
  <path id="path1952" d="m225.18 2306.9h116.56"/>
  <path id="path1954" d="m225.26 2307.1h116.42"/>
  <path id="path1956" d="m225.33 2307.2h116.27"/>
  <path id="path1958" d="m225.4 2307.3h116.13"/>
  <path id="path1960" d="m225.47 2307.4h115.98"/>
  <path id="path1962" d="m225.54 2307.5h115.84"/>
  <path id="path1964" d="m225.62 2307.6h115.7"/>
  <path id="path1966" d="m225.69 2307.7h115.55"/>
  <path id="path1968" d="m225.76 2307.9h115.4"/>
  <path id="path1970" d="m225.83 2308h115.26"/>
  <path id="path1972" d="m225.91 2308.1h115.1"/>
  <path id="path1974" d="m226 2308.2h114.93"/>
  <path id="path1976" d="m226.09 2308.3h114.76"/>
  <path id="path1978" d="m226.17 2308.4h114.58"/>
  <path id="path1980" d="m226.26 2308.5h114.41"/>
  <path id="path1982" d="m226.35 2308.6h114.24"/>
  <path id="path1984" d="m226.43 2308.8h114.06"/>
  <path id="path1986" d="m226.52 2308.9h113.89"/>
  <path id="path1988" d="m226.61 2309h113.71"/>
  <path id="path1990" d="m226.69 2309.1h113.54"/>
  <path id="path1992" d="m226.78 2309.2h113.36"/>
  <path id="path1994" d="m226.87 2309.3h113.19"/>
  <path id="path1996" d="m226.96 2309.4h113.02"/>
  <path id="path1998" d="m227.04 2309.6h112.84"/>
  <path id="path2000" d="m227.13 2309.7h112.67"/>
  <path id="path2002" d="m227.22 2309.8h112.5"/>
  <path id="path2004" d="m227.3 2309.9h112.32"/>
  <path id="path2006" d="m227.39 2310h112.15"/>
  <path id="path2008" d="m227.48 2310.1h111.97"/>
  <path id="path2010" d="m227.56 2310.2h111.8"/>
  <path id="path2012" d="m227.65 2310.4h111.62"/>
  <path id="path2014" d="m227.74 2310.5h111.45"/>
  <path id="path2016" d="m227.83 2310.6h111.28"/>
  <path id="path2018" d="m227.91 2310.7h111.1"/>
  <path id="path2020" d="m228 2310.8h110.93"/>
  <path id="path2022" d="m228.09 2310.9h110.76"/>
  <path id="path2024" d="m228.17 2311h110.58"/>
  <path id="path2026" d="m228.26 2311.1h110.41"/>
  <path id="path2028" d="m228.35 2311.3h110.23"/>
  <path id="path2030" d="m228.43 2311.4h110.06"/>
  <path id="path2032" d="m228.52 2311.5h109.88"/>
  <path id="path2034" d="m228.61 2311.6h109.71"/>
  <path id="path2036" d="m228.7 2311.7h109.54"/>
  <path id="path2038" d="m228.78 2311.8h109.36"/>
  <path id="path2040" d="m228.87 2311.9h109.19"/>
  <path id="path2042" d="m228.96 2312.1h109.02"/>
  <path id="path2044" d="m229.04 2312.2h108.84"/>
  <path id="path2046" d="m229.13 2312.3h108.67"/>
  <path id="path2048" d="m229.22 2312.4h108.49"/>
  <path id="path2050" d="m229.3 2312.5h108.32"/>
  <path id="path2052" d="m229.39 2312.6h108.14"/>
  <path id="path2054" d="m229.48 2312.7h107.97"/>
  <path id="path2056" d="m229.57 2312.8h107.8"/>
  <path id="path2058" d="m229.66 2313h107.61"/>
  <path id="path2060" d="m229.76 2313.1h107.4"/>
  <path id="path2062" d="m229.87 2313.2h107.19"/>
  <path id="path2064" d="m229.97 2313.3h106.98"/>
  <path id="path2066" d="m230.08 2313.4h106.78"/>
  <path id="path2068" d="m230.18 2313.5h106.57"/>
  <path id="path2070" d="m230.28 2313.6h106.36"/>
  <path id="path2072" d="m230.39 2313.8h106.15"/>
  <path id="path2074" d="m230.49 2313.9h105.94"/>
  <path id="path2076" d="m230.6 2314h105.74"/>
  <path id="path2078" d="m230.7 2314.1h105.53"/>
  <path id="path2080" d="m230.8 2314.2h105.32"/>
  <path id="path2082" d="m230.91 2314.3h105.11"/>
  <path id="path2084" d="m231.01 2314.4h104.9"/>
  <path id="path2086" d="m231.12 2314.5h104.7"/>
  <path id="path2088" d="m231.22 2314.7h104.49"/>
  <path id="path2090" d="m231.32 2314.8h104.28"/>
  <path id="path2092" d="m231.43 2314.9h104.07"/>
  <path id="path2094" d="m231.53 2315h103.87"/>
  <path id="path2096" d="m231.63 2315.1h103.66"/>
  <path id="path2098" d="m231.74 2315.2h103.45"/>
  <path id="path2100" d="m231.84 2315.3h103.24"/>
  <path id="path2102" d="m231.95 2315.5h103.04"/>
  <path id="path2104" d="m232.05 2315.6h102.83"/>
  <path id="path2106" d="m232.15 2315.7h102.62"/>
  <path id="path2108" d="m232.26 2315.8h102.41"/>
  <path id="path2110" d="m232.36 2315.9h102.2"/>
  <path id="path2112" d="m232.47 2316h102"/>
  <path id="path2114" d="m232.57 2316.1h101.79"/>
  <path id="path2116" d="m232.67 2316.2h101.58"/>
  <path id="path2118" d="m232.78 2316.4h101.37"/>
  <path id="path2120" d="m232.88 2316.5h101.16"/>
  <path id="path2122" d="m232.99 2316.6h100.96"/>
  <path id="path2124" d="m233.09 2316.7h100.75"/>
  <path id="path2126" d="m233.19 2316.8h100.54"/>
  <path id="path2128" d="m233.3 2316.9h100.33"/>
  <path id="path2130" d="m233.4 2317h100.13"/>
  <path id="path2132" d="m233.5 2317.2h99.918"/>
  <path id="path2134" d="m233.61 2317.3h99.71"/>
  <path id="path2136" d="m233.71 2317.4h99.503"/>
  <path id="path2138" d="m233.83 2317.5h99.271"/>
  <path id="path2140" d="m233.95 2317.6h99.023"/>
  <path id="path2142" d="m234.08 2317.7h98.776"/>
  <path id="path2144" d="m234.2 2317.8h98.529"/>
  <path id="path2146" d="m234.32 2317.9h98.281"/>
  <path id="path2148" d="m234.45 2318.1h98.033"/>
  <path id="path2150" d="m234.57 2318.2h97.786"/>
  <path id="path2152" d="m234.69 2318.3h97.539"/>
  <path id="path2154" d="m234.82 2318.4h97.291"/>
  <path id="path2156" d="m234.94 2318.5h97.043"/>
  <path id="path2158" d="m235.07 2318.6h96.797"/>
  <path id="path2160" d="m235.19 2318.7h96.549"/>
  <path id="path2162" d="m235.31 2318.9h96.301"/>
  <path id="path2164" d="m235.44 2319h96.054"/>
  <path id="path2166" d="m235.56 2319.1h95.807"/>
  <path id="path2168" d="m235.68 2319.2h95.559"/>
  <path id="path2170" d="m235.81 2319.3h95.311"/>
  <path id="path2172" d="m235.93 2319.4h95.064"/>
  <path id="path2174" d="m236.06 2319.5h94.817"/>
  <path id="path2176" d="m236.18 2319.6h94.569"/>
  <path id="path2178" d="m236.3 2319.8h94.321"/>
  <path id="path2180" d="m236.43 2319.9h94.074"/>
  <path id="path2182" d="m236.55 2320h93.827"/>
  <path id="path2184" d="m236.67 2320.1h93.579"/>
  <path id="path2186" d="m236.8 2320.2h93.331"/>
  <path id="path2188" d="m236.92 2320.3h93.084"/>
  <path id="path2190" d="m237.05 2320.4h92.837"/>
  <path id="path2192" d="m237.17 2320.6h92.589"/>
  <path id="path2194" d="m237.29 2320.7h92.341"/>
  <path id="path2196" d="m237.42 2320.8h92.094"/>
  <path id="path2198" d="m237.54 2320.9h91.847"/>
  <path id="path2200" d="m237.66 2321h91.599"/>
  <path id="path2202" d="m237.79 2321.1h91.351"/>
  <path id="path2204" d="m237.91 2321.2h91.105"/>
  <path id="path2206" d="m238.04 2321.3h90.857"/>
  <path id="path2208" d="m238.16 2321.5h90.609"/>
  <path id="path2210" d="m238.28 2321.6h90.359"/>
  <path id="path2212" d="m238.43 2321.7h90.063"/>
  <path id="path2214" d="m238.58 2321.8h89.769"/>
  <path id="path2216" d="m238.73 2321.9h89.473"/>
  <path id="path2218" d="m238.88 2322h89.177"/>
  <path id="path2220" d="m239.02 2322.1h88.881"/>
  <path id="path2222" d="m239.17 2322.3h88.587"/>
  <path id="path2224" d="m239.32 2322.4h88.291"/>
  <path id="path2226" d="m239.47 2322.5h87.995"/>
  <path id="path2228" d="m239.61 2322.6h87.699"/>
  <path id="path2230" d="m239.76 2322.7h87.404"/>
  <path id="path2232" d="m239.91 2322.8h87.109"/>
  <path id="path2234" d="m240.06 2322.9h86.813"/>
  <path id="path2236" d="m240.21 2323h86.517"/>
  <path id="path2238" d="m240.35 2323.2h86.222"/>
  <path id="path2240" d="m240.5 2323.3h85.927"/>
  <path id="path2242" d="m240.65 2323.4h85.631"/>
  <path id="path2244" d="m240.8 2323.5h85.335"/>
  <path id="path2246" d="m240.94 2323.6h85.04"/>
  <path id="path2248" d="m241.09 2323.7h84.745"/>
  <path id="path2250" d="m241.24 2323.8h84.449"/>
  <path id="path2252" d="m241.39 2324h84.153"/>
  <path id="path2254" d="m241.53 2324.1h83.858"/>
  <path id="path2256" d="m241.68 2324.2h83.563"/>
  <path id="path2258" d="m241.83 2324.3h83.267"/>
  <path id="path2260" d="m241.98 2324.4h82.971"/>
  <path id="path2262" d="m242.13 2324.5h82.675"/>
  <path id="path2264" d="m242.27 2324.6h82.381"/>
  <path id="path2266" d="m242.42 2324.8h82.085"/>
  <path id="path2268" d="m242.57 2324.9h81.789"/>
  <path id="path2270" d="m242.72 2325h81.493"/>
  <path id="path2272" d="m242.86 2325.1h81.198"/>
  <path id="path2274" d="m243.01 2325.2h80.903"/>
  <path id="path2276" d="m243.16 2325.3h80.599"/>
  <path id="path2278" d="m243.34 2325.4h80.243"/>
  <path id="path2280" d="m243.52 2325.5h79.887"/>
  <path id="path2282" d="m243.7 2325.7h79.531"/>
  <path id="path2284" d="m243.88 2325.8h79.175"/>
  <path id="path2286" d="m244.05 2325.9h78.819"/>
  <path id="path2288" d="m244.23 2326h78.464"/>
  <path id="path2290" d="m244.41 2326.1h78.108"/>
  <path id="path2292" d="m244.59 2326.2h77.752"/>
  <path id="path2294" d="m244.77 2326.3h77.396"/>
  <path id="path2296" d="m244.94 2326.5h77.04"/>
  <path id="path2298" d="m245.12 2326.6h76.684"/>
  <path id="path2300" d="m245.3 2326.7h76.328"/>
  <path id="path2302" d="m245.48 2326.8h75.972"/>
  <path id="path2304" d="m245.66 2326.9h75.616"/>
  <path id="path2306" d="m245.83 2327h75.26"/>
  <path id="path2308" d="m246.01 2327.1h74.904"/>
  <path id="path2310" d="m246.19 2327.2h74.548"/>
  <path id="path2312" d="m246.37 2327.4h74.192"/>
  <path id="path2314" d="m246.55 2327.5h73.836"/>
  <path id="path2316" d="m246.72 2327.6h73.48"/>
  <path id="path2318" d="m246.9 2327.7h73.124"/>
  <path id="path2320" d="m247.08 2327.8h72.768"/>
  <path id="path2322" d="m247.26 2327.9h72.412"/>
  <path id="path2324" d="m247.44 2328h72.056"/>
  <path id="path2326" d="m247.61 2328.2h71.7"/>
  <path id="path2328" d="m247.79 2328.3h71.345"/>
  <path id="path2330" d="m247.97 2328.4h70.989"/>
  <path id="path2332" d="m248.15 2328.5h70.633"/>
  <path id="path2334" d="m248.33 2328.6h70.271"/>
  <path id="path2336" d="m248.55 2328.7h69.836"/>
  <path id="path2338" d="m248.76 2328.8h69.4"/>
  <path id="path2340" d="m248.98 2328.9h68.965"/>
  <path id="path2342" d="m249.2 2329.1h68.529"/>
  <path id="path2344" d="m249.42 2329.2h68.093"/>
  <path id="path2346" d="m249.64 2329.3h67.657"/>
  <path id="path2348" d="m249.85 2329.4h67.222"/>
  <path id="path2350" d="m250.07 2329.5h66.787"/>
  <path id="path2352" d="m250.29 2329.6h66.351"/>
  <path id="path2354" d="m250.51 2329.7h65.915"/>
  <path id="path2356" d="m250.72 2329.9h65.479"/>
  <path id="path2358" d="m250.94 2330h65.043"/>
  <path id="path2360" d="m251.16 2330.1h64.608"/>
  <path id="path2362" d="m251.38 2330.2h64.173"/>
  <path id="path2364" d="m251.6 2330.3h63.737"/>
  <path id="path2366" d="m251.81 2330.4h63.301"/>
  <path id="path2368" d="m252.03 2330.5h62.865"/>
  <path id="path2370" d="m252.25 2330.6h62.429"/>
  <path id="path2372" d="m252.47 2330.8h61.995"/>
  <path id="path2374" d="m252.68 2330.9h61.559"/>
  <path id="path2376" d="m252.9 2331h61.123"/>
  <path id="path2378" d="m253.12 2331.1h60.687"/>
  <path id="path2380" d="m253.34 2331.2h60.251"/>
  <path id="path2382" d="m253.56 2331.3h59.817"/>
  <path id="path2384" d="m253.78 2331.4h59.371"/>
  <path id="path2386" d="m254.05 2331.6h58.823"/>
  <path id="path2388" d="m254.33 2331.7h58.275"/>
  <path id="path2390" d="m254.6 2331.8h57.729"/>
  <path id="path2392" d="m254.87 2331.9h57.181"/>
  <path id="path2394" d="m255.15 2332h56.633"/>
  <path id="path2396" d="m255.42 2332.1h56.085"/>
  <path id="path2398" d="m255.69 2332.2h55.539"/>
  <path id="path2400" d="m255.97 2332.3h54.991"/>
  <path id="path2402" d="m256.24 2332.5h54.443"/>
  <path id="path2404" d="m256.52 2332.6h53.895"/>
  <path id="path2406" d="m256.79 2332.7h53.349"/>
  <path id="path2408" d="m257.06 2332.8h52.801"/>
  <path id="path2410" d="m257.34 2332.9h52.253"/>
  <path id="path2412" d="m257.61 2333h51.706"/>
  <path id="path2414" d="m257.88 2333.1h51.159"/>
  <path id="path2416" d="m258.16 2333.3h50.611"/>
  <path id="path2418" d="m258.43 2333.4h50.063"/>
  <path id="path2420" d="m258.71 2333.5h49.516"/>
  <path id="path2422" d="m258.98 2333.6h48.969"/>
  <path id="path2424" d="m259.25 2333.7h48.421"/>
  <path id="path2426" d="m259.56 2333.8h47.807"/>
  <path id="path2428" d="m259.92 2333.9h47.087"/>
  <path id="path2430" d="m260.28 2334h46.369"/>
  <path id="path2432" d="m260.64 2334.2h45.649"/>
  <path id="path2434" d="m261 2334.3h44.93"/>
  <path id="path2436" d="m261.36 2334.4h44.211"/>
  <path id="path2438" d="m261.72 2334.5h43.491"/>
  <path id="path2440" d="m262.08 2334.6h42.772"/>
  <path id="path2442" d="m262.44 2334.7h42.053"/>
  <path id="path2444" d="m262.8 2334.8h41.334"/>
  <path id="path2446" d="m263.16 2335h40.615"/>
  <path id="path2448" d="m263.52 2335.1h39.895"/>
  <path id="path2450" d="m263.88 2335.2h39.177"/>
  <path id="path2452" d="m264.24 2335.3h38.457"/>
  <path id="path2454" d="m264.6 2335.4h37.737"/>
  <path id="path2456" d="m264.95 2335.5h37.019"/>
  <path id="path2458" d="m265.33 2335.6h36.261"/>
  <path id="path2460" d="m265.84 2335.7h35.238"/>
  <path id="path2462" d="m266.36 2335.9h34.215"/>
  <path id="path2464" d="m266.87 2336h33.193"/>
  <path id="path2466" d="m267.38 2336.1h32.169"/>
  <path id="path2468" d="m267.89 2336.2h31.147"/>
  <path id="path2470" d="m268.4 2336.3h30.123"/>
  <path id="path2472" d="m268.91 2336.4h29.101"/>
  <path id="path2474" d="m269.42 2336.5h28.078"/>
  <path id="path2476" d="m269.94 2336.7h27.055"/>
  <path id="path2478" d="m270.45 2336.8h26.032"/>
  <path id="path2480" d="m270.96 2336.9h25.009"/>
  <path id="path2482" d="m271.62 2337h23.693"/>
  <path id="path2484" d="m272.48 2337.1h21.971"/>
  <path id="path2486" d="m273.34 2337.2h20.248"/>
  <path id="path2488" d="m274.2 2337.3h18.525"/>
  <path id="path2490" d="m275.06 2337.4h16.803"/>
  <path id="path2492" d="m275.92 2337.6h15.08"/>
  <path id="path2494" d="m276.79 2337.7h13.357"/>
  <path id="path2496" d="m278.27 2337.8h10.387"/>
  <path id="path2498" d="m280.87 2337.9h5.193"/>
 </g>
</svg>
