<?xml version="1.0" encoding="UTF-8"?>
<svg id="svg36" width="574.51" height="485.64" version="1.1" viewBox="0 0 574.51 485.64" xmlns="http://www.w3.org/2000/svg">
 <g id="g34" transform="translate(7.5591 -1613.7)" fill="none" stroke="#000" stroke-width="4mm">
  <path id="path6" d="m349.07 1722.8 12.429-26.769 12.428-23.901 16.253-16.252 16.252-16.253 24.857-8.604 21.989 1.912 28.681 8.604 26.769 5.737 21.989 32.505 17.209 18.164"/>
  <path id="path8" d="m547.92 1697.9 11.472 21.033v23.901l-11.472 22.945-12.429 20.077-19.121 22.945-21.988 23.901-20.077 24.856-12.429 18.165-10.516 16.253-1.912 21.033"/>
  <path id="path10" d="m449.45 1913v38.241l1.912 21.033v1.912"/>
  <path id="path12" d="m431.28 2057.4h50.67"/>
  <path id="path14" d="m-7.5353 1985.7 304.02-0.956"/>
  <path id="path16" d="m187.5 2040.2-0.196 4.5-0.588 4.465-0.975 4.397-1.354 4.295-1.724 4.161-2.079 3.995-2.42 3.799-2.742 3.573-3.043 3.32-3.32 3.043"/>
  <path id="path18" d="m169.05 2079.7-3.573 2.742-3.799 2.42-3.995 2.079-4.161 1.724-4.295 1.354-4.397 0.975-4.465 0.588-4.5 0.196-4.499-0.196-4.466-0.588"/>
  <path id="path20" d="m126.9 2091-4.397-0.975-4.295-1.354-4.161-1.724-3.995-2.079-3.798-2.42-3.573-2.742-3.321-3.043-3.043-3.32-2.741-3.573-2.42-3.799"/>
  <path id="path22" d="m91.161 2066-2.08-3.995-1.723-4.161-1.355-4.295-0.974-4.397-0.588-4.465-0.197-4.5 0.197-4.499 0.588-4.465 0.974-4.397 1.355-4.296"/>
  <path id="path24" d="m87.358 2022.5 1.723-4.161 2.08-3.995 2.42-3.798 2.741-3.573 3.043-3.321 3.321-3.043 3.573-2.741 3.798-2.42 3.995-2.08 4.161-1.723"/>
  <path id="path26" d="m118.21 1991.7 4.295-1.355 4.397-0.974 4.466-0.588 4.499-0.197 4.5 0.197 4.465 0.588 4.397 0.974 4.295 1.355 4.161 1.723 3.995 2.08"/>
  <path id="path28" d="m161.68 1995.5 3.799 2.42 3.573 2.741 3.32 3.043 3.043 3.321 2.742 3.573 2.42 3.798 2.079 3.995 1.724 4.161 1.354 4.296 0.975 4.397"/>
  <path id="path30" d="m186.71 2031.2 0.588 4.465 0.196 4.499-0.196 4.5"/>
  <path id="path32" d="m134.91 1983.8-2.868-369.99"/>
 </g>
</svg>
