<?xml version="1.0" encoding="UTF-8" standalone="no"?>
<svg
   width="574.51184"
   height="485.64282"
   viewBox="0 0 574.51182 485.64282"
   version="1.1"
   id="svg36"
   sodipodi:docname="BCNGEN03.hpgl.svg"
   inkscape:version="1.1.2 (0a00cf5339, 2022-02-04)"
   xmlns:inkscape="http://www.inkscape.org/namespaces/inkscape"
   xmlns:sodipodi="http://sodipodi.sourceforge.net/DTD/sodipodi-0.dtd"
   xmlns="http://www.w3.org/2000/svg"
   xmlns:svg="http://www.w3.org/2000/svg">
  <defs
     id="defs40" />
  <sodipodi:namedview
     id="namedview38"
     pagecolor="#ffffff"
     bordercolor="#666666"
     borderopacity="1.0"
     inkscape:pageshadow="2"
     inkscape:pageopacity="0.0"
     inkscape:pagecheckerboard="0"
     showgrid="false"
     inkscape:zoom="1.5041275"
     inkscape:cx="290.53389"
     inkscape:cy="-1374.5511"
     inkscape:window-width="1495"
     inkscape:window-height="970"
     inkscape:window-x="0"
     inkscape:window-y="32"
     inkscape:window-maximized="0"
     inkscape:current-layer="svg36" />
  <g
     id="g2"
     transform="translate(7.5590553,-1613.7294)" />
  <g
     style="fill:none;stroke:#000000;stroke-width:1mm"
     id="g4"
     transform="translate(7.5590553,-1613.7294)" />
  <g
     style="fill:none;stroke:#000000;stroke-width:4mm"
     id="g34"
     transform="translate(7.5590553,-1613.7294)">
    <path
       d="m 349.06571,1722.776 12.429,-26.769 12.428,-23.901 16.253,-16.252 16.252,-16.253 24.857,-8.604 21.989,1.912 28.681,8.604 26.769,5.737 21.989,32.505 17.209,18.164"
       id="path6" />
    <path
       d="m 547.92171,1697.919 11.472,21.033 v 23.901 l -11.472,22.945 -12.429,20.077 -19.121,22.945 -21.988,23.901 -20.077,24.856 -12.429,18.165 -10.516,16.253 -1.912,21.033"
       id="path8" />
    <path
       d="m 449.44971,1913.028 v 21.988 16.253 l 1.912,21.033 v 1.912"
       id="path10" />
    <path
       d="m 431.28471,2057.389 h 50.67"
       id="path12" />
    <path
       d="M -7.5352857,1985.686 296.48371,1984.73"
       id="path14" />
    <path
       d="m 187.49571,2040.18 -0.196,4.5 -0.588,4.465 -0.975,4.397 -1.354,4.295 -1.724,4.161 -2.079,3.995 -2.42,3.799 -2.742,3.573 -3.043,3.32 -3.32,3.043"
       id="path16" />
    <path
       d="m 169.05471,2079.728 -3.573,2.742 -3.799,2.42 -3.995,2.079 -4.161,1.724 -4.295,1.354 -4.397,0.975 -4.465,0.588 -4.5,0.196 -4.499,-0.196 -4.466,-0.588"
       id="path18" />
    <path
       d="m 126.90471,2091.022 -4.397,-0.975 -4.295,-1.354 -4.161,-1.724 -3.995,-2.079 -3.798,-2.42 -3.573,-2.742 -3.320996,-3.043 -3.043,-3.32 -2.741,-3.573 -2.42,-3.799"
       id="path20" />
    <path
       d="m 91.160714,2065.993 -2.08,-3.995 -1.723,-4.161 -1.355,-4.295 -0.974,-4.397 -0.588,-4.465 -0.197,-4.5 0.197,-4.499 0.588,-4.465 0.974,-4.397 1.355,-4.296"
       id="path22" />
    <path
       d="m 87.357714,2022.523 1.723,-4.161 2.08,-3.995 2.42,-3.798 2.741,-3.573 3.043,-3.321 3.320996,-3.043 3.573,-2.741 3.798,-2.42 3.995,-2.08 4.161,-1.723"
       id="path24" />
    <path
       d="m 118.21271,1991.668 4.295,-1.355 4.397,-0.974 4.466,-0.588 4.499,-0.197 4.5,0.197 4.465,0.588 4.397,0.974 4.295,1.355 4.161,1.723 3.995,2.08"
       id="path26" />
    <path
       d="m 161.68271,1995.471 3.799,2.42 3.573,2.741 3.32,3.043 3.043,3.321 2.742,3.573 2.42,3.798 2.079,3.995 1.724,4.161 1.354,4.296 0.975,4.397"
       id="path28" />
    <path
       d="m 186.71171,2031.216 0.588,4.465 0.196,4.499 -0.196,4.5"
       id="path30" />
    <path
       d="m 134.91371,1983.774 -2.868,-369.986"
       id="path32" />
  </g>
</svg>
