<?xml version="1.0" encoding="UTF-8"?>
<svg id="svg38" width="547.23" height="582.05" version="1.1" viewBox="0 0 547.23 582.05" xmlns="http://www.w3.org/2000/svg">
 <g id="g36" transform="translate(0 -887.71)" fill="none" stroke="#000" stroke-width="4mm">
  <path id="path6" d="m348.04 1387.8-0.284 6.486-0.847 6.437-1.405 6.339-1.953 6.192-2.484 5.998-2.998 5.759-3.489 5.476-3.952 5.151-4.386 4.787-4.787 4.386"/>
  <path id="path8" d="m321.45 1444.8-5.151 3.952-5.476 3.489-5.759 2.998-5.998 2.484-6.192 1.953-6.339 1.405-6.437 0.847-6.486 0.284-6.487-0.284-6.437-0.847"/>
  <path id="path10" d="m260.69 1461.1-6.339-1.405-6.192-1.953-5.998-2.484-5.759-2.998-5.476-3.489-5.151-3.952-4.787-4.386-4.386-4.787-3.952-5.151-3.489-5.476"/>
  <path id="path12" d="m209.16 1425-2.998-5.759-2.484-5.998-1.953-6.192-1.405-6.339-0.847-6.437-0.284-6.486 0.284-6.487 0.847-6.437 1.405-6.339 1.953-6.192"/>
  <path id="path14" d="m203.68 1362.3 2.484-5.998 2.998-5.759 3.489-5.476 3.952-5.151 4.386-4.787 4.787-4.386 5.151-3.952 5.476-3.489 5.759-2.998 5.998-2.484"/>
  <path id="path16" d="m248.16 1317.8 6.192-1.953 6.339-1.405 6.437-0.847 6.487-0.284 6.486 0.284 6.437 0.847 6.339 1.405 6.192 1.953 5.998 2.484 5.759 2.998"/>
  <path id="path18" d="m310.83 1323.3 5.476 3.489 5.151 3.952 4.787 4.386 4.386 4.787 3.952 5.151 3.489 5.476 2.998 5.759 2.484 5.998 1.953 6.192 1.405 6.339"/>
  <path id="path20" d="m346.91 1374.8 0.847 6.437 0.284 6.487-0.284 6.486"/>
  <path id="path22" d="m0 1387.8h194.81"/>
  <path id="path24" d="m341.47 1387.8h205.76"/>
  <path id="path26" d="m54.723 1387.8 109.45-492.51h218.89l109.45 492.51"/>
  <path id="path28" d="m67.856 1305.7 373.21-144.47"/>
  <path id="path30" d="m105.07 1161.2 366.64 140.09"/>
  <path id="path32" d="m153.22 942.33 267.05 133.52"/>
  <path id="path34" d="m383.06 949.99-263.76 129.15"/>
 </g>
</svg>
