<?xml version="1.0" encoding="UTF-8" standalone="no"?>
<svg
   width="547.229"
   height="582.05438"
   viewBox="0 0 547.229 582.05437"
   version="1.1"
   id="svg38"
   sodipodi:docname="BCNLTC01.hpgl.svg"
   inkscape:version="1.1.2 (0a00cf5339, 2022-02-04)"
   xmlns:inkscape="http://www.inkscape.org/namespaces/inkscape"
   xmlns:sodipodi="http://sodipodi.sourceforge.net/DTD/sodipodi-0.dtd"
   xmlns="http://www.w3.org/2000/svg"
   xmlns:svg="http://www.w3.org/2000/svg">
  <defs
     id="defs42" />
  <sodipodi:namedview
     id="namedview40"
     pagecolor="#ffffff"
     bordercolor="#666666"
     borderopacity="1.0"
     inkscape:pageshadow="2"
     inkscape:pageopacity="0.0"
     inkscape:pagecheckerboard="0"
     showgrid="false"
     inkscape:zoom="1.2682364"
     inkscape:cx="273.60829"
     inkscape:cy="-604.38258"
     inkscape:window-width="1495"
     inkscape:window-height="970"
     inkscape:window-x="0"
     inkscape:window-y="32"
     inkscape:window-maximized="0"
     inkscape:current-layer="svg38" />
  <g
     id="g2"
     transform="translate(0,-887.70794)" />
  <g
     style="fill:none;stroke:#000000;stroke-width:1mm"
     id="g4"
     transform="translate(0,-887.70794)" />
  <g
     style="fill:none;stroke:#000000;stroke-width:4mm"
     id="g36"
     transform="translate(0,-887.70794)">
    <path
       d="m 348.038,1387.773 -0.284,6.486 -0.847,6.437 -1.405,6.339 -1.953,6.192 -2.484,5.998 -2.998,5.759 -3.489,5.476 -3.952,5.151 -4.386,4.787 -4.787,4.386"
       id="path6" />
    <path
       d="m 321.453,1444.784 -5.151,3.952 -5.476,3.489 -5.759,2.998 -5.998,2.484 -6.192,1.953 -6.339,1.405 -6.437,0.847 -6.486,0.284 -6.487,-0.284 -6.437,-0.847"
       id="path8" />
    <path
       d="m 260.691,1461.065 -6.339,-1.405 -6.192,-1.953 -5.998,-2.484 -5.759,-2.998 -5.476,-3.489 -5.151,-3.952 -4.787,-4.386 -4.386,-4.787 -3.952,-5.151 -3.489,-5.476"
       id="path10" />
    <path
       d="m 209.162,1424.984 -2.998,-5.759 -2.484,-5.998 -1.953,-6.192 -1.405,-6.339 -0.847,-6.437 -0.284,-6.486 0.284,-6.487 0.847,-6.437 1.405,-6.339 1.953,-6.192"
       id="path12" />
    <path
       d="m 203.68,1362.318 2.484,-5.998 2.998,-5.759 3.489,-5.476 3.952,-5.151 4.386,-4.787 4.787,-4.386 5.151,-3.952 5.476,-3.489 5.759,-2.998 5.998,-2.484"
       id="path14" />
    <path
       d="m 248.16,1317.838 6.192,-1.953 6.339,-1.405 6.437,-0.847 6.487,-0.284 6.486,0.284 6.437,0.847 6.339,1.405 6.192,1.953 5.998,2.484 5.759,2.998"
       id="path16" />
    <path
       d="m 310.826,1323.32 5.476,3.489 5.151,3.952 4.787,4.386 4.386,4.787 3.952,5.151 3.489,5.476 2.998,5.759 2.484,5.998 1.953,6.192 1.405,6.339"
       id="path18" />
    <path
       d="m 346.907,1374.849 0.847,6.437 0.284,6.487 -0.284,6.486"
       id="path20" />
    <path
       d="M 0,1387.773 H 194.814"
       id="path22" />
    <path
       d="M 341.471,1387.773 H 547.229"
       id="path24" />
    <path
       d="M 54.723,1387.773 164.169,895.267 H 383.06 l 109.446,492.506"
       id="path26" />
    <path
       d="M 67.856,1305.688 441.067,1161.22"
       id="path28" />
    <path
       d="m 105.068,1161.22 366.643,140.09"
       id="path30" />
    <path
       d="m 153.224,942.328 267.048,133.524"
       id="path32" />
    <path
       d="M 383.06,949.989 119.296,1079.135"
       id="path34" />
  </g>
</svg>
