<?xml version="1.0" encoding="UTF-8" standalone="no"?>
<svg
   width="545.12402"
   height="582.05432"
   viewBox="0 0 545.124 582.0543"
   version="1.1"
   id="svg30"
   sodipodi:docname="BCNTOW01.hpgl.svg"
   inkscape:version="1.1.2 (0a00cf5339, 2022-02-04)"
   xmlns:inkscape="http://www.inkscape.org/namespaces/inkscape"
   xmlns:sodipodi="http://sodipodi.sourceforge.net/DTD/sodipodi-0.dtd"
   xmlns="http://www.w3.org/2000/svg"
   xmlns:svg="http://www.w3.org/2000/svg">
  <defs
     id="defs34" />
  <sodipodi:namedview
     id="namedview32"
     pagecolor="#ffffff"
     bordercolor="#666666"
     borderopacity="1.0"
     inkscape:pageshadow="2"
     inkscape:pageopacity="0.0"
     inkscape:pagecheckerboard="0"
     showgrid="false"
     inkscape:zoom="1.2682364"
     inkscape:cx="272.8198"
     inkscape:cy="-602.80559"
     inkscape:window-width="1495"
     inkscape:window-height="970"
     inkscape:window-x="0"
     inkscape:window-y="32"
     inkscape:window-maximized="0"
     inkscape:current-layer="svg30" />
  <g
     id="g2"
     transform="translate(0,-886.44494)" />
  <g
     style="fill:none;stroke:#000000;stroke-width:1mm"
     id="g4"
     transform="translate(0,-886.44494)" />
  <g
     style="fill:none;stroke:#000000;stroke-width:4mm"
     id="g28"
     transform="translate(0,-886.44494)">
    <path
       d="m 348.879,1384.616 -0.29,6.651 -0.869,6.601 -1.441,6.5 -2.002,6.35 -2.548,6.151 -3.074,5.905 -3.578,5.615 -4.053,5.282 -4.498,4.909 -4.908,4.498"
       id="path6" />
    <path
       d="m 321.618,1443.078 -5.282,4.053 -5.615,3.577 -5.906,3.075 -6.151,2.547 -6.35,2.002 -6.5,1.441 -6.601,0.87 -6.651,0.29 -6.652,-0.29 -6.601,-0.87"
       id="path8" />
    <path
       d="m 259.309,1459.773 -6.499,-1.441 -6.35,-2.002 -6.151,-2.547 -5.906,-3.075 -5.615,-3.577 -5.282,-4.053 -4.909,-4.498 -4.498,-4.909 -4.053,-5.282 -3.577,-5.615"
       id="path10" />
    <path
       d="m 206.469,1422.774 -3.074,-5.905 -2.548,-6.151 -2.002,-6.35 -1.441,-6.5 -0.869,-6.601 -0.291,-6.651 0.291,-6.652 0.869,-6.601 1.441,-6.5 2.002,-6.35"
       id="path12" />
    <path
       d="m 200.847,1358.513 2.548,-6.151 3.074,-5.905 3.577,-5.615 4.053,-5.282 4.498,-4.909 4.909,-4.498 5.282,-4.053 5.615,-3.577 5.906,-3.074 6.151,-2.548"
       id="path14" />
    <path
       d="m 246.46,1312.901 6.349,-2.002 6.5,-1.441 6.601,-0.869 6.652,-0.291 6.651,0.291 6.601,0.869 6.5,1.441 6.35,2.002 6.151,2.548 5.906,3.074"
       id="path16" />
    <path
       d="m 310.721,1318.523 5.615,3.577 5.282,4.053 4.908,4.498 4.498,4.909 4.053,5.282 3.578,5.615 3.074,5.905 2.548,6.151 2.002,6.35 1.441,6.5"
       id="path18" />
    <path
       d="m 347.72,1371.363 0.869,6.601 0.29,6.652 -0.29,6.651"
       id="path20" />
    <path
       d="M 0,1384.616 H 196.244"
       id="path22" />
    <path
       d="M 343.428,1384.616 H 545.124"
       id="path24" />
    <path
       d="M 54.512,1384.616 163.537,894.004 h 218.05 l 109.025,490.612"
       id="path26" />
  </g>
</svg>
