<?xml version="1.0" encoding="UTF-8"?>
<svg id="svg30" width="545.12" height="582.05" version="1.1" viewBox="0 0 545.12 582.05" xmlns="http://www.w3.org/2000/svg">
 <g id="g28" transform="translate(0 -886.44)" fill="none" stroke="#000" stroke-width="4mm">
  <path id="path6" d="m348.88 1384.6-0.29 6.651-0.869 6.601-1.441 6.5-2.002 6.35-2.548 6.151-3.074 5.905-3.578 5.615-4.053 5.282-4.498 4.909-4.908 4.498"/>
  <path id="path8" d="m321.62 1443.1-5.282 4.053-5.615 3.577-5.906 3.075-6.151 2.547-6.35 2.002-6.5 1.441-6.601 0.87-6.651 0.29-6.652-0.29-6.601-0.87"/>
  <path id="path10" d="m259.31 1459.8-6.499-1.441-6.35-2.002-6.151-2.547-5.906-3.075-5.615-3.577-5.282-4.053-4.909-4.498-4.498-4.909-4.053-5.282-3.577-5.615"/>
  <path id="path12" d="m206.47 1422.8-3.074-5.905-2.548-6.151-2.002-6.35-1.441-6.5-0.869-6.601-0.291-6.651 0.291-6.652 0.869-6.601 1.441-6.5 2.002-6.35"/>
  <path id="path14" d="m200.85 1358.5 2.548-6.151 3.074-5.905 3.577-5.615 4.053-5.282 4.498-4.909 4.909-4.498 5.282-4.053 5.615-3.577 5.906-3.074 6.151-2.548"/>
  <path id="path16" d="m246.46 1312.9 6.349-2.002 6.5-1.441 6.601-0.869 6.652-0.291 6.651 0.291 6.601 0.869 6.5 1.441 6.35 2.002 6.151 2.548 5.906 3.074"/>
  <path id="path18" d="m310.72 1318.5 5.615 3.577 5.282 4.053 4.908 4.498 4.498 4.909 4.053 5.282 3.578 5.615 3.074 5.905 2.548 6.151 2.002 6.35 1.441 6.5"/>
  <path id="path20" d="m347.72 1371.4 0.869 6.601 0.29 6.652-0.29 6.651"/>
  <path id="path22" d="m0 1384.6h196.24"/>
  <path id="path24" d="m343.43 1384.6h201.7"/>
  <path id="path26" d="m54.512 1384.6 109.02-490.61h218.05l109.02 490.61"/>
 </g>
</svg>
