<?xml version="1.0" encoding="UTF-8"?>
<svg id="svg38" width="566.93" height="420.73" version="1.1" viewBox="0 0 566.93 420.73" xmlns="http://www.w3.org/2000/svg">
 <g id="g36" transform="translate(0 -1421.3)" fill="none" stroke="#000" stroke-width="4mm">
  <path id="path6" d="m373.34 1788.4-0.175 4.017-0.525 3.987-0.87 3.925-1.209 3.835-1.539 3.715-1.857 3.567-2.16 3.391-2.448 3.19-2.717 2.965-2.964 2.716"/>
  <path id="path8" d="m356.88 1823.7-3.19 2.448-3.391 2.161-3.567 1.856-3.715 1.539-3.835 1.209-3.926 0.871-3.986 0.524-4.017 0.176-4.018-0.176-3.986-0.524"/>
  <path id="path10" d="m319.25 1833.8-3.926-0.871-3.835-1.209-3.715-1.539-3.566-1.856-3.392-2.161-3.19-2.448-2.964-2.716-2.717-2.965-2.448-3.19-2.16-3.391"/>
  <path id="path12" d="m287.34 1811.4-1.857-3.567-1.538-3.715-1.21-3.835-0.87-3.925-0.525-3.987-0.175-4.017 0.175-4.017 0.525-3.987 0.87-3.925 1.21-3.835"/>
  <path id="path14" d="m283.94 1772.6 1.538-3.715 1.857-3.567 2.16-3.391 2.448-3.19 2.717-2.965 2.964-2.716 3.19-2.448 3.392-2.161 3.566-1.856 3.715-1.539"/>
  <path id="path16" d="m311.49 1745 3.835-1.209 3.926-0.871 3.986-0.524 4.018-0.176 4.017 0.176 3.986 0.524 3.926 0.871 3.835 1.209 3.715 1.539 3.567 1.856"/>
  <path id="path18" d="m350.3 1748.4 3.391 2.161 3.19 2.448 2.964 2.716 2.717 2.965 2.448 3.19 2.16 3.391 1.857 3.567 1.539 3.715 1.209 3.835 0.87 3.925"/>
  <path id="path20" d="m372.64 1780.4 0.525 3.987 0.175 4.017-0.175 4.017"/>
  <path id="path22" d="m50.701 1788.4v-142.88l9.218-59.919 32.264-64.528"/>
  <path id="path24" d="m133.67 1479.5 41.483-23.046 50.701-18.437 41.482-9.218h41.483l46.092 9.218 55.31 32.265 41.482 27.655 23.046 27.655 23.046 46.092 13.828 41.482"/>
  <path id="path26" d="m511.62 1613.2 4.609 32.264v142.88"/>
  <path id="path28" d="m119.84 1488.8 32.264 50.701 32.264 46.092 18.437 50.701 13.827 69.138 9.219 41.482v41.483"/>
  <path id="path30" d="m368.73 1788.4h198.2"/>
  <path id="path32" d="m92.183 1521 41.483-41.483"/>
  <path id="path34" d="m276.55 1788.4h-276.55"/>
 </g>
</svg>
