<?xml version="1.0" encoding="UTF-8" standalone="no"?>
<svg
   width="566.92902"
   height="420.73337"
   viewBox="0 0 566.929 420.73337"
   version="1.1"
   id="svg38"
   sodipodi:docname="BOYBAR01.hpgl.svg"
   inkscape:version="1.1.2 (0a00cf5339, 2022-02-04)"
   xmlns:inkscape="http://www.inkscape.org/namespaces/inkscape"
   xmlns:sodipodi="http://sodipodi.sourceforge.net/DTD/sodipodi-0.dtd"
   xmlns="http://www.w3.org/2000/svg"
   xmlns:svg="http://www.w3.org/2000/svg">
  <defs
     id="defs42" />
  <sodipodi:namedview
     id="namedview40"
     pagecolor="#ffffff"
     bordercolor="#666666"
     borderopacity="1.0"
     inkscape:pageshadow="2"
     inkscape:pageopacity="0.0"
     inkscape:pagecheckerboard="0"
     showgrid="false"
     inkscape:zoom="1.7726475"
     inkscape:cx="283.19223"
     inkscape:cy="-1218.2343"
     inkscape:window-width="1495"
     inkscape:window-height="970"
     inkscape:window-x="0"
     inkscape:window-y="32"
     inkscape:window-maximized="0"
     inkscape:current-layer="svg38" />
  <g
     id="g2"
     transform="translate(0,-1421.2869)" />
  <g
     style="fill:none;stroke:#000000;stroke-width:1mm"
     id="g4"
     transform="translate(0,-1421.2869)" />
  <g
     style="fill:none;stroke:#000000;stroke-width:4mm"
     id="g36"
     transform="translate(0,-1421.2869)">
    <path
       d="m 373.343,1788.362 -0.175,4.017 -0.525,3.987 -0.87,3.925 -1.209,3.835 -1.539,3.715 -1.857,3.567 -2.16,3.391 -2.448,3.19 -2.717,2.965 -2.964,2.716"
       id="path6" />
    <path
       d="m 356.879,1823.67 -3.19,2.448 -3.391,2.161 -3.567,1.856 -3.715,1.539 -3.835,1.209 -3.926,0.871 -3.986,0.524 -4.017,0.176 -4.018,-0.176 -3.986,-0.524"
       id="path8" />
    <path
       d="m 319.248,1833.754 -3.926,-0.871 -3.835,-1.209 -3.715,-1.539 -3.566,-1.856 -3.392,-2.161 -3.19,-2.448 -2.964,-2.716 -2.717,-2.965 -2.448,-3.19 -2.16,-3.391"
       id="path10" />
    <path
       d="m 287.335,1811.408 -1.857,-3.567 -1.538,-3.715 -1.21,-3.835 -0.87,-3.925 -0.525,-3.987 -0.175,-4.017 0.175,-4.017 0.525,-3.987 0.87,-3.925 1.21,-3.835"
       id="path12" />
    <path
       d="m 283.94,1772.598 1.538,-3.715 1.857,-3.567 2.16,-3.391 2.448,-3.19 2.717,-2.965 2.964,-2.716 3.19,-2.448 3.392,-2.161 3.566,-1.856 3.715,-1.539"
       id="path14" />
    <path
       d="m 311.487,1745.05 3.835,-1.209 3.926,-0.871 3.986,-0.524 4.018,-0.176 4.017,0.176 3.986,0.524 3.926,0.871 3.835,1.209 3.715,1.539 3.567,1.856"
       id="path16" />
    <path
       d="m 350.298,1748.445 3.391,2.161 3.19,2.448 2.964,2.716 2.717,2.965 2.448,3.19 2.16,3.391 1.857,3.567 1.539,3.715 1.209,3.835 0.87,3.925"
       id="path18" />
    <path
       d="m 372.643,1780.358 0.525,3.987 0.175,4.017 -0.175,4.017"
       id="path20" />
    <path
       d="m 50.701,1788.362 v -142.885 l 9.218,-59.919 32.264,-64.528"
       id="path22" />
    <path
       d="m 133.666,1479.547 41.483,-23.046 50.701,-18.437 41.482,-9.218 h 41.483 l 46.092,9.218 55.31,32.265 41.482,27.655 23.046,27.655 23.046,46.092 13.828,41.482"
       id="path24" />
    <path
       d="m 511.619,1613.213 4.609,32.264 v 142.885"
       id="path26" />
    <path
       d="m 119.839,1488.765 32.264,50.701 32.264,46.092 18.437,50.701 13.827,69.138 9.219,41.482 v 41.483"
       id="path28" />
    <path
       d="M 368.734,1788.362 H 566.929"
       id="path30" />
    <path
       d="m 92.183,1521.03 41.483,-41.483"
       id="path32" />
    <path
       d="M 276.551,1788.362 H 0"
       id="path34" />
  </g>
</svg>
