<?xml version="1.0" encoding="UTF-8" standalone="no"?>
<svg
   width="566.92902"
   height="505.1568"
   viewBox="0 0 566.929 505.15679"
   version="1.1"
   id="svg34"
   sodipodi:docname="BOYCON01.hpgl.svg"
   inkscape:version="1.1.2 (0a00cf5339, 2022-02-04)"
   xmlns:inkscape="http://www.inkscape.org/namespaces/inkscape"
   xmlns:sodipodi="http://sodipodi.sourceforge.net/DTD/sodipodi-0.dtd"
   xmlns="http://www.w3.org/2000/svg"
   xmlns:svg="http://www.w3.org/2000/svg">
  <defs
     id="defs38" />
  <sodipodi:namedview
     id="namedview36"
     pagecolor="#ffffff"
     bordercolor="#666666"
     borderopacity="1.0"
     inkscape:pageshadow="2"
     inkscape:pageopacity="0.0"
     inkscape:pagecheckerboard="0"
     showgrid="false"
     inkscape:zoom="1.476186"
     inkscape:cx="283.16215"
     inkscape:cy="-540.921"
     inkscape:window-width="1495"
     inkscape:window-height="970"
     inkscape:window-x="0"
     inkscape:window-y="32"
     inkscape:window-maximized="0"
     inkscape:current-layer="svg34" />
  <g
     id="g2"
     transform="translate(0,-784.16244)" />
  <g
     style="fill:none;stroke:#000000;stroke-width:1mm"
     id="g4"
     transform="translate(0,-784.16244)" />
  <g
     style="fill:none;stroke:#000000;stroke-width:4mm"
     id="g32"
     transform="translate(0,-784.16244)">
    <path
       d="m 339.171,1226.539 -0.21,4.812 -0.628,4.776 -1.043,4.702 -1.448,4.594 -1.844,4.45 -2.224,4.273 -2.588,4.062 -2.932,3.822 -3.254,3.551 -3.552,3.254"
       id="path6" />
    <path
       d="m 319.448,1268.835 -3.821,2.933 -4.063,2.588 -4.272,2.224 -4.45,1.843 -4.594,1.449 -4.703,1.042 -4.775,0.629 -4.813,0.21 -4.812,-0.21 -4.775,-0.629"
       id="path8" />
    <path
       d="m 274.37,1280.914 -4.703,-1.042 -4.594,-1.449 -4.45,-1.843 -4.273,-2.224 -4.062,-2.588 -3.821,-2.933 -3.552,-3.254 -3.254,-3.551 -2.932,-3.822 -2.588,-4.062"
       id="path10" />
    <path
       d="m 236.141,1254.146 -2.224,-4.273 -1.844,-4.45 -1.448,-4.594 -1.043,-4.702 -0.629,-4.776 -0.21,-4.812 0.21,-4.812 0.629,-4.776 1.043,-4.702 1.448,-4.594"
       id="path12" />
    <path
       d="m 232.073,1207.655 1.844,-4.45 2.224,-4.273 2.588,-4.062 2.932,-3.822 3.254,-3.551 3.552,-3.254 3.821,-2.933 4.062,-2.588 4.273,-2.224 4.45,-1.843"
       id="path14" />
    <path
       d="m 265.073,1174.655 4.594,-1.449 4.703,-1.042 4.775,-0.629 4.812,-0.21 4.813,0.21 4.775,0.629 4.703,1.042 4.594,1.449 4.45,1.843 4.272,2.224"
       id="path16" />
    <path
       d="m 311.564,1178.722 4.063,2.588 3.821,2.933 3.552,3.254 3.254,3.551 2.932,3.822 2.588,4.062 2.224,4.273 1.844,4.45 1.448,4.594 1.043,4.702"
       id="path18" />
    <path
       d="m 338.333,1216.951 0.628,4.776 0.21,4.812 -0.21,4.812"
       id="path20" />
    <path
       d="m 62.116,1226.539 11.831,-89.723 18.733,-73.947 27.607,-55.214 40.425,-59.158 33.523,-42.396 49.298,-43.383 65.073,-37.466 49.299,-30.565 17.747,30.565 40.425,70.989"
       id="path22" />
    <path
       d="m 416.077,896.241 40.424,92.681 14.79,65.073"
       id="path24" />
    <path
       d="M 0,1226.539 H 230.715"
       id="path26" />
    <path
       d="m 471.291,1053.995 12.817,82.821 5.916,89.723"
       id="path28" />
    <path
       d="M 333.256,1226.539 H 566.929"
       id="path30" />
  </g>
</svg>
