<?xml version="1.0" encoding="UTF-8"?>
<svg id="svg34" width="566.93" height="505.16" version="1.1" viewBox="0 0 566.93 505.16" xmlns="http://www.w3.org/2000/svg">
 <g id="g32" transform="translate(0 -784.16)" fill="none" stroke="#000" stroke-width="4mm">
  <path id="path6" d="m339.17 1226.5-0.21 4.812-0.628 4.776-1.043 4.702-1.448 4.594-1.844 4.45-2.224 4.273-2.588 4.062-2.932 3.822-3.254 3.551-3.552 3.254"/>
  <path id="path8" d="m319.45 1268.8-3.821 2.933-4.063 2.588-4.272 2.224-4.45 1.843-4.594 1.449-4.703 1.042-4.775 0.629-4.813 0.21-4.812-0.21-4.775-0.629"/>
  <path id="path10" d="m274.37 1280.9-4.703-1.042-4.594-1.449-4.45-1.843-4.273-2.224-4.062-2.588-3.821-2.933-3.552-3.254-3.254-3.551-2.932-3.822-2.588-4.062"/>
  <path id="path12" d="m236.14 1254.1-2.224-4.273-1.844-4.45-1.448-4.594-1.043-4.702-0.629-4.776-0.21-4.812 0.21-4.812 0.629-4.776 1.043-4.702 1.448-4.594"/>
  <path id="path14" d="m232.07 1207.7 1.844-4.45 2.224-4.273 2.588-4.062 2.932-3.822 3.254-3.551 3.552-3.254 3.821-2.933 4.062-2.588 4.273-2.224 4.45-1.843"/>
  <path id="path16" d="m265.07 1174.7 4.594-1.449 4.703-1.042 4.775-0.629 4.812-0.21 4.813 0.21 4.775 0.629 4.703 1.042 4.594 1.449 4.45 1.843 4.272 2.224"/>
  <path id="path18" d="m311.56 1178.7 4.063 2.588 3.821 2.933 3.552 3.254 3.254 3.551 2.932 3.822 2.588 4.062 2.224 4.273 1.844 4.45 1.448 4.594 1.043 4.702"/>
  <path id="path20" d="m338.33 1217 0.628 4.776 0.21 4.812-0.21 4.812"/>
  <path id="path22" d="m62.116 1226.5 11.831-89.723 18.733-73.947 27.607-55.214 40.425-59.158 33.523-42.396 49.298-43.383 65.073-37.466 49.299-30.565 17.747 30.565 40.425 70.989"/>
  <path id="path24" d="m416.08 896.24 40.424 92.681 14.79 65.073"/>
  <path id="path26" d="m0 1226.5h230.72"/>
  <path id="path28" d="m471.29 1054 12.817 82.821 5.916 89.723"/>
  <path id="path30" d="m333.26 1226.5h233.67"/>
 </g>
</svg>
