<?xml version="1.0" encoding="UTF-8"?>
<svg id="svg30" width="576.9" height="377.74" version="1.1" viewBox="0 0 576.9 377.74" xmlns="http://www.w3.org/2000/svg">
 <g id="g28" transform="translate(9.9721 -737)" fill="none" stroke="#000" stroke-width="4mm">
  <path id="path6" d="m309.39 1052.9-0.207 4.733-0.618 4.697-1.026 4.624-1.424 4.518-1.813 4.377-2.187 4.202-2.545 3.995-2.884 3.758-3.2 3.492-3.493 3.201"/>
  <path id="path8" d="m289.99 1094.5-3.758 2.883-3.995 2.546-4.202 2.187-4.377 1.813-4.517 1.424-4.625 1.026-4.697 0.618-4.732 0.207-4.733-0.207-4.696-0.618"/>
  <path id="path10" d="m245.66 1106.3-4.625-1.026-4.518-1.424-4.377-1.813-4.201-2.187-3.996-2.546-3.758-2.883-3.492-3.201-3.201-3.492-2.883-3.758-2.546-3.995"/>
  <path id="path12" d="m208.06 1080-2.187-4.202-1.813-4.377-1.424-4.518-1.025-4.624-0.619-4.697-0.206-4.733 0.206-4.732 0.619-4.697 1.025-4.624 1.424-4.518"/>
  <path id="path14" d="m204.06 1034.3 1.813-4.377 2.187-4.202 2.546-3.995 2.883-3.758 3.201-3.492 3.492-3.201 3.758-2.883 3.996-2.546 4.201-2.187 4.377-1.813"/>
  <path id="path16" d="m236.51 1001.8 4.518-1.424 4.625-1.026 4.696-0.618 4.733-0.207 4.732 0.207 4.697 0.618 4.625 1.026 4.517 1.424 4.377 1.813 4.202 2.187"/>
  <path id="path18" d="m282.24 1005.8 3.995 2.546 3.758 2.883 3.493 3.201 3.2 3.492 2.884 3.758 2.545 3.995 2.187 4.202 1.813 4.377 1.424 4.518 1.026 4.624"/>
  <path id="path20" d="m308.56 1043.4 0.618 4.697 0.207 4.732-0.207 4.733"/>
  <path id="path22" d="m-9.9721 1052.9h209.84"/>
  <path id="path24" d="m303.86 1052.9h209.84"/>
  <path id="path26" d="m33.284 1052.9 86.512-308.31h437.16l-86.512 308.31"/>
 </g>
</svg>
