<?xml version="1.0" encoding="UTF-8" standalone="no"?>
<svg
   width="576.90106"
   height="377.73935"
   viewBox="0 0 576.90105 377.73934"
   version="1.1"
   id="svg30"
   sodipodi:docname="BOYCAN01.hpgl.svg"
   inkscape:version="1.1.2 (0a00cf5339, 2022-02-04)"
   xmlns:inkscape="http://www.inkscape.org/namespaces/inkscape"
   xmlns:sodipodi="http://sodipodi.sourceforge.net/DTD/sodipodi-0.dtd"
   xmlns="http://www.w3.org/2000/svg"
   xmlns:svg="http://www.w3.org/2000/svg">
  <defs
     id="defs34" />
  <sodipodi:namedview
     id="namedview32"
     pagecolor="#ffffff"
     bordercolor="#666666"
     borderopacity="1.0"
     inkscape:pageshadow="2"
     inkscape:pageopacity="0.0"
     inkscape:pagecheckerboard="0"
     showgrid="false"
     inkscape:zoom="1.9828247"
     inkscape:cx="293.52065"
     inkscape:cy="-555.52061"
     inkscape:window-width="1495"
     inkscape:window-height="970"
     inkscape:window-x="0"
     inkscape:window-y="32"
     inkscape:window-maximized="0"
     inkscape:current-layer="svg30" />
  <g
     id="g2"
     transform="translate(9.9720551,-736.99594)" />
  <g
     style="fill:none;stroke:#000000;stroke-width:1mm"
     id="g4"
     transform="translate(9.9720551,-736.99594)" />
  <g
     style="fill:none;stroke:#000000;stroke-width:4mm"
     id="g28"
     transform="translate(9.9720551,-736.99594)">
    <path
       d="m 309.38594,1052.868 -0.207,4.733 -0.618,4.697 -1.026,4.624 -1.424,4.518 -1.813,4.377 -2.187,4.202 -2.545,3.995 -2.884,3.758 -3.2,3.492 -3.493,3.201"
       id="path6" />
    <path
       d="m 289.98894,1094.465 -3.758,2.883 -3.995,2.546 -4.202,2.187 -4.377,1.813 -4.517,1.424 -4.625,1.026 -4.697,0.618 -4.732,0.207 -4.733,-0.207 -4.696,-0.618"
       id="path8" />
    <path
       d="m 245.65694,1106.344 -4.625,-1.026 -4.518,-1.424 -4.377,-1.813 -4.201,-2.187 -3.996,-2.546 -3.758,-2.883 -3.492,-3.201 -3.201,-3.492 -2.883,-3.758 -2.546,-3.995"
       id="path10" />
    <path
       d="m 208.05994,1080.019 -2.187,-4.202 -1.813,-4.377 -1.424,-4.518 -1.025,-4.624 -0.619,-4.697 -0.206,-4.733 0.206,-4.732 0.619,-4.697 1.025,-4.624 1.424,-4.518"
       id="path12" />
    <path
       d="m 204.05994,1034.297 1.813,-4.377 2.187,-4.202 2.546,-3.995 2.883,-3.758 3.201,-3.492 3.492,-3.201 3.758,-2.883 3.996,-2.546 4.201,-2.187 4.377,-1.813"
       id="path14" />
    <path
       d="m 236.51394,1001.843 4.518,-1.424 4.625,-1.026 4.696,-0.618 4.733,-0.207 4.732,0.207 4.697,0.618 4.625,1.026 4.517,1.424 4.377,1.813 4.202,2.187"
       id="path16" />
    <path
       d="m 282.23594,1005.843 3.995,2.546 3.758,2.883 3.493,3.201 3.2,3.492 2.884,3.758 2.545,3.995 2.187,4.202 1.813,4.377 1.424,4.518 1.026,4.624"
       id="path18" />
    <path
       d="m 308.56094,1043.439 0.618,4.697 0.207,4.732 -0.207,4.733"
       id="path20" />
    <path
       d="M -9.9720551,1052.868 H 199.86494"
       id="path22" />
    <path
       d="m 303.86394,1052.868 h 209.837"
       id="path24" />
    <path
       d="M 33.283945,1052.868 119.79594,744.555 h 437.161 l -86.512,308.313"
       id="path26" />
  </g>
</svg>
