<?xml version="1.0" encoding="UTF-8"?>
<svg id="svg52" width="574.49" height="366.51" version="1.1" viewBox="0 0 574.49 366.51" xmlns="http://www.w3.org/2000/svg">
 <g id="g50" transform="translate(7.5591 -1279.6)" fill="none" stroke="#000" stroke-width="4mm">
  <path id="path6" d="m396.33 1358.4 9.634-20.75 9.634-18.528 12.598-12.598 12.599-12.598 19.268-6.67 17.045 1.482 22.232 6.67 20.751 4.446 17.044 25.197 13.34 14.081"/>
  <path id="path8" d="m550.48 1339.1 8.893 16.304v18.527l-8.893 17.786-9.634 15.562-14.822 17.786-17.045 18.528-15.562 19.268-9.635 14.08-8.151 12.599-1.483 16.304"/>
  <path id="path10" d="m474.14 1505.9v29.643l1.483 16.304v1.482"/>
  <path id="path12" d="m460.06 1615.6h39.277"/>
  <path id="path14" d="m314.07 1428.1-0.488 11.174-1.46 11.089-2.42 10.919-3.364 10.667-4.28 10.334-5.164 9.921-6.01 9.433-6.809 8.873-7.556 8.246-8.246 7.556"/>
  <path id="path16" d="m268.27 1526.3-8.873 6.809-9.434 6.01-9.921 5.164-10.333 4.28-10.667 3.364-10.919 2.421-11.089 1.459-11.174 0.488-11.174-0.488-11.089-1.459"/>
  <path id="path18" d="m163.6 1554.3-10.92-2.421-10.667-3.364-10.333-4.28-9.921-5.164-9.433-6.01-8.874-6.808-8.246-7.557-7.556-8.246-6.809-8.873-6.009-9.433"/>
  <path id="path20" d="m74.833 1492.2-5.165-9.921-4.28-10.334-3.363-10.667-2.421-10.919-1.46-11.089-0.488-11.174 0.488-11.174 1.46-11.089 2.421-10.92 3.363-10.667"/>
  <path id="path22" d="m65.388 1384.2 4.28-10.333 5.165-9.921 6.009-9.433 6.809-8.873 7.556-8.247 8.246-7.556 8.874-6.809 9.433-6.009 9.921-5.165 10.333-4.28"/>
  <path id="path24" d="m142.01 1307.6 10.667-3.363 10.92-2.421 11.089-1.46 11.174-0.488 11.174 0.488 11.089 1.46 10.919 2.421 10.667 3.363 10.333 4.28 9.921 5.165"/>
  <path id="path26" d="m249.97 1317 9.434 6.009 8.873 6.809 8.246 7.556 7.556 8.247 6.809 8.873 6.01 9.433 5.164 9.921 4.28 10.333 3.364 10.667 2.42 10.92"/>
  <path id="path28" d="m312.12 1405.8 1.46 11.089 0.488 11.174-0.488 11.174"/>
  <path id="path30" d="m228.1 1597.8-0.155 3.553-0.464 3.525-0.769 3.471-1.07 3.392-1.36 3.285-1.642 3.154-1.911 2.999-2.164 2.821-2.403 2.621-2.621 2.403"/>
  <path id="path32" d="m213.55 1629-2.821 2.164-2.999 1.911-3.154 1.642-3.286 1.361-3.391 1.069-3.471 0.769-3.526 0.465-3.552 0.155-3.553-0.155-3.525-0.465"/>
  <path id="path34" d="m180.27 1637.9-3.471-0.769-3.392-1.069-3.285-1.361-3.154-1.642-2.999-1.911-2.821-2.164-2.622-2.403-2.402-2.621-2.164-2.821-1.911-2.999"/>
  <path id="path36" d="m152.05 1618.2-1.642-3.154-1.361-3.285-1.069-3.392-0.77-3.471-0.464-3.525-0.155-3.553 0.155-3.552 0.464-3.526 0.77-3.471 1.069-3.392"/>
  <path id="path38" d="m149.04 1583.8 1.361-3.285 1.642-3.154 1.911-2.999 2.164-2.821 2.402-2.621 2.622-2.403 2.821-2.164 2.999-1.911 3.154-1.642 3.285-1.36"/>
  <path id="path40" d="m173.4 1559.5 3.391-1.07 3.472-0.769 3.525-0.464 3.553-0.156 3.552 0.156 3.526 0.464 3.471 0.769 3.391 1.07 3.286 1.36 3.154 1.642"/>
  <path id="path42" d="m207.73 1562.5 2.999 1.911 2.821 2.164 2.621 2.403 2.403 2.621 2.164 2.821 1.911 2.999 1.642 3.154 1.36 3.285 1.07 3.392 0.769 3.471"/>
  <path id="path44" d="m227.49 1590.7 0.464 3.526 0.155 3.552-0.155 3.553"/>
  <path id="path46" d="m228.1 1597.8h153.4"/>
  <path id="path48" d="m-7.5591 1597.8h152.66"/>
 </g>
</svg>
