<?xml version="1.0" encoding="UTF-8" standalone="no"?>
<svg
   width="574.48804"
   height="366.51044"
   viewBox="0 0 574.48802 366.51045"
   version="1.1"
   id="svg52"
   sodipodi:docname="BOYGEN03.hpgl.svg"
   inkscape:version="1.1.2 (0a00cf5339, 2022-02-04)"
   xmlns:inkscape="http://www.inkscape.org/namespaces/inkscape"
   xmlns:sodipodi="http://sodipodi.sourceforge.net/DTD/sodipodi-0.dtd"
   xmlns="http://www.w3.org/2000/svg"
   xmlns:svg="http://www.w3.org/2000/svg">
  <defs
     id="defs56" />
  <sodipodi:namedview
     id="namedview54"
     pagecolor="#ffffff"
     bordercolor="#666666"
     borderopacity="1.0"
     inkscape:pageshadow="2"
     inkscape:pageopacity="0.0"
     inkscape:pagecheckerboard="0"
     showgrid="false"
     inkscape:zoom="2.0468352"
     inkscape:cx="290.69267"
     inkscape:cy="-1103.8993"
     inkscape:window-width="1495"
     inkscape:window-height="970"
     inkscape:window-x="0"
     inkscape:window-y="32"
     inkscape:window-maximized="0"
     inkscape:current-layer="svg52" />
  <g
     id="g2"
     transform="translate(7.5590553,-1279.5928)" />
  <g
     style="fill:none;stroke:#000000;stroke-width:1mm"
     id="g4"
     transform="translate(7.5590553,-1279.5928)" />
  <g
     style="fill:none;stroke:#000000;stroke-width:4mm"
     id="g50"
     transform="translate(7.5590553,-1279.5928)">
    <path
       d="m 396.33194,1358.407 9.634,-20.75 9.634,-18.528 12.598,-12.598 12.599,-12.598 19.268,-6.67 17.045,1.482 22.232,6.67 20.751,4.446 17.044,25.197 13.34,14.081"
       id="path6" />
    <path
       d="m 550.47694,1339.139 8.893,16.304 v 18.527 l -8.893,17.786 -9.634,15.562 -14.822,17.786 -17.045,18.528 -15.562,19.268 -9.635,14.08 -8.151,12.599 -1.483,16.304"
       id="path8" />
    <path
       d="m 474.14494,1505.883 v 17.045 12.598 l 1.483,16.304 v 1.482"
       id="path10" />
    <path
       d="m 460.06494,1615.563 h 39.277"
       id="path12" />
    <path
       d="m 314.07094,1428.069 -0.488,11.174 -1.46,11.089 -2.42,10.919 -3.364,10.667 -4.28,10.334 -5.164,9.921 -6.01,9.433 -6.809,8.873 -7.556,8.246 -8.246,7.556"
       id="path14" />
    <path
       d="m 268.27394,1526.281 -8.873,6.809 -9.434,6.01 -9.921,5.164 -10.333,4.28 -10.667,3.364 -10.919,2.421 -11.089,1.459 -11.174,0.488 -11.174,-0.488 -11.089,-1.459"
       id="path16" />
    <path
       d="m 163.60094,1554.329 -10.92,-2.421 -10.667,-3.364 -10.333,-4.28 -9.921,-5.164 -9.433,-6.01 -8.874,-6.808 -8.245995,-7.557 -7.556,-8.246 -6.809,-8.873 -6.009,-9.433"
       id="path18" />
    <path
       d="m 74.832945,1492.173 -5.165,-9.921 -4.28,-10.334 -3.363,-10.667 -2.421,-10.919 -1.46,-11.089 -0.488,-11.174 0.488,-11.174 1.46,-11.089 2.421,-10.92 3.363,-10.667"
       id="path20" />
    <path
       d="m 65.387945,1384.219 4.28,-10.333 5.165,-9.921 6.009,-9.433 6.809,-8.873 7.556,-8.247 8.245995,-7.556 8.874,-6.809 9.433,-6.009 9.921,-5.165 10.333,-4.28"
       id="path22" />
    <path
       d="m 142.01394,1307.593 10.667,-3.363 10.92,-2.421 11.089,-1.46 11.174,-0.488 11.174,0.488 11.089,1.46 10.919,2.421 10.667,3.363 10.333,4.28 9.921,5.165"
       id="path24" />
    <path
       d="m 249.96694,1317.038 9.434,6.009 8.873,6.809 8.246,7.556 7.556,8.247 6.809,8.873 6.01,9.433 5.164,9.921 4.28,10.333 3.364,10.667 2.42,10.92"
       id="path26" />
    <path
       d="m 312.12294,1405.806 1.46,11.089 0.488,11.174 -0.488,11.174"
       id="path28" />
    <path
       d="m 228.10494,1597.777 -0.155,3.553 -0.464,3.525 -0.769,3.471 -1.07,3.392 -1.36,3.285 -1.642,3.154 -1.911,2.999 -2.164,2.821 -2.403,2.621 -2.621,2.403"
       id="path30" />
    <path
       d="m 213.54594,1629.001 -2.821,2.164 -2.999,1.911 -3.154,1.642 -3.286,1.361 -3.391,1.069 -3.471,0.769 -3.526,0.465 -3.552,0.155 -3.553,-0.155 -3.525,-0.465"
       id="path32" />
    <path
       d="m 180.26794,1637.917 -3.471,-0.769 -3.392,-1.069 -3.285,-1.361 -3.154,-1.642 -2.999,-1.911 -2.821,-2.164 -2.622,-2.403 -2.402,-2.621 -2.164,-2.821 -1.911,-2.999"
       id="path34" />
    <path
       d="m 152.04694,1618.157 -1.642,-3.154 -1.361,-3.285 -1.069,-3.392 -0.77,-3.471 -0.464,-3.525 -0.155,-3.553 0.155,-3.552 0.464,-3.526 0.77,-3.471 1.069,-3.392"
       id="path36" />
    <path
       d="m 149.04394,1583.836 1.361,-3.285 1.642,-3.154 1.911,-2.999 2.164,-2.821 2.402,-2.621 2.622,-2.403 2.821,-2.164 2.999,-1.911 3.154,-1.642 3.285,-1.36"
       id="path38" />
    <path
       d="m 173.40494,1559.476 3.391,-1.07 3.472,-0.769 3.525,-0.464 3.553,-0.156 3.552,0.156 3.526,0.464 3.471,0.769 3.391,1.07 3.286,1.36 3.154,1.642"
       id="path40" />
    <path
       d="m 207.72594,1562.478 2.999,1.911 2.821,2.164 2.621,2.403 2.403,2.621 2.164,2.821 1.911,2.999 1.642,3.154 1.36,3.285 1.07,3.392 0.769,3.471"
       id="path42" />
    <path
       d="m 227.48594,1590.699 0.464,3.526 0.155,3.552 -0.155,3.553"
       id="path44" />
    <path
       d="m 228.10494,1597.777 h 153.405"
       id="path46" />
    <path
       d="M -7.5590553,1597.777 H 145.10394"
       id="path48" />
  </g>
</svg>
