<?xml version="1.0" encoding="UTF-8"?>
<svg id="svg46" width="566.93" height="345.23" version="1.1" viewBox="0 0 566.93 345.23" xmlns="http://www.w3.org/2000/svg">
 <g id="g44" transform="translate(0 -531.58)" fill="none" stroke="#000" stroke-width="4mm">
  <path id="path6" d="m326.79 826.25-0.163 3.748-0.49 3.719-0.812 3.662-1.128 3.578-1.435 3.465-1.732 3.328-2.016 3.163-2.283 2.976-2.535 2.766-2.765 2.534"/>
  <path id="path8" d="m311.44 859.19-2.976 2.284-3.164 2.015-3.328 1.733-3.465 1.435-3.578 1.128-3.662 0.812-3.719 0.49-3.748 0.163-3.747-0.163-3.72-0.49"/>
  <path id="path10" d="m276.33 868.59-3.662-0.812-3.577-1.128-3.466-1.435-3.327-1.733-3.164-2.015-2.976-2.284-2.766-2.534-2.534-2.766-2.284-2.976-2.015-3.163"/>
  <path id="path12" d="m246.56 847.75-1.732-3.328-1.436-3.465-1.128-3.578-0.812-3.662-0.489-3.719-0.164-3.748 0.163-3.748 0.49-3.719 0.812-3.662 1.128-3.578"/>
  <path id="path14" d="m243.39 811.54 1.436-3.465 1.732-3.328 2.015-3.163 2.284-2.976 2.534-2.766 2.766-2.534 2.976-2.284 3.164-2.015 3.327-1.733 3.466-1.435"/>
  <path id="path16" d="m269.09 785.84 3.577-1.128 3.662-0.812 3.72-0.49 3.747-0.163 3.748 0.163 3.719 0.49 3.662 0.812 3.578 1.128 3.465 1.435 3.328 1.733"/>
  <path id="path18" d="m305.3 789.01 3.164 2.015 2.976 2.284 2.765 2.534 2.535 2.766 2.283 2.976 2.016 3.163 1.732 3.328 1.435 3.465 1.128 3.578 0.812 3.662"/>
  <path id="path20" d="m326.14 818.78 0.49 3.719 0.163 3.748-0.163 3.748"/>
  <path id="path22" d="m330.76 586.11-0.179 4.094-0.535 4.062-0.887 4.001-1.232 3.908-1.568 3.785-1.892 3.635-2.202 3.455-2.494 3.251-2.768 3.021-3.021 2.768"/>
  <path id="path24" d="m313.99 622.09-3.251 2.495-3.456 2.201-3.634 1.892-3.786 1.568-3.907 1.233-4.001 0.886-4.062 0.535-4.094 0.179-4.093-0.179-4.063-0.535"/>
  <path id="path26" d="m275.64 632.37-4-0.886-3.908-1.233-3.786-1.568-3.634-1.892-3.456-2.201-3.251-2.495-3.021-2.768-2.768-3.021-2.494-3.251-2.202-3.455"/>
  <path id="path28" d="m243.12 609.6-1.892-3.635-1.568-3.785-1.232-3.908-0.887-4.001-0.535-4.062-0.178-4.094 0.178-4.093 0.535-4.062 0.887-4.001 1.232-3.908"/>
  <path id="path30" d="m239.66 570.05 1.568-3.785 1.892-3.635 2.202-3.456 2.494-3.25 2.768-3.021 3.021-2.768 3.251-2.495 3.456-2.201 3.634-1.892 3.786-1.568"/>
  <path id="path32" d="m267.73 541.98 3.908-1.233 4-0.886 4.063-0.535 4.093-0.179 4.094 0.179 4.062 0.535 4.001 0.886 3.907 1.233 3.786 1.568 3.634 1.892"/>
  <path id="path34" d="m307.28 545.44 3.456 2.201 3.251 2.495 3.021 2.768 2.768 3.021 2.494 3.25 2.202 3.456 1.892 3.635 1.568 3.785 1.232 3.908 0.887 4"/>
  <path id="path36" d="m330.05 577.96 0.535 4.063 0.179 4.093-0.179 4.094"/>
  <path id="path38" d="m0 826.25h238.15"/>
  <path id="path40" d="m322.82 826.25h244.1"/>
  <path id="path42" d="m31.092 826.25 64.168-188.54h376.41l64.168 188.54"/>
 </g>
</svg>
