<?xml version="1.0" encoding="UTF-8" standalone="no"?>
<svg
   width="566.92902"
   height="345.23447"
   viewBox="0 0 566.929 345.23448"
   version="1.1"
   id="svg46"
   sodipodi:docname="BOYINB01.hpgl.svg"
   inkscape:version="1.1.2 (0a00cf5339, 2022-02-04)"
   xmlns:inkscape="http://www.inkscape.org/namespaces/inkscape"
   xmlns:sodipodi="http://sodipodi.sourceforge.net/DTD/sodipodi-0.dtd"
   xmlns="http://www.w3.org/2000/svg"
   xmlns:svg="http://www.w3.org/2000/svg">
  <defs
     id="defs50" />
  <sodipodi:namedview
     id="namedview48"
     pagecolor="#ffffff"
     bordercolor="#666666"
     borderopacity="1.0"
     inkscape:pageshadow="2"
     inkscape:pageopacity="0.0"
     inkscape:pagecheckerboard="0"
     showgrid="false"
     inkscape:zoom="2.1781146"
     inkscape:cx="283.27251"
     inkscape:cy="-366.60146"
     inkscape:window-width="1495"
     inkscape:window-height="970"
     inkscape:window-x="0"
     inkscape:window-y="32"
     inkscape:window-maximized="0"
     inkscape:current-layer="svg46" />
  <g
     id="g2"
     transform="translate(0,-531.57872)" />
  <g
     style="fill:none;stroke:#000000;stroke-width:1mm"
     id="g4"
     transform="translate(0,-531.57872)" />
  <g
     style="fill:none;stroke:#000000;stroke-width:4mm"
     id="g44"
     transform="translate(0,-531.57872)">
    <path
       d="m 326.794,826.248 -0.163,3.748 -0.49,3.719 -0.812,3.662 -1.128,3.578 -1.435,3.465 -1.732,3.328 -2.016,3.163 -2.283,2.976 -2.535,2.766 -2.765,2.534"
       id="path6" />
    <path
       d="m 311.435,859.187 -2.976,2.284 -3.164,2.015 -3.328,1.733 -3.465,1.435 -3.578,1.128 -3.662,0.812 -3.719,0.49 -3.748,0.163 -3.747,-0.163 -3.72,-0.49"
       id="path8" />
    <path
       d="m 276.328,868.594 -3.662,-0.812 -3.577,-1.128 -3.466,-1.435 -3.327,-1.733 -3.164,-2.015 -2.976,-2.284 -2.766,-2.534 -2.534,-2.766 -2.284,-2.976 -2.015,-3.163"
       id="path10" />
    <path
       d="m 246.557,847.748 -1.732,-3.328 -1.436,-3.465 -1.128,-3.578 -0.812,-3.662 -0.489,-3.719 -0.164,-3.748 0.163,-3.748 0.49,-3.719 0.812,-3.662 1.128,-3.578"
       id="path12" />
    <path
       d="m 243.389,811.541 1.436,-3.465 1.732,-3.328 2.015,-3.163 2.284,-2.976 2.534,-2.766 2.766,-2.534 2.976,-2.284 3.164,-2.015 3.327,-1.733 3.466,-1.435"
       id="path14" />
    <path
       d="m 269.089,785.842 3.577,-1.128 3.662,-0.812 3.72,-0.49 3.747,-0.163 3.748,0.163 3.719,0.49 3.662,0.812 3.578,1.128 3.465,1.435 3.328,1.733"
       id="path16" />
    <path
       d="m 305.295,789.01 3.164,2.015 2.976,2.284 2.765,2.534 2.535,2.766 2.283,2.976 2.016,3.163 1.732,3.328 1.435,3.465 1.128,3.578 0.812,3.662"
       id="path18" />
    <path
       d="m 326.141,818.781 0.49,3.719 0.163,3.748 -0.163,3.748"
       id="path20" />
    <path
       d="m 330.764,586.113 -0.179,4.094 -0.535,4.062 -0.887,4.001 -1.232,3.908 -1.568,3.785 -1.892,3.635 -2.202,3.455 -2.494,3.251 -2.768,3.021 -3.021,2.768"
       id="path22" />
    <path
       d="m 313.986,622.093 -3.251,2.495 -3.456,2.201 -3.634,1.892 -3.786,1.568 -3.907,1.233 -4.001,0.886 -4.062,0.535 -4.094,0.179 -4.093,-0.179 -4.063,-0.535"
       id="path24" />
    <path
       d="m 275.639,632.368 -4,-0.886 -3.908,-1.233 -3.786,-1.568 -3.634,-1.892 -3.456,-2.201 -3.251,-2.495 -3.021,-2.768 -2.768,-3.021 -2.494,-3.251 -2.202,-3.455"
       id="path26" />
    <path
       d="m 243.119,609.598 -1.892,-3.635 -1.568,-3.785 -1.232,-3.908 -0.887,-4.001 -0.535,-4.062 -0.178,-4.094 0.178,-4.093 0.535,-4.062 0.887,-4.001 1.232,-3.908"
       id="path28" />
    <path
       d="m 239.659,570.049 1.568,-3.785 1.892,-3.635 2.202,-3.456 2.494,-3.25 2.768,-3.021 3.021,-2.768 3.251,-2.495 3.456,-2.201 3.634,-1.892 3.786,-1.568"
       id="path30" />
    <path
       d="m 267.731,541.978 3.908,-1.233 4,-0.886 4.063,-0.535 4.093,-0.179 4.094,0.179 4.062,0.535 4.001,0.886 3.907,1.233 3.786,1.568 3.634,1.892"
       id="path32" />
    <path
       d="m 307.279,545.438 3.456,2.201 3.251,2.495 3.021,2.768 2.768,3.021 2.494,3.25 2.202,3.456 1.892,3.635 1.568,3.785 1.232,3.908 0.887,4"
       id="path34" />
    <path
       d="m 330.05,577.957 0.535,4.063 0.179,4.093 -0.179,4.094"
       id="path36" />
    <path
       d="M 0,826.248 H 238.15"
       id="path38" />
    <path
       d="M 322.825,826.248 H 566.929"
       id="path40" />
    <path
       d="M 31.092,826.248 95.26,637.713 h 376.409 l 64.168,188.535"
       id="path42" />
  </g>
</svg>
