<?xml version="1.0" encoding="UTF-8" standalone="no"?>
<svg
   width="576.83881"
   height="526.84149"
   viewBox="0 0 576.83879 526.84148"
   version="1.1"
   id="svg46"
   sodipodi:docname="BOYMOR03.hpgl.svg"
   inkscape:version="1.1.2 (0a00cf5339, 2022-02-04)"
   xmlns:inkscape="http://www.inkscape.org/namespaces/inkscape"
   xmlns:sodipodi="http://sodipodi.sourceforge.net/DTD/sodipodi-0.dtd"
   xmlns="http://www.w3.org/2000/svg"
   xmlns:svg="http://www.w3.org/2000/svg">
  <defs
     id="defs50" />
  <sodipodi:namedview
     id="namedview48"
     pagecolor="#ffffff"
     bordercolor="#666666"
     borderopacity="1.0"
     inkscape:pageshadow="2"
     inkscape:pageopacity="0.0"
     inkscape:pagecheckerboard="0"
     showgrid="false"
     inkscape:zoom="1.4050955"
     inkscape:cx="293.21851"
     inkscape:cy="-486.44381"
     inkscape:window-width="1495"
     inkscape:window-height="970"
     inkscape:window-x="0"
     inkscape:window-y="32"
     inkscape:window-maximized="0"
     inkscape:current-layer="svg46" />
  <g
     id="g2"
     transform="translate(9.9097841,-742.51078)" />
  <g
     style="fill:none;stroke:#000000;stroke-width:1mm"
     id="g4"
     transform="translate(9.9097841,-742.51078)" />
  <g
     style="fill:none;stroke:#000000;stroke-width:4mm"
     id="g44"
     transform="translate(9.9097841,-742.51078)">
    <path
       d="m 312.20922,1201.963 -0.228,5.214 -0.681,5.174 -1.13,5.096 -1.569,4.977 -1.997,4.821 -2.41,4.63 -2.804,4.401 -3.177,4.14 -3.526,3.848 -3.848,3.526"
       id="path6" />
    <path
       d="m 290.83922,1247.79 -4.14,3.177 -4.401,2.804 -4.629,2.41 -4.822,1.997 -4.977,1.569 -5.095,1.13 -5.175,0.681 -5.213,0.228 -5.214,-0.228 -5.174,-0.681"
       id="path8" />
    <path
       d="m 241.99922,1260.877 -5.095,-1.13 -4.978,-1.569 -4.821,-1.997 -4.629,-2.41 -4.402,-2.804 -4.14,-3.177 -3.848,-3.526 -3.526,-3.848 -3.177,-4.14 -2.804,-4.401"
       id="path10" />
    <path
       d="m 200.57922,1231.875 -2.41,-4.63 -1.997,-4.821 -1.569,-4.977 -1.13,-5.096 -0.681,-5.174 -0.227,-5.214 0.227,-5.213 0.681,-5.174 1.13,-5.096 1.569,-4.977"
       id="path12" />
    <path
       d="m 196.17222,1181.503 1.997,-4.821 2.41,-4.63 2.804,-4.401 3.177,-4.14 3.526,-3.848 3.848,-3.526 4.14,-3.177 4.402,-2.804 4.629,-2.41 4.821,-1.997"
       id="path14" />
    <path
       d="m 231.92622,1145.749 4.978,-1.569 5.095,-1.13 5.174,-0.681 5.214,-0.228 5.213,0.228 5.175,0.681 5.095,1.13 4.977,1.569 4.821,1.997 4.63,2.41"
       id="path16" />
    <path
       d="m 282.29822,1150.156 4.401,2.804 4.14,3.177 3.848,3.526 3.526,3.848 3.177,4.14 2.804,4.401 2.41,4.63 1.997,4.821 1.569,4.977 1.13,5.095"
       id="path18" />
    <path
       d="m 311.30022,1191.575 0.681,5.175 0.228,5.213 -0.228,5.214"
       id="path20" />
    <path
       d="m 407.00422,819.102 -0.263,6.016 -0.786,5.97 -1.303,5.879 -1.811,5.743 -2.305,5.564 -2.78,5.341 -3.235,5.079 -3.666,4.777 -4.068,4.44 -4.44,4.068"
       id="path22" />
    <path
       d="m 382.34722,871.979 -4.777,3.666 -5.079,3.235 -5.341,2.781 -5.564,2.304 -5.743,1.811 -5.879,1.303 -5.97,0.786 -6.016,0.263 -6.016,-0.263 -5.97,-0.786"
       id="path24" />
    <path
       d="m 325.99222,887.079 -5.879,-1.303 -5.743,-1.811 -5.563,-2.304 -5.342,-2.781 -5.078,-3.235 -4.778,-3.666 -4.439,-4.068 -4.068,-4.44 -3.666,-4.777 -3.236,-5.079"
       id="path26" />
    <path
       d="m 278.20022,853.615 -2.78,-5.341 -2.305,-5.564 -1.81,-5.743 -1.304,-5.879 -0.786,-5.97 -0.262,-6.016 0.262,-6.016 0.786,-5.97 1.304,-5.879 1.81,-5.743"
       id="path28" />
    <path
       d="m 273.11522,795.494 2.305,-5.563 2.78,-5.342 3.236,-5.078 3.666,-4.777 4.068,-4.44 4.439,-4.068 4.778,-3.666 5.078,-3.236 5.342,-2.78 5.563,-2.304"
       id="path30" />
    <path
       d="m 314.37022,754.24 5.743,-1.811 5.879,-1.304 5.97,-0.786 6.016,-0.262 6.016,0.262 5.97,0.786 5.879,1.304 5.743,1.81 5.564,2.305 5.341,2.78"
       id="path32" />
    <path
       d="m 372.49122,759.324 5.079,3.236 4.777,3.666 4.44,4.068 4.068,4.44 3.666,4.777 3.235,5.078 2.78,5.342 2.305,5.563 1.811,5.743 1.303,5.879"
       id="path34" />
    <path
       d="m 405.95522,807.116 0.786,5.97 0.263,6.016 -0.263,6.016"
       id="path36" />
    <path
       d="M -9.9097841,1201.963 H 188.88322"
       id="path38" />
    <path
       d="m 306.68722,1201.963 h 207.076"
       id="path40" />
    <path
       d="M 33.346216,1201.963 119.85822,896.411 h 437.161 l -83.751,305.552"
       id="path42" />
  </g>
</svg>
