<?xml version="1.0" encoding="UTF-8"?>
<svg id="svg56" width="566.93" height="554.18" version="1.1" viewBox="0 0 566.93 554.18" xmlns="http://www.w3.org/2000/svg">
 <g id="g54" transform="translate(0 -745.24)" fill="none" stroke="#000" stroke-width="4mm">
  <path id="path6" d="m376.4 1236.1-0.213 4.861-0.635 4.823-1.052 4.749-1.463 4.64-1.862 4.494-2.246 4.315-2.614 4.103-2.962 3.86-3.286 3.586-3.587 3.287"/>
  <path id="path8" d="m356.48 1278.8-3.859 2.961-4.103 2.614-4.315 2.246-4.495 1.862-4.639 1.463-4.75 1.053-4.823 0.635-4.86 0.212-4.86-0.212-4.823-0.635"/>
  <path id="path10" d="m310.96 1291-4.75-1.053-4.639-1.463-4.495-1.862-4.315-2.246-4.103-2.614-3.859-2.961-3.587-3.287-3.286-3.586-2.962-3.86-2.614-4.103"/>
  <path id="path12" d="m272.35 1264-2.246-4.315-1.861-4.494-1.463-4.64-1.053-4.749-0.635-4.823-0.212-4.861 0.212-4.86 0.635-4.823 1.053-4.749 1.463-4.64"/>
  <path id="path14" d="m268.24 1217 1.861-4.494 2.246-4.315 2.614-4.103 2.962-3.86 3.286-3.586 3.587-3.287 3.859-2.961 4.103-2.614 4.315-2.246 4.495-1.862"/>
  <path id="path16" d="m301.57 1183.7 4.639-1.463 4.75-1.053 4.823-0.635 4.86-0.212 4.86 0.212 4.823 0.635 4.75 1.053 4.639 1.463 4.495 1.862 4.315 2.246"/>
  <path id="path18" d="m348.52 1187.8 4.103 2.614 3.859 2.961 3.587 3.287 3.286 3.586 2.962 3.86 2.614 4.103 2.246 4.315 1.862 4.494 1.463 4.64 1.052 4.749"/>
  <path id="path20" d="m375.56 1226.4 0.635 4.823 0.213 4.86-0.213 4.861"/>
  <path id="path22" d="m339.23 813.22-0.23 5.265-0.688 5.225-1.141 5.145-1.584 5.027-2.017 4.869-2.434 4.674-2.831 4.445-3.208 4.181-3.561 3.886-3.885 3.56"/>
  <path id="path24" d="m317.65 859.5-4.182 3.208-4.444 2.832-4.675 2.434-4.869 2.016-5.026 1.585-5.145 1.141-5.225 0.688-5.266 0.23-5.265-0.23-5.225-0.688"/>
  <path id="path26" d="m268.33 872.71-5.145-1.141-5.026-1.585-4.869-2.016-4.675-2.434-4.445-2.832-4.181-3.208-3.885-3.56-3.561-3.886-3.208-4.181-2.832-4.445"/>
  <path id="path28" d="m226.5 843.42-2.433-4.674-2.017-4.869-1.585-5.027-1.14-5.145-0.688-5.225-0.23-5.265 0.23-5.265 0.688-5.225 1.14-5.145 1.585-5.027"/>
  <path id="path30" d="m222.05 792.56 2.017-4.868 2.433-4.675 2.832-4.445 3.208-4.181 3.561-3.886 3.885-3.56 4.181-3.208 4.445-2.832 4.675-2.433 4.869-2.017"/>
  <path id="path32" d="m258.16 756.45 5.026-1.585 5.145-1.141 5.225-0.688 5.265-0.229 5.266 0.229 5.225 0.688 5.145 1.141 5.026 1.585 4.869 2.017 4.675 2.433"/>
  <path id="path34" d="m309.02 760.9 4.444 2.832 4.182 3.208 3.885 3.56 3.561 3.886 3.208 4.181 2.831 4.445 2.434 4.675 2.017 4.868 1.584 5.027 1.141 5.145"/>
  <path id="path36" d="m338.31 802.73 0.688 5.225 0.23 5.265-0.23 5.265"/>
  <path id="path38" d="m367.11 1236.1h199.82"/>
  <path id="path40" d="M 260.23,1236.091 H 0"/>
  <path id="path42" d="m515.81 1236.1v-120.82"/>
  <path id="path44" d="m41.822 1236.1v-120.82l4.647-46.47 18.588-55.764 27.882-46.469 23.235-23.235 34.387-30.67 39.964-18.588 39.035-11.153 49.257-7.435 43.682 4.647"/>
  <path id="path46" d="m322.5 880.13 49.258 16.729 48.328 25.094 35.317 32.529 32.529 46.469 18.588 46.47 9.293 44.611v23.235"/>
  <path id="path48" d="m116.17 943.33 34.387 51.117"/>
  <path id="path50" d="m192.38 1078.1 18.588 76.21 4.647 46.47 2.788 35.316"/>
  <path id="path52" d="m150.56 994.45 41.823 83.645"/>
 </g>
</svg>
