<?xml version="1.0" encoding="UTF-8" standalone="no"?>
<svg
   width="566.92902"
   height="554.17944"
   viewBox="0 0 566.929 554.17945"
   version="1.1"
   id="svg56"
   sodipodi:docname="BOYMOR01.hpgl.svg"
   inkscape:version="1.1.2 (0a00cf5339, 2022-02-04)"
   xmlns:inkscape="http://www.inkscape.org/namespaces/inkscape"
   xmlns:sodipodi="http://sodipodi.sourceforge.net/DTD/sodipodi-0.dtd"
   xmlns="http://www.w3.org/2000/svg"
   xmlns:svg="http://www.w3.org/2000/svg">
  <defs
     id="defs60" />
  <sodipodi:namedview
     id="namedview58"
     pagecolor="#ffffff"
     bordercolor="#666666"
     borderopacity="1.0"
     inkscape:pageshadow="2"
     inkscape:pageopacity="0.0"
     inkscape:pagecheckerboard="0"
     showgrid="false"
     inkscape:zoom="1.3338355"
     inkscape:cx="283.39328"
     inkscape:cy="-475.69586"
     inkscape:window-width="1495"
     inkscape:window-height="970"
     inkscape:window-x="0"
     inkscape:window-y="32"
     inkscape:window-maximized="0"
     inkscape:current-layer="svg56" />
  <g
     id="g2"
     transform="translate(0,-745.2418)" />
  <g
     style="fill:none;stroke:#000000;stroke-width:1mm"
     id="g4"
     transform="translate(0,-745.2418)" />
  <g
     style="fill:none;stroke:#000000;stroke-width:4mm"
     id="g54"
     transform="translate(0,-745.2418)">
    <path
       d="m 376.404,1236.091 -0.213,4.861 -0.635,4.823 -1.052,4.749 -1.463,4.64 -1.862,4.494 -2.246,4.315 -2.614,4.103 -2.962,3.86 -3.286,3.586 -3.587,3.287"
       id="path6" />
    <path
       d="m 356.484,1278.809 -3.859,2.961 -4.103,2.614 -4.315,2.246 -4.495,1.862 -4.639,1.463 -4.75,1.053 -4.823,0.635 -4.86,0.212 -4.86,-0.212 -4.823,-0.635"
       id="path8" />
    <path
       d="m 310.957,1291.008 -4.75,-1.053 -4.639,-1.463 -4.495,-1.862 -4.315,-2.246 -4.103,-2.614 -3.859,-2.961 -3.587,-3.287 -3.286,-3.586 -2.962,-3.86 -2.614,-4.103"
       id="path10" />
    <path
       d="m 272.347,1263.973 -2.246,-4.315 -1.861,-4.494 -1.463,-4.64 -1.053,-4.749 -0.635,-4.823 -0.212,-4.861 0.212,-4.86 0.635,-4.823 1.053,-4.749 1.463,-4.64"
       id="path12" />
    <path
       d="m 268.24,1217.019 1.861,-4.494 2.246,-4.315 2.614,-4.103 2.962,-3.86 3.286,-3.586 3.587,-3.287 3.859,-2.961 4.103,-2.614 4.315,-2.246 4.495,-1.862"
       id="path14" />
    <path
       d="m 301.568,1183.691 4.639,-1.463 4.75,-1.053 4.823,-0.635 4.86,-0.212 4.86,0.212 4.823,0.635 4.75,1.053 4.639,1.463 4.495,1.862 4.315,2.246"
       id="path16" />
    <path
       d="m 348.522,1187.799 4.103,2.614 3.859,2.961 3.587,3.287 3.286,3.586 2.962,3.86 2.614,4.103 2.246,4.315 1.862,4.494 1.463,4.64 1.052,4.749"
       id="path18" />
    <path
       d="m 375.556,1226.408 0.635,4.823 0.213,4.86 -0.213,4.861"
       id="path20" />
    <path
       d="m 339.228,813.218 -0.23,5.265 -0.688,5.225 -1.141,5.145 -1.584,5.027 -2.017,4.869 -2.434,4.674 -2.831,4.445 -3.208,4.181 -3.561,3.886 -3.885,3.56"
       id="path22" />
    <path
       d="m 317.649,859.495 -4.182,3.208 -4.444,2.832 -4.675,2.434 -4.869,2.016 -5.026,1.585 -5.145,1.141 -5.225,0.688 -5.266,0.23 -5.265,-0.23 -5.225,-0.688"
       id="path24" />
    <path
       d="m 268.327,872.711 -5.145,-1.141 -5.026,-1.585 -4.869,-2.016 -4.675,-2.434 -4.445,-2.832 -4.181,-3.208 -3.885,-3.56 -3.561,-3.886 -3.208,-4.181 -2.832,-4.445"
       id="path26" />
    <path
       d="m 226.5,843.423 -2.433,-4.674 -2.017,-4.869 -1.585,-5.027 -1.14,-5.145 -0.688,-5.225 -0.23,-5.265 0.23,-5.265 0.688,-5.225 1.14,-5.145 1.585,-5.027"
       id="path28" />
    <path
       d="m 222.05,792.556 2.017,-4.868 2.433,-4.675 2.832,-4.445 3.208,-4.181 3.561,-3.886 3.885,-3.56 4.181,-3.208 4.445,-2.832 4.675,-2.433 4.869,-2.017"
       id="path30" />
    <path
       d="m 258.156,756.451 5.026,-1.585 5.145,-1.141 5.225,-0.688 5.265,-0.229 5.266,0.229 5.225,0.688 5.145,1.141 5.026,1.585 4.869,2.017 4.675,2.433"
       id="path32" />
    <path
       d="m 309.023,760.901 4.444,2.832 4.182,3.208 3.885,3.56 3.561,3.886 3.208,4.181 2.831,4.445 2.434,4.675 2.017,4.868 1.584,5.027 1.141,5.145"
       id="path34" />
    <path
       d="m 338.31,802.728 0.688,5.225 0.23,5.265 -0.23,5.265"
       id="path36" />
    <path
       d="M 367.11,1236.091 H 566.929"
       id="path38" />
    <path
       d="M 260.23,1236.091 H 0"
       id="path40" />
    <path
       d="m 515.812,1236.091 v -120.82"
       id="path42" />
    <path
       d="m 41.822,1236.091 v -120.82 l 4.647,-46.47 18.588,-55.764 27.882,-46.469 23.235,-23.235 34.387,-30.67 39.964,-18.588 39.035,-11.153 49.257,-7.435 43.682,4.647"
       id="path44" />
    <path
       d="m 322.499,880.134 49.258,16.729 48.328,25.094 35.317,32.529 32.529,46.469 18.588,46.47 9.293,44.611 v 23.235"
       id="path46" />
    <path
       d="m 116.174,943.333 34.387,51.117"
       id="path48" />
    <path
       d="m 192.384,1078.095 18.588,76.21 4.647,46.47 2.788,35.316"
       id="path50" />
    <path
       d="m 150.561,994.45 41.823,83.645"
       id="path52" />
  </g>
</svg>
