<?xml version="1.0" encoding="UTF-8"?>
<svg id="svg46" width="576.84" height="526.84" version="1.1" viewBox="0 0 576.84 526.84" xmlns="http://www.w3.org/2000/svg">
 <g id="g44" transform="translate(9.9098 -742.51)" fill="none" stroke="#000" stroke-width="4mm">
  <path id="path6" d="m312.21 1202-0.228 5.214-0.681 5.174-1.13 5.096-1.569 4.977-1.997 4.821-2.41 4.63-2.804 4.401-3.177 4.14-3.526 3.848-3.848 3.526"/>
  <path id="path8" d="m290.84 1247.8-4.14 3.177-4.401 2.804-4.629 2.41-4.822 1.997-4.977 1.569-5.095 1.13-5.175 0.681-5.213 0.228-5.214-0.228-5.174-0.681"/>
  <path id="path10" d="m242 1260.9-5.095-1.13-4.978-1.569-4.821-1.997-4.629-2.41-4.402-2.804-4.14-3.177-3.848-3.526-3.526-3.848-3.177-4.14-2.804-4.401"/>
  <path id="path12" d="m200.58 1231.9-2.41-4.63-1.997-4.821-1.569-4.977-1.13-5.096-0.681-5.174-0.227-5.214 0.227-5.213 0.681-5.174 1.13-5.096 1.569-4.977"/>
  <path id="path14" d="m196.17 1181.5 1.997-4.821 2.41-4.63 2.804-4.401 3.177-4.14 3.526-3.848 3.848-3.526 4.14-3.177 4.402-2.804 4.629-2.41 4.821-1.997"/>
  <path id="path16" d="m231.93 1145.7 4.978-1.569 5.095-1.13 5.174-0.681 5.214-0.228 5.213 0.228 5.175 0.681 5.095 1.13 4.977 1.569 4.821 1.997 4.63 2.41"/>
  <path id="path18" d="m282.3 1150.2 4.401 2.804 4.14 3.177 3.848 3.526 3.526 3.848 3.177 4.14 2.804 4.401 2.41 4.63 1.997 4.821 1.569 4.977 1.13 5.095"/>
  <path id="path20" d="m311.3 1191.6 0.681 5.175 0.228 5.213-0.228 5.214"/>
  <path id="path22" d="m407 819.1-0.263 6.016-0.786 5.97-1.303 5.879-1.811 5.743-2.305 5.564-2.78 5.341-3.235 5.079-3.666 4.777-4.068 4.44-4.44 4.068"/>
  <path id="path24" d="m382.35 871.98-4.777 3.666-5.079 3.235-5.341 2.781-5.564 2.304-5.743 1.811-5.879 1.303-5.97 0.786-6.016 0.263-6.016-0.263-5.97-0.786"/>
  <path id="path26" d="m325.99 887.08-5.879-1.303-5.743-1.811-5.563-2.304-5.342-2.781-5.078-3.235-4.778-3.666-4.439-4.068-4.068-4.44-3.666-4.777-3.236-5.079"/>
  <path id="path28" d="m278.2 853.62-2.78-5.341-2.305-5.564-1.81-5.743-1.304-5.879-0.786-5.97-0.262-6.016 0.262-6.016 0.786-5.97 1.304-5.879 1.81-5.743"/>
  <path id="path30" d="m273.12 795.49 2.305-5.563 2.78-5.342 3.236-5.078 3.666-4.777 4.068-4.44 4.439-4.068 4.778-3.666 5.078-3.236 5.342-2.78 5.563-2.304"/>
  <path id="path32" d="m314.37 754.24 5.743-1.811 5.879-1.304 5.97-0.786 6.016-0.262 6.016 0.262 5.97 0.786 5.879 1.304 5.743 1.81 5.564 2.305 5.341 2.78"/>
  <path id="path34" d="m372.49 759.32 5.079 3.236 4.777 3.666 4.44 4.068 4.068 4.44 3.666 4.777 3.235 5.078 2.78 5.342 2.305 5.563 1.811 5.743 1.303 5.879"/>
  <path id="path36" d="m405.96 807.12 0.786 5.97 0.263 6.016-0.263 6.016"/>
  <path id="path38" d="m-9.9098 1202h198.79"/>
  <path id="path40" d="m306.69 1202h207.08"/>
  <path id="path42" d="m33.346 1202 86.512-305.55h437.16l-83.751 305.55"/>
 </g>
</svg>
