<?xml version="1.0" encoding="UTF-8"?>
<svg id="svg30" width="566.93" height="481.39" version="1.1" viewBox="0 0 566.93 481.39" xmlns="http://www.w3.org/2000/svg">
 <g id="g28" transform="translate(0 -760.69)" fill="none" stroke="#000" stroke-width="4mm">
  <path id="path6" d="m347.56 1178.5-0.213 4.883-0.638 4.846-1.058 4.772-1.469 4.662-1.871 4.516-2.257 4.335-2.626 4.123-2.976 3.877-3.302 3.604-3.604 3.302"/>
  <path id="path8" d="m327.55 1221.4-3.877 2.976-4.123 2.626-4.335 2.257-4.516 1.87-4.662 1.47-4.772 1.058-4.846 0.638-4.883 0.213-4.883-0.213-4.846-0.638"/>
  <path id="path10" d="m281.81 1233.7-4.772-1.058-4.662-1.47-4.515-1.87-4.336-2.257-4.122-2.626-3.878-2.976-3.604-3.302-3.302-3.604-2.975-3.877-2.627-4.123"/>
  <path id="path12" d="m243.01 1206.5-2.257-4.335-1.87-4.516-1.47-4.662-1.058-4.772-0.638-4.846-0.213-4.883 0.213-4.883 0.638-4.846 1.058-4.772 1.47-4.662"/>
  <path id="path14" d="m238.89 1159.3 1.87-4.515 2.257-4.336 2.627-4.122 2.975-3.878 3.302-3.604 3.604-3.302 3.878-2.976 4.122-2.626 4.336-2.257 4.515-1.87"/>
  <path id="path16" d="m272.37 1125.8 4.662-1.47 4.772-1.058 4.846-0.638 4.883-0.213 4.883 0.213 4.846 0.638 4.772 1.058 4.662 1.47 4.516 1.87 4.335 2.257"/>
  <path id="path18" d="m319.55 1130 4.123 2.626 3.877 2.976 3.604 3.302 3.302 3.604 2.976 3.878 2.626 4.122 2.257 4.336 1.87 4.515 1.47 4.662 1.058 4.772"/>
  <path id="path20" d="m346.71 1168.8 0.638 4.846 0.213 4.883-0.213 4.883"/>
  <path id="path22" d="m0 1178.5h237.41"/>
  <path id="path24" d="m341.87 1178.5h225.06"/>
  <path id="path26" d="m62.675 1178.5 207.97-223.16 61.726-187.08h92.114v226.01l89.266 184.23"/>
 </g>
</svg>
