<?xml version="1.0" encoding="UTF-8" standalone="no"?>
<svg
   width="566.92902"
   height="364.79129"
   viewBox="0 0 566.929 364.79128"
   version="1.1"
   id="svg32"
   sodipodi:docname="BOYSUP01.hpgl.svg"
   inkscape:version="1.1.2 (0a00cf5339, 2022-02-04)"
   xmlns:inkscape="http://www.inkscape.org/namespaces/inkscape"
   xmlns:sodipodi="http://sodipodi.sourceforge.net/DTD/sodipodi-0.dtd"
   xmlns="http://www.w3.org/2000/svg"
   xmlns:svg="http://www.w3.org/2000/svg">
  <defs
     id="defs36" />
  <sodipodi:namedview
     id="namedview34"
     pagecolor="#ffffff"
     bordercolor="#666666"
     borderopacity="1.0"
     inkscape:pageshadow="2"
     inkscape:pageopacity="0.0"
     inkscape:pagecheckerboard="0"
     showgrid="false"
     inkscape:zoom="2.0127371"
     inkscape:cx="283.69329"
     inkscape:cy="-360.45443"
     inkscape:window-width="1495"
     inkscape:window-height="970"
     inkscape:window-x="0"
     inkscape:window-y="32"
     inkscape:window-maximized="0"
     inkscape:current-layer="svg32" />
  <g
     id="g2"
     transform="translate(0,-539.145)" />
  <g
     style="fill:none;stroke:#000000;stroke-width:1mm"
     id="g4"
     transform="translate(0,-539.145)" />
  <g
     style="fill:none;stroke:#000000;stroke-width:4mm"
     id="g30"
     transform="translate(0,-539.145)">
    <path
       d="m 326.794,853.371 -0.163,3.747 -0.49,3.719 -0.812,3.663 -1.128,3.577 -1.435,3.466 -1.732,3.327 -2.016,3.164 -2.283,2.976 -2.535,2.766 -2.765,2.534"
       id="path6" />
    <path
       d="m 311.435,886.31 -2.976,2.284 -3.164,2.015 -3.328,1.732 -3.465,1.436 -3.578,1.128 -3.662,0.812 -3.719,0.489 -3.748,0.164 -3.747,-0.164 -3.72,-0.489"
       id="path8" />
    <path
       d="m 276.328,895.717 -3.662,-0.812 -3.577,-1.128 -3.466,-1.436 -3.327,-1.732 -3.164,-2.015 -2.976,-2.284 -2.766,-2.534 -2.534,-2.766 -2.284,-2.976 -2.015,-3.164"
       id="path10" />
    <path
       d="m 246.557,874.87 -1.732,-3.327 -1.436,-3.466 -1.128,-3.577 -0.812,-3.663 -0.489,-3.719 -0.164,-3.747 0.163,-3.748 0.49,-3.719 0.812,-3.662 1.128,-3.578"
       id="path12" />
    <path
       d="m 243.389,838.664 1.436,-3.466 1.732,-3.327 2.015,-3.164 2.284,-2.976 2.534,-2.765 2.766,-2.535 2.976,-2.283 3.164,-2.016 3.327,-1.732 3.466,-1.435"
       id="path14" />
    <path
       d="m 269.089,812.965 3.577,-1.128 3.662,-0.812 3.72,-0.49 3.747,-0.164 3.748,0.164 3.719,0.49 3.662,0.812 3.578,1.128 3.465,1.435 3.328,1.732"
       id="path16" />
    <path
       d="m 305.295,816.132 3.164,2.016 2.976,2.283 2.765,2.535 2.535,2.765 2.283,2.976 2.016,3.164 1.732,3.327 1.435,3.466 1.128,3.578 0.812,3.662"
       id="path18" />
    <path
       d="m 326.141,845.904 0.49,3.719 0.163,3.748 -0.163,3.747"
       id="path20" />
    <path
       d="M 0,853.371 H 238.15"
       id="path22" />
    <path
       d="M 322.825,853.371 H 566.929"
       id="path24" />
    <path
       d="M 31.092,853.371 95.26,664.835 h 376.409 l 64.168,188.536"
       id="path26" />
    <path
       d="M 283.795,664.835 V 539.145"
       id="path28" />
  </g>
</svg>
