<?xml version="1.0" encoding="UTF-8"?>
<svg id="svg32" width="566.93" height="364.79" version="1.1" viewBox="0 0 566.93 364.79" xmlns="http://www.w3.org/2000/svg">
 <g id="g30" transform="translate(0 -539.14)" fill="none" stroke="#000" stroke-width="4mm">
  <path id="path6" d="m326.79 853.37-0.163 3.747-0.49 3.719-0.812 3.663-1.128 3.577-1.435 3.466-1.732 3.327-2.016 3.164-2.283 2.976-2.535 2.766-2.765 2.534"/>
  <path id="path8" d="m311.44 886.31-2.976 2.284-3.164 2.015-3.328 1.732-3.465 1.436-3.578 1.128-3.662 0.812-3.719 0.489-3.748 0.164-3.747-0.164-3.72-0.489"/>
  <path id="path10" d="m276.33 895.72-3.662-0.812-3.577-1.128-3.466-1.436-3.327-1.732-3.164-2.015-2.976-2.284-2.766-2.534-2.534-2.766-2.284-2.976-2.015-3.164"/>
  <path id="path12" d="m246.56 874.87-1.732-3.327-1.436-3.466-1.128-3.577-0.812-3.663-0.489-3.719-0.164-3.747 0.163-3.748 0.49-3.719 0.812-3.662 1.128-3.578"/>
  <path id="path14" d="m243.39 838.66 1.436-3.466 1.732-3.327 2.015-3.164 2.284-2.976 2.534-2.765 2.766-2.535 2.976-2.283 3.164-2.016 3.327-1.732 3.466-1.435"/>
  <path id="path16" d="m269.09 812.96 3.577-1.128 3.662-0.812 3.72-0.49 3.747-0.164 3.748 0.164 3.719 0.49 3.662 0.812 3.578 1.128 3.465 1.435 3.328 1.732"/>
  <path id="path18" d="m305.3 816.13 3.164 2.016 2.976 2.283 2.765 2.535 2.535 2.765 2.283 2.976 2.016 3.164 1.732 3.327 1.435 3.466 1.128 3.578 0.812 3.662"/>
  <path id="path20" d="m326.14 845.9 0.49 3.719 0.163 3.748-0.163 3.747"/>
  <path id="path22" d="m0 853.37h238.15"/>
  <path id="path24" d="m322.82 853.37h244.1"/>
  <path id="path26" d="m31.092 853.37 64.168-188.54h376.41l64.168 188.54"/>
  <path id="path28" d="m283.8 664.84v-125.69"/>
 </g>
</svg>
