<?xml version="1.0" encoding="UTF-8"?>
<svg id="svg34" width="571.49" height="507.8" version="1.1" viewBox="0 0 571.49 507.8" xmlns="http://www.w3.org/2000/svg">
 <g id="g32" transform="translate(4.565 -798.18)" fill="none" stroke="#000" stroke-width="4mm">
  <path id="path6" d="m327.56 1245.2-0.202 4.635-0.606 4.6-1.004 4.53-1.395 4.424-1.776 4.287-2.142 4.115-2.493 3.913-2.824 3.68-3.134 3.421-3.421 3.134"/>
  <path id="path8" d="m308.57 1286-3.681 2.825-3.912 2.492-4.116 2.143-4.286 1.775-4.425 1.395-4.529 1.004-4.6 0.606-4.635 0.202-4.635-0.202-4.6-0.606"/>
  <path id="path10" d="m265.15 1297.6-4.529-1.004-4.425-1.395-4.286-1.775-4.115-2.143-3.913-2.492-3.681-2.825-3.421-3.134-3.134-3.421-2.824-3.68-2.493-3.913"/>
  <path id="path12" d="m228.33 1271.8-2.142-4.115-1.776-4.287-1.395-4.424-1.004-4.53-0.606-4.6-0.202-4.635 0.202-4.635 0.606-4.599 1.004-4.53 1.395-4.425"/>
  <path id="path14" d="m224.41 1227 1.776-4.286 2.142-4.115 2.493-3.913 2.824-3.681 3.134-3.42 3.421-3.135 3.681-2.824 3.913-2.493 4.115-2.142 4.286-1.775"/>
  <path id="path16" d="m256.19 1195.3 4.425-1.395 4.529-1.005 4.6-0.605 4.635-0.203 4.635 0.203 4.6 0.605 4.529 1.005 4.425 1.395 4.286 1.775 4.116 2.142"/>
  <path id="path18" d="m300.97 1199.2 3.912 2.493 3.681 2.824 3.421 3.135 3.134 3.42 2.824 3.681 2.493 3.913 2.142 4.115 1.776 4.286 1.395 4.425 1.004 4.53"/>
  <path id="path20" d="m326.76 1236 0.606 4.599 0.202 4.635-0.202 4.635"/>
  <path id="path22" d="m330.57 1245.2h231.79"/>
  <path id="path24" d="m54.636 1245.2-28.095-69.235-9.031-56.191-7.024-60.205 13.044-65.222 19.065-47.161 34.116-44.15 38.13-38.13 46.157-31.106 44.15-15.051 53.181-13.044"/>
  <path id="path26" d="m258.33 805.74h57.195l56.191 13.044 62.212 28.096 41.14 31.106 28.096 41.14 34.116 53.181 19.065 53.181 3.01 59.201-6.021 72.246-22.075 50.171"/>
  <path id="path28" d="m531.26 1207.1-19.065 38.129"/>
  <path id="path30" d="m-4.565 1245.2h225.77"/>
 </g>
</svg>
