<?xml version="1.0" encoding="UTF-8" standalone="no"?>
<svg
   width="571.49402"
   height="507.8013"
   viewBox="0 0 571.494 507.8013"
   version="1.1"
   id="svg34"
   sodipodi:docname="BOYSPH01.hpgl.svg"
   inkscape:version="1.1.2 (0a00cf5339, 2022-02-04)"
   xmlns:inkscape="http://www.inkscape.org/namespaces/inkscape"
   xmlns:sodipodi="http://sodipodi.sourceforge.net/DTD/sodipodi-0.dtd"
   xmlns="http://www.w3.org/2000/svg"
   xmlns:svg="http://www.w3.org/2000/svg">
  <defs
     id="defs38" />
  <sodipodi:namedview
     id="namedview36"
     pagecolor="#ffffff"
     bordercolor="#666666"
     borderopacity="1.0"
     inkscape:pageshadow="2"
     inkscape:pageopacity="0.0"
     inkscape:pagecheckerboard="0"
     showgrid="false"
     inkscape:zoom="1.459374"
     inkscape:cx="288.47986"
     inkscape:cy="-551.94899"
     inkscape:window-width="1495"
     inkscape:window-height="970"
     inkscape:window-x="0"
     inkscape:window-y="32"
     inkscape:window-maximized="0"
     inkscape:current-layer="svg34" />
  <g
     id="g2"
     transform="translate(4.5650493,-798.18294)" />
  <g
     style="fill:none;stroke:#000000;stroke-width:1mm"
     id="g4"
     transform="translate(4.5650493,-798.18294)" />
  <g
     style="fill:none;stroke:#000000;stroke-width:4mm"
     id="g32"
     transform="translate(4.5650493,-798.18294)">
    <path
       d="m 327.56495,1245.237 -0.202,4.635 -0.606,4.6 -1.004,4.53 -1.395,4.424 -1.776,4.287 -2.142,4.115 -2.493,3.913 -2.824,3.68 -3.134,3.421 -3.421,3.134"
       id="path6" />
    <path
       d="m 308.56795,1285.976 -3.681,2.825 -3.912,2.492 -4.116,2.143 -4.286,1.775 -4.425,1.395 -4.529,1.004 -4.6,0.606 -4.635,0.202 -4.635,-0.202 -4.6,-0.606"
       id="path8" />
    <path
       d="m 265.14895,1297.61 -4.529,-1.004 -4.425,-1.395 -4.286,-1.775 -4.115,-2.143 -3.913,-2.492 -3.681,-2.825 -3.421,-3.134 -3.134,-3.421 -2.824,-3.68 -2.493,-3.913"
       id="path10" />
    <path
       d="m 228.32795,1271.828 -2.142,-4.115 -1.776,-4.287 -1.395,-4.424 -1.004,-4.53 -0.606,-4.6 -0.202,-4.635 0.202,-4.635 0.606,-4.599 1.004,-4.53 1.395,-4.425"
       id="path12" />
    <path
       d="m 224.40995,1227.048 1.776,-4.286 2.142,-4.115 2.493,-3.913 2.824,-3.681 3.134,-3.42 3.421,-3.135 3.681,-2.824 3.913,-2.493 4.115,-2.142 4.286,-1.775"
       id="path14" />
    <path
       d="m 256.19495,1195.264 4.425,-1.395 4.529,-1.005 4.6,-0.605 4.635,-0.203 4.635,0.203 4.6,0.605 4.529,1.005 4.425,1.395 4.286,1.775 4.116,2.142"
       id="path16" />
    <path
       d="m 300.97495,1199.181 3.912,2.493 3.681,2.824 3.421,3.135 3.134,3.42 2.824,3.681 2.493,3.913 2.142,4.115 1.776,4.286 1.395,4.425 1.004,4.53"
       id="path18" />
    <path
       d="m 326.75695,1236.003 0.606,4.599 0.202,4.635 -0.202,4.635"
       id="path20" />
    <path
       d="m 330.57495,1245.237 h 231.789"
       id="path22" />
    <path
       d="m 54.635951,1245.237 -28.095,-69.235 -9.031,-56.191 -7.024,-60.205 13.044,-65.222 19.065,-47.161 34.116,-44.15 38.129999,-38.13 46.157,-31.106 44.15,-15.051 53.181,-13.044"
       id="path24" />
    <path
       d="m 258.32895,805.742 h 57.195 l 56.191,13.044 62.212,28.096 41.14,31.106 28.096,41.14 34.116,53.181 19.065,53.181 3.01,59.201 -6.021,72.246 -22.075,50.171"
       id="path26" />
    <path
       d="m 531.25795,1207.108 -19.065,38.129"
       id="path28" />
    <path
       d="M -4.5650493,1245.237 H 221.20295"
       id="path30" />
  </g>
</svg>
