<?xml version="1.0" encoding="UTF-8" standalone="no"?>
<svg
   width="566.92902"
   height="424.9903"
   viewBox="0 0 566.929 424.99028"
   version="1.1"
   id="svg38"
   sodipodi:docname="BOYSUP03.hpgl.svg"
   inkscape:version="1.1.2 (0a00cf5339, 2022-02-04)"
   xmlns:inkscape="http://www.inkscape.org/namespaces/inkscape"
   xmlns:sodipodi="http://sodipodi.sourceforge.net/DTD/sodipodi-0.dtd"
   xmlns="http://www.w3.org/2000/svg"
   xmlns:svg="http://www.w3.org/2000/svg">
  <defs
     id="defs42" />
  <sodipodi:namedview
     id="namedview40"
     pagecolor="#ffffff"
     bordercolor="#666666"
     borderopacity="1.0"
     inkscape:pageshadow="2"
     inkscape:pageopacity="0.0"
     inkscape:pagecheckerboard="0"
     showgrid="false"
     inkscape:zoom="1.7224692"
     inkscape:cx="283.3142"
     inkscape:cy="-326.56606"
     inkscape:window-width="1495"
     inkscape:window-height="970"
     inkscape:window-x="0"
     inkscape:window-y="32"
     inkscape:window-maximized="0"
     inkscape:current-layer="svg38" />
  <g
     id="g2"
     transform="translate(0,-535.176)" />
  <g
     style="fill:none;stroke:#000000;stroke-width:1mm"
     id="g4"
     transform="translate(0,-535.176)" />
  <g
     style="fill:none;stroke:#000000;stroke-width:4mm"
     id="g36"
     transform="translate(0,-535.176)">
    <path
       d="m 324.81,913.57 -0.149,3.401 -0.444,3.376 -0.737,3.324 -1.024,3.248 -1.303,3.145 -1.572,3.021 -1.83,2.871 -2.072,2.702 -2.301,2.51 -2.51,2.3"
       id="path6" />
    <path
       d="m 310.868,943.468 -2.701,2.073 -2.872,1.83 -3.02,1.572 -3.146,1.303 -3.248,1.024 -3.324,0.737 -3.376,0.444 -3.401,0.149 -3.402,-0.149 -3.376,-0.444"
       id="path8" />
    <path
       d="m 279.002,952.007 -3.324,-0.737 -3.247,-1.024 -3.146,-1.303 -3.02,-1.572 -2.872,-1.83 -2.701,-2.073 -2.511,-2.3 -2.3,-2.51 -2.073,-2.702 -1.829,-2.871"
       id="path10" />
    <path
       d="m 251.979,933.085 -1.573,-3.02 -1.303,-3.146 -1.023,-3.248 -0.737,-3.324 -0.445,-3.376 -0.148,-3.401 0.148,-3.402 0.445,-3.376 0.737,-3.324 1.023,-3.247"
       id="path12" />
    <path
       d="m 249.103,900.221 1.303,-3.146 1.573,-3.02 1.829,-2.872 2.073,-2.701 2.3,-2.511 2.511,-2.3 2.701,-2.073 2.872,-1.829 3.02,-1.573 3.146,-1.303"
       id="path14" />
    <path
       d="m 272.431,876.893 3.247,-1.024 3.324,-0.736 3.376,-0.445 3.402,-0.148 3.401,0.148 3.376,0.445 3.324,0.736 3.248,1.024 3.146,1.303 3.02,1.573"
       id="path16" />
    <path
       d="m 305.295,879.769 2.872,1.829 2.701,2.073 2.51,2.3 2.301,2.511 2.072,2.701 1.83,2.872 1.572,3.02 1.303,3.146 1.024,3.247 0.737,3.324"
       id="path18" />
    <path
       d="m 324.217,906.792 0.444,3.376 0.149,3.402 -0.149,3.401"
       id="path20" />
    <path
       d="M 285.78,627.79 V 535.176"
       id="path22" />
    <path
       d="M 221.612,566.268 345.317,627.79"
       id="path24" />
    <path
       d="M 221.612,627.79 345.317,566.268"
       id="path26" />
    <path
       d="M 0,913.57 H 246.088"
       id="path28" />
    <path
       d="M 320.841,913.57 H 566.929"
       id="path30" />
    <path
       d="M 31.092,913.57 95.26,723.05 h 376.409 l 64.168,190.52"
       id="path32" />
    <path
       d="M 285.78,723.05 V 592.729"
       id="path34" />
  </g>
</svg>
