<?xml version="1.0" encoding="UTF-8"?>
<svg id="svg38" width="566.93" height="424.99" version="1.1" viewBox="0 0 566.93 424.99" xmlns="http://www.w3.org/2000/svg">
 <g id="g36" transform="translate(0 -535.18)" fill="none" stroke="#000" stroke-width="4mm">
  <path id="path6" d="m324.81 913.57-0.149 3.401-0.444 3.376-0.737 3.324-1.024 3.248-1.303 3.145-1.572 3.021-1.83 2.871-2.072 2.702-2.301 2.51-2.51 2.3"/>
  <path id="path8" d="m310.87 943.47-2.701 2.073-2.872 1.83-3.02 1.572-3.146 1.303-3.248 1.024-3.324 0.737-3.376 0.444-3.401 0.149-3.402-0.149-3.376-0.444"/>
  <path id="path10" d="m279 952.01-3.324-0.737-3.247-1.024-3.146-1.303-3.02-1.572-2.872-1.83-2.701-2.073-2.511-2.3-2.3-2.51-2.073-2.702-1.829-2.871"/>
  <path id="path12" d="m251.98 933.08-1.573-3.02-1.303-3.146-1.023-3.248-0.737-3.324-0.445-3.376-0.148-3.401 0.148-3.402 0.445-3.376 0.737-3.324 1.023-3.247"/>
  <path id="path14" d="m249.1 900.22 1.303-3.146 1.573-3.02 1.829-2.872 2.073-2.701 2.3-2.511 2.511-2.3 2.701-2.073 2.872-1.829 3.02-1.573 3.146-1.303"/>
  <path id="path16" d="m272.43 876.89 3.247-1.024 3.324-0.736 3.376-0.445 3.402-0.148 3.401 0.148 3.376 0.445 3.324 0.736 3.248 1.024 3.146 1.303 3.02 1.573"/>
  <path id="path18" d="m305.3 879.77 2.872 1.829 2.701 2.073 2.51 2.3 2.301 2.511 2.072 2.701 1.83 2.872 1.572 3.02 1.303 3.146 1.024 3.247 0.737 3.324"/>
  <path id="path20" d="m324.22 906.79 0.444 3.376 0.149 3.402-0.149 3.401"/>
  <path id="path22" d="m285.78 627.79v-92.614"/>
  <path id="path24" d="m221.61 566.27 123.7 61.522"/>
  <path id="path26" d="m221.61 627.79 123.7-61.522"/>
  <path id="path28" d="m0 913.57h246.09"/>
  <path id="path30" d="m320.84 913.57h246.09"/>
  <path id="path32" d="m31.092 913.57 64.168-190.52h376.41l64.168 190.52"/>
  <path id="path34" d="m285.78 723.05v-130.32"/>
 </g>
</svg>
