<?xml version="1.0" encoding="UTF-8"?>
<svg id="svg40" width="582.06" height="582.06" version="1.1" viewBox="0 0 582.06 582.06" xmlns="http://www.w3.org/2000/svg">
 <g id="g38" transform="translate(7.5663 -1433.9)" fill="none" stroke="#000" stroke-width="4mm">
  <path id="path6" d="m566.93 1724.9-1.079 24.706-3.227 24.517-5.353 24.143-7.436 23.585-9.463 22.846-11.419 21.935-13.287 20.857-15.054 19.619-16.707 18.232-18.232 16.707"/>
  <path id="path8" d="m465.67 1942-19.619 15.054-20.856 13.287-21.935 11.418-22.847 9.464-23.585 7.436-24.143 5.352-24.517 3.228-24.706 1.079-24.705-1.079-24.518-3.228"/>
  <path id="path10" d="m234.24 2004-24.143-5.352-23.584-7.436-22.847-9.464-21.935-11.418-20.856-13.287-19.619-15.054-18.232-16.707-16.707-18.232-15.054-19.619-13.287-20.857"/>
  <path id="path12" d="m37.977 1866.6-11.419-21.935-9.463-22.846-7.436-23.585-5.353-24.143-3.228-24.517-1.078-24.706 1.078-24.705 3.228-24.518 5.353-24.143 7.436-23.584"/>
  <path id="path14" d="m17.095 1627.9 9.463-22.847 11.419-21.935 13.287-20.857 15.054-19.618 16.707-18.233 18.232-16.706 19.619-15.054 20.856-13.287 21.935-11.419 22.847-9.464"/>
  <path id="path16" d="m186.51 1458.5 23.584-7.436 24.143-5.352 24.518-3.228 24.705-1.079 24.706 1.079 24.517 3.228 24.143 5.352 23.585 7.436 22.847 9.464 21.935 11.419"/>
  <path id="path18" d="m425.2 1479.4 20.856 13.286 19.619 15.055 18.232 16.706 16.707 18.233 15.054 19.618 13.287 20.857 11.419 21.935 9.463 22.846 7.436 23.585 5.353 24.143"/>
  <path id="path20" d="m562.62 1675.7 3.227 24.517 1.079 24.706-1.079 24.706"/>
  <path id="path22" d="m447.87 1719.2-0.62 14.205-1.856 14.098-3.078 13.882-4.276 13.561-5.441 13.137-6.566 12.613-7.64 11.992-8.656 11.281-9.606 10.484-10.484 9.606"/>
  <path id="path24" d="m389.65 1844.1-11.281 8.656-11.992 7.64-12.613 6.566-13.137 5.441-13.561 4.276-13.882 3.078-14.098 1.856-14.205 0.62-14.206-0.62-14.098-1.856"/>
  <path id="path26" d="m256.58 1879.7-13.882-3.078-13.561-4.276-13.137-5.441-12.612-6.566-11.993-7.64-11.281-8.656-10.483-9.606-9.606-10.484-8.657-11.281-7.64-11.992"/>
  <path id="path28" d="m143.73 1800.7-6.565-12.613-5.442-13.137-4.276-13.561-3.077-13.882-1.856-14.097-0.62-14.206 0.62-14.206 1.856-14.098 3.077-13.882 4.276-13.561"/>
  <path id="path30" d="m131.72 1663.5 5.442-13.137 6.565-12.612 7.64-11.993 8.656-11.281 9.607-10.483 10.483-9.606 11.281-8.657 11.993-7.64 12.612-6.565 13.137-5.442"/>
  <path id="path32" d="m229.13 1566 13.561-4.276 13.882-3.077 14.098-1.856 14.206-0.62 14.205 0.62 14.098 1.856 13.882 3.077 13.561 4.276 13.137 5.442 12.613 6.565"/>
  <path id="path34" d="m366.38 1578.1 11.992 7.64 11.281 8.657 10.484 9.606 9.606 10.483 8.656 11.281 7.64 11.993 6.566 12.612 5.441 13.137 4.276 13.561 3.078 13.882"/>
  <path id="path36" d="m445.4 1690.9 1.856 14.098 0.62 14.206-0.62 14.205"/>
 </g>
</svg>
