<?xml version="1.0" encoding="UTF-8" standalone="no"?>
<svg
   width="582.06152"
   height="582.0625"
   viewBox="0 0 582.06151 582.06248"
   version="1.1"
   id="svg40"
   sodipodi:docname="BRIDGE01.hpgl.svg"
   inkscape:version="1.1.2 (0a00cf5339, 2022-02-04)"
   xmlns:inkscape="http://www.inkscape.org/namespaces/inkscape"
   xmlns:sodipodi="http://sodipodi.sourceforge.net/DTD/sodipodi-0.dtd"
   xmlns="http://www.w3.org/2000/svg"
   xmlns:svg="http://www.w3.org/2000/svg">
  <defs
     id="defs44" />
  <sodipodi:namedview
     id="namedview42"
     pagecolor="#ffffff"
     bordercolor="#666666"
     borderopacity="1.0"
     inkscape:pageshadow="2"
     inkscape:pageopacity="0.0"
     inkscape:pagecheckerboard="0"
     showgrid="false"
     inkscape:zoom="1.2682364"
     inkscape:cx="290.95522"
     inkscape:cy="-1150.0222"
     inkscape:window-width="1495"
     inkscape:window-height="970"
     inkscape:window-x="0"
     inkscape:window-y="32"
     inkscape:window-maximized="0"
     inkscape:current-layer="svg40" />
  <g
     id="g2"
     transform="translate(7.5662609,-1433.8507)" />
  <g
     style="fill:none;stroke:#000000;stroke-width:1mm"
     id="g4"
     transform="translate(7.5662609,-1433.8507)" />
  <g
     style="fill:none;stroke:#000000;stroke-width:4mm"
     id="g38"
     transform="translate(7.5662609,-1433.8507)">
    <path
       d="m 566.92899,1724.882 -1.079,24.706 -3.227,24.517 -5.353,24.143 -7.436,23.585 -9.463,22.846 -11.419,21.935 -13.287,20.857 -15.054,19.619 -16.707,18.232 -18.232,16.707"
       id="path6" />
    <path
       d="m 465.67199,1942.029 -19.619,15.054 -20.856,13.287 -21.935,11.418 -22.847,9.464 -23.585,7.436 -24.143,5.352 -24.517,3.228 -24.706,1.079 -24.705,-1.079 -24.518,-3.228"
       id="path8" />
    <path
       d="m 234.24099,2004.04 -24.143,-5.352 -23.584,-7.436 -22.847,-9.464 -21.935,-11.418 -20.856,-13.287 -19.619,-15.054 -18.232003,-16.707 -16.707,-18.232 -15.054,-19.619 -13.287,-20.857"
       id="path10" />
    <path
       d="m 37.976987,1866.614 -11.419,-21.935 -9.463,-22.846 -7.4360001,-23.585 -5.353,-24.143 -3.228,-24.517 L -1.3052503e-5,1724.882 1.0779869,1700.177 l 3.228,-24.518 5.353,-24.143 7.4360001,-23.584"
       id="path12" />
    <path
       d="m 17.094987,1627.932 9.463,-22.847 11.419,-21.935 13.287,-20.857 15.054,-19.618 16.707,-18.233 18.232003,-16.706 19.619,-15.054 20.856,-13.287 21.935,-11.419 22.847,-9.464"
       id="path14" />
    <path
       d="m 186.51399,1458.512 23.584,-7.436 24.143,-5.352 24.518,-3.228 24.705,-1.079 24.706,1.079 24.517,3.228 24.143,5.352 23.585,7.436 22.847,9.464 21.935,11.419"
       id="path16" />
    <path
       d="m 425.19699,1479.395 20.856,13.286 19.619,15.055 18.232,16.706 16.707,18.233 15.054,19.618 13.287,20.857 11.419,21.935 9.463,22.846 7.436,23.585 5.353,24.143"
       id="path18" />
    <path
       d="m 562.62299,1675.659 3.227,24.517 1.079,24.706 v 0 l -1.079,24.706"
       id="path20" />
    <path
       d="m 447.87399,1719.213 -0.62,14.205 -1.856,14.098 -3.078,13.882 -4.276,13.561 -5.441,13.137 -6.566,12.613 -7.64,11.992 -8.656,11.281 -9.606,10.484 -10.484,9.606"
       id="path22" />
    <path
       d="m 389.65099,1844.072 -11.281,8.656 -11.992,7.64 -12.613,6.566 -13.137,5.441 -13.561,4.276 -13.882,3.078 -14.098,1.856 -14.205,0.62 -14.206,-0.62 -14.098,-1.856"
       id="path24" />
    <path
       d="m 256.57799,1879.729 -13.882,-3.078 -13.561,-4.276 -13.137,-5.441 -12.612,-6.566 -11.993,-7.64 -11.281,-8.656 -10.483,-9.606 -9.606,-10.484 -8.657,-11.281 -7.64,-11.992"
       id="path26" />
    <path
       d="m 143.72599,1800.709 -6.565,-12.613 -5.442,-13.137 -4.276,-13.561 -3.077,-13.882 -1.856,-14.097 -0.62,-14.206 0.62,-14.206 1.856,-14.098 3.077,-13.882 4.276,-13.561"
       id="path28" />
    <path
       d="m 131.71899,1663.466 5.442,-13.137 6.565,-12.612 7.64,-11.993 8.656,-11.281 9.607,-10.483 10.483,-9.606 11.281,-8.657 11.993,-7.64 12.612,-6.565 13.137,-5.442"
       id="path30" />
    <path
       d="m 229.13499,1566.05 13.561,-4.276 13.882,-3.077 14.098,-1.856 14.206,-0.62 14.205,0.62 14.098,1.856 13.882,3.077 13.561,4.276 13.137,5.442 12.613,6.565"
       id="path32" />
    <path
       d="m 366.37799,1578.057 11.992,7.64 11.281,8.657 10.484,9.606 9.606,10.483 8.656,11.281 7.64,11.993 6.566,12.612 5.441,13.137 4.276,13.561 3.078,13.882"
       id="path34" />
    <path
       d="m 445.39799,1690.909 1.856,14.098 0.62,14.206 -0.62,14.205"
       id="path36" />
  </g>
</svg>
