<?xml version="1.0" encoding="UTF-8"?>
<svg id="svg828" width="436.36" height="579.28" version="1.1" viewBox="0 0 436.36 579.28" xmlns="http://www.w3.org/2000/svg">
 <g id="g826" transform="translate(5.8504 -1192.3)" fill="none" stroke="#000" stroke-width="4mm">
  <path id="path6" d="m0.069203 1197.1 32.848 41.364 36.498 32.848 41.364 20.682 41.364 17.032 45.013 6.083 35.281-2.433 37.715-3.65 42.58-14.599 31.631-19.466 27.982-18.248"/>
  <path id="path8" d="m372.35 1256.7 24.332-25.549 17.032-20.682 10.949-13.382"/>
  <path id="path10" d="m341.93 1643.6-0.458 10.497-1.372 10.418-2.274 10.258-3.159 10.021-4.021 9.707-4.852 9.32-5.646 8.862-6.396 8.336-7.098 7.746-7.747 7.099"/>
  <path id="path12" d="m298.91 1735.9-8.336 6.396-8.862 5.646-9.32 4.852-9.707 4.02-10.021 3.16-10.258 2.274-10.418 1.372-10.497 0.458-10.497-0.458-10.417-1.372"/>
  <path id="path14" d="m200.57 1762.2-10.259-2.274-10.02-3.16-9.708-4.02-9.32-4.852-8.862-5.646-8.336-6.396-7.746-7.099-7.099-7.746-6.396-8.336-5.646-8.862"/>
  <path id="path16" d="m117.18 1703.8-4.851-9.32-4.021-9.707-3.16-10.021-2.274-10.258-1.372-10.418-0.458-10.497 0.458-10.497 1.372-10.418 2.274-10.258 3.16-10.021"/>
  <path id="path18" d="m108.31 1602.4 4.021-9.707 4.851-9.32 5.646-8.862 6.396-8.336 7.099-7.746 7.746-7.099 8.336-6.396 8.862-5.646 9.32-4.852 9.708-4.02"/>
  <path id="path20" d="m180.3 1530.4 10.02-3.16 10.259-2.274 10.417-1.372 10.497-0.458 10.497 0.458 10.418 1.372 10.258 2.274 10.021 3.159 9.707 4.021 9.32 4.852"/>
  <path id="path22" d="m281.71 1539.3 8.862 5.646 8.336 6.396 7.746 7.099 7.099 7.746 6.396 8.336 5.646 8.862 4.852 9.32 4.021 9.707 3.159 10.021 2.274 10.258"/>
  <path id="path24" d="m340.1 1622.7 1.372 10.418 0.458 10.497-0.458 10.497"/>
  <path id="path26" d="m221.49 1517.1v-204.39"/>
  <path id="path28" d="m221.58 1618.2h4.683"/>
  <path id="path30" d="m220.66 1618.3h6.531"/>
  <path id="path32" d="m219.73 1618.4h8.379"/>
  <path id="path34" d="m219.17 1618.5h9.506"/>
  <path id="path36" d="m218.62 1618.7h10.603"/>
  <path id="path38" d="m218.07 1618.8h11.701"/>
  <path id="path40" d="m217.55 1618.9h12.738"/>
  <path id="path42" d="m217.17 1619h13.51"/>
  <path id="path44" d="m216.78 1619.2h14.281"/>
  <path id="path46" d="m216.4 1619.3h15.053"/>
  <path id="path48" d="m216.01 1619.4h15.825"/>
  <path id="path50" d="m215.62 1619.5h16.596"/>
  <path id="path52" d="m215.32 1619.6h17.195"/>
  <path id="path54" d="m215.03 1619.8h17.783"/>
  <path id="path56" d="m214.74 1619.9h18.37"/>
  <path id="path58" d="m214.44 1620h18.957"/>
  <path id="path60" d="m214.15 1620.1h19.545"/>
  <path id="path62" d="m213.86 1620.2h20.132"/>
  <path id="path64" d="m213.58 1620.4h20.688"/>
  <path id="path66" d="m213.34 1620.5h21.156"/>
  <path id="path68" d="m213.11 1620.6h21.623"/>
  <path id="path70" d="m212.88 1620.7h22.091"/>
  <path id="path72" d="m212.64 1620.9h22.558"/>
  <path id="path74" d="m212.41 1621h23.025"/>
  <path id="path76" d="m212.18 1621.1h23.493"/>
  <path id="path78" d="m211.94 1621.2h23.96"/>
  <path id="path80" d="m211.72 1621.3h24.41"/>
  <path id="path82" d="m211.53 1621.5h24.792"/>
  <path id="path84" d="m211.33 1621.6h25.174"/>
  <path id="path86" d="m211.14 1621.7h25.556"/>
  <path id="path88" d="m210.95 1621.8h25.938"/>
  <path id="path90" d="m210.76 1622h26.32"/>
  <path id="path92" d="m210.57 1622.1h26.702"/>
  <path id="path94" d="m210.38 1622.2h27.084"/>
  <path id="path96" d="m210.19 1622.3h27.466"/>
  <path id="path98" d="m210 1622.4h27.847"/>
  <path id="path100" d="m209.83 1622.6h28.176"/>
  <path id="path102" d="m209.68 1622.7h28.493"/>
  <path id="path104" d="m209.52 1622.8h28.81"/>
  <path id="path106" d="m209.36 1622.9h29.127"/>
  <path id="path108" d="m209.2 1623h29.444"/>
  <path id="path110" d="m209.04 1623.2h29.761"/>
  <path id="path112" d="m208.88 1623.3h30.078"/>
  <path id="path114" d="m208.72 1623.4h30.395"/>
  <path id="path116" d="m208.57 1623.5h30.712"/>
  <path id="path118" d="m208.41 1623.7h31.029"/>
  <path id="path120" d="m208.25 1623.8h31.336"/>
  <path id="path122" d="m208.12 1623.9h31.601"/>
  <path id="path124" d="m207.99 1624h31.867"/>
  <path id="path126" d="m207.86 1624.1h32.132"/>
  <path id="path128" d="m207.72 1624.3h32.398"/>
  <path id="path130" d="m207.59 1624.4h32.663"/>
  <path id="path132" d="m207.46 1624.5h32.929"/>
  <path id="path134" d="m207.32 1624.6h33.194"/>
  <path id="path136" d="m207.19 1624.8h33.46"/>
  <path id="path138" d="m207.06 1624.9h33.726"/>
  <path id="path140" d="m206.93 1625h33.991"/>
  <path id="path142" d="m206.79 1625.1h34.257"/>
  <path id="path144" d="m206.67 1625.2h34.504"/>
  <path id="path146" d="m206.56 1625.4h34.727"/>
  <path id="path148" d="m206.45 1625.5h34.95"/>
  <path id="path150" d="m206.34 1625.6h35.173"/>
  <path id="path152" d="m206.22 1625.7h35.396"/>
  <path id="path154" d="m206.11 1625.8h35.619"/>
  <path id="path156" d="m206 1626h35.842"/>
  <path id="path158" d="m205.89 1626.1h36.065"/>
  <path id="path160" d="m205.78 1626.2h36.288"/>
  <path id="path162" d="m205.67 1626.3h36.511"/>
  <path id="path164" d="m205.55 1626.5h36.734"/>
  <path id="path166" d="m205.44 1626.6h36.957"/>
  <path id="path168" d="m205.33 1626.7h37.18"/>
  <path id="path170" d="m205.23 1626.8h37.382"/>
  <path id="path172" d="m205.14 1626.9h37.569"/>
  <path id="path174" d="m205.04 1627.1h37.756"/>
  <path id="path176" d="m204.95 1627.2h37.943"/>
  <path id="path178" d="m204.86 1627.3h38.129"/>
  <path id="path180" d="m204.76 1627.4h38.316"/>
  <path id="path182" d="m204.67 1627.5h38.503"/>
  <path id="path184" d="m204.58 1627.7h38.689"/>
  <path id="path186" d="m204.48 1627.8h38.876"/>
  <path id="path188" d="m204.39 1627.9h39.063"/>
  <path id="path190" d="m204.3 1628h39.249"/>
  <path id="path192" d="m204.2 1628.2h39.436"/>
  <path id="path194" d="m204.11 1628.3h39.623"/>
  <path id="path196" d="m204.02 1628.4h39.81"/>
  <path id="path198" d="m203.93 1628.5h39.974"/>
  <path id="path200" d="m203.86 1628.6h40.129"/>
  <path id="path202" d="m203.78 1628.8h40.284"/>
  <path id="path204" d="m203.7 1628.9h40.439"/>
  <path id="path206" d="m203.62 1629h40.594"/>
  <path id="path208" d="m203.55 1629.1h40.749"/>
  <path id="path210" d="m203.47 1629.3h40.904"/>
  <path id="path212" d="m203.39 1629.4h41.059"/>
  <path id="path214" d="m203.31 1629.5h41.214"/>
  <path id="path216" d="m203.24 1629.6h41.369"/>
  <path id="path218" d="m203.16 1629.7h41.524"/>
  <path id="path220" d="m203.08 1629.9h41.679"/>
  <path id="path222" d="m203 1630h41.834"/>
  <path id="path224" d="m202.93 1630.1h41.989"/>
  <path id="path226" d="m202.85 1630.2h42.144"/>
  <path id="path228" d="m202.79 1630.3h42.27"/>
  <path id="path230" d="m202.72 1630.5h42.397"/>
  <path id="path232" d="m202.66 1630.6h42.524"/>
  <path id="path234" d="m202.6 1630.7h42.651"/>
  <path id="path236" d="m202.53 1630.8h42.777"/>
  <path id="path238" d="m202.47 1631h42.904"/>
  <path id="path240" d="m202.41 1631.1h43.031"/>
  <path id="path242" d="m202.34 1631.2h43.157"/>
  <path id="path244" d="m202.28 1631.3h43.284"/>
  <path id="path246" d="m202.22 1631.4h43.41"/>
  <path id="path248" d="m202.15 1631.6h43.537"/>
  <path id="path250" d="m202.09 1631.7h43.664"/>
  <path id="path252" d="m202.03 1631.8h43.79"/>
  <path id="path254" d="m201.96 1631.9h43.917"/>
  <path id="path256" d="m201.9 1632h44.044"/>
  <path id="path258" d="m201.84 1632.2h44.157"/>
  <path id="path260" d="m201.79 1632.3h44.258"/>
  <path id="path262" d="m201.74 1632.4h44.359"/>
  <path id="path264" d="m201.69 1632.5h44.459"/>
  <path id="path266" d="m201.64 1632.7h44.56"/>
  <path id="path268" d="m201.59 1632.8h44.661"/>
  <path id="path270" d="m201.54 1632.9h44.761"/>
  <path id="path272" d="m201.49 1633h44.862"/>
  <path id="path274" d="m201.44 1633.1h44.963"/>
  <path id="path276" d="m201.39 1633.3h45.064"/>
  <path id="path278" d="m201.34 1633.4h45.165"/>
  <path id="path280" d="m201.29 1633.5h45.265"/>
  <path id="path282" d="m201.24 1633.6h45.366"/>
  <path id="path284" d="m201.19 1633.8h45.467"/>
  <path id="path286" d="m201.14 1633.9h45.568"/>
  <path id="path288" d="m201.09 1634h45.669"/>
  <path id="path290" d="m201.04 1634.1h45.76"/>
  <path id="path292" d="m201 1634.2h45.836"/>
  <path id="path294" d="m200.97 1634.4h45.913"/>
  <path id="path296" d="m200.93 1634.5h45.99"/>
  <path id="path298" d="m200.89 1634.6h46.067"/>
  <path id="path300" d="m200.85 1634.7h46.143"/>
  <path id="path302" d="m200.81 1634.8h46.22"/>
  <path id="path304" d="m200.77 1635h46.297"/>
  <path id="path306" d="m200.74 1635.1h46.373"/>
  <path id="path308" d="m200.7 1635.2h46.45"/>
  <path id="path310" d="m200.66 1635.3h46.527"/>
  <path id="path312" d="m200.62 1635.5h46.604"/>
  <path id="path314" d="m200.58 1635.6h46.68"/>
  <path id="path316" d="m200.54 1635.7h46.757"/>
  <path id="path318" d="m200.5 1635.8h46.834"/>
  <path id="path320" d="m200.47 1635.9h46.91"/>
  <path id="path322" d="m200.43 1636.1h46.987"/>
  <path id="path324" d="m200.4 1636.2h47.047"/>
  <path id="path326" d="m200.37 1636.3h47.101"/>
  <path id="path328" d="m200.34 1636.4h47.154"/>
  <path id="path330" d="m200.32 1636.6h47.208"/>
  <path id="path332" d="m200.29 1636.7h47.262"/>
  <path id="path334" d="m200.26 1636.8h47.316"/>
  <path id="path336" d="m200.24 1636.9h47.37"/>
  <path id="path338" d="m200.21 1637h47.424"/>
  <path id="path340" d="m200.18 1637.2h47.478"/>
  <path id="path342" d="m200.16 1637.3h47.532"/>
  <path id="path344" d="m200.13 1637.4h47.586"/>
  <path id="path346" d="m200.1 1637.5h47.64"/>
  <path id="path348" d="m200.07 1637.6h47.694"/>
  <path id="path350" d="m200.05 1637.8h47.748"/>
  <path id="path352" d="m200.02 1637.9h47.802"/>
  <path id="path354" d="m199.99 1638h47.856"/>
  <path id="path356" d="m199.97 1638.1h47.91"/>
  <path id="path358" d="m199.95 1638.3h47.947"/>
  <path id="path360" d="m199.93 1638.4h47.98"/>
  <path id="path362" d="m199.92 1638.5h48.012"/>
  <path id="path364" d="m199.9 1638.6h48.044"/>
  <path id="path366" d="m199.88 1638.7h48.076"/>
  <path id="path368" d="m199.87 1638.9h48.108"/>
  <path id="path370" d="m199.85 1639h48.14"/>
  <path id="path372" d="m199.84 1639.1h48.172"/>
  <path id="path374" d="m199.82 1639.2h48.204"/>
  <path id="path376" d="m199.8 1639.4h48.236"/>
  <path id="path378" d="m199.79 1639.5h48.268"/>
  <path id="path380" d="m199.77 1639.6h48.3"/>
  <path id="path382" d="m199.76 1639.7h48.332"/>
  <path id="path384" d="m199.74 1639.8h48.364"/>
  <path id="path386" d="m199.72 1640h48.396"/>
  <path id="path388" d="m199.71 1640.1h48.428"/>
  <path id="path390" d="m199.69 1640.2h48.46"/>
  <path id="path392" d="m199.68 1640.3h48.483"/>
  <path id="path394" d="m199.68 1640.4h48.493"/>
  <path id="path396" d="m199.67 1640.6h48.504"/>
  <path id="path398" d="m199.66 1640.7h48.515"/>
  <path id="path400" d="m199.66 1640.8h48.525"/>
  <path id="path402" d="m199.65 1640.9h48.536"/>
  <path id="path404" d="m199.65 1641.1h48.547"/>
  <path id="path406" d="m199.64 1641.2h48.557"/>
  <path id="path408" d="m199.64 1641.3h48.568"/>
  <path id="path410" d="m199.63 1641.4h48.579"/>
  <path id="path412" d="m199.63 1641.5h48.589"/>
  <path id="path414" d="m199.62 1641.7h48.6"/>
  <path id="path416" d="m199.62 1641.8h48.61"/>
  <path id="path418" d="m199.61 1641.9h48.621"/>
  <path id="path420" d="m199.61 1642h48.631"/>
  <path id="path422" d="m199.6 1642.1h48.642"/>
  <path id="path424" d="m199.6 1642.3h48.653"/>
  <path id="path426" d="m199.59 1642.4h48.663"/>
  <path id="path428" d="m199.6 1642.5h48.653"/>
  <path id="path430" d="m199.6 1642.6h48.642"/>
  <path id="path432" d="m199.61 1642.8h48.631"/>
  <path id="path434" d="m199.61 1642.9h48.621"/>
  <path id="path436" d="m199.62 1643h48.61"/>
  <path id="path438" d="m199.62 1643.1h48.6"/>
  <path id="path440" d="m199.63 1643.2h48.589"/>
  <path id="path442" d="m199.63 1643.4h48.579"/>
  <path id="path444" d="m199.64 1643.5h48.568"/>
  <path id="path446" d="m199.64 1643.6h48.557"/>
  <path id="path448" d="m199.65 1643.7h48.547"/>
  <path id="path450" d="m199.65 1643.9h48.536"/>
  <path id="path452" d="m199.66 1644h48.525"/>
  <path id="path454" d="m199.66 1644.1h48.515"/>
  <path id="path456" d="m199.67 1644.2h48.504"/>
  <path id="path458" d="m199.68 1644.3h48.493"/>
  <path id="path460" d="m199.68 1644.5h48.483"/>
  <path id="path462" d="m199.69 1644.6h48.46"/>
  <path id="path464" d="m199.71 1644.7h48.428"/>
  <path id="path466" d="m199.72 1644.8h48.396"/>
  <path id="path468" d="m199.74 1644.9h48.364"/>
  <path id="path470" d="m199.76 1645.1h48.332"/>
  <path id="path472" d="m199.77 1645.2h48.3"/>
  <path id="path474" d="m199.79 1645.3h48.268"/>
  <path id="path476" d="m199.8 1645.4h48.236"/>
  <path id="path478" d="m199.82 1645.6h48.204"/>
  <path id="path480" d="m199.84 1645.7h48.172"/>
  <path id="path482" d="m199.85 1645.8h48.14"/>
  <path id="path484" d="m199.87 1645.9h48.108"/>
  <path id="path486" d="m199.88 1646h48.076"/>
  <path id="path488" d="m199.9 1646.2h48.044"/>
  <path id="path490" d="m199.92 1646.3h48.012"/>
  <path id="path492" d="m199.93 1646.4h47.98"/>
  <path id="path494" d="m199.95 1646.5h47.947"/>
  <path id="path496" d="m199.97 1646.6h47.91"/>
  <path id="path498" d="m199.99 1646.8h47.856"/>
  <path id="path500" d="m200.02 1646.9h47.802"/>
  <path id="path502" d="m200.05 1647h47.748"/>
  <path id="path504" d="m200.07 1647.1h47.694"/>
  <path id="path506" d="m200.1 1647.3h47.64"/>
  <path id="path508" d="m200.13 1647.4h47.586"/>
  <path id="path510" d="m200.16 1647.5h47.532"/>
  <path id="path512" d="m200.18 1647.6h47.478"/>
  <path id="path514" d="m200.21 1647.7h47.424"/>
  <path id="path516" d="m200.24 1647.9h47.37"/>
  <path id="path518" d="m200.26 1648h47.316"/>
  <path id="path520" d="m200.29 1648.1h47.262"/>
  <path id="path522" d="m200.32 1648.2h47.208"/>
  <path id="path524" d="m200.34 1648.4h47.154"/>
  <path id="path526" d="m200.37 1648.5h47.101"/>
  <path id="path528" d="m200.4 1648.6h47.047"/>
  <path id="path530" d="m200.43 1648.7h46.987"/>
  <path id="path532" d="m200.47 1648.8h46.91"/>
  <path id="path534" d="m200.5 1649h46.834"/>
  <path id="path536" d="m200.54 1649.1h46.757"/>
  <path id="path538" d="m200.58 1649.2h46.68"/>
  <path id="path540" d="m200.62 1649.3h46.604"/>
  <path id="path542" d="m200.66 1649.4h46.527"/>
  <path id="path544" d="m200.7 1649.6h46.45"/>
  <path id="path546" d="m200.74 1649.7h46.373"/>
  <path id="path548" d="m200.77 1649.8h46.297"/>
  <path id="path550" d="m200.81 1649.9h46.22"/>
  <path id="path552" d="m200.85 1650.1h46.143"/>
  <path id="path554" d="m200.89 1650.2h46.067"/>
  <path id="path556" d="m200.93 1650.3h45.99"/>
  <path id="path558" d="m200.97 1650.4h45.913"/>
  <path id="path560" d="m201 1650.5h45.836"/>
  <path id="path562" d="m201.04 1650.7h45.76"/>
  <path id="path564" d="m201.09 1650.8h45.669"/>
  <path id="path566" d="m201.14 1650.9h45.568"/>
  <path id="path568" d="m201.19 1651h45.467"/>
  <path id="path570" d="m201.24 1651.2h45.366"/>
  <path id="path572" d="m201.29 1651.3h45.265"/>
  <path id="path574" d="m201.34 1651.4h45.165"/>
  <path id="path576" d="m201.39 1651.5h45.064"/>
  <path id="path578" d="m201.44 1651.6h44.963"/>
  <path id="path580" d="m201.49 1651.8h44.862"/>
  <path id="path582" d="m201.54 1651.9h44.761"/>
  <path id="path584" d="m201.59 1652h44.661"/>
  <path id="path586" d="m201.64 1652.1h44.56"/>
  <path id="path588" d="m201.69 1652.2h44.459"/>
  <path id="path590" d="m201.74 1652.4h44.359"/>
  <path id="path592" d="m201.79 1652.5h44.258"/>
  <path id="path594" d="m201.84 1652.6h44.157"/>
  <path id="path596" d="m201.9 1652.7h44.044"/>
  <path id="path598" d="m201.96 1652.9h43.917"/>
  <path id="path600" d="m202.03 1653h43.79"/>
  <path id="path602" d="m202.09 1653.1h43.664"/>
  <path id="path604" d="m202.15 1653.2h43.537"/>
  <path id="path606" d="m202.22 1653.3h43.41"/>
  <path id="path608" d="m202.28 1653.5h43.284"/>
  <path id="path610" d="m202.34 1653.6h43.157"/>
  <path id="path612" d="m202.41 1653.7h43.031"/>
  <path id="path614" d="m202.47 1653.8h42.904"/>
  <path id="path616" d="m202.53 1653.9h42.777"/>
  <path id="path618" d="m202.6 1654.1h42.651"/>
  <path id="path620" d="m202.66 1654.2h42.524"/>
  <path id="path622" d="m202.72 1654.3h42.397"/>
  <path id="path624" d="m202.79 1654.4h42.27"/>
  <path id="path626" d="m202.85 1654.6h42.144"/>
  <path id="path628" d="m202.93 1654.7h41.989"/>
  <path id="path630" d="m203 1654.8h41.834"/>
  <path id="path632" d="m203.08 1654.9h41.679"/>
  <path id="path634" d="m203.16 1655h41.524"/>
  <path id="path636" d="m203.24 1655.2h41.369"/>
  <path id="path638" d="m203.31 1655.3h41.214"/>
  <path id="path640" d="m203.39 1655.4h41.059"/>
  <path id="path642" d="m203.47 1655.5h40.904"/>
  <path id="path644" d="m203.55 1655.7h40.749"/>
  <path id="path646" d="m203.62 1655.8h40.594"/>
  <path id="path648" d="m203.7 1655.9h40.439"/>
  <path id="path650" d="m203.78 1656h40.284"/>
  <path id="path652" d="m203.86 1656.1h40.129"/>
  <path id="path654" d="m203.93 1656.3h39.974"/>
  <path id="path656" d="m204.02 1656.4h39.81"/>
  <path id="path658" d="m204.11 1656.5h39.623"/>
  <path id="path660" d="m204.2 1656.6h39.436"/>
  <path id="path662" d="m204.3 1656.7h39.25"/>
  <path id="path664" d="m204.39 1656.9h39.063"/>
  <path id="path666" d="m204.48 1657h38.876"/>
  <path id="path668" d="m204.58 1657.1h38.689"/>
  <path id="path670" d="m204.67 1657.2h38.503"/>
  <path id="path672" d="m204.76 1657.4h38.316"/>
  <path id="path674" d="m204.86 1657.5h38.129"/>
  <path id="path676" d="m204.95 1657.6h37.943"/>
  <path id="path678" d="m205.04 1657.7h37.756"/>
  <path id="path680" d="m205.14 1657.8h37.569"/>
  <path id="path682" d="m205.23 1658h37.382"/>
  <path id="path684" d="m205.33 1658.1h37.18"/>
  <path id="path686" d="m205.44 1658.2h36.957"/>
  <path id="path688" d="m205.55 1658.3h36.734"/>
  <path id="path690" d="m205.67 1658.4h36.511"/>
  <path id="path692" d="m205.78 1658.6h36.288"/>
  <path id="path694" d="m205.89 1658.7h36.065"/>
  <path id="path696" d="m206 1658.8h35.842"/>
  <path id="path698" d="m206.11 1658.9h35.619"/>
  <path id="path700" d="m206.22 1659.1h35.396"/>
  <path id="path702" d="m206.34 1659.2h35.173"/>
  <path id="path704" d="m206.45 1659.3h34.95"/>
  <path id="path706" d="m206.56 1659.4h34.727"/>
  <path id="path708" d="m206.67 1659.5h34.504"/>
  <path id="path710" d="m206.79 1659.7h34.257"/>
  <path id="path712" d="m206.93 1659.8h33.991"/>
  <path id="path714" d="m207.06 1659.9h33.726"/>
  <path id="path716" d="m207.19 1660h33.46"/>
  <path id="path718" d="m207.32 1660.2h33.194"/>
  <path id="path720" d="m207.46 1660.3h32.929"/>
  <path id="path722" d="m207.59 1660.4h32.663"/>
  <path id="path724" d="m207.72 1660.5h32.398"/>
  <path id="path726" d="m207.86 1660.6h32.132"/>
  <path id="path728" d="m207.99 1660.8h31.867"/>
  <path id="path730" d="m208.12 1660.9h31.601"/>
  <path id="path732" d="m208.25 1661h31.336"/>
  <path id="path734" d="m208.41 1661.1h31.029"/>
  <path id="path736" d="m208.57 1661.2h30.712"/>
  <path id="path738" d="m208.72 1661.4h30.395"/>
  <path id="path740" d="m208.88 1661.5h30.078"/>
  <path id="path742" d="m209.04 1661.6h29.761"/>
  <path id="path744" d="m209.2 1661.7h29.444"/>
  <path id="path746" d="m209.36 1661.9h29.127"/>
  <path id="path748" d="m209.52 1662h28.81"/>
  <path id="path750" d="m209.68 1662.1h28.493"/>
  <path id="path752" d="m209.83 1662.2h28.176"/>
  <path id="path754" d="m210 1662.3h27.847"/>
  <path id="path756" d="m210.19 1662.5h27.466"/>
  <path id="path758" d="m210.38 1662.6h27.084"/>
  <path id="path760" d="m210.57 1662.7h26.702"/>
  <path id="path762" d="m210.76 1662.8h26.32"/>
  <path id="path764" d="m210.95 1663h25.938"/>
  <path id="path766" d="m211.14 1663.1h25.556"/>
  <path id="path768" d="m211.33 1663.2h25.174"/>
  <path id="path770" d="m211.53 1663.3h24.792"/>
  <path id="path772" d="m211.72 1663.4h24.41"/>
  <path id="path774" d="m211.94 1663.6h23.96"/>
  <path id="path776" d="m212.18 1663.7h23.493"/>
  <path id="path778" d="m212.41 1663.8h23.025"/>
  <path id="path780" d="m212.64 1663.9h22.558"/>
  <path id="path782" d="m212.88 1664h22.091"/>
  <path id="path784" d="m213.11 1664.2h21.623"/>
  <path id="path786" d="m213.34 1664.3h21.156"/>
  <path id="path788" d="m213.58 1664.4h20.688"/>
  <path id="path790" d="m213.86 1664.5h20.132"/>
  <path id="path792" d="m214.15 1664.7h19.545"/>
  <path id="path794" d="m214.44 1664.8h18.957"/>
  <path id="path796" d="m214.74 1664.9h18.37"/>
  <path id="path798" d="m215.03 1665h17.783"/>
  <path id="path800" d="m215.32 1665.1h17.195"/>
  <path id="path802" d="m215.62 1665.3h16.596"/>
  <path id="path804" d="m216.01 1665.4h15.825"/>
  <path id="path806" d="m216.4 1665.5h15.053"/>
  <path id="path808" d="m216.78 1665.6h14.281"/>
  <path id="path810" d="m217.17 1665.8h13.51"/>
  <path id="path812" d="m217.55 1665.9h12.738"/>
  <path id="path814" d="m218.07 1666h11.701"/>
  <path id="path816" d="m218.62 1666.1h10.603"/>
  <path id="path818" d="m219.17 1666.2h9.506"/>
  <path id="path820" d="m219.73 1666.4h8.379"/>
  <path id="path822" d="m220.66 1666.5h6.531"/>
  <path id="path824" d="m221.58 1666.6h4.683"/>
 </g>
</svg>
