<?xml version="1.0" encoding="UTF-8" standalone="no"?>
<svg
   width="436.35895"
   height="579.28192"
   viewBox="0 0 436.35896 579.2819"
   version="1.1"
   id="svg828"
   sodipodi:docname="BUIREL15.hpgl.svg"
   inkscape:version="1.1.2 (0a00cf5339, 2022-02-04)"
   xmlns:inkscape="http://www.inkscape.org/namespaces/inkscape"
   xmlns:sodipodi="http://sodipodi.sourceforge.net/DTD/sodipodi-0.dtd"
   xmlns="http://www.w3.org/2000/svg"
   xmlns:svg="http://www.w3.org/2000/svg">
  <defs
     id="defs832" />
  <sodipodi:namedview
     id="namedview830"
     pagecolor="#ffffff"
     bordercolor="#666666"
     borderopacity="1.0"
     inkscape:pageshadow="2"
     inkscape:pageopacity="0.0"
     inkscape:pagecheckerboard="0"
     showgrid="false"
     inkscape:zoom="1.2682364"
     inkscape:cx="217.62504"
     inkscape:cy="-908.74224"
     inkscape:window-width="1495"
     inkscape:window-height="970"
     inkscape:window-x="0"
     inkscape:window-y="32"
     inkscape:window-maximized="0"
     inkscape:current-layer="svg828" />
  <g
     id="g2"
     transform="translate(5.8503666,-1192.3343)" />
  <g
     style="fill:none;stroke:#000000;stroke-width:1mm"
     id="g4"
     transform="translate(5.8503666,-1192.3343)" />
  <g
     style="fill:none;stroke:#000000;stroke-width:4mm"
     id="g826"
     transform="translate(5.8503666,-1192.3343)">
    <path
       d="m 0.06920346,1197.121 32.84799954,41.364 36.498,32.848 41.363997,20.682 41.364,17.032 45.013,6.083 35.281,-2.433 37.715,-3.65 42.58,-14.599 31.631,-19.466 27.982,-18.248"
       id="path6" />
    <path
       d="m 372.3452,1256.734 24.332,-25.549 17.032,-20.682 10.949,-13.382"
       id="path8" />
    <path
       d="m 341.9302,1643.608 -0.458,10.497 -1.372,10.418 -2.274,10.258 -3.159,10.021 -4.021,9.707 -4.852,9.32 -5.646,8.862 -6.396,8.336 -7.098,7.746 -7.747,7.099"
       id="path10" />
    <path
       d="m 298.9072,1735.872 -8.336,6.396 -8.862,5.646 -9.32,4.852 -9.707,4.02 -10.021,3.16 -10.258,2.274 -10.418,1.372 -10.497,0.458 -10.497,-0.458 -10.417,-1.372"
       id="path12" />
    <path
       d="m 200.5742,1762.22 -10.259,-2.274 -10.02,-3.16 -9.708,-4.02 -9.32,-4.852 -8.862,-5.646 -8.336,-6.396 -7.746,-7.099 -7.099,-7.746 -6.396,-8.336 -5.646,-8.862"
       id="path14" />
    <path
       d="m 117.1822,1703.829 -4.851,-9.32 -4.021,-9.707 -3.16,-10.021 -2.274,-10.258 -1.372,-10.418 -0.458,-10.497 0.458,-10.497 1.372,-10.418 2.274,-10.258 3.16,-10.021"
       id="path16" />
    <path
       d="m 108.3102,1602.414 4.021,-9.707 4.851,-9.32 5.646,-8.862 6.396,-8.336 7.099,-7.746 7.746,-7.099 8.336,-6.396 8.862,-5.646 9.32,-4.852 9.708,-4.02"
       id="path18" />
    <path
       d="m 180.2952,1530.43 10.02,-3.16 10.259,-2.274 10.417,-1.372 10.497,-0.458 10.497,0.458 10.418,1.372 10.258,2.274 10.021,3.159 9.707,4.021 9.32,4.852"
       id="path20" />
    <path
       d="m 281.7092,1539.302 8.862,5.646 8.336,6.396 7.746,7.099 7.099,7.746 6.396,8.336 5.646,8.862 4.852,9.32 4.021,9.707 3.159,10.021 2.274,10.258"
       id="path22" />
    <path
       d="m 340.1002,1622.693 1.372,10.418 0.458,10.497 -0.458,10.497"
       id="path24" />
    <path
       d="M 221.4882,1517.083 V 1312.697"
       id="path26" />
    <path
       d="m 221.5802,1618.181 h 4.683"
       id="path28" />
    <path
       d="m 220.6562,1618.303 h 6.531"
       id="path30" />
    <path
       d="m 219.7322,1618.425 h 8.379"
       id="path32" />
    <path
       d="m 219.1682,1618.546 h 9.506"
       id="path34" />
    <path
       d="m 218.6202,1618.668 h 10.603"
       id="path36" />
    <path
       d="m 218.0712,1618.79 h 11.701"
       id="path38" />
    <path
       d="m 217.5522,1618.911 h 12.738"
       id="path40" />
    <path
       d="m 217.1662,1619.033 h 13.51"
       id="path42" />
    <path
       d="m 216.7812,1619.155 h 14.281"
       id="path44" />
    <path
       d="m 216.3952,1619.276 h 15.053"
       id="path46" />
    <path
       d="m 216.0092,1619.398 h 15.825"
       id="path48" />
    <path
       d="m 215.6232,1619.52 h 16.596"
       id="path50" />
    <path
       d="m 215.3242,1619.641 h 17.195"
       id="path52" />
    <path
       d="m 215.0302,1619.763 h 17.783"
       id="path54" />
    <path
       d="m 214.7362,1619.885 h 18.37"
       id="path56" />
    <path
       d="m 214.4432,1620.006 h 18.957"
       id="path58" />
    <path
       d="m 214.1492,1620.128 h 19.545"
       id="path60" />
    <path
       d="m 213.8552,1620.25 h 20.132"
       id="path62" />
    <path
       d="m 213.5772,1620.371 h 20.688"
       id="path64" />
    <path
       d="m 213.3432,1620.493 h 21.156"
       id="path66" />
    <path
       d="m 213.1102,1620.614 h 21.623"
       id="path68" />
    <path
       d="m 212.8762,1620.736 h 22.091"
       id="path70" />
    <path
       d="m 212.6422,1620.858 h 22.558"
       id="path72" />
    <path
       d="m 212.4092,1620.98 h 23.025"
       id="path74" />
    <path
       d="m 212.1752,1621.101 h 23.493"
       id="path76" />
    <path
       d="m 211.9412,1621.223 h 23.96"
       id="path78" />
    <path
       d="m 211.7162,1621.344 h 24.41"
       id="path80" />
    <path
       d="m 211.5252,1621.466 h 24.792"
       id="path82" />
    <path
       d="m 211.3342,1621.588 h 25.174"
       id="path84" />
    <path
       d="m 211.1432,1621.709 h 25.556"
       id="path86" />
    <path
       d="m 210.9522,1621.831 h 25.938"
       id="path88" />
    <path
       d="m 210.7612,1621.953 h 26.32"
       id="path90" />
    <path
       d="m 210.5702,1622.074 h 26.702"
       id="path92" />
    <path
       d="m 210.3792,1622.196 h 27.084"
       id="path94" />
    <path
       d="m 210.1882,1622.318 h 27.466"
       id="path96" />
    <path
       d="m 209.9982,1622.439 h 27.847"
       id="path98" />
    <path
       d="m 209.8332,1622.561 h 28.176"
       id="path100" />
    <path
       d="m 209.6752,1622.683 h 28.493"
       id="path102" />
    <path
       d="m 209.5162,1622.804 h 28.81"
       id="path104" />
    <path
       d="m 209.3582,1622.926 h 29.127"
       id="path106" />
    <path
       d="m 209.1992,1623.048 h 29.444"
       id="path108" />
    <path
       d="m 209.0412,1623.169 h 29.761"
       id="path110" />
    <path
       d="m 208.8822,1623.291 h 30.078"
       id="path112" />
    <path
       d="m 208.7242,1623.413 h 30.395"
       id="path114" />
    <path
       d="m 208.5652,1623.534 h 30.712"
       id="path116" />
    <path
       d="m 208.4072,1623.656 h 31.029"
       id="path118" />
    <path
       d="m 208.2532,1623.778 h 31.336"
       id="path120" />
    <path
       d="m 208.1212,1623.899 h 31.601"
       id="path122" />
    <path
       d="m 207.9882,1624.021 h 31.867"
       id="path124" />
    <path
       d="m 207.8552,1624.143 h 32.132"
       id="path126" />
    <path
       d="m 207.7222,1624.264 h 32.398"
       id="path128" />
    <path
       d="m 207.5902,1624.386 h 32.663"
       id="path130" />
    <path
       d="m 207.4572,1624.508 h 32.929"
       id="path132" />
    <path
       d="m 207.3242,1624.629 h 33.194"
       id="path134" />
    <path
       d="m 207.1912,1624.751 h 33.46"
       id="path136" />
    <path
       d="m 207.0582,1624.873 h 33.726"
       id="path138" />
    <path
       d="m 206.9262,1624.994 h 33.991"
       id="path140" />
    <path
       d="m 206.7932,1625.116 h 34.257"
       id="path142" />
    <path
       d="m 206.6692,1625.238 h 34.504"
       id="path144" />
    <path
       d="m 206.5582,1625.359 h 34.727"
       id="path146" />
    <path
       d="m 206.4462,1625.481 h 34.95"
       id="path148" />
    <path
       d="m 206.3352,1625.603 h 35.173"
       id="path150" />
    <path
       d="m 206.2232,1625.724 h 35.396"
       id="path152" />
    <path
       d="m 206.1122,1625.846 h 35.619"
       id="path154" />
    <path
       d="m 206.0002,1625.967 h 35.842"
       id="path156" />
    <path
       d="m 205.8892,1626.089 h 36.065"
       id="path158" />
    <path
       d="m 205.7772,1626.211 h 36.288"
       id="path160" />
    <path
       d="m 205.6662,1626.332 h 36.511"
       id="path162" />
    <path
       d="m 205.5542,1626.454 h 36.734"
       id="path164" />
    <path
       d="m 205.4432,1626.576 h 36.957"
       id="path166" />
    <path
       d="m 205.3312,1626.697 h 37.18"
       id="path168" />
    <path
       d="m 205.2302,1626.819 h 37.382"
       id="path170" />
    <path
       d="m 205.1372,1626.941 h 37.569"
       id="path172" />
    <path
       d="m 205.0432,1627.062 h 37.756"
       id="path174" />
    <path
       d="m 204.9502,1627.184 h 37.943"
       id="path176" />
    <path
       d="m 204.8572,1627.306 h 38.129"
       id="path178" />
    <path
       d="m 204.7632,1627.427 h 38.316"
       id="path180" />
    <path
       d="m 204.6702,1627.549 h 38.503"
       id="path182" />
    <path
       d="m 204.5772,1627.671 h 38.689"
       id="path184" />
    <path
       d="m 204.4832,1627.792 h 38.876"
       id="path186" />
    <path
       d="m 204.3902,1627.914 h 39.063"
       id="path188" />
    <path
       d="m 204.2972,1628.036 h 39.249"
       id="path190" />
    <path
       d="m 204.2032,1628.157 h 39.436"
       id="path192" />
    <path
       d="m 204.1102,1628.279 h 39.623"
       id="path194" />
    <path
       d="m 204.0162,1628.401 h 39.81"
       id="path196" />
    <path
       d="m 203.9342,1628.522 h 39.974"
       id="path198" />
    <path
       d="m 203.8572,1628.644 h 40.129"
       id="path200" />
    <path
       d="m 203.7792,1628.766 h 40.284"
       id="path202" />
    <path
       d="m 203.7022,1628.887 h 40.439"
       id="path204" />
    <path
       d="m 203.6242,1629.009 h 40.594"
       id="path206" />
    <path
       d="m 203.5472,1629.131 h 40.749"
       id="path208" />
    <path
       d="m 203.4692,1629.252 h 40.904"
       id="path210" />
    <path
       d="m 203.3922,1629.374 h 41.059"
       id="path212" />
    <path
       d="m 203.3142,1629.496 h 41.214"
       id="path214" />
    <path
       d="m 203.2372,1629.617 h 41.369"
       id="path216" />
    <path
       d="m 203.1592,1629.739 h 41.524"
       id="path218" />
    <path
       d="m 203.0822,1629.861 h 41.679"
       id="path220" />
    <path
       d="m 203.0042,1629.982 h 41.834"
       id="path222" />
    <path
       d="m 202.9272,1630.104 h 41.989"
       id="path224" />
    <path
       d="m 202.8492,1630.226 h 42.144"
       id="path226" />
    <path
       d="m 202.7862,1630.347 h 42.27"
       id="path228" />
    <path
       d="m 202.7232,1630.469 h 42.397"
       id="path230" />
    <path
       d="m 202.6592,1630.591 h 42.524"
       id="path232" />
    <path
       d="m 202.5962,1630.712 h 42.651"
       id="path234" />
    <path
       d="m 202.5332,1630.834 h 42.777"
       id="path236" />
    <path
       d="m 202.4692,1630.955 h 42.904"
       id="path238" />
    <path
       d="m 202.4062,1631.077 h 43.031"
       id="path240" />
    <path
       d="m 202.3432,1631.199 h 43.157"
       id="path242" />
    <path
       d="m 202.2792,1631.321 h 43.284"
       id="path244" />
    <path
       d="m 202.2162,1631.442 h 43.41"
       id="path246" />
    <path
       d="m 202.1532,1631.564 h 43.537"
       id="path248" />
    <path
       d="m 202.0892,1631.685 h 43.664"
       id="path250" />
    <path
       d="m 202.0262,1631.807 h 43.79"
       id="path252" />
    <path
       d="m 201.9632,1631.929 h 43.917"
       id="path254" />
    <path
       d="m 201.8992,1632.05 h 44.044"
       id="path256" />
    <path
       d="m 201.8432,1632.172 h 44.157"
       id="path258" />
    <path
       d="m 201.7922,1632.294 h 44.258"
       id="path260" />
    <path
       d="m 201.7422,1632.415 h 44.359"
       id="path262" />
    <path
       d="m 201.6922,1632.537 h 44.459"
       id="path264" />
    <path
       d="m 201.6412,1632.659 h 44.56"
       id="path266" />
    <path
       d="m 201.5912,1632.78 h 44.661"
       id="path268" />
    <path
       d="m 201.5412,1632.902 h 44.761"
       id="path270" />
    <path
       d="m 201.4902,1633.024 h 44.862"
       id="path272" />
    <path
       d="m 201.4402,1633.145 h 44.963"
       id="path274" />
    <path
       d="m 201.3892,1633.267 h 45.064"
       id="path276" />
    <path
       d="m 201.3392,1633.389 h 45.165"
       id="path278" />
    <path
       d="m 201.2892,1633.51 h 45.265"
       id="path280" />
    <path
       d="m 201.2382,1633.632 h 45.366"
       id="path282" />
    <path
       d="m 201.1882,1633.754 h 45.467"
       id="path284" />
    <path
       d="m 201.1372,1633.875 h 45.568"
       id="path286" />
    <path
       d="m 201.0872,1633.997 h 45.669"
       id="path288" />
    <path
       d="m 201.0412,1634.119 h 45.76"
       id="path290" />
    <path
       d="m 201.0032,1634.24 h 45.836"
       id="path292" />
    <path
       d="m 200.9652,1634.362 h 45.913"
       id="path294" />
    <path
       d="m 200.9262,1634.484 h 45.99"
       id="path296" />
    <path
       d="m 200.8882,1634.605 h 46.067"
       id="path298" />
    <path
       d="m 200.8502,1634.727 h 46.143"
       id="path300" />
    <path
       d="m 200.8112,1634.849 h 46.22"
       id="path302" />
    <path
       d="m 200.7732,1634.97 h 46.297"
       id="path304" />
    <path
       d="m 200.7352,1635.092 h 46.373"
       id="path306" />
    <path
       d="m 200.6962,1635.214 h 46.45"
       id="path308" />
    <path
       d="m 200.6582,1635.335 h 46.527"
       id="path310" />
    <path
       d="m 200.6192,1635.457 h 46.604"
       id="path312" />
    <path
       d="m 200.5812,1635.579 h 46.68"
       id="path314" />
    <path
       d="m 200.5432,1635.7 h 46.757"
       id="path316" />
    <path
       d="m 200.5042,1635.822 h 46.834"
       id="path318" />
    <path
       d="m 200.4662,1635.944 h 46.91"
       id="path320" />
    <path
       d="m 200.4282,1636.065 h 46.987"
       id="path322" />
    <path
       d="m 200.3982,1636.187 h 47.047"
       id="path324" />
    <path
       d="m 200.3712,1636.308 h 47.101"
       id="path326" />
    <path
       d="m 200.3442,1636.43 h 47.154"
       id="path328" />
    <path
       d="m 200.3172,1636.552 h 47.208"
       id="path330" />
    <path
       d="m 200.2902,1636.673 h 47.262"
       id="path332" />
    <path
       d="m 200.2632,1636.795 h 47.316"
       id="path334" />
    <path
       d="m 200.2362,1636.917 h 47.37"
       id="path336" />
    <path
       d="m 200.2092,1637.038 h 47.424"
       id="path338" />
    <path
       d="m 200.1822,1637.16 h 47.478"
       id="path340" />
    <path
       d="m 200.1552,1637.282 h 47.532"
       id="path342" />
    <path
       d="m 200.1282,1637.403 h 47.586"
       id="path344" />
    <path
       d="m 200.1012,1637.525 h 47.64"
       id="path346" />
    <path
       d="m 200.0742,1637.647 h 47.694"
       id="path348" />
    <path
       d="m 200.0472,1637.768 h 47.748"
       id="path350" />
    <path
       d="m 200.0202,1637.89 h 47.802"
       id="path352" />
    <path
       d="m 199.9932,1638.012 h 47.856"
       id="path354" />
    <path
       d="m 199.9662,1638.133 h 47.91"
       id="path356" />
    <path
       d="m 199.9482,1638.255 h 47.947"
       id="path358" />
    <path
       d="m 199.9312,1638.377 h 47.98"
       id="path360" />
    <path
       d="m 199.9152,1638.498 h 48.012"
       id="path362" />
    <path
       d="m 199.8992,1638.62 h 48.044"
       id="path364" />
    <path
       d="m 199.8832,1638.742 h 48.076"
       id="path366" />
    <path
       d="m 199.8672,1638.863 h 48.108"
       id="path368" />
    <path
       d="m 199.8512,1638.985 h 48.14"
       id="path370" />
    <path
       d="m 199.8352,1639.107 h 48.172"
       id="path372" />
    <path
       d="m 199.8192,1639.228 h 48.204"
       id="path374" />
    <path
       d="m 199.8032,1639.35 h 48.236"
       id="path376" />
    <path
       d="m 199.7872,1639.472 h 48.268"
       id="path378" />
    <path
       d="m 199.7712,1639.593 h 48.3"
       id="path380" />
    <path
       d="m 199.7552,1639.715 h 48.332"
       id="path382" />
    <path
       d="m 199.7392,1639.837 h 48.364"
       id="path384" />
    <path
       d="m 199.7232,1639.958 h 48.396"
       id="path386" />
    <path
       d="m 199.7072,1640.08 h 48.428"
       id="path388" />
    <path
       d="m 199.6912,1640.202 h 48.46"
       id="path390" />
    <path
       d="m 199.6802,1640.323 h 48.483"
       id="path392" />
    <path
       d="m 199.6752,1640.445 h 48.493"
       id="path394" />
    <path
       d="m 199.6692,1640.567 h 48.504"
       id="path396" />
    <path
       d="m 199.6642,1640.688 h 48.515"
       id="path398" />
    <path
       d="m 199.6592,1640.81 h 48.525"
       id="path400" />
    <path
       d="m 199.6532,1640.931 h 48.536"
       id="path402" />
    <path
       d="m 199.6482,1641.053 h 48.547"
       id="path404" />
    <path
       d="m 199.6432,1641.175 h 48.557"
       id="path406" />
    <path
       d="m 199.6372,1641.296 h 48.568"
       id="path408" />
    <path
       d="m 199.6322,1641.418 h 48.579"
       id="path410" />
    <path
       d="m 199.6272,1641.54 h 48.589"
       id="path412" />
    <path
       d="m 199.6212,1641.661 h 48.6"
       id="path414" />
    <path
       d="m 199.6162,1641.783 h 48.61"
       id="path416" />
    <path
       d="m 199.6112,1641.905 h 48.621"
       id="path418" />
    <path
       d="m 199.6062,1642.026 h 48.631"
       id="path420" />
    <path
       d="m 199.6002,1642.148 h 48.642"
       id="path422" />
    <path
       d="m 199.5952,1642.27 h 48.653"
       id="path424" />
    <path
       d="m 199.5902,1642.391 h 48.663"
       id="path426" />
    <path
       d="m 199.5952,1642.513 h 48.653"
       id="path428" />
    <path
       d="m 199.6002,1642.635 h 48.642"
       id="path430" />
    <path
       d="m 199.6062,1642.756 h 48.631"
       id="path432" />
    <path
       d="m 199.6112,1642.878 h 48.621"
       id="path434" />
    <path
       d="m 199.6162,1643 h 48.61"
       id="path436" />
    <path
       d="m 199.6212,1643.121 h 48.6"
       id="path438" />
    <path
       d="m 199.6272,1643.243 h 48.589"
       id="path440" />
    <path
       d="m 199.6322,1643.365 h 48.579"
       id="path442" />
    <path
       d="m 199.6372,1643.486 h 48.568"
       id="path444" />
    <path
       d="m 199.6432,1643.608 h 48.557"
       id="path446" />
    <path
       d="m 199.6482,1643.73 h 48.547"
       id="path448" />
    <path
       d="m 199.6532,1643.851 h 48.536"
       id="path450" />
    <path
       d="m 199.6592,1643.973 h 48.525"
       id="path452" />
    <path
       d="m 199.6642,1644.095 h 48.515"
       id="path454" />
    <path
       d="m 199.6692,1644.216 h 48.504"
       id="path456" />
    <path
       d="m 199.6752,1644.338 h 48.493"
       id="path458" />
    <path
       d="m 199.6802,1644.46 h 48.483"
       id="path460" />
    <path
       d="m 199.6912,1644.581 h 48.46"
       id="path462" />
    <path
       d="m 199.7072,1644.703 h 48.428"
       id="path464" />
    <path
       d="m 199.7232,1644.825 h 48.396"
       id="path466" />
    <path
       d="m 199.7392,1644.946 h 48.364"
       id="path468" />
    <path
       d="m 199.7552,1645.068 h 48.332"
       id="path470" />
    <path
       d="m 199.7712,1645.19 h 48.3"
       id="path472" />
    <path
       d="m 199.7872,1645.311 h 48.268"
       id="path474" />
    <path
       d="m 199.8032,1645.433 h 48.236"
       id="path476" />
    <path
       d="m 199.8192,1645.555 h 48.204"
       id="path478" />
    <path
       d="m 199.8352,1645.676 h 48.172"
       id="path480" />
    <path
       d="m 199.8512,1645.798 h 48.14"
       id="path482" />
    <path
       d="m 199.8672,1645.92 h 48.108"
       id="path484" />
    <path
       d="m 199.8832,1646.041 h 48.076"
       id="path486" />
    <path
       d="m 199.8992,1646.163 h 48.044"
       id="path488" />
    <path
       d="m 199.9152,1646.285 h 48.012"
       id="path490" />
    <path
       d="m 199.9312,1646.406 h 47.98"
       id="path492" />
    <path
       d="m 199.9482,1646.528 h 47.947"
       id="path494" />
    <path
       d="m 199.9662,1646.649 h 47.91"
       id="path496" />
    <path
       d="m 199.9932,1646.771 h 47.856"
       id="path498" />
    <path
       d="m 200.0202,1646.893 h 47.802"
       id="path500" />
    <path
       d="m 200.0472,1647.014 h 47.748"
       id="path502" />
    <path
       d="m 200.0742,1647.136 h 47.694"
       id="path504" />
    <path
       d="m 200.1012,1647.258 h 47.64"
       id="path506" />
    <path
       d="m 200.1282,1647.379 h 47.586"
       id="path508" />
    <path
       d="m 200.1552,1647.501 h 47.532"
       id="path510" />
    <path
       d="m 200.1822,1647.623 h 47.478"
       id="path512" />
    <path
       d="m 200.2092,1647.744 h 47.424"
       id="path514" />
    <path
       d="m 200.2362,1647.866 h 47.37"
       id="path516" />
    <path
       d="m 200.2632,1647.988 h 47.316"
       id="path518" />
    <path
       d="m 200.2902,1648.109 h 47.262"
       id="path520" />
    <path
       d="m 200.3172,1648.231 h 47.208"
       id="path522" />
    <path
       d="m 200.3442,1648.353 h 47.154"
       id="path524" />
    <path
       d="m 200.3712,1648.474 h 47.101"
       id="path526" />
    <path
       d="m 200.3982,1648.596 h 47.047"
       id="path528" />
    <path
       d="m 200.4282,1648.718 h 46.987"
       id="path530" />
    <path
       d="m 200.4662,1648.839 h 46.91"
       id="path532" />
    <path
       d="m 200.5042,1648.961 h 46.834"
       id="path534" />
    <path
       d="m 200.5432,1649.083 h 46.757"
       id="path536" />
    <path
       d="m 200.5812,1649.204 h 46.68"
       id="path538" />
    <path
       d="m 200.6192,1649.326 h 46.604"
       id="path540" />
    <path
       d="m 200.6582,1649.448 h 46.527"
       id="path542" />
    <path
       d="m 200.6962,1649.569 h 46.45"
       id="path544" />
    <path
       d="m 200.7352,1649.691 h 46.373"
       id="path546" />
    <path
       d="m 200.7732,1649.813 h 46.297"
       id="path548" />
    <path
       d="m 200.8112,1649.934 h 46.22"
       id="path550" />
    <path
       d="m 200.8502,1650.056 h 46.143"
       id="path552" />
    <path
       d="m 200.8882,1650.178 h 46.067"
       id="path554" />
    <path
       d="m 200.9262,1650.299 h 45.99"
       id="path556" />
    <path
       d="m 200.9652,1650.421 h 45.913"
       id="path558" />
    <path
       d="m 201.0032,1650.543 h 45.836"
       id="path560" />
    <path
       d="m 201.0412,1650.664 h 45.76"
       id="path562" />
    <path
       d="m 201.0872,1650.786 h 45.669"
       id="path564" />
    <path
       d="m 201.1372,1650.908 h 45.568"
       id="path566" />
    <path
       d="m 201.1882,1651.029 h 45.467"
       id="path568" />
    <path
       d="m 201.2382,1651.151 h 45.366"
       id="path570" />
    <path
       d="m 201.2892,1651.272 h 45.265"
       id="path572" />
    <path
       d="m 201.3392,1651.394 h 45.165"
       id="path574" />
    <path
       d="m 201.3892,1651.516 h 45.064"
       id="path576" />
    <path
       d="m 201.4402,1651.637 h 44.963"
       id="path578" />
    <path
       d="m 201.4902,1651.759 h 44.862"
       id="path580" />
    <path
       d="m 201.5412,1651.881 h 44.761"
       id="path582" />
    <path
       d="m 201.5912,1652.002 h 44.661"
       id="path584" />
    <path
       d="m 201.6412,1652.124 h 44.56"
       id="path586" />
    <path
       d="m 201.6922,1652.246 h 44.459"
       id="path588" />
    <path
       d="m 201.7422,1652.367 h 44.359"
       id="path590" />
    <path
       d="m 201.7922,1652.489 h 44.258"
       id="path592" />
    <path
       d="m 201.8432,1652.611 h 44.157"
       id="path594" />
    <path
       d="m 201.8992,1652.732 h 44.044"
       id="path596" />
    <path
       d="m 201.9632,1652.854 h 43.917"
       id="path598" />
    <path
       d="m 202.0262,1652.976 h 43.79"
       id="path600" />
    <path
       d="m 202.0892,1653.097 h 43.664"
       id="path602" />
    <path
       d="m 202.1532,1653.219 h 43.537"
       id="path604" />
    <path
       d="m 202.2162,1653.341 h 43.41"
       id="path606" />
    <path
       d="m 202.2792,1653.462 h 43.284"
       id="path608" />
    <path
       d="m 202.3432,1653.584 h 43.157"
       id="path610" />
    <path
       d="m 202.4062,1653.706 h 43.031"
       id="path612" />
    <path
       d="m 202.4692,1653.827 h 42.904"
       id="path614" />
    <path
       d="m 202.5332,1653.949 h 42.777"
       id="path616" />
    <path
       d="m 202.5962,1654.071 h 42.651"
       id="path618" />
    <path
       d="m 202.6592,1654.192 h 42.524"
       id="path620" />
    <path
       d="m 202.7232,1654.314 h 42.397"
       id="path622" />
    <path
       d="m 202.7862,1654.436 h 42.27"
       id="path624" />
    <path
       d="m 202.8492,1654.557 h 42.144"
       id="path626" />
    <path
       d="m 202.9272,1654.679 h 41.989"
       id="path628" />
    <path
       d="m 203.0042,1654.801 h 41.834"
       id="path630" />
    <path
       d="m 203.0822,1654.922 h 41.679"
       id="path632" />
    <path
       d="m 203.1592,1655.044 h 41.524"
       id="path634" />
    <path
       d="m 203.2372,1655.166 h 41.369"
       id="path636" />
    <path
       d="m 203.3142,1655.287 h 41.214"
       id="path638" />
    <path
       d="m 203.3922,1655.409 h 41.059"
       id="path640" />
    <path
       d="m 203.4692,1655.531 h 40.904"
       id="path642" />
    <path
       d="m 203.5472,1655.652 h 40.749"
       id="path644" />
    <path
       d="m 203.6242,1655.774 h 40.594"
       id="path646" />
    <path
       d="m 203.7022,1655.895 h 40.439"
       id="path648" />
    <path
       d="m 203.7792,1656.017 h 40.284"
       id="path650" />
    <path
       d="m 203.8572,1656.139 h 40.129"
       id="path652" />
    <path
       d="m 203.9342,1656.261 h 39.974"
       id="path654" />
    <path
       d="m 204.0162,1656.382 h 39.81"
       id="path656" />
    <path
       d="m 204.1102,1656.504 h 39.623"
       id="path658" />
    <path
       d="m 204.2032,1656.625 h 39.436"
       id="path660" />
    <path
       d="m 204.2962,1656.747 h 39.25"
       id="path662" />
    <path
       d="m 204.3902,1656.869 h 39.063"
       id="path664" />
    <path
       d="m 204.4832,1656.99 h 38.876"
       id="path666" />
    <path
       d="m 204.5772,1657.112 h 38.689"
       id="path668" />
    <path
       d="m 204.6702,1657.234 h 38.503"
       id="path670" />
    <path
       d="m 204.7632,1657.355 h 38.316"
       id="path672" />
    <path
       d="m 204.8572,1657.477 h 38.129"
       id="path674" />
    <path
       d="m 204.9502,1657.599 h 37.943"
       id="path676" />
    <path
       d="m 205.0432,1657.72 h 37.756"
       id="path678" />
    <path
       d="m 205.1372,1657.842 h 37.569"
       id="path680" />
    <path
       d="m 205.2302,1657.964 h 37.382"
       id="path682" />
    <path
       d="m 205.3312,1658.085 h 37.18"
       id="path684" />
    <path
       d="m 205.4432,1658.207 h 36.957"
       id="path686" />
    <path
       d="m 205.5542,1658.329 h 36.734"
       id="path688" />
    <path
       d="m 205.6662,1658.45 h 36.511"
       id="path690" />
    <path
       d="m 205.7772,1658.572 h 36.288"
       id="path692" />
    <path
       d="m 205.8892,1658.694 h 36.065"
       id="path694" />
    <path
       d="m 206.0002,1658.815 h 35.842"
       id="path696" />
    <path
       d="m 206.1122,1658.937 h 35.619"
       id="path698" />
    <path
       d="m 206.2232,1659.059 h 35.396"
       id="path700" />
    <path
       d="m 206.3352,1659.18 h 35.173"
       id="path702" />
    <path
       d="m 206.4462,1659.302 h 34.95"
       id="path704" />
    <path
       d="m 206.5582,1659.424 h 34.727"
       id="path706" />
    <path
       d="m 206.6692,1659.545 h 34.504"
       id="path708" />
    <path
       d="m 206.7932,1659.667 h 34.257"
       id="path710" />
    <path
       d="m 206.9262,1659.789 h 33.991"
       id="path712" />
    <path
       d="m 207.0582,1659.91 h 33.726"
       id="path714" />
    <path
       d="m 207.1912,1660.032 h 33.46"
       id="path716" />
    <path
       d="m 207.3242,1660.154 h 33.194"
       id="path718" />
    <path
       d="m 207.4572,1660.275 h 32.929"
       id="path720" />
    <path
       d="m 207.5902,1660.397 h 32.663"
       id="path722" />
    <path
       d="m 207.7222,1660.519 h 32.398"
       id="path724" />
    <path
       d="m 207.8552,1660.64 h 32.132"
       id="path726" />
    <path
       d="m 207.9882,1660.762 h 31.867"
       id="path728" />
    <path
       d="m 208.1212,1660.884 h 31.601"
       id="path730" />
    <path
       d="m 208.2532,1661.005 h 31.336"
       id="path732" />
    <path
       d="m 208.4072,1661.127 h 31.029"
       id="path734" />
    <path
       d="m 208.5652,1661.249 h 30.712"
       id="path736" />
    <path
       d="m 208.7242,1661.37 h 30.395"
       id="path738" />
    <path
       d="m 208.8822,1661.492 h 30.078"
       id="path740" />
    <path
       d="m 209.0412,1661.613 h 29.761"
       id="path742" />
    <path
       d="m 209.1992,1661.735 h 29.444"
       id="path744" />
    <path
       d="m 209.3582,1661.857 h 29.127"
       id="path746" />
    <path
       d="m 209.5162,1661.978 h 28.81"
       id="path748" />
    <path
       d="m 209.6752,1662.1 h 28.493"
       id="path750" />
    <path
       d="m 209.8332,1662.222 h 28.176"
       id="path752" />
    <path
       d="m 209.9982,1662.343 h 27.847"
       id="path754" />
    <path
       d="m 210.1882,1662.465 h 27.466"
       id="path756" />
    <path
       d="m 210.3792,1662.587 h 27.084"
       id="path758" />
    <path
       d="m 210.5702,1662.708 h 26.702"
       id="path760" />
    <path
       d="m 210.7612,1662.83 h 26.32"
       id="path762" />
    <path
       d="m 210.9522,1662.952 h 25.938"
       id="path764" />
    <path
       d="m 211.1432,1663.073 h 25.556"
       id="path766" />
    <path
       d="m 211.3342,1663.195 h 25.174"
       id="path768" />
    <path
       d="m 211.5252,1663.317 h 24.792"
       id="path770" />
    <path
       d="m 211.7162,1663.438 h 24.41"
       id="path772" />
    <path
       d="m 211.9412,1663.56 h 23.96"
       id="path774" />
    <path
       d="m 212.1752,1663.682 h 23.493"
       id="path776" />
    <path
       d="m 212.4092,1663.803 h 23.025"
       id="path778" />
    <path
       d="m 212.6422,1663.925 h 22.558"
       id="path780" />
    <path
       d="m 212.8762,1664.047 h 22.091"
       id="path782" />
    <path
       d="m 213.1102,1664.168 h 21.623"
       id="path784" />
    <path
       d="m 213.3432,1664.29 h 21.156"
       id="path786" />
    <path
       d="m 213.5772,1664.412 h 20.688"
       id="path788" />
    <path
       d="m 213.8552,1664.533 h 20.132"
       id="path790" />
    <path
       d="m 214.1492,1664.655 h 19.545"
       id="path792" />
    <path
       d="m 214.4432,1664.777 h 18.957"
       id="path794" />
    <path
       d="m 214.7362,1664.898 h 18.37"
       id="path796" />
    <path
       d="m 215.0302,1665.02 h 17.783"
       id="path798" />
    <path
       d="m 215.3242,1665.142 h 17.195"
       id="path800" />
    <path
       d="m 215.6232,1665.263 h 16.596"
       id="path802" />
    <path
       d="m 216.0092,1665.385 h 15.825"
       id="path804" />
    <path
       d="m 216.3952,1665.507 h 15.053"
       id="path806" />
    <path
       d="m 216.7812,1665.628 h 14.281"
       id="path808" />
    <path
       d="m 217.1662,1665.75 h 13.51"
       id="path810" />
    <path
       d="m 217.5522,1665.872 h 12.738"
       id="path812" />
    <path
       d="m 218.0712,1665.993 h 11.701"
       id="path814" />
    <path
       d="m 218.6202,1666.115 h 10.603"
       id="path816" />
    <path
       d="m 219.1682,1666.236 h 9.506"
       id="path818" />
    <path
       d="m 219.7322,1666.358 h 8.379"
       id="path820" />
    <path
       d="m 220.6562,1666.48 h 6.531"
       id="path822" />
    <path
       d="m 221.5802,1666.602 h 4.683"
       id="path824" />
  </g>
</svg>
