<?xml version="1.0" encoding="UTF-8"?>
<svg id="svg26" width="107.42" height="574.5" version="1.1" viewBox="0 0 107.42 574.5" xmlns="http://www.w3.org/2000/svg">
 <g id="g24" transform="translate(7.5663 -2310.1)" fill="none" stroke="#000" stroke-width="4mm">
  <path id="path6" d="m92.291 2830.9-0.176 4.022-0.525 3.991-0.871 3.93-1.211 3.84-1.54 3.719-1.859 3.571-2.163 3.395-2.451 3.194-2.719 2.968-2.969 2.72-3.193 2.45"/>
  <path id="path8" d="m72.614 2868.7-3.396 2.163-3.57 1.859-3.72 1.541-3.839 1.21-3.93 0.872-3.992 0.525-4.021 0.176-4.022-0.176-3.991-0.525-3.931-0.872"/>
  <path id="path10" d="m34.202 2875.5-3.839-1.21-3.719-1.541-3.571-1.859-3.396-2.163-3.193-2.45-2.968-2.72-2.72-2.968-2.451-3.194-2.162-3.395-1.859-3.571"/>
  <path id="path12" d="m4.324 2850.4-1.541-3.719-1.211-3.84-0.871-3.93-0.525-3.991-0.176-4.022 0.176-4.022 0.525-3.991 0.871-3.93 1.211-3.84 1.541-3.719"/>
  <path id="path14" d="m4.324 2811.4 1.859-3.571 2.162-3.395 2.451-3.194 2.72-2.968 2.968-2.719 3.193-2.451 3.396-2.163 3.571-1.859 3.719-1.54 3.839-1.211"/>
  <path id="path16" d="m34.202 2786.3 3.931-0.871 3.991-0.526 4.022-0.175 4.021 0.175 3.992 0.526 3.93 0.871 3.839 1.211 3.72 1.54 3.57 1.859 3.396 2.163"/>
  <path id="path18" d="m72.614 2793.1 3.193 2.451 2.969 2.719 2.719 2.968 2.451 3.194 2.163 3.395 1.859 3.571 1.54 3.719 1.211 3.84 0.871 3.93 0.525 3.991"/>
  <path id="path20" d="m92.115 2826.9 0.176 4.022-0.176 4.022"/>
  <path id="path22" d="m46.146 2310.1v472.76"/>
 </g>
</svg>
