<?xml version="1.0" encoding="UTF-8" standalone="no"?>
<svg
   width="107.42358"
   height="574.49628"
   viewBox="0 0 107.42358 574.49626"
   version="1.1"
   id="svg26"
   sodipodi:docname="CHCRID01.hpgl.svg"
   inkscape:version="1.1.2 (0a00cf5339, 2022-02-04)"
   xmlns:inkscape="http://www.inkscape.org/namespaces/inkscape"
   xmlns:sodipodi="http://sodipodi.sourceforge.net/DTD/sodipodi-0.dtd"
   xmlns="http://www.w3.org/2000/svg"
   xmlns:svg="http://www.w3.org/2000/svg">
  <defs
     id="defs30" />
  <sodipodi:namedview
     id="namedview28"
     pagecolor="#ffffff"
     bordercolor="#666666"
     borderopacity="1.0"
     inkscape:pageshadow="2"
     inkscape:pageopacity="0.0"
     inkscape:pagecheckerboard="0"
     showgrid="false"
     inkscape:zoom="1.2682364"
     inkscape:cx="54.40626"
     inkscape:cy="-2026.8303"
     inkscape:window-width="1495"
     inkscape:window-height="970"
     inkscape:window-x="0"
     inkscape:window-y="32"
     inkscape:window-maximized="0"
     inkscape:current-layer="svg26" />
  <g
     id="g2"
     transform="translate(7.5662892,-2310.095)" />
  <g
     style="fill:none;stroke:#000000;stroke-width:1mm"
     id="g4"
     transform="translate(7.5662892,-2310.095)" />
  <g
     style="fill:none;stroke:#000000;stroke-width:4mm"
     id="g24"
     transform="translate(7.5662892,-2310.095)">
    <path
       d="m 92.291,2830.879 -0.176,4.022 -0.525,3.991 -0.871,3.93 -1.211,3.84 -1.54,3.719 -1.859,3.571 -2.163,3.395 -2.451,3.194 -2.719,2.968 -2.969,2.72 -3.193,2.45"
       id="path6" />
    <path
       d="m 72.614,2868.679 -3.396,2.163 -3.57,1.859 -3.72,1.541 -3.839,1.21 -3.93,0.872 -3.992,0.525 -4.021,0.176 -4.022,-0.176 -3.991,-0.525 -3.931,-0.872"
       id="path8" />
    <path
       d="m 34.202,2875.452 -3.839,-1.21 -3.719,-1.541 -3.571,-1.859 -3.396,-2.163 -3.193,-2.45 -2.968,-2.72 -2.72,-2.968 -2.451,-3.194 -2.162,-3.395 -1.859,-3.571"
       id="path10" />
    <path
       d="m 4.324,2850.381 -1.541,-3.719 -1.211,-3.84 -0.871,-3.93 -0.525,-3.991 -0.176,-4.022 0.176,-4.022 0.525,-3.991 0.871,-3.93 1.211,-3.84 1.541,-3.719"
       id="path12" />
    <path
       d="m 4.324,2811.377 1.859,-3.571 2.162,-3.395 2.451,-3.194 2.72,-2.968 2.968,-2.719 3.193,-2.451 3.396,-2.163 3.571,-1.859 3.719,-1.54 3.839,-1.211"
       id="path14" />
    <path
       d="m 34.202,2786.306 3.931,-0.871 3.991,-0.526 4.022,-0.175 4.021,0.175 3.992,0.526 3.93,0.871 3.839,1.211 3.72,1.54 3.57,1.859 3.396,2.163"
       id="path16" />
    <path
       d="m 72.614,2793.079 3.193,2.451 2.969,2.719 2.719,2.968 2.451,3.194 2.163,3.395 1.859,3.571 1.54,3.719 1.211,3.84 0.871,3.93 0.525,3.991"
       id="path18" />
    <path
       d="m 92.115,2826.857 0.176,4.022 -0.176,4.022"
       id="path20" />
    <path
       d="M 46.146,2310.095 V 2782.85"
       id="path22" />
  </g>
</svg>
