<?xml version="1.0" encoding="UTF-8"?>
<svg id="svg34" width="411.12" height="582.1" version="1.1" viewBox="0 0 411.12 582.1" xmlns="http://www.w3.org/2000/svg">
 <g id="g32" transform="translate(7.8602 -672.37)" fill="none" stroke="#000" stroke-width="4mm">
  <path id="path6" d="m187.02 1199.7-0.18 4.117-0.538 4.087-0.892 4.023-1.239 3.931-1.578 3.808-1.903 3.656-2.214 3.476-2.509 3.27-2.785 3.038-3.038 2.785"/>
  <path id="path8" d="m170.15 1235.9-3.27 2.509-3.476 2.214-3.656 1.903-3.808 1.578-3.931 1.239-4.023 0.892-4.087 0.538-4.117 0.18-4.118-0.18-4.086-0.538"/>
  <path id="path10" d="m131.57 1246.2-4.024-0.892-3.931-1.239-3.808-1.578-3.655-1.903-3.476-2.214-3.27-2.509-3.039-2.785-2.784-3.038-2.509-3.27-2.215-3.476"/>
  <path id="path12" d="m98.863 1223.3-1.903-3.656-1.577-3.808-1.24-3.931-0.892-4.023-0.538-4.087-0.179-4.117 0.179-4.118 0.538-4.086 0.892-4.024 1.24-3.931"/>
  <path id="path14" d="m95.383 1183.5 1.577-3.808 1.903-3.655 2.215-3.476 2.509-3.27 2.784-3.039 3.039-2.784 3.27-2.509 3.476-2.215 3.655-1.903 3.808-1.577"/>
  <path id="path16" d="m123.62 1155.3 3.931-1.24 4.024-0.892 4.086-0.538 4.118-0.179 4.117 0.179 4.087 0.538 4.023 0.892 3.931 1.24 3.808 1.577 3.656 1.903"/>
  <path id="path18" d="m163.4 1158.7 3.476 2.215 3.27 2.509 3.038 2.784 2.785 3.039 2.509 3.27 2.214 3.476 1.903 3.655 1.578 3.808 1.239 3.931 0.892 4.024"/>
  <path id="path20" d="m186.3 1191.5 0.538 4.086 0.18 4.118-0.18 4.117"/>
  <path id="path22" d="m192.93 1199.7h94.488"/>
  <path id="path24" d="m66.381 1199.7 39.651-388.08h60.742l47.244 388.08"/>
  <path id="path26" d="m-7.8602 1199.7h95.332"/>
  <path id="path28" d="m106.03 811.59-13.498-44.713 2.531-37.12 21.091-21.092 32.058-12.654h49.775l23.622 10.124 26.153-16.03 45.557-10.123 42.182 2.53 38.808 2.531"/>
  <path id="path30" d="m374.31 685.04 18.56 18.561 2.531 37.12-44.713 26.153-52.306 2.531-2.531 23.622-50.619 21.091h-78.459"/>
 </g>
</svg>
