<?xml version="1.0" encoding="UTF-8" standalone="no"?>
<svg
   width="411.12222"
   height="582.10419"
   viewBox="0 0 411.12223 582.10417"
   version="1.1"
   id="svg34"
   sodipodi:docname="CHIMNY11.hpgl.svg"
   inkscape:version="1.1.2 (0a00cf5339, 2022-02-04)"
   xmlns:inkscape="http://www.inkscape.org/namespaces/inkscape"
   xmlns:sodipodi="http://sodipodi.sourceforge.net/DTD/sodipodi-0.dtd"
   xmlns="http://www.w3.org/2000/svg"
   xmlns:svg="http://www.w3.org/2000/svg">
  <defs
     id="defs38" />
  <sodipodi:namedview
     id="namedview36"
     pagecolor="#ffffff"
     bordercolor="#666666"
     borderopacity="1.0"
     inkscape:pageshadow="2"
     inkscape:pageopacity="0.0"
     inkscape:pagecheckerboard="0"
     showgrid="false"
     inkscape:zoom="1.2682364"
     inkscape:cx="209.74008"
     inkscape:cy="-389.12303"
     inkscape:window-width="1495"
     inkscape:window-height="970"
     inkscape:window-x="0"
     inkscape:window-y="32"
     inkscape:window-maximized="0"
     inkscape:current-layer="svg34" />
  <g
     id="g2"
     transform="translate(7.8602282,-672.36906)" />
  <g
     style="fill:none;stroke:#000000;stroke-width:1mm"
     id="g4"
     transform="translate(7.8602282,-672.36906)" />
  <g
     style="fill:none;stroke:#000000;stroke-width:4mm"
     id="g32"
     transform="translate(7.8602282,-672.36906)">
    <path
       d="m 187.02177,1199.663 -0.18,4.117 -0.538,4.087 -0.892,4.023 -1.239,3.931 -1.578,3.808 -1.903,3.656 -2.214,3.476 -2.509,3.27 -2.785,3.038 -3.038,2.785"
       id="path6" />
    <path
       d="m 170.14577,1235.854 -3.27,2.509 -3.476,2.214 -3.656,1.903 -3.808,1.578 -3.931,1.239 -4.023,0.892 -4.087,0.538 -4.117,0.18 -4.118,-0.18 -4.086,-0.538"
       id="path8" />
    <path
       d="m 131.57377,1246.189 -4.024,-0.892 -3.931,-1.239 -3.808,-1.578 -3.655,-1.903 -3.476,-2.214 -3.27,-2.509 -3.039,-2.785 -2.784,-3.038 -2.509,-3.27 -2.214998,-3.476"
       id="path10" />
    <path
       d="m 98.862772,1223.285 -1.903,-3.656 -1.577,-3.808 -1.24,-3.931 -0.892,-4.023 -0.538,-4.087 -0.179,-4.117 0.179,-4.118 0.538,-4.086 0.892,-4.024 1.24,-3.931"
       id="path12" />
    <path
       d="m 95.382772,1183.504 1.577,-3.808 1.903,-3.655 2.214998,-3.476 2.509,-3.27 2.784,-3.039 3.039,-2.784 3.27,-2.509 3.476,-2.215 3.655,-1.903 3.808,-1.577"
       id="path14" />
    <path
       d="m 123.61877,1155.268 3.931,-1.24 4.024,-0.892 4.086,-0.538 4.118,-0.179 4.117,0.179 4.087,0.538 4.023,0.892 3.931,1.24 3.808,1.577 3.656,1.903"
       id="path16" />
    <path
       d="m 163.39977,1158.748 3.476,2.215 3.27,2.509 3.038,2.784 2.785,3.039 2.509,3.27 2.214,3.476 1.903,3.655 1.578,3.808 1.239,3.931 0.892,4.024"
       id="path18" />
    <path
       d="m 186.30377,1191.459 0.538,4.086 0.18,4.118 -0.18,4.117"
       id="path20" />
    <path
       d="m 192.92677,1199.663 h 94.488"
       id="path22" />
    <path
       d="M 66.380772,1199.663 106.03177,811.586 h 60.742 l 47.244,388.077"
       id="path24" />
    <path
       d="M -7.8602282,1199.663 H 87.471772"
       id="path26" />
    <path
       d="m 106.03177,811.586 -13.497998,-44.713 2.531,-37.12 21.090998,-21.092 32.058,-12.654 h 49.775 l 23.622,10.124 26.153,-16.03 45.557,-10.123 42.182,2.53 38.808,2.531"
       id="path28" />
    <path
       d="m 374.31077,685.039 18.56,18.561 2.531,37.12 -44.713,26.153 -52.306,2.531 -2.531,23.622 -50.619,21.091 h -78.459"
       id="path30" />
  </g>
</svg>
