<?xml version="1.0" encoding="UTF-8" standalone="no"?>
<svg
   width="582.06152"
   height="582.0625"
   viewBox="0 0 582.06151 582.06248"
   version="1.1"
   id="svg28"
   sodipodi:docname="CHINFO06.hpgl.svg"
   inkscape:version="1.1.2 (0a00cf5339, 2022-02-04)"
   xmlns:inkscape="http://www.inkscape.org/namespaces/inkscape"
   xmlns:sodipodi="http://sodipodi.sourceforge.net/DTD/sodipodi-0.dtd"
   xmlns="http://www.w3.org/2000/svg"
   xmlns:svg="http://www.w3.org/2000/svg">
  <defs
     id="defs32" />
  <sodipodi:namedview
     id="namedview30"
     pagecolor="#ffffff"
     bordercolor="#666666"
     borderopacity="1.0"
     inkscape:pageshadow="2"
     inkscape:pageopacity="0.0"
     inkscape:pagecheckerboard="0"
     showgrid="false"
     inkscape:zoom="1.2682364"
     inkscape:cx="290.95522"
     inkscape:cy="-1569.5023"
     inkscape:window-width="1495"
     inkscape:window-height="970"
     inkscape:window-x="0"
     inkscape:window-y="32"
     inkscape:window-maximized="0"
     inkscape:current-layer="svg28" />
  <g
     id="g2"
     transform="translate(7.5662609,-1853.0117)" />
  <g
     style="fill:none;stroke:#000000;stroke-width:1mm"
     id="g4"
     transform="translate(7.5662609,-1853.0117)" />
  <g
     style="fill:none;stroke:#000000;stroke-width:4mm"
     id="g26"
     transform="translate(7.5662609,-1853.0117)">
    <path
       d="m 566.929,2144.043 -1.079,24.706 -3.227,24.517 -5.353,24.143 -7.436,23.585 -9.463,22.846 -11.419,21.935 -13.287,20.857 -15.054,19.618 -16.707,18.233 -18.232,16.706"
       id="path6" />
    <path
       d="m 465.672,2361.189 -19.619,15.055 -20.856,13.286 -21.935,11.419 -22.847,9.464 -23.585,7.436 -24.143,5.352 -24.517,3.228 -24.706,1.079 -24.705,-1.079 -24.518,-3.228"
       id="path8" />
    <path
       d="m 234.241,2423.201 -24.143,-5.352 -23.584,-7.436 -22.847,-9.464 -21.935,-11.419 -20.856,-13.286 -19.619,-15.055 -18.232,-16.706 -16.707,-18.232 -15.054,-19.619 -13.287,-20.857"
       id="path10" />
    <path
       d="M 37.977,2285.775 26.558,2263.84 17.095,2240.994 9.659,2217.409 4.306,2193.266 1.079,2168.749 0,2144.043 l 1.079,-24.706 3.227,-24.517 5.353,-24.143 7.436,-23.585"
       id="path12" />
    <path
       d="m 17.095,2047.092 9.463,-22.846 11.419,-21.935 13.287,-20.857 15.054,-19.619 16.707,-18.232 18.232,-16.707 19.619,-15.054 20.856,-13.287 21.935,-11.418 22.847,-9.464"
       id="path14" />
    <path
       d="m 186.514,1877.673 23.584,-7.436 24.143,-5.352 24.518,-3.228 24.705,-1.079 24.706,1.079 24.517,3.228 24.143,5.352 23.585,7.436 22.847,9.464 21.935,11.418"
       id="path16" />
    <path
       d="m 425.197,1898.555 20.856,13.287 19.619,15.054 18.232,16.707 16.707,18.232 15.054,19.619 13.287,20.857 11.418,21.935 9.464,22.846 7.436,23.585 5.353,24.143"
       id="path18" />
    <path
       d="m 562.623,2094.82 3.227,24.517 1.079,24.706 -1.079,24.706"
       id="path20" />
    <path
       d="M 279.087,1953.607 V 2199.86"
       id="path22" />
    <path
       d="m 244.064,2301.645 h 60.195"
       id="path24" />
  </g>
</svg>
