<?xml version="1.0" encoding="UTF-8"?>
<svg id="svg36" width="574.49" height="487.57" version="1.1" viewBox="0 0 574.49 487.57" xmlns="http://www.w3.org/2000/svg">
 <g id="g34" transform="translate(2.8369e-8 -748.35)" fill="none" stroke="#000" stroke-width="4mm">
  <path id="path6" d="m291.02 1181.1-0.179 4.117-0.538 4.086-0.892 4.024-1.24 3.931-1.577 3.808-1.903 3.656-2.215 3.476-2.509 3.269-2.784 3.039-3.039 2.785"/>
  <path id="path8" d="m274.15 1217.3-3.27 2.509-3.476 2.214-3.655 1.903-3.808 1.577-3.931 1.24-4.024 0.892-4.086 0.538-4.118 0.18-4.117-0.18-4.087-0.538"/>
  <path id="path10" d="m235.58 1227.6-4.023-0.892-3.931-1.24-3.808-1.577-3.656-1.903-3.476-2.214-3.27-2.509-3.038-2.785-2.785-3.039-2.509-3.269-2.214-3.476"/>
  <path id="path12" d="m202.87 1204.7-1.903-3.656-1.578-3.808-1.239-3.931-0.892-4.024-0.538-4.086-0.18-4.117 0.18-4.118 0.538-4.086 0.892-4.024 1.239-3.931"/>
  <path id="path14" d="m199.38 1164.9 1.578-3.808 1.903-3.656 2.214-3.476 2.509-3.269 2.785-3.039 3.038-2.785 3.27-2.509 3.476-2.214 3.656-1.903 3.808-1.577"/>
  <path id="path16" d="m227.62 1136.7 3.931-1.24 4.023-0.892 4.087-0.538 4.117-0.18 4.118 0.18 4.086 0.538 4.024 0.892 3.931 1.24 3.808 1.577 3.655 1.903"/>
  <path id="path18" d="m267.4 1140.2 3.476 2.214 3.27 2.509 3.039 2.785 2.784 3.039 2.509 3.269 2.215 3.476 1.903 3.656 1.577 3.808 1.24 3.931 0.892 4.024"/>
  <path id="path20" d="m290.31 1172.9 0.538 4.086 0.179 4.118-0.179 4.117"/>
  <path id="path22" d="m54.803 1181.1h141.73"/>
  <path id="path24" d="m291.02 1181.1h141.73"/>
  <path id="path26" d="m196.54 1181.1v-377.95"/>
  <path id="path28" d="m291.02 1181.1v-377.95"/>
  <path id="path30" d="m7.5591 755.91h566.93"/>
  <path id="path32" d="m7.5591 755.91v141.73h94.488v-94.488"/>
 </g>
</svg>
