<?xml version="1.0" encoding="UTF-8" standalone="no"?>
<svg
   width="574.48804"
   height="487.56635"
   viewBox="0 0 574.48802 487.56634"
   version="1.1"
   id="svg36"
   sodipodi:docname="CRANES01.hpgl.svg"
   inkscape:version="1.1.2 (0a00cf5339, 2022-02-04)"
   xmlns:inkscape="http://www.inkscape.org/namespaces/inkscape"
   xmlns:sodipodi="http://sodipodi.sourceforge.net/DTD/sodipodi-0.dtd"
   xmlns="http://www.w3.org/2000/svg"
   xmlns:svg="http://www.w3.org/2000/svg">
  <defs
     id="defs40" />
  <sodipodi:namedview
     id="namedview38"
     pagecolor="#ffffff"
     bordercolor="#666666"
     borderopacity="1.0"
     inkscape:pageshadow="2"
     inkscape:pageopacity="0.0"
     inkscape:pagecheckerboard="0"
     showgrid="false"
     inkscape:zoom="1.5218832"
     inkscape:cx="283.20177"
     inkscape:cy="-512.19438"
     inkscape:window-width="1495"
     inkscape:window-height="970"
     inkscape:window-x="0"
     inkscape:window-y="32"
     inkscape:window-maximized="0"
     inkscape:current-layer="svg36" />
  <g
     id="g2"
     transform="translate(2.8369142e-8,-748.34694)" />
  <g
     style="fill:none;stroke:#000000;stroke-width:1mm"
     id="g4"
     transform="translate(2.8369142e-8,-748.34694)" />
  <g
     style="fill:none;stroke:#000000;stroke-width:4mm"
     id="g34"
     transform="translate(2.8369142e-8,-748.34694)">
    <path
       d="m 291.02306,1181.103 -0.179,4.117 -0.538,4.086 -0.892,4.024 -1.24,3.931 -1.577,3.808 -1.903,3.656 -2.215,3.476 -2.509,3.269 -2.784,3.039 -3.039,2.785"
       id="path6" />
    <path
       d="m 274.14706,1217.294 -3.27,2.509 -3.476,2.214 -3.655,1.903 -3.808,1.577 -3.931,1.24 -4.024,0.892 -4.086,0.538 -4.118,0.18 -4.117,-0.18 -4.087,-0.538"
       id="path8" />
    <path
       d="m 235.57506,1227.629 -4.023,-0.892 -3.931,-1.24 -3.808,-1.577 -3.656,-1.903 -3.476,-2.214 -3.27,-2.509 -3.038,-2.785 -2.785,-3.039 -2.509,-3.269 -2.214,-3.476"
       id="path10" />
    <path
       d="m 202.86506,1204.725 -1.903,-3.656 -1.578,-3.808 -1.239,-3.931 -0.892,-4.024 -0.538,-4.086 -0.18,-4.117 0.18,-4.118 0.538,-4.086 0.892,-4.024 1.239,-3.931"
       id="path12" />
    <path
       d="m 199.38406,1164.944 1.578,-3.808 1.903,-3.656 2.214,-3.476 2.509,-3.269 2.785,-3.039 3.038,-2.785 3.27,-2.509 3.476,-2.214 3.656,-1.903 3.808,-1.577"
       id="path14" />
    <path
       d="m 227.62106,1136.708 3.931,-1.24 4.023,-0.892 4.087,-0.538 4.117,-0.18 4.118,0.18 4.086,0.538 4.024,0.892 3.931,1.24 3.808,1.577 3.655,1.903"
       id="path16" />
    <path
       d="m 267.40106,1140.188 3.476,2.214 3.27,2.509 3.039,2.785 2.784,3.039 2.509,3.269 2.215,3.476 1.903,3.656 1.577,3.808 1.24,3.931 0.892,4.024"
       id="path18" />
    <path
       d="m 290.30606,1172.899 0.538,4.086 0.179,4.118 -0.179,4.117"
       id="path20" />
    <path
       d="M 54.803055,1181.103 H 196.53506"
       id="path22" />
    <path
       d="m 291.02306,1181.103 h 141.733"
       id="path24" />
    <path
       d="M 196.53506,1181.103 V 803.15"
       id="path26" />
    <path
       d="M 291.02306,1181.103 V 803.15"
       id="path28" />
    <path
       d="M 7.5590553,755.906 H 574.48806"
       id="path30" />
    <path
       d="M 7.5590553,755.906 V 897.638 H 102.04706 V 803.15"
       id="path32" />
  </g>
</svg>
