<?xml version="1.0" encoding="UTF-8"?>
<svg id="svg28" width="582.06" height="582.06" version="1.1" viewBox="0 0 582.06 582.06" xmlns="http://www.w3.org/2000/svg">
 <g id="g26" transform="translate(7.5663 -1612.2)" fill="none" stroke="#000" stroke-width="4mm">
  <path id="path6" d="m284.6 1976.3v-265.21"/>
  <path id="path8" d="m246.39 2078.9h81.56"/>
  <path id="path10" d="m566.93 1903.3-1.079 24.706-3.227 24.517-5.353 24.143-7.436 23.585-9.463 22.847-11.419 21.935-13.287 20.856-15.054 19.619-16.707 18.232-18.232 16.707"/>
  <path id="path12" d="m465.67 2120.4-19.619 15.054-20.856 13.287-21.935 11.419-22.847 9.463-23.585 7.436-24.142 5.352-24.518 3.228-24.706 1.079-24.705-1.079-24.518-3.228"/>
  <path id="path14" d="m234.24 2182.4-24.143-5.352-23.584-7.436-22.847-9.463-21.935-11.419-20.856-13.287-19.619-15.054-18.232-16.707-16.707-18.232-15.054-19.619-13.287-20.856"/>
  <path id="path16" d="m37.977 2045-11.419-21.935-9.463-22.847-7.436-23.585-5.353-24.143-3.228-24.517-1.078-24.706 1.078-24.705 3.228-24.518 5.353-24.143 7.436-23.584"/>
  <path id="path18" d="m17.095 1806.3 9.463-22.847 11.419-21.935 13.287-20.856 15.054-19.619 16.707-18.232 18.232-16.707 19.619-15.054 20.856-13.287 21.935-11.419 22.847-9.463"/>
  <path id="path20" d="m186.51 1636.9 23.584-7.436 24.143-5.353 24.518-3.228 24.705-1.078 24.706 1.078 24.517 3.228 24.143 5.352 23.585 7.437 22.847 9.463 21.935 11.419"/>
  <path id="path22" d="m425.2 1657.8 20.856 13.287 19.619 15.054 18.232 16.707 16.707 18.232 15.054 19.619 13.287 20.856 11.419 21.935 9.463 22.847 7.436 23.584 5.353 24.143"/>
  <path id="path24" d="m562.62 1854 3.227 24.518 1.079 24.705-1.079 24.706"/>
 </g>
</svg>
