<?xml version="1.0" encoding="UTF-8"?>
<svg id="svg34" width="574.58" height="471.43" version="1.1" viewBox="0 0 574.58 471.43" xmlns="http://www.w3.org/2000/svg">
 <g id="g32" transform="translate(7.5663 -1296.1)" fill="none" stroke="#000" stroke-width="4mm">
  <path id="path6" d="m332.21 1590.6v-213.46"/>
  <path id="path8" d="m301.46 1673.2h65.644"/>
  <path id="path10" d="m559.44 1531.9-0.868 19.885-2.598 19.733-4.308 19.432-5.985 18.982-7.617 18.388-9.19 17.655-10.694 16.786-12.117 15.791-13.446 14.674-14.675 13.447"/>
  <path id="path12" d="m477.95 1706.6-15.79 12.116-16.786 10.694-17.655 9.191-18.388 7.616-18.983 5.985-19.431 4.308-19.733 2.598-19.885 0.868-19.884-0.868-19.733-2.598"/>
  <path id="path14" d="m291.68 1756.5-19.432-4.308-18.982-5.985-18.389-7.616-17.654-9.191-16.787-10.694-15.79-12.116-14.674-13.447-13.447-14.674-12.116-15.791-10.695-16.786"/>
  <path id="path16" d="m133.71 1645.9-9.19-17.655-7.617-18.388-5.985-18.982-4.308-19.432-2.597-19.733-0.869-19.885 0.869-19.884 2.597-19.733 4.308-19.432 5.985-18.982"/>
  <path id="path18" d="m116.91 1453.8 7.617-18.388 9.19-17.655 10.695-16.786 12.116-15.791 13.447-14.674 14.674-13.447 15.79-12.116 16.787-10.694 17.654-9.191 18.389-7.616"/>
  <path id="path20" d="m253.26 1317.5 18.982-5.985 19.432-4.308 19.733-2.598 19.884-0.868 19.885 0.868 19.733 2.598 19.431 4.308 18.983 5.985 18.388 7.616 17.655 9.191"/>
  <path id="path22" d="m445.37 1334.3 16.786 10.694 15.79 12.116 14.675 13.447 13.446 14.674 12.117 15.791 10.694 16.786 9.19 17.655 7.617 18.388 5.985 18.982 4.308 19.432"/>
  <path id="path24" d="m555.98 1492.2 2.598 19.733 0.868 19.884-0.868 19.885"/>
  <path id="path26" d="m34.749 1754v-107.42l-42.233-0.459"/>
  <path id="path28" d="m-7.0251 1754.5h85.843"/>
  <path id="path30" d="m13.632 1592 1.377 18.362"/>
 </g>
</svg>
