<?xml version="1.0" encoding="UTF-8"?>
<svg id="svg32" width="581.34" height="529.03" version="1.1" viewBox="0 0 581.34 529.03" xmlns="http://www.w3.org/2000/svg">
 <g id="g30" transform="translate(7.5591 -694.73)" fill="none" stroke="#000" stroke-width="4mm">
  <path id="path6" d="m217.3 1216.5 56.187-111.81 55.626 111.81"/>
  <path id="path8" d="m217.3 1113.1 56.187-111.81 55.626 111.81"/>
  <path id="path10" d="m273.49 713.58v510.18"/>
  <path id="path12" d="m216.74 853.48 57.311-138.78 56.188 138.78"/>
  <path id="path14" d="m-0.7029 909.11 7.304-15.732 7.304-14.047 9.552-9.552 9.552-9.551 14.609-5.057 12.923 1.123 16.856 5.057 15.732 3.372 12.924 19.103 10.113 10.676"/>
  <path id="path16" d="m116.17 894.5 6.743 12.361v14.047l-6.743 13.485-7.304 11.799-11.238 13.485-12.923 14.047-11.799 14.608-7.304 10.676-6.181 9.552-1.124 12.361"/>
  <path id="path18" d="m58.293 1020.9v22.475l1.124 12.361v1.124"/>
  <path id="path20" d="m47.618 1104.1h29.779"/>
  <path id="path22" d="m442.61 905.74 7.304-15.732 7.305-14.047 9.552-9.552 9.551-9.552 14.609-5.056 12.923 1.123 16.856 5.057 15.733 3.371 12.923 19.104 10.114 10.676"/>
  <path id="path24" d="m559.48 891.13 6.742 12.361v14.047l-6.742 13.485-7.305 11.799-11.237 13.485-12.923 14.047-11.8 14.608-7.304 10.676-6.181 9.552-1.123 12.361v12.923"/>
  <path id="path26" d="m501.61 1030.5v9.552l1.123 12.361v1.124"/>
  <path id="path28" d="m490.94 1100.7h29.779"/>
 </g>
</svg>
