<?xml version="1.0" encoding="UTF-8"?>
<svg id="svg32" width="347.97" height="582.05" version="1.1" viewBox="0 0 347.97 582.05" xmlns="http://www.w3.org/2000/svg">
 <g id="g30" transform="translate(7.5591 -728.7)" fill="none" stroke="#000" stroke-width="4mm">
  <path id="path6" d="m0 736.26v332.85h332.85v-332.85h-332.85"/>
  <path id="path8" d="m166.84 1069.1v127"/>
  <path id="path10" d="m221.62 1249.2-0.205 4.703-0.614 4.666-1.019 4.596-1.416 4.489-1.801 4.348-2.173 4.175-2.529 3.97-2.865 3.734-3.18 3.47-3.471 3.18"/>
  <path id="path12" d="m202.35 1290.6-3.734 2.866-3.97 2.529-4.175 2.173-4.348 1.801-4.489 1.416-4.595 1.018-4.667 0.615-4.702 0.205-4.703-0.205-4.666-0.615"/>
  <path id="path14" d="m158.3 1302.4-4.596-1.018-4.489-1.416-4.348-1.801-4.175-2.173-3.97-2.529-3.734-2.866-3.47-3.18-3.18-3.47-2.866-3.734-2.529-3.97"/>
  <path id="path16" d="m120.95 1276.2-2.173-4.175-1.801-4.348-1.416-4.489-1.018-4.596-0.615-4.666-0.205-4.703 0.205-4.702 0.615-4.667 1.018-4.595 1.416-4.489"/>
  <path id="path18" d="m116.97 1230.8 1.801-4.348 2.173-4.176 2.529-3.969 2.866-3.734 3.18-3.471 3.47-3.18 3.734-2.865 3.97-2.529 4.175-2.173 4.348-1.802"/>
  <path id="path20" d="m149.22 1198.5 4.489-1.415 4.596-1.019 4.666-0.614 4.703-0.205 4.702 0.205 4.667 0.614 4.595 1.019 4.489 1.415 4.348 1.802 4.175 2.173"/>
  <path id="path22" d="m194.65 1202.5 3.97 2.529 3.734 2.865 3.471 3.18 3.18 3.471 2.865 3.734 2.529 3.969 2.173 4.176 1.801 4.348 1.416 4.489 1.019 4.595"/>
  <path id="path24" d="m220.81 1239.9 0.614 4.667 0.205 4.702-0.205 4.703"/>
  <path id="path26" d="m44.823 1249.2h69.725"/>
  <path id="path28" d="m221.62 1249.2h70.555"/>
 </g>
</svg>
