<?xml version="1.0" encoding="UTF-8"?>
<svg id="svg2026" width="405.06" height="574.49" version="1.1" viewBox="0 0 405.06 574.49" xmlns="http://www.w3.org/2000/svg">
 <g id="g2024" transform="translate(7.5591 -757.75)" fill="none" stroke="#000" stroke-width="4mm">
  <path id="path6" d="m0 765.31v389.95h389.95v-389.95h-389.95"/>
  <path id="path8" d="m196.43 1183.5v148.78"/>
  <path id="path10" d="m194.2 1103.8h4.455"/>
  <path id="path12" d="m192.12 1103.9h8.619"/>
  <path id="path14" d="m191.38 1104h10.097"/>
  <path id="path16" d="m190.64 1104.1h11.574"/>
  <path id="path18" d="m189.91 1104.2h13.051"/>
  <path id="path20" d="m189.17 1104.3h14.528"/>
  <path id="path22" d="m188.43 1104.4h16.006"/>
  <path id="path24" d="m187.81 1104.5h17.241"/>
  <path id="path26" d="m187.37 1104.6h18.118"/>
  <path id="path28" d="m186.93 1104.7h18.995"/>
  <path id="path30" d="m186.5 1104.8h19.872"/>
  <path id="path32" d="m186.06 1104.9h20.749"/>
  <path id="path34" d="m185.62 1105h21.627"/>
  <path id="path36" d="m185.18 1105.1h22.504"/>
  <path id="path38" d="m184.74 1105.2h23.381"/>
  <path id="path40" d="m184.3 1105.3h24.259"/>
  <path id="path42" d="m183.86 1105.4h25.135"/>
  <path id="path44" d="m183.55 1105.5h25.763"/>
  <path id="path46" d="m183.24 1105.6h26.379"/>
  <path id="path48" d="m182.93 1105.7h26.996"/>
  <path id="path50" d="m182.62 1105.8h27.613"/>
  <path id="path52" d="m182.32 1105.9h28.229"/>
  <path id="path54" d="m182.01 1105.9h28.847"/>
  <path id="path56" d="m181.7 1106h29.463"/>
  <path id="path58" d="m181.39 1106.1h30.081"/>
  <path id="path60" d="m181.08 1106.2h30.697"/>
  <path id="path62" d="m180.78 1106.3h31.313"/>
  <path id="path64" d="m180.47 1106.4h31.931"/>
  <path id="path66" d="m180.16 1106.5h32.547"/>
  <path id="path68" d="m179.85 1106.6h33.165"/>
  <path id="path70" d="m179.6 1106.7h33.657"/>
  <path id="path72" d="m179.37 1106.8h34.126"/>
  <path id="path74" d="m179.13 1106.9h34.595"/>
  <path id="path76" d="m178.9 1107h35.065"/>
  <path id="path78" d="m178.66 1107.1h35.535"/>
  <path id="path80" d="m178.43 1107.2h36.005"/>
  <path id="path82" d="m178.2 1107.3h36.473"/>
  <path id="path84" d="m177.96 1107.4h36.943"/>
  <path id="path86" d="m177.72 1107.5h37.413"/>
  <path id="path88" d="m177.49 1107.6h37.883"/>
  <path id="path90" d="m177.26 1107.7h38.351"/>
  <path id="path92" d="m177.02 1107.8h38.821"/>
  <path id="path94" d="m176.79 1107.9h39.291"/>
  <path id="path96" d="m176.55 1108h39.761"/>
  <path id="path98" d="m176.32 1108.1h40.23"/>
  <path id="path100" d="m176.08 1108.2h40.699"/>
  <path id="path102" d="m175.85 1108.3h41.155"/>
  <path id="path104" d="m175.67 1108.4h41.528"/>
  <path id="path106" d="m175.48 1108.5h41.901"/>
  <path id="path108" d="m175.29 1108.6h42.275"/>
  <path id="path110" d="m175.11 1108.7h42.649"/>
  <path id="path112" d="m174.92 1108.8h43.023"/>
  <path id="path114" d="m174.73 1108.9h43.396"/>
  <path id="path116" d="m174.55 1109h43.769"/>
  <path id="path118" d="m174.36 1109.1h44.143"/>
  <path id="path120" d="m174.17 1109.2h44.517"/>
  <path id="path122" d="m173.99 1109.3h44.891"/>
  <path id="path124" d="m173.8 1109.4h45.264"/>
  <path id="path126" d="m173.61 1109.4h45.637"/>
  <path id="path128" d="m173.43 1109.5h46.011"/>
  <path id="path130" d="m173.24 1109.6h46.385"/>
  <path id="path132" d="m173.05 1109.7h46.759"/>
  <path id="path134" d="m172.87 1109.8h47.132"/>
  <path id="path136" d="m172.68 1109.9h47.505"/>
  <path id="path138" d="m172.49 1110h47.879"/>
  <path id="path140" d="m172.3 1110.1h48.253"/>
  <path id="path142" d="m172.12 1110.2h48.625"/>
  <path id="path144" d="m171.97 1110.3h48.931"/>
  <path id="path146" d="m171.81 1110.4h49.236"/>
  <path id="path148" d="m171.66 1110.5h49.541"/>
  <path id="path150" d="m171.51 1110.6h49.847"/>
  <path id="path152" d="m171.36 1110.7h50.152"/>
  <path id="path154" d="m171.2 1110.8h50.457"/>
  <path id="path156" d="m171.05 1110.9h50.763"/>
  <path id="path158" d="m170.9 1111h51.068"/>
  <path id="path160" d="m170.74 1111.1h51.373"/>
  <path id="path162" d="m170.59 1111.2h51.679"/>
  <path id="path164" d="m170.44 1111.3h51.983"/>
  <path id="path166" d="m170.29 1111.4h52.289"/>
  <path id="path168" d="m170.13 1111.5h52.595"/>
  <path id="path170" d="m169.98 1111.6h52.899"/>
  <path id="path172" d="m169.83 1111.7h53.205"/>
  <path id="path174" d="m169.68 1111.8h53.51"/>
  <path id="path176" d="m169.52 1111.9h53.815"/>
  <path id="path178" d="m169.37 1112h54.121"/>
  <path id="path180" d="m169.22 1112.1h54.426"/>
  <path id="path182" d="m169.07 1112.2h54.731"/>
  <path id="path184" d="m168.91 1112.3h55.037"/>
  <path id="path186" d="m168.76 1112.4h55.341"/>
  <path id="path188" d="m168.61 1112.5h55.647"/>
  <path id="path190" d="m168.47 1112.6h55.923"/>
  <path id="path192" d="m168.34 1112.7h56.176"/>
  <path id="path194" d="m168.22 1112.8h56.429"/>
  <path id="path196" d="m168.09 1112.9h56.683"/>
  <path id="path198" d="m167.96 1113h56.937"/>
  <path id="path200" d="m167.84 1113h57.19"/>
  <path id="path202" d="m167.71 1113.1h57.443"/>
  <path id="path204" d="m167.58 1113.2h57.697"/>
  <path id="path206" d="m167.46 1113.3h57.951"/>
  <path id="path208" d="m167.33 1113.4h58.203"/>
  <path id="path210" d="m167.2 1113.5h58.457"/>
  <path id="path212" d="m167.08 1113.6h58.711"/>
  <path id="path214" d="m166.95 1113.7h58.964"/>
  <path id="path216" d="m166.82 1113.8h59.217"/>
  <path id="path218" d="m166.7 1113.9h59.471"/>
  <path id="path220" d="m166.57 1114h59.725"/>
  <path id="path222" d="m166.44 1114.1h59.978"/>
  <path id="path224" d="m166.32 1114.2h60.231"/>
  <path id="path226" d="m166.19 1114.3h60.485"/>
  <path id="path228" d="m166.06 1114.4h60.739"/>
  <path id="path230" d="m165.94 1114.5h60.991"/>
  <path id="path232" d="m165.81 1114.6h61.245"/>
  <path id="path234" d="m165.68 1114.7h61.499"/>
  <path id="path236" d="m165.56 1114.8h61.753"/>
  <path id="path238" d="m165.43 1114.9h62.005"/>
  <path id="path240" d="m165.3 1115h62.259"/>
  <path id="path242" d="m165.18 1115.1h62.511"/>
  <path id="path244" d="m165.07 1115.2h62.724"/>
  <path id="path246" d="m164.96 1115.3h62.937"/>
  <path id="path248" d="m164.86 1115.4h63.149"/>
  <path id="path250" d="m164.75 1115.5h63.361"/>
  <path id="path252" d="m164.64 1115.6h63.573"/>
  <path id="path254" d="m164.54 1115.7h63.785"/>
  <path id="path256" d="m164.43 1115.8h63.997"/>
  <path id="path258" d="m164.33 1115.9h64.209"/>
  <path id="path260" d="m164.22 1116h64.422"/>
  <path id="path262" d="m164.12 1116.1h64.634"/>
  <path id="path264" d="m164.01 1116.2h64.847"/>
  <path id="path266" d="m163.9 1116.3h65.059"/>
  <path id="path268" d="m163.8 1116.4h65.271"/>
  <path id="path270" d="m163.69 1116.5h65.483"/>
  <path id="path272" d="m163.58 1116.5h65.695"/>
  <path id="path274" d="m163.48 1116.6h65.907"/>
  <path id="path276" d="m163.37 1116.7h66.119"/>
  <path id="path278" d="m163.27 1116.8h66.332"/>
  <path id="path280" d="m163.16 1116.9h66.545"/>
  <path id="path282" d="m163.05 1117h66.757"/>
  <path id="path284" d="m162.95 1117.1h66.969"/>
  <path id="path286" d="m162.84 1117.2h67.181"/>
  <path id="path288" d="m162.74 1117.3h67.393"/>
  <path id="path290" d="m162.63 1117.4h67.605"/>
  <path id="path292" d="m162.52 1117.5h67.817"/>
  <path id="path294" d="m162.42 1117.6h68.03"/>
  <path id="path296" d="m162.31 1117.7h68.243"/>
  <path id="path298" d="m162.2 1117.8h68.455"/>
  <path id="path300" d="m162.1 1117.9h68.667"/>
  <path id="path302" d="m162 1118h68.86"/>
  <path id="path304" d="m161.91 1118.1h69.039"/>
  <path id="path306" d="m161.82 1118.2h69.217"/>
  <path id="path308" d="m161.73 1118.3h69.395"/>
  <path id="path310" d="m161.64 1118.4h69.573"/>
  <path id="path312" d="m161.56 1118.5h69.751"/>
  <path id="path314" d="m161.47 1118.6h69.929"/>
  <path id="path316" d="m161.38 1118.7h70.107"/>
  <path id="path318" d="m161.29 1118.8h70.286"/>
  <path id="path320" d="m161.2 1118.9h70.464"/>
  <path id="path322" d="m161.11 1119h70.643"/>
  <path id="path324" d="m161.02 1119.1h70.821"/>
  <path id="path326" d="m160.93 1119.2h70.999"/>
  <path id="path328" d="m160.84 1119.3h71.177"/>
  <path id="path330" d="m160.75 1119.4h71.355"/>
  <path id="path332" d="m160.66 1119.5h71.533"/>
  <path id="path334" d="m160.58 1119.6h71.711"/>
  <path id="path336" d="m160.49 1119.7h71.89"/>
  <path id="path338" d="m160.4 1119.8h72.068"/>
  <path id="path340" d="m160.31 1119.9h72.247"/>
  <path id="path342" d="m160.22 1120h72.425"/>
  <path id="path344" d="m160.13 1120h72.603"/>
  <path id="path346" d="m160.04 1120.1h72.781"/>
  <path id="path348" d="m159.95 1120.2h72.959"/>
  <path id="path350" d="m159.86 1120.3h73.137"/>
  <path id="path352" d="m159.77 1120.4h73.315"/>
  <path id="path354" d="m159.68 1120.5h73.493"/>
  <path id="path356" d="m159.6 1120.6h73.672"/>
  <path id="path358" d="m159.51 1120.7h73.851"/>
  <path id="path360" d="m159.42 1120.8h74.029"/>
  <path id="path362" d="m159.33 1120.9h74.207"/>
  <path id="path364" d="m159.24 1121h74.385"/>
  <path id="path366" d="m159.16 1121.1h74.551"/>
  <path id="path368" d="m159.08 1121.2h74.701"/>
  <path id="path370" d="m159.01 1121.3h74.85"/>
  <path id="path372" d="m158.93 1121.4h74.999"/>
  <path id="path374" d="m158.86 1121.5h75.149"/>
  <path id="path376" d="m158.78 1121.6h75.297"/>
  <path id="path378" d="m158.71 1121.7h75.447"/>
  <path id="path380" d="m158.63 1121.8h75.597"/>
  <path id="path382" d="m158.56 1121.9h75.745"/>
  <path id="path384" d="m158.48 1122h75.895"/>
  <path id="path386" d="m158.41 1122.1h76.044"/>
  <path id="path388" d="m158.34 1122.2h76.193"/>
  <path id="path390" d="m158.26 1122.3h76.343"/>
  <path id="path392" d="m158.19 1122.4h76.491"/>
  <path id="path394" d="m158.11 1122.5h76.641"/>
  <path id="path396" d="m158.04 1122.6h76.79"/>
  <path id="path398" d="m157.96 1122.7h76.939"/>
  <path id="path400" d="m157.89 1122.8h77.089"/>
  <path id="path402" d="m157.81 1122.9h77.237"/>
  <path id="path404" d="m157.74 1123h77.387"/>
  <path id="path406" d="m157.66 1123.1h77.537"/>
  <path id="path408" d="m157.59 1123.2h77.685"/>
  <path id="path410" d="m157.51 1123.3h77.835"/>
  <path id="path412" d="m157.44 1123.4h77.984"/>
  <path id="path414" d="m157.36 1123.5h78.133"/>
  <path id="path416" d="m157.29 1123.6h78.283"/>
  <path id="path418" d="m157.22 1123.6h78.431"/>
  <path id="path420" d="m157.14 1123.7h78.581"/>
  <path id="path422" d="m157.07 1123.8h78.73"/>
  <path id="path424" d="m156.99 1123.9h78.879"/>
  <path id="path426" d="m156.92 1124h79.029"/>
  <path id="path428" d="m156.84 1124.1h79.177"/>
  <path id="path430" d="m156.77 1124.2h79.327"/>
  <path id="path432" d="m156.69 1124.3h79.477"/>
  <path id="path434" d="m156.62 1124.4h79.625"/>
  <path id="path436" d="m156.55 1124.5h79.755"/>
  <path id="path438" d="m156.49 1124.6h79.879"/>
  <path id="path440" d="m156.43 1124.7h80.003"/>
  <path id="path442" d="m156.37 1124.8h80.127"/>
  <path id="path444" d="m156.31 1124.9h80.251"/>
  <path id="path446" d="m156.24 1125h80.375"/>
  <path id="path448" d="m156.18 1125.1h80.499"/>
  <path id="path450" d="m156.12 1125.2h80.622"/>
  <path id="path452" d="m156.06 1125.3h80.746"/>
  <path id="path454" d="m156 1125.4h80.87"/>
  <path id="path456" d="m155.94 1125.5h80.994"/>
  <path id="path458" d="m155.87 1125.6h81.117"/>
  <path id="path460" d="m155.81 1125.7h81.241"/>
  <path id="path462" d="m155.75 1125.8h81.365"/>
  <path id="path464" d="m155.69 1125.9h81.489"/>
  <path id="path466" d="m155.62 1126h81.613"/>
  <path id="path468" d="m155.56 1126.1h81.737"/>
  <path id="path470" d="m155.5 1126.2h81.861"/>
  <path id="path472" d="m155.44 1126.3h81.985"/>
  <path id="path474" d="m155.38 1126.4h82.109"/>
  <path id="path476" d="m155.32 1126.5h82.233"/>
  <path id="path478" d="m155.25 1126.6h82.357"/>
  <path id="path480" d="m155.19 1126.7h82.481"/>
  <path id="path482" d="m155.13 1126.8h82.605"/>
  <path id="path484" d="m155.07 1126.9h82.729"/>
  <path id="path486" d="m155 1127h82.853"/>
  <path id="path488" d="m154.94 1127.1h82.977"/>
  <path id="path490" d="m154.88 1127.1h83.101"/>
  <path id="path492" d="m154.82 1127.2h83.224"/>
  <path id="path494" d="m154.76 1127.3h83.348"/>
  <path id="path496" d="m154.7 1127.4h83.471"/>
  <path id="path498" d="m154.63 1127.5h83.595"/>
  <path id="path500" d="m154.57 1127.6h83.719"/>
  <path id="path502" d="m154.51 1127.7h83.843"/>
  <path id="path504" d="m154.45 1127.8h83.967"/>
  <path id="path506" d="m154.39 1127.9h84.091"/>
  <path id="path508" d="m154.32 1128h84.215"/>
  <path id="path510" d="m154.27 1128.1h84.317"/>
  <path id="path512" d="m154.22 1128.2h84.417"/>
  <path id="path514" d="m154.17 1128.3h84.519"/>
  <path id="path516" d="m154.12 1128.4h84.621"/>
  <path id="path518" d="m154.07 1128.5h84.721"/>
  <path id="path520" d="m154.02 1128.6h84.823"/>
  <path id="path522" d="m153.97 1128.7h84.924"/>
  <path id="path524" d="m153.92 1128.8h85.025"/>
  <path id="path526" d="m153.87 1128.9h85.127"/>
  <path id="path528" d="m153.82 1129h85.227"/>
  <path id="path530" d="m153.77 1129.1h85.329"/>
  <path id="path532" d="m153.72 1129.2h85.431"/>
  <path id="path534" d="m153.67 1129.3h85.531"/>
  <path id="path536" d="m153.62 1129.4h85.633"/>
  <path id="path538" d="m153.56 1129.5h85.734"/>
  <path id="path540" d="m153.51 1129.6h85.835"/>
  <path id="path542" d="m153.46 1129.7h85.937"/>
  <path id="path544" d="m153.41 1129.8h86.037"/>
  <path id="path546" d="m153.36 1129.9h86.139"/>
  <path id="path548" d="m153.31 1130h86.24"/>
  <path id="path550" d="m153.26 1130.1h86.341"/>
  <path id="path552" d="m153.21 1130.2h86.443"/>
  <path id="path554" d="m153.16 1130.3h86.543"/>
  <path id="path556" d="m153.11 1130.4h86.645"/>
  <path id="path558" d="m153.06 1130.5h86.747"/>
  <path id="path560" d="m153.01 1130.6h86.847"/>
  <path id="path562" d="m152.96 1130.6h86.949"/>
  <path id="path564" d="m152.91 1130.7h87.05"/>
  <path id="path566" d="m152.86 1130.8h87.151"/>
  <path id="path568" d="m152.8 1130.9h87.253"/>
  <path id="path570" d="m152.76 1131h87.354"/>
  <path id="path572" d="m152.7 1131.1h87.455"/>
  <path id="path574" d="m152.65 1131.2h87.557"/>
  <path id="path576" d="m152.6 1131.3h87.657"/>
  <path id="path578" d="m152.55 1131.4h87.759"/>
  <path id="path580" d="m152.5 1131.5h87.86"/>
  <path id="path582" d="m152.45 1131.6h87.961"/>
  <path id="path584" d="m152.4 1131.7h88.063"/>
  <path id="path586" d="m152.35 1131.8h88.157"/>
  <path id="path588" d="m152.31 1131.9h88.238"/>
  <path id="path590" d="m152.27 1132h88.319"/>
  <path id="path592" d="m152.23 1132.1h88.399"/>
  <path id="path594" d="m152.19 1132.2h88.479"/>
  <path id="path596" d="m152.15 1132.3h88.56"/>
  <path id="path598" d="m152.11 1132.4h88.641"/>
  <path id="path600" d="m152.07 1132.5h88.721"/>
  <path id="path602" d="m152.03 1132.6h88.801"/>
  <path id="path604" d="m151.99 1132.7h88.883"/>
  <path id="path606" d="m151.95 1132.8h88.963"/>
  <path id="path608" d="m151.91 1132.9h89.043"/>
  <path id="path610" d="m151.87 1133h89.124"/>
  <path id="path612" d="m151.83 1133.1h89.205"/>
  <path id="path614" d="m151.79 1133.2h89.285"/>
  <path id="path616" d="m151.75 1133.3h89.365"/>
  <path id="path618" d="m151.71 1133.4h89.447"/>
  <path id="path620" d="m151.67 1133.5h89.527"/>
  <path id="path622" d="m151.63 1133.6h89.607"/>
  <path id="path624" d="m151.59 1133.7h89.688"/>
  <path id="path626" d="m151.55 1133.8h89.769"/>
  <path id="path628" d="m151.51 1133.9h89.849"/>
  <path id="path630" d="m151.47 1134h89.929"/>
  <path id="path632" d="m151.43 1134.1h90.011"/>
  <path id="path634" d="m151.39 1134.2h90.091"/>
  <path id="path636" d="m151.35 1134.2h90.171"/>
  <path id="path638" d="m151.31 1134.3h90.252"/>
  <path id="path640" d="m151.26 1134.4h90.333"/>
  <path id="path642" d="m151.22 1134.5h90.413"/>
  <path id="path644" d="m151.18 1134.6h90.493"/>
  <path id="path646" d="m151.14 1134.7h90.574"/>
  <path id="path648" d="m151.1 1134.8h90.655"/>
  <path id="path650" d="m151.06 1134.9h90.735"/>
  <path id="path652" d="m151.02 1135h90.815"/>
  <path id="path654" d="m150.98 1135.1h90.897"/>
  <path id="path656" d="m150.94 1135.2h90.977"/>
  <path id="path658" d="m150.9 1135.3h91.057"/>
  <path id="path660" d="m150.86 1135.4h91.138"/>
  <path id="path662" d="m150.82 1135.5h91.219"/>
  <path id="path664" d="m150.78 1135.6h91.299"/>
  <path id="path666" d="m150.74 1135.7h91.379"/>
  <path id="path668" d="m150.71 1135.8h91.441"/>
  <path id="path670" d="m150.68 1135.9h91.502"/>
  <path id="path672" d="m150.65 1136h91.563"/>
  <path id="path674" d="m150.62 1136.1h91.625"/>
  <path id="path676" d="m150.59 1136.2h91.686"/>
  <path id="path678" d="m150.56 1136.3h91.747"/>
  <path id="path680" d="m150.53 1136.4h91.809"/>
  <path id="path682" d="m150.5 1136.5h91.87"/>
  <path id="path684" d="m150.47 1136.6h91.931"/>
  <path id="path686" d="m150.44 1136.7h91.993"/>
  <path id="path688" d="m150.4 1136.8h92.054"/>
  <path id="path690" d="m150.37 1136.9h92.115"/>
  <path id="path692" d="m150.34 1137h92.177"/>
  <path id="path694" d="m150.31 1137.1h92.238"/>
  <path id="path696" d="m150.28 1137.2h92.299"/>
  <path id="path698" d="m150.25 1137.3h92.361"/>
  <path id="path700" d="m150.22 1137.4h92.422"/>
  <path id="path702" d="m150.19 1137.5h92.483"/>
  <path id="path704" d="m150.16 1137.6h92.545"/>
  <path id="path706" d="m150.13 1137.7h92.606"/>
  <path id="path708" d="m150.1 1137.7h92.667"/>
  <path id="path710" d="m150.07 1137.8h92.729"/>
  <path id="path712" d="m150.04 1137.9h92.79"/>
  <path id="path714" d="m150.01 1138h92.851"/>
  <path id="path716" d="m149.98 1138.1h92.913"/>
  <path id="path718" d="m149.94 1138.2h92.973"/>
  <path id="path720" d="m149.91 1138.3h93.035"/>
  <path id="path722" d="m149.88 1138.4h93.097"/>
  <path id="path724" d="m149.85 1138.5h93.157"/>
  <path id="path726" d="m149.82 1138.6h93.219"/>
  <path id="path728" d="m149.79 1138.7h93.281"/>
  <path id="path730" d="m149.76 1138.8h93.341"/>
  <path id="path732" d="m149.73 1138.9h93.403"/>
  <path id="path734" d="m149.7 1139h93.465"/>
  <path id="path736" d="m149.67 1139.1h93.525"/>
  <path id="path738" d="m149.64 1139.2h93.587"/>
  <path id="path740" d="m149.61 1139.3h93.649"/>
  <path id="path742" d="m149.58 1139.4h93.709"/>
  <path id="path744" d="m149.55 1139.5h93.771"/>
  <path id="path746" d="m149.52 1139.6h93.833"/>
  <path id="path748" d="m149.48 1139.7h93.893"/>
  <path id="path750" d="m149.46 1139.8h93.947"/>
  <path id="path752" d="m149.44 1139.9h93.991"/>
  <path id="path754" d="m149.42 1140h94.033"/>
  <path id="path756" d="m149.39 1140.1h94.077"/>
  <path id="path758" d="m149.37 1140.2h94.12"/>
  <path id="path760" d="m149.35 1140.3h94.163"/>
  <path id="path762" d="m149.33 1140.4h94.207"/>
  <path id="path764" d="m149.31 1140.5h94.249"/>
  <path id="path766" d="m149.28 1140.6h94.293"/>
  <path id="path768" d="m149.26 1140.7h94.335"/>
  <path id="path770" d="m149.24 1140.8h94.379"/>
  <path id="path772" d="m149.22 1140.9h94.421"/>
  <path id="path774" d="m149.2 1141h94.465"/>
  <path id="path776" d="m149.18 1141.1h94.508"/>
  <path id="path778" d="m149.16 1141.2h94.551"/>
  <path id="path780" d="m149.13 1141.2h94.595"/>
  <path id="path782" d="m149.11 1141.3h94.637"/>
  <path id="path784" d="m149.09 1141.4h94.681"/>
  <path id="path786" d="m149.07 1141.5h94.723"/>
  <path id="path788" d="m149.05 1141.6h94.767"/>
  <path id="path790" d="m149.03 1141.7h94.81"/>
  <path id="path792" d="m149 1141.8h94.853"/>
  <path id="path794" d="m148.98 1141.9h94.896"/>
  <path id="path796" d="m148.96 1142h94.939"/>
  <path id="path798" d="m148.94 1142.1h94.983"/>
  <path id="path800" d="m148.92 1142.2h95.025"/>
  <path id="path802" d="m148.9 1142.3h95.069"/>
  <path id="path804" d="m148.88 1142.4h95.111"/>
  <path id="path806" d="m148.85 1142.5h95.155"/>
  <path id="path808" d="m148.83 1142.6h95.198"/>
  <path id="path810" d="m148.81 1142.7h95.241"/>
  <path id="path812" d="m148.79 1142.8h95.285"/>
  <path id="path814" d="m148.77 1142.9h95.327"/>
  <path id="path816" d="m148.75 1143h95.371"/>
  <path id="path818" d="m148.72 1143.1h95.413"/>
  <path id="path820" d="m148.7 1143.2h95.457"/>
  <path id="path822" d="m148.68 1143.3h95.499"/>
  <path id="path824" d="m148.66 1143.4h95.543"/>
  <path id="path826" d="m148.64 1143.5h95.586"/>
  <path id="path828" d="m148.62 1143.6h95.629"/>
  <path id="path830" d="m148.6 1143.7h95.673"/>
  <path id="path832" d="m148.57 1143.8h95.715"/>
  <path id="path834" d="m148.55 1143.9h95.759"/>
  <path id="path836" d="m148.54 1144h95.787"/>
  <path id="path838" d="m148.52 1144.1h95.813"/>
  <path id="path840" d="m148.51 1144.2h95.839"/>
  <path id="path842" d="m148.5 1144.3h95.864"/>
  <path id="path844" d="m148.49 1144.4h95.889"/>
  <path id="path846" d="m148.47 1144.5h95.915"/>
  <path id="path848" d="m148.46 1144.6h95.941"/>
  <path id="path850" d="m148.45 1144.7h95.967"/>
  <path id="path852" d="m148.44 1144.8h95.992"/>
  <path id="path854" d="m148.42 1144.8h96.017"/>
  <path id="path856" d="m148.41 1144.9h96.043"/>
  <path id="path858" d="m148.4 1145h96.069"/>
  <path id="path860" d="m148.38 1145.1h96.095"/>
  <path id="path862" d="m148.37 1145.2h96.12"/>
  <path id="path864" d="m148.36 1145.3h96.145"/>
  <path id="path866" d="m148.35 1145.4h96.171"/>
  <path id="path868" d="m148.33 1145.5h96.197"/>
  <path id="path870" d="m148.32 1145.6h96.223"/>
  <path id="path872" d="m148.31 1145.7h96.248"/>
  <path id="path874" d="m148.3 1145.8h96.273"/>
  <path id="path876" d="m148.28 1145.9h96.299"/>
  <path id="path878" d="m148.27 1146h96.325"/>
  <path id="path880" d="m148.26 1146.1h96.351"/>
  <path id="path882" d="m148.24 1146.2h96.377"/>
  <path id="path884" d="m148.23 1146.3h96.401"/>
  <path id="path886" d="m148.22 1146.4h96.427"/>
  <path id="path888" d="m148.2 1146.5h96.453"/>
  <path id="path890" d="m148.19 1146.6h96.479"/>
  <path id="path892" d="m148.18 1146.7h96.504"/>
  <path id="path894" d="m148.17 1146.8h96.529"/>
  <path id="path896" d="m148.15 1146.9h96.555"/>
  <path id="path898" d="m148.14 1147h96.581"/>
  <path id="path900" d="m148.13 1147.1h96.607"/>
  <path id="path902" d="m148.12 1147.2h96.633"/>
  <path id="path904" d="m148.1 1147.3h96.657"/>
  <path id="path906" d="m148.09 1147.4h96.683"/>
  <path id="path908" d="m148.08 1147.5h96.709"/>
  <path id="path910" d="m148.06 1147.6h96.735"/>
  <path id="path912" d="m148.05 1147.7h96.761"/>
  <path id="path914" d="m148.04 1147.8h96.785"/>
  <path id="path916" d="m148.03 1147.9h96.811"/>
  <path id="path918" d="m148.01 1148h96.837"/>
  <path id="path920" d="m148 1148.1h96.863"/>
  <path id="path922" d="m147.99 1148.2h96.879"/>
  <path id="path924" d="m147.99 1148.2h96.887"/>
  <path id="path926" d="m147.98 1148.3h96.895"/>
  <path id="path928" d="m147.98 1148.4h96.903"/>
  <path id="path930" d="m147.98 1148.5h96.913"/>
  <path id="path932" d="m147.97 1148.6h96.921"/>
  <path id="path934" d="m147.97 1148.7h96.929"/>
  <path id="path936" d="m147.96 1148.8h96.937"/>
  <path id="path938" d="m147.96 1148.9h96.947"/>
  <path id="path940" d="m147.95 1149h96.955"/>
  <path id="path942" d="m147.95 1149.1h96.963"/>
  <path id="path944" d="m147.95 1149.2h96.971"/>
  <path id="path946" d="m147.94 1149.3h96.981"/>
  <path id="path948" d="m147.94 1149.4h96.989"/>
  <path id="path950" d="m147.93 1149.5h96.997"/>
  <path id="path952" d="m147.93 1149.6h97.005"/>
  <path id="path954" d="m147.92 1149.7h97.015"/>
  <path id="path956" d="m147.92 1149.8h97.023"/>
  <path id="path958" d="m147.92 1149.9h97.031"/>
  <path id="path960" d="m147.91 1150h97.039"/>
  <path id="path962" d="m147.91 1150.1h97.049"/>
  <path id="path964" d="m147.9 1150.2h97.057"/>
  <path id="path966" d="m147.9 1150.3h97.065"/>
  <path id="path968" d="m147.9 1150.4h97.073"/>
  <path id="path970" d="m147.89 1150.5h97.082"/>
  <path id="path972" d="m147.89 1150.6h97.091"/>
  <path id="path974" d="m147.88 1150.7h97.099"/>
  <path id="path976" d="m147.88 1150.8h97.107"/>
  <path id="path978" d="m147.87 1150.9h97.116"/>
  <path id="path980" d="m147.87 1151h97.125"/>
  <path id="path982" d="m147.86 1151.1h97.133"/>
  <path id="path984" d="m147.86 1151.2h97.141"/>
  <path id="path986" d="m147.86 1151.3h97.15"/>
  <path id="path988" d="m147.85 1151.4h97.159"/>
  <path id="path990" d="m147.85 1151.5h97.167"/>
  <path id="path992" d="m147.84 1151.6h97.175"/>
  <path id="path994" d="m147.84 1151.7h97.184"/>
  <path id="path996" d="m147.84 1151.8h97.193"/>
  <path id="path998" d="m147.83 1151.8h97.201"/>
  <path id="path1000" d="m147.83 1151.9h97.209"/>
  <path id="path1002" d="m147.82 1152h97.218"/>
  <path id="path1004" d="m147.82 1152.1h97.227"/>
  <path id="path1006" d="m147.81 1152.2h97.235"/>
  <path id="path1008" d="m147.81 1152.3h97.243"/>
  <path id="path1010" d="m147.81 1152.4h97.235"/>
  <path id="path1012" d="m147.82 1152.5h97.227"/>
  <path id="path1014" d="m147.82 1152.6h97.218"/>
  <path id="path1016" d="m147.83 1152.7h97.209"/>
  <path id="path1018" d="m147.83 1152.8h97.201"/>
  <path id="path1020" d="m147.84 1152.9h97.193"/>
  <path id="path1022" d="m147.84 1153h97.184"/>
  <path id="path1024" d="m147.84 1153.1h97.175"/>
  <path id="path1026" d="m147.85 1153.2h97.167"/>
  <path id="path1028" d="m147.85 1153.3h97.159"/>
  <path id="path1030" d="m147.86 1153.4h97.15"/>
  <path id="path1032" d="m147.86 1153.5h97.141"/>
  <path id="path1034" d="m147.86 1153.6h97.133"/>
  <path id="path1036" d="m147.87 1153.7h97.125"/>
  <path id="path1038" d="m147.87 1153.8h97.116"/>
  <path id="path1040" d="m147.88 1153.9h97.107"/>
  <path id="path1042" d="m147.88 1154h97.099"/>
  <path id="path1044" d="m147.89 1154.1h97.091"/>
  <path id="path1046" d="m147.89 1154.2h97.082"/>
  <path id="path1048" d="m147.9 1154.3h97.073"/>
  <path id="path1050" d="m147.9 1154.4h97.065"/>
  <path id="path1052" d="m147.9 1154.5h97.057"/>
  <path id="path1054" d="m147.91 1154.6h97.049"/>
  <path id="path1056" d="m147.91 1154.7h97.039"/>
  <path id="path1058" d="m147.92 1154.8h97.031"/>
  <path id="path1060" d="m147.92 1154.9h97.023"/>
  <path id="path1062" d="m147.92 1155h97.015"/>
  <path id="path1064" d="m147.93 1155.1h97.005"/>
  <path id="path1066" d="m147.93 1155.2h96.997"/>
  <path id="path1068" d="m147.94 1155.3h96.989"/>
  <path id="path1070" d="m147.94 1155.3h96.981"/>
  <path id="path1072" d="m147.95 1155.4h96.971"/>
  <path id="path1074" d="m147.95 1155.5h96.963"/>
  <path id="path1076" d="m147.95 1155.6h96.955"/>
  <path id="path1078" d="m147.96 1155.7h96.947"/>
  <path id="path1080" d="m147.96 1155.8h96.937"/>
  <path id="path1082" d="m147.97 1155.9h96.929"/>
  <path id="path1084" d="m147.97 1156h96.921"/>
  <path id="path1086" d="m147.98 1156.1h96.913"/>
  <path id="path1088" d="m147.98 1156.2h96.903"/>
  <path id="path1090" d="m147.98 1156.3h96.895"/>
  <path id="path1092" d="m147.99 1156.4h96.887"/>
  <path id="path1094" d="m147.99 1156.5h96.879"/>
  <path id="path1096" d="m148 1156.6h96.863"/>
  <path id="path1098" d="m148.01 1156.7h96.837"/>
  <path id="path1100" d="m148.03 1156.8h96.811"/>
  <path id="path1102" d="m148.04 1156.9h96.785"/>
  <path id="path1104" d="m148.05 1157h96.761"/>
  <path id="path1106" d="m148.06 1157.1h96.735"/>
  <path id="path1108" d="m148.08 1157.2h96.709"/>
  <path id="path1110" d="m148.09 1157.3h96.683"/>
  <path id="path1112" d="m148.1 1157.4h96.657"/>
  <path id="path1114" d="m148.12 1157.5h96.632"/>
  <path id="path1116" d="m148.13 1157.6h96.607"/>
  <path id="path1118" d="m148.14 1157.7h96.581"/>
  <path id="path1120" d="m148.15 1157.8h96.555"/>
  <path id="path1122" d="m148.17 1157.9h96.529"/>
  <path id="path1124" d="m148.18 1158h96.504"/>
  <path id="path1126" d="m148.19 1158.1h96.479"/>
  <path id="path1128" d="m148.2 1158.2h96.453"/>
  <path id="path1130" d="m148.22 1158.3h96.427"/>
  <path id="path1132" d="m148.23 1158.4h96.401"/>
  <path id="path1134" d="m148.24 1158.5h96.376"/>
  <path id="path1136" d="m148.26 1158.6h96.351"/>
  <path id="path1138" d="m148.27 1158.7h96.325"/>
  <path id="path1140" d="m148.28 1158.8h96.299"/>
  <path id="path1142" d="m148.3 1158.8h96.273"/>
  <path id="path1144" d="m148.31 1158.9h96.248"/>
  <path id="path1146" d="m148.32 1159h96.223"/>
  <path id="path1148" d="m148.33 1159.1h96.197"/>
  <path id="path1150" d="m148.35 1159.2h96.171"/>
  <path id="path1152" d="m148.36 1159.3h96.145"/>
  <path id="path1154" d="m148.37 1159.4h96.12"/>
  <path id="path1156" d="m148.38 1159.5h96.095"/>
  <path id="path1158" d="m148.4 1159.6h96.069"/>
  <path id="path1160" d="m148.41 1159.7h96.043"/>
  <path id="path1162" d="m148.42 1159.8h96.017"/>
  <path id="path1164" d="m148.44 1159.9h95.992"/>
  <path id="path1166" d="m148.45 1160h95.967"/>
  <path id="path1168" d="m148.46 1160.1h95.941"/>
  <path id="path1170" d="m148.47 1160.2h95.915"/>
  <path id="path1172" d="m148.49 1160.3h95.889"/>
  <path id="path1174" d="m148.5 1160.4h95.864"/>
  <path id="path1176" d="m148.51 1160.5h95.839"/>
  <path id="path1178" d="m148.52 1160.6h95.813"/>
  <path id="path1180" d="m148.54 1160.7h95.787"/>
  <path id="path1182" d="m148.55 1160.8h95.759"/>
  <path id="path1184" d="m148.57 1160.9h95.715"/>
  <path id="path1186" d="m148.6 1161h95.673"/>
  <path id="path1188" d="m148.62 1161.1h95.629"/>
  <path id="path1190" d="m148.64 1161.2h95.586"/>
  <path id="path1192" d="m148.66 1161.3h95.543"/>
  <path id="path1194" d="m148.68 1161.4h95.5"/>
  <path id="path1196" d="m148.7 1161.5h95.457"/>
  <path id="path1198" d="m148.72 1161.6h95.413"/>
  <path id="path1200" d="m148.75 1161.7h95.371"/>
  <path id="path1202" d="m148.77 1161.8h95.327"/>
  <path id="path1204" d="m148.79 1161.9h95.285"/>
  <path id="path1206" d="m148.81 1162h95.241"/>
  <path id="path1208" d="m148.83 1162.1h95.198"/>
  <path id="path1210" d="m148.85 1162.2h95.155"/>
  <path id="path1212" d="m148.88 1162.3h95.111"/>
  <path id="path1214" d="m148.9 1162.4h95.069"/>
  <path id="path1216" d="m148.92 1162.4h95.025"/>
  <path id="path1218" d="m148.94 1162.5h94.983"/>
  <path id="path1220" d="m148.96 1162.6h94.939"/>
  <path id="path1222" d="m148.98 1162.7h94.896"/>
  <path id="path1224" d="m149 1162.8h94.853"/>
  <path id="path1226" d="m149.03 1162.9h94.81"/>
  <path id="path1228" d="m149.05 1163h94.767"/>
  <path id="path1230" d="m149.07 1163.1h94.723"/>
  <path id="path1232" d="m149.09 1163.2h94.681"/>
  <path id="path1234" d="m149.11 1163.3h94.637"/>
  <path id="path1236" d="m149.13 1163.4h94.595"/>
  <path id="path1238" d="m149.16 1163.5h94.551"/>
  <path id="path1240" d="m149.18 1163.6h94.508"/>
  <path id="path1242" d="m149.2 1163.7h94.465"/>
  <path id="path1244" d="m149.22 1163.8h94.422"/>
  <path id="path1246" d="m149.24 1163.9h94.379"/>
  <path id="path1248" d="m149.26 1164h94.335"/>
  <path id="path1250" d="m149.28 1164.1h94.293"/>
  <path id="path1252" d="m149.31 1164.2h94.249"/>
  <path id="path1254" d="m149.33 1164.3h94.207"/>
  <path id="path1256" d="m149.35 1164.4h94.163"/>
  <path id="path1258" d="m149.37 1164.5h94.12"/>
  <path id="path1260" d="m149.39 1164.6h94.077"/>
  <path id="path1262" d="m149.42 1164.7h94.033"/>
  <path id="path1264" d="m149.44 1164.8h93.991"/>
  <path id="path1266" d="m149.46 1164.9h93.947"/>
  <path id="path1268" d="m149.48 1165h93.893"/>
  <path id="path1270" d="m149.52 1165.1h93.833"/>
  <path id="path1272" d="m149.55 1165.2h93.771"/>
  <path id="path1274" d="m149.58 1165.3h93.709"/>
  <path id="path1276" d="m149.61 1165.4h93.649"/>
  <path id="path1278" d="m149.64 1165.5h93.587"/>
  <path id="path1280" d="m149.67 1165.6h93.525"/>
  <path id="path1282" d="m149.7 1165.7h93.465"/>
  <path id="path1284" d="m149.73 1165.8h93.403"/>
  <path id="path1286" d="m149.76 1165.9h93.341"/>
  <path id="path1288" d="m149.79 1165.9h93.281"/>
  <path id="path1290" d="m149.82 1166h93.219"/>
  <path id="path1292" d="m149.85 1166.1h93.157"/>
  <path id="path1294" d="m149.88 1166.2h93.097"/>
  <path id="path1296" d="m149.91 1166.3h93.035"/>
  <path id="path1298" d="m149.94 1166.4h92.973"/>
  <path id="path1300" d="m149.98 1166.5h92.913"/>
  <path id="path1302" d="m150.01 1166.6h92.851"/>
  <path id="path1304" d="m150.04 1166.7h92.79"/>
  <path id="path1306" d="m150.07 1166.8h92.729"/>
  <path id="path1308" d="m150.1 1166.9h92.667"/>
  <path id="path1310" d="m150.13 1167h92.606"/>
  <path id="path1312" d="m150.16 1167.1h92.545"/>
  <path id="path1314" d="m150.19 1167.2h92.483"/>
  <path id="path1316" d="m150.22 1167.3h92.422"/>
  <path id="path1318" d="m150.25 1167.4h92.361"/>
  <path id="path1320" d="m150.28 1167.5h92.299"/>
  <path id="path1322" d="m150.31 1167.6h92.238"/>
  <path id="path1324" d="m150.34 1167.7h92.177"/>
  <path id="path1326" d="m150.37 1167.8h92.115"/>
  <path id="path1328" d="m150.4 1167.9h92.054"/>
  <path id="path1330" d="m150.44 1168h91.993"/>
  <path id="path1332" d="m150.47 1168.1h91.931"/>
  <path id="path1334" d="m150.5 1168.2h91.87"/>
  <path id="path1336" d="m150.53 1168.3h91.809"/>
  <path id="path1338" d="m150.56 1168.4h91.747"/>
  <path id="path1340" d="m150.59 1168.5h91.686"/>
  <path id="path1342" d="m150.62 1168.6h91.625"/>
  <path id="path1344" d="m150.65 1168.7h91.563"/>
  <path id="path1346" d="m150.68 1168.8h91.502"/>
  <path id="path1348" d="m150.71 1168.9h91.441"/>
  <path id="path1350" d="m150.74 1169h91.379"/>
  <path id="path1352" d="m150.78 1169.1h91.299"/>
  <path id="path1354" d="m150.82 1169.2h91.219"/>
  <path id="path1356" d="m150.86 1169.3h91.138"/>
  <path id="path1358" d="m150.9 1169.4h91.057"/>
  <path id="path1360" d="m150.94 1169.4h90.977"/>
  <path id="path1362" d="m150.98 1169.5h90.897"/>
  <path id="path1364" d="m151.02 1169.6h90.815"/>
  <path id="path1366" d="m151.06 1169.7h90.735"/>
  <path id="path1368" d="m151.1 1169.8h90.655"/>
  <path id="path1370" d="m151.14 1169.9h90.574"/>
  <path id="path1372" d="m151.18 1170h90.493"/>
  <path id="path1374" d="m151.22 1170.1h90.413"/>
  <path id="path1376" d="m151.26 1170.2h90.333"/>
  <path id="path1378" d="m151.31 1170.3h90.252"/>
  <path id="path1380" d="m151.35 1170.4h90.171"/>
  <path id="path1382" d="m151.39 1170.5h90.091"/>
  <path id="path1384" d="m151.43 1170.6h90.011"/>
  <path id="path1386" d="m151.47 1170.7h89.929"/>
  <path id="path1388" d="m151.51 1170.8h89.849"/>
  <path id="path1390" d="m151.55 1170.9h89.769"/>
  <path id="path1392" d="m151.59 1171h89.688"/>
  <path id="path1394" d="m151.63 1171.1h89.607"/>
  <path id="path1396" d="m151.67 1171.2h89.527"/>
  <path id="path1398" d="m151.71 1171.3h89.447"/>
  <path id="path1400" d="m151.75 1171.4h89.365"/>
  <path id="path1402" d="m151.79 1171.5h89.285"/>
  <path id="path1404" d="m151.83 1171.6h89.205"/>
  <path id="path1406" d="m151.87 1171.7h89.124"/>
  <path id="path1408" d="m151.91 1171.8h89.043"/>
  <path id="path1410" d="m151.95 1171.9h88.963"/>
  <path id="path1412" d="m151.99 1172h88.883"/>
  <path id="path1414" d="m152.03 1172.1h88.801"/>
  <path id="path1416" d="m152.07 1172.2h88.721"/>
  <path id="path1418" d="m152.11 1172.3h88.641"/>
  <path id="path1420" d="m152.15 1172.4h88.56"/>
  <path id="path1422" d="m152.19 1172.5h88.479"/>
  <path id="path1424" d="m152.23 1172.6h88.399"/>
  <path id="path1426" d="m152.27 1172.7h88.319"/>
  <path id="path1428" d="m152.31 1172.8h88.238"/>
  <path id="path1430" d="m152.35 1172.9h88.157"/>
  <path id="path1432" d="m152.4 1173h88.063"/>
  <path id="path1434" d="m152.45 1173h87.961"/>
  <path id="path1436" d="m152.5 1173.1h87.86"/>
  <path id="path1438" d="m152.55 1173.2h87.759"/>
  <path id="path1440" d="m152.6 1173.3h87.657"/>
  <path id="path1442" d="m152.65 1173.4h87.557"/>
  <path id="path1444" d="m152.7 1173.5h87.455"/>
  <path id="path1446" d="m152.76 1173.6h87.354"/>
  <path id="path1448" d="m152.8 1173.7h87.253"/>
  <path id="path1450" d="m152.86 1173.8h87.151"/>
  <path id="path1452" d="m152.91 1173.9h87.05"/>
  <path id="path1454" d="m152.96 1174h86.949"/>
  <path id="path1456" d="m153.01 1174.1h86.847"/>
  <path id="path1458" d="m153.06 1174.2h86.747"/>
  <path id="path1460" d="m153.11 1174.3h86.645"/>
  <path id="path1462" d="m153.16 1174.4h86.543"/>
  <path id="path1464" d="m153.21 1174.5h86.443"/>
  <path id="path1466" d="m153.26 1174.6h86.341"/>
  <path id="path1468" d="m153.31 1174.7h86.24"/>
  <path id="path1470" d="m153.36 1174.8h86.139"/>
  <path id="path1472" d="m153.41 1174.9h86.037"/>
  <path id="path1474" d="m153.46 1175h85.937"/>
  <path id="path1476" d="m153.51 1175.1h85.835"/>
  <path id="path1478" d="m153.56 1175.2h85.734"/>
  <path id="path1480" d="m153.62 1175.3h85.633"/>
  <path id="path1482" d="m153.67 1175.4h85.531"/>
  <path id="path1484" d="m153.72 1175.5h85.431"/>
  <path id="path1486" d="m153.77 1175.6h85.329"/>
  <path id="path1488" d="m153.82 1175.7h85.227"/>
  <path id="path1490" d="m153.87 1175.8h85.127"/>
  <path id="path1492" d="m153.92 1175.9h85.025"/>
  <path id="path1494" d="m153.97 1176h84.924"/>
  <path id="path1496" d="m154.02 1176.1h84.823"/>
  <path id="path1498" d="m154.07 1176.2h84.721"/>
  <path id="path1500" d="m154.12 1176.3h84.621"/>
  <path id="path1502" d="m154.17 1176.4h84.519"/>
  <path id="path1504" d="m154.22 1176.5h84.417"/>
  <path id="path1506" d="m154.27 1176.5h84.317"/>
  <path id="path1508" d="m154.32 1176.6h84.215"/>
  <path id="path1510" d="m154.39 1176.7h84.091"/>
  <path id="path1512" d="m154.45 1176.8h83.967"/>
  <path id="path1514" d="m154.51 1176.9h83.843"/>
  <path id="path1516" d="m154.57 1177h83.719"/>
  <path id="path1518" d="m154.63 1177.1h83.595"/>
  <path id="path1520" d="m154.7 1177.2h83.471"/>
  <path id="path1522" d="m154.76 1177.3h83.348"/>
  <path id="path1524" d="m154.82 1177.4h83.224"/>
  <path id="path1526" d="m154.88 1177.5h83.101"/>
  <path id="path1528" d="m154.94 1177.6h82.977"/>
  <path id="path1530" d="m155 1177.7h82.853"/>
  <path id="path1532" d="m155.07 1177.8h82.729"/>
  <path id="path1534" d="m155.13 1177.9h82.605"/>
  <path id="path1536" d="m155.19 1178h82.481"/>
  <path id="path1538" d="m155.25 1178.1h82.357"/>
  <path id="path1540" d="m155.32 1178.2h82.233"/>
  <path id="path1542" d="m155.38 1178.3h82.109"/>
  <path id="path1544" d="m155.44 1178.4h81.985"/>
  <path id="path1546" d="m155.5 1178.5h81.861"/>
  <path id="path1548" d="m155.56 1178.6h81.737"/>
  <path id="path1550" d="m155.62 1178.7h81.613"/>
  <path id="path1552" d="m155.69 1178.8h81.489"/>
  <path id="path1554" d="m155.75 1178.9h81.365"/>
  <path id="path1556" d="m155.81 1179h81.241"/>
  <path id="path1558" d="m155.87 1179.1h81.117"/>
  <path id="path1560" d="m155.94 1179.2h80.994"/>
  <path id="path1562" d="m156 1179.3h80.87"/>
  <path id="path1564" d="m156.06 1179.4h80.746"/>
  <path id="path1566" d="m156.12 1179.5h80.622"/>
  <path id="path1568" d="m156.18 1179.6h80.499"/>
  <path id="path1570" d="m156.24 1179.7h80.375"/>
  <path id="path1572" d="m156.31 1179.8h80.251"/>
  <path id="path1574" d="m156.37 1179.9h80.127"/>
  <path id="path1576" d="m156.43 1180h80.003"/>
  <path id="path1578" d="m156.49 1180h79.879"/>
  <path id="path1580" d="m156.55 1180.1h79.755"/>
  <path id="path1582" d="m156.62 1180.2h79.625"/>
  <path id="path1584" d="m156.69 1180.3h79.477"/>
  <path id="path1586" d="m156.77 1180.4h79.327"/>
  <path id="path1588" d="m156.84 1180.5h79.177"/>
  <path id="path1590" d="m156.92 1180.6h79.029"/>
  <path id="path1592" d="m156.99 1180.7h78.879"/>
  <path id="path1594" d="m157.07 1180.8h78.73"/>
  <path id="path1596" d="m157.14 1180.9h78.581"/>
  <path id="path1598" d="m157.22 1181h78.431"/>
  <path id="path1600" d="m157.29 1181.1h78.283"/>
  <path id="path1602" d="m157.36 1181.2h78.133"/>
  <path id="path1604" d="m157.44 1181.3h77.984"/>
  <path id="path1606" d="m157.51 1181.4h77.835"/>
  <path id="path1608" d="m157.59 1181.5h77.685"/>
  <path id="path1610" d="m157.66 1181.6h77.537"/>
  <path id="path1612" d="m157.74 1181.7h77.387"/>
  <path id="path1614" d="m157.81 1181.8h77.237"/>
  <path id="path1616" d="m157.89 1181.9h77.089"/>
  <path id="path1618" d="m157.96 1182h76.939"/>
  <path id="path1620" d="m158.04 1182.1h76.79"/>
  <path id="path1622" d="m158.11 1182.2h76.641"/>
  <path id="path1624" d="m158.19 1182.3h76.491"/>
  <path id="path1626" d="m158.26 1182.4h76.343"/>
  <path id="path1628" d="m158.34 1182.5h76.193"/>
  <path id="path1630" d="m158.41 1182.6h76.044"/>
  <path id="path1632" d="m158.48 1182.7h75.895"/>
  <path id="path1634" d="m158.56 1182.8h75.745"/>
  <path id="path1636" d="m158.63 1182.9h75.597"/>
  <path id="path1638" d="m158.71 1183h75.447"/>
  <path id="path1640" d="m158.78 1183.1h75.297"/>
  <path id="path1642" d="m158.86 1183.2h75.149"/>
  <path id="path1644" d="m158.93 1183.3h74.999"/>
  <path id="path1646" d="m159.01 1183.4h74.85"/>
  <path id="path1648" d="m159.08 1183.5h74.701"/>
  <path id="path1650" d="m159.16 1183.6h74.551"/>
  <path id="path1652" d="m159.24 1183.6h74.385"/>
  <path id="path1654" d="m159.33 1183.7h74.207"/>
  <path id="path1656" d="m159.42 1183.8h74.029"/>
  <path id="path1658" d="m159.51 1183.9h73.851"/>
  <path id="path1660" d="m159.6 1184h73.672"/>
  <path id="path1662" d="m159.68 1184.1h73.493"/>
  <path id="path1664" d="m159.77 1184.2h73.315"/>
  <path id="path1666" d="m159.86 1184.3h73.137"/>
  <path id="path1668" d="m159.95 1184.4h72.959"/>
  <path id="path1670" d="m160.04 1184.5h72.781"/>
  <path id="path1672" d="m160.13 1184.6h72.603"/>
  <path id="path1674" d="m160.22 1184.7h72.425"/>
  <path id="path1676" d="m160.31 1184.8h72.247"/>
  <path id="path1678" d="m160.4 1184.9h72.068"/>
  <path id="path1680" d="m160.49 1185h71.89"/>
  <path id="path1682" d="m160.58 1185.1h71.711"/>
  <path id="path1684" d="m160.66 1185.2h71.533"/>
  <path id="path1686" d="m160.75 1185.3h71.355"/>
  <path id="path1688" d="m160.84 1185.4h71.177"/>
  <path id="path1690" d="m160.93 1185.5h70.999"/>
  <path id="path1692" d="m161.02 1185.6h70.821"/>
  <path id="path1694" d="m161.11 1185.7h70.643"/>
  <path id="path1696" d="m161.2 1185.8h70.464"/>
  <path id="path1698" d="m161.29 1185.9h70.286"/>
  <path id="path1700" d="m161.38 1186h70.107"/>
  <path id="path1702" d="m161.47 1186.1h69.929"/>
  <path id="path1704" d="m161.56 1186.2h69.751"/>
  <path id="path1706" d="m161.64 1186.3h69.573"/>
  <path id="path1708" d="m161.73 1186.4h69.395"/>
  <path id="path1710" d="m161.82 1186.5h69.217"/>
  <path id="path1712" d="m161.91 1186.6h69.039"/>
  <path id="path1714" d="m162 1186.7h68.86"/>
  <path id="path1716" d="m162.1 1186.8h68.667"/>
  <path id="path1718" d="m162.2 1186.9h68.455"/>
  <path id="path1720" d="m162.31 1187h68.243"/>
  <path id="path1722" d="m162.42 1187.1h68.03"/>
  <path id="path1724" d="m162.52 1187.1h67.817"/>
  <path id="path1726" d="m162.63 1187.2h67.605"/>
  <path id="path1728" d="m162.74 1187.3h67.393"/>
  <path id="path1730" d="m162.84 1187.4h67.181"/>
  <path id="path1732" d="m162.95 1187.5h66.969"/>
  <path id="path1734" d="m163.05 1187.6h66.757"/>
  <path id="path1736" d="m163.16 1187.7h66.545"/>
  <path id="path1738" d="m163.27 1187.8h66.332"/>
  <path id="path1740" d="m163.37 1187.9h66.119"/>
  <path id="path1742" d="m163.48 1188h65.907"/>
  <path id="path1744" d="m163.58 1188.1h65.695"/>
  <path id="path1746" d="m163.69 1188.2h65.483"/>
  <path id="path1748" d="m163.8 1188.3h65.271"/>
  <path id="path1750" d="m163.9 1188.4h65.059"/>
  <path id="path1752" d="m164.01 1188.5h64.847"/>
  <path id="path1754" d="m164.12 1188.6h64.634"/>
  <path id="path1756" d="m164.22 1188.7h64.422"/>
  <path id="path1758" d="m164.33 1188.8h64.209"/>
  <path id="path1760" d="m164.43 1188.9h63.997"/>
  <path id="path1762" d="m164.54 1189h63.785"/>
  <path id="path1764" d="m164.64 1189.1h63.573"/>
  <path id="path1766" d="m164.75 1189.2h63.361"/>
  <path id="path1768" d="m164.86 1189.3h63.149"/>
  <path id="path1770" d="m164.96 1189.4h62.937"/>
  <path id="path1772" d="m165.07 1189.5h62.724"/>
  <path id="path1774" d="m165.18 1189.6h62.511"/>
  <path id="path1776" d="m165.3 1189.7h62.259"/>
  <path id="path1778" d="m165.43 1189.8h62.005"/>
  <path id="path1780" d="m165.56 1189.9h61.753"/>
  <path id="path1782" d="m165.68 1190h61.499"/>
  <path id="path1784" d="m165.81 1190.1h61.245"/>
  <path id="path1786" d="m165.94 1190.2h60.991"/>
  <path id="path1788" d="m166.06 1190.3h60.739"/>
  <path id="path1790" d="m166.19 1190.4h60.485"/>
  <path id="path1792" d="m166.32 1190.5h60.231"/>
  <path id="path1794" d="m166.44 1190.6h59.978"/>
  <path id="path1796" d="m166.57 1190.6h59.725"/>
  <path id="path1798" d="m166.7 1190.7h59.471"/>
  <path id="path1800" d="m166.82 1190.8h59.217"/>
  <path id="path1802" d="m166.95 1190.9h58.964"/>
  <path id="path1804" d="m167.08 1191h58.711"/>
  <path id="path1806" d="m167.2 1191.1h58.457"/>
  <path id="path1808" d="m167.33 1191.2h58.203"/>
  <path id="path1810" d="m167.46 1191.3h57.951"/>
  <path id="path1812" d="m167.58 1191.4h57.697"/>
  <path id="path1814" d="m167.71 1191.5h57.443"/>
  <path id="path1816" d="m167.84 1191.6h57.19"/>
  <path id="path1818" d="m167.96 1191.7h56.937"/>
  <path id="path1820" d="m168.09 1191.8h56.683"/>
  <path id="path1822" d="m168.22 1191.9h56.429"/>
  <path id="path1824" d="m168.34 1192h56.176"/>
  <path id="path1826" d="m168.47 1192.1h55.923"/>
  <path id="path1828" d="m168.61 1192.2h55.647"/>
  <path id="path1830" d="m168.76 1192.3h55.341"/>
  <path id="path1832" d="m168.91 1192.4h55.037"/>
  <path id="path1834" d="m169.07 1192.5h54.731"/>
  <path id="path1836" d="m169.22 1192.6h54.426"/>
  <path id="path1838" d="m169.37 1192.7h54.121"/>
  <path id="path1840" d="m169.52 1192.8h53.815"/>
  <path id="path1842" d="m169.68 1192.9h53.51"/>
  <path id="path1844" d="m169.83 1193h53.205"/>
  <path id="path1846" d="m169.98 1193.1h52.899"/>
  <path id="path1848" d="m170.13 1193.2h52.595"/>
  <path id="path1850" d="m170.29 1193.3h52.289"/>
  <path id="path1852" d="m170.44 1193.4h51.983"/>
  <path id="path1854" d="m170.59 1193.5h51.679"/>
  <path id="path1856" d="m170.74 1193.6h51.373"/>
  <path id="path1858" d="m170.9 1193.7h51.068"/>
  <path id="path1860" d="m171.05 1193.8h50.763"/>
  <path id="path1862" d="m171.2 1193.9h50.457"/>
  <path id="path1864" d="m171.36 1194h50.152"/>
  <path id="path1866" d="m171.51 1194.1h49.847"/>
  <path id="path1868" d="m171.66 1194.1h49.541"/>
  <path id="path1870" d="m171.81 1194.2h49.236"/>
  <path id="path1872" d="m171.97 1194.3h48.931"/>
  <path id="path1874" d="m172.12 1194.4h48.625"/>
  <path id="path1876" d="m172.3 1194.5h48.253"/>
  <path id="path1878" d="m172.49 1194.6h47.879"/>
  <path id="path1880" d="m172.68 1194.7h47.505"/>
  <path id="path1882" d="m172.87 1194.8h47.132"/>
  <path id="path1884" d="m173.05 1194.9h46.759"/>
  <path id="path1886" d="m173.24 1195h46.385"/>
  <path id="path1888" d="m173.43 1195.1h46.011"/>
  <path id="path1890" d="m173.61 1195.2h45.637"/>
  <path id="path1892" d="m173.8 1195.3h45.264"/>
  <path id="path1894" d="m173.99 1195.4h44.891"/>
  <path id="path1896" d="m174.17 1195.5h44.517"/>
  <path id="path1898" d="m174.36 1195.6h44.143"/>
  <path id="path1900" d="m174.55 1195.7h43.769"/>
  <path id="path1902" d="m174.73 1195.8h43.396"/>
  <path id="path1904" d="m174.92 1195.9h43.023"/>
  <path id="path1906" d="m175.11 1196h42.649"/>
  <path id="path1908" d="m175.29 1196.1h42.275"/>
  <path id="path1910" d="m175.48 1196.2h41.901"/>
  <path id="path1912" d="m175.67 1196.3h41.528"/>
  <path id="path1914" d="m175.85 1196.4h41.155"/>
  <path id="path1916" d="m176.08 1196.5h40.699"/>
  <path id="path1918" d="m176.32 1196.6h40.23"/>
  <path id="path1920" d="m176.55 1196.7h39.761"/>
  <path id="path1922" d="m176.79 1196.8h39.291"/>
  <path id="path1924" d="m177.02 1196.9h38.821"/>
  <path id="path1926" d="m177.26 1197h38.351"/>
  <path id="path1928" d="m177.49 1197.1h37.883"/>
  <path id="path1930" d="m177.72 1197.2h37.413"/>
  <path id="path1932" d="m177.96 1197.3h36.943"/>
  <path id="path1934" d="m178.2 1197.4h36.473"/>
  <path id="path1936" d="m178.43 1197.5h36.005"/>
  <path id="path1938" d="m178.66 1197.6h35.535"/>
  <path id="path1940" d="m178.9 1197.6h35.065"/>
  <path id="path1942" d="m179.13 1197.7h34.595"/>
  <path id="path1944" d="m179.37 1197.8h34.126"/>
  <path id="path1946" d="m179.6 1197.9h33.657"/>
  <path id="path1948" d="m179.85 1198h33.165"/>
  <path id="path1950" d="m180.16 1198.1h32.547"/>
  <path id="path1952" d="m180.47 1198.2h31.931"/>
  <path id="path1954" d="m180.78 1198.3h31.314"/>
  <path id="path1956" d="m181.08 1198.4h30.697"/>
  <path id="path1958" d="m181.39 1198.5h30.081"/>
  <path id="path1960" d="m181.7 1198.6h29.463"/>
  <path id="path1962" d="m182.01 1198.7h28.847"/>
  <path id="path1964" d="m182.32 1198.8h28.229"/>
  <path id="path1966" d="m182.62 1198.9h27.613"/>
  <path id="path1968" d="m182.93 1199h26.996"/>
  <path id="path1970" d="m183.24 1199.1h26.379"/>
  <path id="path1972" d="m183.55 1199.2h25.763"/>
  <path id="path1974" d="m183.86 1199.3h25.135"/>
  <path id="path1976" d="m184.3 1199.4h24.259"/>
  <path id="path1978" d="m184.74 1199.5h23.381"/>
  <path id="path1980" d="m185.18 1199.6h22.504"/>
  <path id="path1982" d="m185.62 1199.7h21.627"/>
  <path id="path1984" d="m186.06 1199.8h20.749"/>
  <path id="path1986" d="m186.5 1199.9h19.873"/>
  <path id="path1988" d="m186.93 1200h18.995"/>
  <path id="path1990" d="m187.37 1200.1h18.118"/>
  <path id="path1992" d="m187.81 1200.2h17.241"/>
  <path id="path1994" d="m188.43 1200.3h16.006"/>
  <path id="path1996" d="m189.17 1200.4h14.529"/>
  <path id="path1998" d="m189.91 1200.5h13.051"/>
  <path id="path2000" d="m190.64 1200.6h11.574"/>
  <path id="path2002" d="m191.38 1200.7h10.097"/>
  <path id="path2004" d="m192.12 1200.8h8.619"/>
  <path id="path2006" d="m194.2 1200.9h4.455"/>
  <path id="path2008" d="m245.05 1152.3-0.185 4.237-0.553 4.206-0.918 4.141-1.276 4.045-1.623 3.919-1.959 3.762-2.279 3.578-2.582 3.365-2.866 3.127-3.127 2.866"/>
  <path id="path2010" d="m227.68 1189.6-3.365 2.582-3.578 2.279-3.762 1.959-3.919 1.623-4.045 1.276-4.141 0.918-4.206 0.553-4.237 0.185-4.238-0.185-4.206-0.553"/>
  <path id="path2012" d="m187.99 1200.2-4.141-0.918-4.045-1.276-3.919-1.623-3.762-1.959-3.578-2.279-3.365-2.582-3.127-2.866-2.866-3.127-2.582-3.365-2.279-3.578"/>
  <path id="path2014" d="m154.32 1176.6-1.959-3.762-1.623-3.919-1.275-4.045-0.918-4.141-0.554-4.206-0.185-4.237 0.185-4.238 0.554-4.205 0.918-4.142 1.275-4.045"/>
  <path id="path2016" d="m150.74 1135.7 1.623-3.919 1.959-3.762 2.279-3.578 2.582-3.365 2.866-3.127 3.127-2.866 3.365-2.582 3.578-2.279 3.762-1.959 3.919-1.623"/>
  <path id="path2018" d="m179.8 1106.6 4.045-1.275 4.141-0.918 4.206-0.554 4.238-0.185 4.237 0.185 4.206 0.554 4.141 0.918 4.045 1.275 3.919 1.623 3.762 1.959"/>
  <path id="path2020" d="m220.74 1110.2 3.578 2.279 3.365 2.582 3.127 2.866 2.866 3.127 2.582 3.365 2.279 3.578 1.959 3.762 1.623 3.919 1.276 4.045 0.918 4.142"/>
  <path id="path2022" d="m244.32 1143.9 0.553 4.205 0.185 4.238-0.185 4.237"/>
 </g>
</svg>
