<?xml version="1.0" encoding="UTF-8"?>
<svg id="svg2026" width="489.87" height="574.52" version="1.1" viewBox="0 0 489.87 574.52" xmlns="http://www.w3.org/2000/svg">
 <g id="g2024" transform="translate(13.677 -768.56)" fill="none" stroke="#000" stroke-width="4mm">
  <path id="path6" d="m-7.2833 777.08 469.79-0.934-235.36 375.46-234.43-371.73"/>
  <path id="path8" d="m224.07 1096.6h4.279"/>
  <path id="path10" d="m222.07 1096.7h8.279"/>
  <path id="path12" d="m221.36 1096.8h9.697"/>
  <path id="path14" d="m220.66 1096.9h11.116"/>
  <path id="path16" d="m219.95 1097h12.535"/>
  <path id="path18" d="m219.24 1097.1h13.954"/>
  <path id="path20" d="m218.53 1097.2h15.372"/>
  <path id="path22" d="m217.93 1097.2h16.559"/>
  <path id="path24" d="m217.51 1097.3h17.401"/>
  <path id="path26" d="m217.09 1097.4h18.244"/>
  <path id="path28" d="m216.67 1097.5h19.087"/>
  <path id="path30" d="m216.25 1097.6h19.929"/>
  <path id="path32" d="m215.83 1097.7h20.771"/>
  <path id="path34" d="m215.41 1097.8h21.614"/>
  <path id="path36" d="m214.98 1097.9h22.457"/>
  <path id="path38" d="m214.56 1098h23.299"/>
  <path id="path40" d="m214.14 1098.1h24.142"/>
  <path id="path42" d="m213.84 1098.2h24.743"/>
  <path id="path44" d="m213.55 1098.3h25.336"/>
  <path id="path46" d="m213.25 1098.4h25.929"/>
  <path id="path48" d="m212.95 1098.5h26.521"/>
  <path id="path50" d="m212.66 1098.6h27.113"/>
  <path id="path52" d="m212.36 1098.6h27.706"/>
  <path id="path54" d="m212.06 1098.7h28.299"/>
  <path id="path56" d="m211.77 1098.8h28.891"/>
  <path id="path58" d="m211.47 1098.9h29.483"/>
  <path id="path60" d="m211.18 1099h30.076"/>
  <path id="path62" d="m210.88 1099.1h30.668"/>
  <path id="path64" d="m210.58 1099.2h31.261"/>
  <path id="path66" d="m210.29 1099.3h31.853"/>
  <path id="path68" d="m210.05 1099.4h32.326"/>
  <path id="path70" d="m209.82 1099.5h32.777"/>
  <path id="path72" d="m209.6 1099.6h33.228"/>
  <path id="path74" d="m209.37 1099.7h33.679"/>
  <path id="path76" d="m209.15 1099.8h34.13"/>
  <path id="path78" d="m208.92 1099.9h34.581"/>
  <path id="path80" d="m208.7 1100h35.031"/>
  <path id="path82" d="m208.47 1100h35.483"/>
  <path id="path84" d="m208.25 1100.1h35.933"/>
  <path id="path86" d="m208.02 1100.2h36.385"/>
  <path id="path88" d="m207.8 1100.3h36.835"/>
  <path id="path90" d="m207.57 1100.4h37.287"/>
  <path id="path92" d="m207.34 1100.5h37.737"/>
  <path id="path94" d="m207.12 1100.6h38.189"/>
  <path id="path96" d="m206.89 1100.7h38.639"/>
  <path id="path98" d="m206.67 1100.8h39.09"/>
  <path id="path100" d="m206.45 1100.9h39.527"/>
  <path id="path102" d="m206.27 1101h39.886"/>
  <path id="path104" d="m206.09 1101.1h40.245"/>
  <path id="path106" d="m205.91 1101.2h40.603"/>
  <path id="path108" d="m205.73 1101.3h40.963"/>
  <path id="path110" d="m205.55 1101.4h41.321"/>
  <path id="path112" d="m205.37 1101.4h41.68"/>
  <path id="path114" d="m205.19 1101.5h42.039"/>
  <path id="path116" d="m205.01 1101.6h42.398"/>
  <path id="path118" d="m204.83 1101.7h42.757"/>
  <path id="path120" d="m204.66 1101.8h43.115"/>
  <path id="path122" d="m204.48 1101.9h43.474"/>
  <path id="path124" d="m204.3 1102h43.833"/>
  <path id="path126" d="m204.12 1102.1h44.192"/>
  <path id="path128" d="m203.94 1102.2h44.551"/>
  <path id="path130" d="m203.76 1102.3h44.909"/>
  <path id="path132" d="m203.58 1102.4h45.269"/>
  <path id="path134" d="m203.4 1102.5h45.627"/>
  <path id="path136" d="m203.22 1102.6h45.986"/>
  <path id="path138" d="m203.04 1102.7h46.345"/>
  <path id="path140" d="m202.86 1102.8h46.703"/>
  <path id="path142" d="m202.72 1102.8h46.996"/>
  <path id="path144" d="m202.57 1102.9h47.289"/>
  <path id="path146" d="m202.42 1103h47.583"/>
  <path id="path148" d="m202.28 1103.1h47.876"/>
  <path id="path150" d="m202.13 1103.2h48.169"/>
  <path id="path152" d="m201.98 1103.3h48.462"/>
  <path id="path154" d="m201.84 1103.4h48.755"/>
  <path id="path156" d="m201.69 1103.5h49.049"/>
  <path id="path158" d="m201.54 1103.6h49.342"/>
  <path id="path160" d="m201.4 1103.7h49.635"/>
  <path id="path162" d="m201.25 1103.8h49.928"/>
  <path id="path164" d="m201.1 1103.9h50.221"/>
  <path id="path166" d="m200.96 1104h50.515"/>
  <path id="path168" d="m200.81 1104.1h50.808"/>
  <path id="path170" d="m200.66 1104.2h51.101"/>
  <path id="path172" d="m200.52 1104.3h51.395"/>
  <path id="path174" d="m200.37 1104.3h51.687"/>
  <path id="path176" d="m200.22 1104.4h51.981"/>
  <path id="path178" d="m200.08 1104.5h52.274"/>
  <path id="path180" d="m199.93 1104.6h52.567"/>
  <path id="path182" d="m199.78 1104.7h52.861"/>
  <path id="path184" d="m199.64 1104.8h53.153"/>
  <path id="path186" d="m199.49 1104.9h53.447"/>
  <path id="path188" d="m199.36 1105h53.711"/>
  <path id="path190" d="m199.24 1105.1h53.955"/>
  <path id="path192" d="m199.11 1105.2h54.198"/>
  <path id="path194" d="m198.99 1105.3h54.442"/>
  <path id="path196" d="m198.87 1105.4h54.685"/>
  <path id="path198" d="m198.75 1105.5h54.929"/>
  <path id="path200" d="m198.63 1105.6h55.172"/>
  <path id="path202" d="m198.51 1105.7h55.415"/>
  <path id="path204" d="m198.38 1105.7h55.659"/>
  <path id="path206" d="m198.26 1105.8h55.903"/>
  <path id="path208" d="m198.14 1105.9h56.146"/>
  <path id="path210" d="m198.02 1106h56.389"/>
  <path id="path212" d="m197.9 1106.1h56.633"/>
  <path id="path214" d="m197.78 1106.2h56.876"/>
  <path id="path216" d="m197.65 1106.3h57.119"/>
  <path id="path218" d="m197.53 1106.4h57.363"/>
  <path id="path220" d="m197.41 1106.5h57.607"/>
  <path id="path222" d="m197.29 1106.6h57.85"/>
  <path id="path224" d="m197.17 1106.7h58.093"/>
  <path id="path226" d="m197.04 1106.8h58.337"/>
  <path id="path228" d="m196.92 1106.9h58.58"/>
  <path id="path230" d="m196.8 1107h58.824"/>
  <path id="path232" d="m196.68 1107.1h59.067"/>
  <path id="path234" d="m196.56 1107.1h59.311"/>
  <path id="path236" d="m196.44 1107.2h59.554"/>
  <path id="path238" d="m196.31 1107.3h59.797"/>
  <path id="path240" d="m196.19 1107.4h60.04"/>
  <path id="path242" d="m196.09 1107.5h60.244"/>
  <path id="path244" d="m195.99 1107.6h60.448"/>
  <path id="path246" d="m195.89 1107.7h60.651"/>
  <path id="path248" d="m195.79 1107.8h60.855"/>
  <path id="path250" d="m195.68 1107.9h61.059"/>
  <path id="path252" d="m195.58 1108h61.263"/>
  <path id="path254" d="m195.48 1108.1h61.467"/>
  <path id="path256" d="m195.38 1108.2h61.671"/>
  <path id="path258" d="m195.28 1108.3h61.875"/>
  <path id="path260" d="m195.17 1108.4h62.079"/>
  <path id="path262" d="m195.07 1108.5h62.283"/>
  <path id="path264" d="m194.97 1108.5h62.486"/>
  <path id="path266" d="m194.87 1108.6h62.69"/>
  <path id="path268" d="m194.77 1108.7h62.894"/>
  <path id="path270" d="m194.66 1108.8h63.098"/>
  <path id="path272" d="m194.56 1108.9h63.302"/>
  <path id="path274" d="m194.46 1109h63.505"/>
  <path id="path276" d="m194.36 1109.1h63.709"/>
  <path id="path278" d="m194.26 1109.2h63.913"/>
  <path id="path280" d="m194.15 1109.3h64.117"/>
  <path id="path282" d="m194.05 1109.4h64.321"/>
  <path id="path284" d="m193.95 1109.5h64.525"/>
  <path id="path286" d="m193.85 1109.6h64.729"/>
  <path id="path288" d="m193.75 1109.7h64.933"/>
  <path id="path290" d="m193.64 1109.8h65.137"/>
  <path id="path292" d="m193.54 1109.9h65.34"/>
  <path id="path294" d="m193.44 1109.9h65.544"/>
  <path id="path296" d="m193.34 1110h65.748"/>
  <path id="path298" d="m193.24 1110.1h65.952"/>
  <path id="path300" d="m193.14 1110.2h66.137"/>
  <path id="path302" d="m193.06 1110.3h66.309"/>
  <path id="path304" d="m192.97 1110.4h66.48"/>
  <path id="path306" d="m192.89 1110.5h66.651"/>
  <path id="path308" d="m192.8 1110.6h66.822"/>
  <path id="path310" d="m192.72 1110.7h66.993"/>
  <path id="path312" d="m192.63 1110.8h67.165"/>
  <path id="path314" d="m192.55 1110.9h67.336"/>
  <path id="path316" d="m192.46 1111h67.507"/>
  <path id="path318" d="m192.37 1111.1h67.678"/>
  <path id="path320" d="m192.29 1111.2h67.849"/>
  <path id="path322" d="m192.2 1111.3h68.021"/>
  <path id="path324" d="m192.12 1111.3h68.191"/>
  <path id="path326" d="m192.03 1111.4h68.363"/>
  <path id="path328" d="m191.95 1111.5h68.534"/>
  <path id="path330" d="m191.86 1111.6h68.705"/>
  <path id="path332" d="m191.78 1111.7h68.876"/>
  <path id="path334" d="m191.69 1111.8h69.047"/>
  <path id="path336" d="m191.6 1111.9h69.219"/>
  <path id="path338" d="m191.52 1112h69.39"/>
  <path id="path340" d="m191.43 1112.1h69.561"/>
  <path id="path342" d="m191.35 1112.2h69.732"/>
  <path id="path344" d="m191.26 1112.3h69.903"/>
  <path id="path346" d="m191.18 1112.4h70.075"/>
  <path id="path348" d="m191.09 1112.5h70.245"/>
  <path id="path350" d="m191 1112.6h70.417"/>
  <path id="path352" d="m190.92 1112.7h70.588"/>
  <path id="path354" d="m190.83 1112.8h70.759"/>
  <path id="path356" d="m190.75 1112.8h70.93"/>
  <path id="path358" d="m190.66 1112.9h71.101"/>
  <path id="path360" d="m190.58 1113h71.273"/>
  <path id="path362" d="m190.49 1113.1h71.444"/>
  <path id="path364" d="m190.41 1113.2h71.604"/>
  <path id="path366" d="m190.34 1113.3h71.747"/>
  <path id="path368" d="m190.27 1113.4h71.891"/>
  <path id="path370" d="m190.2 1113.5h72.034"/>
  <path id="path372" d="m190.12 1113.6h72.177"/>
  <path id="path374" d="m190.05 1113.7h72.321"/>
  <path id="path376" d="m189.98 1113.8h72.464"/>
  <path id="path378" d="m189.91 1113.9h72.607"/>
  <path id="path380" d="m189.84 1114h72.751"/>
  <path id="path382" d="m189.77 1114.1h72.894"/>
  <path id="path384" d="m189.69 1114.2h73.037"/>
  <path id="path386" d="m189.62 1114.2h73.181"/>
  <path id="path388" d="m189.55 1114.3h73.324"/>
  <path id="path390" d="m189.48 1114.4h73.467"/>
  <path id="path392" d="m189.41 1114.5h73.611"/>
  <path id="path394" d="m189.34 1114.6h73.754"/>
  <path id="path396" d="m189.26 1114.7h73.897"/>
  <path id="path398" d="m189.19 1114.8h74.041"/>
  <path id="path400" d="m189.12 1114.9h74.184"/>
  <path id="path402" d="m189.05 1115h74.327"/>
  <path id="path404" d="m188.98 1115.1h74.471"/>
  <path id="path406" d="m188.91 1115.2h74.614"/>
  <path id="path408" d="m188.83 1115.3h74.757"/>
  <path id="path410" d="m188.76 1115.4h74.901"/>
  <path id="path412" d="m188.69 1115.5h75.044"/>
  <path id="path414" d="m188.62 1115.6h75.187"/>
  <path id="path416" d="m188.55 1115.6h75.331"/>
  <path id="path418" d="m188.48 1115.7h75.474"/>
  <path id="path420" d="m188.4 1115.8h75.617"/>
  <path id="path422" d="m188.33 1115.9h75.761"/>
  <path id="path424" d="m188.26 1116h75.904"/>
  <path id="path426" d="m188.19 1116.1h76.047"/>
  <path id="path428" d="m188.12 1116.2h76.191"/>
  <path id="path430" d="m188.05 1116.3h76.334"/>
  <path id="path432" d="m187.97 1116.4h76.477"/>
  <path id="path434" d="m187.91 1116.5h76.601"/>
  <path id="path436" d="m187.85 1116.6h76.721"/>
  <path id="path438" d="m187.79 1116.7h76.839"/>
  <path id="path440" d="m187.73 1116.8h76.959"/>
  <path id="path442" d="m187.67 1116.9h77.077"/>
  <path id="path444" d="m187.61 1117h77.197"/>
  <path id="path446" d="m187.56 1117h77.315"/>
  <path id="path448" d="m187.5 1117.1h77.435"/>
  <path id="path450" d="m187.44 1117.2h77.553"/>
  <path id="path452" d="m187.38 1117.3h77.673"/>
  <path id="path454" d="m187.32 1117.4h77.791"/>
  <path id="path456" d="m187.26 1117.5h77.911"/>
  <path id="path458" d="m187.2 1117.6h78.029"/>
  <path id="path460" d="m187.14 1117.7h78.149"/>
  <path id="path462" d="m187.08 1117.8h78.267"/>
  <path id="path464" d="m187.02 1117.9h78.387"/>
  <path id="path466" d="m186.96 1118h78.505"/>
  <path id="path468" d="m186.9 1118.1h78.625"/>
  <path id="path470" d="m186.84 1118.2h78.743"/>
  <path id="path472" d="m186.78 1118.3h78.863"/>
  <path id="path474" d="m186.72 1118.4h78.981"/>
  <path id="path476" d="m186.66 1118.4h79.101"/>
  <path id="path478" d="m186.6 1118.5h79.219"/>
  <path id="path480" d="m186.54 1118.6h79.339"/>
  <path id="path482" d="m186.48 1118.7h79.457"/>
  <path id="path484" d="m186.42 1118.8h79.577"/>
  <path id="path486" d="m186.37 1118.9h79.695"/>
  <path id="path488" d="m186.31 1119h79.815"/>
  <path id="path490" d="m186.25 1119.1h79.933"/>
  <path id="path492" d="m186.19 1119.2h80.053"/>
  <path id="path494" d="m186.13 1119.3h80.171"/>
  <path id="path496" d="m186.07 1119.4h80.291"/>
  <path id="path498" d="m186.01 1119.5h80.409"/>
  <path id="path500" d="m185.95 1119.6h80.529"/>
  <path id="path502" d="m185.89 1119.7h80.647"/>
  <path id="path504" d="m185.83 1119.8h80.767"/>
  <path id="path506" d="m185.77 1119.8h80.885"/>
  <path id="path508" d="m185.72 1119.9h80.983"/>
  <path id="path510" d="m185.67 1120h81.08"/>
  <path id="path512" d="m185.62 1120.1h81.177"/>
  <path id="path514" d="m185.58 1120.2h81.275"/>
  <path id="path516" d="m185.53 1120.3h81.372"/>
  <path id="path518" d="m185.48 1120.4h81.469"/>
  <path id="path520" d="m185.43 1120.5h81.566"/>
  <path id="path522" d="m185.38 1120.6h81.663"/>
  <path id="path524" d="m185.33 1120.7h81.761"/>
  <path id="path526" d="m185.28 1120.8h81.858"/>
  <path id="path528" d="m185.24 1120.9h81.955"/>
  <path id="path530" d="m185.19 1121h82.053"/>
  <path id="path532" d="m185.14 1121.1h82.15"/>
  <path id="path534" d="m185.09 1121.2h82.247"/>
  <path id="path536" d="m185.04 1121.2h82.344"/>
  <path id="path538" d="m184.99 1121.3h82.441"/>
  <path id="path540" d="m184.94 1121.4h82.539"/>
  <path id="path542" d="m184.9 1121.5h82.636"/>
  <path id="path544" d="m184.85 1121.6h82.733"/>
  <path id="path546" d="m184.8 1121.7h82.83"/>
  <path id="path548" d="m184.75 1121.8h82.927"/>
  <path id="path550" d="m184.7 1121.9h83.025"/>
  <path id="path552" d="m184.65 1122h83.122"/>
  <path id="path554" d="m184.6 1122.1h83.219"/>
  <path id="path556" d="m184.55 1122.2h83.317"/>
  <path id="path558" d="m184.51 1122.3h83.414"/>
  <path id="path560" d="m184.46 1122.4h83.511"/>
  <path id="path562" d="m184.41 1122.5h83.608"/>
  <path id="path564" d="m184.36 1122.6h83.705"/>
  <path id="path566" d="m184.31 1122.7h83.803"/>
  <path id="path568" d="m184.26 1122.7h83.9"/>
  <path id="path570" d="m184.21 1122.8h83.997"/>
  <path id="path572" d="m184.17 1122.9h84.095"/>
  <path id="path574" d="m184.12 1123h84.191"/>
  <path id="path576" d="m184.07 1123.1h84.289"/>
  <path id="path578" d="m184.02 1123.2h84.386"/>
  <path id="path580" d="m183.97 1123.3h84.483"/>
  <path id="path582" d="m183.92 1123.4h84.581"/>
  <path id="path584" d="m183.88 1123.5h84.672"/>
  <path id="path586" d="m183.84 1123.6h84.749"/>
  <path id="path588" d="m183.8 1123.7h84.827"/>
  <path id="path590" d="m183.76 1123.8h84.904"/>
  <path id="path592" d="m183.72 1123.9h84.981"/>
  <path id="path594" d="m183.68 1124h85.059"/>
  <path id="path596" d="m183.65 1124.1h85.136"/>
  <path id="path598" d="m183.61 1124.1h85.213"/>
  <path id="path600" d="m183.57 1124.2h85.291"/>
  <path id="path602" d="m183.53 1124.3h85.368"/>
  <path id="path604" d="m183.49 1124.4h85.445"/>
  <path id="path606" d="m183.45 1124.5h85.523"/>
  <path id="path608" d="m183.41 1124.6h85.6"/>
  <path id="path610" d="m183.37 1124.7h85.677"/>
  <path id="path612" d="m183.34 1124.8h85.755"/>
  <path id="path614" d="m183.3 1124.9h85.833"/>
  <path id="path616" d="m183.26 1125h85.91"/>
  <path id="path618" d="m183.22 1125.1h85.987"/>
  <path id="path620" d="m183.18 1125.2h86.065"/>
  <path id="path622" d="m183.14 1125.3h86.142"/>
  <path id="path624" d="m183.1 1125.4h86.219"/>
  <path id="path626" d="m183.06 1125.5h86.297"/>
  <path id="path628" d="m183.03 1125.5h86.374"/>
  <path id="path630" d="m182.99 1125.6h86.451"/>
  <path id="path632" d="m182.95 1125.7h86.529"/>
  <path id="path634" d="m182.91 1125.8h86.606"/>
  <path id="path636" d="m182.87 1125.9h86.683"/>
  <path id="path638" d="m182.83 1126h86.761"/>
  <path id="path640" d="m182.79 1126.1h86.838"/>
  <path id="path642" d="m182.76 1126.2h86.915"/>
  <path id="path644" d="m182.72 1126.3h86.993"/>
  <path id="path646" d="m182.68 1126.4h87.07"/>
  <path id="path648" d="m182.64 1126.5h87.148"/>
  <path id="path650" d="m182.6 1126.6h87.225"/>
  <path id="path652" d="m182.56 1126.7h87.303"/>
  <path id="path654" d="m182.52 1126.8h87.38"/>
  <path id="path656" d="m182.48 1126.9h87.457"/>
  <path id="path658" d="m182.45 1126.9h87.535"/>
  <path id="path660" d="m182.41 1127h87.612"/>
  <path id="path662" d="m182.37 1127.1h87.689"/>
  <path id="path664" d="m182.33 1127.2h87.767"/>
  <path id="path666" d="m182.3 1127.3h87.825"/>
  <path id="path668" d="m182.27 1127.4h87.884"/>
  <path id="path670" d="m182.24 1127.5h87.943"/>
  <path id="path672" d="m182.21 1127.6h88.002"/>
  <path id="path674" d="m182.18 1127.7h88.061"/>
  <path id="path676" d="m182.15 1127.8h88.12"/>
  <path id="path678" d="m182.12 1127.9h88.179"/>
  <path id="path680" d="m182.09 1128h88.238"/>
  <path id="path682" d="m182.06 1128.1h88.297"/>
  <path id="path684" d="m182.04 1128.2h88.355"/>
  <path id="path686" d="m182.01 1128.3h88.415"/>
  <path id="path688" d="m181.98 1128.3h88.473"/>
  <path id="path690" d="m181.95 1128.4h88.532"/>
  <path id="path692" d="m181.92 1128.5h88.591"/>
  <path id="path694" d="m181.89 1128.6h88.65"/>
  <path id="path696" d="m181.86 1128.7h88.709"/>
  <path id="path698" d="m181.83 1128.8h88.768"/>
  <path id="path700" d="m181.8 1128.9h88.827"/>
  <path id="path702" d="m181.77 1129h88.885"/>
  <path id="path704" d="m181.74 1129.1h88.945"/>
  <path id="path706" d="m181.71 1129.2h89.003"/>
  <path id="path708" d="m181.68 1129.3h89.062"/>
  <path id="path710" d="m181.65 1129.4h89.121"/>
  <path id="path712" d="m181.62 1129.5h89.18"/>
  <path id="path714" d="m181.59 1129.6h89.239"/>
  <path id="path716" d="m181.56 1129.7h89.298"/>
  <path id="path718" d="m181.53 1129.7h89.357"/>
  <path id="path720" d="m181.51 1129.8h89.416"/>
  <path id="path722" d="m181.48 1129.9h89.475"/>
  <path id="path724" d="m181.45 1130h89.533"/>
  <path id="path726" d="m181.42 1130.1h89.592"/>
  <path id="path728" d="m181.39 1130.2h89.651"/>
  <path id="path730" d="m181.36 1130.3h89.71"/>
  <path id="path732" d="m181.33 1130.4h89.769"/>
  <path id="path734" d="m181.3 1130.5h89.828"/>
  <path id="path736" d="m181.27 1130.6h89.887"/>
  <path id="path738" d="m181.24 1130.7h89.946"/>
  <path id="path740" d="m181.21 1130.8h90.005"/>
  <path id="path742" d="m181.18 1130.9h90.063"/>
  <path id="path744" d="m181.15 1131h90.122"/>
  <path id="path746" d="m181.12 1131.1h90.181"/>
  <path id="path748" d="m181.1 1131.2h90.233"/>
  <path id="path750" d="m181.08 1131.2h90.275"/>
  <path id="path752" d="m181.06 1131.3h90.316"/>
  <path id="path754" d="m181.03 1131.4h90.357"/>
  <path id="path756" d="m181.01 1131.5h90.399"/>
  <path id="path758" d="m180.99 1131.6h90.44"/>
  <path id="path760" d="m180.97 1131.7h90.481"/>
  <path id="path762" d="m180.95 1131.8h90.523"/>
  <path id="path764" d="m180.93 1131.9h90.564"/>
  <path id="path766" d="m180.91 1132h90.606"/>
  <path id="path768" d="m180.89 1132.1h90.647"/>
  <path id="path770" d="m180.87 1132.2h90.689"/>
  <path id="path772" d="m180.85 1132.3h90.73"/>
  <path id="path774" d="m180.83 1132.4h90.771"/>
  <path id="path776" d="m180.81 1132.5h90.813"/>
  <path id="path778" d="m180.79 1132.6h90.854"/>
  <path id="path780" d="m180.77 1132.6h90.895"/>
  <path id="path782" d="m180.74 1132.7h90.937"/>
  <path id="path784" d="m180.72 1132.8h90.979"/>
  <path id="path786" d="m180.7 1132.9h91.02"/>
  <path id="path788" d="m180.68 1133h91.061"/>
  <path id="path790" d="m180.66 1133.1h91.103"/>
  <path id="path792" d="m180.64 1133.2h91.144"/>
  <path id="path794" d="m180.62 1133.3h91.185"/>
  <path id="path796" d="m180.6 1133.4h91.227"/>
  <path id="path798" d="m180.58 1133.5h91.268"/>
  <path id="path800" d="m180.56 1133.6h91.31"/>
  <path id="path802" d="m180.54 1133.7h91.351"/>
  <path id="path804" d="m180.52 1133.8h91.393"/>
  <path id="path806" d="m180.5 1133.9h91.434"/>
  <path id="path808" d="m180.48 1134h91.475"/>
  <path id="path810" d="m180.45 1134h91.517"/>
  <path id="path812" d="m180.43 1134.1h91.558"/>
  <path id="path814" d="m180.41 1134.2h91.599"/>
  <path id="path816" d="m180.39 1134.3h91.641"/>
  <path id="path818" d="m180.37 1134.4h91.683"/>
  <path id="path820" d="m180.35 1134.5h91.724"/>
  <path id="path822" d="m180.33 1134.6h91.765"/>
  <path id="path824" d="m180.31 1134.7h91.807"/>
  <path id="path826" d="m180.29 1134.8h91.848"/>
  <path id="path828" d="m180.27 1134.9h91.889"/>
  <path id="path830" d="m180.25 1135h91.931"/>
  <path id="path832" d="m180.23 1135.1h91.973"/>
  <path id="path834" d="m180.21 1135.2h92"/>
  <path id="path836" d="m180.2 1135.3h92.025"/>
  <path id="path838" d="m180.19 1135.4h92.049"/>
  <path id="path840" d="m180.18 1135.4h92.073"/>
  <path id="path842" d="m180.16 1135.5h92.099"/>
  <path id="path844" d="m180.15 1135.6h92.123"/>
  <path id="path846" d="m180.14 1135.7h92.147"/>
  <path id="path848" d="m180.13 1135.8h92.172"/>
  <path id="path850" d="m180.11 1135.9h92.197"/>
  <path id="path852" d="m180.1 1136h92.221"/>
  <path id="path854" d="m180.09 1136.1h92.246"/>
  <path id="path856" d="m180.08 1136.2h92.271"/>
  <path id="path858" d="m180.07 1136.3h92.295"/>
  <path id="path860" d="m180.05 1136.4h92.319"/>
  <path id="path862" d="m180.04 1136.5h92.344"/>
  <path id="path864" d="m180.03 1136.6h92.369"/>
  <path id="path866" d="m180.02 1136.7h92.393"/>
  <path id="path868" d="m180 1136.8h92.418"/>
  <path id="path870" d="m179.99 1136.8h92.443"/>
  <path id="path872" d="m179.98 1136.9h92.467"/>
  <path id="path874" d="m179.97 1137h92.492"/>
  <path id="path876" d="m179.96 1137.1h92.516"/>
  <path id="path878" d="m179.94 1137.2h92.541"/>
  <path id="path880" d="m179.93 1137.3h92.565"/>
  <path id="path882" d="m179.92 1137.4h92.59"/>
  <path id="path884" d="m179.91 1137.5h92.615"/>
  <path id="path886" d="m179.89 1137.6h92.639"/>
  <path id="path888" d="m179.88 1137.7h92.664"/>
  <path id="path890" d="m179.87 1137.8h92.689"/>
  <path id="path892" d="m179.86 1137.9h92.713"/>
  <path id="path894" d="m179.84 1138h92.737"/>
  <path id="path896" d="m179.83 1138.1h92.762"/>
  <path id="path898" d="m179.82 1138.2h92.787"/>
  <path id="path900" d="m179.81 1138.2h92.811"/>
  <path id="path902" d="m179.8 1138.3h92.836"/>
  <path id="path904" d="m179.78 1138.4h92.861"/>
  <path id="path906" d="m179.77 1138.5h92.885"/>
  <path id="path908" d="m179.76 1138.6h92.91"/>
  <path id="path910" d="m179.75 1138.7h92.935"/>
  <path id="path912" d="m179.73 1138.8h92.959"/>
  <path id="path914" d="m179.72 1138.9h92.984"/>
  <path id="path916" d="m179.71 1139h93.008"/>
  <path id="path918" d="m179.7 1139.1h93.033"/>
  <path id="path920" d="m179.69 1139.2h93.048"/>
  <path id="path922" d="m179.69 1139.3h93.056"/>
  <path id="path924" d="m179.68 1139.4h93.064"/>
  <path id="path926" d="m179.68 1139.5h93.073"/>
  <path id="path928" d="m179.67 1139.6h93.081"/>
  <path id="path930" d="m179.67 1139.6h93.089"/>
  <path id="path932" d="m179.66 1139.7h93.097"/>
  <path id="path934" d="m179.66 1139.8h93.105"/>
  <path id="path936" d="m179.66 1139.9h93.113"/>
  <path id="path938" d="m179.65 1140h93.121"/>
  <path id="path940" d="m179.65 1140.1h93.129"/>
  <path id="path942" d="m179.64 1140.2h93.137"/>
  <path id="path944" d="m179.64 1140.3h93.146"/>
  <path id="path946" d="m179.64 1140.4h93.154"/>
  <path id="path948" d="m179.63 1140.5h93.162"/>
  <path id="path950" d="m179.63 1140.6h93.17"/>
  <path id="path952" d="m179.62 1140.7h93.179"/>
  <path id="path954" d="m179.62 1140.8h93.187"/>
  <path id="path956" d="m179.62 1140.9h93.195"/>
  <path id="path958" d="m179.61 1141h93.203"/>
  <path id="path960" d="m179.61 1141h93.211"/>
  <path id="path962" d="m179.6 1141.1h93.219"/>
  <path id="path964" d="m179.6 1141.2h93.227"/>
  <path id="path966" d="m179.6 1141.3h93.235"/>
  <path id="path968" d="m179.59 1141.4h93.243"/>
  <path id="path970" d="m179.59 1141.5h93.252"/>
  <path id="path972" d="m179.58 1141.6h93.26"/>
  <path id="path974" d="m179.58 1141.7h93.268"/>
  <path id="path976" d="m179.58 1141.8h93.276"/>
  <path id="path978" d="m179.57 1141.9h93.285"/>
  <path id="path980" d="m179.57 1142h93.293"/>
  <path id="path982" d="m179.56 1142.1h93.301"/>
  <path id="path984" d="m179.56 1142.2h93.309"/>
  <path id="path986" d="m179.55 1142.3h93.317"/>
  <path id="path988" d="m179.55 1142.4h93.325"/>
  <path id="path990" d="m179.55 1142.5h93.333"/>
  <path id="path992" d="m179.54 1142.5h93.341"/>
  <path id="path994" d="m179.54 1142.6h93.349"/>
  <path id="path996" d="m179.53 1142.7h93.358"/>
  <path id="path998" d="m179.53 1142.8h93.366"/>
  <path id="path1000" d="m179.53 1142.9h93.374"/>
  <path id="path1002" d="m179.52 1143h93.382"/>
  <path id="path1004" d="m179.52 1143.1h93.39"/>
  <path id="path1006" d="m179.51 1143.2h93.399"/>
  <path id="path1008" d="m179.52 1143.3h93.39"/>
  <path id="path1010" d="m179.52 1143.4h93.382"/>
  <path id="path1012" d="m179.53 1143.5h93.374"/>
  <path id="path1014" d="m179.53 1143.6h93.366"/>
  <path id="path1016" d="m179.53 1143.7h93.358"/>
  <path id="path1018" d="m179.54 1143.8h93.349"/>
  <path id="path1020" d="m179.54 1143.9h93.341"/>
  <path id="path1022" d="m179.55 1143.9h93.333"/>
  <path id="path1024" d="m179.55 1144h93.325"/>
  <path id="path1026" d="m179.55 1144.1h93.317"/>
  <path id="path1028" d="m179.56 1144.2h93.309"/>
  <path id="path1030" d="m179.56 1144.3h93.301"/>
  <path id="path1032" d="m179.57 1144.4h93.293"/>
  <path id="path1034" d="m179.57 1144.5h93.285"/>
  <path id="path1036" d="m179.58 1144.6h93.276"/>
  <path id="path1038" d="m179.58 1144.7h93.268"/>
  <path id="path1040" d="m179.58 1144.8h93.26"/>
  <path id="path1042" d="m179.59 1144.9h93.252"/>
  <path id="path1044" d="m179.59 1145h93.243"/>
  <path id="path1046" d="m179.6 1145.1h93.235"/>
  <path id="path1048" d="m179.6 1145.2h93.227"/>
  <path id="path1050" d="m179.6 1145.3h93.219"/>
  <path id="path1052" d="m179.61 1145.3h93.211"/>
  <path id="path1054" d="m179.61 1145.4h93.203"/>
  <path id="path1056" d="m179.62 1145.5h93.195"/>
  <path id="path1058" d="m179.62 1145.6h93.187"/>
  <path id="path1060" d="m179.62 1145.7h93.179"/>
  <path id="path1062" d="m179.63 1145.8h93.17"/>
  <path id="path1064" d="m179.63 1145.9h93.162"/>
  <path id="path1066" d="m179.64 1146h93.154"/>
  <path id="path1068" d="m179.64 1146.1h93.146"/>
  <path id="path1070" d="m179.64 1146.2h93.137"/>
  <path id="path1072" d="m179.65 1146.3h93.129"/>
  <path id="path1074" d="m179.65 1146.4h93.121"/>
  <path id="path1076" d="m179.66 1146.5h93.113"/>
  <path id="path1078" d="m179.66 1146.6h93.105"/>
  <path id="path1080" d="m179.66 1146.7h93.097"/>
  <path id="path1082" d="m179.67 1146.7h93.089"/>
  <path id="path1084" d="m179.67 1146.8h93.081"/>
  <path id="path1086" d="m179.68 1146.9h93.073"/>
  <path id="path1088" d="m179.68 1147h93.064"/>
  <path id="path1090" d="m179.69 1147.1h93.056"/>
  <path id="path1092" d="m179.69 1147.2h93.048"/>
  <path id="path1094" d="m179.7 1147.3h93.033"/>
  <path id="path1096" d="m179.71 1147.4h93.008"/>
  <path id="path1098" d="m179.72 1147.5h92.984"/>
  <path id="path1100" d="m179.73 1147.6h92.959"/>
  <path id="path1102" d="m179.75 1147.7h92.935"/>
  <path id="path1104" d="m179.76 1147.8h92.91"/>
  <path id="path1106" d="m179.77 1147.9h92.885"/>
  <path id="path1108" d="m179.78 1148h92.861"/>
  <path id="path1110" d="m179.8 1148.1h92.836"/>
  <path id="path1112" d="m179.81 1148.1h92.811"/>
  <path id="path1114" d="m179.82 1148.2h92.787"/>
  <path id="path1116" d="m179.83 1148.3h92.762"/>
  <path id="path1118" d="m179.84 1148.4h92.738"/>
  <path id="path1120" d="m179.86 1148.5h92.713"/>
  <path id="path1122" d="m179.87 1148.6h92.689"/>
  <path id="path1124" d="m179.88 1148.7h92.664"/>
  <path id="path1126" d="m179.89 1148.8h92.639"/>
  <path id="path1128" d="m179.91 1148.9h92.615"/>
  <path id="path1130" d="m179.92 1149h92.59"/>
  <path id="path1132" d="m179.93 1149.1h92.565"/>
  <path id="path1134" d="m179.94 1149.2h92.541"/>
  <path id="path1136" d="m179.96 1149.3h92.516"/>
  <path id="path1138" d="m179.97 1149.4h92.492"/>
  <path id="path1140" d="m179.98 1149.5h92.467"/>
  <path id="path1142" d="m179.99 1149.5h92.443"/>
  <path id="path1144" d="m180 1149.6h92.418"/>
  <path id="path1146" d="m180.02 1149.7h92.393"/>
  <path id="path1148" d="m180.03 1149.8h92.369"/>
  <path id="path1150" d="m180.04 1149.9h92.344"/>
  <path id="path1152" d="m180.05 1150h92.32"/>
  <path id="path1154" d="m180.07 1150.1h92.295"/>
  <path id="path1156" d="m180.08 1150.2h92.271"/>
  <path id="path1158" d="m180.09 1150.3h92.246"/>
  <path id="path1160" d="m180.1 1150.4h92.221"/>
  <path id="path1162" d="m180.11 1150.5h92.197"/>
  <path id="path1164" d="m180.13 1150.6h92.172"/>
  <path id="path1166" d="m180.14 1150.7h92.147"/>
  <path id="path1168" d="m180.15 1150.8h92.123"/>
  <path id="path1170" d="m180.16 1150.9h92.098"/>
  <path id="path1172" d="m180.18 1151h92.074"/>
  <path id="path1174" d="m180.19 1151h92.049"/>
  <path id="path1176" d="m180.2 1151.1h92.025"/>
  <path id="path1178" d="m180.21 1151.2h92"/>
  <path id="path1180" d="m180.23 1151.3h91.972"/>
  <path id="path1182" d="m180.25 1151.4h91.931"/>
  <path id="path1184" d="m180.27 1151.5h91.889"/>
  <path id="path1186" d="m180.29 1151.6h91.848"/>
  <path id="path1188" d="m180.31 1151.7h91.807"/>
  <path id="path1190" d="m180.33 1151.8h91.765"/>
  <path id="path1192" d="m180.35 1151.9h91.724"/>
  <path id="path1194" d="m180.37 1152h91.683"/>
  <path id="path1196" d="m180.39 1152.1h91.641"/>
  <path id="path1198" d="m180.41 1152.2h91.6"/>
  <path id="path1200" d="m180.43 1152.3h91.558"/>
  <path id="path1202" d="m180.45 1152.4h91.517"/>
  <path id="path1204" d="m180.48 1152.4h91.475"/>
  <path id="path1206" d="m180.5 1152.5h91.434"/>
  <path id="path1208" d="m180.52 1152.6h91.393"/>
  <path id="path1210" d="m180.54 1152.7h91.351"/>
  <path id="path1212" d="m180.56 1152.8h91.31"/>
  <path id="path1214" d="m180.58 1152.9h91.268"/>
  <path id="path1216" d="m180.6 1153h91.227"/>
  <path id="path1218" d="m180.62 1153.1h91.185"/>
  <path id="path1220" d="m180.64 1153.2h91.144"/>
  <path id="path1222" d="m180.66 1153.3h91.103"/>
  <path id="path1224" d="m180.68 1153.4h91.061"/>
  <path id="path1226" d="m180.7 1153.5h91.02"/>
  <path id="path1228" d="m180.72 1153.6h90.979"/>
  <path id="path1230" d="m180.74 1153.7h90.937"/>
  <path id="path1232" d="m180.77 1153.8h90.895"/>
  <path id="path1234" d="m180.79 1153.8h90.854"/>
  <path id="path1236" d="m180.81 1153.9h90.813"/>
  <path id="path1238" d="m180.83 1154h90.771"/>
  <path id="path1240" d="m180.85 1154.1h90.73"/>
  <path id="path1242" d="m180.87 1154.2h90.689"/>
  <path id="path1244" d="m180.89 1154.3h90.647"/>
  <path id="path1246" d="m180.91 1154.4h90.606"/>
  <path id="path1248" d="m180.93 1154.5h90.564"/>
  <path id="path1250" d="m180.95 1154.6h90.523"/>
  <path id="path1252" d="m180.97 1154.7h90.481"/>
  <path id="path1254" d="m180.99 1154.8h90.44"/>
  <path id="path1256" d="m181.01 1154.9h90.399"/>
  <path id="path1258" d="m181.03 1155h90.357"/>
  <path id="path1260" d="m181.06 1155.1h90.316"/>
  <path id="path1262" d="m181.08 1155.2h90.275"/>
  <path id="path1264" d="m181.1 1155.2h90.233"/>
  <path id="path1266" d="m181.12 1155.3h90.181"/>
  <path id="path1268" d="m181.15 1155.4h90.123"/>
  <path id="path1270" d="m181.18 1155.5h90.063"/>
  <path id="path1272" d="m181.21 1155.6h90.005"/>
  <path id="path1274" d="m181.24 1155.7h89.946"/>
  <path id="path1276" d="m181.27 1155.8h89.887"/>
  <path id="path1278" d="m181.3 1155.9h89.828"/>
  <path id="path1280" d="m181.33 1156h89.769"/>
  <path id="path1282" d="m181.36 1156.1h89.71"/>
  <path id="path1284" d="m181.39 1156.2h89.651"/>
  <path id="path1286" d="m181.42 1156.3h89.592"/>
  <path id="path1288" d="m181.45 1156.4h89.533"/>
  <path id="path1290" d="m181.48 1156.5h89.475"/>
  <path id="path1292" d="m181.51 1156.6h89.416"/>
  <path id="path1294" d="m181.53 1156.6h89.357"/>
  <path id="path1296" d="m181.56 1156.7h89.298"/>
  <path id="path1298" d="m181.59 1156.8h89.239"/>
  <path id="path1300" d="m181.62 1156.9h89.18"/>
  <path id="path1302" d="m181.65 1157h89.121"/>
  <path id="path1304" d="m181.68 1157.1h89.062"/>
  <path id="path1306" d="m181.71 1157.2h89.003"/>
  <path id="path1308" d="m181.74 1157.3h88.945"/>
  <path id="path1310" d="m181.77 1157.4h88.885"/>
  <path id="path1312" d="m181.8 1157.5h88.827"/>
  <path id="path1314" d="m181.83 1157.6h88.768"/>
  <path id="path1316" d="m181.86 1157.7h88.709"/>
  <path id="path1318" d="m181.89 1157.8h88.65"/>
  <path id="path1320" d="m181.92 1157.9h88.591"/>
  <path id="path1322" d="m181.95 1158h88.532"/>
  <path id="path1324" d="m181.98 1158h88.473"/>
  <path id="path1326" d="m182.01 1158.1h88.415"/>
  <path id="path1328" d="m182.04 1158.2h88.355"/>
  <path id="path1330" d="m182.06 1158.3h88.297"/>
  <path id="path1332" d="m182.09 1158.4h88.238"/>
  <path id="path1334" d="m182.12 1158.5h88.179"/>
  <path id="path1336" d="m182.15 1158.6h88.12"/>
  <path id="path1338" d="m182.18 1158.7h88.061"/>
  <path id="path1340" d="m182.21 1158.8h88.002"/>
  <path id="path1342" d="m182.24 1158.9h87.943"/>
  <path id="path1344" d="m182.27 1159h87.884"/>
  <path id="path1346" d="m182.3 1159.1h87.825"/>
  <path id="path1348" d="m182.33 1159.2h87.767"/>
  <path id="path1350" d="m182.37 1159.3h87.689"/>
  <path id="path1352" d="m182.41 1159.4h87.612"/>
  <path id="path1354" d="m182.45 1159.4h87.535"/>
  <path id="path1356" d="m182.48 1159.5h87.457"/>
  <path id="path1358" d="m182.52 1159.6h87.38"/>
  <path id="path1360" d="m182.56 1159.7h87.303"/>
  <path id="path1362" d="m182.6 1159.8h87.225"/>
  <path id="path1364" d="m182.64 1159.9h87.148"/>
  <path id="path1366" d="m182.68 1160h87.07"/>
  <path id="path1368" d="m182.72 1160.1h86.993"/>
  <path id="path1370" d="m182.76 1160.2h86.915"/>
  <path id="path1372" d="m182.79 1160.3h86.838"/>
  <path id="path1374" d="m182.83 1160.4h86.761"/>
  <path id="path1376" d="m182.87 1160.5h86.683"/>
  <path id="path1378" d="m182.91 1160.6h86.606"/>
  <path id="path1380" d="m182.95 1160.7h86.529"/>
  <path id="path1382" d="m182.99 1160.8h86.451"/>
  <path id="path1384" d="m183.03 1160.9h86.374"/>
  <path id="path1386" d="m183.06 1160.9h86.297"/>
  <path id="path1388" d="m183.1 1161h86.219"/>
  <path id="path1390" d="m183.14 1161.1h86.142"/>
  <path id="path1392" d="m183.18 1161.2h86.065"/>
  <path id="path1394" d="m183.22 1161.3h85.987"/>
  <path id="path1396" d="m183.26 1161.4h85.91"/>
  <path id="path1398" d="m183.3 1161.5h85.833"/>
  <path id="path1400" d="m183.34 1161.6h85.755"/>
  <path id="path1402" d="m183.37 1161.7h85.677"/>
  <path id="path1404" d="m183.41 1161.8h85.6"/>
  <path id="path1406" d="m183.45 1161.9h85.523"/>
  <path id="path1408" d="m183.49 1162h85.445"/>
  <path id="path1410" d="m183.53 1162.1h85.368"/>
  <path id="path1412" d="m183.57 1162.2h85.291"/>
  <path id="path1414" d="m183.61 1162.3h85.213"/>
  <path id="path1416" d="m183.65 1162.3h85.136"/>
  <path id="path1418" d="m183.68 1162.4h85.059"/>
  <path id="path1420" d="m183.72 1162.5h84.981"/>
  <path id="path1422" d="m183.76 1162.6h84.904"/>
  <path id="path1424" d="m183.8 1162.7h84.827"/>
  <path id="path1426" d="m183.84 1162.8h84.749"/>
  <path id="path1428" d="m183.88 1162.9h84.672"/>
  <path id="path1430" d="m183.92 1163h84.581"/>
  <path id="path1432" d="m183.97 1163.1h84.483"/>
  <path id="path1434" d="m184.02 1163.2h84.386"/>
  <path id="path1436" d="m184.07 1163.3h84.289"/>
  <path id="path1438" d="m184.12 1163.4h84.191"/>
  <path id="path1440" d="m184.17 1163.5h84.095"/>
  <path id="path1442" d="m184.21 1163.6h83.997"/>
  <path id="path1444" d="m184.26 1163.7h83.9"/>
  <path id="path1446" d="m184.31 1163.7h83.803"/>
  <path id="path1448" d="m184.36 1163.8h83.705"/>
  <path id="path1450" d="m184.41 1163.9h83.608"/>
  <path id="path1452" d="m184.46 1164h83.511"/>
  <path id="path1454" d="m184.51 1164.1h83.414"/>
  <path id="path1456" d="m184.55 1164.2h83.317"/>
  <path id="path1458" d="m184.6 1164.3h83.219"/>
  <path id="path1460" d="m184.65 1164.4h83.122"/>
  <path id="path1462" d="m184.7 1164.5h83.025"/>
  <path id="path1464" d="m184.75 1164.6h82.927"/>
  <path id="path1466" d="m184.8 1164.7h82.83"/>
  <path id="path1468" d="m184.85 1164.8h82.733"/>
  <path id="path1470" d="m184.9 1164.9h82.636"/>
  <path id="path1472" d="m184.94 1165h82.539"/>
  <path id="path1474" d="m184.99 1165.1h82.441"/>
  <path id="path1476" d="m185.04 1165.1h82.344"/>
  <path id="path1478" d="m185.09 1165.2h82.247"/>
  <path id="path1480" d="m185.14 1165.3h82.15"/>
  <path id="path1482" d="m185.19 1165.4h82.053"/>
  <path id="path1484" d="m185.24 1165.5h81.955"/>
  <path id="path1486" d="m185.28 1165.6h81.858"/>
  <path id="path1488" d="m185.33 1165.7h81.761"/>
  <path id="path1490" d="m185.38 1165.8h81.663"/>
  <path id="path1492" d="m185.43 1165.9h81.566"/>
  <path id="path1494" d="m185.48 1166h81.469"/>
  <path id="path1496" d="m185.53 1166.1h81.372"/>
  <path id="path1498" d="m185.58 1166.2h81.275"/>
  <path id="path1500" d="m185.62 1166.3h81.177"/>
  <path id="path1502" d="m185.67 1166.4h81.08"/>
  <path id="path1504" d="m185.72 1166.5h80.983"/>
  <path id="path1506" d="m185.77 1166.5h80.885"/>
  <path id="path1508" d="m185.83 1166.6h80.767"/>
  <path id="path1510" d="m185.89 1166.7h80.647"/>
  <path id="path1512" d="m185.95 1166.8h80.529"/>
  <path id="path1514" d="m186.01 1166.9h80.409"/>
  <path id="path1516" d="m186.07 1167h80.291"/>
  <path id="path1518" d="m186.13 1167.1h80.171"/>
  <path id="path1520" d="m186.19 1167.2h80.053"/>
  <path id="path1522" d="m186.25 1167.3h79.933"/>
  <path id="path1524" d="m186.31 1167.4h79.815"/>
  <path id="path1526" d="m186.37 1167.5h79.695"/>
  <path id="path1528" d="m186.42 1167.6h79.577"/>
  <path id="path1530" d="m186.48 1167.7h79.457"/>
  <path id="path1532" d="m186.54 1167.8h79.339"/>
  <path id="path1534" d="m186.6 1167.9h79.219"/>
  <path id="path1536" d="m186.66 1167.9h79.101"/>
  <path id="path1538" d="m186.72 1168h78.981"/>
  <path id="path1540" d="m186.78 1168.1h78.863"/>
  <path id="path1542" d="m186.84 1168.2h78.743"/>
  <path id="path1544" d="m186.9 1168.3h78.625"/>
  <path id="path1546" d="m186.96 1168.4h78.505"/>
  <path id="path1548" d="m187.02 1168.5h78.387"/>
  <path id="path1550" d="m187.08 1168.6h78.267"/>
  <path id="path1552" d="m187.14 1168.7h78.149"/>
  <path id="path1554" d="m187.2 1168.8h78.029"/>
  <path id="path1556" d="m187.26 1168.9h77.911"/>
  <path id="path1558" d="m187.32 1169h77.791"/>
  <path id="path1560" d="m187.38 1169.1h77.673"/>
  <path id="path1562" d="m187.44 1169.2h77.553"/>
  <path id="path1564" d="m187.5 1169.3h77.435"/>
  <path id="path1566" d="m187.56 1169.4h77.315"/>
  <path id="path1568" d="m187.61 1169.4h77.197"/>
  <path id="path1570" d="m187.67 1169.5h77.077"/>
  <path id="path1572" d="m187.73 1169.6h76.959"/>
  <path id="path1574" d="m187.79 1169.7h76.839"/>
  <path id="path1576" d="m187.85 1169.8h76.721"/>
  <path id="path1578" d="m187.91 1169.9h76.601"/>
  <path id="path1580" d="m187.97 1170h76.477"/>
  <path id="path1582" d="m188.05 1170.1h76.334"/>
  <path id="path1584" d="m188.12 1170.2h76.191"/>
  <path id="path1586" d="m188.19 1170.3h76.047"/>
  <path id="path1588" d="m188.26 1170.4h75.904"/>
  <path id="path1590" d="m188.33 1170.5h75.761"/>
  <path id="path1592" d="m188.4 1170.6h75.617"/>
  <path id="path1594" d="m188.48 1170.7h75.474"/>
  <path id="path1596" d="m188.55 1170.8h75.331"/>
  <path id="path1598" d="m188.62 1170.8h75.187"/>
  <path id="path1600" d="m188.69 1170.9h75.044"/>
  <path id="path1602" d="m188.76 1171h74.901"/>
  <path id="path1604" d="m188.83 1171.1h74.757"/>
  <path id="path1606" d="m188.91 1171.2h74.614"/>
  <path id="path1608" d="m188.98 1171.3h74.471"/>
  <path id="path1610" d="m189.05 1171.4h74.327"/>
  <path id="path1612" d="m189.12 1171.5h74.184"/>
  <path id="path1614" d="m189.19 1171.6h74.041"/>
  <path id="path1616" d="m189.26 1171.7h73.897"/>
  <path id="path1618" d="m189.34 1171.8h73.754"/>
  <path id="path1620" d="m189.41 1171.9h73.611"/>
  <path id="path1622" d="m189.48 1172h73.467"/>
  <path id="path1624" d="m189.55 1172.1h73.324"/>
  <path id="path1626" d="m189.62 1172.2h73.181"/>
  <path id="path1628" d="m189.69 1172.2h73.037"/>
  <path id="path1630" d="m189.77 1172.3h72.894"/>
  <path id="path1632" d="m189.84 1172.4h72.751"/>
  <path id="path1634" d="m189.91 1172.5h72.607"/>
  <path id="path1636" d="m189.98 1172.6h72.464"/>
  <path id="path1638" d="m190.05 1172.7h72.321"/>
  <path id="path1640" d="m190.12 1172.8h72.177"/>
  <path id="path1642" d="m190.2 1172.9h72.034"/>
  <path id="path1644" d="m190.27 1173h71.891"/>
  <path id="path1646" d="m190.34 1173.1h71.747"/>
  <path id="path1648" d="m190.41 1173.2h71.604"/>
  <path id="path1650" d="m190.49 1173.3h71.444"/>
  <path id="path1652" d="m190.58 1173.4h71.273"/>
  <path id="path1654" d="m190.66 1173.5h71.101"/>
  <path id="path1656" d="m190.75 1173.6h70.93"/>
  <path id="path1658" d="m190.83 1173.6h70.759"/>
  <path id="path1660" d="m190.92 1173.7h70.588"/>
  <path id="path1662" d="m191 1173.8h70.417"/>
  <path id="path1664" d="m191.09 1173.9h70.245"/>
  <path id="path1666" d="m191.18 1174h70.075"/>
  <path id="path1668" d="m191.26 1174.1h69.903"/>
  <path id="path1670" d="m191.35 1174.2h69.732"/>
  <path id="path1672" d="m191.43 1174.3h69.561"/>
  <path id="path1674" d="m191.52 1174.4h69.39"/>
  <path id="path1676" d="m191.6 1174.5h69.219"/>
  <path id="path1678" d="m191.69 1174.6h69.047"/>
  <path id="path1680" d="m191.78 1174.7h68.876"/>
  <path id="path1682" d="m191.86 1174.8h68.705"/>
  <path id="path1684" d="m191.95 1174.9h68.534"/>
  <path id="path1686" d="m192.03 1175h68.363"/>
  <path id="path1688" d="m192.12 1175h68.191"/>
  <path id="path1690" d="m192.2 1175.1h68.021"/>
  <path id="path1692" d="m192.29 1175.2h67.849"/>
  <path id="path1694" d="m192.37 1175.3h67.678"/>
  <path id="path1696" d="m192.46 1175.4h67.507"/>
  <path id="path1698" d="m192.55 1175.5h67.336"/>
  <path id="path1700" d="m192.63 1175.6h67.165"/>
  <path id="path1702" d="m192.72 1175.7h66.993"/>
  <path id="path1704" d="m192.8 1175.8h66.822"/>
  <path id="path1706" d="m192.89 1175.9h66.651"/>
  <path id="path1708" d="m192.97 1176h66.48"/>
  <path id="path1710" d="m193.06 1176.1h66.309"/>
  <path id="path1712" d="m193.14 1176.2h66.137"/>
  <path id="path1714" d="m193.24 1176.3h65.952"/>
  <path id="path1716" d="m193.34 1176.4h65.748"/>
  <path id="path1718" d="m193.44 1176.4h65.544"/>
  <path id="path1720" d="m193.54 1176.5h65.34"/>
  <path id="path1722" d="m193.64 1176.6h65.137"/>
  <path id="path1724" d="m193.75 1176.7h64.933"/>
  <path id="path1726" d="m193.85 1176.8h64.729"/>
  <path id="path1728" d="m193.95 1176.9h64.525"/>
  <path id="path1730" d="m194.05 1177h64.321"/>
  <path id="path1732" d="m194.15 1177.1h64.117"/>
  <path id="path1734" d="m194.26 1177.2h63.913"/>
  <path id="path1736" d="m194.36 1177.3h63.709"/>
  <path id="path1738" d="m194.46 1177.4h63.505"/>
  <path id="path1740" d="m194.56 1177.5h63.302"/>
  <path id="path1742" d="m194.66 1177.6h63.098"/>
  <path id="path1744" d="m194.77 1177.7h62.894"/>
  <path id="path1746" d="m194.87 1177.8h62.69"/>
  <path id="path1748" d="m194.97 1177.8h62.486"/>
  <path id="path1750" d="m195.07 1177.9h62.283"/>
  <path id="path1752" d="m195.17 1178h62.079"/>
  <path id="path1754" d="m195.28 1178.1h61.875"/>
  <path id="path1756" d="m195.38 1178.2h61.671"/>
  <path id="path1758" d="m195.48 1178.3h61.467"/>
  <path id="path1760" d="m195.58 1178.4h61.263"/>
  <path id="path1762" d="m195.68 1178.5h61.059"/>
  <path id="path1764" d="m195.79 1178.6h60.855"/>
  <path id="path1766" d="m195.89 1178.7h60.651"/>
  <path id="path1768" d="m195.99 1178.8h60.448"/>
  <path id="path1770" d="m196.09 1178.9h60.244"/>
  <path id="path1772" d="m196.19 1179h60.04"/>
  <path id="path1774" d="m196.31 1179.1h59.797"/>
  <path id="path1776" d="m196.44 1179.2h59.554"/>
  <path id="path1778" d="m196.56 1179.2h59.311"/>
  <path id="path1780" d="m196.68 1179.3h59.067"/>
  <path id="path1782" d="m196.8 1179.4h58.824"/>
  <path id="path1784" d="m196.92 1179.5h58.58"/>
  <path id="path1786" d="m197.04 1179.6h58.337"/>
  <path id="path1788" d="m197.17 1179.7h58.093"/>
  <path id="path1790" d="m197.29 1179.8h57.85"/>
  <path id="path1792" d="m197.41 1179.9h57.607"/>
  <path id="path1794" d="m197.53 1180h57.363"/>
  <path id="path1796" d="m197.65 1180.1h57.119"/>
  <path id="path1798" d="m197.78 1180.2h56.876"/>
  <path id="path1800" d="m197.9 1180.3h56.633"/>
  <path id="path1802" d="m198.02 1180.4h56.389"/>
  <path id="path1804" d="m198.14 1180.5h56.146"/>
  <path id="path1806" d="m198.26 1180.6h55.903"/>
  <path id="path1808" d="m198.38 1180.7h55.659"/>
  <path id="path1810" d="m198.51 1180.7h55.415"/>
  <path id="path1812" d="m198.63 1180.8h55.172"/>
  <path id="path1814" d="m198.75 1180.9h54.929"/>
  <path id="path1816" d="m198.87 1181h54.685"/>
  <path id="path1818" d="m198.99 1181.1h54.442"/>
  <path id="path1820" d="m199.11 1181.2h54.198"/>
  <path id="path1822" d="m199.24 1181.3h53.955"/>
  <path id="path1824" d="m199.36 1181.4h53.711"/>
  <path id="path1826" d="m199.49 1181.5h53.447"/>
  <path id="path1828" d="m199.64 1181.6h53.153"/>
  <path id="path1830" d="m199.78 1181.7h52.861"/>
  <path id="path1832" d="m199.93 1181.8h52.567"/>
  <path id="path1834" d="m200.08 1181.9h52.274"/>
  <path id="path1836" d="m200.22 1182h51.981"/>
  <path id="path1838" d="m200.37 1182.1h51.687"/>
  <path id="path1840" d="m200.52 1182.1h51.395"/>
  <path id="path1842" d="m200.66 1182.2h51.101"/>
  <path id="path1844" d="m200.81 1182.3h50.808"/>
  <path id="path1846" d="m200.96 1182.4h50.515"/>
  <path id="path1848" d="m201.1 1182.5h50.221"/>
  <path id="path1850" d="m201.25 1182.6h49.928"/>
  <path id="path1852" d="m201.4 1182.7h49.635"/>
  <path id="path1854" d="m201.54 1182.8h49.342"/>
  <path id="path1856" d="m201.69 1182.9h49.049"/>
  <path id="path1858" d="m201.84 1183h48.755"/>
  <path id="path1860" d="m201.98 1183.1h48.462"/>
  <path id="path1862" d="m202.13 1183.2h48.169"/>
  <path id="path1864" d="m202.28 1183.3h47.876"/>
  <path id="path1866" d="m202.42 1183.4h47.583"/>
  <path id="path1868" d="m202.57 1183.5h47.289"/>
  <path id="path1870" d="m202.72 1183.5h46.996"/>
  <path id="path1872" d="m202.86 1183.6h46.703"/>
  <path id="path1874" d="m203.04 1183.7h46.345"/>
  <path id="path1876" d="m203.22 1183.8h45.986"/>
  <path id="path1878" d="m203.4 1183.9h45.627"/>
  <path id="path1880" d="m203.58 1184h45.269"/>
  <path id="path1882" d="m203.76 1184.1h44.909"/>
  <path id="path1884" d="m203.94 1184.2h44.551"/>
  <path id="path1886" d="m204.12 1184.3h44.192"/>
  <path id="path1888" d="m204.3 1184.4h43.833"/>
  <path id="path1890" d="m204.48 1184.5h43.474"/>
  <path id="path1892" d="m204.66 1184.6h43.115"/>
  <path id="path1894" d="m204.83 1184.7h42.757"/>
  <path id="path1896" d="m205.01 1184.8h42.398"/>
  <path id="path1898" d="m205.19 1184.9h42.039"/>
  <path id="path1900" d="m205.37 1184.9h41.68"/>
  <path id="path1902" d="m205.55 1185h41.321"/>
  <path id="path1904" d="m205.73 1185.1h40.963"/>
  <path id="path1906" d="m205.91 1185.2h40.603"/>
  <path id="path1908" d="m206.09 1185.3h40.245"/>
  <path id="path1910" d="m206.27 1185.4h39.886"/>
  <path id="path1912" d="m206.45 1185.5h39.527"/>
  <path id="path1914" d="m206.67 1185.6h39.09"/>
  <path id="path1916" d="m206.89 1185.7h38.639"/>
  <path id="path1918" d="m207.12 1185.8h38.189"/>
  <path id="path1920" d="m207.34 1185.9h37.737"/>
  <path id="path1922" d="m207.57 1186h37.287"/>
  <path id="path1924" d="m207.8 1186.1h36.835"/>
  <path id="path1926" d="m208.02 1186.2h36.385"/>
  <path id="path1928" d="m208.25 1186.3h35.933"/>
  <path id="path1930" d="m208.47 1186.3h35.483"/>
  <path id="path1932" d="m208.7 1186.4h35.031"/>
  <path id="path1934" d="m208.92 1186.5h34.581"/>
  <path id="path1936" d="m209.15 1186.6h34.13"/>
  <path id="path1938" d="m209.37 1186.7h33.679"/>
  <path id="path1940" d="m209.6 1186.8h33.228"/>
  <path id="path1942" d="m209.82 1186.9h32.777"/>
  <path id="path1944" d="m210.05 1187h32.326"/>
  <path id="path1946" d="m210.29 1187.1h31.853"/>
  <path id="path1948" d="m210.58 1187.2h31.261"/>
  <path id="path1950" d="m210.88 1187.3h30.668"/>
  <path id="path1952" d="m211.18 1187.4h30.076"/>
  <path id="path1954" d="m211.47 1187.5h29.483"/>
  <path id="path1956" d="m211.77 1187.6h28.891"/>
  <path id="path1958" d="m212.06 1187.7h28.299"/>
  <path id="path1960" d="m212.36 1187.7h27.706"/>
  <path id="path1962" d="m212.66 1187.8h27.113"/>
  <path id="path1964" d="m212.95 1187.9h26.521"/>
  <path id="path1966" d="m213.25 1188h25.929"/>
  <path id="path1968" d="m213.55 1188.1h25.336"/>
  <path id="path1970" d="m213.84 1188.2h24.744"/>
  <path id="path1972" d="m214.14 1188.3h24.142"/>
  <path id="path1974" d="m214.56 1188.4h23.299"/>
  <path id="path1976" d="m214.98 1188.5h22.457"/>
  <path id="path1978" d="m215.41 1188.6h21.614"/>
  <path id="path1980" d="m215.83 1188.7h20.772"/>
  <path id="path1982" d="m216.25 1188.8h19.929"/>
  <path id="path1984" d="m216.67 1188.9h19.087"/>
  <path id="path1986" d="m217.09 1189h18.244"/>
  <path id="path1988" d="m217.51 1189.1h17.401"/>
  <path id="path1990" d="m217.93 1189.2h16.559"/>
  <path id="path1992" d="m218.53 1189.2h15.373"/>
  <path id="path1994" d="m219.24 1189.3h13.954"/>
  <path id="path1996" d="m219.95 1189.4h12.535"/>
  <path id="path1998" d="m220.65 1189.5h11.117"/>
  <path id="path2000" d="m221.36 1189.6h9.697"/>
  <path id="path2002" d="m222.07 1189.7h8.279"/>
  <path id="path2004" d="m224.07 1189.8h4.279"/>
  <path id="path2006" d="m272.91 1143.2-0.178 4.07-0.531 4.039-0.882 3.978-1.225 3.885-1.559 3.764-1.882 3.614-2.189 3.436-2.48 3.232-2.752 3.004-3.004 2.752"/>
  <path id="path2008" d="m256.23 1179-3.232 2.48-3.436 2.189-3.613 1.881-3.764 1.559-3.886 1.225-3.977 0.882-4.039 0.532-4.07 0.177-4.07-0.177-4.04-0.532"/>
  <path id="path2010" d="m218.1 1189.2-3.977-0.882-3.885-1.225-3.764-1.559-3.614-1.881-3.436-2.189-3.232-2.48-3.004-2.752-2.752-3.004-2.48-3.232-2.189-3.436"/>
  <path id="path2012" d="m185.77 1166.5-1.881-3.614-1.559-3.764-1.225-3.885-0.882-3.978-0.532-4.039-0.178-4.07 0.178-4.07 0.532-4.039 0.882-3.977 1.225-3.886"/>
  <path id="path2014" d="m182.33 1127.2 1.559-3.764 1.881-3.613 2.189-3.436 2.48-3.233 2.752-3.003 3.004-2.753 3.232-2.48 3.436-2.189 3.614-1.881 3.764-1.559"/>
  <path id="path2016" d="m210.24 1099.3 3.885-1.225 3.977-0.882 4.04-0.531 4.07-0.178 4.07 0.178 4.039 0.531 3.977 0.882 3.886 1.225 3.764 1.559 3.613 1.881"/>
  <path id="path2018" d="m249.56 1102.8 3.436 2.189 3.232 2.48 3.004 2.753 2.752 3.003 2.48 3.233 2.189 3.436 1.882 3.613 1.559 3.764 1.225 3.886 0.881 3.977"/>
  <path id="path2020" d="m272.2 1135.1 0.532 4.039 0.178 4.07-0.178 4.07"/>
  <path id="path2022" d="m227.15 1166.5v176.52"/>
 </g>
</svg>
