<?xml version="1.0" encoding="UTF-8" standalone="no"?>
<svg
   width="489.86581"
   height="574.51526"
   viewBox="0 0 489.8658 574.51524"
   version="1.1"
   id="svg2026"
   sodipodi:docname="DAYTRI05.hpgl.svg"
   inkscape:version="1.1.2 (0a00cf5339, 2022-02-04)"
   xmlns:inkscape="http://www.inkscape.org/namespaces/inkscape"
   xmlns:sodipodi="http://sodipodi.sourceforge.net/DTD/sodipodi-0.dtd"
   xmlns="http://www.w3.org/2000/svg"
   xmlns:svg="http://www.w3.org/2000/svg">
  <defs
     id="defs2030" />
  <sodipodi:namedview
     id="namedview2028"
     pagecolor="#ffffff"
     bordercolor="#666666"
     borderopacity="1.0"
     inkscape:pageshadow="2"
     inkscape:pageopacity="0.0"
     inkscape:pagecheckerboard="0"
     showgrid="false"
     inkscape:zoom="1.2682364"
     inkscape:cx="248.3764"
     inkscape:cy="-485.31961"
     inkscape:window-width="1495"
     inkscape:window-height="970"
     inkscape:window-x="0"
     inkscape:window-y="32"
     inkscape:window-maximized="0"
     inkscape:current-layer="svg2026" />
  <g
     id="g2"
     transform="translate(13.67704,-768.55574)" />
  <g
     style="fill:none;stroke:#000000;stroke-width:1mm"
     id="g4"
     transform="translate(13.67704,-768.55574)" />
  <g
     style="fill:none;stroke:#000000;stroke-width:4mm"
     id="g2024"
     transform="translate(13.67704,-768.55574)">
    <path
       d="M -7.2832781,777.076 462.51172,776.142 227.14772,1151.604 -7.2832781,779.878"
       id="path6" />
    <path
       d="m 224.07372,1096.592 h 4.279"
       id="path8" />
    <path
       d="m 222.07372,1096.686 h 8.279"
       id="path10" />
    <path
       d="m 221.36472,1096.779 h 9.697"
       id="path12" />
    <path
       d="m 220.65572,1096.873 h 11.116"
       id="path14" />
    <path
       d="m 219.94572,1096.966 h 12.535"
       id="path16" />
    <path
       d="m 219.23672,1097.059 h 13.954"
       id="path18" />
    <path
       d="m 218.52772,1097.153 h 15.372"
       id="path20" />
    <path
       d="m 217.93372,1097.246 h 16.559"
       id="path22" />
    <path
       d="m 217.51272,1097.34 h 17.401"
       id="path24" />
    <path
       d="m 217.09172,1097.433 h 18.244"
       id="path26" />
    <path
       d="m 216.66972,1097.526 h 19.087"
       id="path28" />
    <path
       d="m 216.24872,1097.62 h 19.929"
       id="path30" />
    <path
       d="m 215.82772,1097.713 h 20.771"
       id="path32" />
    <path
       d="m 215.40672,1097.807 h 21.614"
       id="path34" />
    <path
       d="m 214.98472,1097.9 h 22.457"
       id="path36" />
    <path
       d="m 214.56372,1097.993 h 23.299"
       id="path38" />
    <path
       d="m 214.14272,1098.087 h 24.142"
       id="path40" />
    <path
       d="m 213.84172,1098.18 h 24.743"
       id="path42" />
    <path
       d="m 213.54572,1098.274 h 25.336"
       id="path44" />
    <path
       d="m 213.24872,1098.367 h 25.929"
       id="path46" />
    <path
       d="m 212.95272,1098.46 h 26.521"
       id="path48" />
    <path
       d="m 212.65672,1098.554 h 27.113"
       id="path50" />
    <path
       d="m 212.36072,1098.647 h 27.706"
       id="path52" />
    <path
       d="m 212.06372,1098.741 h 28.299"
       id="path54" />
    <path
       d="m 211.76772,1098.834 h 28.891"
       id="path56" />
    <path
       d="m 211.47172,1098.927 h 29.483"
       id="path58" />
    <path
       d="m 211.17572,1099.021 h 30.076"
       id="path60" />
    <path
       d="m 210.87972,1099.114 h 30.668"
       id="path62" />
    <path
       d="m 210.58272,1099.208 h 31.261"
       id="path64" />
    <path
       d="m 210.28672,1099.301 h 31.853"
       id="path66" />
    <path
       d="m 210.05072,1099.394 h 32.326"
       id="path68" />
    <path
       d="m 209.82472,1099.488 h 32.777"
       id="path70" />
    <path
       d="m 209.59972,1099.581 h 33.228"
       id="path72" />
    <path
       d="m 209.37372,1099.675 h 33.679"
       id="path74" />
    <path
       d="m 209.14872,1099.768 h 34.13"
       id="path76" />
    <path
       d="m 208.92272,1099.861 h 34.581"
       id="path78" />
    <path
       d="m 208.69772,1099.955 h 35.031"
       id="path80" />
    <path
       d="m 208.47172,1100.048 h 35.483"
       id="path82" />
    <path
       d="m 208.24672,1100.142 h 35.933"
       id="path84" />
    <path
       d="m 208.02072,1100.235 h 36.385"
       id="path86" />
    <path
       d="m 207.79572,1100.328 h 36.835"
       id="path88" />
    <path
       d="m 207.56972,1100.422 h 37.287"
       id="path90" />
    <path
       d="m 207.34472,1100.515 h 37.737"
       id="path92" />
    <path
       d="m 207.11872,1100.609 h 38.189"
       id="path94" />
    <path
       d="m 206.89372,1100.702 h 38.639"
       id="path96" />
    <path
       d="m 206.66872,1100.795 h 39.09"
       id="path98" />
    <path
       d="m 206.44972,1100.889 h 39.527"
       id="path100" />
    <path
       d="m 206.27072,1100.982 h 39.886"
       id="path102" />
    <path
       d="m 206.09072,1101.075 h 40.245"
       id="path104" />
    <path
       d="m 205.91172,1101.169 h 40.603"
       id="path106" />
    <path
       d="m 205.73172,1101.262 h 40.963"
       id="path108" />
    <path
       d="m 205.55272,1101.356 h 41.321"
       id="path110" />
    <path
       d="m 205.37372,1101.449 h 41.68"
       id="path112" />
    <path
       d="m 205.19372,1101.542 h 42.039"
       id="path114" />
    <path
       d="m 205.01472,1101.636 h 42.398"
       id="path116" />
    <path
       d="m 204.83472,1101.729 h 42.757"
       id="path118" />
    <path
       d="m 204.65572,1101.823 h 43.115"
       id="path120" />
    <path
       d="m 204.47672,1101.916 h 43.474"
       id="path122" />
    <path
       d="m 204.29672,1102.009 h 43.833"
       id="path124" />
    <path
       d="m 204.11772,1102.103 h 44.192"
       id="path126" />
    <path
       d="m 203.93772,1102.196 h 44.551"
       id="path128" />
    <path
       d="m 203.75872,1102.29 h 44.909"
       id="path130" />
    <path
       d="m 203.57872,1102.383 h 45.269"
       id="path132" />
    <path
       d="m 203.39972,1102.476 h 45.627"
       id="path134" />
    <path
       d="m 203.22072,1102.57 h 45.986"
       id="path136" />
    <path
       d="m 203.04072,1102.663 h 46.345"
       id="path138" />
    <path
       d="m 202.86172,1102.757 h 46.703"
       id="path140" />
    <path
       d="m 202.71572,1102.85 h 46.996"
       id="path142" />
    <path
       d="m 202.56872,1102.943 h 47.289"
       id="path144" />
    <path
       d="m 202.42172,1103.037 h 47.583"
       id="path146" />
    <path
       d="m 202.27572,1103.13 h 47.876"
       id="path148" />
    <path
       d="m 202.12872,1103.224 h 48.169"
       id="path150" />
    <path
       d="m 201.98272,1103.317 h 48.462"
       id="path152" />
    <path
       d="m 201.83572,1103.41 h 48.755"
       id="path154" />
    <path
       d="m 201.68872,1103.504 h 49.049"
       id="path156" />
    <path
       d="m 201.54272,1103.597 h 49.342"
       id="path158" />
    <path
       d="m 201.39572,1103.691 h 49.635"
       id="path160" />
    <path
       d="m 201.24972,1103.784 h 49.928"
       id="path162" />
    <path
       d="m 201.10272,1103.877 h 50.221"
       id="path164" />
    <path
       d="m 200.95572,1103.971 h 50.515"
       id="path166" />
    <path
       d="m 200.80972,1104.064 h 50.808"
       id="path168" />
    <path
       d="m 200.66272,1104.158 h 51.101"
       id="path170" />
    <path
       d="m 200.51572,1104.251 h 51.395"
       id="path172" />
    <path
       d="m 200.36972,1104.344 h 51.687"
       id="path174" />
    <path
       d="m 200.22272,1104.438 h 51.981"
       id="path176" />
    <path
       d="m 200.07672,1104.531 h 52.274"
       id="path178" />
    <path
       d="m 199.92972,1104.625 h 52.567"
       id="path180" />
    <path
       d="m 199.78272,1104.718 h 52.861"
       id="path182" />
    <path
       d="m 199.63672,1104.811 h 53.153"
       id="path184" />
    <path
       d="m 199.48972,1104.905 h 53.447"
       id="path186" />
    <path
       d="m 199.35772,1104.998 h 53.711"
       id="path188" />
    <path
       d="m 199.23572,1105.092 h 53.955"
       id="path190" />
    <path
       d="m 199.11472,1105.185 h 54.198"
       id="path192" />
    <path
       d="m 198.99272,1105.278 h 54.442"
       id="path194" />
    <path
       d="m 198.87072,1105.372 h 54.685"
       id="path196" />
    <path
       d="m 198.74872,1105.465 h 54.929"
       id="path198" />
    <path
       d="m 198.62772,1105.559 h 55.172"
       id="path200" />
    <path
       d="m 198.50572,1105.652 h 55.415"
       id="path202" />
    <path
       d="m 198.38372,1105.745 h 55.659"
       id="path204" />
    <path
       d="m 198.26172,1105.839 h 55.903"
       id="path206" />
    <path
       d="m 198.14072,1105.932 h 56.146"
       id="path208" />
    <path
       d="m 198.01872,1106.026 h 56.389"
       id="path210" />
    <path
       d="m 197.89672,1106.119 h 56.633"
       id="path212" />
    <path
       d="m 197.77572,1106.212 h 56.876"
       id="path214" />
    <path
       d="m 197.65372,1106.306 h 57.119"
       id="path216" />
    <path
       d="m 197.53172,1106.399 h 57.363"
       id="path218" />
    <path
       d="m 197.40972,1106.493 h 57.607"
       id="path220" />
    <path
       d="m 197.28872,1106.586 h 57.85"
       id="path222" />
    <path
       d="m 197.16672,1106.679 h 58.093"
       id="path224" />
    <path
       d="m 197.04472,1106.773 h 58.337"
       id="path226" />
    <path
       d="m 196.92372,1106.866 h 58.58"
       id="path228" />
    <path
       d="m 196.80172,1106.96 h 58.824"
       id="path230" />
    <path
       d="m 196.67972,1107.053 h 59.067"
       id="path232" />
    <path
       d="m 196.55772,1107.146 h 59.311"
       id="path234" />
    <path
       d="m 196.43672,1107.24 h 59.554"
       id="path236" />
    <path
       d="m 196.31472,1107.333 h 59.797"
       id="path238" />
    <path
       d="m 196.19372,1107.427 h 60.04"
       id="path240" />
    <path
       d="m 196.09172,1107.52 h 60.244"
       id="path242" />
    <path
       d="m 195.98972,1107.613 h 60.448"
       id="path244" />
    <path
       d="m 195.88772,1107.707 h 60.651"
       id="path246" />
    <path
       d="m 195.78572,1107.8 h 60.855"
       id="path248" />
    <path
       d="m 195.68372,1107.894 h 61.059"
       id="path250" />
    <path
       d="m 195.58172,1107.987 h 61.263"
       id="path252" />
    <path
       d="m 195.47972,1108.08 h 61.467"
       id="path254" />
    <path
       d="m 195.37772,1108.174 h 61.671"
       id="path256" />
    <path
       d="m 195.27572,1108.267 h 61.875"
       id="path258" />
    <path
       d="m 195.17372,1108.361 h 62.079"
       id="path260" />
    <path
       d="m 195.07172,1108.454 h 62.283"
       id="path262" />
    <path
       d="m 194.97072,1108.547 h 62.486"
       id="path264" />
    <path
       d="m 194.86872,1108.641 h 62.69"
       id="path266" />
    <path
       d="m 194.76672,1108.734 h 62.894"
       id="path268" />
    <path
       d="m 194.66472,1108.828 h 63.098"
       id="path270" />
    <path
       d="m 194.56272,1108.921 h 63.302"
       id="path272" />
    <path
       d="m 194.46072,1109.014 h 63.505"
       id="path274" />
    <path
       d="m 194.35872,1109.108 h 63.709"
       id="path276" />
    <path
       d="m 194.25672,1109.201 h 63.913"
       id="path278" />
    <path
       d="m 194.15472,1109.295 h 64.117"
       id="path280" />
    <path
       d="m 194.05272,1109.388 h 64.321"
       id="path282" />
    <path
       d="m 193.95072,1109.481 h 64.525"
       id="path284" />
    <path
       d="m 193.84872,1109.575 h 64.729"
       id="path286" />
    <path
       d="m 193.74672,1109.668 h 64.933"
       id="path288" />
    <path
       d="m 193.64472,1109.762 h 65.137"
       id="path290" />
    <path
       d="m 193.54372,1109.855 h 65.34"
       id="path292" />
    <path
       d="m 193.44172,1109.948 h 65.544"
       id="path294" />
    <path
       d="m 193.33972,1110.042 h 65.748"
       id="path296" />
    <path
       d="m 193.23772,1110.135 h 65.952"
       id="path298" />
    <path
       d="m 193.14472,1110.229 h 66.137"
       id="path300" />
    <path
       d="m 193.05872,1110.322 h 66.309"
       id="path302" />
    <path
       d="m 192.97372,1110.415 h 66.48"
       id="path304" />
    <path
       d="m 192.88772,1110.509 h 66.651"
       id="path306" />
    <path
       d="m 192.80272,1110.602 h 66.822"
       id="path308" />
    <path
       d="m 192.71672,1110.696 h 66.993"
       id="path310" />
    <path
       d="m 192.63072,1110.789 h 67.165"
       id="path312" />
    <path
       d="m 192.54572,1110.882 h 67.336"
       id="path314" />
    <path
       d="m 192.45972,1110.976 h 67.507"
       id="path316" />
    <path
       d="m 192.37472,1111.069 h 67.678"
       id="path318" />
    <path
       d="m 192.28872,1111.163 h 67.849"
       id="path320" />
    <path
       d="m 192.20272,1111.256 h 68.021"
       id="path322" />
    <path
       d="m 192.11772,1111.349 h 68.191"
       id="path324" />
    <path
       d="m 192.03172,1111.443 h 68.363"
       id="path326" />
    <path
       d="m 191.94672,1111.536 h 68.534"
       id="path328" />
    <path
       d="m 191.86072,1111.63 h 68.705"
       id="path330" />
    <path
       d="m 191.77572,1111.723 h 68.876"
       id="path332" />
    <path
       d="m 191.68972,1111.816 h 69.047"
       id="path334" />
    <path
       d="m 191.60372,1111.91 h 69.219"
       id="path336" />
    <path
       d="m 191.51872,1112.003 h 69.39"
       id="path338" />
    <path
       d="m 191.43272,1112.097 h 69.561"
       id="path340" />
    <path
       d="m 191.34772,1112.19 h 69.732"
       id="path342" />
    <path
       d="m 191.26172,1112.283 h 69.903"
       id="path344" />
    <path
       d="m 191.17572,1112.377 h 70.075"
       id="path346" />
    <path
       d="m 191.09072,1112.47 h 70.245"
       id="path348" />
    <path
       d="m 191.00472,1112.564 h 70.417"
       id="path350" />
    <path
       d="m 190.91972,1112.657 h 70.588"
       id="path352" />
    <path
       d="m 190.83372,1112.75 h 70.759"
       id="path354" />
    <path
       d="m 190.74872,1112.844 h 70.93"
       id="path356" />
    <path
       d="m 190.66272,1112.937 h 71.101"
       id="path358" />
    <path
       d="m 190.57672,1113.03 h 71.273"
       id="path360" />
    <path
       d="m 190.49172,1113.124 h 71.444"
       id="path362" />
    <path
       d="m 190.41172,1113.217 h 71.604"
       id="path364" />
    <path
       d="m 190.33972,1113.311 h 71.747"
       id="path366" />
    <path
       d="m 190.26772,1113.404 h 71.891"
       id="path368" />
    <path
       d="m 190.19672,1113.497 h 72.034"
       id="path370" />
    <path
       d="m 190.12472,1113.591 h 72.177"
       id="path372" />
    <path
       d="m 190.05272,1113.684 h 72.321"
       id="path374" />
    <path
       d="m 189.98172,1113.778 h 72.464"
       id="path376" />
    <path
       d="m 189.90972,1113.871 h 72.607"
       id="path378" />
    <path
       d="m 189.83772,1113.964 h 72.751"
       id="path380" />
    <path
       d="m 189.76672,1114.058 h 72.894"
       id="path382" />
    <path
       d="m 189.69472,1114.151 h 73.037"
       id="path384" />
    <path
       d="m 189.62272,1114.245 h 73.181"
       id="path386" />
    <path
       d="m 189.55172,1114.338 h 73.324"
       id="path388" />
    <path
       d="m 189.47972,1114.431 h 73.467"
       id="path390" />
    <path
       d="m 189.40772,1114.525 h 73.611"
       id="path392" />
    <path
       d="m 189.33672,1114.618 h 73.754"
       id="path394" />
    <path
       d="m 189.26472,1114.712 h 73.897"
       id="path396" />
    <path
       d="m 189.19272,1114.805 h 74.041"
       id="path398" />
    <path
       d="m 189.12172,1114.898 h 74.184"
       id="path400" />
    <path
       d="m 189.04972,1114.992 h 74.327"
       id="path402" />
    <path
       d="m 188.97772,1115.085 h 74.471"
       id="path404" />
    <path
       d="m 188.90672,1115.179 h 74.614"
       id="path406" />
    <path
       d="m 188.83472,1115.272 h 74.757"
       id="path408" />
    <path
       d="m 188.76272,1115.365 h 74.901"
       id="path410" />
    <path
       d="m 188.69172,1115.459 h 75.044"
       id="path412" />
    <path
       d="m 188.61972,1115.552 h 75.187"
       id="path414" />
    <path
       d="m 188.54772,1115.646 h 75.331"
       id="path416" />
    <path
       d="m 188.47672,1115.739 h 75.474"
       id="path418" />
    <path
       d="m 188.40472,1115.832 h 75.617"
       id="path420" />
    <path
       d="m 188.33272,1115.926 h 75.761"
       id="path422" />
    <path
       d="m 188.26172,1116.019 h 75.904"
       id="path424" />
    <path
       d="m 188.18972,1116.113 h 76.047"
       id="path426" />
    <path
       d="m 188.11772,1116.206 h 76.191"
       id="path428" />
    <path
       d="m 188.04672,1116.299 h 76.334"
       id="path430" />
    <path
       d="m 187.97472,1116.393 h 76.477"
       id="path432" />
    <path
       d="m 187.91272,1116.486 h 76.601"
       id="path434" />
    <path
       d="m 187.85272,1116.58 h 76.721"
       id="path436" />
    <path
       d="m 187.79372,1116.673 h 76.839"
       id="path438" />
    <path
       d="m 187.73372,1116.766 h 76.959"
       id="path440" />
    <path
       d="m 187.67472,1116.86 h 77.077"
       id="path442" />
    <path
       d="m 187.61472,1116.953 h 77.197"
       id="path444" />
    <path
       d="m 187.55572,1117.047 h 77.315"
       id="path446" />
    <path
       d="m 187.49572,1117.14 h 77.435"
       id="path448" />
    <path
       d="m 187.43672,1117.233 h 77.553"
       id="path450" />
    <path
       d="m 187.37672,1117.327 h 77.673"
       id="path452" />
    <path
       d="m 187.31772,1117.42 h 77.791"
       id="path454" />
    <path
       d="m 187.25772,1117.514 h 77.911"
       id="path456" />
    <path
       d="m 187.19872,1117.607 h 78.029"
       id="path458" />
    <path
       d="m 187.13872,1117.7 h 78.149"
       id="path460" />
    <path
       d="m 187.07972,1117.794 h 78.267"
       id="path462" />
    <path
       d="m 187.01972,1117.887 h 78.387"
       id="path464" />
    <path
       d="m 186.96072,1117.981 h 78.505"
       id="path466" />
    <path
       d="m 186.90072,1118.074 h 78.625"
       id="path468" />
    <path
       d="m 186.84172,1118.167 h 78.743"
       id="path470" />
    <path
       d="m 186.78172,1118.261 h 78.863"
       id="path472" />
    <path
       d="m 186.72272,1118.354 h 78.981"
       id="path474" />
    <path
       d="m 186.66272,1118.448 h 79.101"
       id="path476" />
    <path
       d="m 186.60372,1118.541 h 79.219"
       id="path478" />
    <path
       d="m 186.54372,1118.634 h 79.339"
       id="path480" />
    <path
       d="m 186.48472,1118.728 h 79.457"
       id="path482" />
    <path
       d="m 186.42472,1118.821 h 79.577"
       id="path484" />
    <path
       d="m 186.36572,1118.915 h 79.695"
       id="path486" />
    <path
       d="m 186.30572,1119.008 h 79.815"
       id="path488" />
    <path
       d="m 186.24672,1119.101 h 79.933"
       id="path490" />
    <path
       d="m 186.18672,1119.195 h 80.053"
       id="path492" />
    <path
       d="m 186.12772,1119.288 h 80.171"
       id="path494" />
    <path
       d="m 186.06772,1119.382 h 80.291"
       id="path496" />
    <path
       d="m 186.00872,1119.475 h 80.409"
       id="path498" />
    <path
       d="m 185.94872,1119.568 h 80.529"
       id="path500" />
    <path
       d="m 185.88972,1119.662 h 80.647"
       id="path502" />
    <path
       d="m 185.82972,1119.755 h 80.767"
       id="path504" />
    <path
       d="m 185.77072,1119.849 h 80.885"
       id="path506" />
    <path
       d="m 185.72172,1119.942 h 80.983"
       id="path508" />
    <path
       d="m 185.67372,1120.035 h 81.08"
       id="path510" />
    <path
       d="m 185.62472,1120.129 h 81.177"
       id="path512" />
    <path
       d="m 185.57572,1120.222 h 81.275"
       id="path514" />
    <path
       d="m 185.52772,1120.316 h 81.372"
       id="path516" />
    <path
       d="m 185.47872,1120.409 h 81.469"
       id="path518" />
    <path
       d="m 185.43072,1120.502 h 81.566"
       id="path520" />
    <path
       d="m 185.38172,1120.596 h 81.663"
       id="path522" />
    <path
       d="m 185.33272,1120.689 h 81.761"
       id="path524" />
    <path
       d="m 185.28472,1120.783 h 81.858"
       id="path526" />
    <path
       d="m 185.23572,1120.876 h 81.955"
       id="path528" />
    <path
       d="m 185.18672,1120.969 h 82.053"
       id="path530" />
    <path
       d="m 185.13872,1121.063 h 82.15"
       id="path532" />
    <path
       d="m 185.08972,1121.156 h 82.247"
       id="path534" />
    <path
       d="m 185.04172,1121.25 h 82.344"
       id="path536" />
    <path
       d="m 184.99272,1121.343 h 82.441"
       id="path538" />
    <path
       d="m 184.94372,1121.436 h 82.539"
       id="path540" />
    <path
       d="m 184.89572,1121.53 h 82.636"
       id="path542" />
    <path
       d="m 184.84672,1121.623 h 82.733"
       id="path544" />
    <path
       d="m 184.79872,1121.717 h 82.83"
       id="path546" />
    <path
       d="m 184.74972,1121.81 h 82.927"
       id="path548" />
    <path
       d="m 184.70072,1121.903 h 83.025"
       id="path550" />
    <path
       d="m 184.65272,1121.997 h 83.122"
       id="path552" />
    <path
       d="m 184.60372,1122.09 h 83.219"
       id="path554" />
    <path
       d="m 184.55472,1122.184 h 83.317"
       id="path556" />
    <path
       d="m 184.50672,1122.277 h 83.414"
       id="path558" />
    <path
       d="m 184.45772,1122.37 h 83.511"
       id="path560" />
    <path
       d="m 184.40972,1122.464 h 83.608"
       id="path562" />
    <path
       d="m 184.36072,1122.557 h 83.705"
       id="path564" />
    <path
       d="m 184.31172,1122.651 h 83.803"
       id="path566" />
    <path
       d="m 184.26372,1122.744 h 83.9"
       id="path568" />
    <path
       d="m 184.21472,1122.837 h 83.997"
       id="path570" />
    <path
       d="m 184.16572,1122.931 h 84.095"
       id="path572" />
    <path
       d="m 184.11772,1123.024 h 84.191"
       id="path574" />
    <path
       d="m 184.06872,1123.118 h 84.289"
       id="path576" />
    <path
       d="m 184.02072,1123.211 h 84.386"
       id="path578" />
    <path
       d="m 183.97172,1123.304 h 84.483"
       id="path580" />
    <path
       d="m 183.92272,1123.398 h 84.581"
       id="path582" />
    <path
       d="m 183.87772,1123.491 h 84.672"
       id="path584" />
    <path
       d="m 183.83872,1123.585 h 84.749"
       id="path586" />
    <path
       d="m 183.79972,1123.678 h 84.827"
       id="path588" />
    <path
       d="m 183.76172,1123.771 h 84.904"
       id="path590" />
    <path
       d="m 183.72272,1123.865 h 84.981"
       id="path592" />
    <path
       d="m 183.68372,1123.958 h 85.059"
       id="path594" />
    <path
       d="m 183.64572,1124.052 h 85.136"
       id="path596" />
    <path
       d="m 183.60672,1124.145 h 85.213"
       id="path598" />
    <path
       d="m 183.56772,1124.238 h 85.291"
       id="path600" />
    <path
       d="m 183.52972,1124.332 h 85.368"
       id="path602" />
    <path
       d="m 183.49072,1124.425 h 85.445"
       id="path604" />
    <path
       d="m 183.45172,1124.519 h 85.523"
       id="path606" />
    <path
       d="m 183.41372,1124.612 h 85.6"
       id="path608" />
    <path
       d="m 183.37472,1124.705 h 85.677"
       id="path610" />
    <path
       d="m 183.33572,1124.799 h 85.755"
       id="path612" />
    <path
       d="m 183.29672,1124.892 h 85.833"
       id="path614" />
    <path
       d="m 183.25872,1124.986 h 85.91"
       id="path616" />
    <path
       d="m 183.21972,1125.079 h 85.987"
       id="path618" />
    <path
       d="m 183.18072,1125.172 h 86.065"
       id="path620" />
    <path
       d="m 183.14272,1125.266 h 86.142"
       id="path622" />
    <path
       d="m 183.10372,1125.359 h 86.219"
       id="path624" />
    <path
       d="m 183.06472,1125.452 h 86.297"
       id="path626" />
    <path
       d="m 183.02672,1125.546 h 86.374"
       id="path628" />
    <path
       d="m 182.98772,1125.639 h 86.451"
       id="path630" />
    <path
       d="m 182.94872,1125.733 h 86.529"
       id="path632" />
    <path
       d="m 182.91072,1125.826 h 86.606"
       id="path634" />
    <path
       d="m 182.87172,1125.919 h 86.683"
       id="path636" />
    <path
       d="m 182.83272,1126.013 h 86.761"
       id="path638" />
    <path
       d="m 182.79472,1126.106 h 86.838"
       id="path640" />
    <path
       d="m 182.75572,1126.2 h 86.915"
       id="path642" />
    <path
       d="m 182.71672,1126.293 h 86.993"
       id="path644" />
    <path
       d="m 182.67872,1126.386 h 87.07"
       id="path646" />
    <path
       d="m 182.63972,1126.48 h 87.148"
       id="path648" />
    <path
       d="m 182.60072,1126.573 h 87.225"
       id="path650" />
    <path
       d="m 182.56172,1126.667 h 87.303"
       id="path652" />
    <path
       d="m 182.52372,1126.76 h 87.38"
       id="path654" />
    <path
       d="m 182.48472,1126.853 h 87.457"
       id="path656" />
    <path
       d="m 182.44572,1126.947 h 87.535"
       id="path658" />
    <path
       d="m 182.40772,1127.04 h 87.612"
       id="path660" />
    <path
       d="m 182.36872,1127.134 h 87.689"
       id="path662" />
    <path
       d="m 182.32972,1127.227 h 87.767"
       id="path664" />
    <path
       d="m 182.30072,1127.32 h 87.825"
       id="path666" />
    <path
       d="m 182.27172,1127.414 h 87.884"
       id="path668" />
    <path
       d="m 182.24172,1127.507 h 87.943"
       id="path670" />
    <path
       d="m 182.21272,1127.601 h 88.002"
       id="path672" />
    <path
       d="m 182.18272,1127.694 h 88.061"
       id="path674" />
    <path
       d="m 182.15372,1127.787 h 88.12"
       id="path676" />
    <path
       d="m 182.12372,1127.881 h 88.179"
       id="path678" />
    <path
       d="m 182.09472,1127.974 h 88.238"
       id="path680" />
    <path
       d="m 182.06472,1128.068 h 88.297"
       id="path682" />
    <path
       d="m 182.03572,1128.161 h 88.355"
       id="path684" />
    <path
       d="m 182.00572,1128.254 h 88.415"
       id="path686" />
    <path
       d="m 181.97672,1128.348 h 88.473"
       id="path688" />
    <path
       d="m 181.94772,1128.441 h 88.532"
       id="path690" />
    <path
       d="m 181.91772,1128.535 h 88.591"
       id="path692" />
    <path
       d="m 181.88872,1128.628 h 88.65"
       id="path694" />
    <path
       d="m 181.85872,1128.721 h 88.709"
       id="path696" />
    <path
       d="m 181.82972,1128.815 h 88.768"
       id="path698" />
    <path
       d="m 181.79972,1128.908 h 88.827"
       id="path700" />
    <path
       d="m 181.77072,1129.002 h 88.885"
       id="path702" />
    <path
       d="m 181.74072,1129.095 h 88.945"
       id="path704" />
    <path
       d="m 181.71172,1129.188 h 89.003"
       id="path706" />
    <path
       d="m 181.68272,1129.282 h 89.062"
       id="path708" />
    <path
       d="m 181.65272,1129.375 h 89.121"
       id="path710" />
    <path
       d="m 181.62372,1129.469 h 89.18"
       id="path712" />
    <path
       d="m 181.59372,1129.562 h 89.239"
       id="path714" />
    <path
       d="m 181.56472,1129.655 h 89.298"
       id="path716" />
    <path
       d="m 181.53472,1129.749 h 89.357"
       id="path718" />
    <path
       d="m 181.50572,1129.842 h 89.416"
       id="path720" />
    <path
       d="m 181.47572,1129.936 h 89.475"
       id="path722" />
    <path
       d="m 181.44672,1130.029 h 89.533"
       id="path724" />
    <path
       d="m 181.41772,1130.122 h 89.592"
       id="path726" />
    <path
       d="m 181.38772,1130.216 h 89.651"
       id="path728" />
    <path
       d="m 181.35872,1130.309 h 89.71"
       id="path730" />
    <path
       d="m 181.32872,1130.403 h 89.769"
       id="path732" />
    <path
       d="m 181.29972,1130.496 h 89.828"
       id="path734" />
    <path
       d="m 181.26972,1130.589 h 89.887"
       id="path736" />
    <path
       d="m 181.24072,1130.683 h 89.946"
       id="path738" />
    <path
       d="m 181.21072,1130.776 h 90.005"
       id="path740" />
    <path
       d="m 181.18172,1130.87 h 90.063"
       id="path742" />
    <path
       d="m 181.15272,1130.963 h 90.122"
       id="path744" />
    <path
       d="m 181.12272,1131.056 h 90.181"
       id="path746" />
    <path
       d="m 181.09672,1131.15 h 90.233"
       id="path748" />
    <path
       d="m 181.07572,1131.243 h 90.275"
       id="path750" />
    <path
       d="m 181.05572,1131.337 h 90.316"
       id="path752" />
    <path
       d="m 181.03472,1131.43 h 90.357"
       id="path754" />
    <path
       d="m 181.01372,1131.523 h 90.399"
       id="path756" />
    <path
       d="m 180.99372,1131.617 h 90.44"
       id="path758" />
    <path
       d="m 180.97272,1131.71 h 90.481"
       id="path760" />
    <path
       d="m 180.95172,1131.804 h 90.523"
       id="path762" />
    <path
       d="m 180.93172,1131.897 h 90.564"
       id="path764" />
    <path
       d="m 180.91072,1131.99 h 90.606"
       id="path766" />
    <path
       d="m 180.88972,1132.084 h 90.647"
       id="path768" />
    <path
       d="m 180.86872,1132.177 h 90.689"
       id="path770" />
    <path
       d="m 180.84872,1132.271 h 90.73"
       id="path772" />
    <path
       d="m 180.82772,1132.364 h 90.771"
       id="path774" />
    <path
       d="m 180.80672,1132.457 h 90.813"
       id="path776" />
    <path
       d="m 180.78672,1132.551 h 90.854"
       id="path778" />
    <path
       d="m 180.76572,1132.644 h 90.895"
       id="path780" />
    <path
       d="m 180.74472,1132.738 h 90.937"
       id="path782" />
    <path
       d="m 180.72372,1132.831 h 90.979"
       id="path784" />
    <path
       d="m 180.70372,1132.924 h 91.02"
       id="path786" />
    <path
       d="m 180.68272,1133.018 h 91.061"
       id="path788" />
    <path
       d="m 180.66172,1133.111 h 91.103"
       id="path790" />
    <path
       d="m 180.64172,1133.205 h 91.144"
       id="path792" />
    <path
       d="m 180.62072,1133.298 h 91.185"
       id="path794" />
    <path
       d="m 180.59972,1133.391 h 91.227"
       id="path796" />
    <path
       d="m 180.57972,1133.485 h 91.268"
       id="path798" />
    <path
       d="m 180.55872,1133.578 h 91.31"
       id="path800" />
    <path
       d="m 180.53772,1133.672 h 91.351"
       id="path802" />
    <path
       d="m 180.51672,1133.765 h 91.393"
       id="path804" />
    <path
       d="m 180.49672,1133.858 h 91.434"
       id="path806" />
    <path
       d="m 180.47572,1133.952 h 91.475"
       id="path808" />
    <path
       d="m 180.45472,1134.045 h 91.517"
       id="path810" />
    <path
       d="m 180.43472,1134.139 h 91.558"
       id="path812" />
    <path
       d="m 180.41372,1134.232 h 91.599"
       id="path814" />
    <path
       d="m 180.39272,1134.325 h 91.641"
       id="path816" />
    <path
       d="m 180.37172,1134.419 h 91.683"
       id="path818" />
    <path
       d="m 180.35172,1134.512 h 91.724"
       id="path820" />
    <path
       d="m 180.33072,1134.606 h 91.765"
       id="path822" />
    <path
       d="m 180.30972,1134.699 h 91.807"
       id="path824" />
    <path
       d="m 180.28972,1134.792 h 91.848"
       id="path826" />
    <path
       d="m 180.26872,1134.886 h 91.889"
       id="path828" />
    <path
       d="m 180.24772,1134.979 h 91.931"
       id="path830" />
    <path
       d="m 180.22672,1135.073 h 91.973"
       id="path832" />
    <path
       d="m 180.21372,1135.166 h 92"
       id="path834" />
    <path
       d="m 180.20072,1135.259 h 92.025"
       id="path836" />
    <path
       d="m 180.18872,1135.353 h 92.049"
       id="path838" />
    <path
       d="m 180.17672,1135.446 h 92.073"
       id="path840" />
    <path
       d="m 180.16372,1135.54 h 92.099"
       id="path842" />
    <path
       d="m 180.15172,1135.633 h 92.123"
       id="path844" />
    <path
       d="m 180.13972,1135.726 h 92.147"
       id="path846" />
    <path
       d="m 180.12772,1135.82 h 92.172"
       id="path848" />
    <path
       d="m 180.11472,1135.913 h 92.197"
       id="path850" />
    <path
       d="m 180.10272,1136.007 h 92.221"
       id="path852" />
    <path
       d="m 180.09072,1136.1 h 92.246"
       id="path854" />
    <path
       d="m 180.07772,1136.193 h 92.271"
       id="path856" />
    <path
       d="m 180.06572,1136.287 h 92.295"
       id="path858" />
    <path
       d="m 180.05372,1136.38 h 92.319"
       id="path860" />
    <path
       d="m 180.04172,1136.474 h 92.344"
       id="path862" />
    <path
       d="m 180.02872,1136.567 h 92.369"
       id="path864" />
    <path
       d="m 180.01672,1136.66 h 92.393"
       id="path866" />
    <path
       d="m 180.00472,1136.754 h 92.418"
       id="path868" />
    <path
       d="m 179.99172,1136.847 h 92.443"
       id="path870" />
    <path
       d="m 179.97972,1136.941 h 92.467"
       id="path872" />
    <path
       d="m 179.96772,1137.034 h 92.492"
       id="path874" />
    <path
       d="m 179.95572,1137.127 h 92.516"
       id="path876" />
    <path
       d="m 179.94272,1137.221 h 92.541"
       id="path878" />
    <path
       d="m 179.93072,1137.314 h 92.565"
       id="path880" />
    <path
       d="m 179.91872,1137.407 h 92.59"
       id="path882" />
    <path
       d="m 179.90572,1137.501 h 92.615"
       id="path884" />
    <path
       d="m 179.89372,1137.594 h 92.639"
       id="path886" />
    <path
       d="m 179.88172,1137.688 h 92.664"
       id="path888" />
    <path
       d="m 179.86872,1137.781 h 92.689"
       id="path890" />
    <path
       d="m 179.85672,1137.874 h 92.713"
       id="path892" />
    <path
       d="m 179.84472,1137.968 h 92.737"
       id="path894" />
    <path
       d="m 179.83272,1138.061 h 92.762"
       id="path896" />
    <path
       d="m 179.81972,1138.155 h 92.787"
       id="path898" />
    <path
       d="m 179.80772,1138.248 h 92.811"
       id="path900" />
    <path
       d="m 179.79572,1138.341 h 92.836"
       id="path902" />
    <path
       d="m 179.78272,1138.435 h 92.861"
       id="path904" />
    <path
       d="m 179.77072,1138.528 h 92.885"
       id="path906" />
    <path
       d="m 179.75872,1138.622 h 92.91"
       id="path908" />
    <path
       d="m 179.74572,1138.715 h 92.935"
       id="path910" />
    <path
       d="m 179.73372,1138.808 h 92.959"
       id="path912" />
    <path
       d="m 179.72172,1138.902 h 92.984"
       id="path914" />
    <path
       d="m 179.70972,1138.995 h 93.008"
       id="path916" />
    <path
       d="m 179.69672,1139.089 h 93.033"
       id="path918" />
    <path
       d="m 179.68972,1139.182 h 93.048"
       id="path920" />
    <path
       d="m 179.68572,1139.275 h 93.056"
       id="path922" />
    <path
       d="m 179.68172,1139.369 h 93.064"
       id="path924" />
    <path
       d="m 179.67672,1139.462 h 93.073"
       id="path926" />
    <path
       d="m 179.67272,1139.556 h 93.081"
       id="path928" />
    <path
       d="m 179.66872,1139.649 h 93.089"
       id="path930" />
    <path
       d="m 179.66472,1139.742 h 93.097"
       id="path932" />
    <path
       d="m 179.66072,1139.836 h 93.105"
       id="path934" />
    <path
       d="m 179.65672,1139.929 h 93.113"
       id="path936" />
    <path
       d="m 179.65272,1140.023 h 93.121"
       id="path938" />
    <path
       d="m 179.64872,1140.116 h 93.129"
       id="path940" />
    <path
       d="m 179.64472,1140.209 h 93.137"
       id="path942" />
    <path
       d="m 179.64072,1140.303 h 93.146"
       id="path944" />
    <path
       d="m 179.63672,1140.396 h 93.154"
       id="path946" />
    <path
       d="m 179.63272,1140.49 h 93.162"
       id="path948" />
    <path
       d="m 179.62872,1140.583 h 93.17"
       id="path950" />
    <path
       d="m 179.62372,1140.676 h 93.179"
       id="path952" />
    <path
       d="m 179.61972,1140.77 h 93.187"
       id="path954" />
    <path
       d="m 179.61572,1140.863 h 93.195"
       id="path956" />
    <path
       d="m 179.61172,1140.957 h 93.203"
       id="path958" />
    <path
       d="m 179.60772,1141.05 h 93.211"
       id="path960" />
    <path
       d="m 179.60372,1141.143 h 93.219"
       id="path962" />
    <path
       d="m 179.59972,1141.237 h 93.227"
       id="path964" />
    <path
       d="m 179.59572,1141.33 h 93.235"
       id="path966" />
    <path
       d="m 179.59172,1141.424 h 93.243"
       id="path968" />
    <path
       d="m 179.58772,1141.517 h 93.252"
       id="path970" />
    <path
       d="m 179.58372,1141.61 h 93.26"
       id="path972" />
    <path
       d="m 179.57972,1141.704 h 93.268"
       id="path974" />
    <path
       d="m 179.57572,1141.797 h 93.276"
       id="path976" />
    <path
       d="m 179.57072,1141.891 h 93.285"
       id="path978" />
    <path
       d="m 179.56672,1141.984 h 93.293"
       id="path980" />
    <path
       d="m 179.56272,1142.077 h 93.301"
       id="path982" />
    <path
       d="m 179.55872,1142.171 h 93.309"
       id="path984" />
    <path
       d="m 179.55472,1142.264 h 93.317"
       id="path986" />
    <path
       d="m 179.55072,1142.358 h 93.325"
       id="path988" />
    <path
       d="m 179.54672,1142.451 h 93.333"
       id="path990" />
    <path
       d="m 179.54272,1142.544 h 93.341"
       id="path992" />
    <path
       d="m 179.53872,1142.638 h 93.349"
       id="path994" />
    <path
       d="m 179.53472,1142.731 h 93.358"
       id="path996" />
    <path
       d="m 179.53072,1142.825 h 93.366"
       id="path998" />
    <path
       d="m 179.52672,1142.918 h 93.374"
       id="path1000" />
    <path
       d="m 179.52272,1143.011 h 93.382"
       id="path1002" />
    <path
       d="m 179.51872,1143.105 h 93.39"
       id="path1004" />
    <path
       d="m 179.51372,1143.198 h 93.399"
       id="path1006" />
    <path
       d="m 179.51872,1143.292 h 93.39"
       id="path1008" />
    <path
       d="m 179.52272,1143.385 h 93.382"
       id="path1010" />
    <path
       d="m 179.52672,1143.478 h 93.374"
       id="path1012" />
    <path
       d="m 179.53072,1143.572 h 93.366"
       id="path1014" />
    <path
       d="m 179.53472,1143.665 h 93.358"
       id="path1016" />
    <path
       d="m 179.53872,1143.759 h 93.349"
       id="path1018" />
    <path
       d="m 179.54272,1143.852 h 93.341"
       id="path1020" />
    <path
       d="m 179.54672,1143.945 h 93.333"
       id="path1022" />
    <path
       d="m 179.55072,1144.039 h 93.325"
       id="path1024" />
    <path
       d="m 179.55472,1144.132 h 93.317"
       id="path1026" />
    <path
       d="m 179.55872,1144.226 h 93.309"
       id="path1028" />
    <path
       d="m 179.56272,1144.319 h 93.301"
       id="path1030" />
    <path
       d="m 179.56672,1144.412 h 93.293"
       id="path1032" />
    <path
       d="m 179.57072,1144.506 h 93.285"
       id="path1034" />
    <path
       d="m 179.57572,1144.599 h 93.276"
       id="path1036" />
    <path
       d="m 179.57972,1144.693 h 93.268"
       id="path1038" />
    <path
       d="m 179.58372,1144.786 h 93.26"
       id="path1040" />
    <path
       d="m 179.58772,1144.879 h 93.252"
       id="path1042" />
    <path
       d="m 179.59172,1144.973 h 93.243"
       id="path1044" />
    <path
       d="m 179.59572,1145.066 h 93.235"
       id="path1046" />
    <path
       d="m 179.59972,1145.16 h 93.227"
       id="path1048" />
    <path
       d="m 179.60372,1145.253 h 93.219"
       id="path1050" />
    <path
       d="m 179.60772,1145.346 h 93.211"
       id="path1052" />
    <path
       d="m 179.61172,1145.44 h 93.203"
       id="path1054" />
    <path
       d="m 179.61572,1145.533 h 93.195"
       id="path1056" />
    <path
       d="m 179.61972,1145.627 h 93.187"
       id="path1058" />
    <path
       d="m 179.62372,1145.72 h 93.179"
       id="path1060" />
    <path
       d="m 179.62872,1145.813 h 93.17"
       id="path1062" />
    <path
       d="m 179.63272,1145.907 h 93.162"
       id="path1064" />
    <path
       d="m 179.63672,1146 h 93.154"
       id="path1066" />
    <path
       d="m 179.64072,1146.094 h 93.146"
       id="path1068" />
    <path
       d="m 179.64472,1146.187 h 93.137"
       id="path1070" />
    <path
       d="m 179.64872,1146.28 h 93.129"
       id="path1072" />
    <path
       d="m 179.65272,1146.374 h 93.121"
       id="path1074" />
    <path
       d="m 179.65672,1146.467 h 93.113"
       id="path1076" />
    <path
       d="m 179.66072,1146.561 h 93.105"
       id="path1078" />
    <path
       d="m 179.66472,1146.654 h 93.097"
       id="path1080" />
    <path
       d="m 179.66872,1146.747 h 93.089"
       id="path1082" />
    <path
       d="m 179.67272,1146.841 h 93.081"
       id="path1084" />
    <path
       d="m 179.67672,1146.934 h 93.073"
       id="path1086" />
    <path
       d="m 179.68172,1147.028 h 93.064"
       id="path1088" />
    <path
       d="m 179.68572,1147.121 h 93.056"
       id="path1090" />
    <path
       d="m 179.68972,1147.214 h 93.048"
       id="path1092" />
    <path
       d="m 179.69672,1147.308 h 93.033"
       id="path1094" />
    <path
       d="m 179.70972,1147.401 h 93.008"
       id="path1096" />
    <path
       d="m 179.72172,1147.495 h 92.984"
       id="path1098" />
    <path
       d="m 179.73372,1147.588 h 92.959"
       id="path1100" />
    <path
       d="m 179.74572,1147.681 h 92.935"
       id="path1102" />
    <path
       d="m 179.75872,1147.775 h 92.91"
       id="path1104" />
    <path
       d="m 179.77072,1147.868 h 92.885"
       id="path1106" />
    <path
       d="m 179.78272,1147.962 h 92.861"
       id="path1108" />
    <path
       d="m 179.79572,1148.055 h 92.836"
       id="path1110" />
    <path
       d="m 179.80772,1148.148 h 92.811"
       id="path1112" />
    <path
       d="m 179.81972,1148.242 h 92.787"
       id="path1114" />
    <path
       d="m 179.83272,1148.335 h 92.762"
       id="path1116" />
    <path
       d="m 179.84472,1148.429 h 92.738"
       id="path1118" />
    <path
       d="m 179.85672,1148.522 h 92.713"
       id="path1120" />
    <path
       d="m 179.86872,1148.615 h 92.689"
       id="path1122" />
    <path
       d="m 179.88172,1148.709 h 92.664"
       id="path1124" />
    <path
       d="m 179.89372,1148.802 h 92.639"
       id="path1126" />
    <path
       d="m 179.90572,1148.896 h 92.615"
       id="path1128" />
    <path
       d="m 179.91872,1148.989 h 92.59"
       id="path1130" />
    <path
       d="m 179.93072,1149.082 h 92.565"
       id="path1132" />
    <path
       d="m 179.94272,1149.176 h 92.541"
       id="path1134" />
    <path
       d="m 179.95572,1149.269 h 92.516"
       id="path1136" />
    <path
       d="m 179.96772,1149.362 h 92.492"
       id="path1138" />
    <path
       d="m 179.97972,1149.456 h 92.467"
       id="path1140" />
    <path
       d="m 179.99172,1149.549 h 92.443"
       id="path1142" />
    <path
       d="m 180.00472,1149.643 h 92.418"
       id="path1144" />
    <path
       d="m 180.01672,1149.736 h 92.393"
       id="path1146" />
    <path
       d="m 180.02872,1149.829 h 92.369"
       id="path1148" />
    <path
       d="m 180.04172,1149.923 h 92.344"
       id="path1150" />
    <path
       d="m 180.05372,1150.016 h 92.32"
       id="path1152" />
    <path
       d="m 180.06572,1150.11 h 92.295"
       id="path1154" />
    <path
       d="m 180.07772,1150.203 h 92.271"
       id="path1156" />
    <path
       d="m 180.09072,1150.296 h 92.246"
       id="path1158" />
    <path
       d="m 180.10272,1150.39 h 92.221"
       id="path1160" />
    <path
       d="m 180.11472,1150.483 h 92.197"
       id="path1162" />
    <path
       d="m 180.12772,1150.577 h 92.172"
       id="path1164" />
    <path
       d="m 180.13972,1150.67 h 92.147"
       id="path1166" />
    <path
       d="m 180.15172,1150.763 h 92.123"
       id="path1168" />
    <path
       d="m 180.16472,1150.857 h 92.098"
       id="path1170" />
    <path
       d="m 180.17672,1150.95 h 92.074"
       id="path1172" />
    <path
       d="m 180.18872,1151.044 h 92.049"
       id="path1174" />
    <path
       d="m 180.20072,1151.137 h 92.025"
       id="path1176" />
    <path
       d="m 180.21372,1151.23 h 92"
       id="path1178" />
    <path
       d="m 180.22772,1151.324 h 91.972"
       id="path1180" />
    <path
       d="m 180.24772,1151.417 h 91.931"
       id="path1182" />
    <path
       d="m 180.26872,1151.511 h 91.889"
       id="path1184" />
    <path
       d="m 180.28972,1151.604 h 91.848"
       id="path1186" />
    <path
       d="m 180.30972,1151.697 h 91.807"
       id="path1188" />
    <path
       d="m 180.33072,1151.791 h 91.765"
       id="path1190" />
    <path
       d="m 180.35172,1151.884 h 91.724"
       id="path1192" />
    <path
       d="m 180.37172,1151.978 h 91.683"
       id="path1194" />
    <path
       d="m 180.39272,1152.071 h 91.641"
       id="path1196" />
    <path
       d="m 180.41372,1152.164 h 91.6"
       id="path1198" />
    <path
       d="m 180.43472,1152.258 h 91.558"
       id="path1200" />
    <path
       d="m 180.45472,1152.351 h 91.517"
       id="path1202" />
    <path
       d="m 180.47572,1152.445 h 91.475"
       id="path1204" />
    <path
       d="m 180.49672,1152.538 h 91.434"
       id="path1206" />
    <path
       d="m 180.51672,1152.631 h 91.393"
       id="path1208" />
    <path
       d="m 180.53772,1152.725 h 91.351"
       id="path1210" />
    <path
       d="m 180.55872,1152.818 h 91.31"
       id="path1212" />
    <path
       d="m 180.57972,1152.912 h 91.268"
       id="path1214" />
    <path
       d="m 180.59972,1153.005 h 91.227"
       id="path1216" />
    <path
       d="m 180.62072,1153.098 h 91.185"
       id="path1218" />
    <path
       d="m 180.64172,1153.192 h 91.144"
       id="path1220" />
    <path
       d="m 180.66172,1153.285 h 91.103"
       id="path1222" />
    <path
       d="m 180.68272,1153.379 h 91.061"
       id="path1224" />
    <path
       d="m 180.70372,1153.472 h 91.02"
       id="path1226" />
    <path
       d="m 180.72372,1153.565 h 90.979"
       id="path1228" />
    <path
       d="m 180.74472,1153.659 h 90.937"
       id="path1230" />
    <path
       d="m 180.76572,1153.752 h 90.895"
       id="path1232" />
    <path
       d="m 180.78672,1153.846 h 90.854"
       id="path1234" />
    <path
       d="m 180.80672,1153.939 h 90.813"
       id="path1236" />
    <path
       d="m 180.82772,1154.032 h 90.771"
       id="path1238" />
    <path
       d="m 180.84872,1154.126 h 90.73"
       id="path1240" />
    <path
       d="m 180.86872,1154.219 h 90.689"
       id="path1242" />
    <path
       d="m 180.88972,1154.313 h 90.647"
       id="path1244" />
    <path
       d="m 180.91072,1154.406 h 90.606"
       id="path1246" />
    <path
       d="m 180.93172,1154.499 h 90.564"
       id="path1248" />
    <path
       d="m 180.95172,1154.593 h 90.523"
       id="path1250" />
    <path
       d="m 180.97272,1154.686 h 90.481"
       id="path1252" />
    <path
       d="m 180.99372,1154.78 h 90.44"
       id="path1254" />
    <path
       d="m 181.01372,1154.873 h 90.399"
       id="path1256" />
    <path
       d="m 181.03472,1154.966 h 90.357"
       id="path1258" />
    <path
       d="m 181.05572,1155.06 h 90.316"
       id="path1260" />
    <path
       d="m 181.07572,1155.153 h 90.275"
       id="path1262" />
    <path
       d="m 181.09672,1155.247 h 90.233"
       id="path1264" />
    <path
       d="m 181.12272,1155.34 h 90.181"
       id="path1266" />
    <path
       d="m 181.15172,1155.433 h 90.123"
       id="path1268" />
    <path
       d="m 181.18172,1155.527 h 90.063"
       id="path1270" />
    <path
       d="m 181.21072,1155.62 h 90.005"
       id="path1272" />
    <path
       d="m 181.24072,1155.714 h 89.946"
       id="path1274" />
    <path
       d="m 181.26972,1155.807 h 89.887"
       id="path1276" />
    <path
       d="m 181.29972,1155.9 h 89.828"
       id="path1278" />
    <path
       d="m 181.32872,1155.994 h 89.769"
       id="path1280" />
    <path
       d="m 181.35872,1156.087 h 89.71"
       id="path1282" />
    <path
       d="m 181.38772,1156.181 h 89.651"
       id="path1284" />
    <path
       d="m 181.41772,1156.274 h 89.592"
       id="path1286" />
    <path
       d="m 181.44672,1156.367 h 89.533"
       id="path1288" />
    <path
       d="m 181.47572,1156.461 h 89.475"
       id="path1290" />
    <path
       d="m 181.50572,1156.554 h 89.416"
       id="path1292" />
    <path
       d="m 181.53472,1156.648 h 89.357"
       id="path1294" />
    <path
       d="m 181.56472,1156.741 h 89.298"
       id="path1296" />
    <path
       d="m 181.59372,1156.834 h 89.239"
       id="path1298" />
    <path
       d="m 181.62372,1156.928 h 89.18"
       id="path1300" />
    <path
       d="m 181.65272,1157.021 h 89.121"
       id="path1302" />
    <path
       d="m 181.68272,1157.115 h 89.062"
       id="path1304" />
    <path
       d="m 181.71172,1157.208 h 89.003"
       id="path1306" />
    <path
       d="m 181.74072,1157.301 h 88.945"
       id="path1308" />
    <path
       d="m 181.77072,1157.395 h 88.885"
       id="path1310" />
    <path
       d="m 181.79972,1157.488 h 88.827"
       id="path1312" />
    <path
       d="m 181.82972,1157.582 h 88.768"
       id="path1314" />
    <path
       d="m 181.85872,1157.675 h 88.709"
       id="path1316" />
    <path
       d="m 181.88872,1157.768 h 88.65"
       id="path1318" />
    <path
       d="m 181.91772,1157.862 h 88.591"
       id="path1320" />
    <path
       d="m 181.94772,1157.955 h 88.532"
       id="path1322" />
    <path
       d="m 181.97672,1158.049 h 88.473"
       id="path1324" />
    <path
       d="m 182.00572,1158.142 h 88.415"
       id="path1326" />
    <path
       d="m 182.03572,1158.235 h 88.355"
       id="path1328" />
    <path
       d="m 182.06472,1158.329 h 88.297"
       id="path1330" />
    <path
       d="m 182.09472,1158.422 h 88.238"
       id="path1332" />
    <path
       d="m 182.12372,1158.516 h 88.179"
       id="path1334" />
    <path
       d="m 182.15372,1158.609 h 88.12"
       id="path1336" />
    <path
       d="m 182.18272,1158.702 h 88.061"
       id="path1338" />
    <path
       d="m 182.21272,1158.796 h 88.002"
       id="path1340" />
    <path
       d="m 182.24172,1158.889 h 87.943"
       id="path1342" />
    <path
       d="m 182.27172,1158.983 h 87.884"
       id="path1344" />
    <path
       d="m 182.30072,1159.076 h 87.825"
       id="path1346" />
    <path
       d="m 182.32972,1159.169 h 87.767"
       id="path1348" />
    <path
       d="m 182.36872,1159.263 h 87.689"
       id="path1350" />
    <path
       d="m 182.40772,1159.356 h 87.612"
       id="path1352" />
    <path
       d="m 182.44572,1159.45 h 87.535"
       id="path1354" />
    <path
       d="m 182.48472,1159.543 h 87.457"
       id="path1356" />
    <path
       d="m 182.52372,1159.636 h 87.38"
       id="path1358" />
    <path
       d="m 182.56172,1159.73 h 87.303"
       id="path1360" />
    <path
       d="m 182.60072,1159.823 h 87.225"
       id="path1362" />
    <path
       d="m 182.63972,1159.917 h 87.148"
       id="path1364" />
    <path
       d="m 182.67872,1160.01 h 87.07"
       id="path1366" />
    <path
       d="m 182.71672,1160.103 h 86.993"
       id="path1368" />
    <path
       d="m 182.75572,1160.197 h 86.915"
       id="path1370" />
    <path
       d="m 182.79472,1160.29 h 86.838"
       id="path1372" />
    <path
       d="m 182.83272,1160.384 h 86.761"
       id="path1374" />
    <path
       d="m 182.87172,1160.477 h 86.683"
       id="path1376" />
    <path
       d="m 182.91072,1160.57 h 86.606"
       id="path1378" />
    <path
       d="m 182.94872,1160.664 h 86.529"
       id="path1380" />
    <path
       d="m 182.98772,1160.757 h 86.451"
       id="path1382" />
    <path
       d="m 183.02672,1160.851 h 86.374"
       id="path1384" />
    <path
       d="m 183.06472,1160.944 h 86.297"
       id="path1386" />
    <path
       d="m 183.10372,1161.037 h 86.219"
       id="path1388" />
    <path
       d="m 183.14272,1161.131 h 86.142"
       id="path1390" />
    <path
       d="m 183.18072,1161.224 h 86.065"
       id="path1392" />
    <path
       d="m 183.21972,1161.318 h 85.987"
       id="path1394" />
    <path
       d="m 183.25872,1161.411 h 85.91"
       id="path1396" />
    <path
       d="m 183.29672,1161.504 h 85.833"
       id="path1398" />
    <path
       d="m 183.33572,1161.598 h 85.755"
       id="path1400" />
    <path
       d="m 183.37472,1161.691 h 85.677"
       id="path1402" />
    <path
       d="m 183.41372,1161.785 h 85.6"
       id="path1404" />
    <path
       d="m 183.45172,1161.878 h 85.523"
       id="path1406" />
    <path
       d="m 183.49072,1161.971 h 85.445"
       id="path1408" />
    <path
       d="m 183.52972,1162.065 h 85.368"
       id="path1410" />
    <path
       d="m 183.56772,1162.158 h 85.291"
       id="path1412" />
    <path
       d="m 183.60672,1162.252 h 85.213"
       id="path1414" />
    <path
       d="m 183.64572,1162.345 h 85.136"
       id="path1416" />
    <path
       d="m 183.68372,1162.438 h 85.059"
       id="path1418" />
    <path
       d="m 183.72272,1162.532 h 84.981"
       id="path1420" />
    <path
       d="m 183.76172,1162.625 h 84.904"
       id="path1422" />
    <path
       d="m 183.79972,1162.719 h 84.827"
       id="path1424" />
    <path
       d="m 183.83872,1162.812 h 84.749"
       id="path1426" />
    <path
       d="m 183.87772,1162.905 h 84.672"
       id="path1428" />
    <path
       d="m 183.92272,1162.999 h 84.581"
       id="path1430" />
    <path
       d="m 183.97172,1163.092 h 84.483"
       id="path1432" />
    <path
       d="m 184.02072,1163.186 h 84.386"
       id="path1434" />
    <path
       d="m 184.06872,1163.279 h 84.289"
       id="path1436" />
    <path
       d="m 184.11772,1163.372 h 84.191"
       id="path1438" />
    <path
       d="m 184.16572,1163.466 h 84.095"
       id="path1440" />
    <path
       d="m 184.21472,1163.559 h 83.997"
       id="path1442" />
    <path
       d="m 184.26372,1163.653 h 83.9"
       id="path1444" />
    <path
       d="m 184.31172,1163.746 h 83.803"
       id="path1446" />
    <path
       d="m 184.36072,1163.839 h 83.705"
       id="path1448" />
    <path
       d="m 184.40972,1163.933 h 83.608"
       id="path1450" />
    <path
       d="m 184.45772,1164.026 h 83.511"
       id="path1452" />
    <path
       d="m 184.50672,1164.12 h 83.414"
       id="path1454" />
    <path
       d="m 184.55472,1164.213 h 83.317"
       id="path1456" />
    <path
       d="m 184.60372,1164.306 h 83.219"
       id="path1458" />
    <path
       d="m 184.65272,1164.4 h 83.122"
       id="path1460" />
    <path
       d="m 184.70072,1164.493 h 83.025"
       id="path1462" />
    <path
       d="m 184.74972,1164.587 h 82.927"
       id="path1464" />
    <path
       d="m 184.79872,1164.68 h 82.83"
       id="path1466" />
    <path
       d="m 184.84672,1164.773 h 82.733"
       id="path1468" />
    <path
       d="m 184.89572,1164.867 h 82.636"
       id="path1470" />
    <path
       d="m 184.94372,1164.96 h 82.539"
       id="path1472" />
    <path
       d="m 184.99272,1165.054 h 82.441"
       id="path1474" />
    <path
       d="m 185.04172,1165.147 h 82.344"
       id="path1476" />
    <path
       d="m 185.08972,1165.24 h 82.247"
       id="path1478" />
    <path
       d="m 185.13872,1165.334 h 82.15"
       id="path1480" />
    <path
       d="m 185.18672,1165.427 h 82.053"
       id="path1482" />
    <path
       d="m 185.23572,1165.52 h 81.955"
       id="path1484" />
    <path
       d="m 185.28472,1165.614 h 81.858"
       id="path1486" />
    <path
       d="m 185.33272,1165.707 h 81.761"
       id="path1488" />
    <path
       d="m 185.38172,1165.801 h 81.663"
       id="path1490" />
    <path
       d="m 185.43072,1165.894 h 81.566"
       id="path1492" />
    <path
       d="m 185.47872,1165.987 h 81.469"
       id="path1494" />
    <path
       d="m 185.52772,1166.081 h 81.372"
       id="path1496" />
    <path
       d="m 185.57572,1166.174 h 81.275"
       id="path1498" />
    <path
       d="m 185.62472,1166.268 h 81.177"
       id="path1500" />
    <path
       d="m 185.67372,1166.361 h 81.08"
       id="path1502" />
    <path
       d="m 185.72172,1166.454 h 80.983"
       id="path1504" />
    <path
       d="m 185.77072,1166.548 h 80.885"
       id="path1506" />
    <path
       d="m 185.82972,1166.641 h 80.767"
       id="path1508" />
    <path
       d="m 185.88972,1166.735 h 80.647"
       id="path1510" />
    <path
       d="m 185.94872,1166.828 h 80.529"
       id="path1512" />
    <path
       d="m 186.00872,1166.921 h 80.409"
       id="path1514" />
    <path
       d="m 186.06772,1167.015 h 80.291"
       id="path1516" />
    <path
       d="m 186.12772,1167.108 h 80.171"
       id="path1518" />
    <path
       d="m 186.18672,1167.202 h 80.053"
       id="path1520" />
    <path
       d="m 186.24672,1167.295 h 79.933"
       id="path1522" />
    <path
       d="m 186.30572,1167.388 h 79.815"
       id="path1524" />
    <path
       d="m 186.36572,1167.482 h 79.695"
       id="path1526" />
    <path
       d="m 186.42472,1167.575 h 79.577"
       id="path1528" />
    <path
       d="m 186.48472,1167.669 h 79.457"
       id="path1530" />
    <path
       d="m 186.54372,1167.762 h 79.339"
       id="path1532" />
    <path
       d="m 186.60372,1167.855 h 79.219"
       id="path1534" />
    <path
       d="m 186.66272,1167.949 h 79.101"
       id="path1536" />
    <path
       d="m 186.72272,1168.042 h 78.981"
       id="path1538" />
    <path
       d="m 186.78172,1168.136 h 78.863"
       id="path1540" />
    <path
       d="m 186.84172,1168.229 h 78.743"
       id="path1542" />
    <path
       d="m 186.90072,1168.322 h 78.625"
       id="path1544" />
    <path
       d="m 186.96072,1168.416 h 78.505"
       id="path1546" />
    <path
       d="m 187.01972,1168.509 h 78.387"
       id="path1548" />
    <path
       d="m 187.07972,1168.603 h 78.267"
       id="path1550" />
    <path
       d="m 187.13872,1168.696 h 78.149"
       id="path1552" />
    <path
       d="m 187.19872,1168.789 h 78.029"
       id="path1554" />
    <path
       d="m 187.25772,1168.883 h 77.911"
       id="path1556" />
    <path
       d="m 187.31772,1168.976 h 77.791"
       id="path1558" />
    <path
       d="m 187.37672,1169.07 h 77.673"
       id="path1560" />
    <path
       d="m 187.43672,1169.163 h 77.553"
       id="path1562" />
    <path
       d="m 187.49572,1169.256 h 77.435"
       id="path1564" />
    <path
       d="m 187.55572,1169.35 h 77.315"
       id="path1566" />
    <path
       d="m 187.61472,1169.443 h 77.197"
       id="path1568" />
    <path
       d="m 187.67472,1169.537 h 77.077"
       id="path1570" />
    <path
       d="m 187.73372,1169.63 h 76.959"
       id="path1572" />
    <path
       d="m 187.79372,1169.723 h 76.839"
       id="path1574" />
    <path
       d="m 187.85272,1169.817 h 76.721"
       id="path1576" />
    <path
       d="m 187.91272,1169.91 h 76.601"
       id="path1578" />
    <path
       d="m 187.97472,1170.004 h 76.477"
       id="path1580" />
    <path
       d="m 188.04672,1170.097 h 76.334"
       id="path1582" />
    <path
       d="m 188.11772,1170.19 h 76.191"
       id="path1584" />
    <path
       d="m 188.18972,1170.284 h 76.047"
       id="path1586" />
    <path
       d="m 188.26172,1170.377 h 75.904"
       id="path1588" />
    <path
       d="m 188.33272,1170.471 h 75.761"
       id="path1590" />
    <path
       d="m 188.40472,1170.564 h 75.617"
       id="path1592" />
    <path
       d="m 188.47672,1170.657 h 75.474"
       id="path1594" />
    <path
       d="m 188.54772,1170.751 h 75.331"
       id="path1596" />
    <path
       d="m 188.61972,1170.844 h 75.187"
       id="path1598" />
    <path
       d="m 188.69172,1170.938 h 75.044"
       id="path1600" />
    <path
       d="m 188.76272,1171.031 h 74.901"
       id="path1602" />
    <path
       d="m 188.83472,1171.124 h 74.757"
       id="path1604" />
    <path
       d="m 188.90672,1171.218 h 74.614"
       id="path1606" />
    <path
       d="m 188.97772,1171.311 h 74.471"
       id="path1608" />
    <path
       d="m 189.04972,1171.405 h 74.327"
       id="path1610" />
    <path
       d="m 189.12172,1171.498 h 74.184"
       id="path1612" />
    <path
       d="m 189.19272,1171.591 h 74.041"
       id="path1614" />
    <path
       d="m 189.26472,1171.685 h 73.897"
       id="path1616" />
    <path
       d="m 189.33672,1171.778 h 73.754"
       id="path1618" />
    <path
       d="m 189.40772,1171.872 h 73.611"
       id="path1620" />
    <path
       d="m 189.47972,1171.965 h 73.467"
       id="path1622" />
    <path
       d="m 189.55172,1172.058 h 73.324"
       id="path1624" />
    <path
       d="m 189.62272,1172.152 h 73.181"
       id="path1626" />
    <path
       d="m 189.69472,1172.245 h 73.037"
       id="path1628" />
    <path
       d="m 189.76672,1172.339 h 72.894"
       id="path1630" />
    <path
       d="m 189.83772,1172.432 h 72.751"
       id="path1632" />
    <path
       d="m 189.90972,1172.525 h 72.607"
       id="path1634" />
    <path
       d="m 189.98172,1172.619 h 72.464"
       id="path1636" />
    <path
       d="m 190.05272,1172.712 h 72.321"
       id="path1638" />
    <path
       d="m 190.12472,1172.806 h 72.177"
       id="path1640" />
    <path
       d="m 190.19672,1172.899 h 72.034"
       id="path1642" />
    <path
       d="m 190.26772,1172.992 h 71.891"
       id="path1644" />
    <path
       d="m 190.33972,1173.086 h 71.747"
       id="path1646" />
    <path
       d="m 190.41172,1173.179 h 71.604"
       id="path1648" />
    <path
       d="m 190.49172,1173.273 h 71.444"
       id="path1650" />
    <path
       d="m 190.57672,1173.366 h 71.273"
       id="path1652" />
    <path
       d="m 190.66272,1173.459 h 71.101"
       id="path1654" />
    <path
       d="m 190.74872,1173.553 h 70.93"
       id="path1656" />
    <path
       d="m 190.83372,1173.646 h 70.759"
       id="path1658" />
    <path
       d="m 190.91972,1173.74 h 70.588"
       id="path1660" />
    <path
       d="m 191.00472,1173.833 h 70.417"
       id="path1662" />
    <path
       d="m 191.09072,1173.926 h 70.245"
       id="path1664" />
    <path
       d="m 191.17572,1174.02 h 70.075"
       id="path1666" />
    <path
       d="m 191.26172,1174.113 h 69.903"
       id="path1668" />
    <path
       d="m 191.34772,1174.207 h 69.732"
       id="path1670" />
    <path
       d="m 191.43272,1174.3 h 69.561"
       id="path1672" />
    <path
       d="m 191.51872,1174.393 h 69.39"
       id="path1674" />
    <path
       d="m 191.60372,1174.487 h 69.219"
       id="path1676" />
    <path
       d="m 191.68972,1174.58 h 69.047"
       id="path1678" />
    <path
       d="m 191.77572,1174.674 h 68.876"
       id="path1680" />
    <path
       d="m 191.86072,1174.767 h 68.705"
       id="path1682" />
    <path
       d="m 191.94672,1174.86 h 68.534"
       id="path1684" />
    <path
       d="m 192.03172,1174.954 h 68.363"
       id="path1686" />
    <path
       d="m 192.11772,1175.047 h 68.191"
       id="path1688" />
    <path
       d="m 192.20272,1175.141 h 68.021"
       id="path1690" />
    <path
       d="m 192.28872,1175.234 h 67.849"
       id="path1692" />
    <path
       d="m 192.37472,1175.327 h 67.678"
       id="path1694" />
    <path
       d="m 192.45972,1175.421 h 67.507"
       id="path1696" />
    <path
       d="m 192.54572,1175.514 h 67.336"
       id="path1698" />
    <path
       d="m 192.63072,1175.608 h 67.165"
       id="path1700" />
    <path
       d="m 192.71672,1175.701 h 66.993"
       id="path1702" />
    <path
       d="m 192.80272,1175.794 h 66.822"
       id="path1704" />
    <path
       d="m 192.88772,1175.888 h 66.651"
       id="path1706" />
    <path
       d="m 192.97372,1175.981 h 66.48"
       id="path1708" />
    <path
       d="m 193.05872,1176.075 h 66.309"
       id="path1710" />
    <path
       d="m 193.14472,1176.168 h 66.137"
       id="path1712" />
    <path
       d="m 193.23772,1176.261 h 65.952"
       id="path1714" />
    <path
       d="m 193.33972,1176.355 h 65.748"
       id="path1716" />
    <path
       d="m 193.44172,1176.448 h 65.544"
       id="path1718" />
    <path
       d="m 193.54372,1176.542 h 65.34"
       id="path1720" />
    <path
       d="m 193.64472,1176.635 h 65.137"
       id="path1722" />
    <path
       d="m 193.74672,1176.728 h 64.933"
       id="path1724" />
    <path
       d="m 193.84872,1176.822 h 64.729"
       id="path1726" />
    <path
       d="m 193.95072,1176.915 h 64.525"
       id="path1728" />
    <path
       d="m 194.05272,1177.009 h 64.321"
       id="path1730" />
    <path
       d="m 194.15472,1177.102 h 64.117"
       id="path1732" />
    <path
       d="m 194.25672,1177.195 h 63.913"
       id="path1734" />
    <path
       d="m 194.35872,1177.289 h 63.709"
       id="path1736" />
    <path
       d="m 194.46072,1177.382 h 63.505"
       id="path1738" />
    <path
       d="m 194.56272,1177.475 h 63.302"
       id="path1740" />
    <path
       d="m 194.66472,1177.569 h 63.098"
       id="path1742" />
    <path
       d="m 194.76672,1177.662 h 62.894"
       id="path1744" />
    <path
       d="m 194.86872,1177.756 h 62.69"
       id="path1746" />
    <path
       d="m 194.97072,1177.849 h 62.486"
       id="path1748" />
    <path
       d="m 195.07172,1177.942 h 62.283"
       id="path1750" />
    <path
       d="m 195.17372,1178.036 h 62.079"
       id="path1752" />
    <path
       d="m 195.27572,1178.129 h 61.875"
       id="path1754" />
    <path
       d="m 195.37772,1178.223 h 61.671"
       id="path1756" />
    <path
       d="m 195.47972,1178.316 h 61.467"
       id="path1758" />
    <path
       d="m 195.58172,1178.409 h 61.263"
       id="path1760" />
    <path
       d="m 195.68372,1178.503 h 61.059"
       id="path1762" />
    <path
       d="m 195.78572,1178.596 h 60.855"
       id="path1764" />
    <path
       d="m 195.88772,1178.69 h 60.651"
       id="path1766" />
    <path
       d="m 195.98972,1178.783 h 60.448"
       id="path1768" />
    <path
       d="m 196.09172,1178.876 h 60.244"
       id="path1770" />
    <path
       d="m 196.19372,1178.97 h 60.04"
       id="path1772" />
    <path
       d="m 196.31472,1179.063 h 59.797"
       id="path1774" />
    <path
       d="m 196.43672,1179.157 h 59.554"
       id="path1776" />
    <path
       d="m 196.55772,1179.25 h 59.311"
       id="path1778" />
    <path
       d="m 196.67972,1179.343 h 59.067"
       id="path1780" />
    <path
       d="m 196.80172,1179.437 h 58.824"
       id="path1782" />
    <path
       d="m 196.92372,1179.53 h 58.58"
       id="path1784" />
    <path
       d="m 197.04472,1179.624 h 58.337"
       id="path1786" />
    <path
       d="m 197.16672,1179.717 h 58.093"
       id="path1788" />
    <path
       d="m 197.28872,1179.81 h 57.85"
       id="path1790" />
    <path
       d="m 197.40972,1179.904 h 57.607"
       id="path1792" />
    <path
       d="m 197.53172,1179.997 h 57.363"
       id="path1794" />
    <path
       d="m 197.65372,1180.091 h 57.119"
       id="path1796" />
    <path
       d="m 197.77572,1180.184 h 56.876"
       id="path1798" />
    <path
       d="m 197.89672,1180.277 h 56.633"
       id="path1800" />
    <path
       d="m 198.01872,1180.371 h 56.389"
       id="path1802" />
    <path
       d="m 198.14072,1180.464 h 56.146"
       id="path1804" />
    <path
       d="m 198.26172,1180.558 h 55.903"
       id="path1806" />
    <path
       d="m 198.38372,1180.651 h 55.659"
       id="path1808" />
    <path
       d="m 198.50572,1180.744 h 55.415"
       id="path1810" />
    <path
       d="m 198.62772,1180.838 h 55.172"
       id="path1812" />
    <path
       d="m 198.74872,1180.931 h 54.929"
       id="path1814" />
    <path
       d="m 198.87072,1181.025 h 54.685"
       id="path1816" />
    <path
       d="m 198.99272,1181.118 h 54.442"
       id="path1818" />
    <path
       d="m 199.11472,1181.211 h 54.198"
       id="path1820" />
    <path
       d="m 199.23572,1181.305 h 53.955"
       id="path1822" />
    <path
       d="m 199.35772,1181.398 h 53.711"
       id="path1824" />
    <path
       d="m 199.48972,1181.492 h 53.447"
       id="path1826" />
    <path
       d="m 199.63672,1181.585 h 53.153"
       id="path1828" />
    <path
       d="m 199.78272,1181.678 h 52.861"
       id="path1830" />
    <path
       d="m 199.92972,1181.772 h 52.567"
       id="path1832" />
    <path
       d="m 200.07672,1181.865 h 52.274"
       id="path1834" />
    <path
       d="m 200.22272,1181.959 h 51.981"
       id="path1836" />
    <path
       d="m 200.36972,1182.052 h 51.687"
       id="path1838" />
    <path
       d="m 200.51572,1182.145 h 51.395"
       id="path1840" />
    <path
       d="m 200.66272,1182.239 h 51.101"
       id="path1842" />
    <path
       d="m 200.80972,1182.332 h 50.808"
       id="path1844" />
    <path
       d="m 200.95572,1182.426 h 50.515"
       id="path1846" />
    <path
       d="m 201.10272,1182.519 h 50.221"
       id="path1848" />
    <path
       d="m 201.24972,1182.612 h 49.928"
       id="path1850" />
    <path
       d="m 201.39572,1182.706 h 49.635"
       id="path1852" />
    <path
       d="m 201.54272,1182.799 h 49.342"
       id="path1854" />
    <path
       d="m 201.68872,1182.893 h 49.049"
       id="path1856" />
    <path
       d="m 201.83572,1182.986 h 48.755"
       id="path1858" />
    <path
       d="m 201.98272,1183.079 h 48.462"
       id="path1860" />
    <path
       d="m 202.12872,1183.173 h 48.169"
       id="path1862" />
    <path
       d="m 202.27572,1183.266 h 47.876"
       id="path1864" />
    <path
       d="m 202.42172,1183.36 h 47.583"
       id="path1866" />
    <path
       d="m 202.56872,1183.453 h 47.289"
       id="path1868" />
    <path
       d="m 202.71572,1183.546 h 46.996"
       id="path1870" />
    <path
       d="m 202.86172,1183.64 h 46.703"
       id="path1872" />
    <path
       d="m 203.04072,1183.733 h 46.345"
       id="path1874" />
    <path
       d="m 203.22072,1183.827 h 45.986"
       id="path1876" />
    <path
       d="m 203.39972,1183.92 h 45.627"
       id="path1878" />
    <path
       d="m 203.57872,1184.013 h 45.269"
       id="path1880" />
    <path
       d="m 203.75872,1184.107 h 44.909"
       id="path1882" />
    <path
       d="m 203.93772,1184.2 h 44.551"
       id="path1884" />
    <path
       d="m 204.11772,1184.294 h 44.192"
       id="path1886" />
    <path
       d="m 204.29672,1184.387 h 43.833"
       id="path1888" />
    <path
       d="m 204.47672,1184.48 h 43.474"
       id="path1890" />
    <path
       d="m 204.65572,1184.574 h 43.115"
       id="path1892" />
    <path
       d="m 204.83472,1184.667 h 42.757"
       id="path1894" />
    <path
       d="m 205.01472,1184.761 h 42.398"
       id="path1896" />
    <path
       d="m 205.19372,1184.854 h 42.039"
       id="path1898" />
    <path
       d="m 205.37372,1184.947 h 41.68"
       id="path1900" />
    <path
       d="m 205.55272,1185.041 h 41.321"
       id="path1902" />
    <path
       d="m 205.73172,1185.134 h 40.963"
       id="path1904" />
    <path
       d="m 205.91172,1185.228 h 40.603"
       id="path1906" />
    <path
       d="m 206.09072,1185.321 h 40.245"
       id="path1908" />
    <path
       d="m 206.27072,1185.414 h 39.886"
       id="path1910" />
    <path
       d="m 206.44972,1185.508 h 39.527"
       id="path1912" />
    <path
       d="m 206.66872,1185.601 h 39.09"
       id="path1914" />
    <path
       d="m 206.89372,1185.695 h 38.639"
       id="path1916" />
    <path
       d="m 207.11872,1185.788 h 38.189"
       id="path1918" />
    <path
       d="m 207.34472,1185.881 h 37.737"
       id="path1920" />
    <path
       d="m 207.56972,1185.975 h 37.287"
       id="path1922" />
    <path
       d="m 207.79572,1186.068 h 36.835"
       id="path1924" />
    <path
       d="m 208.02072,1186.162 h 36.385"
       id="path1926" />
    <path
       d="m 208.24672,1186.255 h 35.933"
       id="path1928" />
    <path
       d="m 208.47172,1186.348 h 35.483"
       id="path1930" />
    <path
       d="m 208.69772,1186.442 h 35.031"
       id="path1932" />
    <path
       d="m 208.92272,1186.535 h 34.581"
       id="path1934" />
    <path
       d="m 209.14872,1186.629 h 34.13"
       id="path1936" />
    <path
       d="m 209.37372,1186.722 h 33.679"
       id="path1938" />
    <path
       d="m 209.59972,1186.815 h 33.228"
       id="path1940" />
    <path
       d="m 209.82472,1186.909 h 32.777"
       id="path1942" />
    <path
       d="m 210.05072,1187.002 h 32.326"
       id="path1944" />
    <path
       d="m 210.28672,1187.096 h 31.853"
       id="path1946" />
    <path
       d="m 210.58272,1187.189 h 31.261"
       id="path1948" />
    <path
       d="m 210.87972,1187.282 h 30.668"
       id="path1950" />
    <path
       d="m 211.17572,1187.376 h 30.076"
       id="path1952" />
    <path
       d="m 211.47172,1187.469 h 29.483"
       id="path1954" />
    <path
       d="m 211.76772,1187.563 h 28.891"
       id="path1956" />
    <path
       d="m 212.06372,1187.656 h 28.299"
       id="path1958" />
    <path
       d="m 212.36072,1187.749 h 27.706"
       id="path1960" />
    <path
       d="m 212.65672,1187.843 h 27.113"
       id="path1962" />
    <path
       d="m 212.95272,1187.936 h 26.521"
       id="path1964" />
    <path
       d="m 213.24872,1188.03 h 25.929"
       id="path1966" />
    <path
       d="m 213.54572,1188.123 h 25.336"
       id="path1968" />
    <path
       d="m 213.84172,1188.216 h 24.744"
       id="path1970" />
    <path
       d="m 214.14272,1188.31 h 24.142"
       id="path1972" />
    <path
       d="m 214.56372,1188.403 h 23.299"
       id="path1974" />
    <path
       d="m 214.98472,1188.497 h 22.457"
       id="path1976" />
    <path
       d="m 215.40672,1188.59 h 21.614"
       id="path1978" />
    <path
       d="m 215.82772,1188.683 h 20.772"
       id="path1980" />
    <path
       d="m 216.24872,1188.777 h 19.929"
       id="path1982" />
    <path
       d="m 216.66972,1188.87 h 19.087"
       id="path1984" />
    <path
       d="m 217.09172,1188.964 h 18.244"
       id="path1986" />
    <path
       d="m 217.51272,1189.057 h 17.401"
       id="path1988" />
    <path
       d="m 217.93372,1189.15 h 16.559"
       id="path1990" />
    <path
       d="m 218.52672,1189.244 h 15.373"
       id="path1992" />
    <path
       d="m 219.23672,1189.337 h 13.954"
       id="path1994" />
    <path
       d="m 219.94572,1189.43 h 12.535"
       id="path1996" />
    <path
       d="m 220.65472,1189.524 h 11.117"
       id="path1998" />
    <path
       d="m 221.36472,1189.617 h 9.697"
       id="path2000" />
    <path
       d="m 222.07372,1189.711 h 8.279"
       id="path2002" />
    <path
       d="m 224.07372,1189.804 h 4.279"
       id="path2004" />
    <path
       d="m 272.91272,1143.198 -0.178,4.07 -0.531,4.039 -0.882,3.978 -1.225,3.885 -1.559,3.764 -1.882,3.614 -2.189,3.436 -2.48,3.232 -2.752,3.004 -3.004,2.752"
       id="path2006" />
    <path
       d="m 256.23072,1178.972 -3.232,2.48 -3.436,2.189 -3.613,1.881 -3.764,1.559 -3.886,1.225 -3.977,0.882 -4.039,0.532 -4.07,0.177 -4.07,-0.177 -4.04,-0.532"
       id="path2008" />
    <path
       d="m 218.10372,1189.188 -3.977,-0.882 -3.885,-1.225 -3.764,-1.559 -3.614,-1.881 -3.436,-2.189 -3.232,-2.48 -3.004,-2.752 -2.752,-3.004 -2.48,-3.232 -2.189,-3.436"
       id="path2010" />
    <path
       d="m 185.77072,1166.548 -1.881,-3.614 -1.559,-3.764 -1.225,-3.885 -0.882,-3.978 -0.532,-4.039 -0.178,-4.07 0.178,-4.07 0.532,-4.039 0.882,-3.977 1.225,-3.886"
       id="path2012" />
    <path
       d="m 182.33072,1127.226 1.559,-3.764 1.881,-3.613 2.189,-3.436 2.48,-3.233 2.752,-3.003 3.004,-2.753 3.232,-2.48 3.436,-2.189 3.614,-1.881 3.764,-1.559"
       id="path2014" />
    <path
       d="m 210.24172,1099.315 3.885,-1.225 3.977,-0.882 4.04,-0.531 4.07,-0.178 4.07,0.178 4.039,0.531 3.977,0.882 3.886,1.225 3.764,1.559 3.613,1.881"
       id="path2016" />
    <path
       d="m 249.56272,1102.755 3.436,2.189 3.232,2.48 3.004,2.753 2.752,3.003 2.48,3.233 2.189,3.436 1.882,3.613 1.559,3.764 1.225,3.886 0.881,3.977"
       id="path2018" />
    <path
       d="m 272.20272,1135.089 0.532,4.039 0.178,4.07 -0.178,4.07"
       id="path2020" />
    <path
       d="m 227.14772,1166.548 v 176.523"
       id="path2022" />
  </g>
</svg>
