<?xml version="1.0" encoding="UTF-8" standalone="no"?>
<svg
   width="409.8956"
   height="588.80896"
   viewBox="0 0 409.8956 588.80894"
   version="1.1"
   id="svg32"
   sodipodi:docname="DAYTRI21.hpgl.svg"
   inkscape:version="1.1.2 (0a00cf5339, 2022-02-04)"
   xmlns:inkscape="http://www.inkscape.org/namespaces/inkscape"
   xmlns:sodipodi="http://sodipodi.sourceforge.net/DTD/sodipodi-0.dtd"
   xmlns="http://www.w3.org/2000/svg"
   xmlns:svg="http://www.w3.org/2000/svg">
  <defs
     id="defs36" />
  <sodipodi:namedview
     id="namedview34"
     pagecolor="#ffffff"
     bordercolor="#666666"
     borderopacity="1.0"
     inkscape:pageshadow="2"
     inkscape:pageopacity="0.0"
     inkscape:pagecheckerboard="0"
     showgrid="false"
     inkscape:zoom="1.2682364"
     inkscape:cx="208.16308"
     inkscape:cy="-337.87076"
     inkscape:window-width="1495"
     inkscape:window-height="970"
     inkscape:window-x="0"
     inkscape:window-y="32"
     inkscape:window-maximized="0"
     inkscape:current-layer="svg32" />
  <g
     id="g2"
     transform="translate(13.573734,-621.23925)" />
  <g
     style="fill:none;stroke:#000000;stroke-width:1mm"
     id="g4"
     transform="translate(13.573734,-621.23925)" />
  <g
     style="fill:none;stroke:#000000;stroke-width:4mm"
     id="g30"
     transform="translate(13.573734,-621.23925)">
    <path
       d="M -7.1618759,949.041 H 382.74812 L 188.57312,635.553 -7.1618759,949.041"
       id="path6" />
    <path
       d="m 187.01312,949.821 v 154.404"
       id="path8" />
    <path
       d="m 237.70112,1151.794 -0.192,4.418 -0.578,4.384 -0.957,4.317 -1.329,4.218 -1.693,4.085 -2.041,3.922 -2.376,3.73 -2.692,3.508 -2.988,3.26 -3.26,2.988"
       id="path10" />
    <path
       d="m 219.59512,1190.624 -3.508,2.692 -3.73,2.376 -3.922,2.041 -4.085,1.693 -4.218,1.329 -4.317,0.957 -4.384,0.578 -4.418,0.192 -4.418,-0.192 -4.384,-0.578"
       id="path12" />
    <path
       d="m 178.21112,1201.712 -4.317,-0.957 -4.217,-1.329 -4.086,-1.693 -3.922,-2.041 -3.729,-2.376 -3.509,-2.692 -3.26,-2.988 -2.987,-3.26 -2.692,-3.508 -2.376,-3.73"
       id="path14" />
    <path
       d="m 143.11612,1177.138 -2.042,-3.922 -1.692,-4.085 -1.33,-4.218 -0.957,-4.317 -0.577,-4.384 -0.193,-4.418 0.193,-4.418 0.577,-4.384 0.957,-4.317 1.33,-4.217"
       id="path16" />
    <path
       d="m 139.38212,1134.458 1.692,-4.086 2.042,-3.922 2.376,-3.729 2.692,-3.509 2.987,-3.26 3.26,-2.987 3.509,-2.692 3.729,-2.376 3.922,-2.042 4.086,-1.692"
       id="path18" />
    <path
       d="m 169.67712,1104.163 4.217,-1.33 4.317,-0.957 4.384,-0.577 4.418,-0.193 4.418,0.193 4.384,0.577 4.317,0.957 4.218,1.33 4.085,1.692 3.922,2.042"
       id="path20" />
    <path
       d="m 212.35712,1107.897 3.73,2.376 3.508,2.692 3.26,2.987 2.988,3.26 2.692,3.509 2.376,3.729 2.041,3.922 1.693,4.086 1.329,4.217 0.957,4.317"
       id="path22" />
    <path
       d="m 236.93112,1142.992 0.578,4.384 0.192,4.418 -0.192,4.418"
       id="path24" />
    <path
       d="M 71.600124,1150.235 H 137.10512"
       id="path26" />
    <path
       d="m 237.70112,1150.235 h 66.285"
       id="path28" />
  </g>
</svg>
