<?xml version="1.0" encoding="UTF-8" standalone="no"?>
<svg
   width="491.64059"
   height="581.24274"
   viewBox="0 0 491.6406 581.24272"
   version="1.1"
   id="svg2026"
   sodipodi:docname="DAYTRI01.hpgl.svg"
   inkscape:version="1.1.2 (0a00cf5339, 2022-02-04)"
   xmlns:inkscape="http://www.inkscape.org/namespaces/inkscape"
   xmlns:sodipodi="http://sodipodi.sourceforge.net/DTD/sodipodi-0.dtd"
   xmlns="http://www.w3.org/2000/svg"
   xmlns:svg="http://www.w3.org/2000/svg">
  <defs
     id="defs2030" />
  <sodipodi:namedview
     id="namedview2028"
     pagecolor="#ffffff"
     bordercolor="#666666"
     borderopacity="1.0"
     inkscape:pageshadow="2"
     inkscape:pageopacity="0.0"
     inkscape:pagecheckerboard="0"
     showgrid="false"
     inkscape:zoom="1.2682364"
     inkscape:cx="249.1649"
     inkscape:cy="-366.25663"
     inkscape:window-width="1495"
     inkscape:window-height="970"
     inkscape:window-x="0"
     inkscape:window-y="32"
     inkscape:window-maximized="0"
     inkscape:current-layer="svg2026" />
  <g
     id="g2"
     transform="translate(13.573736,-649.77625)" />
  <g
     style="fill:none;stroke:#000000;stroke-width:1mm"
     id="g4"
     transform="translate(13.573736,-649.77625)" />
  <g
     style="fill:none;stroke:#000000;stroke-width:4mm"
     id="g2024"
     transform="translate(13.573736,-649.77625)">
    <path
       d="M -7.1618778,1043.301 H 464.49312 L 229.60912,664.09 -7.1618778,1043.301"
       id="path6" />
    <path
       d="m 227.72212,1044.244 v 186.775"
       id="path8" />
    <path
       d="m 225.56212,996.229 h 4.321"
       id="path10" />
    <path
       d="m 223.54212,996.324 h 8.361"
       id="path12" />
    <path
       d="m 222.82512,996.418 h 9.794"
       id="path14" />
    <path
       d="m 222.10912,996.512 h 11.227"
       id="path16" />
    <path
       d="m 221.39212,996.607 h 12.66"
       id="path18" />
    <path
       d="m 220.67612,996.701 h 14.093"
       id="path20" />
    <path
       d="m 219.95912,996.795 h 15.526"
       id="path22" />
    <path
       d="m 219.36012,996.89 h 16.724"
       id="path24" />
    <path
       d="m 218.93512,996.984 h 17.575"
       id="path26" />
    <path
       d="m 218.50912,997.078 h 18.426"
       id="path28" />
    <path
       d="m 218.08412,997.173 h 19.277"
       id="path30" />
    <path
       d="m 217.65812,997.267 h 20.128"
       id="path32" />
    <path
       d="m 217.23312,997.361 h 20.979"
       id="path34" />
    <path
       d="m 216.80712,997.456 h 21.83"
       id="path36" />
    <path
       d="m 216.38212,997.55 h 22.681"
       id="path38" />
    <path
       d="m 215.95612,997.644 h 23.532"
       id="path40" />
    <path
       d="m 215.53112,997.739 h 24.383"
       id="path42" />
    <path
       d="m 215.22712,997.833 h 24.991"
       id="path44" />
    <path
       d="m 214.92812,997.927 h 25.589"
       id="path46" />
    <path
       d="m 214.62812,998.022 h 26.188"
       id="path48" />
    <path
       d="m 214.32912,998.116 h 26.786"
       id="path50" />
    <path
       d="m 214.03012,998.21 h 27.384"
       id="path52" />
    <path
       d="m 213.73112,998.305 h 27.983"
       id="path54" />
    <path
       d="m 213.43212,998.399 h 28.581"
       id="path56" />
    <path
       d="m 213.13312,998.493 h 29.179"
       id="path58" />
    <path
       d="m 212.83312,998.588 h 29.778"
       id="path60" />
    <path
       d="m 212.53412,998.682 h 30.376"
       id="path62" />
    <path
       d="m 212.23512,998.776 h 30.974"
       id="path64" />
    <path
       d="m 211.93612,998.871 h 31.573"
       id="path66" />
    <path
       d="m 211.63712,998.965 h 32.171"
       id="path68" />
    <path
       d="m 211.39812,999.059 h 32.649"
       id="path70" />
    <path
       d="m 211.17012,999.154 h 33.104"
       id="path72" />
    <path
       d="m 210.94312,999.248 h 33.559"
       id="path74" />
    <path
       d="m 210.71512,999.342 h 34.015"
       id="path76" />
    <path
       d="m 210.48712,999.437 h 34.47"
       id="path78" />
    <path
       d="m 210.25912,999.531 h 34.926"
       id="path80" />
    <path
       d="m 210.03212,999.625 h 35.381"
       id="path82" />
    <path
       d="m 209.80412,999.72 h 35.837"
       id="path84" />
    <path
       d="m 209.57612,999.814 h 36.292"
       id="path86" />
    <path
       d="m 209.34812,999.908 h 36.748"
       id="path88" />
    <path
       d="m 209.12112,1000.003 h 37.203"
       id="path90" />
    <path
       d="m 208.89312,1000.097 h 37.659"
       id="path92" />
    <path
       d="m 208.66512,1000.191 h 38.114"
       id="path94" />
    <path
       d="m 208.43712,1000.286 h 38.57"
       id="path96" />
    <path
       d="m 208.21012,1000.38 h 39.025"
       id="path98" />
    <path
       d="m 207.98212,1000.474 h 39.481"
       id="path100" />
    <path
       d="m 207.76112,1000.569 h 39.922"
       id="path102" />
    <path
       d="m 207.58012,1000.663 h 40.284"
       id="path104" />
    <path
       d="m 207.39912,1000.757 h 40.647"
       id="path106" />
    <path
       d="m 207.21812,1000.852 h 41.009"
       id="path108" />
    <path
       d="m 207.03712,1000.946 h 41.371"
       id="path110" />
    <path
       d="m 206.85512,1001.04 h 41.734"
       id="path112" />
    <path
       d="m 206.67412,1001.135 h 42.096"
       id="path114" />
    <path
       d="m 206.49312,1001.229 h 42.459"
       id="path116" />
    <path
       d="m 206.31212,1001.323 h 42.821"
       id="path118" />
    <path
       d="m 206.13112,1001.418 h 43.183"
       id="path120" />
    <path
       d="m 205.94912,1001.512 h 43.546"
       id="path122" />
    <path
       d="m 205.76812,1001.606 h 43.908"
       id="path124" />
    <path
       d="m 205.58712,1001.701 h 44.271"
       id="path126" />
    <path
       d="m 205.40612,1001.795 h 44.633"
       id="path128" />
    <path
       d="m 205.22412,1001.889 h 44.996"
       id="path130" />
    <path
       d="m 205.04312,1001.984 h 45.358"
       id="path132" />
    <path
       d="m 204.86212,1002.078 h 45.72"
       id="path134" />
    <path
       d="m 204.68112,1002.172 h 46.083"
       id="path136" />
    <path
       d="m 204.50012,1002.267 h 46.445"
       id="path138" />
    <path
       d="m 204.31812,1002.361 h 46.808"
       id="path140" />
    <path
       d="m 204.13812,1002.455 h 47.169"
       id="path142" />
    <path
       d="m 203.99012,1002.55 h 47.465"
       id="path144" />
    <path
       d="m 203.84112,1002.644 h 47.762"
       id="path146" />
    <path
       d="m 203.69312,1002.738 h 48.058"
       id="path148" />
    <path
       d="m 203.54512,1002.833 h 48.354"
       id="path150" />
    <path
       d="m 203.39712,1002.927 h 48.65"
       id="path152" />
    <path
       d="m 203.24912,1003.021 h 48.946"
       id="path154" />
    <path
       d="m 203.10112,1003.116 h 49.242"
       id="path156" />
    <path
       d="m 202.95312,1003.21 h 49.538"
       id="path158" />
    <path
       d="m 202.80512,1003.304 h 49.835"
       id="path160" />
    <path
       d="m 202.65712,1003.399 h 50.131"
       id="path162" />
    <path
       d="m 202.50912,1003.493 h 50.427"
       id="path164" />
    <path
       d="m 202.36112,1003.587 h 50.723"
       id="path166" />
    <path
       d="m 202.21312,1003.682 h 51.019"
       id="path168" />
    <path
       d="m 202.06512,1003.776 h 51.315"
       id="path170" />
    <path
       d="m 201.91712,1003.87 h 51.611"
       id="path172" />
    <path
       d="m 201.76912,1003.965 h 51.907"
       id="path174" />
    <path
       d="m 201.62012,1004.059 h 52.204"
       id="path176" />
    <path
       d="m 201.47212,1004.153 h 52.5"
       id="path178" />
    <path
       d="m 201.32412,1004.248 h 52.796"
       id="path180" />
    <path
       d="m 201.17612,1004.342 h 53.092"
       id="path182" />
    <path
       d="m 201.02812,1004.436 h 53.388"
       id="path184" />
    <path
       d="m 200.88012,1004.531 h 53.684"
       id="path186" />
    <path
       d="m 200.73212,1004.625 h 53.981"
       id="path188" />
    <path
       d="m 200.59812,1004.719 h 54.248"
       id="path190" />
    <path
       d="m 200.47512,1004.814 h 54.494"
       id="path192" />
    <path
       d="m 200.35312,1004.908 h 54.739"
       id="path194" />
    <path
       d="m 200.23012,1005.002 h 54.985"
       id="path196" />
    <path
       d="m 200.10712,1005.097 h 55.231"
       id="path198" />
    <path
       d="m 199.98412,1005.191 h 55.477"
       id="path200" />
    <path
       d="m 199.86112,1005.285 h 55.723"
       id="path202" />
    <path
       d="m 199.73812,1005.38 h 55.969"
       id="path204" />
    <path
       d="m 199.61512,1005.474 h 56.215"
       id="path206" />
    <path
       d="m 199.49212,1005.568 h 56.461"
       id="path208" />
    <path
       d="m 199.36912,1005.663 h 56.706"
       id="path210" />
    <path
       d="m 199.24612,1005.757 h 56.952"
       id="path212" />
    <path
       d="m 199.12312,1005.851 h 57.198"
       id="path214" />
    <path
       d="m 199.00012,1005.946 h 57.444"
       id="path216" />
    <path
       d="m 198.87712,1006.04 h 57.69"
       id="path218" />
    <path
       d="m 198.75412,1006.134 h 57.936"
       id="path220" />
    <path
       d="m 198.63112,1006.229 h 58.182"
       id="path222" />
    <path
       d="m 198.50812,1006.323 h 58.428"
       id="path224" />
    <path
       d="m 198.38612,1006.417 h 58.673"
       id="path226" />
    <path
       d="m 198.26312,1006.512 h 58.919"
       id="path228" />
    <path
       d="m 198.14012,1006.606 h 59.165"
       id="path230" />
    <path
       d="m 198.01712,1006.7 h 59.411"
       id="path232" />
    <path
       d="m 197.89412,1006.795 h 59.657"
       id="path234" />
    <path
       d="m 197.77112,1006.889 h 59.903"
       id="path236" />
    <path
       d="m 197.64812,1006.983 h 60.149"
       id="path238" />
    <path
       d="m 197.52512,1007.078 h 60.394"
       id="path240" />
    <path
       d="m 197.40312,1007.172 h 60.639"
       id="path242" />
    <path
       d="m 197.30012,1007.266 h 60.845"
       id="path244" />
    <path
       d="m 197.19712,1007.361 h 61.051"
       id="path246" />
    <path
       d="m 197.09412,1007.455 h 61.257"
       id="path248" />
    <path
       d="m 196.99112,1007.549 h 61.463"
       id="path250" />
    <path
       d="m 196.88812,1007.644 h 61.669"
       id="path252" />
    <path
       d="m 196.78512,1007.738 h 61.875"
       id="path254" />
    <path
       d="m 196.68212,1007.832 h 62.081"
       id="path256" />
    <path
       d="m 196.57912,1007.927 h 62.287"
       id="path258" />
    <path
       d="m 196.47612,1008.021 h 62.492"
       id="path260" />
    <path
       d="m 196.37312,1008.115 h 62.698"
       id="path262" />
    <path
       d="m 196.27012,1008.209 h 62.904"
       id="path264" />
    <path
       d="m 196.16712,1008.304 h 63.11"
       id="path266" />
    <path
       d="m 196.06412,1008.398 h 63.316"
       id="path268" />
    <path
       d="m 195.96112,1008.492 h 63.522"
       id="path270" />
    <path
       d="m 195.85812,1008.587 h 63.728"
       id="path272" />
    <path
       d="m 195.75512,1008.681 h 63.934"
       id="path274" />
    <path
       d="m 195.65212,1008.775 h 64.14"
       id="path276" />
    <path
       d="m 195.55012,1008.87 h 64.345"
       id="path278" />
    <path
       d="m 195.44712,1008.964 h 64.551"
       id="path280" />
    <path
       d="m 195.34412,1009.058 h 64.757"
       id="path282" />
    <path
       d="m 195.24112,1009.153 h 64.963"
       id="path284" />
    <path
       d="m 195.13812,1009.247 h 65.169"
       id="path286" />
    <path
       d="m 195.03512,1009.341 h 65.375"
       id="path288" />
    <path
       d="m 194.93212,1009.436 h 65.581"
       id="path290" />
    <path
       d="m 194.82912,1009.53 h 65.787"
       id="path292" />
    <path
       d="m 194.72612,1009.624 h 65.993"
       id="path294" />
    <path
       d="m 194.62312,1009.719 h 66.198"
       id="path296" />
    <path
       d="m 194.52012,1009.813 h 66.404"
       id="path298" />
    <path
       d="m 194.41712,1009.907 h 66.61"
       id="path300" />
    <path
       d="m 194.32312,1010.002 h 66.798"
       id="path302" />
    <path
       d="m 194.23712,1010.096 h 66.971"
       id="path304" />
    <path
       d="m 194.15012,1010.19 h 67.144"
       id="path306" />
    <path
       d="m 194.06412,1010.285 h 67.316"
       id="path308" />
    <path
       d="m 193.97812,1010.379 h 67.489"
       id="path310" />
    <path
       d="m 193.89112,1010.473 h 67.662"
       id="path312" />
    <path
       d="m 193.80512,1010.568 h 67.835"
       id="path314" />
    <path
       d="m 193.71812,1010.662 h 68.008"
       id="path316" />
    <path
       d="m 193.63212,1010.756 h 68.181"
       id="path318" />
    <path
       d="m 193.54512,1010.851 h 68.354"
       id="path320" />
    <path
       d="m 193.45912,1010.945 h 68.527"
       id="path322" />
    <path
       d="m 193.37312,1011.039 h 68.699"
       id="path324" />
    <path
       d="m 193.28612,1011.134 h 68.872"
       id="path326" />
    <path
       d="m 193.20012,1011.228 h 69.045"
       id="path328" />
    <path
       d="m 193.11312,1011.322 h 69.218"
       id="path330" />
    <path
       d="m 193.02712,1011.417 h 69.391"
       id="path332" />
    <path
       d="m 192.94012,1011.511 h 69.564"
       id="path334" />
    <path
       d="m 192.85412,1011.605 h 69.737"
       id="path336" />
    <path
       d="m 192.76712,1011.7 h 69.91"
       id="path338" />
    <path
       d="m 192.68112,1011.794 h 70.082"
       id="path340" />
    <path
       d="m 192.59512,1011.888 h 70.255"
       id="path342" />
    <path
       d="m 192.50812,1011.983 h 70.428"
       id="path344" />
    <path
       d="m 192.42212,1012.077 h 70.601"
       id="path346" />
    <path
       d="m 192.33512,1012.171 h 70.774"
       id="path348" />
    <path
       d="m 192.24912,1012.266 h 70.947"
       id="path350" />
    <path
       d="m 192.16212,1012.36 h 71.12"
       id="path352" />
    <path
       d="m 192.07612,1012.454 h 71.293"
       id="path354" />
    <path
       d="m 191.98912,1012.549 h 71.466"
       id="path356" />
    <path
       d="m 191.90312,1012.643 h 71.638"
       id="path358" />
    <path
       d="m 191.81712,1012.737 h 71.811"
       id="path360" />
    <path
       d="m 191.73012,1012.832 h 71.984"
       id="path362" />
    <path
       d="m 191.64412,1012.926 h 72.157"
       id="path364" />
    <path
       d="m 191.56312,1013.02 h 72.319"
       id="path366" />
    <path
       d="m 191.49012,1013.115 h 72.464"
       id="path368" />
    <path
       d="m 191.41812,1013.209 h 72.608"
       id="path370" />
    <path
       d="m 191.34612,1013.303 h 72.753"
       id="path372" />
    <path
       d="m 191.27312,1013.398 h 72.898"
       id="path374" />
    <path
       d="m 191.20112,1013.492 h 73.043"
       id="path376" />
    <path
       d="m 191.12912,1013.586 h 73.187"
       id="path378" />
    <path
       d="m 191.05612,1013.681 h 73.332"
       id="path380" />
    <path
       d="m 190.98412,1013.775 h 73.477"
       id="path382" />
    <path
       d="m 190.91112,1013.869 h 73.622"
       id="path384" />
    <path
       d="m 190.83912,1013.964 h 73.766"
       id="path386" />
    <path
       d="m 190.76712,1014.058 h 73.911"
       id="path388" />
    <path
       d="m 190.69412,1014.152 h 74.056"
       id="path390" />
    <path
       d="m 190.62212,1014.247 h 74.201"
       id="path392" />
    <path
       d="m 190.55012,1014.341 h 74.345"
       id="path394" />
    <path
       d="m 190.47712,1014.435 h 74.49"
       id="path396" />
    <path
       d="m 190.40512,1014.53 h 74.635"
       id="path398" />
    <path
       d="m 190.33212,1014.624 h 74.78"
       id="path400" />
    <path
       d="m 190.26012,1014.718 h 74.924"
       id="path402" />
    <path
       d="m 190.18812,1014.813 h 75.069"
       id="path404" />
    <path
       d="m 190.11512,1014.907 h 75.214"
       id="path406" />
    <path
       d="m 190.04312,1015.001 h 75.359"
       id="path408" />
    <path
       d="m 189.97012,1015.096 h 75.504"
       id="path410" />
    <path
       d="m 189.89812,1015.19 h 75.648"
       id="path412" />
    <path
       d="m 189.82612,1015.284 h 75.793"
       id="path414" />
    <path
       d="m 189.75312,1015.379 h 75.938"
       id="path416" />
    <path
       d="m 189.68112,1015.473 h 76.083"
       id="path418" />
    <path
       d="m 189.60912,1015.567 h 76.227"
       id="path420" />
    <path
       d="m 189.53612,1015.662 h 76.372"
       id="path422" />
    <path
       d="m 189.46412,1015.756 h 76.517"
       id="path424" />
    <path
       d="m 189.39112,1015.85 h 76.662"
       id="path426" />
    <path
       d="m 189.31912,1015.945 h 76.806"
       id="path428" />
    <path
       d="m 189.24712,1016.039 h 76.951"
       id="path430" />
    <path
       d="m 189.17412,1016.133 h 77.096"
       id="path432" />
    <path
       d="m 189.10212,1016.228 h 77.241"
       id="path434" />
    <path
       d="m 189.03912,1016.322 h 77.366"
       id="path436" />
    <path
       d="m 188.97912,1016.416 h 77.486"
       id="path438" />
    <path
       d="m 188.91912,1016.511 h 77.606"
       id="path440" />
    <path
       d="m 188.85912,1016.605 h 77.727"
       id="path442" />
    <path
       d="m 188.79912,1016.699 h 77.847"
       id="path444" />
    <path
       d="m 188.73912,1016.794 h 77.967"
       id="path446" />
    <path
       d="m 188.67912,1016.888 h 78.087"
       id="path448" />
    <path
       d="m 188.61912,1016.982 h 78.207"
       id="path450" />
    <path
       d="m 188.55812,1017.077 h 78.328"
       id="path452" />
    <path
       d="m 188.49812,1017.171 h 78.448"
       id="path454" />
    <path
       d="m 188.43812,1017.265 h 78.568"
       id="path456" />
    <path
       d="m 188.37812,1017.36 h 78.688"
       id="path458" />
    <path
       d="m 188.31812,1017.454 h 78.808"
       id="path460" />
    <path
       d="m 188.25812,1017.548 h 78.929"
       id="path462" />
    <path
       d="m 188.19812,1017.643 h 79.049"
       id="path464" />
    <path
       d="m 188.13812,1017.737 h 79.169"
       id="path466" />
    <path
       d="m 188.07812,1017.831 h 79.289"
       id="path468" />
    <path
       d="m 188.01812,1017.926 h 79.409"
       id="path470" />
    <path
       d="m 187.95712,1018.02 h 79.53"
       id="path472" />
    <path
       d="m 187.89712,1018.114 h 79.65"
       id="path474" />
    <path
       d="m 187.83712,1018.209 h 79.77"
       id="path476" />
    <path
       d="m 187.77712,1018.303 h 79.89"
       id="path478" />
    <path
       d="m 187.71712,1018.397 h 80.01"
       id="path480" />
    <path
       d="m 187.65712,1018.492 h 80.131"
       id="path482" />
    <path
       d="m 187.59712,1018.586 h 80.251"
       id="path484" />
    <path
       d="m 187.53712,1018.68 h 80.371"
       id="path486" />
    <path
       d="m 187.47712,1018.775 h 80.491"
       id="path488" />
    <path
       d="m 187.41712,1018.869 h 80.611"
       id="path490" />
    <path
       d="m 187.35612,1018.963 h 80.732"
       id="path492" />
    <path
       d="m 187.29612,1019.058 h 80.852"
       id="path494" />
    <path
       d="m 187.23612,1019.152 h 80.972"
       id="path496" />
    <path
       d="m 187.17612,1019.246 h 81.092"
       id="path498" />
    <path
       d="m 187.11612,1019.341 h 81.212"
       id="path500" />
    <path
       d="m 187.05612,1019.435 h 81.332"
       id="path502" />
    <path
       d="m 186.99612,1019.529 h 81.453"
       id="path504" />
    <path
       d="m 186.93612,1019.624 h 81.573"
       id="path506" />
    <path
       d="m 186.87612,1019.718 h 81.693"
       id="path508" />
    <path
       d="m 186.82712,1019.812 h 81.791"
       id="path510" />
    <path
       d="m 186.77812,1019.907 h 81.889"
       id="path512" />
    <path
       d="m 186.72812,1020.001 h 81.988"
       id="path514" />
    <path
       d="m 186.67912,1020.095 h 82.086"
       id="path516" />
    <path
       d="m 186.63012,1020.19 h 82.184"
       id="path518" />
    <path
       d="m 186.58112,1020.284 h 82.282"
       id="path520" />
    <path
       d="m 186.53212,1020.378 h 82.38"
       id="path522" />
    <path
       d="m 186.48312,1020.473 h 82.479"
       id="path524" />
    <path
       d="m 186.43412,1020.567 h 82.577"
       id="path526" />
    <path
       d="m 186.38512,1020.661 h 82.675"
       id="path528" />
    <path
       d="m 186.33612,1020.756 h 82.773"
       id="path530" />
    <path
       d="m 186.28612,1020.85 h 82.872"
       id="path532" />
    <path
       d="m 186.23712,1020.944 h 82.97"
       id="path534" />
    <path
       d="m 186.18812,1021.039 h 83.068"
       id="path536" />
    <path
       d="m 186.13912,1021.133 h 83.166"
       id="path538" />
    <path
       d="m 186.09012,1021.227 h 83.264"
       id="path540" />
    <path
       d="m 186.04112,1021.322 h 83.363"
       id="path542" />
    <path
       d="m 185.99212,1021.416 h 83.461"
       id="path544" />
    <path
       d="m 185.94312,1021.51 h 83.559"
       id="path546" />
    <path
       d="m 185.89412,1021.604 h 83.657"
       id="path548" />
    <path
       d="m 185.84512,1021.699 h 83.755"
       id="path550" />
    <path
       d="m 185.79512,1021.793 h 83.854"
       id="path552" />
    <path
       d="m 185.74612,1021.887 h 83.952"
       id="path554" />
    <path
       d="m 185.69712,1021.982 h 84.05"
       id="path556" />
    <path
       d="m 185.64812,1022.076 h 84.148"
       id="path558" />
    <path
       d="m 185.59912,1022.17 h 84.246"
       id="path560" />
    <path
       d="m 185.55012,1022.265 h 84.345"
       id="path562" />
    <path
       d="m 185.50112,1022.359 h 84.443"
       id="path564" />
    <path
       d="m 185.45212,1022.453 h 84.541"
       id="path566" />
    <path
       d="m 185.40312,1022.548 h 84.639"
       id="path568" />
    <path
       d="m 185.35312,1022.642 h 84.738"
       id="path570" />
    <path
       d="m 185.30412,1022.736 h 84.836"
       id="path572" />
    <path
       d="m 185.25512,1022.831 h 84.934"
       id="path574" />
    <path
       d="m 185.20612,1022.925 h 85.032"
       id="path576" />
    <path
       d="m 185.15712,1023.019 h 85.13"
       id="path578" />
    <path
       d="m 185.10812,1023.114 h 85.229"
       id="path580" />
    <path
       d="m 185.05912,1023.208 h 85.327"
       id="path582" />
    <path
       d="m 185.01012,1023.302 h 85.425"
       id="path584" />
    <path
       d="m 184.96412,1023.397 h 85.517"
       id="path586" />
    <path
       d="m 184.92512,1023.491 h 85.595"
       id="path588" />
    <path
       d="m 184.88612,1023.585 h 85.673"
       id="path590" />
    <path
       d="m 184.84712,1023.68 h 85.751"
       id="path592" />
    <path
       d="m 184.80712,1023.774 h 85.83"
       id="path594" />
    <path
       d="m 184.76812,1023.868 h 85.908"
       id="path596" />
    <path
       d="m 184.72912,1023.963 h 85.986"
       id="path598" />
    <path
       d="m 184.69012,1024.057 h 86.064"
       id="path600" />
    <path
       d="m 184.65112,1024.151 h 86.142"
       id="path602" />
    <path
       d="m 184.61212,1024.246 h 86.22"
       id="path604" />
    <path
       d="m 184.57312,1024.34 h 86.298"
       id="path606" />
    <path
       d="m 184.53412,1024.434 h 86.377"
       id="path608" />
    <path
       d="m 184.49512,1024.529 h 86.455"
       id="path610" />
    <path
       d="m 184.45612,1024.623 h 86.533"
       id="path612" />
    <path
       d="m 184.41712,1024.717 h 86.611"
       id="path614" />
    <path
       d="m 184.37812,1024.812 h 86.689"
       id="path616" />
    <path
       d="m 184.33912,1024.906 h 86.767"
       id="path618" />
    <path
       d="m 184.29912,1025 h 86.846"
       id="path620" />
    <path
       d="m 184.26012,1025.095 h 86.924"
       id="path622" />
    <path
       d="m 184.22112,1025.189 h 87.002"
       id="path624" />
    <path
       d="m 184.18212,1025.283 h 87.08"
       id="path626" />
    <path
       d="m 184.14312,1025.378 h 87.158"
       id="path628" />
    <path
       d="m 184.10412,1025.472 h 87.236"
       id="path630" />
    <path
       d="m 184.06512,1025.566 h 87.314"
       id="path632" />
    <path
       d="m 184.02612,1025.661 h 87.392"
       id="path634" />
    <path
       d="m 183.98712,1025.755 h 87.471"
       id="path636" />
    <path
       d="m 183.94812,1025.849 h 87.549"
       id="path638" />
    <path
       d="m 183.90912,1025.944 h 87.627"
       id="path640" />
    <path
       d="m 183.87012,1026.038 h 87.705"
       id="path642" />
    <path
       d="m 183.83112,1026.132 h 87.783"
       id="path644" />
    <path
       d="m 183.79212,1026.227 h 87.861"
       id="path646" />
    <path
       d="m 183.75212,1026.321 h 87.94"
       id="path648" />
    <path
       d="m 183.71312,1026.415 h 88.018"
       id="path650" />
    <path
       d="m 183.67412,1026.51 h 88.096"
       id="path652" />
    <path
       d="m 183.63512,1026.604 h 88.174"
       id="path654" />
    <path
       d="m 183.59612,1026.698 h 88.252"
       id="path656" />
    <path
       d="m 183.55712,1026.793 h 88.33"
       id="path658" />
    <path
       d="m 183.51812,1026.887 h 88.408"
       id="path660" />
    <path
       d="m 183.47912,1026.981 h 88.487"
       id="path662" />
    <path
       d="m 183.44012,1027.076 h 88.565"
       id="path664" />
    <path
       d="m 183.40112,1027.17 h 88.643"
       id="path666" />
    <path
       d="m 183.37112,1027.264 h 88.702"
       id="path668" />
    <path
       d="m 183.34112,1027.359 h 88.762"
       id="path670" />
    <path
       d="m 183.31212,1027.453 h 88.821"
       id="path672" />
    <path
       d="m 183.28212,1027.547 h 88.881"
       id="path674" />
    <path
       d="m 183.25212,1027.642 h 88.94"
       id="path676" />
    <path
       d="m 183.22212,1027.736 h 89"
       id="path678" />
    <path
       d="m 183.19312,1027.83 h 89.059"
       id="path680" />
    <path
       d="m 183.16312,1027.925 h 89.119"
       id="path682" />
    <path
       d="m 183.13312,1028.019 h 89.178"
       id="path684" />
    <path
       d="m 183.10312,1028.113 h 89.238"
       id="path686" />
    <path
       d="m 183.07412,1028.208 h 89.297"
       id="path688" />
    <path
       d="m 183.04412,1028.302 h 89.356"
       id="path690" />
    <path
       d="m 183.01412,1028.396 h 89.416"
       id="path692" />
    <path
       d="m 182.98512,1028.491 h 89.475"
       id="path694" />
    <path
       d="m 182.95512,1028.585 h 89.535"
       id="path696" />
    <path
       d="m 182.92512,1028.679 h 89.594"
       id="path698" />
    <path
       d="m 182.89512,1028.774 h 89.654"
       id="path700" />
    <path
       d="m 182.86612,1028.868 h 89.713"
       id="path702" />
    <path
       d="m 182.83612,1028.962 h 89.773"
       id="path704" />
    <path
       d="m 182.80612,1029.057 h 89.832"
       id="path706" />
    <path
       d="m 182.77612,1029.151 h 89.892"
       id="path708" />
    <path
       d="m 182.74712,1029.245 h 89.951"
       id="path710" />
    <path
       d="m 182.71712,1029.34 h 90.011"
       id="path712" />
    <path
       d="m 182.68712,1029.434 h 90.07"
       id="path714" />
    <path
       d="m 182.65712,1029.528 h 90.13"
       id="path716" />
    <path
       d="m 182.62812,1029.623 h 90.189"
       id="path718" />
    <path
       d="m 182.59812,1029.717 h 90.249"
       id="path720" />
    <path
       d="m 182.56812,1029.811 h 90.308"
       id="path722" />
    <path
       d="m 182.53812,1029.906 h 90.368"
       id="path724" />
    <path
       d="m 182.50912,1030 h 90.427"
       id="path726" />
    <path
       d="m 182.47912,1030.094 h 90.487"
       id="path728" />
    <path
       d="m 182.44912,1030.189 h 90.546"
       id="path730" />
    <path
       d="m 182.41912,1030.283 h 90.606"
       id="path732" />
    <path
       d="m 182.39012,1030.377 h 90.665"
       id="path734" />
    <path
       d="m 182.36012,1030.472 h 90.725"
       id="path736" />
    <path
       d="m 182.33012,1030.566 h 90.784"
       id="path738" />
    <path
       d="m 182.30012,1030.66 h 90.844"
       id="path740" />
    <path
       d="m 182.27112,1030.755 h 90.903"
       id="path742" />
    <path
       d="m 182.24112,1030.849 h 90.963"
       id="path744" />
    <path
       d="m 182.21112,1030.943 h 91.022"
       id="path746" />
    <path
       d="m 182.18112,1031.038 h 91.082"
       id="path748" />
    <path
       d="m 182.15512,1031.132 h 91.134"
       id="path750" />
    <path
       d="m 182.13412,1031.226 h 91.176"
       id="path752" />
    <path
       d="m 182.11412,1031.321 h 91.217"
       id="path754" />
    <path
       d="m 182.09312,1031.415 h 91.259"
       id="path756" />
    <path
       d="m 182.07212,1031.509 h 91.301"
       id="path758" />
    <path
       d="m 182.05112,1031.604 h 91.343"
       id="path760" />
    <path
       d="m 182.03012,1031.698 h 91.385"
       id="path762" />
    <path
       d="m 182.00912,1031.792 h 91.427"
       id="path764" />
    <path
       d="m 181.98812,1031.887 h 91.468"
       id="path766" />
    <path
       d="m 181.96712,1031.981 h 91.51"
       id="path768" />
    <path
       d="m 181.94612,1032.075 h 91.552"
       id="path770" />
    <path
       d="m 181.92512,1032.17 h 91.594"
       id="path772" />
    <path
       d="m 181.90412,1032.264 h 91.636"
       id="path774" />
    <path
       d="m 181.88312,1032.358 h 91.678"
       id="path776" />
    <path
       d="m 181.86312,1032.453 h 91.719"
       id="path778" />
    <path
       d="m 181.84212,1032.547 h 91.761"
       id="path780" />
    <path
       d="m 181.82112,1032.641 h 91.803"
       id="path782" />
    <path
       d="m 181.80012,1032.736 h 91.845"
       id="path784" />
    <path
       d="m 181.77912,1032.83 h 91.887"
       id="path786" />
    <path
       d="m 181.75812,1032.924 h 91.928"
       id="path788" />
    <path
       d="m 181.73712,1033.019 h 91.97"
       id="path790" />
    <path
       d="m 181.71612,1033.113 h 92.012"
       id="path792" />
    <path
       d="m 181.69512,1033.207 h 92.054"
       id="path794" />
    <path
       d="m 181.67412,1033.302 h 92.096"
       id="path796" />
    <path
       d="m 181.65312,1033.396 h 92.138"
       id="path798" />
    <path
       d="m 181.63212,1033.49 h 92.18"
       id="path800" />
    <path
       d="m 181.61212,1033.585 h 92.221"
       id="path802" />
    <path
       d="m 181.59112,1033.679 h 92.263"
       id="path804" />
    <path
       d="m 181.57012,1033.773 h 92.305"
       id="path806" />
    <path
       d="m 181.54912,1033.868 h 92.347"
       id="path808" />
    <path
       d="m 181.52812,1033.962 h 92.388"
       id="path810" />
    <path
       d="m 181.50712,1034.056 h 92.43"
       id="path812" />
    <path
       d="m 181.48612,1034.151 h 92.472"
       id="path814" />
    <path
       d="m 181.46512,1034.245 h 92.514"
       id="path816" />
    <path
       d="m 181.44412,1034.339 h 92.556"
       id="path818" />
    <path
       d="m 181.42312,1034.434 h 92.598"
       id="path820" />
    <path
       d="m 181.40212,1034.528 h 92.64"
       id="path822" />
    <path
       d="m 181.38212,1034.622 h 92.681"
       id="path824" />
    <path
       d="m 181.36112,1034.716 h 92.723"
       id="path826" />
    <path
       d="m 181.34012,1034.811 h 92.765"
       id="path828" />
    <path
       d="m 181.31912,1034.905 h 92.807"
       id="path830" />
    <path
       d="m 181.29812,1035 h 92.849"
       id="path832" />
    <path
       d="m 181.27712,1035.094 h 92.89"
       id="path834" />
    <path
       d="m 181.26312,1035.188 h 92.918"
       id="path836" />
    <path
       d="m 181.25112,1035.282 h 92.943"
       id="path838" />
    <path
       d="m 181.23812,1035.377 h 92.968"
       id="path840" />
    <path
       d="m 181.22612,1035.471 h 92.993"
       id="path842" />
    <path
       d="m 181.21312,1035.565 h 93.018"
       id="path844" />
    <path
       d="m 181.20112,1035.66 h 93.042"
       id="path846" />
    <path
       d="m 181.18912,1035.754 h 93.067"
       id="path848" />
    <path
       d="m 181.17612,1035.848 h 93.092"
       id="path850" />
    <path
       d="m 181.16412,1035.943 h 93.117"
       id="path852" />
    <path
       d="m 181.15112,1036.037 h 93.142"
       id="path854" />
    <path
       d="m 181.13912,1036.131 h 93.167"
       id="path856" />
    <path
       d="m 181.12612,1036.226 h 93.192"
       id="path858" />
    <path
       d="m 181.11412,1036.32 h 93.216"
       id="path860" />
    <path
       d="m 181.10212,1036.414 h 93.241"
       id="path862" />
    <path
       d="m 181.08912,1036.509 h 93.266"
       id="path864" />
    <path
       d="m 181.07712,1036.603 h 93.291"
       id="path866" />
    <path
       d="m 181.06412,1036.697 h 93.316"
       id="path868" />
    <path
       d="m 181.05212,1036.792 h 93.341"
       id="path870" />
    <path
       d="m 181.04012,1036.886 h 93.365"
       id="path872" />
    <path
       d="m 181.02712,1036.98 h 93.39"
       id="path874" />
    <path
       d="m 181.01512,1037.075 h 93.415"
       id="path876" />
    <path
       d="m 181.00212,1037.169 h 93.44"
       id="path878" />
    <path
       d="m 180.99012,1037.263 h 93.465"
       id="path880" />
    <path
       d="m 180.97712,1037.358 h 93.49"
       id="path882" />
    <path
       d="m 180.96512,1037.452 h 93.514"
       id="path884" />
    <path
       d="m 180.95312,1037.546 h 93.539"
       id="path886" />
    <path
       d="m 180.94012,1037.641 h 93.564"
       id="path888" />
    <path
       d="m 180.92812,1037.735 h 93.589"
       id="path890" />
    <path
       d="m 180.91512,1037.829 h 93.614"
       id="path892" />
    <path
       d="m 180.90312,1037.924 h 93.639"
       id="path894" />
    <path
       d="m 180.89012,1038.018 h 93.664"
       id="path896" />
    <path
       d="m 180.87812,1038.112 h 93.688"
       id="path898" />
    <path
       d="m 180.86612,1038.207 h 93.713"
       id="path900" />
    <path
       d="m 180.85312,1038.301 h 93.738"
       id="path902" />
    <path
       d="m 180.84112,1038.395 h 93.763"
       id="path904" />
    <path
       d="m 180.82812,1038.49 h 93.788"
       id="path906" />
    <path
       d="m 180.81612,1038.584 h 93.813"
       id="path908" />
    <path
       d="m 180.80412,1038.678 h 93.837"
       id="path910" />
    <path
       d="m 180.79112,1038.773 h 93.862"
       id="path912" />
    <path
       d="m 180.77912,1038.867 h 93.887"
       id="path914" />
    <path
       d="m 180.76612,1038.961 h 93.912"
       id="path916" />
    <path
       d="m 180.75412,1039.056 h 93.937"
       id="path918" />
    <path
       d="m 180.74112,1039.15 h 93.962"
       id="path920" />
    <path
       d="m 180.73412,1039.244 h 93.977"
       id="path922" />
    <path
       d="m 180.73012,1039.339 h 93.985"
       id="path924" />
    <path
       d="m 180.72612,1039.433 h 93.993"
       id="path926" />
    <path
       d="m 180.72112,1039.527 h 94.002"
       id="path928" />
    <path
       d="m 180.71712,1039.622 h 94.01"
       id="path930" />
    <path
       d="m 180.71312,1039.716 h 94.018"
       id="path932" />
    <path
       d="m 180.70912,1039.81 h 94.026"
       id="path934" />
    <path
       d="m 180.70512,1039.905 h 94.034"
       id="path936" />
    <path
       d="m 180.70112,1039.999 h 94.043"
       id="path938" />
    <path
       d="m 180.69712,1040.093 h 94.051"
       id="path940" />
    <path
       d="m 180.69312,1040.188 h 94.059"
       id="path942" />
    <path
       d="m 180.68912,1040.282 h 94.067"
       id="path944" />
    <path
       d="m 180.68412,1040.376 h 94.076"
       id="path946" />
    <path
       d="m 180.68012,1040.471 h 94.084"
       id="path948" />
    <path
       d="m 180.67612,1040.565 h 94.092"
       id="path950" />
    <path
       d="m 180.67212,1040.659 h 94.1"
       id="path952" />
    <path
       d="m 180.66812,1040.754 h 94.109"
       id="path954" />
    <path
       d="m 180.66412,1040.848 h 94.117"
       id="path956" />
    <path
       d="m 180.66012,1040.942 h 94.125"
       id="path958" />
    <path
       d="m 180.65612,1041.037 h 94.133"
       id="path960" />
    <path
       d="m 180.65112,1041.131 h 94.142"
       id="path962" />
    <path
       d="m 180.64712,1041.225 h 94.15"
       id="path964" />
    <path
       d="m 180.64312,1041.32 h 94.158"
       id="path966" />
    <path
       d="m 180.63912,1041.414 h 94.166"
       id="path968" />
    <path
       d="m 180.63512,1041.508 h 94.174"
       id="path970" />
    <path
       d="m 180.63112,1041.603 h 94.183"
       id="path972" />
    <path
       d="m 180.62712,1041.697 h 94.191"
       id="path974" />
    <path
       d="m 180.62312,1041.791 h 94.199"
       id="path976" />
    <path
       d="m 180.61912,1041.886 h 94.207"
       id="path978" />
    <path
       d="m 180.61412,1041.98 h 94.216"
       id="path980" />
    <path
       d="m 180.61012,1042.074 h 94.224"
       id="path982" />
    <path
       d="m 180.60612,1042.169 h 94.232"
       id="path984" />
    <path
       d="m 180.60212,1042.263 h 94.24"
       id="path986" />
    <path
       d="m 180.59812,1042.357 h 94.249"
       id="path988" />
    <path
       d="m 180.59412,1042.452 h 94.257"
       id="path990" />
    <path
       d="m 180.59012,1042.546 h 94.265"
       id="path992" />
    <path
       d="m 180.58612,1042.64 h 94.273"
       id="path994" />
    <path
       d="m 180.58112,1042.735 h 94.282"
       id="path996" />
    <path
       d="m 180.57712,1042.829 h 94.29"
       id="path998" />
    <path
       d="m 180.57312,1042.923 h 94.298"
       id="path1000" />
    <path
       d="m 180.56912,1043.018 h 94.306"
       id="path1002" />
    <path
       d="m 180.56512,1043.112 h 94.315"
       id="path1004" />
    <path
       d="m 180.56112,1043.206 h 94.323"
       id="path1006" />
    <path
       d="m 180.55712,1043.301 h 94.331"
       id="path1008" />
    <path
       d="m 180.56112,1043.395 h 94.323"
       id="path1010" />
    <path
       d="m 180.56512,1043.489 h 94.315"
       id="path1012" />
    <path
       d="m 180.56912,1043.584 h 94.306"
       id="path1014" />
    <path
       d="m 180.57312,1043.678 h 94.298"
       id="path1016" />
    <path
       d="m 180.57712,1043.772 h 94.29"
       id="path1018" />
    <path
       d="m 180.58112,1043.867 h 94.282"
       id="path1020" />
    <path
       d="m 180.58612,1043.961 h 94.273"
       id="path1022" />
    <path
       d="m 180.59012,1044.055 h 94.265"
       id="path1024" />
    <path
       d="m 180.59412,1044.15 h 94.257"
       id="path1026" />
    <path
       d="m 180.59812,1044.244 h 94.249"
       id="path1028" />
    <path
       d="m 180.60212,1044.338 h 94.24"
       id="path1030" />
    <path
       d="m 180.60612,1044.433 h 94.232"
       id="path1032" />
    <path
       d="m 180.61012,1044.527 h 94.224"
       id="path1034" />
    <path
       d="m 180.61412,1044.621 h 94.216"
       id="path1036" />
    <path
       d="m 180.61912,1044.716 h 94.207"
       id="path1038" />
    <path
       d="m 180.62312,1044.81 h 94.199"
       id="path1040" />
    <path
       d="m 180.62712,1044.904 h 94.191"
       id="path1042" />
    <path
       d="m 180.63112,1044.999 h 94.183"
       id="path1044" />
    <path
       d="m 180.63512,1045.093 h 94.174"
       id="path1046" />
    <path
       d="m 180.63912,1045.187 h 94.166"
       id="path1048" />
    <path
       d="m 180.64312,1045.282 h 94.158"
       id="path1050" />
    <path
       d="m 180.64712,1045.376 h 94.15"
       id="path1052" />
    <path
       d="m 180.65112,1045.47 h 94.142"
       id="path1054" />
    <path
       d="m 180.65612,1045.565 h 94.133"
       id="path1056" />
    <path
       d="m 180.66012,1045.659 h 94.125"
       id="path1058" />
    <path
       d="m 180.66412,1045.753 h 94.117"
       id="path1060" />
    <path
       d="m 180.66812,1045.848 h 94.109"
       id="path1062" />
    <path
       d="m 180.67212,1045.942 h 94.1"
       id="path1064" />
    <path
       d="m 180.67612,1046.036 h 94.092"
       id="path1066" />
    <path
       d="m 180.68012,1046.131 h 94.084"
       id="path1068" />
    <path
       d="m 180.68412,1046.225 h 94.076"
       id="path1070" />
    <path
       d="m 180.68912,1046.319 h 94.067"
       id="path1072" />
    <path
       d="m 180.69312,1046.414 h 94.059"
       id="path1074" />
    <path
       d="m 180.69712,1046.508 h 94.051"
       id="path1076" />
    <path
       d="m 180.70112,1046.602 h 94.043"
       id="path1078" />
    <path
       d="m 180.70512,1046.697 h 94.034"
       id="path1080" />
    <path
       d="m 180.70912,1046.791 h 94.026"
       id="path1082" />
    <path
       d="m 180.71312,1046.885 h 94.018"
       id="path1084" />
    <path
       d="m 180.71712,1046.98 h 94.01"
       id="path1086" />
    <path
       d="m 180.72112,1047.074 h 94.002"
       id="path1088" />
    <path
       d="m 180.72612,1047.168 h 93.993"
       id="path1090" />
    <path
       d="m 180.73012,1047.263 h 93.985"
       id="path1092" />
    <path
       d="m 180.73412,1047.357 h 93.977"
       id="path1094" />
    <path
       d="m 180.74112,1047.451 h 93.962"
       id="path1096" />
    <path
       d="m 180.75412,1047.546 h 93.937"
       id="path1098" />
    <path
       d="m 180.76612,1047.64 h 93.912"
       id="path1100" />
    <path
       d="m 180.77912,1047.734 h 93.887"
       id="path1102" />
    <path
       d="m 180.79112,1047.828 h 93.862"
       id="path1104" />
    <path
       d="m 180.80412,1047.923 h 93.837"
       id="path1106" />
    <path
       d="m 180.81612,1048.017 h 93.813"
       id="path1108" />
    <path
       d="m 180.82812,1048.112 h 93.788"
       id="path1110" />
    <path
       d="m 180.84112,1048.206 h 93.763"
       id="path1112" />
    <path
       d="m 180.85312,1048.3 h 93.738"
       id="path1114" />
    <path
       d="m 180.86612,1048.394 h 93.713"
       id="path1116" />
    <path
       d="m 180.87812,1048.489 h 93.688"
       id="path1118" />
    <path
       d="m 180.89112,1048.583 h 93.663"
       id="path1120" />
    <path
       d="m 180.90312,1048.677 h 93.639"
       id="path1122" />
    <path
       d="m 180.91512,1048.772 h 93.614"
       id="path1124" />
    <path
       d="m 180.92812,1048.866 h 93.589"
       id="path1126" />
    <path
       d="m 180.94012,1048.96 h 93.564"
       id="path1128" />
    <path
       d="m 180.95312,1049.055 h 93.539"
       id="path1130" />
    <path
       d="m 180.96512,1049.149 h 93.514"
       id="path1132" />
    <path
       d="m 180.97712,1049.243 h 93.49"
       id="path1134" />
    <path
       d="m 180.99012,1049.338 h 93.465"
       id="path1136" />
    <path
       d="m 181.00212,1049.432 h 93.44"
       id="path1138" />
    <path
       d="m 181.01512,1049.526 h 93.415"
       id="path1140" />
    <path
       d="m 181.02712,1049.621 h 93.39"
       id="path1142" />
    <path
       d="m 181.04012,1049.715 h 93.365"
       id="path1144" />
    <path
       d="m 181.05212,1049.809 h 93.341"
       id="path1146" />
    <path
       d="m 181.06412,1049.904 h 93.316"
       id="path1148" />
    <path
       d="m 181.07712,1049.998 h 93.291"
       id="path1150" />
    <path
       d="m 181.08912,1050.092 h 93.266"
       id="path1152" />
    <path
       d="m 181.10212,1050.187 h 93.241"
       id="path1154" />
    <path
       d="m 181.11412,1050.281 h 93.216"
       id="path1156" />
    <path
       d="m 181.12612,1050.375 h 93.192"
       id="path1158" />
    <path
       d="m 181.13912,1050.47 h 93.167"
       id="path1160" />
    <path
       d="m 181.15112,1050.564 h 93.142"
       id="path1162" />
    <path
       d="m 181.16412,1050.658 h 93.117"
       id="path1164" />
    <path
       d="m 181.17612,1050.753 h 93.092"
       id="path1166" />
    <path
       d="m 181.18912,1050.847 h 93.067"
       id="path1168" />
    <path
       d="m 181.20112,1050.941 h 93.043"
       id="path1170" />
    <path
       d="m 181.21312,1051.036 h 93.018"
       id="path1172" />
    <path
       d="m 181.22612,1051.13 h 92.993"
       id="path1174" />
    <path
       d="m 181.23812,1051.224 h 92.968"
       id="path1176" />
    <path
       d="m 181.25112,1051.319 h 92.943"
       id="path1178" />
    <path
       d="m 181.26312,1051.413 h 92.918"
       id="path1180" />
    <path
       d="m 181.27712,1051.507 h 92.891"
       id="path1182" />
    <path
       d="m 181.29812,1051.602 h 92.849"
       id="path1184" />
    <path
       d="m 181.31912,1051.696 h 92.807"
       id="path1186" />
    <path
       d="m 181.34012,1051.79 h 92.765"
       id="path1188" />
    <path
       d="m 181.36112,1051.885 h 92.723"
       id="path1190" />
    <path
       d="m 181.38212,1051.979 h 92.681"
       id="path1192" />
    <path
       d="m 181.40212,1052.073 h 92.64"
       id="path1194" />
    <path
       d="m 181.42312,1052.168 h 92.598"
       id="path1196" />
    <path
       d="m 181.44412,1052.262 h 92.556"
       id="path1198" />
    <path
       d="m 181.46512,1052.356 h 92.514"
       id="path1200" />
    <path
       d="m 181.48612,1052.451 h 92.472"
       id="path1202" />
    <path
       d="m 181.50712,1052.545 h 92.43"
       id="path1204" />
    <path
       d="m 181.52812,1052.639 h 92.389"
       id="path1206" />
    <path
       d="m 181.54912,1052.734 h 92.347"
       id="path1208" />
    <path
       d="m 181.57012,1052.828 h 92.305"
       id="path1210" />
    <path
       d="m 181.59112,1052.922 h 92.263"
       id="path1212" />
    <path
       d="m 181.61212,1053.017 h 92.221"
       id="path1214" />
    <path
       d="m 181.63312,1053.111 h 92.179"
       id="path1216" />
    <path
       d="m 181.65312,1053.205 h 92.138"
       id="path1218" />
    <path
       d="m 181.67412,1053.3 h 92.096"
       id="path1220" />
    <path
       d="m 181.69512,1053.394 h 92.054"
       id="path1222" />
    <path
       d="m 181.71612,1053.488 h 92.012"
       id="path1224" />
    <path
       d="m 181.73712,1053.583 h 91.97"
       id="path1226" />
    <path
       d="m 181.75812,1053.677 h 91.929"
       id="path1228" />
    <path
       d="m 181.77912,1053.771 h 91.887"
       id="path1230" />
    <path
       d="m 181.80012,1053.866 h 91.845"
       id="path1232" />
    <path
       d="m 181.82112,1053.96 h 91.803"
       id="path1234" />
    <path
       d="m 181.84212,1054.054 h 91.761"
       id="path1236" />
    <path
       d="m 181.86312,1054.149 h 91.719"
       id="path1238" />
    <path
       d="m 181.88312,1054.243 h 91.678"
       id="path1240" />
    <path
       d="m 181.90412,1054.337 h 91.636"
       id="path1242" />
    <path
       d="m 181.92512,1054.432 h 91.594"
       id="path1244" />
    <path
       d="m 181.94612,1054.526 h 91.552"
       id="path1246" />
    <path
       d="m 181.96712,1054.62 h 91.51"
       id="path1248" />
    <path
       d="m 181.98812,1054.715 h 91.468"
       id="path1250" />
    <path
       d="m 182.00912,1054.809 h 91.427"
       id="path1252" />
    <path
       d="m 182.03012,1054.903 h 91.385"
       id="path1254" />
    <path
       d="m 182.05112,1054.998 h 91.343"
       id="path1256" />
    <path
       d="m 182.07212,1055.092 h 91.301"
       id="path1258" />
    <path
       d="m 182.09312,1055.186 h 91.259"
       id="path1260" />
    <path
       d="m 182.11412,1055.281 h 91.217"
       id="path1262" />
    <path
       d="m 182.13412,1055.375 h 91.176"
       id="path1264" />
    <path
       d="m 182.15512,1055.469 h 91.134"
       id="path1266" />
    <path
       d="m 182.18112,1055.564 h 91.082"
       id="path1268" />
    <path
       d="m 182.21112,1055.658 h 91.022"
       id="path1270" />
    <path
       d="m 182.24112,1055.752 h 90.963"
       id="path1272" />
    <path
       d="m 182.27112,1055.847 h 90.903"
       id="path1274" />
    <path
       d="m 182.30012,1055.941 h 90.844"
       id="path1276" />
    <path
       d="m 182.33012,1056.035 h 90.784"
       id="path1278" />
    <path
       d="m 182.36012,1056.13 h 90.725"
       id="path1280" />
    <path
       d="m 182.39012,1056.224 h 90.665"
       id="path1282" />
    <path
       d="m 182.41912,1056.318 h 90.606"
       id="path1284" />
    <path
       d="m 182.44912,1056.413 h 90.546"
       id="path1286" />
    <path
       d="m 182.47912,1056.507 h 90.487"
       id="path1288" />
    <path
       d="m 182.50912,1056.601 h 90.427"
       id="path1290" />
    <path
       d="m 182.53812,1056.696 h 90.368"
       id="path1292" />
    <path
       d="m 182.56812,1056.79 h 90.308"
       id="path1294" />
    <path
       d="m 182.59812,1056.884 h 90.249"
       id="path1296" />
    <path
       d="m 182.62812,1056.979 h 90.189"
       id="path1298" />
    <path
       d="m 182.65712,1057.073 h 90.13"
       id="path1300" />
    <path
       d="m 182.68712,1057.167 h 90.07"
       id="path1302" />
    <path
       d="m 182.71712,1057.262 h 90.011"
       id="path1304" />
    <path
       d="m 182.74712,1057.356 h 89.951"
       id="path1306" />
    <path
       d="m 182.77612,1057.45 h 89.892"
       id="path1308" />
    <path
       d="m 182.80612,1057.545 h 89.832"
       id="path1310" />
    <path
       d="m 182.83612,1057.639 h 89.773"
       id="path1312" />
    <path
       d="m 182.86612,1057.733 h 89.713"
       id="path1314" />
    <path
       d="m 182.89512,1057.828 h 89.654"
       id="path1316" />
    <path
       d="m 182.92512,1057.922 h 89.594"
       id="path1318" />
    <path
       d="m 182.95512,1058.016 h 89.535"
       id="path1320" />
    <path
       d="m 182.98512,1058.111 h 89.475"
       id="path1322" />
    <path
       d="m 183.01412,1058.205 h 89.416"
       id="path1324" />
    <path
       d="m 183.04412,1058.299 h 89.356"
       id="path1326" />
    <path
       d="m 183.07412,1058.394 h 89.297"
       id="path1328" />
    <path
       d="m 183.10312,1058.488 h 89.238"
       id="path1330" />
    <path
       d="m 183.13312,1058.582 h 89.178"
       id="path1332" />
    <path
       d="m 183.16312,1058.677 h 89.119"
       id="path1334" />
    <path
       d="m 183.19312,1058.771 h 89.059"
       id="path1336" />
    <path
       d="m 183.22212,1058.865 h 89"
       id="path1338" />
    <path
       d="m 183.25212,1058.96 h 88.94"
       id="path1340" />
    <path
       d="m 183.28212,1059.054 h 88.881"
       id="path1342" />
    <path
       d="m 183.31212,1059.148 h 88.821"
       id="path1344" />
    <path
       d="m 183.34112,1059.243 h 88.762"
       id="path1346" />
    <path
       d="m 183.37112,1059.337 h 88.702"
       id="path1348" />
    <path
       d="m 183.40112,1059.431 h 88.643"
       id="path1350" />
    <path
       d="m 183.44012,1059.526 h 88.565"
       id="path1352" />
    <path
       d="m 183.47912,1059.62 h 88.487"
       id="path1354" />
    <path
       d="m 183.51812,1059.714 h 88.408"
       id="path1356" />
    <path
       d="m 183.55712,1059.809 h 88.33"
       id="path1358" />
    <path
       d="m 183.59612,1059.903 h 88.252"
       id="path1360" />
    <path
       d="m 183.63512,1059.997 h 88.174"
       id="path1362" />
    <path
       d="m 183.67412,1060.092 h 88.096"
       id="path1364" />
    <path
       d="m 183.71312,1060.186 h 88.018"
       id="path1366" />
    <path
       d="m 183.75212,1060.28 h 87.94"
       id="path1368" />
    <path
       d="m 183.79212,1060.375 h 87.861"
       id="path1370" />
    <path
       d="m 183.83112,1060.469 h 87.783"
       id="path1372" />
    <path
       d="m 183.87012,1060.563 h 87.705"
       id="path1374" />
    <path
       d="m 183.90912,1060.658 h 87.627"
       id="path1376" />
    <path
       d="m 183.94812,1060.752 h 87.549"
       id="path1378" />
    <path
       d="m 183.98712,1060.846 h 87.471"
       id="path1380" />
    <path
       d="m 184.02612,1060.941 h 87.392"
       id="path1382" />
    <path
       d="m 184.06512,1061.035 h 87.314"
       id="path1384" />
    <path
       d="m 184.10412,1061.129 h 87.236"
       id="path1386" />
    <path
       d="m 184.14312,1061.224 h 87.158"
       id="path1388" />
    <path
       d="m 184.18212,1061.318 h 87.08"
       id="path1390" />
    <path
       d="m 184.22112,1061.412 h 87.002"
       id="path1392" />
    <path
       d="m 184.26012,1061.506 h 86.924"
       id="path1394" />
    <path
       d="m 184.29912,1061.601 h 86.846"
       id="path1396" />
    <path
       d="m 184.33912,1061.695 h 86.767"
       id="path1398" />
    <path
       d="m 184.37812,1061.789 h 86.689"
       id="path1400" />
    <path
       d="m 184.41712,1061.884 h 86.611"
       id="path1402" />
    <path
       d="m 184.45612,1061.978 h 86.533"
       id="path1404" />
    <path
       d="m 184.49512,1062.073 h 86.455"
       id="path1406" />
    <path
       d="m 184.53412,1062.167 h 86.377"
       id="path1408" />
    <path
       d="m 184.57312,1062.261 h 86.298"
       id="path1410" />
    <path
       d="m 184.61212,1062.355 h 86.22"
       id="path1412" />
    <path
       d="m 184.65112,1062.45 h 86.142"
       id="path1414" />
    <path
       d="m 184.69012,1062.544 h 86.064"
       id="path1416" />
    <path
       d="m 184.72912,1062.638 h 85.986"
       id="path1418" />
    <path
       d="m 184.76812,1062.733 h 85.908"
       id="path1420" />
    <path
       d="m 184.80712,1062.827 h 85.83"
       id="path1422" />
    <path
       d="m 184.84712,1062.921 h 85.751"
       id="path1424" />
    <path
       d="m 184.88612,1063.016 h 85.673"
       id="path1426" />
    <path
       d="m 184.92512,1063.11 h 85.595"
       id="path1428" />
    <path
       d="m 184.96412,1063.204 h 85.517"
       id="path1430" />
    <path
       d="m 185.01012,1063.299 h 85.425"
       id="path1432" />
    <path
       d="m 185.05912,1063.393 h 85.327"
       id="path1434" />
    <path
       d="m 185.10812,1063.487 h 85.229"
       id="path1436" />
    <path
       d="m 185.15712,1063.582 h 85.13"
       id="path1438" />
    <path
       d="m 185.20612,1063.676 h 85.032"
       id="path1440" />
    <path
       d="m 185.25512,1063.77 h 84.934"
       id="path1442" />
    <path
       d="m 185.30412,1063.865 h 84.836"
       id="path1444" />
    <path
       d="m 185.35312,1063.959 h 84.738"
       id="path1446" />
    <path
       d="m 185.40312,1064.053 h 84.639"
       id="path1448" />
    <path
       d="m 185.45212,1064.148 h 84.541"
       id="path1450" />
    <path
       d="m 185.50112,1064.242 h 84.443"
       id="path1452" />
    <path
       d="m 185.55012,1064.336 h 84.345"
       id="path1454" />
    <path
       d="m 185.59912,1064.431 h 84.246"
       id="path1456" />
    <path
       d="m 185.64812,1064.525 h 84.148"
       id="path1458" />
    <path
       d="m 185.69712,1064.619 h 84.05"
       id="path1460" />
    <path
       d="m 185.74612,1064.714 h 83.952"
       id="path1462" />
    <path
       d="m 185.79512,1064.808 h 83.854"
       id="path1464" />
    <path
       d="m 185.84512,1064.902 h 83.755"
       id="path1466" />
    <path
       d="m 185.89412,1064.997 h 83.657"
       id="path1468" />
    <path
       d="m 185.94312,1065.091 h 83.559"
       id="path1470" />
    <path
       d="m 185.99212,1065.185 h 83.461"
       id="path1472" />
    <path
       d="m 186.04112,1065.28 h 83.363"
       id="path1474" />
    <path
       d="m 186.09012,1065.374 h 83.264"
       id="path1476" />
    <path
       d="m 186.13912,1065.468 h 83.166"
       id="path1478" />
    <path
       d="m 186.18812,1065.563 h 83.068"
       id="path1480" />
    <path
       d="m 186.23712,1065.657 h 82.97"
       id="path1482" />
    <path
       d="m 186.28612,1065.751 h 82.872"
       id="path1484" />
    <path
       d="m 186.33612,1065.846 h 82.773"
       id="path1486" />
    <path
       d="m 186.38512,1065.94 h 82.675"
       id="path1488" />
    <path
       d="m 186.43412,1066.034 h 82.577"
       id="path1490" />
    <path
       d="m 186.48312,1066.129 h 82.479"
       id="path1492" />
    <path
       d="m 186.53212,1066.223 h 82.38"
       id="path1494" />
    <path
       d="m 186.58112,1066.317 h 82.282"
       id="path1496" />
    <path
       d="m 186.63012,1066.412 h 82.184"
       id="path1498" />
    <path
       d="m 186.67912,1066.506 h 82.086"
       id="path1500" />
    <path
       d="m 186.72812,1066.6 h 81.988"
       id="path1502" />
    <path
       d="m 186.77812,1066.695 h 81.889"
       id="path1504" />
    <path
       d="m 186.82712,1066.789 h 81.791"
       id="path1506" />
    <path
       d="m 186.87612,1066.883 h 81.693"
       id="path1508" />
    <path
       d="m 186.93612,1066.978 h 81.573"
       id="path1510" />
    <path
       d="m 186.99612,1067.072 h 81.453"
       id="path1512" />
    <path
       d="m 187.05612,1067.166 h 81.332"
       id="path1514" />
    <path
       d="m 187.11612,1067.261 h 81.212"
       id="path1516" />
    <path
       d="m 187.17612,1067.355 h 81.092"
       id="path1518" />
    <path
       d="m 187.23612,1067.449 h 80.972"
       id="path1520" />
    <path
       d="m 187.29612,1067.544 h 80.852"
       id="path1522" />
    <path
       d="m 187.35612,1067.638 h 80.732"
       id="path1524" />
    <path
       d="m 187.41712,1067.732 h 80.611"
       id="path1526" />
    <path
       d="m 187.47712,1067.827 h 80.491"
       id="path1528" />
    <path
       d="m 187.53712,1067.921 h 80.371"
       id="path1530" />
    <path
       d="m 187.59712,1068.015 h 80.251"
       id="path1532" />
    <path
       d="m 187.65712,1068.11 h 80.131"
       id="path1534" />
    <path
       d="m 187.71712,1068.204 h 80.01"
       id="path1536" />
    <path
       d="m 187.77712,1068.298 h 79.89"
       id="path1538" />
    <path
       d="m 187.83712,1068.393 h 79.77"
       id="path1540" />
    <path
       d="m 187.89712,1068.487 h 79.65"
       id="path1542" />
    <path
       d="m 187.95712,1068.581 h 79.53"
       id="path1544" />
    <path
       d="m 188.01812,1068.676 h 79.409"
       id="path1546" />
    <path
       d="m 188.07812,1068.77 h 79.289"
       id="path1548" />
    <path
       d="m 188.13812,1068.864 h 79.169"
       id="path1550" />
    <path
       d="m 188.19812,1068.959 h 79.049"
       id="path1552" />
    <path
       d="m 188.25812,1069.053 h 78.929"
       id="path1554" />
    <path
       d="m 188.31812,1069.147 h 78.808"
       id="path1556" />
    <path
       d="m 188.37812,1069.242 h 78.688"
       id="path1558" />
    <path
       d="m 188.43812,1069.336 h 78.568"
       id="path1560" />
    <path
       d="m 188.49812,1069.43 h 78.448"
       id="path1562" />
    <path
       d="m 188.55812,1069.525 h 78.328"
       id="path1564" />
    <path
       d="m 188.61912,1069.619 h 78.207"
       id="path1566" />
    <path
       d="m 188.67912,1069.713 h 78.087"
       id="path1568" />
    <path
       d="m 188.73912,1069.808 h 77.967"
       id="path1570" />
    <path
       d="m 188.79912,1069.902 h 77.847"
       id="path1572" />
    <path
       d="m 188.85912,1069.996 h 77.727"
       id="path1574" />
    <path
       d="m 188.91912,1070.091 h 77.606"
       id="path1576" />
    <path
       d="m 188.97912,1070.185 h 77.486"
       id="path1578" />
    <path
       d="m 189.03912,1070.279 h 77.366"
       id="path1580" />
    <path
       d="m 189.10212,1070.374 h 77.241"
       id="path1582" />
    <path
       d="m 189.17412,1070.468 h 77.096"
       id="path1584" />
    <path
       d="m 189.24712,1070.562 h 76.951"
       id="path1586" />
    <path
       d="m 189.31912,1070.657 h 76.806"
       id="path1588" />
    <path
       d="m 189.39112,1070.751 h 76.662"
       id="path1590" />
    <path
       d="m 189.46412,1070.845 h 76.517"
       id="path1592" />
    <path
       d="m 189.53612,1070.94 h 76.372"
       id="path1594" />
    <path
       d="m 189.60912,1071.034 h 76.227"
       id="path1596" />
    <path
       d="m 189.68112,1071.128 h 76.083"
       id="path1598" />
    <path
       d="m 189.75312,1071.223 h 75.938"
       id="path1600" />
    <path
       d="m 189.82612,1071.317 h 75.793"
       id="path1602" />
    <path
       d="m 189.89812,1071.411 h 75.648"
       id="path1604" />
    <path
       d="m 189.97012,1071.506 h 75.504"
       id="path1606" />
    <path
       d="m 190.04312,1071.6 h 75.359"
       id="path1608" />
    <path
       d="m 190.11512,1071.694 h 75.214"
       id="path1610" />
    <path
       d="m 190.18812,1071.789 h 75.069"
       id="path1612" />
    <path
       d="m 190.26012,1071.883 h 74.924"
       id="path1614" />
    <path
       d="m 190.33212,1071.977 h 74.78"
       id="path1616" />
    <path
       d="m 190.40512,1072.072 h 74.635"
       id="path1618" />
    <path
       d="m 190.47712,1072.166 h 74.49"
       id="path1620" />
    <path
       d="m 190.54912,1072.26 h 74.346"
       id="path1622" />
    <path
       d="m 190.62212,1072.355 h 74.201"
       id="path1624" />
    <path
       d="m 190.69412,1072.449 h 74.056"
       id="path1626" />
    <path
       d="m 190.76712,1072.543 h 73.911"
       id="path1628" />
    <path
       d="m 190.83912,1072.638 h 73.766"
       id="path1630" />
    <path
       d="m 190.91112,1072.732 h 73.622"
       id="path1632" />
    <path
       d="m 190.98412,1072.826 h 73.477"
       id="path1634" />
    <path
       d="m 191.05612,1072.921 h 73.332"
       id="path1636" />
    <path
       d="m 191.12912,1073.015 h 73.187"
       id="path1638" />
    <path
       d="m 191.20112,1073.109 h 73.043"
       id="path1640" />
    <path
       d="m 191.27312,1073.204 h 72.898"
       id="path1642" />
    <path
       d="m 191.34612,1073.298 h 72.753"
       id="path1644" />
    <path
       d="m 191.41812,1073.392 h 72.608"
       id="path1646" />
    <path
       d="m 191.49012,1073.487 h 72.464"
       id="path1648" />
    <path
       d="m 191.56312,1073.581 h 72.319"
       id="path1650" />
    <path
       d="m 191.64412,1073.675 h 72.157"
       id="path1652" />
    <path
       d="m 191.73012,1073.77 h 71.984"
       id="path1654" />
    <path
       d="m 191.81712,1073.864 h 71.811"
       id="path1656" />
    <path
       d="m 191.90312,1073.958 h 71.638"
       id="path1658" />
    <path
       d="m 191.98912,1074.052 h 71.466"
       id="path1660" />
    <path
       d="m 192.07612,1074.147 h 71.293"
       id="path1662" />
    <path
       d="m 192.16212,1074.241 h 71.12"
       id="path1664" />
    <path
       d="m 192.24912,1074.336 h 70.947"
       id="path1666" />
    <path
       d="m 192.33512,1074.43 h 70.774"
       id="path1668" />
    <path
       d="m 192.42212,1074.524 h 70.601"
       id="path1670" />
    <path
       d="m 192.50812,1074.619 h 70.428"
       id="path1672" />
    <path
       d="m 192.59512,1074.713 h 70.255"
       id="path1674" />
    <path
       d="m 192.68112,1074.807 h 70.082"
       id="path1676" />
    <path
       d="m 192.76712,1074.901 h 69.91"
       id="path1678" />
    <path
       d="m 192.85412,1074.996 h 69.737"
       id="path1680" />
    <path
       d="m 192.94012,1075.09 h 69.564"
       id="path1682" />
    <path
       d="m 193.02712,1075.184 h 69.391"
       id="path1684" />
    <path
       d="m 193.11312,1075.279 h 69.218"
       id="path1686" />
    <path
       d="m 193.20012,1075.373 h 69.045"
       id="path1688" />
    <path
       d="m 193.28612,1075.467 h 68.872"
       id="path1690" />
    <path
       d="m 193.37312,1075.562 h 68.699"
       id="path1692" />
    <path
       d="m 193.45912,1075.656 h 68.527"
       id="path1694" />
    <path
       d="m 193.54512,1075.751 h 68.354"
       id="path1696" />
    <path
       d="m 193.63212,1075.845 h 68.181"
       id="path1698" />
    <path
       d="m 193.71812,1075.939 h 68.008"
       id="path1700" />
    <path
       d="m 193.80512,1076.033 h 67.835"
       id="path1702" />
    <path
       d="m 193.89112,1076.128 h 67.662"
       id="path1704" />
    <path
       d="m 193.97812,1076.222 h 67.489"
       id="path1706" />
    <path
       d="m 194.06412,1076.316 h 67.316"
       id="path1708" />
    <path
       d="m 194.15012,1076.411 h 67.144"
       id="path1710" />
    <path
       d="m 194.23712,1076.505 h 66.971"
       id="path1712" />
    <path
       d="m 194.32312,1076.599 h 66.798"
       id="path1714" />
    <path
       d="m 194.41712,1076.694 h 66.61"
       id="path1716" />
    <path
       d="m 194.52012,1076.788 h 66.404"
       id="path1718" />
    <path
       d="m 194.62312,1076.882 h 66.198"
       id="path1720" />
    <path
       d="m 194.72612,1076.977 h 65.993"
       id="path1722" />
    <path
       d="m 194.82912,1077.071 h 65.787"
       id="path1724" />
    <path
       d="m 194.93212,1077.165 h 65.581"
       id="path1726" />
    <path
       d="m 195.03512,1077.26 h 65.375"
       id="path1728" />
    <path
       d="m 195.13812,1077.354 h 65.169"
       id="path1730" />
    <path
       d="m 195.24112,1077.448 h 64.963"
       id="path1732" />
    <path
       d="m 195.34412,1077.543 h 64.757"
       id="path1734" />
    <path
       d="m 195.44712,1077.637 h 64.551"
       id="path1736" />
    <path
       d="m 195.55012,1077.731 h 64.345"
       id="path1738" />
    <path
       d="m 195.65212,1077.826 h 64.14"
       id="path1740" />
    <path
       d="m 195.75512,1077.92 h 63.934"
       id="path1742" />
    <path
       d="m 195.85812,1078.014 h 63.728"
       id="path1744" />
    <path
       d="m 195.96112,1078.109 h 63.522"
       id="path1746" />
    <path
       d="m 196.06412,1078.203 h 63.316"
       id="path1748" />
    <path
       d="m 196.16712,1078.297 h 63.11"
       id="path1750" />
    <path
       d="m 196.27012,1078.392 h 62.904"
       id="path1752" />
    <path
       d="m 196.37312,1078.486 h 62.698"
       id="path1754" />
    <path
       d="m 196.47612,1078.58 h 62.492"
       id="path1756" />
    <path
       d="m 196.57912,1078.675 h 62.287"
       id="path1758" />
    <path
       d="m 196.68212,1078.769 h 62.081"
       id="path1760" />
    <path
       d="m 196.78512,1078.863 h 61.875"
       id="path1762" />
    <path
       d="m 196.88812,1078.958 h 61.669"
       id="path1764" />
    <path
       d="m 196.99112,1079.052 h 61.463"
       id="path1766" />
    <path
       d="m 197.09412,1079.146 h 61.257"
       id="path1768" />
    <path
       d="m 197.19712,1079.241 h 61.051"
       id="path1770" />
    <path
       d="m 197.30012,1079.335 h 60.845"
       id="path1772" />
    <path
       d="m 197.40312,1079.429 h 60.639"
       id="path1774" />
    <path
       d="m 197.52512,1079.524 h 60.394"
       id="path1776" />
    <path
       d="m 197.64812,1079.618 h 60.149"
       id="path1778" />
    <path
       d="m 197.77112,1079.712 h 59.903"
       id="path1780" />
    <path
       d="m 197.89412,1079.807 h 59.657"
       id="path1782" />
    <path
       d="m 198.01712,1079.901 h 59.411"
       id="path1784" />
    <path
       d="m 198.14012,1079.995 h 59.165"
       id="path1786" />
    <path
       d="m 198.26312,1080.09 h 58.919"
       id="path1788" />
    <path
       d="m 198.38612,1080.184 h 58.673"
       id="path1790" />
    <path
       d="m 198.50812,1080.278 h 58.428"
       id="path1792" />
    <path
       d="m 198.63112,1080.373 h 58.182"
       id="path1794" />
    <path
       d="m 198.75412,1080.467 h 57.936"
       id="path1796" />
    <path
       d="m 198.87712,1080.561 h 57.69"
       id="path1798" />
    <path
       d="m 199.00012,1080.656 h 57.444"
       id="path1800" />
    <path
       d="m 199.12312,1080.75 h 57.198"
       id="path1802" />
    <path
       d="m 199.24612,1080.844 h 56.952"
       id="path1804" />
    <path
       d="m 199.36912,1080.939 h 56.706"
       id="path1806" />
    <path
       d="m 199.49212,1081.033 h 56.461"
       id="path1808" />
    <path
       d="m 199.61512,1081.127 h 56.215"
       id="path1810" />
    <path
       d="m 199.73812,1081.222 h 55.969"
       id="path1812" />
    <path
       d="m 199.86112,1081.316 h 55.723"
       id="path1814" />
    <path
       d="m 199.98412,1081.41 h 55.477"
       id="path1816" />
    <path
       d="m 200.10712,1081.505 h 55.231"
       id="path1818" />
    <path
       d="m 200.23012,1081.599 h 54.985"
       id="path1820" />
    <path
       d="m 200.35312,1081.693 h 54.739"
       id="path1822" />
    <path
       d="m 200.47512,1081.788 h 54.494"
       id="path1824" />
    <path
       d="m 200.59812,1081.882 h 54.248"
       id="path1826" />
    <path
       d="m 200.73212,1081.976 h 53.98"
       id="path1828" />
    <path
       d="m 200.88012,1082.071 h 53.684"
       id="path1830" />
    <path
       d="m 201.02812,1082.165 h 53.388"
       id="path1832" />
    <path
       d="m 201.17612,1082.259 h 53.092"
       id="path1834" />
    <path
       d="m 201.32412,1082.354 h 52.796"
       id="path1836" />
    <path
       d="m 201.47212,1082.448 h 52.5"
       id="path1838" />
    <path
       d="m 201.62012,1082.542 h 52.204"
       id="path1840" />
    <path
       d="m 201.76912,1082.637 h 51.907"
       id="path1842" />
    <path
       d="m 201.91712,1082.731 h 51.611"
       id="path1844" />
    <path
       d="m 202.06512,1082.825 h 51.315"
       id="path1846" />
    <path
       d="m 202.21312,1082.92 h 51.019"
       id="path1848" />
    <path
       d="m 202.36112,1083.014 h 50.723"
       id="path1850" />
    <path
       d="m 202.50912,1083.108 h 50.427"
       id="path1852" />
    <path
       d="m 202.65712,1083.203 h 50.131"
       id="path1854" />
    <path
       d="m 202.80512,1083.297 h 49.834"
       id="path1856" />
    <path
       d="m 202.95312,1083.391 h 49.538"
       id="path1858" />
    <path
       d="m 203.10112,1083.486 h 49.242"
       id="path1860" />
    <path
       d="m 203.24912,1083.58 h 48.946"
       id="path1862" />
    <path
       d="m 203.39712,1083.674 h 48.65"
       id="path1864" />
    <path
       d="m 203.54512,1083.769 h 48.354"
       id="path1866" />
    <path
       d="m 203.69312,1083.863 h 48.058"
       id="path1868" />
    <path
       d="m 203.84112,1083.957 h 47.762"
       id="path1870" />
    <path
       d="m 203.99012,1084.052 h 47.465"
       id="path1872" />
    <path
       d="m 204.13812,1084.146 h 47.169"
       id="path1874" />
    <path
       d="m 204.31812,1084.24 h 46.808"
       id="path1876" />
    <path
       d="m 204.50012,1084.335 h 46.445"
       id="path1878" />
    <path
       d="m 204.68112,1084.429 h 46.083"
       id="path1880" />
    <path
       d="m 204.86212,1084.523 h 45.72"
       id="path1882" />
    <path
       d="m 205.04312,1084.618 h 45.358"
       id="path1884" />
    <path
       d="m 205.22412,1084.712 h 44.996"
       id="path1886" />
    <path
       d="m 205.40612,1084.806 h 44.633"
       id="path1888" />
    <path
       d="m 205.58712,1084.901 h 44.271"
       id="path1890" />
    <path
       d="m 205.76812,1084.995 h 43.908"
       id="path1892" />
    <path
       d="m 205.94912,1085.089 h 43.546"
       id="path1894" />
    <path
       d="m 206.13112,1085.184 h 43.183"
       id="path1896" />
    <path
       d="m 206.31212,1085.278 h 42.821"
       id="path1898" />
    <path
       d="m 206.49312,1085.372 h 42.459"
       id="path1900" />
    <path
       d="m 206.67412,1085.467 h 42.096"
       id="path1902" />
    <path
       d="m 206.85512,1085.561 h 41.734"
       id="path1904" />
    <path
       d="m 207.03712,1085.655 h 41.371"
       id="path1906" />
    <path
       d="m 207.21812,1085.75 h 41.009"
       id="path1908" />
    <path
       d="m 207.39912,1085.844 h 40.646"
       id="path1910" />
    <path
       d="m 207.58012,1085.938 h 40.284"
       id="path1912" />
    <path
       d="m 207.76112,1086.033 h 39.922"
       id="path1914" />
    <path
       d="m 207.98212,1086.127 h 39.48"
       id="path1916" />
    <path
       d="m 208.21012,1086.221 h 39.025"
       id="path1918" />
    <path
       d="m 208.43712,1086.316 h 38.57"
       id="path1920" />
    <path
       d="m 208.66512,1086.41 h 38.114"
       id="path1922" />
    <path
       d="m 208.89312,1086.504 h 37.659"
       id="path1924" />
    <path
       d="m 209.12112,1086.599 h 37.203"
       id="path1926" />
    <path
       d="m 209.34812,1086.693 h 36.748"
       id="path1928" />
    <path
       d="m 209.57612,1086.787 h 36.292"
       id="path1930" />
    <path
       d="m 209.80412,1086.882 h 35.837"
       id="path1932" />
    <path
       d="m 210.03212,1086.976 h 35.381"
       id="path1934" />
    <path
       d="m 210.25912,1087.07 h 34.926"
       id="path1936" />
    <path
       d="m 210.48712,1087.165 h 34.47"
       id="path1938" />
    <path
       d="m 210.71512,1087.259 h 34.015"
       id="path1940" />
    <path
       d="m 210.94312,1087.353 h 33.559"
       id="path1942" />
    <path
       d="m 211.17012,1087.448 h 33.104"
       id="path1944" />
    <path
       d="m 211.39812,1087.542 h 32.649"
       id="path1946" />
    <path
       d="m 211.63712,1087.636 h 32.171"
       id="path1948" />
    <path
       d="m 211.93612,1087.73 h 31.573"
       id="path1950" />
    <path
       d="m 212.23512,1087.825 h 30.974"
       id="path1952" />
    <path
       d="m 212.53412,1087.919 h 30.376"
       id="path1954" />
    <path
       d="m 212.83312,1088.014 h 29.778"
       id="path1956" />
    <path
       d="m 213.13312,1088.108 h 29.179"
       id="path1958" />
    <path
       d="m 213.43212,1088.202 h 28.581"
       id="path1960" />
    <path
       d="m 213.73112,1088.297 h 27.983"
       id="path1962" />
    <path
       d="m 214.03012,1088.391 h 27.384"
       id="path1964" />
    <path
       d="m 214.32912,1088.485 h 26.786"
       id="path1966" />
    <path
       d="m 214.62912,1088.579 h 26.187"
       id="path1968" />
    <path
       d="m 214.92812,1088.674 h 25.589"
       id="path1970" />
    <path
       d="m 215.22712,1088.768 h 24.991"
       id="path1972" />
    <path
       d="m 215.53112,1088.862 h 24.383"
       id="path1974" />
    <path
       d="m 215.95612,1088.957 h 23.532"
       id="path1976" />
    <path
       d="m 216.38212,1089.051 h 22.681"
       id="path1978" />
    <path
       d="m 216.80712,1089.145 h 21.83"
       id="path1980" />
    <path
       d="m 217.23312,1089.24 h 20.979"
       id="path1982" />
    <path
       d="m 217.65812,1089.334 h 20.128"
       id="path1984" />
    <path
       d="m 218.08412,1089.428 h 19.277"
       id="path1986" />
    <path
       d="m 218.50912,1089.523 h 18.426"
       id="path1988" />
    <path
       d="m 218.93512,1089.617 h 17.575"
       id="path1990" />
    <path
       d="m 219.36012,1089.711 h 16.724"
       id="path1992" />
    <path
       d="m 219.95912,1089.806 h 15.527"
       id="path1994" />
    <path
       d="m 220.67512,1089.9 h 14.094"
       id="path1996" />
    <path
       d="m 221.39212,1089.994 h 12.66"
       id="path1998" />
    <path
       d="m 222.10912,1090.089 h 11.227"
       id="path2000" />
    <path
       d="m 222.82512,1090.183 h 9.794"
       id="path2002" />
    <path
       d="m 223.54212,1090.277 h 8.361"
       id="path2004" />
    <path
       d="m 225.56212,1090.372 h 4.321"
       id="path2006" />
    <path
       d="m 274.88812,1043.301 -0.18,4.11 -0.537,4.08 -0.89,4.017 -1.238,3.924 -1.574,3.802 -1.9,3.649 -2.211,3.471 -2.505,3.264 -2.78,3.034 -3.033,2.78"
       id="path2008" />
    <path
       d="m 258.04012,1079.432 -3.265,2.504 -3.47,2.211 -3.65,1.9 -3.801,1.575 -3.924,1.237 -4.018,0.891 -4.079,0.537 -4.111,0.179 -4.11,-0.179 -4.08,-0.537"
       id="path2010" />
    <path
       d="m 219.53212,1089.75 -4.017,-0.891 -3.924,-1.237 -3.802,-1.575 -3.65,-1.9 -3.47,-2.211 -3.264,-2.504 -3.034,-2.78 -2.78,-3.034 -2.504,-3.264 -2.211,-3.471"
       id="path2012" />
    <path
       d="m 186.87612,1066.883 -1.9,-3.649 -1.575,-3.802 -1.237,-3.924 -0.891,-4.017 -0.537,-4.08 -0.179,-4.11 0.179,-4.111 0.537,-4.08 0.891,-4.017 1.237,-3.924"
       id="path2014" />
    <path
       d="m 183.40112,1027.169 1.575,-3.801 1.9,-3.65 2.211,-3.47 2.504,-3.265 2.78,-3.033 3.034,-2.78 3.264,-2.505 3.47,-2.211 3.65,-1.9 3.802,-1.574"
       id="path2016" />
    <path
       d="m 211.59112,998.98 3.924,-1.238 4.017,-0.89 4.08,-0.537 4.11,-0.18 4.111,0.18 4.079,0.537 4.018,0.89 3.924,1.238 3.801,1.574 3.65,1.9"
       id="path2018" />
    <path
       d="m 251.30512,1002.454 3.47,2.211 3.265,2.505 3.033,2.78 2.78,3.033 2.505,3.265 2.211,3.47 1.9,3.65 1.574,3.801 1.238,3.924 0.89,4.017"
       id="path2020" />
    <path
       d="m 274.17112,1035.11 0.537,4.08 0.18,4.111 -0.18,4.11"
       id="path2022" />
  </g>
</svg>
