<?xml version="1.0" encoding="UTF-8"?>
<svg id="svg2026" width="491.64" height="581.24" version="1.1" viewBox="0 0 491.64 581.24" xmlns="http://www.w3.org/2000/svg">
 <g id="g2024" transform="translate(13.574 -649.78)" fill="none" stroke="#000" stroke-width="4mm">
  <path id="path6" d="m-7.1619 1043.3h471.65l-234.88-379.21-236.77 379.21"/>
  <path id="path8" d="m227.72 1044.2v186.78"/>
  <path id="path10" d="m225.56 996.23h4.321"/>
  <path id="path12" d="m223.54 996.32h8.361"/>
  <path id="path14" d="m222.83 996.42h9.794"/>
  <path id="path16" d="m222.11 996.51h11.227"/>
  <path id="path18" d="m221.39 996.61h12.66"/>
  <path id="path20" d="m220.68 996.7h14.093"/>
  <path id="path22" d="m219.96 996.8h15.526"/>
  <path id="path24" d="m219.36 996.89h16.724"/>
  <path id="path26" d="m218.94 996.98h17.575"/>
  <path id="path28" d="m218.51 997.08h18.426"/>
  <path id="path30" d="m218.08 997.17h19.277"/>
  <path id="path32" d="m217.66 997.27h20.128"/>
  <path id="path34" d="m217.23 997.36h20.979"/>
  <path id="path36" d="m216.81 997.46h21.83"/>
  <path id="path38" d="m216.38 997.55h22.681"/>
  <path id="path40" d="m215.96 997.64h23.532"/>
  <path id="path42" d="m215.53 997.74h24.383"/>
  <path id="path44" d="m215.23 997.83h24.991"/>
  <path id="path46" d="m214.93 997.93h25.589"/>
  <path id="path48" d="m214.63 998.02h26.188"/>
  <path id="path50" d="m214.33 998.12h26.786"/>
  <path id="path52" d="m214.03 998.21h27.384"/>
  <path id="path54" d="m213.73 998.3h27.983"/>
  <path id="path56" d="m213.43 998.4h28.581"/>
  <path id="path58" d="m213.13 998.49h29.179"/>
  <path id="path60" d="m212.83 998.59h29.778"/>
  <path id="path62" d="m212.53 998.68h30.376"/>
  <path id="path64" d="m212.24 998.78h30.974"/>
  <path id="path66" d="m211.94 998.87h31.573"/>
  <path id="path68" d="m211.64 998.96h32.171"/>
  <path id="path70" d="m211.4 999.06h32.649"/>
  <path id="path72" d="m211.17 999.15h33.104"/>
  <path id="path74" d="m210.94 999.25h33.559"/>
  <path id="path76" d="m210.72 999.34h34.015"/>
  <path id="path78" d="m210.49 999.44h34.47"/>
  <path id="path80" d="m210.26 999.53h34.926"/>
  <path id="path82" d="m210.03 999.62h35.381"/>
  <path id="path84" d="m209.8 999.72h35.837"/>
  <path id="path86" d="m209.58 999.81h36.292"/>
  <path id="path88" d="m209.35 999.91h36.748"/>
  <path id="path90" d="m209.12 1e3h37.203"/>
  <path id="path92" d="m208.89 1000.1h37.659"/>
  <path id="path94" d="m208.67 1000.2h38.114"/>
  <path id="path96" d="m208.44 1000.3h38.57"/>
  <path id="path98" d="m208.21 1000.4h39.025"/>
  <path id="path100" d="m207.98 1000.5h39.481"/>
  <path id="path102" d="m207.76 1000.6h39.922"/>
  <path id="path104" d="m207.58 1000.7h40.284"/>
  <path id="path106" d="m207.4 1000.8h40.647"/>
  <path id="path108" d="m207.22 1000.9h41.009"/>
  <path id="path110" d="m207.04 1000.9h41.371"/>
  <path id="path112" d="m206.86 1001h41.734"/>
  <path id="path114" d="m206.67 1001.1h42.096"/>
  <path id="path116" d="m206.49 1001.2h42.459"/>
  <path id="path118" d="m206.31 1001.3h42.821"/>
  <path id="path120" d="m206.13 1001.4h43.183"/>
  <path id="path122" d="m205.95 1001.5h43.546"/>
  <path id="path124" d="m205.77 1001.6h43.908"/>
  <path id="path126" d="m205.59 1001.7h44.271"/>
  <path id="path128" d="m205.41 1001.8h44.633"/>
  <path id="path130" d="m205.22 1001.9h44.996"/>
  <path id="path132" d="m205.04 1002h45.358"/>
  <path id="path134" d="m204.86 1002.1h45.72"/>
  <path id="path136" d="m204.68 1002.2h46.083"/>
  <path id="path138" d="m204.5 1002.3h46.445"/>
  <path id="path140" d="m204.32 1002.4h46.808"/>
  <path id="path142" d="m204.14 1002.5h47.169"/>
  <path id="path144" d="m203.99 1002.6h47.465"/>
  <path id="path146" d="m203.84 1002.6h47.762"/>
  <path id="path148" d="m203.69 1002.7h48.058"/>
  <path id="path150" d="m203.55 1002.8h48.354"/>
  <path id="path152" d="m203.4 1002.9h48.65"/>
  <path id="path154" d="m203.25 1003h48.946"/>
  <path id="path156" d="m203.1 1003.1h49.242"/>
  <path id="path158" d="m202.95 1003.2h49.538"/>
  <path id="path160" d="m202.81 1003.3h49.835"/>
  <path id="path162" d="m202.66 1003.4h50.131"/>
  <path id="path164" d="m202.51 1003.5h50.427"/>
  <path id="path166" d="m202.36 1003.6h50.723"/>
  <path id="path168" d="m202.21 1003.7h51.019"/>
  <path id="path170" d="m202.07 1003.8h51.315"/>
  <path id="path172" d="m201.92 1003.9h51.611"/>
  <path id="path174" d="m201.77 1004h51.907"/>
  <path id="path176" d="m201.62 1004.1h52.204"/>
  <path id="path178" d="m201.47 1004.2h52.5"/>
  <path id="path180" d="m201.32 1004.2h52.796"/>
  <path id="path182" d="m201.18 1004.3h53.092"/>
  <path id="path184" d="m201.03 1004.4h53.388"/>
  <path id="path186" d="m200.88 1004.5h53.684"/>
  <path id="path188" d="m200.73 1004.6h53.981"/>
  <path id="path190" d="m200.6 1004.7h54.248"/>
  <path id="path192" d="m200.48 1004.8h54.494"/>
  <path id="path194" d="m200.35 1004.9h54.739"/>
  <path id="path196" d="m200.23 1005h54.985"/>
  <path id="path198" d="m200.11 1005.1h55.231"/>
  <path id="path200" d="m199.98 1005.2h55.477"/>
  <path id="path202" d="m199.86 1005.3h55.723"/>
  <path id="path204" d="m199.74 1005.4h55.969"/>
  <path id="path206" d="m199.62 1005.5h56.215"/>
  <path id="path208" d="m199.49 1005.6h56.461"/>
  <path id="path210" d="m199.37 1005.7h56.706"/>
  <path id="path212" d="m199.25 1005.8h56.952"/>
  <path id="path214" d="m199.12 1005.9h57.198"/>
  <path id="path216" d="m199 1005.9h57.444"/>
  <path id="path218" d="m198.88 1006h57.69"/>
  <path id="path220" d="m198.75 1006.1h57.936"/>
  <path id="path222" d="m198.63 1006.2h58.182"/>
  <path id="path224" d="m198.51 1006.3h58.428"/>
  <path id="path226" d="m198.39 1006.4h58.673"/>
  <path id="path228" d="m198.26 1006.5h58.919"/>
  <path id="path230" d="m198.14 1006.6h59.165"/>
  <path id="path232" d="m198.02 1006.7h59.411"/>
  <path id="path234" d="m197.89 1006.8h59.657"/>
  <path id="path236" d="m197.77 1006.9h59.903"/>
  <path id="path238" d="m197.65 1007h60.149"/>
  <path id="path240" d="m197.53 1007.1h60.394"/>
  <path id="path242" d="m197.4 1007.2h60.639"/>
  <path id="path244" d="m197.3 1007.3h60.845"/>
  <path id="path246" d="m197.2 1007.4h61.051"/>
  <path id="path248" d="m197.09 1007.5h61.257"/>
  <path id="path250" d="m196.99 1007.5h61.463"/>
  <path id="path252" d="m196.89 1007.6h61.669"/>
  <path id="path254" d="m196.79 1007.7h61.875"/>
  <path id="path256" d="m196.68 1007.8h62.081"/>
  <path id="path258" d="m196.58 1007.9h62.287"/>
  <path id="path260" d="m196.48 1008h62.492"/>
  <path id="path262" d="m196.37 1008.1h62.698"/>
  <path id="path264" d="m196.27 1008.2h62.904"/>
  <path id="path266" d="m196.17 1008.3h63.11"/>
  <path id="path268" d="m196.06 1008.4h63.316"/>
  <path id="path270" d="m195.96 1008.5h63.522"/>
  <path id="path272" d="m195.86 1008.6h63.728"/>
  <path id="path274" d="m195.76 1008.7h63.934"/>
  <path id="path276" d="m195.65 1008.8h64.14"/>
  <path id="path278" d="m195.55 1008.9h64.345"/>
  <path id="path280" d="m195.45 1009h64.551"/>
  <path id="path282" d="m195.34 1009.1h64.757"/>
  <path id="path284" d="m195.24 1009.2h64.963"/>
  <path id="path286" d="m195.14 1009.2h65.169"/>
  <path id="path288" d="m195.04 1009.3h65.375"/>
  <path id="path290" d="m194.93 1009.4h65.581"/>
  <path id="path292" d="m194.83 1009.5h65.787"/>
  <path id="path294" d="m194.73 1009.6h65.993"/>
  <path id="path296" d="m194.62 1009.7h66.198"/>
  <path id="path298" d="m194.52 1009.8h66.404"/>
  <path id="path300" d="m194.42 1009.9h66.61"/>
  <path id="path302" d="m194.32 1010h66.798"/>
  <path id="path304" d="m194.24 1010.1h66.971"/>
  <path id="path306" d="m194.15 1010.2h67.144"/>
  <path id="path308" d="m194.06 1010.3h67.316"/>
  <path id="path310" d="m193.98 1010.4h67.489"/>
  <path id="path312" d="m193.89 1010.5h67.662"/>
  <path id="path314" d="m193.81 1010.6h67.835"/>
  <path id="path316" d="m193.72 1010.7h68.008"/>
  <path id="path318" d="m193.63 1010.8h68.181"/>
  <path id="path320" d="m193.55 1010.9h68.354"/>
  <path id="path322" d="m193.46 1010.9h68.527"/>
  <path id="path324" d="m193.37 1011h68.699"/>
  <path id="path326" d="m193.29 1011.1h68.872"/>
  <path id="path328" d="m193.2 1011.2h69.045"/>
  <path id="path330" d="m193.11 1011.3h69.218"/>
  <path id="path332" d="m193.03 1011.4h69.391"/>
  <path id="path334" d="m192.94 1011.5h69.564"/>
  <path id="path336" d="m192.85 1011.6h69.737"/>
  <path id="path338" d="m192.77 1011.7h69.91"/>
  <path id="path340" d="m192.68 1011.8h70.082"/>
  <path id="path342" d="m192.6 1011.9h70.255"/>
  <path id="path344" d="m192.51 1012h70.428"/>
  <path id="path346" d="m192.42 1012.1h70.601"/>
  <path id="path348" d="m192.34 1012.2h70.774"/>
  <path id="path350" d="m192.25 1012.3h70.947"/>
  <path id="path352" d="m192.16 1012.4h71.12"/>
  <path id="path354" d="m192.08 1012.5h71.293"/>
  <path id="path356" d="m191.99 1012.5h71.466"/>
  <path id="path358" d="m191.9 1012.6h71.638"/>
  <path id="path360" d="m191.82 1012.7h71.811"/>
  <path id="path362" d="m191.73 1012.8h71.984"/>
  <path id="path364" d="m191.64 1012.9h72.157"/>
  <path id="path366" d="m191.56 1013h72.319"/>
  <path id="path368" d="m191.49 1013.1h72.464"/>
  <path id="path370" d="m191.42 1013.2h72.608"/>
  <path id="path372" d="m191.35 1013.3h72.753"/>
  <path id="path374" d="m191.27 1013.4h72.898"/>
  <path id="path376" d="m191.2 1013.5h73.043"/>
  <path id="path378" d="m191.13 1013.6h73.187"/>
  <path id="path380" d="m191.06 1013.7h73.332"/>
  <path id="path382" d="m190.98 1013.8h73.477"/>
  <path id="path384" d="m190.91 1013.9h73.622"/>
  <path id="path386" d="m190.84 1014h73.766"/>
  <path id="path388" d="m190.77 1014.1h73.911"/>
  <path id="path390" d="m190.69 1014.2h74.056"/>
  <path id="path392" d="m190.62 1014.2h74.201"/>
  <path id="path394" d="m190.55 1014.3h74.345"/>
  <path id="path396" d="m190.48 1014.4h74.49"/>
  <path id="path398" d="m190.41 1014.5h74.635"/>
  <path id="path400" d="m190.33 1014.6h74.78"/>
  <path id="path402" d="m190.26 1014.7h74.924"/>
  <path id="path404" d="m190.19 1014.8h75.069"/>
  <path id="path406" d="m190.12 1014.9h75.214"/>
  <path id="path408" d="m190.04 1015h75.359"/>
  <path id="path410" d="m189.97 1015.1h75.504"/>
  <path id="path412" d="m189.9 1015.2h75.648"/>
  <path id="path414" d="m189.83 1015.3h75.793"/>
  <path id="path416" d="m189.75 1015.4h75.938"/>
  <path id="path418" d="m189.68 1015.5h76.083"/>
  <path id="path420" d="m189.61 1015.6h76.227"/>
  <path id="path422" d="m189.54 1015.7h76.372"/>
  <path id="path424" d="m189.46 1015.8h76.517"/>
  <path id="path426" d="m189.39 1015.8h76.662"/>
  <path id="path428" d="m189.32 1015.9h76.806"/>
  <path id="path430" d="m189.25 1016h76.951"/>
  <path id="path432" d="m189.17 1016.1h77.096"/>
  <path id="path434" d="m189.1 1016.2h77.241"/>
  <path id="path436" d="m189.04 1016.3h77.366"/>
  <path id="path438" d="m188.98 1016.4h77.486"/>
  <path id="path440" d="m188.92 1016.5h77.606"/>
  <path id="path442" d="m188.86 1016.6h77.727"/>
  <path id="path444" d="m188.8 1016.7h77.847"/>
  <path id="path446" d="m188.74 1016.8h77.967"/>
  <path id="path448" d="m188.68 1016.9h78.087"/>
  <path id="path450" d="m188.62 1017h78.207"/>
  <path id="path452" d="m188.56 1017.1h78.328"/>
  <path id="path454" d="m188.5 1017.2h78.448"/>
  <path id="path456" d="m188.44 1017.3h78.568"/>
  <path id="path458" d="m188.38 1017.4h78.688"/>
  <path id="path460" d="m188.32 1017.5h78.808"/>
  <path id="path462" d="m188.26 1017.5h78.929"/>
  <path id="path464" d="m188.2 1017.6h79.049"/>
  <path id="path466" d="m188.14 1017.7h79.169"/>
  <path id="path468" d="m188.08 1017.8h79.289"/>
  <path id="path470" d="m188.02 1017.9h79.409"/>
  <path id="path472" d="m187.96 1018h79.53"/>
  <path id="path474" d="m187.9 1018.1h79.65"/>
  <path id="path476" d="m187.84 1018.2h79.77"/>
  <path id="path478" d="m187.78 1018.3h79.89"/>
  <path id="path480" d="m187.72 1018.4h80.01"/>
  <path id="path482" d="m187.66 1018.5h80.131"/>
  <path id="path484" d="m187.6 1018.6h80.251"/>
  <path id="path486" d="m187.54 1018.7h80.371"/>
  <path id="path488" d="m187.48 1018.8h80.491"/>
  <path id="path490" d="m187.42 1018.9h80.611"/>
  <path id="path492" d="m187.36 1019h80.732"/>
  <path id="path494" d="m187.3 1019.1h80.852"/>
  <path id="path496" d="m187.24 1019.2h80.972"/>
  <path id="path498" d="m187.18 1019.2h81.092"/>
  <path id="path500" d="m187.12 1019.3h81.212"/>
  <path id="path502" d="m187.06 1019.4h81.332"/>
  <path id="path504" d="m187 1019.5h81.453"/>
  <path id="path506" d="m186.94 1019.6h81.573"/>
  <path id="path508" d="m186.88 1019.7h81.693"/>
  <path id="path510" d="m186.83 1019.8h81.791"/>
  <path id="path512" d="m186.78 1019.9h81.889"/>
  <path id="path514" d="m186.73 1020h81.988"/>
  <path id="path516" d="m186.68 1020.1h82.086"/>
  <path id="path518" d="m186.63 1020.2h82.184"/>
  <path id="path520" d="m186.58 1020.3h82.282"/>
  <path id="path522" d="m186.53 1020.4h82.38"/>
  <path id="path524" d="m186.48 1020.5h82.479"/>
  <path id="path526" d="m186.43 1020.6h82.577"/>
  <path id="path528" d="m186.39 1020.7h82.675"/>
  <path id="path530" d="m186.34 1020.8h82.773"/>
  <path id="path532" d="m186.29 1020.8h82.872"/>
  <path id="path534" d="m186.24 1020.9h82.97"/>
  <path id="path536" d="m186.19 1021h83.068"/>
  <path id="path538" d="m186.14 1021.1h83.166"/>
  <path id="path540" d="m186.09 1021.2h83.264"/>
  <path id="path542" d="m186.04 1021.3h83.363"/>
  <path id="path544" d="m185.99 1021.4h83.461"/>
  <path id="path546" d="m185.94 1021.5h83.559"/>
  <path id="path548" d="m185.89 1021.6h83.657"/>
  <path id="path550" d="m185.85 1021.7h83.755"/>
  <path id="path552" d="m185.8 1021.8h83.854"/>
  <path id="path554" d="m185.75 1021.9h83.952"/>
  <path id="path556" d="m185.7 1022h84.05"/>
  <path id="path558" d="m185.65 1022.1h84.148"/>
  <path id="path560" d="m185.6 1022.2h84.246"/>
  <path id="path562" d="m185.55 1022.3h84.345"/>
  <path id="path564" d="m185.5 1022.4h84.443"/>
  <path id="path566" d="m185.45 1022.5h84.541"/>
  <path id="path568" d="m185.4 1022.5h84.639"/>
  <path id="path570" d="m185.35 1022.6h84.738"/>
  <path id="path572" d="m185.3 1022.7h84.836"/>
  <path id="path574" d="m185.26 1022.8h84.934"/>
  <path id="path576" d="m185.21 1022.9h85.032"/>
  <path id="path578" d="m185.16 1023h85.13"/>
  <path id="path580" d="m185.11 1023.1h85.229"/>
  <path id="path582" d="m185.06 1023.2h85.327"/>
  <path id="path584" d="m185.01 1023.3h85.425"/>
  <path id="path586" d="m184.96 1023.4h85.517"/>
  <path id="path588" d="m184.93 1023.5h85.595"/>
  <path id="path590" d="m184.89 1023.6h85.673"/>
  <path id="path592" d="m184.85 1023.7h85.751"/>
  <path id="path594" d="m184.81 1023.8h85.83"/>
  <path id="path596" d="m184.77 1023.9h85.908"/>
  <path id="path598" d="m184.73 1024h85.986"/>
  <path id="path600" d="m184.69 1024.1h86.064"/>
  <path id="path602" d="m184.65 1024.2h86.142"/>
  <path id="path604" d="m184.61 1024.2h86.22"/>
  <path id="path606" d="m184.57 1024.3h86.298"/>
  <path id="path608" d="m184.53 1024.4h86.377"/>
  <path id="path610" d="m184.5 1024.5h86.455"/>
  <path id="path612" d="m184.46 1024.6h86.533"/>
  <path id="path614" d="m184.42 1024.7h86.611"/>
  <path id="path616" d="m184.38 1024.8h86.689"/>
  <path id="path618" d="m184.34 1024.9h86.767"/>
  <path id="path620" d="m184.3 1025h86.846"/>
  <path id="path622" d="m184.26 1025.1h86.924"/>
  <path id="path624" d="m184.22 1025.2h87.002"/>
  <path id="path626" d="m184.18 1025.3h87.08"/>
  <path id="path628" d="m184.14 1025.4h87.158"/>
  <path id="path630" d="m184.1 1025.5h87.236"/>
  <path id="path632" d="m184.07 1025.6h87.314"/>
  <path id="path634" d="m184.03 1025.7h87.392"/>
  <path id="path636" d="m183.99 1025.8h87.471"/>
  <path id="path638" d="m183.95 1025.8h87.549"/>
  <path id="path640" d="m183.91 1025.9h87.627"/>
  <path id="path642" d="m183.87 1026h87.705"/>
  <path id="path644" d="m183.83 1026.1h87.783"/>
  <path id="path646" d="m183.79 1026.2h87.861"/>
  <path id="path648" d="m183.75 1026.3h87.94"/>
  <path id="path650" d="m183.71 1026.4h88.018"/>
  <path id="path652" d="m183.67 1026.5h88.096"/>
  <path id="path654" d="m183.64 1026.6h88.174"/>
  <path id="path656" d="m183.6 1026.7h88.252"/>
  <path id="path658" d="m183.56 1026.8h88.33"/>
  <path id="path660" d="m183.52 1026.9h88.408"/>
  <path id="path662" d="m183.48 1027h88.487"/>
  <path id="path664" d="m183.44 1027.1h88.565"/>
  <path id="path666" d="m183.4 1027.2h88.643"/>
  <path id="path668" d="m183.37 1027.3h88.702"/>
  <path id="path670" d="m183.34 1027.4h88.762"/>
  <path id="path672" d="m183.31 1027.5h88.821"/>
  <path id="path674" d="m183.28 1027.5h88.881"/>
  <path id="path676" d="m183.25 1027.6h88.94"/>
  <path id="path678" d="m183.22 1027.7h89"/>
  <path id="path680" d="m183.19 1027.8h89.059"/>
  <path id="path682" d="m183.16 1027.9h89.119"/>
  <path id="path684" d="m183.13 1028h89.178"/>
  <path id="path686" d="m183.1 1028.1h89.238"/>
  <path id="path688" d="m183.07 1028.2h89.297"/>
  <path id="path690" d="m183.04 1028.3h89.356"/>
  <path id="path692" d="m183.01 1028.4h89.416"/>
  <path id="path694" d="m182.99 1028.5h89.475"/>
  <path id="path696" d="m182.96 1028.6h89.535"/>
  <path id="path698" d="m182.93 1028.7h89.594"/>
  <path id="path700" d="m182.9 1028.8h89.654"/>
  <path id="path702" d="m182.87 1028.9h89.713"/>
  <path id="path704" d="m182.84 1029h89.773"/>
  <path id="path706" d="m182.81 1029.1h89.832"/>
  <path id="path708" d="m182.78 1029.2h89.892"/>
  <path id="path710" d="m182.75 1029.2h89.951"/>
  <path id="path712" d="m182.72 1029.3h90.011"/>
  <path id="path714" d="m182.69 1029.4h90.07"/>
  <path id="path716" d="m182.66 1029.5h90.13"/>
  <path id="path718" d="m182.63 1029.6h90.189"/>
  <path id="path720" d="m182.6 1029.7h90.249"/>
  <path id="path722" d="m182.57 1029.8h90.308"/>
  <path id="path724" d="m182.54 1029.9h90.368"/>
  <path id="path726" d="m182.51 1030h90.427"/>
  <path id="path728" d="m182.48 1030.1h90.487"/>
  <path id="path730" d="m182.45 1030.2h90.546"/>
  <path id="path732" d="m182.42 1030.3h90.606"/>
  <path id="path734" d="m182.39 1030.4h90.665"/>
  <path id="path736" d="m182.36 1030.5h90.725"/>
  <path id="path738" d="m182.33 1030.6h90.784"/>
  <path id="path740" d="m182.3 1030.7h90.844"/>
  <path id="path742" d="m182.27 1030.8h90.903"/>
  <path id="path744" d="m182.24 1030.8h90.963"/>
  <path id="path746" d="m182.21 1030.9h91.022"/>
  <path id="path748" d="m182.18 1031h91.082"/>
  <path id="path750" d="m182.16 1031.1h91.134"/>
  <path id="path752" d="m182.13 1031.2h91.176"/>
  <path id="path754" d="m182.11 1031.3h91.217"/>
  <path id="path756" d="m182.09 1031.4h91.259"/>
  <path id="path758" d="m182.07 1031.5h91.301"/>
  <path id="path760" d="m182.05 1031.6h91.343"/>
  <path id="path762" d="m182.03 1031.7h91.385"/>
  <path id="path764" d="m182.01 1031.8h91.427"/>
  <path id="path766" d="m181.99 1031.9h91.468"/>
  <path id="path768" d="m181.97 1032h91.51"/>
  <path id="path770" d="m181.95 1032.1h91.552"/>
  <path id="path772" d="m181.93 1032.2h91.594"/>
  <path id="path774" d="m181.9 1032.3h91.636"/>
  <path id="path776" d="m181.88 1032.4h91.678"/>
  <path id="path778" d="m181.86 1032.5h91.719"/>
  <path id="path780" d="m181.84 1032.5h91.761"/>
  <path id="path782" d="m181.82 1032.6h91.803"/>
  <path id="path784" d="m181.8 1032.7h91.845"/>
  <path id="path786" d="m181.78 1032.8h91.887"/>
  <path id="path788" d="m181.76 1032.9h91.928"/>
  <path id="path790" d="m181.74 1033h91.97"/>
  <path id="path792" d="m181.72 1033.1h92.012"/>
  <path id="path794" d="m181.7 1033.2h92.054"/>
  <path id="path796" d="m181.67 1033.3h92.096"/>
  <path id="path798" d="m181.65 1033.4h92.138"/>
  <path id="path800" d="m181.63 1033.5h92.18"/>
  <path id="path802" d="m181.61 1033.6h92.221"/>
  <path id="path804" d="m181.59 1033.7h92.263"/>
  <path id="path806" d="m181.57 1033.8h92.305"/>
  <path id="path808" d="m181.55 1033.9h92.347"/>
  <path id="path810" d="m181.53 1034h92.388"/>
  <path id="path812" d="m181.51 1034.1h92.43"/>
  <path id="path814" d="m181.49 1034.2h92.472"/>
  <path id="path816" d="m181.47 1034.2h92.514"/>
  <path id="path818" d="m181.44 1034.3h92.556"/>
  <path id="path820" d="m181.42 1034.4h92.598"/>
  <path id="path822" d="m181.4 1034.5h92.64"/>
  <path id="path824" d="m181.38 1034.6h92.681"/>
  <path id="path826" d="m181.36 1034.7h92.723"/>
  <path id="path828" d="m181.34 1034.8h92.765"/>
  <path id="path830" d="m181.32 1034.9h92.807"/>
  <path id="path832" d="m181.3 1035h92.849"/>
  <path id="path834" d="m181.28 1035.1h92.89"/>
  <path id="path836" d="m181.26 1035.2h92.918"/>
  <path id="path838" d="m181.25 1035.3h92.943"/>
  <path id="path840" d="m181.24 1035.4h92.968"/>
  <path id="path842" d="m181.23 1035.5h92.993"/>
  <path id="path844" d="m181.21 1035.6h93.018"/>
  <path id="path846" d="m181.2 1035.7h93.042"/>
  <path id="path848" d="m181.19 1035.8h93.067"/>
  <path id="path850" d="m181.18 1035.8h93.092"/>
  <path id="path852" d="m181.16 1035.9h93.117"/>
  <path id="path854" d="m181.15 1036h93.142"/>
  <path id="path856" d="m181.14 1036.1h93.167"/>
  <path id="path858" d="m181.13 1036.2h93.192"/>
  <path id="path860" d="m181.11 1036.3h93.216"/>
  <path id="path862" d="m181.1 1036.4h93.241"/>
  <path id="path864" d="m181.09 1036.5h93.266"/>
  <path id="path866" d="m181.08 1036.6h93.291"/>
  <path id="path868" d="m181.06 1036.7h93.316"/>
  <path id="path870" d="m181.05 1036.8h93.341"/>
  <path id="path872" d="m181.04 1036.9h93.365"/>
  <path id="path874" d="m181.03 1037h93.39"/>
  <path id="path876" d="m181.02 1037.1h93.415"/>
  <path id="path878" d="m181 1037.2h93.44"/>
  <path id="path880" d="m180.99 1037.3h93.465"/>
  <path id="path882" d="m180.98 1037.4h93.49"/>
  <path id="path884" d="m180.97 1037.5h93.514"/>
  <path id="path886" d="m180.95 1037.5h93.539"/>
  <path id="path888" d="m180.94 1037.6h93.564"/>
  <path id="path890" d="m180.93 1037.7h93.589"/>
  <path id="path892" d="m180.92 1037.8h93.614"/>
  <path id="path894" d="m180.9 1037.9h93.639"/>
  <path id="path896" d="m180.89 1038h93.664"/>
  <path id="path898" d="m180.88 1038.1h93.688"/>
  <path id="path900" d="m180.87 1038.2h93.713"/>
  <path id="path902" d="m180.85 1038.3h93.738"/>
  <path id="path904" d="m180.84 1038.4h93.763"/>
  <path id="path906" d="m180.83 1038.5h93.788"/>
  <path id="path908" d="m180.82 1038.6h93.813"/>
  <path id="path910" d="m180.8 1038.7h93.837"/>
  <path id="path912" d="m180.79 1038.8h93.862"/>
  <path id="path914" d="m180.78 1038.9h93.887"/>
  <path id="path916" d="m180.77 1039h93.912"/>
  <path id="path918" d="m180.75 1039.1h93.937"/>
  <path id="path920" d="m180.74 1039.2h93.962"/>
  <path id="path922" d="m180.73 1039.2h93.977"/>
  <path id="path924" d="m180.73 1039.3h93.985"/>
  <path id="path926" d="m180.73 1039.4h93.993"/>
  <path id="path928" d="m180.72 1039.5h94.002"/>
  <path id="path930" d="m180.72 1039.6h94.01"/>
  <path id="path932" d="m180.71 1039.7h94.018"/>
  <path id="path934" d="m180.71 1039.8h94.026"/>
  <path id="path936" d="m180.71 1039.9h94.034"/>
  <path id="path938" d="m180.7 1040h94.043"/>
  <path id="path940" d="m180.7 1040.1h94.051"/>
  <path id="path942" d="m180.69 1040.2h94.059"/>
  <path id="path944" d="m180.69 1040.3h94.067"/>
  <path id="path946" d="m180.68 1040.4h94.076"/>
  <path id="path948" d="m180.68 1040.5h94.084"/>
  <path id="path950" d="m180.68 1040.6h94.092"/>
  <path id="path952" d="m180.67 1040.7h94.1"/>
  <path id="path954" d="m180.67 1040.8h94.109"/>
  <path id="path956" d="m180.66 1040.8h94.117"/>
  <path id="path958" d="m180.66 1040.9h94.125"/>
  <path id="path960" d="m180.66 1041h94.133"/>
  <path id="path962" d="m180.65 1041.1h94.142"/>
  <path id="path964" d="m180.65 1041.2h94.15"/>
  <path id="path966" d="m180.64 1041.3h94.158"/>
  <path id="path968" d="m180.64 1041.4h94.166"/>
  <path id="path970" d="m180.64 1041.5h94.174"/>
  <path id="path972" d="m180.63 1041.6h94.183"/>
  <path id="path974" d="m180.63 1041.7h94.191"/>
  <path id="path976" d="m180.62 1041.8h94.199"/>
  <path id="path978" d="m180.62 1041.9h94.207"/>
  <path id="path980" d="m180.61 1042h94.216"/>
  <path id="path982" d="m180.61 1042.1h94.224"/>
  <path id="path984" d="m180.61 1042.2h94.232"/>
  <path id="path986" d="m180.6 1042.3h94.24"/>
  <path id="path988" d="m180.6 1042.4h94.249"/>
  <path id="path990" d="m180.59 1042.5h94.257"/>
  <path id="path992" d="m180.59 1042.5h94.265"/>
  <path id="path994" d="m180.59 1042.6h94.273"/>
  <path id="path996" d="m180.58 1042.7h94.282"/>
  <path id="path998" d="m180.58 1042.8h94.29"/>
  <path id="path1000" d="m180.57 1042.9h94.298"/>
  <path id="path1002" d="m180.57 1043h94.306"/>
  <path id="path1004" d="m180.57 1043.1h94.315"/>
  <path id="path1006" d="m180.56 1043.2h94.323"/>
  <path id="path1008" d="m180.56 1043.3h94.331"/>
  <path id="path1010" d="m180.56 1043.4h94.323"/>
  <path id="path1012" d="m180.57 1043.5h94.315"/>
  <path id="path1014" d="m180.57 1043.6h94.306"/>
  <path id="path1016" d="m180.57 1043.7h94.298"/>
  <path id="path1018" d="m180.58 1043.8h94.29"/>
  <path id="path1020" d="m180.58 1043.9h94.282"/>
  <path id="path1022" d="m180.59 1044h94.273"/>
  <path id="path1024" d="m180.59 1044.1h94.265"/>
  <path id="path1026" d="m180.59 1044.2h94.257"/>
  <path id="path1028" d="m180.6 1044.2h94.249"/>
  <path id="path1030" d="m180.6 1044.3h94.24"/>
  <path id="path1032" d="m180.61 1044.4h94.232"/>
  <path id="path1034" d="m180.61 1044.5h94.224"/>
  <path id="path1036" d="m180.61 1044.6h94.216"/>
  <path id="path1038" d="m180.62 1044.7h94.207"/>
  <path id="path1040" d="m180.62 1044.8h94.199"/>
  <path id="path1042" d="m180.63 1044.9h94.191"/>
  <path id="path1044" d="m180.63 1045h94.183"/>
  <path id="path1046" d="m180.64 1045.1h94.174"/>
  <path id="path1048" d="m180.64 1045.2h94.166"/>
  <path id="path1050" d="m180.64 1045.3h94.158"/>
  <path id="path1052" d="m180.65 1045.4h94.15"/>
  <path id="path1054" d="m180.65 1045.5h94.142"/>
  <path id="path1056" d="m180.66 1045.6h94.133"/>
  <path id="path1058" d="m180.66 1045.7h94.125"/>
  <path id="path1060" d="m180.66 1045.8h94.117"/>
  <path id="path1062" d="m180.67 1045.8h94.109"/>
  <path id="path1064" d="m180.67 1045.9h94.1"/>
  <path id="path1066" d="m180.68 1046h94.092"/>
  <path id="path1068" d="m180.68 1046.1h94.084"/>
  <path id="path1070" d="m180.68 1046.2h94.076"/>
  <path id="path1072" d="m180.69 1046.3h94.067"/>
  <path id="path1074" d="m180.69 1046.4h94.059"/>
  <path id="path1076" d="m180.7 1046.5h94.051"/>
  <path id="path1078" d="m180.7 1046.6h94.043"/>
  <path id="path1080" d="m180.71 1046.7h94.034"/>
  <path id="path1082" d="m180.71 1046.8h94.026"/>
  <path id="path1084" d="m180.71 1046.9h94.018"/>
  <path id="path1086" d="m180.72 1047h94.01"/>
  <path id="path1088" d="m180.72 1047.1h94.002"/>
  <path id="path1090" d="m180.73 1047.2h93.993"/>
  <path id="path1092" d="m180.73 1047.3h93.985"/>
  <path id="path1094" d="m180.73 1047.4h93.977"/>
  <path id="path1096" d="m180.74 1047.5h93.962"/>
  <path id="path1098" d="m180.75 1047.5h93.937"/>
  <path id="path1100" d="m180.77 1047.6h93.912"/>
  <path id="path1102" d="m180.78 1047.7h93.887"/>
  <path id="path1104" d="m180.79 1047.8h93.862"/>
  <path id="path1106" d="m180.8 1047.9h93.837"/>
  <path id="path1108" d="m180.82 1048h93.813"/>
  <path id="path1110" d="m180.83 1048.1h93.788"/>
  <path id="path1112" d="m180.84 1048.2h93.763"/>
  <path id="path1114" d="m180.85 1048.3h93.738"/>
  <path id="path1116" d="m180.87 1048.4h93.713"/>
  <path id="path1118" d="m180.88 1048.5h93.688"/>
  <path id="path1120" d="m180.89 1048.6h93.663"/>
  <path id="path1122" d="m180.9 1048.7h93.639"/>
  <path id="path1124" d="m180.92 1048.8h93.614"/>
  <path id="path1126" d="m180.93 1048.9h93.589"/>
  <path id="path1128" d="m180.94 1049h93.564"/>
  <path id="path1130" d="m180.95 1049.1h93.539"/>
  <path id="path1132" d="m180.97 1049.1h93.514"/>
  <path id="path1134" d="m180.98 1049.2h93.49"/>
  <path id="path1136" d="m180.99 1049.3h93.465"/>
  <path id="path1138" d="m181 1049.4h93.44"/>
  <path id="path1140" d="m181.02 1049.5h93.415"/>
  <path id="path1142" d="m181.03 1049.6h93.39"/>
  <path id="path1144" d="m181.04 1049.7h93.365"/>
  <path id="path1146" d="m181.05 1049.8h93.341"/>
  <path id="path1148" d="m181.06 1049.9h93.316"/>
  <path id="path1150" d="m181.08 1050h93.291"/>
  <path id="path1152" d="m181.09 1050.1h93.266"/>
  <path id="path1154" d="m181.1 1050.2h93.241"/>
  <path id="path1156" d="m181.11 1050.3h93.216"/>
  <path id="path1158" d="m181.13 1050.4h93.192"/>
  <path id="path1160" d="m181.14 1050.5h93.167"/>
  <path id="path1162" d="m181.15 1050.6h93.142"/>
  <path id="path1164" d="m181.16 1050.7h93.117"/>
  <path id="path1166" d="m181.18 1050.8h93.092"/>
  <path id="path1168" d="m181.19 1050.8h93.067"/>
  <path id="path1170" d="m181.2 1050.9h93.043"/>
  <path id="path1172" d="m181.21 1051h93.018"/>
  <path id="path1174" d="m181.23 1051.1h92.993"/>
  <path id="path1176" d="m181.24 1051.2h92.968"/>
  <path id="path1178" d="m181.25 1051.3h92.943"/>
  <path id="path1180" d="m181.26 1051.4h92.918"/>
  <path id="path1182" d="m181.28 1051.5h92.891"/>
  <path id="path1184" d="m181.3 1051.6h92.849"/>
  <path id="path1186" d="m181.32 1051.7h92.807"/>
  <path id="path1188" d="m181.34 1051.8h92.765"/>
  <path id="path1190" d="m181.36 1051.9h92.723"/>
  <path id="path1192" d="m181.38 1052h92.681"/>
  <path id="path1194" d="m181.4 1052.1h92.64"/>
  <path id="path1196" d="m181.42 1052.2h92.598"/>
  <path id="path1198" d="m181.44 1052.3h92.556"/>
  <path id="path1200" d="m181.47 1052.4h92.514"/>
  <path id="path1202" d="m181.49 1052.5h92.472"/>
  <path id="path1204" d="m181.51 1052.5h92.43"/>
  <path id="path1206" d="m181.53 1052.6h92.389"/>
  <path id="path1208" d="m181.55 1052.7h92.347"/>
  <path id="path1210" d="m181.57 1052.8h92.305"/>
  <path id="path1212" d="m181.59 1052.9h92.263"/>
  <path id="path1214" d="m181.61 1053h92.221"/>
  <path id="path1216" d="m181.63 1053.1h92.179"/>
  <path id="path1218" d="m181.65 1053.2h92.138"/>
  <path id="path1220" d="m181.67 1053.3h92.096"/>
  <path id="path1222" d="m181.7 1053.4h92.054"/>
  <path id="path1224" d="m181.72 1053.5h92.012"/>
  <path id="path1226" d="m181.74 1053.6h91.97"/>
  <path id="path1228" d="m181.76 1053.7h91.929"/>
  <path id="path1230" d="m181.78 1053.8h91.887"/>
  <path id="path1232" d="m181.8 1053.9h91.845"/>
  <path id="path1234" d="m181.82 1054h91.803"/>
  <path id="path1236" d="m181.84 1054.1h91.761"/>
  <path id="path1238" d="m181.86 1054.1h91.719"/>
  <path id="path1240" d="m181.88 1054.2h91.678"/>
  <path id="path1242" d="m181.9 1054.3h91.636"/>
  <path id="path1244" d="m181.93 1054.4h91.594"/>
  <path id="path1246" d="m181.95 1054.5h91.552"/>
  <path id="path1248" d="m181.97 1054.6h91.51"/>
  <path id="path1250" d="m181.99 1054.7h91.468"/>
  <path id="path1252" d="m182.01 1054.8h91.427"/>
  <path id="path1254" d="m182.03 1054.9h91.385"/>
  <path id="path1256" d="m182.05 1055h91.343"/>
  <path id="path1258" d="m182.07 1055.1h91.301"/>
  <path id="path1260" d="m182.09 1055.2h91.259"/>
  <path id="path1262" d="m182.11 1055.3h91.217"/>
  <path id="path1264" d="m182.13 1055.4h91.176"/>
  <path id="path1266" d="m182.16 1055.5h91.134"/>
  <path id="path1268" d="m182.18 1055.6h91.082"/>
  <path id="path1270" d="m182.21 1055.7h91.022"/>
  <path id="path1272" d="m182.24 1055.8h90.963"/>
  <path id="path1274" d="m182.27 1055.8h90.903"/>
  <path id="path1276" d="m182.3 1055.9h90.844"/>
  <path id="path1278" d="m182.33 1056h90.784"/>
  <path id="path1280" d="m182.36 1056.1h90.725"/>
  <path id="path1282" d="m182.39 1056.2h90.665"/>
  <path id="path1284" d="m182.42 1056.3h90.606"/>
  <path id="path1286" d="m182.45 1056.4h90.546"/>
  <path id="path1288" d="m182.48 1056.5h90.487"/>
  <path id="path1290" d="m182.51 1056.6h90.427"/>
  <path id="path1292" d="m182.54 1056.7h90.368"/>
  <path id="path1294" d="m182.57 1056.8h90.308"/>
  <path id="path1296" d="m182.6 1056.9h90.249"/>
  <path id="path1298" d="m182.63 1057h90.189"/>
  <path id="path1300" d="m182.66 1057.1h90.13"/>
  <path id="path1302" d="m182.69 1057.2h90.07"/>
  <path id="path1304" d="m182.72 1057.3h90.011"/>
  <path id="path1306" d="m182.75 1057.4h89.951"/>
  <path id="path1308" d="m182.78 1057.4h89.892"/>
  <path id="path1310" d="m182.81 1057.5h89.832"/>
  <path id="path1312" d="m182.84 1057.6h89.773"/>
  <path id="path1314" d="m182.87 1057.7h89.713"/>
  <path id="path1316" d="m182.9 1057.8h89.654"/>
  <path id="path1318" d="m182.93 1057.9h89.594"/>
  <path id="path1320" d="m182.96 1058h89.535"/>
  <path id="path1322" d="m182.99 1058.1h89.475"/>
  <path id="path1324" d="m183.01 1058.2h89.416"/>
  <path id="path1326" d="m183.04 1058.3h89.356"/>
  <path id="path1328" d="m183.07 1058.4h89.297"/>
  <path id="path1330" d="m183.1 1058.5h89.238"/>
  <path id="path1332" d="m183.13 1058.6h89.178"/>
  <path id="path1334" d="m183.16 1058.7h89.119"/>
  <path id="path1336" d="m183.19 1058.8h89.059"/>
  <path id="path1338" d="m183.22 1058.9h89"/>
  <path id="path1340" d="m183.25 1059h88.94"/>
  <path id="path1342" d="m183.28 1059.1h88.881"/>
  <path id="path1344" d="m183.31 1059.1h88.821"/>
  <path id="path1346" d="m183.34 1059.2h88.762"/>
  <path id="path1348" d="m183.37 1059.3h88.702"/>
  <path id="path1350" d="m183.4 1059.4h88.643"/>
  <path id="path1352" d="m183.44 1059.5h88.565"/>
  <path id="path1354" d="m183.48 1059.6h88.487"/>
  <path id="path1356" d="m183.52 1059.7h88.408"/>
  <path id="path1358" d="m183.56 1059.8h88.33"/>
  <path id="path1360" d="m183.6 1059.9h88.252"/>
  <path id="path1362" d="m183.64 1060h88.174"/>
  <path id="path1364" d="m183.67 1060.1h88.096"/>
  <path id="path1366" d="m183.71 1060.2h88.018"/>
  <path id="path1368" d="m183.75 1060.3h87.94"/>
  <path id="path1370" d="m183.79 1060.4h87.861"/>
  <path id="path1372" d="m183.83 1060.5h87.783"/>
  <path id="path1374" d="m183.87 1060.6h87.705"/>
  <path id="path1376" d="m183.91 1060.7h87.627"/>
  <path id="path1378" d="m183.95 1060.8h87.549"/>
  <path id="path1380" d="m183.99 1060.8h87.471"/>
  <path id="path1382" d="m184.03 1060.9h87.392"/>
  <path id="path1384" d="m184.07 1061h87.314"/>
  <path id="path1386" d="m184.1 1061.1h87.236"/>
  <path id="path1388" d="m184.14 1061.2h87.158"/>
  <path id="path1390" d="m184.18 1061.3h87.08"/>
  <path id="path1392" d="m184.22 1061.4h87.002"/>
  <path id="path1394" d="m184.26 1061.5h86.924"/>
  <path id="path1396" d="m184.3 1061.6h86.846"/>
  <path id="path1398" d="m184.34 1061.7h86.767"/>
  <path id="path1400" d="m184.38 1061.8h86.689"/>
  <path id="path1402" d="m184.42 1061.9h86.611"/>
  <path id="path1404" d="m184.46 1062h86.533"/>
  <path id="path1406" d="m184.5 1062.1h86.455"/>
  <path id="path1408" d="m184.53 1062.2h86.377"/>
  <path id="path1410" d="m184.57 1062.3h86.298"/>
  <path id="path1412" d="m184.61 1062.4h86.22"/>
  <path id="path1414" d="m184.65 1062.4h86.142"/>
  <path id="path1416" d="m184.69 1062.5h86.064"/>
  <path id="path1418" d="m184.73 1062.6h85.986"/>
  <path id="path1420" d="m184.77 1062.7h85.908"/>
  <path id="path1422" d="m184.81 1062.8h85.83"/>
  <path id="path1424" d="m184.85 1062.9h85.751"/>
  <path id="path1426" d="m184.89 1063h85.673"/>
  <path id="path1428" d="m184.93 1063.1h85.595"/>
  <path id="path1430" d="m184.96 1063.2h85.517"/>
  <path id="path1432" d="m185.01 1063.3h85.425"/>
  <path id="path1434" d="m185.06 1063.4h85.327"/>
  <path id="path1436" d="m185.11 1063.5h85.229"/>
  <path id="path1438" d="m185.16 1063.6h85.13"/>
  <path id="path1440" d="m185.21 1063.7h85.032"/>
  <path id="path1442" d="m185.26 1063.8h84.934"/>
  <path id="path1444" d="m185.3 1063.9h84.836"/>
  <path id="path1446" d="m185.35 1064h84.738"/>
  <path id="path1448" d="m185.4 1064.1h84.639"/>
  <path id="path1450" d="m185.45 1064.1h84.541"/>
  <path id="path1452" d="m185.5 1064.2h84.443"/>
  <path id="path1454" d="m185.55 1064.3h84.345"/>
  <path id="path1456" d="m185.6 1064.4h84.246"/>
  <path id="path1458" d="m185.65 1064.5h84.148"/>
  <path id="path1460" d="m185.7 1064.6h84.05"/>
  <path id="path1462" d="m185.75 1064.7h83.952"/>
  <path id="path1464" d="m185.8 1064.8h83.854"/>
  <path id="path1466" d="m185.85 1064.9h83.755"/>
  <path id="path1468" d="m185.89 1065h83.657"/>
  <path id="path1470" d="m185.94 1065.1h83.559"/>
  <path id="path1472" d="m185.99 1065.2h83.461"/>
  <path id="path1474" d="m186.04 1065.3h83.363"/>
  <path id="path1476" d="m186.09 1065.4h83.264"/>
  <path id="path1478" d="m186.14 1065.5h83.166"/>
  <path id="path1480" d="m186.19 1065.6h83.068"/>
  <path id="path1482" d="m186.24 1065.7h82.97"/>
  <path id="path1484" d="m186.29 1065.8h82.872"/>
  <path id="path1486" d="m186.34 1065.8h82.773"/>
  <path id="path1488" d="m186.39 1065.9h82.675"/>
  <path id="path1490" d="m186.43 1066h82.577"/>
  <path id="path1492" d="m186.48 1066.1h82.479"/>
  <path id="path1494" d="m186.53 1066.2h82.38"/>
  <path id="path1496" d="m186.58 1066.3h82.282"/>
  <path id="path1498" d="m186.63 1066.4h82.184"/>
  <path id="path1500" d="m186.68 1066.5h82.086"/>
  <path id="path1502" d="m186.73 1066.6h81.988"/>
  <path id="path1504" d="m186.78 1066.7h81.889"/>
  <path id="path1506" d="m186.83 1066.8h81.791"/>
  <path id="path1508" d="m186.88 1066.9h81.693"/>
  <path id="path1510" d="m186.94 1067h81.573"/>
  <path id="path1512" d="m187 1067.1h81.453"/>
  <path id="path1514" d="m187.06 1067.2h81.332"/>
  <path id="path1516" d="m187.12 1067.3h81.212"/>
  <path id="path1518" d="m187.18 1067.4h81.092"/>
  <path id="path1520" d="m187.24 1067.4h80.972"/>
  <path id="path1522" d="m187.3 1067.5h80.852"/>
  <path id="path1524" d="m187.36 1067.6h80.732"/>
  <path id="path1526" d="m187.42 1067.7h80.611"/>
  <path id="path1528" d="m187.48 1067.8h80.491"/>
  <path id="path1530" d="m187.54 1067.9h80.371"/>
  <path id="path1532" d="m187.6 1068h80.251"/>
  <path id="path1534" d="m187.66 1068.1h80.131"/>
  <path id="path1536" d="m187.72 1068.2h80.01"/>
  <path id="path1538" d="m187.78 1068.3h79.89"/>
  <path id="path1540" d="m187.84 1068.4h79.77"/>
  <path id="path1542" d="m187.9 1068.5h79.65"/>
  <path id="path1544" d="m187.96 1068.6h79.53"/>
  <path id="path1546" d="m188.02 1068.7h79.409"/>
  <path id="path1548" d="m188.08 1068.8h79.289"/>
  <path id="path1550" d="m188.14 1068.9h79.169"/>
  <path id="path1552" d="m188.2 1069h79.049"/>
  <path id="path1554" d="m188.26 1069.1h78.929"/>
  <path id="path1556" d="m188.32 1069.1h78.808"/>
  <path id="path1558" d="m188.38 1069.2h78.688"/>
  <path id="path1560" d="m188.44 1069.3h78.568"/>
  <path id="path1562" d="m188.5 1069.4h78.448"/>
  <path id="path1564" d="m188.56 1069.5h78.328"/>
  <path id="path1566" d="m188.62 1069.6h78.207"/>
  <path id="path1568" d="m188.68 1069.7h78.087"/>
  <path id="path1570" d="m188.74 1069.8h77.967"/>
  <path id="path1572" d="m188.8 1069.9h77.847"/>
  <path id="path1574" d="m188.86 1070h77.727"/>
  <path id="path1576" d="m188.92 1070.1h77.606"/>
  <path id="path1578" d="m188.98 1070.2h77.486"/>
  <path id="path1580" d="m189.04 1070.3h77.366"/>
  <path id="path1582" d="m189.1 1070.4h77.241"/>
  <path id="path1584" d="m189.17 1070.5h77.096"/>
  <path id="path1586" d="m189.25 1070.6h76.951"/>
  <path id="path1588" d="m189.32 1070.7h76.806"/>
  <path id="path1590" d="m189.39 1070.8h76.662"/>
  <path id="path1592" d="m189.46 1070.8h76.517"/>
  <path id="path1594" d="m189.54 1070.9h76.372"/>
  <path id="path1596" d="m189.61 1071h76.227"/>
  <path id="path1598" d="m189.68 1071.1h76.083"/>
  <path id="path1600" d="m189.75 1071.2h75.938"/>
  <path id="path1602" d="m189.83 1071.3h75.793"/>
  <path id="path1604" d="m189.9 1071.4h75.648"/>
  <path id="path1606" d="m189.97 1071.5h75.504"/>
  <path id="path1608" d="m190.04 1071.6h75.359"/>
  <path id="path1610" d="m190.12 1071.7h75.214"/>
  <path id="path1612" d="m190.19 1071.8h75.069"/>
  <path id="path1614" d="m190.26 1071.9h74.924"/>
  <path id="path1616" d="m190.33 1072h74.78"/>
  <path id="path1618" d="m190.41 1072.1h74.635"/>
  <path id="path1620" d="m190.48 1072.2h74.49"/>
  <path id="path1622" d="m190.55 1072.3h74.346"/>
  <path id="path1624" d="m190.62 1072.4h74.201"/>
  <path id="path1626" d="m190.69 1072.4h74.056"/>
  <path id="path1628" d="m190.77 1072.5h73.911"/>
  <path id="path1630" d="m190.84 1072.6h73.766"/>
  <path id="path1632" d="m190.91 1072.7h73.622"/>
  <path id="path1634" d="m190.98 1072.8h73.477"/>
  <path id="path1636" d="m191.06 1072.9h73.332"/>
  <path id="path1638" d="m191.13 1073h73.187"/>
  <path id="path1640" d="m191.2 1073.1h73.043"/>
  <path id="path1642" d="m191.27 1073.2h72.898"/>
  <path id="path1644" d="m191.35 1073.3h72.753"/>
  <path id="path1646" d="m191.42 1073.4h72.608"/>
  <path id="path1648" d="m191.49 1073.5h72.464"/>
  <path id="path1650" d="m191.56 1073.6h72.319"/>
  <path id="path1652" d="m191.64 1073.7h72.157"/>
  <path id="path1654" d="m191.73 1073.8h71.984"/>
  <path id="path1656" d="m191.82 1073.9h71.811"/>
  <path id="path1658" d="m191.9 1074h71.638"/>
  <path id="path1660" d="m191.99 1074.1h71.466"/>
  <path id="path1662" d="m192.08 1074.1h71.293"/>
  <path id="path1664" d="m192.16 1074.2h71.12"/>
  <path id="path1666" d="m192.25 1074.3h70.947"/>
  <path id="path1668" d="m192.34 1074.4h70.774"/>
  <path id="path1670" d="m192.42 1074.5h70.601"/>
  <path id="path1672" d="m192.51 1074.6h70.428"/>
  <path id="path1674" d="m192.6 1074.7h70.255"/>
  <path id="path1676" d="m192.68 1074.8h70.082"/>
  <path id="path1678" d="m192.77 1074.9h69.91"/>
  <path id="path1680" d="m192.85 1075h69.737"/>
  <path id="path1682" d="m192.94 1075.1h69.564"/>
  <path id="path1684" d="m193.03 1075.2h69.391"/>
  <path id="path1686" d="m193.11 1075.3h69.218"/>
  <path id="path1688" d="m193.2 1075.4h69.045"/>
  <path id="path1690" d="m193.29 1075.5h68.872"/>
  <path id="path1692" d="m193.37 1075.6h68.699"/>
  <path id="path1694" d="m193.46 1075.7h68.527"/>
  <path id="path1696" d="m193.55 1075.8h68.354"/>
  <path id="path1698" d="m193.63 1075.8h68.181"/>
  <path id="path1700" d="m193.72 1075.9h68.008"/>
  <path id="path1702" d="m193.81 1076h67.835"/>
  <path id="path1704" d="m193.89 1076.1h67.662"/>
  <path id="path1706" d="m193.98 1076.2h67.489"/>
  <path id="path1708" d="m194.06 1076.3h67.316"/>
  <path id="path1710" d="m194.15 1076.4h67.144"/>
  <path id="path1712" d="m194.24 1076.5h66.971"/>
  <path id="path1714" d="m194.32 1076.6h66.798"/>
  <path id="path1716" d="m194.42 1076.7h66.61"/>
  <path id="path1718" d="m194.52 1076.8h66.404"/>
  <path id="path1720" d="m194.62 1076.9h66.198"/>
  <path id="path1722" d="m194.73 1077h65.993"/>
  <path id="path1724" d="m194.83 1077.1h65.787"/>
  <path id="path1726" d="m194.93 1077.2h65.581"/>
  <path id="path1728" d="m195.04 1077.3h65.375"/>
  <path id="path1730" d="m195.14 1077.4h65.169"/>
  <path id="path1732" d="m195.24 1077.4h64.963"/>
  <path id="path1734" d="m195.34 1077.5h64.757"/>
  <path id="path1736" d="m195.45 1077.6h64.551"/>
  <path id="path1738" d="m195.55 1077.7h64.345"/>
  <path id="path1740" d="m195.65 1077.8h64.14"/>
  <path id="path1742" d="m195.76 1077.9h63.934"/>
  <path id="path1744" d="m195.86 1078h63.728"/>
  <path id="path1746" d="m195.96 1078.1h63.522"/>
  <path id="path1748" d="m196.06 1078.2h63.316"/>
  <path id="path1750" d="m196.17 1078.3h63.11"/>
  <path id="path1752" d="m196.27 1078.4h62.904"/>
  <path id="path1754" d="m196.37 1078.5h62.698"/>
  <path id="path1756" d="m196.48 1078.6h62.492"/>
  <path id="path1758" d="m196.58 1078.7h62.287"/>
  <path id="path1760" d="m196.68 1078.8h62.081"/>
  <path id="path1762" d="m196.79 1078.9h61.875"/>
  <path id="path1764" d="m196.89 1079h61.669"/>
  <path id="path1766" d="m196.99 1079.1h61.463"/>
  <path id="path1768" d="m197.09 1079.1h61.257"/>
  <path id="path1770" d="m197.2 1079.2h61.051"/>
  <path id="path1772" d="m197.3 1079.3h60.845"/>
  <path id="path1774" d="m197.4 1079.4h60.639"/>
  <path id="path1776" d="m197.53 1079.5h60.394"/>
  <path id="path1778" d="m197.65 1079.6h60.149"/>
  <path id="path1780" d="m197.77 1079.7h59.903"/>
  <path id="path1782" d="m197.89 1079.8h59.657"/>
  <path id="path1784" d="m198.02 1079.9h59.411"/>
  <path id="path1786" d="m198.14 1080h59.165"/>
  <path id="path1788" d="m198.26 1080.1h58.919"/>
  <path id="path1790" d="m198.39 1080.2h58.673"/>
  <path id="path1792" d="m198.51 1080.3h58.428"/>
  <path id="path1794" d="m198.63 1080.4h58.182"/>
  <path id="path1796" d="m198.75 1080.5h57.936"/>
  <path id="path1798" d="m198.88 1080.6h57.69"/>
  <path id="path1800" d="m199 1080.7h57.444"/>
  <path id="path1802" d="m199.12 1080.8h57.198"/>
  <path id="path1804" d="m199.25 1080.8h56.952"/>
  <path id="path1806" d="m199.37 1080.9h56.706"/>
  <path id="path1808" d="m199.49 1081h56.461"/>
  <path id="path1810" d="m199.62 1081.1h56.215"/>
  <path id="path1812" d="m199.74 1081.2h55.969"/>
  <path id="path1814" d="m199.86 1081.3h55.723"/>
  <path id="path1816" d="m199.98 1081.4h55.477"/>
  <path id="path1818" d="m200.11 1081.5h55.231"/>
  <path id="path1820" d="m200.23 1081.6h54.985"/>
  <path id="path1822" d="m200.35 1081.7h54.739"/>
  <path id="path1824" d="m200.48 1081.8h54.494"/>
  <path id="path1826" d="m200.6 1081.9h54.248"/>
  <path id="path1828" d="m200.73 1082h53.98"/>
  <path id="path1830" d="m200.88 1082.1h53.684"/>
  <path id="path1832" d="m201.03 1082.2h53.388"/>
  <path id="path1834" d="m201.18 1082.3h53.092"/>
  <path id="path1836" d="m201.32 1082.4h52.796"/>
  <path id="path1838" d="m201.47 1082.4h52.5"/>
  <path id="path1840" d="m201.62 1082.5h52.204"/>
  <path id="path1842" d="m201.77 1082.6h51.907"/>
  <path id="path1844" d="m201.92 1082.7h51.611"/>
  <path id="path1846" d="m202.07 1082.8h51.315"/>
  <path id="path1848" d="m202.21 1082.9h51.019"/>
  <path id="path1850" d="m202.36 1083h50.723"/>
  <path id="path1852" d="m202.51 1083.1h50.427"/>
  <path id="path1854" d="m202.66 1083.2h50.131"/>
  <path id="path1856" d="m202.81 1083.3h49.834"/>
  <path id="path1858" d="m202.95 1083.4h49.538"/>
  <path id="path1860" d="m203.1 1083.5h49.242"/>
  <path id="path1862" d="m203.25 1083.6h48.946"/>
  <path id="path1864" d="m203.4 1083.7h48.65"/>
  <path id="path1866" d="m203.55 1083.8h48.354"/>
  <path id="path1868" d="m203.69 1083.9h48.058"/>
  <path id="path1870" d="m203.84 1084h47.762"/>
  <path id="path1872" d="m203.99 1084.1h47.465"/>
  <path id="path1874" d="m204.14 1084.1h47.169"/>
  <path id="path1876" d="m204.32 1084.2h46.808"/>
  <path id="path1878" d="m204.5 1084.3h46.445"/>
  <path id="path1880" d="m204.68 1084.4h46.083"/>
  <path id="path1882" d="m204.86 1084.5h45.72"/>
  <path id="path1884" d="m205.04 1084.6h45.358"/>
  <path id="path1886" d="m205.22 1084.7h44.996"/>
  <path id="path1888" d="m205.41 1084.8h44.633"/>
  <path id="path1890" d="m205.59 1084.9h44.271"/>
  <path id="path1892" d="m205.77 1085h43.908"/>
  <path id="path1894" d="m205.95 1085.1h43.546"/>
  <path id="path1896" d="m206.13 1085.2h43.183"/>
  <path id="path1898" d="m206.31 1085.3h42.821"/>
  <path id="path1900" d="m206.49 1085.4h42.459"/>
  <path id="path1902" d="m206.67 1085.5h42.096"/>
  <path id="path1904" d="m206.86 1085.6h41.734"/>
  <path id="path1906" d="m207.04 1085.7h41.371"/>
  <path id="path1908" d="m207.22 1085.8h41.009"/>
  <path id="path1910" d="m207.4 1085.8h40.646"/>
  <path id="path1912" d="m207.58 1085.9h40.284"/>
  <path id="path1914" d="m207.76 1086h39.922"/>
  <path id="path1916" d="m207.98 1086.1h39.48"/>
  <path id="path1918" d="m208.21 1086.2h39.025"/>
  <path id="path1920" d="m208.44 1086.3h38.57"/>
  <path id="path1922" d="m208.67 1086.4h38.114"/>
  <path id="path1924" d="m208.89 1086.5h37.659"/>
  <path id="path1926" d="m209.12 1086.6h37.203"/>
  <path id="path1928" d="m209.35 1086.7h36.748"/>
  <path id="path1930" d="m209.58 1086.8h36.292"/>
  <path id="path1932" d="m209.8 1086.9h35.837"/>
  <path id="path1934" d="m210.03 1087h35.381"/>
  <path id="path1936" d="m210.26 1087.1h34.926"/>
  <path id="path1938" d="m210.49 1087.2h34.47"/>
  <path id="path1940" d="m210.72 1087.3h34.015"/>
  <path id="path1942" d="m210.94 1087.4h33.559"/>
  <path id="path1944" d="m211.17 1087.4h33.104"/>
  <path id="path1946" d="m211.4 1087.5h32.649"/>
  <path id="path1948" d="m211.64 1087.6h32.171"/>
  <path id="path1950" d="m211.94 1087.7h31.573"/>
  <path id="path1952" d="m212.24 1087.8h30.974"/>
  <path id="path1954" d="m212.53 1087.9h30.376"/>
  <path id="path1956" d="m212.83 1088h29.778"/>
  <path id="path1958" d="m213.13 1088.1h29.179"/>
  <path id="path1960" d="m213.43 1088.2h28.581"/>
  <path id="path1962" d="m213.73 1088.3h27.983"/>
  <path id="path1964" d="m214.03 1088.4h27.384"/>
  <path id="path1966" d="m214.33 1088.5h26.786"/>
  <path id="path1968" d="m214.63 1088.6h26.187"/>
  <path id="path1970" d="m214.93 1088.7h25.589"/>
  <path id="path1972" d="m215.23 1088.8h24.991"/>
  <path id="path1974" d="m215.53 1088.9h24.383"/>
  <path id="path1976" d="m215.96 1089h23.532"/>
  <path id="path1978" d="m216.38 1089.1h22.681"/>
  <path id="path1980" d="m216.81 1089.1h21.83"/>
  <path id="path1982" d="m217.23 1089.2h20.979"/>
  <path id="path1984" d="m217.66 1089.3h20.128"/>
  <path id="path1986" d="m218.08 1089.4h19.277"/>
  <path id="path1988" d="m218.51 1089.5h18.426"/>
  <path id="path1990" d="m218.94 1089.6h17.575"/>
  <path id="path1992" d="m219.36 1089.7h16.724"/>
  <path id="path1994" d="m219.96 1089.8h15.527"/>
  <path id="path1996" d="m220.68 1089.9h14.094"/>
  <path id="path1998" d="m221.39 1090h12.66"/>
  <path id="path2000" d="m222.11 1090.1h11.227"/>
  <path id="path2002" d="m222.83 1090.2h9.794"/>
  <path id="path2004" d="m223.54 1090.3h8.361"/>
  <path id="path2006" d="m225.56 1090.4h4.321"/>
  <path id="path2008" d="m274.89 1043.3-0.18 4.11-0.537 4.08-0.89 4.017-1.238 3.924-1.574 3.802-1.9 3.649-2.211 3.471-2.505 3.264-2.78 3.034-3.033 2.78"/>
  <path id="path2010" d="m258.04 1079.4-3.265 2.504-3.47 2.211-3.65 1.9-3.801 1.575-3.924 1.237-4.018 0.891-4.079 0.537-4.111 0.179-4.11-0.179-4.08-0.537"/>
  <path id="path2012" d="m219.53 1089.8-4.017-0.891-3.924-1.237-3.802-1.575-3.65-1.9-3.47-2.211-3.264-2.504-3.034-2.78-2.78-3.034-2.504-3.264-2.211-3.471"/>
  <path id="path2014" d="m186.88 1066.9-1.9-3.649-1.575-3.802-1.237-3.924-0.891-4.017-0.537-4.08-0.179-4.11 0.179-4.111 0.537-4.08 0.891-4.017 1.237-3.924"/>
  <path id="path2016" d="m183.4 1027.2 1.575-3.801 1.9-3.65 2.211-3.47 2.504-3.265 2.78-3.033 3.034-2.78 3.264-2.505 3.47-2.211 3.65-1.9 3.802-1.574"/>
  <path id="path2018" d="m211.59 998.98 3.924-1.238 4.017-0.89 4.08-0.537 4.11-0.18 4.111 0.18 4.079 0.537 4.018 0.89 3.924 1.238 3.801 1.574 3.65 1.9"/>
  <path id="path2020" d="m251.31 1002.5 3.47 2.211 3.265 2.505 3.033 2.78 2.78 3.033 2.505 3.265 2.211 3.47 1.9 3.65 1.574 3.801 1.238 3.924 0.89 4.017"/>
  <path id="path2022" d="m274.17 1035.1 0.537 4.08 0.18 4.111-0.18 4.11"/>
 </g>
</svg>
