<?xml version="1.0" encoding="UTF-8" standalone="no"?>
<svg
   width="459.46283"
   height="582.08148"
   viewBox="0 0 459.46283 582.08147"
   version="1.1"
   id="svg32"
   sodipodi:docname="DAYTRI25.hpgl.svg"
   inkscape:version="1.1.2 (0a00cf5339, 2022-02-04)"
   xmlns:inkscape="http://www.inkscape.org/namespaces/inkscape"
   xmlns:sodipodi="http://sodipodi.sourceforge.net/DTD/sodipodi-0.dtd"
   xmlns="http://www.w3.org/2000/svg"
   xmlns:svg="http://www.w3.org/2000/svg">
  <defs
     id="defs36" />
  <sodipodi:namedview
     id="namedview34"
     pagecolor="#ffffff"
     bordercolor="#666666"
     borderopacity="1.0"
     inkscape:pageshadow="2"
     inkscape:pageopacity="0.0"
     inkscape:pagecheckerboard="0"
     showgrid="false"
     inkscape:zoom="1.2682364"
     inkscape:cx="233.39497"
     inkscape:cy="-471.91517"
     inkscape:window-width="1495"
     inkscape:window-height="970"
     inkscape:window-x="0"
     inkscape:window-y="32"
     inkscape:window-maximized="0"
     inkscape:current-layer="svg32" />
  <g
     id="g2"
     transform="translate(13.677048,-755.01676)" />
  <g
     style="fill:none;stroke:#000000;stroke-width:1mm"
     id="g4"
     transform="translate(13.677048,-755.01676)" />
  <g
     style="fill:none;stroke:#000000;stroke-width:4mm"
     id="g30"
     transform="translate(13.677048,-755.01676)">
    <path
       d="M -7.2832781,763.476 432.10872,762.603 211.97572,1113.767 -7.2832781,766.097"
       id="path6" />
    <path
       d="m 211.97572,1112.893 v 106.573"
       id="path8" />
    <path
       d="m 267.88272,1272.752 -0.216,4.948 -0.647,4.911 -1.072,4.836 -1.489,4.725 -1.896,4.576 -2.287,4.394 -2.662,4.177 -3.015,3.93 -3.347,3.652 -3.652,3.347"
       id="path10" />
    <path
       d="m 247.59972,1316.248 -3.929,3.015 -4.178,2.662 -4.394,2.287 -4.576,1.896 -4.724,1.489 -4.837,1.072 -4.911,0.647 -4.948,0.216 -4.949,-0.216 -4.911,-0.647"
       id="path12" />
    <path
       d="m 201.24272,1328.669 -4.836,-1.072 -4.724,-1.489 -4.577,-1.896 -4.393,-2.287 -4.178,-2.662 -3.93,-3.015 -3.652,-3.347 -3.347,-3.652 -3.015,-3.93 -2.661,-4.177"
       id="path14" />
    <path
       d="m 161.92972,1301.142 -2.288,-4.394 -1.895,-4.576 -1.49,-4.725 -1.072,-4.836 -0.646,-4.911 -0.217,-4.948 0.216,-4.949 0.647,-4.911 1.072,-4.836 1.49,-4.724"
       id="path16" />
    <path
       d="m 157.74672,1253.332 1.895,-4.577 2.288,-4.393 2.661,-4.178 3.015,-3.93 3.347,-3.652 3.652,-3.347 3.93,-3.015 4.178,-2.661 4.393,-2.288 4.577,-1.895"
       id="path18" />
    <path
       d="m 191.68272,1219.396 4.724,-1.49 4.836,-1.072 4.911,-0.647 4.949,-0.216 4.948,0.216 4.911,0.647 4.837,1.072 4.724,1.49 4.576,1.895 4.394,2.288"
       id="path20" />
    <path
       d="m 239.49272,1223.579 4.178,2.661 3.929,3.015 3.652,3.347 3.347,3.652 3.015,3.93 2.662,4.178 2.287,4.393 1.896,4.577 1.489,4.724 1.072,4.836"
       id="path22" />
    <path
       d="m 267.01972,1262.892 0.647,4.911 0.216,4.949 -0.216,4.948"
       id="path24" />
    <path
       d="M 81.817722,1272.752 H 155.19572"
       id="path26" />
    <path
       d="m 267.88272,1272.752 h 74.251"
       id="path28" />
  </g>
</svg>
