<?xml version="1.0" encoding="UTF-8"?>
<svg id="svg32" width="459.46" height="582.08" version="1.1" viewBox="0 0 459.46 582.08" xmlns="http://www.w3.org/2000/svg">
 <g id="g30" transform="translate(13.677 -755.02)" fill="none" stroke="#000" stroke-width="4mm">
  <path id="path6" d="m-7.2833 763.48 439.39-0.873-220.13 351.16-219.26-347.67"/>
  <path id="path8" d="m211.98 1112.9v106.57"/>
  <path id="path10" d="m267.88 1272.8-0.216 4.948-0.647 4.911-1.072 4.836-1.489 4.725-1.896 4.576-2.287 4.394-2.662 4.177-3.015 3.93-3.347 3.652-3.652 3.347"/>
  <path id="path12" d="m247.6 1316.2-3.929 3.015-4.178 2.662-4.394 2.287-4.576 1.896-4.724 1.489-4.837 1.072-4.911 0.647-4.948 0.216-4.949-0.216-4.911-0.647"/>
  <path id="path14" d="m201.24 1328.7-4.836-1.072-4.724-1.489-4.577-1.896-4.393-2.287-4.178-2.662-3.93-3.015-3.652-3.347-3.347-3.652-3.015-3.93-2.661-4.177"/>
  <path id="path16" d="m161.93 1301.1-2.288-4.394-1.895-4.576-1.49-4.725-1.072-4.836-0.646-4.911-0.217-4.948 0.216-4.949 0.647-4.911 1.072-4.836 1.49-4.724"/>
  <path id="path18" d="m157.75 1253.3 1.895-4.577 2.288-4.393 2.661-4.178 3.015-3.93 3.347-3.652 3.652-3.347 3.93-3.015 4.178-2.661 4.393-2.288 4.577-1.895"/>
  <path id="path20" d="m191.68 1219.4 4.724-1.49 4.836-1.072 4.911-0.647 4.949-0.216 4.948 0.216 4.911 0.647 4.837 1.072 4.724 1.49 4.576 1.895 4.394 2.288"/>
  <path id="path22" d="m239.49 1223.6 4.178 2.661 3.929 3.015 3.652 3.347 3.347 3.652 3.015 3.93 2.662 4.178 2.287 4.393 1.896 4.577 1.489 4.724 1.072 4.836"/>
  <path id="path24" d="m267.02 1262.9 0.647 4.911 0.216 4.949-0.216 4.948"/>
  <path id="path26" d="m81.818 1272.8h73.378"/>
  <path id="path28" d="m267.88 1272.8h74.251"/>
 </g>
</svg>
