<?xml version="1.0" encoding="UTF-8"?>
<svg id="svg32" width="409.9" height="588.81" version="1.1" viewBox="0 0 409.9 588.81" xmlns="http://www.w3.org/2000/svg">
 <g id="g30" transform="translate(13.574 -621.24)" fill="none" stroke="#000" stroke-width="4mm">
  <path id="path6" d="m-7.1619 949.04h389.91l-194.18-313.49-195.73 313.49"/>
  <path id="path8" d="m187.01 949.82v154.4"/>
  <path id="path10" d="m237.7 1151.8-0.192 4.418-0.578 4.384-0.957 4.317-1.329 4.218-1.693 4.085-2.041 3.922-2.376 3.73-2.692 3.508-2.988 3.26-3.26 2.988"/>
  <path id="path12" d="m219.6 1190.6-3.508 2.692-3.73 2.376-3.922 2.041-4.085 1.693-4.218 1.329-4.317 0.957-4.384 0.578-4.418 0.192-4.418-0.192-4.384-0.578"/>
  <path id="path14" d="m178.21 1201.7-4.317-0.957-4.217-1.329-4.086-1.693-3.922-2.041-3.729-2.376-3.509-2.692-3.26-2.988-2.987-3.26-2.692-3.508-2.376-3.73"/>
  <path id="path16" d="m143.12 1177.1-2.042-3.922-1.692-4.085-1.33-4.218-0.957-4.317-0.577-4.384-0.193-4.418 0.193-4.418 0.577-4.384 0.957-4.317 1.33-4.217"/>
  <path id="path18" d="m139.38 1134.5 1.692-4.086 2.042-3.922 2.376-3.729 2.692-3.509 2.987-3.26 3.26-2.987 3.509-2.692 3.729-2.376 3.922-2.042 4.086-1.692"/>
  <path id="path20" d="m169.68 1104.2 4.217-1.33 4.317-0.957 4.384-0.577 4.418-0.193 4.418 0.193 4.384 0.577 4.317 0.957 4.218 1.33 4.085 1.692 3.922 2.042"/>
  <path id="path22" d="m212.36 1107.9 3.73 2.376 3.508 2.692 3.26 2.987 2.988 3.26 2.692 3.509 2.376 3.729 2.041 3.922 1.693 4.086 1.329 4.217 0.957 4.317"/>
  <path id="path24" d="m236.93 1143 0.578 4.384 0.192 4.418-0.192 4.418"/>
  <path id="path26" d="m71.6 1150.2h65.505"/>
  <path id="path28" d="m237.7 1150.2h66.285"/>
 </g>
</svg>
