<?xml version="1.0" encoding="UTF-8"?>
<svg id="svg42" width="582.06" height="372.48" version="1.1" viewBox="0 0 582.06 372.48" xmlns="http://www.w3.org/2000/svg">
 <g id="g40" transform="translate(7.5663 -503.19)" fill="none" stroke="#000" stroke-width="4mm">
  <path id="path6" d="m151.24 782.12h-129.2l260.99-260.13 258.4 260.13h-130.5v85.99h-259.7v-85.99"/>
  <path id="path8" d="m131.36 576.44-0.249 5.724-0.748 5.681-1.241 5.594-1.723 5.465-2.192 5.294-2.646 5.082-3.079 4.833-3.488 4.545-3.871 4.225-4.225 3.871"/>
  <path id="path10" d="m107.9 626.75-4.545 3.488-4.833 3.079-5.082 2.646-5.294 2.192-5.465 1.723-5.594 1.241-5.681 0.748-5.724 0.249-5.725-0.249-5.681-0.748"/>
  <path id="path12" d="m54.275 641.12-5.594-1.241-5.465-1.723-5.293-2.192-5.083-2.646-4.832-3.079-4.546-3.488-4.225-3.871-3.871-4.225-3.488-4.545-3.079-4.833"/>
  <path id="path14" d="m8.799 609.28-2.645-5.082-2.193-5.294-1.723-5.465-1.24-5.594-0.748-5.681-0.25-5.724 0.25-5.725 0.748-5.681 1.24-5.594 1.723-5.465"/>
  <path id="path16" d="m3.961 553.97 2.193-5.293 2.645-5.083 3.079-4.832 3.488-4.546 3.871-4.225 4.225-3.871 4.546-3.488 4.832-3.079 5.083-2.645 5.293-2.193"/>
  <path id="path18" d="m43.216 514.72 5.465-1.723 5.594-1.24 5.681-0.748 5.725-0.25 5.724 0.25 5.681 0.748 5.594 1.24 5.465 1.723 5.294 2.193 5.082 2.645"/>
  <path id="path20" d="m98.521 519.55 4.833 3.079 4.545 3.488 4.225 3.871 3.871 4.225 3.488 4.546 3.079 4.832 2.646 5.083 2.192 5.293 1.723 5.465 1.241 5.594"/>
  <path id="path22" d="m130.36 565.03 0.748 5.681 0.249 5.725-0.249 5.724"/>
  <path id="path24" d="m566.93 576.44-0.245 5.611-0.733 5.569-1.216 5.484-1.689 5.356-2.149 5.19-2.594 4.982-3.018 4.737-3.419 4.456-3.795 4.141-4.141 3.795-4.456 3.419"/>
  <path id="path26" d="m539.47 629.18-4.737 3.018-4.982 2.594-5.19 2.149-5.357 1.689-5.483 1.216-5.569 0.733-5.611 0.245-5.612-0.245-5.569-0.733-5.483-1.216-5.357-1.689"/>
  <path id="path28" d="m480.52 636.94-5.19-2.149-4.982-2.594-4.737-3.018-4.456-3.419-4.141-3.795-3.795-4.141-3.419-4.456-3.018-4.737-2.594-4.982-2.149-5.19"/>
  <path id="path30" d="m442.04 598.46-1.689-5.356-1.216-5.484-0.733-5.569-0.245-5.611 0.245-5.612 0.733-5.569 1.216-5.483 1.689-5.357 2.149-5.189 2.594-4.983"/>
  <path id="path32" d="m446.79 544.24 3.018-4.737 3.419-4.456 3.795-4.141 4.141-3.795 4.456-3.419 4.737-3.018 4.982-2.594 5.19-2.149 5.357-1.689 5.483-1.216"/>
  <path id="path34" d="m491.36 513.03 5.569-0.733 5.612-0.245 5.611 0.245 5.569 0.733 5.483 1.216 5.357 1.689 5.19 2.149 4.982 2.594 4.737 3.018 4.456 3.419 4.141 3.795"/>
  <path id="path36" d="m548.07 530.91 3.795 4.141 3.419 4.456 3.018 4.737 2.594 4.983 2.149 5.189 1.689 5.357 1.216 5.483 0.733 5.569 0.245 5.612-0.245 5.611"/>
  <path id="path38" d="m566.68 582.05"/>
 </g>
</svg>
