<?xml version="1.0" encoding="UTF-8" standalone="no"?>
<svg
   width="582.06152"
   height="372.48032"
   viewBox="0 0 582.06151 372.48033"
   version="1.1"
   id="svg42"
   sodipodi:docname="DIRBOYA1.hpgl.svg"
   inkscape:version="1.1.2 (0a00cf5339, 2022-02-04)"
   xmlns:inkscape="http://www.inkscape.org/namespaces/inkscape"
   xmlns:sodipodi="http://sodipodi.sourceforge.net/DTD/sodipodi-0.dtd"
   xmlns="http://www.w3.org/2000/svg"
   xmlns:svg="http://www.w3.org/2000/svg">
  <defs
     id="defs46" />
  <sodipodi:namedview
     id="namedview44"
     pagecolor="#ffffff"
     bordercolor="#666666"
     borderopacity="1.0"
     inkscape:pageshadow="2"
     inkscape:pageopacity="0.0"
     inkscape:pagecheckerboard="0"
     showgrid="false"
     inkscape:zoom="2.0119992"
     inkscape:cx="290.75558"
     inkscape:cy="-324.3043"
     inkscape:window-width="1495"
     inkscape:window-height="970"
     inkscape:window-x="0"
     inkscape:window-y="32"
     inkscape:window-maximized="0"
     inkscape:current-layer="svg42" />
  <g
     id="g2"
     transform="translate(7.5662565,-503.18874)" />
  <g
     style="fill:none;stroke:#000000;stroke-width:1mm"
     id="g4"
     transform="translate(7.5662565,-503.18874)" />
  <g
     style="fill:none;stroke:#000000;stroke-width:4mm"
     id="g40"
     transform="translate(7.5662565,-503.18874)">
    <path
       d="M 151.239,782.12 H 22.037004 L 283.032,521.99 541.434,782.12 H 410.937 v 85.99 H 151.239 v -85.99"
       id="path6" />
    <path
       d="m 131.361,576.436 -0.249,5.724 -0.748,5.681 -1.241,5.594 -1.723,5.465 -2.192,5.294 -2.646,5.082 -3.079,4.833 -3.488,4.545 -3.871,4.225 -4.225,3.871"
       id="path8" />
    <path
       d="m 107.899,626.75 -4.545,3.488 -4.832996,3.079 -5.082,2.646 -5.294,2.192 -5.465,1.723 -5.594,1.241 -5.681,0.748 -5.724,0.249 -5.725,-0.249 -5.681,-0.748"
       id="path10" />
    <path
       d="m 54.275004,641.119 -5.594,-1.241 -5.465,-1.723 -5.293,-2.192 -5.083,-2.646 -4.832,-3.079 -4.546,-3.488 -4.225,-3.871 -3.871,-4.225 -3.488,-4.545 -3.0790002,-4.833"
       id="path12" />
    <path
       d="m 8.7990038,609.276 -2.645,-5.082 -2.193,-5.294 -1.723,-5.465 -1.23999998,-5.594 -0.748,-5.681 L 3.8239144e-6,576.436 0.25000382,570.711 l 0.748,-5.681 1.23999998,-5.594 1.723,-5.465"
       id="path14" />
    <path
       d="m 3.9610038,553.971 2.193,-5.293 2.645,-5.083 3.0790002,-4.832 3.488,-4.546 3.871,-4.225 4.225,-3.871 4.546,-3.488 4.832,-3.079 5.083,-2.645 5.293,-2.193"
       id="path16" />
    <path
       d="m 43.216004,514.716 5.465,-1.723 5.594,-1.24 5.681,-0.748 5.725,-0.25 5.724,0.25 5.681,0.748 5.594,1.24 5.465,1.723 5.294,2.193 5.082,2.645"
       id="path18" />
    <path
       d="m 98.521004,519.554 4.832996,3.079 4.545,3.488 4.225,3.871 3.871,4.225 3.488,4.546 3.079,4.832 2.646,5.083 2.192,5.293 1.723,5.465 1.241,5.594"
       id="path20" />
    <path
       d="m 130.364,565.03 0.748,5.681 0.249,5.725 v 0 l -0.249,5.724"
       id="path22" />
    <path
       d="m 566.929,576.436 -0.245,5.611 -0.733,5.569 -1.216,5.484 -1.689,5.356 -2.149,5.19 -2.594,4.982 -3.018,4.737 -3.419,4.456 -3.795,4.141 -4.141,3.795 -4.456,3.419"
       id="path24" />
    <path
       d="m 539.474,629.176 -4.737,3.018 -4.982,2.594 -5.19,2.149 -5.357,1.689 -5.483,1.216 -5.569,0.733 -5.611,0.245 -5.612,-0.245 -5.569,-0.733 -5.483,-1.216 -5.357,-1.689"
       id="path26" />
    <path
       d="m 480.524,636.937 -5.19,-2.149 -4.982,-2.594 -4.737,-3.018 -4.456,-3.419 -4.141,-3.795 -3.795,-4.141 -3.419,-4.456 -3.018,-4.737 -2.594,-4.982 -2.149,-5.19"
       id="path28" />
    <path
       d="m 442.043,598.456 -1.689,-5.356 -1.216,-5.484 -0.733,-5.569 -0.245,-5.611 0.245,-5.612 0.733,-5.569 1.216,-5.483 1.689,-5.357 2.149,-5.189 2.594,-4.983"
       id="path30" />
    <path
       d="m 446.786,544.243 3.018,-4.737 3.419,-4.456 3.795,-4.141 4.141,-3.795 4.456,-3.419 4.737,-3.018 4.982,-2.594 5.19,-2.149 5.357,-1.689 5.483,-1.216"
       id="path32" />
    <path
       d="m 491.364,513.029 5.569,-0.733 5.612,-0.245 5.611,0.245 5.569,0.733 5.483,1.216 5.357,1.689 5.19,2.149 4.982,2.594 4.737,3.018 4.456,3.419 4.141,3.795"
       id="path34" />
    <path
       d="m 548.071,530.909 3.795,4.141 3.419,4.456 3.018,4.737 2.594,4.983 2.149,5.189 1.689,5.357 1.216,5.483 0.733,5.569 0.245,5.612 v 0 l -0.245,5.611"
       id="path36" />
    <path
       d="M 566.684,582.047"
       id="path38" />
  </g>
</svg>
