<?xml version="1.0" encoding="UTF-8" standalone="no"?>
<svg
   width="582.05426"
   height="266.49881"
   viewBox="0 0 582.05424 266.49881"
   version="1.1"
   id="svg36"
   sodipodi:docname="DISMAR03.hpgl.svg"
   inkscape:version="1.1.2 (0a00cf5339, 2022-02-04)"
   xmlns:inkscape="http://www.inkscape.org/namespaces/inkscape"
   xmlns:sodipodi="http://sodipodi.sourceforge.net/DTD/sodipodi-0.dtd"
   xmlns="http://www.w3.org/2000/svg"
   xmlns:svg="http://www.w3.org/2000/svg">
  <defs
     id="defs40" />
  <sodipodi:namedview
     id="namedview38"
     pagecolor="#ffffff"
     bordercolor="#666666"
     borderopacity="1.0"
     inkscape:pageshadow="2"
     inkscape:pageopacity="0.0"
     inkscape:pagecheckerboard="0"
     showgrid="false"
     inkscape:zoom="2.3389172"
     inkscape:cx="291.16037"
     inkscape:cy="-454.69758"
     inkscape:window-width="1495"
     inkscape:window-height="970"
     inkscape:window-x="0"
     inkscape:window-y="32"
     inkscape:window-maximized="0"
     inkscape:current-layer="svg36" />
  <g
     id="g2"
     transform="translate(7.5590553,-585.936)" />
  <g
     style="fill:none;stroke:#000000;stroke-width:1mm"
     id="g4"
     transform="translate(7.5590553,-585.936)" />
  <g
     style="fill:none;stroke:#000000;stroke-width:4mm"
     id="g34"
     transform="translate(7.5590553,-585.936)">
    <path
       d="M 206.46117,585.936 V 848.1"
       id="path6" />
    <path
       d="m 294.94117,684.247 -88.48,98.312"
       id="path8" />
    <path
       d="m 235.95417,749.788 68.818,98.312"
       id="path10" />
    <path
       d="M 370.31317,684.247 V 848.1"
       id="path12" />
    <path
       d="m 370.31317,710.464 22.939,-22.939 19.663,-6.555 h 13.108 l 27.527,13.109 15.075,19.662 V 848.1"
       id="path14" />
    <path
       d="m 468.62517,717.018 13.108,-26.216 26.216,-11.798 h 16.385 l 27.528,11.798 15.074,26.216 V 848.1"
       id="path16" />
    <path
       d="m 110.11617,763.552 -0.21,4.798 -0.627,4.762 -1.039,4.689 -1.445,4.581 -1.838,4.437 -2.217,4.26 -2.581,4.051 -2.924002,3.81 -3.244,3.541 -3.541,3.245"
       id="path18" />
    <path
       d="m 90.450168,805.726 -3.811,2.924 -4.051,2.581 -4.26,2.217 -4.437,1.838 -4.581,1.444 -4.689,1.04 -4.761,0.627 -4.799,0.209 -4.798,-0.209 -4.762,-0.627"
       id="path20" />
    <path
       d="m 45.501168,817.77 -4.689,-1.04 -4.58,-1.444 -4.438,-1.838 -4.26,-2.217 -4.051,-2.581 -3.81,-2.924 -3.541,-3.245 -3.245,-3.541 -2.9239999,-3.81 -2.58,-4.051"
       id="path22" />
    <path
       d="m 7.3831681,791.079 -2.218,-4.26 -1.838,-4.437 -1.444,-4.581 -1.04000001,-4.689 -0.627,-4.762 -0.209,-4.798 0.209,-4.798 0.627,-4.762 1.04000001,-4.689 1.444,-4.581"
       id="path24" />
    <path
       d="m 3.3271681,744.722 1.838,-4.437 2.218,-4.26 2.58,-4.051 2.9239999,-3.81 3.245,-3.541 3.541,-3.245 3.81,-2.924 4.051,-2.581 4.26,-2.217 4.437,-1.838"
       id="path26" />
    <path
       d="m 36.231168,711.818 4.581,-1.444 4.689,-1.04 4.762,-0.627 4.798,-0.209 4.799,0.209 4.761,0.627 4.689,1.04 4.581,1.444 4.437,1.838 4.26,2.217"
       id="path28" />
    <path
       d="m 82.588168,715.873 4.051,2.581 3.81,2.924 3.542,3.245 3.244,3.541 2.924002,3.81 2.581,4.051 2.217,4.26 1.838,4.437 1.445,4.581 1.039,4.689"
       id="path30" />
    <path
       d="m 109.27917,753.992 0.627,4.762 0.21,4.798 -0.21,4.798"
       id="path32" />
  </g>
</svg>
