<?xml version="1.0" encoding="UTF-8"?>
<svg id="svg36" width="582.05" height="266.5" version="1.1" viewBox="0 0 582.05 266.5" xmlns="http://www.w3.org/2000/svg">
 <g id="g34" transform="translate(7.5591 -585.94)" fill="none" stroke="#000" stroke-width="4mm">
  <path id="path6" d="m206.46 585.94v262.16"/>
  <path id="path8" d="m294.94 684.25-88.48 98.312"/>
  <path id="path10" d="m235.95 749.79 68.818 98.312"/>
  <path id="path12" d="m370.31 684.25v163.85"/>
  <path id="path14" d="m370.31 710.46 22.939-22.939 19.663-6.555h13.108l27.527 13.109 15.075 19.662v134.36"/>
  <path id="path16" d="m468.63 717.02 13.108-26.216 26.216-11.798h16.385l27.528 11.798 15.074 26.216v131.08"/>
  <path id="path18" d="m110.12 763.55-0.21 4.798-0.627 4.762-1.039 4.689-1.445 4.581-1.838 4.437-2.217 4.26-2.581 4.051-2.924 3.81-3.244 3.541-3.541 3.245"/>
  <path id="path20" d="m90.45 805.73-3.811 2.924-4.051 2.581-4.26 2.217-4.437 1.838-4.581 1.444-4.689 1.04-4.761 0.627-4.799 0.209-4.798-0.209-4.762-0.627"/>
  <path id="path22" d="m45.501 817.77-4.689-1.04-4.58-1.444-4.438-1.838-4.26-2.217-4.051-2.581-3.81-2.924-3.541-3.245-3.245-3.541-2.924-3.81-2.58-4.051"/>
  <path id="path24" d="m7.3832 791.08-2.218-4.26-1.838-4.437-1.444-4.581-1.04-4.689-0.627-4.762-0.209-4.798 0.209-4.798 0.627-4.762 1.04-4.689 1.444-4.581"/>
  <path id="path26" d="m3.3272 744.72 1.838-4.437 2.218-4.26 2.58-4.051 2.924-3.81 3.245-3.541 3.541-3.245 3.81-2.924 4.051-2.581 4.26-2.217 4.437-1.838"/>
  <path id="path28" d="m36.231 711.82 4.581-1.444 4.689-1.04 4.762-0.627 4.798-0.209 4.799 0.209 4.761 0.627 4.689 1.04 4.581 1.444 4.437 1.838 4.26 2.217"/>
  <path id="path30" d="m82.588 715.87 4.051 2.581 3.81 2.924 3.542 3.245 3.244 3.541 2.924 3.81 2.581 4.051 2.217 4.26 1.838 4.437 1.445 4.581 1.039 4.689"/>
  <path id="path32" d="m109.28 753.99 0.627 4.762 0.21 4.798-0.21 4.798"/>
 </g>
</svg>
