<?xml version="1.0" encoding="UTF-8"?>
<svg id="svg34" width="582.08" height="489.69" version="1.1" viewBox="0 0 582.08 489.69" xmlns="http://www.w3.org/2000/svg">
 <g id="g32" transform="translate(7.5884 -635.96)" fill="none" stroke="#000" stroke-width="4mm">
  <path id="path6" d="m326.83 1069.6-0.185 4.224-0.552 4.192-0.915 4.128-1.271 4.032-1.618 3.906-1.953 3.75-2.271 3.566-2.574 3.355-2.857 3.117-3.117 2.856"/>
  <path id="path8" d="m309.52 1106.7-3.354 2.574-3.566 2.272-3.75 1.952-3.907 1.618-4.032 1.272-4.128 0.915-4.192 0.552-4.224 0.184-4.224-0.184-4.191-0.552"/>
  <path id="path10" d="m269.95 1117.3-4.128-0.915-4.033-1.272-3.906-1.618-3.75-1.952-3.566-2.272-3.354-2.574-3.118-2.856-2.856-3.117-2.574-3.355-2.272-3.566"/>
  <path id="path12" d="m236.39 1093.8-1.952-3.75-1.618-3.906-1.271-4.032-0.915-4.128-0.552-4.192-0.185-4.224 0.185-4.224 0.552-4.192 0.915-4.128 1.271-4.032"/>
  <path id="path14" d="m232.82 1053 1.618-3.906 1.952-3.751 2.272-3.566 2.574-3.354 2.856-3.117 3.118-2.857 3.354-2.573 3.566-2.272 3.75-1.952 3.906-1.618"/>
  <path id="path16" d="m261.79 1024.1 4.033-1.272 4.128-0.915 4.191-0.552 4.224-0.184 4.224 0.184 4.192 0.552 4.128 0.915 4.032 1.272 3.907 1.618 3.75 1.952"/>
  <path id="path18" d="m302.6 1027.6 3.566 2.272 3.354 2.573 3.117 2.857 2.857 3.117 2.574 3.354 2.271 3.566 1.953 3.751 1.618 3.906 1.271 4.032 0.915 4.128"/>
  <path id="path20" d="m326.09 1061.2 0.552 4.192 0.185 4.224-0.185 4.224"/>
  <path id="path22" d="m231.02 1065.1h-184.84"/>
  <path id="path24" d="m45.055 1066.2-11.271-18.034-15.78-38.321-13.525-39.449-4.508-33.812v-45.084l11.271-47.338 20.287-54.101 18.034-33.813 31.559-33.813 33.813-29.304"/>
  <path id="path26" d="m114.93 693.16 31.558-15.779 54.101-20.288 45.084-9.017 49.592-4.508 55.228 9.016 51.846 15.78 51.846 33.813 47.338 45.084 24.797 36.067 24.796 47.338"/>
  <path id="path28" d="m551.12 830.67 13.525 58.609 2.254 69.88-11.271 46.21-15.779 38.322-15.78 18.033"/>
  <path id="path30" d="m325.7 1065.1h196.12l3.381-9.017"/>
 </g>
</svg>
