<?xml version="1.0" encoding="UTF-8" standalone="no"?>
<svg
   width="582.07648"
   height="489.68808"
   viewBox="0 0 582.07646 489.68809"
   version="1.1"
   id="svg34"
   sodipodi:docname="DOMES011.hpgl.svg"
   inkscape:version="1.1.2 (0a00cf5339, 2022-02-04)"
   xmlns:inkscape="http://www.inkscape.org/namespaces/inkscape"
   xmlns:sodipodi="http://sodipodi.sourceforge.net/DTD/sodipodi-0.dtd"
   xmlns="http://www.w3.org/2000/svg"
   xmlns:svg="http://www.w3.org/2000/svg">
  <defs
     id="defs38" />
  <sodipodi:namedview
     id="namedview36"
     pagecolor="#ffffff"
     bordercolor="#666666"
     borderopacity="1.0"
     inkscape:pageshadow="2"
     inkscape:pageopacity="0.0"
     inkscape:pagecheckerboard="0"
     showgrid="false"
     inkscape:zoom="1.5152569"
     inkscape:cx="291.03976"
     inkscape:cy="-398.94226"
     inkscape:window-width="1495"
     inkscape:window-height="970"
     inkscape:window-x="0"
     inkscape:window-y="32"
     inkscape:window-maximized="0"
     inkscape:current-layer="svg34" />
  <g
     id="g2"
     transform="translate(7.5884098,-635.95714)" />
  <g
     style="fill:none;stroke:#000000;stroke-width:1mm"
     id="g4"
     transform="translate(7.5884098,-635.95714)" />
  <g
     style="fill:none;stroke:#000000;stroke-width:4mm"
     id="g32"
     transform="translate(7.5884098,-635.95714)">
    <path
       d="m 326.82865,1069.614 -0.185,4.224 -0.552,4.192 -0.915,4.128 -1.271,4.032 -1.618,3.906 -1.953,3.75 -2.271,3.566 -2.574,3.355 -2.857,3.117 -3.117,2.856"
       id="path6" />
    <path
       d="m 309.51565,1106.74 -3.354,2.574 -3.566,2.272 -3.75,1.952 -3.907,1.618 -4.032,1.272 -4.128,0.915 -4.192,0.552 -4.224,0.184 -4.224,-0.184 -4.191,-0.552"
       id="path8" />
    <path
       d="m 269.94765,1117.343 -4.128,-0.915 -4.033,-1.272 -3.906,-1.618 -3.75,-1.952 -3.566,-2.272 -3.354,-2.574 -3.118,-2.856 -2.856,-3.117 -2.574,-3.355 -2.272,-3.566"
       id="path10" />
    <path
       d="m 236.39065,1093.846 -1.952,-3.75 -1.618,-3.906 -1.271,-4.032 -0.915,-4.128 -0.552,-4.192 -0.185,-4.224 0.185,-4.224 0.552,-4.192 0.915,-4.128 1.271,-4.032"
       id="path12" />
    <path
       d="m 232.82065,1053.038 1.618,-3.906 1.952,-3.751 2.272,-3.566 2.574,-3.354 2.856,-3.117 3.118,-2.857 3.354,-2.573 3.566,-2.272 3.75,-1.952 3.906,-1.618"
       id="path14" />
    <path
       d="m 261.78665,1024.072 4.033,-1.272 4.128,-0.915 4.191,-0.552 4.224,-0.184 4.224,0.184 4.192,0.552 4.128,0.915 4.032,1.272 3.907,1.618 3.75,1.952"
       id="path16" />
    <path
       d="m 302.59565,1027.642 3.566,2.272 3.354,2.573 3.117,2.857 2.857,3.117 2.574,3.354 2.271,3.566 1.953,3.751 1.618,3.906 1.271,4.032 0.915,4.128"
       id="path18" />
    <path
       d="m 326.09165,1061.198 0.552,4.192 0.185,4.224 -0.185,4.224"
       id="path20" />
    <path
       d="M 231.02465,1065.106 H 46.181645"
       id="path22" />
    <path
       d="m 45.054645,1066.233 -11.271,-18.034 -15.78,-38.321 -13.5249995,-39.449 -4.50800001,-33.812 v -45.084 l 11.27099951,-47.338 20.287,-54.101 18.034,-33.813 31.559,-33.813 33.813005,-29.304"
       id="path24" />
    <path
       d="m 114.93465,693.164 31.558,-15.779 54.101,-20.288 45.084,-9.017 49.592,-4.508 55.228,9.016 51.846,15.78 51.846,33.813 47.338,45.084 24.797,36.067 24.796,47.338"
       id="path26" />
    <path
       d="m 551.12065,830.67 13.525,58.609 2.254,69.88 -11.271,46.21 -15.779,38.322 -15.78,18.033"
       id="path28" />
    <path
       d="m 325.70065,1065.106 h 196.115 l 3.381,-9.017"
       id="path30" />
  </g>
</svg>
