<?xml version="1.0" encoding="UTF-8"?>
<svg id="svg40" width="380.14" height="577.67" version="1.1" viewBox="0 0 380.14 577.67" xmlns="http://www.w3.org/2000/svg">
 <g id="g38" transform="translate(6.4539 -840.28)" fill="none" stroke="#000" stroke-width="4mm">
  <path id="path6" d="m213.48 1367.7-0.162 3.722-0.486 3.694-0.807 3.637-1.12 3.553-1.426 3.442-1.72 3.305-2.002 3.142-2.268 2.956-2.517 2.747-2.747 2.517"/>
  <path id="path8" d="m198.23 1400.4-2.956 2.268-3.142 2.002-3.304 1.72-3.443 1.426-3.553 1.12-3.637 0.806-3.694 0.487-3.722 0.162-3.722-0.162-3.694-0.487"/>
  <path id="path10" d="m163.36 1409.7-3.637-0.806-3.554-1.12-3.442-1.426-3.304-1.72-3.143-2.002-2.955-2.268-2.747-2.517-2.517-2.747-2.268-2.956-2.002-3.142"/>
  <path id="path12" d="m133.79 1389-1.72-3.305-1.426-3.442-1.12-3.553-0.807-3.637-0.486-3.694-0.163-3.722 0.163-3.722 0.486-3.694 0.807-3.638 1.12-3.553"/>
  <path id="path14" d="m130.65 1353.1 1.426-3.442 1.72-3.305 2.002-3.142 2.268-2.956 2.517-2.746 2.747-2.517 2.955-2.268 3.143-2.002 3.304-1.721 3.442-1.425"/>
  <path id="path16" d="m156.17 1327.5 3.554-1.121 3.637-0.806 3.694-0.486 3.722-0.163 3.722 0.163 3.694 0.486 3.637 0.806 3.553 1.121 3.443 1.425 3.304 1.721"/>
  <path id="path18" d="m192.13 1330.7 3.142 2.002 2.956 2.268 2.747 2.517 2.517 2.746 2.268 2.956 2.002 3.142 1.72 3.305 1.426 3.442 1.12 3.553 0.807 3.638"/>
  <path id="path20" d="m212.84 1360.3 0.486 3.694 0.162 3.722-0.162 3.722"/>
  <path id="path22" d="m-6.4539 1367.7h123.85"/>
  <path id="path24" d="m213.48 1367.7h117.44"/>
  <path id="path26" d="m73.621 849.86 293.61 180.44"/>
  <path id="path28" d="m224.16 940.61 26.692-43.774"/>
  <path id="path30" d="m144.09 1090.1-64.059 277.59"/>
  <path id="path32" d="m203.88 1107.2 46.977 260.51"/>
  <path id="path34" d="m73.621 843.45-20.286 43.774-6.406 69.398 12.812 56.586 40.571 53.384 43.774 23.488 59.79 17.083h39.503l50.18-6.406 46.977-26.692 26.692-43.774"/>
  <path id="path36" d="m367.23 1030.3"/>
 </g>
</svg>
