<?xml version="1.0" encoding="UTF-8" standalone="no"?>
<svg
   width="380.13586"
   height="577.67358"
   viewBox="0 0 380.13586 577.67357"
   version="1.1"
   id="svg40"
   sodipodi:docname="DSHAER11.hpgl.svg"
   inkscape:version="1.1.2 (0a00cf5339, 2022-02-04)"
   xmlns:inkscape="http://www.inkscape.org/namespaces/inkscape"
   xmlns:sodipodi="http://sodipodi.sourceforge.net/DTD/sodipodi-0.dtd"
   xmlns="http://www.w3.org/2000/svg"
   xmlns:svg="http://www.w3.org/2000/svg">
  <defs
     id="defs44" />
  <sodipodi:namedview
     id="namedview42"
     pagecolor="#ffffff"
     bordercolor="#666666"
     borderopacity="1.0"
     inkscape:pageshadow="2"
     inkscape:pageopacity="0.0"
     inkscape:pagecheckerboard="0"
     showgrid="false"
     inkscape:zoom="1.2682364"
     inkscape:cx="193.18165"
     inkscape:cy="-557.07279"
     inkscape:window-width="1495"
     inkscape:window-height="970"
     inkscape:window-x="0"
     inkscape:window-y="32"
     inkscape:window-maximized="0"
     inkscape:current-layer="svg40" />
  <g
     id="g2"
     transform="translate(6.4538574,-840.27565)" />
  <g
     style="fill:none;stroke:#000000;stroke-width:1mm"
     id="g4"
     transform="translate(6.4538574,-840.27565)" />
  <g
     style="fill:none;stroke:#000000;stroke-width:4mm"
     id="g38"
     transform="translate(6.4538574,-840.27565)">
    <path
       d="m 213.48414,1367.677 -0.162,3.722 -0.486,3.694 -0.807,3.637 -1.12,3.553 -1.426,3.442 -1.72,3.305 -2.002,3.142 -2.268,2.956 -2.517,2.747 -2.747,2.517"
       id="path6" />
    <path
       d="m 198.22914,1400.392 -2.956,2.268 -3.142,2.002 -3.304,1.72 -3.443,1.426 -3.553,1.12 -3.637,0.806 -3.694,0.487 -3.722,0.162 -3.722,-0.162 -3.694,-0.487"
       id="path8" />
    <path
       d="m 163.36214,1409.734 -3.637,-0.806 -3.554,-1.12 -3.442,-1.426 -3.304,-1.72 -3.143,-2.002 -2.955,-2.268 -2.747,-2.517 -2.517,-2.747 -2.268,-2.956 -2.002,-3.142"
       id="path10" />
    <path
       d="m 133.79314,1389.03 -1.72,-3.305 -1.426,-3.442 -1.12,-3.553 -0.807,-3.637 -0.486,-3.694 -0.163,-3.722 0.163,-3.722 0.486,-3.694 0.807,-3.638 1.12,-3.553"
       id="path12" />
    <path
       d="m 130.64714,1353.07 1.426,-3.442 1.72,-3.305 2.002,-3.142 2.268,-2.956 2.517,-2.746 2.747,-2.517 2.955,-2.268 3.143,-2.002 3.304,-1.721 3.442,-1.425"
       id="path14" />
    <path
       d="m 156.17114,1327.546 3.554,-1.121 3.637,-0.806 3.694,-0.486 3.722,-0.163 3.722,0.163 3.694,0.486 3.637,0.806 3.553,1.121 3.443,1.425 3.304,1.721"
       id="path16" />
    <path
       d="m 192.13114,1330.692 3.142,2.002 2.956,2.268 2.747,2.517 2.517,2.746 2.268,2.956 2.002,3.142 1.72,3.305 1.426,3.442 1.12,3.553 0.807,3.638"
       id="path18" />
    <path
       d="m 212.83614,1360.261 0.486,3.694 0.162,3.722 -0.162,3.722"
       id="path20" />
    <path
       d="M -6.4538574,1367.677 H 117.39514"
       id="path22" />
    <path
       d="m 213.48414,1367.677 h 117.443"
       id="path24" />
    <path
       d="M 73.621143,849.86 367.22814,1030.295"
       id="path26" />
    <path
       d="m 224.16114,940.611 26.692,-43.774"
       id="path28" />
    <path
       d="M 144.08614,1090.084 80.027143,1367.677"
       id="path30" />
    <path
       d="m 203.87614,1107.167 46.977,260.51"
       id="path32" />
    <path
       d="m 73.621143,843.454 -20.286,43.774 -6.406,69.398 12.812,56.586 40.570997,53.384 43.774,23.488 59.79,17.083 h 39.503 l 50.18,-6.406 46.977,-26.692 26.692,-43.774"
       id="path34" />
    <path
       d="M 367.22814,1030.295"
       id="path36" />
  </g>
</svg>
