<?xml version="1.0" encoding="UTF-8"?>
<svg id="svg4006" width="566.93" height="581.48" version="1.1" viewBox="0 0 566.93 581.48" xmlns="http://www.w3.org/2000/svg">
 <g id="g4004" transform="translate(0 -2402.2)" fill="none" stroke="#000" stroke-width="4mm">
  <path id="path6" d="m276.97 2409.7h12.984"/>
  <path id="path8" d="m270.48 2410h25.968"/>
  <path id="path10" d="m263.99 2410.3h38.952"/>
  <path id="path12" d="m258.34 2410.6h50.249"/>
  <path id="path14" d="m256.19 2410.9h54.555"/>
  <path id="path16" d="m254.03 2411.2h58.861"/>
  <path id="path18" d="m251.88 2411.4h63.167"/>
  <path id="path20" d="m249.73 2411.7h67.474"/>
  <path id="path22" d="m247.57 2412h71.781"/>
  <path id="path24" d="m245.42 2412.3h76.087"/>
  <path id="path26" d="m243.27 2412.6h80.393"/>
  <path id="path28" d="m241.12 2412.9h84.699"/>
  <path id="path30" d="m238.96 2413.1h89.005"/>
  <path id="path32" d="m236.81 2413.4h93.312"/>
  <path id="path34" d="m234.66 2413.7h97.618"/>
  <path id="path36" d="m233.21 2414h100.51"/>
  <path id="path38" d="m231.93 2414.3h103.07"/>
  <path id="path40" d="m230.65 2414.6h105.63"/>
  <path id="path42" d="m229.37 2414.8h108.18"/>
  <path id="path44" d="m228.09 2415.1h110.74"/>
  <path id="path46" d="m226.82 2415.4h113.3"/>
  <path id="path48" d="m225.54 2415.7h115.86"/>
  <path id="path50" d="m224.26 2416h118.41"/>
  <path id="path52" d="m222.98 2416.3h120.97"/>
  <path id="path54" d="m221.7 2416.5h123.53"/>
  <path id="path56" d="m220.42 2416.8h126.08"/>
  <path id="path58" d="m219.14 2417.1h128.64"/>
  <path id="path60" d="m217.86 2417.4h131.2"/>
  <path id="path62" d="m216.59 2417.7h133.76"/>
  <path id="path64" d="m215.31 2418h136.31"/>
  <path id="path66" d="m214.03 2418.2h138.87"/>
  <path id="path68" d="m212.75 2418.5h141.43"/>
  <path id="path70" d="m211.47 2418.8h143.98"/>
  <path id="path72" d="m210.19 2419.1h146.54"/>
  <path id="path74" d="m209.27 2419.4h148.4"/>
  <path id="path76" d="m208.37 2419.7h150.2"/>
  <path id="path78" d="m207.47 2419.9h151.99"/>
  <path id="path80" d="m206.57 2420.2h153.79"/>
  <path id="path82" d="m205.67 2420.5h155.59"/>
  <path id="path84" d="m204.77 2420.8h157.39"/>
  <path id="path86" d="m203.87 2421.1h159.18"/>
  <path id="path88" d="m202.97 2421.4h160.98"/>
  <path id="path90" d="m202.07 2421.6h162.78"/>
  <path id="path92" d="m201.18 2421.9h164.58"/>
  <path id="path94" d="m200.28 2422.2h166.38"/>
  <path id="path96" d="m199.38 2422.5h168.18"/>
  <path id="path98" d="m198.48 2422.8h169.97"/>
  <path id="path100" d="m197.58 2423.1h171.77"/>
  <path id="path102" d="m196.68 2423.3h173.57"/>
  <path id="path104" d="m195.78 2423.6h175.37"/>
  <path id="path106" d="m194.88 2423.9h177.16"/>
  <path id="path108" d="m193.98 2424.2h178.96"/>
  <path id="path110" d="m193.08 2424.5h180.76"/>
  <path id="path112" d="m192.18 2424.8h182.56"/>
  <path id="path114" d="m191.28 2425h184.36"/>
  <path id="path116" d="m190.39 2425.3h186.16"/>
  <path id="path118" d="m189.49 2425.6h187.95"/>
  <path id="path120" d="m188.59 2425.9h189.75"/>
  <path id="path122" d="m187.69 2426.2h191.55"/>
  <path id="path124" d="m186.79 2426.5h193.35"/>
  <path id="path126" d="m186.04 2426.7h194.85"/>
  <path id="path128" d="m185.36 2427h196.22"/>
  <path id="path130" d="m184.67 2427.3h197.59"/>
  <path id="path132" d="m183.99 2427.6h198.96"/>
  <path id="path134" d="m183.3 2427.9h200.32"/>
  <path id="path136" d="m182.62 2428.2h201.69"/>
  <path id="path138" d="m181.93 2428.4h203.06"/>
  <path id="path140" d="m181.25 2428.7h204.43"/>
  <path id="path142" d="m180.56 2429h205.8"/>
  <path id="path144" d="m179.88 2429.3h207.17"/>
  <path id="path146" d="m179.2 2429.6h208.54"/>
  <path id="path148" d="m178.51 2429.9h209.9"/>
  <path id="path150" d="m177.83 2430.1h211.27"/>
  <path id="path152" d="m177.14 2430.4h212.64"/>
  <path id="path154" d="m176.46 2430.7h214.01"/>
  <path id="path156" d="m175.78 2431h215.38"/>
  <path id="path158" d="m175.09 2431.3h216.75"/>
  <path id="path160" d="m174.41 2431.6h218.12"/>
  <path id="path162" d="m173.72 2431.8h219.48"/>
  <path id="path164" d="m173.04 2432.1h220.86"/>
  <path id="path166" d="m172.35 2432.4h222.22"/>
  <path id="path168" d="m171.67 2432.7h223.59"/>
  <path id="path170" d="m170.98 2433h224.96"/>
  <path id="path172" d="m170.3 2433.3h226.33"/>
  <path id="path174" d="m169.62 2433.5h227.7"/>
  <path id="path176" d="m168.93 2433.8h229.07"/>
  <path id="path178" d="m168.25 2434.1h230.44"/>
  <path id="path180" d="m167.56 2434.4h231.8"/>
  <path id="path182" d="m166.88 2434.7h233.17"/>
  <path id="path184" d="m166.19 2435h234.54"/>
  <path id="path186" d="m165.51 2435.2h235.91"/>
  <path id="path188" d="m164.82 2435.5h237.28"/>
  <path id="path190" d="m164.14 2435.8h238.65"/>
  <path id="path192" d="m163.5 2436.1h239.93"/>
  <path id="path194" d="m162.96 2436.4h241.02"/>
  <path id="path196" d="m162.41 2436.7h242.11"/>
  <path id="path198" d="m161.87 2436.9h243.2"/>
  <path id="path200" d="m161.32 2437.2h244.29"/>
  <path id="path202" d="m160.78 2437.5h245.38"/>
  <path id="path204" d="m160.23 2437.8h246.46"/>
  <path id="path206" d="m159.69 2438.1h247.55"/>
  <path id="path208" d="m159.14 2438.4h248.64"/>
  <path id="path210" d="m158.6 2438.6h249.73"/>
  <path id="path212" d="m158.05 2438.9h250.82"/>
  <path id="path214" d="m157.51 2439.2h251.91"/>
  <path id="path216" d="m156.96 2439.5h253"/>
  <path id="path218" d="m156.42 2439.8h254.09"/>
  <path id="path220" d="m155.88 2440.1h255.18"/>
  <path id="path222" d="m155.33 2440.3h256.27"/>
  <path id="path224" d="m154.79 2440.6h257.36"/>
  <path id="path226" d="m154.24 2440.9h258.44"/>
  <path id="path228" d="m153.7 2441.2h259.53"/>
  <path id="path230" d="m153.15 2441.5h260.62"/>
  <path id="path232" d="m152.61 2441.8h261.71"/>
  <path id="path234" d="m152.06 2442h262.8"/>
  <path id="path236" d="m151.52 2442.3h263.89"/>
  <path id="path238" d="m150.98 2442.6h264.98"/>
  <path id="path240" d="m150.43 2442.9h266.07"/>
  <path id="path242" d="m149.89 2443.2h267.16"/>
  <path id="path244" d="m149.34 2443.5h268.24"/>
  <path id="path246" d="m148.8 2443.7h269.34"/>
  <path id="path248" d="m148.25 2444h270.42"/>
  <path id="path250" d="m147.71 2444.3h271.51"/>
  <path id="path252" d="m147.16 2444.6h272.6"/>
  <path id="path254" d="m146.62 2444.9h273.69"/>
  <path id="path256" d="m146.08 2445.2h274.78"/>
  <path id="path258" d="m145.53 2445.4h275.87"/>
  <path id="path260" d="m144.98 2445.7h276.96"/>
  <path id="path262" d="m144.44 2446h278.05"/>
  <path id="path264" d="m143.9 2446.3h279.14"/>
  <path id="path266" d="m143.35 2446.6h280.22"/>
  <path id="path268" d="m142.81 2446.9h281.31"/>
  <path id="path270" d="m142.26 2447.2h282.4"/>
  <path id="path272" d="m141.72 2447.4h283.49"/>
  <path id="path274" d="m141.28 2447.7h284.38"/>
  <path id="path276" d="m140.83 2448h285.27"/>
  <path id="path278" d="m140.39 2448.3h286.16"/>
  <path id="path280" d="m139.94 2448.6h287.05"/>
  <path id="path282" d="m139.5 2448.9h287.94"/>
  <path id="path284" d="m139.05 2449.1h288.83"/>
  <path id="path286" d="m138.61 2449.4h289.72"/>
  <path id="path288" d="m138.16 2449.7h290.61"/>
  <path id="path290" d="m137.72 2450h291.5"/>
  <path id="path292" d="m137.27 2450.3h292.39"/>
  <path id="path294" d="m136.83 2450.6h293.28"/>
  <path id="path296" d="m136.38 2450.8h294.17"/>
  <path id="path298" d="m135.94 2451.1h295.06"/>
  <path id="path300" d="m135.49 2451.4h295.94"/>
  <path id="path302" d="m135.05 2451.7h296.84"/>
  <path id="path304" d="m134.6 2452h297.72"/>
  <path id="path306" d="m134.16 2452.3h298.62"/>
  <path id="path308" d="m133.71 2452.5h299.5"/>
  <path id="path310" d="m133.27 2452.8h300.4"/>
  <path id="path312" d="m132.82 2453.1h301.28"/>
  <path id="path314" d="m132.38 2453.4h302.18"/>
  <path id="path316" d="m131.93 2453.7h303.06"/>
  <path id="path318" d="m131.49 2454h303.96"/>
  <path id="path320" d="m131.04 2454.2h304.84"/>
  <path id="path322" d="m130.6 2454.5h305.74"/>
  <path id="path324" d="m130.15 2454.8h306.62"/>
  <path id="path326" d="m129.71 2455.1h307.52"/>
  <path id="path328" d="m129.26 2455.4h308.4"/>
  <path id="path330" d="m128.82 2455.7h309.3"/>
  <path id="path332" d="m128.37 2455.9h310.18"/>
  <path id="path334" d="m127.93 2456.2h311.07"/>
  <path id="path336" d="m127.48 2456.5h311.96"/>
  <path id="path338" d="m127.04 2456.8h312.85"/>
  <path id="path340" d="m126.59 2457.1h313.74"/>
  <path id="path342" d="m126.15 2457.4h314.63"/>
  <path id="path344" d="m125.7 2457.6h315.52"/>
  <path id="path346" d="m125.26 2457.9h316.41"/>
  <path id="path348" d="m124.81 2458.2h317.3"/>
  <path id="path350" d="m124.37 2458.5h318.19"/>
  <path id="path352" d="m123.92 2458.8h319.08"/>
  <path id="path354" d="m123.48 2459.1h319.97"/>
  <path id="path356" d="m123.03 2459.3h320.86"/>
  <path id="path358" d="m122.59 2459.6h321.75"/>
  <path id="path360" d="m122.14 2459.9h322.64"/>
  <path id="path362" d="m121.7 2460.2h323.53"/>
  <path id="path364" d="m121.25 2460.5h324.42"/>
  <path id="path366" d="m120.82 2460.8h325.29"/>
  <path id="path368" d="m120.45 2461h326.03"/>
  <path id="path370" d="m120.08 2461.3h326.77"/>
  <path id="path372" d="m119.71 2461.6h327.51"/>
  <path id="path374" d="m119.34 2461.9h328.24"/>
  <path id="path376" d="m118.97 2462.2h328.98"/>
  <path id="path378" d="m118.6 2462.5h329.72"/>
  <path id="path380" d="m118.23 2462.7h330.46"/>
  <path id="path382" d="m117.86 2463h331.2"/>
  <path id="path384" d="m117.5 2463.3h331.94"/>
  <path id="path386" d="m117.12 2463.6h332.68"/>
  <path id="path388" d="m116.76 2463.9h333.42"/>
  <path id="path390" d="m116.39 2464.2h334.16"/>
  <path id="path392" d="m116.02 2464.4h334.9"/>
  <path id="path394" d="m115.65 2464.7h335.63"/>
  <path id="path396" d="m115.28 2465h336.37"/>
  <path id="path398" d="m114.91 2465.3h337.11"/>
  <path id="path400" d="m114.54 2465.6h337.85"/>
  <path id="path402" d="m114.17 2465.9h338.59"/>
  <path id="path404" d="m113.8 2466.1h339.33"/>
  <path id="path406" d="m113.43 2466.4h340.07"/>
  <path id="path408" d="m113.06 2466.7h340.8"/>
  <path id="path410" d="m112.69 2467h341.54"/>
  <path id="path412" d="m112.32 2467.3h342.28"/>
  <path id="path414" d="m111.95 2467.6h343.02"/>
  <path id="path416" d="m111.58 2467.8h343.76"/>
  <path id="path418" d="m111.22 2468.1h344.5"/>
  <path id="path420" d="m110.84 2468.4h345.24"/>
  <path id="path422" d="m110.48 2468.7h345.98"/>
  <path id="path424" d="m110.11 2469h346.72"/>
  <path id="path426" d="m109.74 2469.3h347.46"/>
  <path id="path428" d="m109.37 2469.5h348.19"/>
  <path id="path430" d="m109 2469.8h348.93"/>
  <path id="path432" d="m108.63 2470.1h349.67"/>
  <path id="path434" d="m108.26 2470.4h350.41"/>
  <path id="path436" d="m107.89 2470.7h351.15"/>
  <path id="path438" d="m107.52 2471h351.89"/>
  <path id="path440" d="m107.15 2471.2h352.63"/>
  <path id="path442" d="m106.78 2471.5h353.36"/>
  <path id="path444" d="m106.41 2471.8h354.1"/>
  <path id="path446" d="m106.04 2472.1h354.84"/>
  <path id="path448" d="m105.67 2472.4h355.58"/>
  <path id="path450" d="m105.3 2472.7h356.32"/>
  <path id="path452" d="m104.94 2472.9h357.06"/>
  <path id="path454" d="m104.56 2473.2h357.8"/>
  <path id="path456" d="m104.2 2473.5h358.54"/>
  <path id="path458" d="m103.83 2473.8h359.28"/>
  <path id="path460" d="m103.46 2474.1h360.02"/>
  <path id="path462" d="m103.09 2474.4h360.75"/>
  <path id="path464" d="m102.72 2474.6h361.49"/>
  <path id="path466" d="m102.35 2474.9h362.23"/>
  <path id="path468" d="m101.98 2475.2h362.97"/>
  <path id="path470" d="m101.61 2475.5h363.71"/>
  <path id="path472" d="m101.24 2475.8h364.44"/>
  <path id="path474" d="m100.93 2476.1h365.06"/>
  <path id="path476" d="m100.62 2476.3h365.68"/>
  <path id="path478" d="m100.32 2476.6h366.3"/>
  <path id="path480" d="m100.01 2476.9h366.92"/>
  <path id="path482" d="m99.697 2477.2h367.54"/>
  <path id="path484" d="m99.387 2477.5h368.16"/>
  <path id="path486" d="m99.078 2477.8h368.77"/>
  <path id="path488" d="m98.768 2478h369.39"/>
  <path id="path490" d="m98.459 2478.3h370.01"/>
  <path id="path492" d="m98.15 2478.6h370.63"/>
  <path id="path494" d="m97.84 2478.9h371.25"/>
  <path id="path496" d="m97.531 2479.2h371.87"/>
  <path id="path498" d="m97.222 2479.5h372.48"/>
  <path id="path500" d="m96.912 2479.7h373.1"/>
  <path id="path502" d="m96.603 2480h373.72"/>
  <path id="path504" d="m96.294 2480.3h374.34"/>
  <path id="path506" d="m95.984 2480.6h374.96"/>
  <path id="path508" d="m95.675 2480.9h375.58"/>
  <path id="path510" d="m95.365 2481.2h376.2"/>
  <path id="path512" d="m95.056 2481.4h376.82"/>
  <path id="path514" d="m94.747 2481.7h377.44"/>
  <path id="path516" d="m94.437 2482h378.05"/>
  <path id="path518" d="m94.128 2482.3h378.67"/>
  <path id="path520" d="m93.819 2482.6h379.29"/>
  <path id="path522" d="m93.509 2482.9h379.91"/>
  <path id="path524" d="m93.2 2483.2h380.53"/>
  <path id="path526" d="m92.891 2483.4h381.15"/>
  <path id="path528" d="m92.581 2483.7h381.77"/>
  <path id="path530" d="m92.272 2484h382.38"/>
  <path id="path532" d="m91.963 2484.3h383"/>
  <path id="path534" d="m91.653 2484.6h383.62"/>
  <path id="path536" d="m91.344 2484.9h384.24"/>
  <path id="path538" d="m91.035 2485.1h384.86"/>
  <path id="path540" d="m90.725 2485.4h385.48"/>
  <path id="path542" d="m90.416 2485.7h386.1"/>
  <path id="path544" d="m90.107 2486h386.72"/>
  <path id="path546" d="m89.797 2486.3h387.34"/>
  <path id="path548" d="m89.488 2486.6h387.95"/>
  <path id="path550" d="m89.179 2486.8h388.57"/>
  <path id="path552" d="m88.869 2487.1h389.19"/>
  <path id="path554" d="m88.56 2487.4h389.81"/>
  <path id="path556" d="m88.25 2487.7h390.43"/>
  <path id="path558" d="m87.941 2488h391.05"/>
  <path id="path560" d="m87.632 2488.3h391.66"/>
  <path id="path562" d="m87.322 2488.5h392.28"/>
  <path id="path564" d="m87.013 2488.8h392.9"/>
  <path id="path566" d="m86.704 2489.1h393.52"/>
  <path id="path568" d="m86.394 2489.4h394.14"/>
  <path id="path570" d="m86.085 2489.7h394.76"/>
  <path id="path572" d="m85.776 2490h395.38"/>
  <path id="path574" d="m85.466 2490.2h396"/>
  <path id="path576" d="m85.157 2490.5h396.62"/>
  <path id="path578" d="m84.848 2490.8h397.23"/>
  <path id="path580" d="m84.538 2491.1h397.85"/>
  <path id="path582" d="m84.229 2491.4h398.47"/>
  <path id="path584" d="m83.92 2491.7h399.09"/>
  <path id="path586" d="m83.61 2491.9h399.71"/>
  <path id="path588" d="m83.301 2492.2h400.33"/>
  <path id="path590" d="m82.997 2492.5h400.94"/>
  <path id="path592" d="m82.737 2492.8h401.46"/>
  <path id="path594" d="m82.477 2493.1h401.97"/>
  <path id="path596" d="m82.218 2493.4h402.49"/>
  <path id="path598" d="m81.958 2493.6h403.01"/>
  <path id="path600" d="m81.698 2493.9h403.53"/>
  <path id="path602" d="m81.438 2494.2h404.05"/>
  <path id="path604" d="m81.179 2494.5h404.57"/>
  <path id="path606" d="m80.919 2494.8h405.09"/>
  <path id="path608" d="m80.659 2495.1h405.61"/>
  <path id="path610" d="m80.399 2495.3h406.13"/>
  <path id="path612" d="m80.14 2495.6h406.65"/>
  <path id="path614" d="m79.88 2495.9h407.17"/>
  <path id="path616" d="m79.62 2496.2h407.69"/>
  <path id="path618" d="m79.36 2496.5h408.21"/>
  <path id="path620" d="m79.101 2496.8h408.73"/>
  <path id="path622" d="m78.841 2497h409.25"/>
  <path id="path624" d="m78.581 2497.3h409.77"/>
  <path id="path626" d="m78.321 2497.6h410.29"/>
  <path id="path628" d="m78.062 2497.9h410.8"/>
  <path id="path630" d="m77.802 2498.2h411.32"/>
  <path id="path632" d="m77.542 2498.5h411.84"/>
  <path id="path634" d="m77.282 2498.7h412.36"/>
  <path id="path636" d="m77.023 2499h412.88"/>
  <path id="path638" d="m76.763 2499.3h413.4"/>
  <path id="path640" d="m76.503 2499.6h413.92"/>
  <path id="path642" d="m76.244 2499.9h414.44"/>
  <path id="path644" d="m75.984 2500.2h414.96"/>
  <path id="path646" d="m75.724 2500.4h415.48"/>
  <path id="path648" d="m75.464 2500.7h416"/>
  <path id="path650" d="m75.204 2501h416.52"/>
  <path id="path652" d="m74.945 2501.3h417.04"/>
  <path id="path654" d="m74.685 2501.6h417.56"/>
  <path id="path656" d="m74.425 2501.9h418.08"/>
  <path id="path658" d="m74.165 2502.1h418.6"/>
  <path id="path660" d="m73.906 2502.4h419.12"/>
  <path id="path662" d="m73.646 2502.7h419.64"/>
  <path id="path664" d="m73.386 2503h420.16"/>
  <path id="path666" d="m73.127 2503.3h420.68"/>
  <path id="path668" d="m72.867 2503.6h421.2"/>
  <path id="path670" d="m72.607 2503.8h421.72"/>
  <path id="path672" d="m72.347 2504.1h422.24"/>
  <path id="path674" d="m72.088 2504.4h422.75"/>
  <path id="path676" d="m71.828 2504.7h423.27"/>
  <path id="path678" d="m71.568 2505h423.79"/>
  <path id="path680" d="m71.308 2505.3h424.31"/>
  <path id="path682" d="m71.049 2505.5h424.83"/>
  <path id="path684" d="m70.789 2505.8h425.35"/>
  <path id="path686" d="m70.529 2506.1h425.87"/>
  <path id="path688" d="m70.269 2506.4h426.39"/>
  <path id="path690" d="m70.01 2506.7h426.91"/>
  <path id="path692" d="m69.75 2507h427.43"/>
  <path id="path694" d="m69.49 2507.2h427.95"/>
  <path id="path696" d="m69.23 2507.5h428.47"/>
  <path id="path698" d="m68.971 2507.8h428.99"/>
  <path id="path700" d="m68.711 2508.1h429.51"/>
  <path id="path702" d="m68.451 2508.4h430.03"/>
  <path id="path704" d="m68.191 2508.7h430.55"/>
  <path id="path706" d="m67.932 2508.9h431.06"/>
  <path id="path708" d="m67.672 2509.2h431.58"/>
  <path id="path710" d="m67.412 2509.5h432.1"/>
  <path id="path712" d="m67.152 2509.8h432.62"/>
  <path id="path714" d="m66.893 2510.1h433.14"/>
  <path id="path716" d="m66.633 2510.4h433.66"/>
  <path id="path718" d="m66.373 2510.6h434.18"/>
  <path id="path720" d="m66.147 2510.9h434.64"/>
  <path id="path722" d="m65.929 2511.2h435.07"/>
  <path id="path724" d="m65.712 2511.5h435.5"/>
  <path id="path726" d="m65.494 2511.8h435.94"/>
  <path id="path728" d="m65.277 2512.1h436.38"/>
  <path id="path730" d="m65.059 2512.3h436.81"/>
  <path id="path732" d="m64.842 2512.6h437.24"/>
  <path id="path734" d="m64.624 2512.9h437.68"/>
  <path id="path736" d="m64.407 2513.2h438.12"/>
  <path id="path738" d="m64.189 2513.5h438.55"/>
  <path id="path740" d="m63.972 2513.8h438.98"/>
  <path id="path742" d="m63.754 2514h439.42"/>
  <path id="path744" d="m63.537 2514.3h439.86"/>
  <path id="path746" d="m63.319 2514.6h440.29"/>
  <path id="path748" d="m63.101 2514.9h440.73"/>
  <path id="path750" d="m62.884 2515.2h441.16"/>
  <path id="path752" d="m62.667 2515.5h441.6"/>
  <path id="path754" d="m62.449 2515.7h442.03"/>
  <path id="path756" d="m62.232 2516h442.46"/>
  <path id="path758" d="m62.014 2516.3h442.9"/>
  <path id="path760" d="m61.796 2516.6h443.34"/>
  <path id="path762" d="m61.579 2516.9h443.77"/>
  <path id="path764" d="m61.361 2517.2h444.21"/>
  <path id="path766" d="m61.144 2517.4h444.64"/>
  <path id="path768" d="m60.926 2517.7h445.08"/>
  <path id="path770" d="m60.709 2518h445.51"/>
  <path id="path772" d="m60.491 2518.3h445.95"/>
  <path id="path774" d="m60.274 2518.6h446.38"/>
  <path id="path776" d="m60.056 2518.9h446.82"/>
  <path id="path778" d="m59.839 2519.2h447.25"/>
  <path id="path780" d="m59.621 2519.4h447.69"/>
  <path id="path782" d="m59.404 2519.7h448.12"/>
  <path id="path784" d="m59.186 2520h448.56"/>
  <path id="path786" d="m58.969 2520.3h448.99"/>
  <path id="path788" d="m58.751 2520.6h449.43"/>
  <path id="path790" d="m58.534 2520.9h449.86"/>
  <path id="path792" d="m58.316 2521.1h450.3"/>
  <path id="path794" d="m58.099 2521.4h450.73"/>
  <path id="path796" d="m57.881 2521.7h451.17"/>
  <path id="path798" d="m57.664 2522h451.6"/>
  <path id="path800" d="m57.446 2522.3h452.04"/>
  <path id="path802" d="m57.229 2522.6h452.47"/>
  <path id="path804" d="m57.011 2522.8h452.91"/>
  <path id="path806" d="m56.794 2523.1h453.34"/>
  <path id="path808" d="m56.576 2523.4h453.78"/>
  <path id="path810" d="m56.359 2523.7h454.21"/>
  <path id="path812" d="m56.141 2524h454.65"/>
  <path id="path814" d="m55.924 2524.3h455.08"/>
  <path id="path816" d="m55.706 2524.5h455.52"/>
  <path id="path818" d="m55.489 2524.8h455.95"/>
  <path id="path820" d="m55.271 2525.1h456.39"/>
  <path id="path822" d="m55.054 2525.4h456.82"/>
  <path id="path824" d="m54.836 2525.7h457.26"/>
  <path id="path826" d="m54.619 2526h457.69"/>
  <path id="path828" d="m54.401 2526.2h458.13"/>
  <path id="path830" d="m54.184 2526.5h458.56"/>
  <path id="path832" d="m53.966 2526.8h459"/>
  <path id="path834" d="m53.749 2527.1h459.43"/>
  <path id="path836" d="m53.531 2527.4h459.87"/>
  <path id="path838" d="m53.314 2527.7h460.3"/>
  <path id="path840" d="m53.096 2527.9h460.74"/>
  <path id="path842" d="m52.878 2528.2h461.17"/>
  <path id="path844" d="m52.661 2528.5h461.61"/>
  <path id="path846" d="m52.444 2528.8h462.04"/>
  <path id="path848" d="m52.226 2529.1h462.48"/>
  <path id="path850" d="m52.009 2529.4h462.91"/>
  <path id="path852" d="m51.791 2529.6h463.35"/>
  <path id="path854" d="m51.573 2529.9h463.78"/>
  <path id="path856" d="m51.356 2530.2h464.22"/>
  <path id="path858" d="m51.16 2530.5h464.61"/>
  <path id="path860" d="m50.979 2530.8h464.97"/>
  <path id="path862" d="m50.799 2531.1h465.33"/>
  <path id="path864" d="m50.618 2531.3h465.69"/>
  <path id="path866" d="m50.437 2531.6h466.06"/>
  <path id="path868" d="m50.257 2531.9h466.42"/>
  <path id="path870" d="m50.076 2532.2h466.78"/>
  <path id="path872" d="m49.896 2532.5h467.14"/>
  <path id="path874" d="m49.715 2532.8h467.5"/>
  <path id="path876" d="m49.534 2533h467.86"/>
  <path id="path878" d="m49.354 2533.3h468.22"/>
  <path id="path880" d="m49.173 2533.6h468.58"/>
  <path id="path882" d="m48.993 2533.9h468.94"/>
  <path id="path884" d="m48.812 2534.2h469.3"/>
  <path id="path886" d="m48.632 2534.5h469.66"/>
  <path id="path888" d="m48.451 2534.7h470.03"/>
  <path id="path890" d="m48.27 2535h470.39"/>
  <path id="path892" d="m48.09 2535.3h470.75"/>
  <path id="path894" d="m47.909 2535.6h471.11"/>
  <path id="path896" d="m47.729 2535.9h471.47"/>
  <path id="path898" d="m47.548 2536.2h471.83"/>
  <path id="path900" d="m47.367 2536.4h472.19"/>
  <path id="path902" d="m47.187 2536.7h472.56"/>
  <path id="path904" d="m47.006 2537h472.92"/>
  <path id="path906" d="m46.826 2537.3h473.28"/>
  <path id="path908" d="m46.645 2537.6h473.64"/>
  <path id="path910" d="m46.465 2537.9h474"/>
  <path id="path912" d="m46.284 2538.1h474.36"/>
  <path id="path914" d="m46.103 2538.4h474.72"/>
  <path id="path916" d="m45.923 2538.7h475.08"/>
  <path id="path918" d="m45.742 2539h475.44"/>
  <path id="path920" d="m45.562 2539.3h475.8"/>
  <path id="path922" d="m45.381 2539.6h476.17"/>
  <path id="path924" d="m45.2 2539.8h476.53"/>
  <path id="path926" d="m45.02 2540.1h476.89"/>
  <path id="path928" d="m44.839 2540.4h477.25"/>
  <path id="path930" d="m44.659 2540.7h477.61"/>
  <path id="path932" d="m44.478 2541h477.97"/>
  <path id="path934" d="m44.297 2541.3h478.33"/>
  <path id="path936" d="m44.117 2541.5h478.7"/>
  <path id="path938" d="m43.936 2541.8h479.06"/>
  <path id="path940" d="m43.756 2542.1h479.42"/>
  <path id="path942" d="m43.575 2542.4h479.78"/>
  <path id="path944" d="m43.394 2542.7h480.14"/>
  <path id="path946" d="m43.214 2543h480.5"/>
  <path id="path948" d="m43.033 2543.2h480.86"/>
  <path id="path950" d="m42.853 2543.5h481.22"/>
  <path id="path952" d="m42.672 2543.8h481.58"/>
  <path id="path954" d="m42.491 2544.1h481.95"/>
  <path id="path956" d="m42.311 2544.4h482.31"/>
  <path id="path958" d="m42.13 2544.7h482.67"/>
  <path id="path960" d="m41.95 2544.9h483.03"/>
  <path id="path962" d="m41.769 2545.2h483.39"/>
  <path id="path964" d="m41.589 2545.5h483.75"/>
  <path id="path966" d="m41.408 2545.8h484.11"/>
  <path id="path968" d="m41.227 2546.1h484.47"/>
  <path id="path970" d="m41.047 2546.4h484.84"/>
  <path id="path972" d="m40.866 2546.6h485.2"/>
  <path id="path974" d="m40.686 2546.9h485.56"/>
  <path id="path976" d="m40.505 2547.2h485.92"/>
  <path id="path978" d="m40.324 2547.5h486.28"/>
  <path id="path980" d="m40.144 2547.8h486.64"/>
  <path id="path982" d="m39.963 2548.1h487"/>
  <path id="path984" d="m39.783 2548.3h487.36"/>
  <path id="path986" d="m39.602 2548.6h487.72"/>
  <path id="path988" d="m39.422 2548.9h488.08"/>
  <path id="path990" d="m39.241 2549.2h488.45"/>
  <path id="path992" d="m39.06 2549.5h488.81"/>
  <path id="path994" d="m38.88 2549.8h489.17"/>
  <path id="path996" d="m38.699 2550h489.53"/>
  <path id="path998" d="m38.519 2550.3h489.89"/>
  <path id="path1000" d="m38.338 2550.6h490.25"/>
  <path id="path1002" d="m38.157 2550.9h490.61"/>
  <path id="path1004" d="m37.977 2551.2h490.98"/>
  <path id="path1006" d="m37.829 2551.5h491.27"/>
  <path id="path1008" d="m37.682 2551.7h491.56"/>
  <path id="path1010" d="m37.534 2552h491.86"/>
  <path id="path1012" d="m37.387 2552.3h492.16"/>
  <path id="path1014" d="m37.239 2552.6h492.45"/>
  <path id="path1016" d="m37.092 2552.9h492.74"/>
  <path id="path1018" d="m36.944 2553.2h493.04"/>
  <path id="path1020" d="m36.796 2553.4h493.34"/>
  <path id="path1022" d="m36.649 2553.7h493.63"/>
  <path id="path1024" d="m36.501 2554h493.93"/>
  <path id="path1026" d="m36.354 2554.3h494.22"/>
  <path id="path1028" d="m36.206 2554.6h494.52"/>
  <path id="path1030" d="m36.058 2554.9h494.81"/>
  <path id="path1032" d="m35.911 2555.2h495.11"/>
  <path id="path1034" d="m35.763 2555.4h495.4"/>
  <path id="path1036" d="m35.616 2555.7h495.7"/>
  <path id="path1038" d="m35.468 2556h495.99"/>
  <path id="path1040" d="m35.321 2556.3h496.29"/>
  <path id="path1042" d="m35.173 2556.6h496.58"/>
  <path id="path1044" d="m35.026 2556.9h496.88"/>
  <path id="path1046" d="m34.878 2557.1h497.17"/>
  <path id="path1048" d="m34.73 2557.4h497.47"/>
  <path id="path1050" d="m34.583 2557.7h497.76"/>
  <path id="path1052" d="m34.435 2558h498.06"/>
  <path id="path1054" d="m34.288 2558.3h498.35"/>
  <path id="path1056" d="m34.14 2558.6h498.65"/>
  <path id="path1058" d="m33.993 2558.8h498.94"/>
  <path id="path1060" d="m33.845 2559.1h499.24"/>
  <path id="path1062" d="m33.698 2559.4h499.53"/>
  <path id="path1064" d="m33.55 2559.7h499.83"/>
  <path id="path1066" d="m33.402 2560h500.12"/>
  <path id="path1068" d="m33.255 2560.3h500.42"/>
  <path id="path1070" d="m33.107 2560.5h500.72"/>
  <path id="path1072" d="m32.96 2560.8h501.01"/>
  <path id="path1074" d="m32.812 2561.1h501.3"/>
  <path id="path1076" d="m32.664 2561.4h501.6"/>
  <path id="path1078" d="m32.517 2561.7h501.9"/>
  <path id="path1080" d="m32.37 2562h502.19"/>
  <path id="path1082" d="m32.222 2562.2h502.48"/>
  <path id="path1084" d="m32.074 2562.5h502.78"/>
  <path id="path1086" d="m31.927 2562.8h503.08"/>
  <path id="path1088" d="m31.779 2563.1h503.37"/>
  <path id="path1090" d="m31.632 2563.4h503.66"/>
  <path id="path1092" d="m31.484 2563.7h503.96"/>
  <path id="path1094" d="m31.336 2563.9h504.26"/>
  <path id="path1096" d="m31.189 2564.2h504.55"/>
  <path id="path1098" d="m31.041 2564.5h504.85"/>
  <path id="path1100" d="m30.894 2564.8h505.14"/>
  <path id="path1102" d="m30.746 2565.1h505.44"/>
  <path id="path1104" d="m30.599 2565.4h505.73"/>
  <path id="path1106" d="m30.451 2565.6h506.03"/>
  <path id="path1108" d="m30.304 2565.9h506.32"/>
  <path id="path1110" d="m30.156 2566.2h506.62"/>
  <path id="path1112" d="m30.008 2566.5h506.91"/>
  <path id="path1114" d="m29.861 2566.8h507.21"/>
  <path id="path1116" d="m29.713 2567.1h507.5"/>
  <path id="path1118" d="m29.566 2567.3h507.8"/>
  <path id="path1120" d="m29.418 2567.6h508.09"/>
  <path id="path1122" d="m29.271 2567.9h508.39"/>
  <path id="path1124" d="m29.123 2568.2h508.68"/>
  <path id="path1126" d="m28.976 2568.5h508.98"/>
  <path id="path1128" d="m28.828 2568.8h509.27"/>
  <path id="path1130" d="m28.68 2569h509.57"/>
  <path id="path1132" d="m28.533 2569.3h509.86"/>
  <path id="path1134" d="m28.385 2569.6h510.16"/>
  <path id="path1136" d="m28.238 2569.9h510.45"/>
  <path id="path1138" d="m28.09 2570.2h510.75"/>
  <path id="path1140" d="m27.943 2570.5h511.04"/>
  <path id="path1142" d="m27.795 2570.7h511.34"/>
  <path id="path1144" d="m27.647 2571h511.63"/>
  <path id="path1146" d="m27.5 2571.3h511.93"/>
  <path id="path1148" d="m27.352 2571.6h512.22"/>
  <path id="path1150" d="m27.205 2571.9h512.52"/>
  <path id="path1152" d="m27.057 2572.2h512.82"/>
  <path id="path1154" d="m26.91 2572.4h513.11"/>
  <path id="path1156" d="m26.762 2572.7h513.4"/>
  <path id="path1158" d="m26.614 2573h513.7"/>
  <path id="path1160" d="m26.486 2573.3h513.96"/>
  <path id="path1162" d="m26.368 2573.6h514.19"/>
  <path id="path1164" d="m26.251 2573.9h514.43"/>
  <path id="path1166" d="m26.133 2574.1h514.66"/>
  <path id="path1168" d="m26.016 2574.4h514.9"/>
  <path id="path1170" d="m25.898 2574.7h515.13"/>
  <path id="path1172" d="m25.781 2575h515.37"/>
  <path id="path1174" d="m25.664 2575.3h515.6"/>
  <path id="path1176" d="m25.546 2575.6h515.84"/>
  <path id="path1178" d="m25.429 2575.8h516.07"/>
  <path id="path1180" d="m25.311 2576.1h516.31"/>
  <path id="path1182" d="m25.194 2576.4h516.54"/>
  <path id="path1184" d="m25.077 2576.7h516.78"/>
  <path id="path1186" d="m24.959 2577h517.01"/>
  <path id="path1188" d="m24.842 2577.3h517.24"/>
  <path id="path1190" d="m24.724 2577.5h517.48"/>
  <path id="path1192" d="m24.607 2577.8h517.72"/>
  <path id="path1194" d="m24.489 2578.1h517.95"/>
  <path id="path1196" d="m24.372 2578.4h518.18"/>
  <path id="path1198" d="m24.255 2578.7h518.42"/>
  <path id="path1200" d="m24.137 2579h518.65"/>
  <path id="path1202" d="m24.02 2579.2h518.89"/>
  <path id="path1204" d="m23.902 2579.5h519.12"/>
  <path id="path1206" d="m23.785 2579.8h519.36"/>
  <path id="path1208" d="m23.668 2580.1h519.59"/>
  <path id="path1210" d="m23.55 2580.4h519.83"/>
  <path id="path1212" d="m23.433 2580.7h520.06"/>
  <path id="path1214" d="m23.315 2580.9h520.3"/>
  <path id="path1216" d="m23.198 2581.2h520.53"/>
  <path id="path1218" d="m23.081 2581.5h520.77"/>
  <path id="path1220" d="m22.963 2581.8h521"/>
  <path id="path1222" d="m22.846 2582.1h521.24"/>
  <path id="path1224" d="m22.728 2582.4h521.47"/>
  <path id="path1226" d="m22.611 2582.6h521.71"/>
  <path id="path1228" d="m22.494 2582.9h521.94"/>
  <path id="path1230" d="m22.376 2583.2h522.18"/>
  <path id="path1232" d="m22.259 2583.5h522.41"/>
  <path id="path1234" d="m22.141 2583.8h522.65"/>
  <path id="path1236" d="m22.024 2584.1h522.88"/>
  <path id="path1238" d="m21.906 2584.3h523.12"/>
  <path id="path1240" d="m21.789 2584.6h523.35"/>
  <path id="path1242" d="m21.672 2584.9h523.58"/>
  <path id="path1244" d="m21.554 2585.2h523.82"/>
  <path id="path1246" d="m21.437 2585.5h524.06"/>
  <path id="path1248" d="m21.319 2585.8h524.29"/>
  <path id="path1250" d="m21.202 2586h524.52"/>
  <path id="path1252" d="m21.085 2586.3h524.76"/>
  <path id="path1254" d="m20.967 2586.6h525"/>
  <path id="path1256" d="m20.85 2586.9h525.23"/>
  <path id="path1258" d="m20.732 2587.2h525.46"/>
  <path id="path1260" d="m20.615 2587.5h525.7"/>
  <path id="path1262" d="m20.498 2587.7h525.93"/>
  <path id="path1264" d="m20.38 2588h526.17"/>
  <path id="path1266" d="m20.263 2588.3h526.4"/>
  <path id="path1268" d="m20.145 2588.6h526.64"/>
  <path id="path1270" d="m20.028 2588.9h526.87"/>
  <path id="path1272" d="m19.91 2589.2h527.11"/>
  <path id="path1274" d="m19.793 2589.4h527.34"/>
  <path id="path1276" d="m19.676 2589.7h527.58"/>
  <path id="path1278" d="m19.558 2590h527.81"/>
  <path id="path1280" d="m19.441 2590.3h528.05"/>
  <path id="path1282" d="m19.323 2590.6h528.28"/>
  <path id="path1284" d="m19.206 2590.9h528.52"/>
  <path id="path1286" d="m19.089 2591.2h528.75"/>
  <path id="path1288" d="m18.971 2591.4h528.99"/>
  <path id="path1290" d="m18.854 2591.7h529.22"/>
  <path id="path1292" d="m18.736 2592h529.46"/>
  <path id="path1294" d="m18.619 2592.3h529.69"/>
  <path id="path1296" d="m18.501 2592.6h529.93"/>
  <path id="path1298" d="m18.384 2592.9h530.16"/>
  <path id="path1300" d="m18.267 2593.1h530.4"/>
  <path id="path1302" d="m18.149 2593.4h530.63"/>
  <path id="path1304" d="m18.032 2593.7h530.86"/>
  <path id="path1306" d="m17.914 2594h531.1"/>
  <path id="path1308" d="m17.797 2594.3h531.34"/>
  <path id="path1310" d="m17.679 2594.6h531.57"/>
  <path id="path1312" d="m17.562 2594.8h531.8"/>
  <path id="path1314" d="m17.445 2595.1h532.04"/>
  <path id="path1316" d="m17.327 2595.4h532.27"/>
  <path id="path1318" d="m17.21 2595.7h532.51"/>
  <path id="path1320" d="m17.093 2596h532.74"/>
  <path id="path1322" d="m17.004 2596.3h532.92"/>
  <path id="path1324" d="m16.914 2596.5h533.1"/>
  <path id="path1326" d="m16.825 2596.8h533.28"/>
  <path id="path1328" d="m16.736 2597.1h533.46"/>
  <path id="path1330" d="m16.646 2597.4h533.64"/>
  <path id="path1332" d="m16.557 2597.7h533.82"/>
  <path id="path1334" d="m16.467 2598h533.99"/>
  <path id="path1336" d="m16.378 2598.2h534.17"/>
  <path id="path1338" d="m16.289 2598.5h534.35"/>
  <path id="path1340" d="m16.199 2598.8h534.53"/>
  <path id="path1342" d="m16.11 2599.1h534.71"/>
  <path id="path1344" d="m16.02 2599.4h534.89"/>
  <path id="path1346" d="m15.931 2599.7h535.07"/>
  <path id="path1348" d="m15.842 2599.9h535.24"/>
  <path id="path1350" d="m15.752 2600.2h535.42"/>
  <path id="path1352" d="m15.663 2600.5h535.6"/>
  <path id="path1354" d="m15.574 2600.8h535.78"/>
  <path id="path1356" d="m15.484 2601.1h535.96"/>
  <path id="path1358" d="m15.395 2601.4h536.14"/>
  <path id="path1360" d="m15.306 2601.6h536.32"/>
  <path id="path1362" d="m15.216 2601.9h536.5"/>
  <path id="path1364" d="m15.127 2602.2h536.68"/>
  <path id="path1366" d="m15.037 2602.5h536.85"/>
  <path id="path1368" d="m14.948 2602.8h537.03"/>
  <path id="path1370" d="m14.859 2603.1h537.21"/>
  <path id="path1372" d="m14.769 2603.3h537.39"/>
  <path id="path1374" d="m14.68 2603.6h537.57"/>
  <path id="path1376" d="m14.591 2603.9h537.75"/>
  <path id="path1378" d="m14.501 2604.2h537.93"/>
  <path id="path1380" d="m14.412 2604.5h538.1"/>
  <path id="path1382" d="m14.322 2604.8h538.28"/>
  <path id="path1384" d="m14.233 2605h538.46"/>
  <path id="path1386" d="m14.144 2605.3h538.64"/>
  <path id="path1388" d="m14.054 2605.6h538.82"/>
  <path id="path1390" d="m13.965 2605.9h539"/>
  <path id="path1392" d="m13.875 2606.2h539.18"/>
  <path id="path1394" d="m13.786 2606.5h539.36"/>
  <path id="path1396" d="m13.697 2606.7h539.54"/>
  <path id="path1398" d="m13.607 2607h539.71"/>
  <path id="path1400" d="m13.518 2607.3h539.89"/>
  <path id="path1402" d="m13.429 2607.6h540.07"/>
  <path id="path1404" d="m13.339 2607.9h540.25"/>
  <path id="path1406" d="m13.25 2608.2h540.43"/>
  <path id="path1408" d="m13.161 2608.4h540.61"/>
  <path id="path1410" d="m13.071 2608.7h540.79"/>
  <path id="path1412" d="m12.982 2609h540.96"/>
  <path id="path1414" d="m12.892 2609.3h541.14"/>
  <path id="path1416" d="m12.803 2609.6h541.32"/>
  <path id="path1418" d="m12.714 2609.9h541.5"/>
  <path id="path1420" d="m12.624 2610.1h541.68"/>
  <path id="path1422" d="m12.535 2610.4h541.86"/>
  <path id="path1424" d="m12.445 2610.7h542.04"/>
  <path id="path1426" d="m12.356 2611h542.22"/>
  <path id="path1428" d="m12.267 2611.3h542.4"/>
  <path id="path1430" d="m12.177 2611.6h542.57"/>
  <path id="path1432" d="m12.088 2611.8h542.75"/>
  <path id="path1434" d="m11.999 2612.1h542.93"/>
  <path id="path1436" d="m11.909 2612.4h543.11"/>
  <path id="path1438" d="m11.82 2612.7h543.29"/>
  <path id="path1440" d="m11.73 2613h543.47"/>
  <path id="path1442" d="m11.641 2613.3h543.65"/>
  <path id="path1444" d="m11.552 2613.5h543.82"/>
  <path id="path1446" d="m11.462 2613.8h544"/>
  <path id="path1448" d="m11.373 2614.1h544.18"/>
  <path id="path1450" d="m11.284 2614.4h544.36"/>
  <path id="path1452" d="m11.194 2614.7h544.54"/>
  <path id="path1454" d="m11.105 2615h544.72"/>
  <path id="path1456" d="m11.015 2615.2h544.9"/>
  <path id="path1458" d="m10.926 2615.5h545.08"/>
  <path id="path1460" d="m10.837 2615.8h545.26"/>
  <path id="path1462" d="m10.747 2616.1h545.43"/>
  <path id="path1464" d="m10.658 2616.4h545.61"/>
  <path id="path1466" d="m10.568 2616.7h545.79"/>
  <path id="path1468" d="m10.479 2616.9h545.97"/>
  <path id="path1470" d="m10.39 2617.2h546.15"/>
  <path id="path1472" d="m10.3 2617.5h546.33"/>
  <path id="path1474" d="m10.211 2617.8h546.51"/>
  <path id="path1476" d="m10.122 2618.1h546.68"/>
  <path id="path1478" d="m10.032 2618.4h546.86"/>
  <path id="path1480" d="m9.943 2618.6h547.04"/>
  <path id="path1482" d="m9.854 2618.9h547.22"/>
  <path id="path1484" d="m9.764 2619.2h547.4"/>
  <path id="path1486" d="m9.675 2619.5h547.58"/>
  <path id="path1488" d="m9.607 2619.8h547.72"/>
  <path id="path1490" d="m9.544 2620.1h547.84"/>
  <path id="path1492" d="m9.481 2620.3h547.97"/>
  <path id="path1494" d="m9.419 2620.6h548.09"/>
  <path id="path1496" d="m9.356 2620.9h548.22"/>
  <path id="path1498" d="m9.293 2621.2h548.34"/>
  <path id="path1500" d="m9.23 2621.5h548.47"/>
  <path id="path1502" d="m9.167 2621.8h548.6"/>
  <path id="path1504" d="m9.104 2622h548.72"/>
  <path id="path1506" d="m9.042 2622.3h548.84"/>
  <path id="path1508" d="m8.979 2622.6h548.97"/>
  <path id="path1510" d="m8.916 2622.9h549.1"/>
  <path id="path1512" d="m8.853 2623.2h549.22"/>
  <path id="path1514" d="m8.79 2623.5h549.35"/>
  <path id="path1516" d="m8.727 2623.7h549.48"/>
  <path id="path1518" d="m8.664 2624h549.6"/>
  <path id="path1520" d="m8.602 2624.3h549.72"/>
  <path id="path1522" d="m8.539 2624.6h549.85"/>
  <path id="path1524" d="m8.476 2624.9h549.98"/>
  <path id="path1526" d="m8.413 2625.2h550.1"/>
  <path id="path1528" d="m8.35 2625.4h550.23"/>
  <path id="path1530" d="m8.287 2625.7h550.35"/>
  <path id="path1532" d="m8.225 2626h550.48"/>
  <path id="path1534" d="m8.162 2626.3h550.6"/>
  <path id="path1536" d="m8.099 2626.6h550.73"/>
  <path id="path1538" d="m8.036 2626.9h550.86"/>
  <path id="path1540" d="m7.973 2627.2h550.98"/>
  <path id="path1542" d="m7.91 2627.4h551.11"/>
  <path id="path1544" d="m7.848 2627.7h551.23"/>
  <path id="path1546" d="m7.785 2628h551.36"/>
  <path id="path1548" d="m7.722 2628.3h551.48"/>
  <path id="path1550" d="m7.659 2628.6h551.61"/>
  <path id="path1552" d="m7.596 2628.9h551.74"/>
  <path id="path1554" d="m7.533 2629.1h551.86"/>
  <path id="path1556" d="m7.471 2629.4h551.99"/>
  <path id="path1558" d="m7.408 2629.7h552.11"/>
  <path id="path1560" d="m7.345 2630h552.24"/>
  <path id="path1562" d="m7.282 2630.3h552.36"/>
  <path id="path1564" d="m7.219 2630.6h552.49"/>
  <path id="path1566" d="m7.156 2630.8h552.62"/>
  <path id="path1568" d="m7.094 2631.1h552.74"/>
  <path id="path1570" d="m7.031 2631.4h552.87"/>
  <path id="path1572" d="m6.968 2631.7h552.99"/>
  <path id="path1574" d="m6.905 2632h553.12"/>
  <path id="path1576" d="m6.842 2632.3h553.24"/>
  <path id="path1578" d="m6.779 2632.5h553.37"/>
  <path id="path1580" d="m6.716 2632.8h553.5"/>
  <path id="path1582" d="m6.654 2633.1h553.62"/>
  <path id="path1584" d="m6.591 2633.4h553.75"/>
  <path id="path1586" d="m6.528 2633.7h553.87"/>
  <path id="path1588" d="m6.465 2634h554"/>
  <path id="path1590" d="m6.402 2634.2h554.12"/>
  <path id="path1592" d="m6.339 2634.5h554.25"/>
  <path id="path1594" d="m6.277 2634.8h554.38"/>
  <path id="path1596" d="m6.214 2635.1h554.5"/>
  <path id="path1598" d="m6.151 2635.4h554.63"/>
  <path id="path1600" d="m6.088 2635.7h554.75"/>
  <path id="path1602" d="m6.025 2635.9h554.88"/>
  <path id="path1604" d="m5.962 2636.2h555"/>
  <path id="path1606" d="m5.899 2636.5h555.13"/>
  <path id="path1608" d="m5.837 2636.8h555.26"/>
  <path id="path1610" d="m5.774 2637.1h555.38"/>
  <path id="path1612" d="m5.711 2637.4h555.51"/>
  <path id="path1614" d="m5.648 2637.6h555.63"/>
  <path id="path1616" d="m5.585 2637.9h555.76"/>
  <path id="path1618" d="m5.522 2638.2h555.88"/>
  <path id="path1620" d="m5.46 2638.5h556.01"/>
  <path id="path1622" d="m5.397 2638.8h556.14"/>
  <path id="path1624" d="m5.334 2639.1h556.26"/>
  <path id="path1626" d="m5.271 2639.3h556.39"/>
  <path id="path1628" d="m5.208 2639.6h556.51"/>
  <path id="path1630" d="m5.145 2639.9h556.64"/>
  <path id="path1632" d="m5.083 2640.2h556.76"/>
  <path id="path1634" d="m5.02 2640.5h556.89"/>
  <path id="path1636" d="m4.957 2640.8h557.02"/>
  <path id="path1638" d="m4.894 2641h557.14"/>
  <path id="path1640" d="m4.831 2641.3h557.27"/>
  <path id="path1642" d="m4.768 2641.6h557.39"/>
  <path id="path1644" d="m4.705 2641.9h557.52"/>
  <path id="path1646" d="m4.643 2642.2h557.64"/>
  <path id="path1648" d="m4.58 2642.5h557.77"/>
  <path id="path1650" d="m4.517 2642.7h557.9"/>
  <path id="path1652" d="m4.454 2643h558.02"/>
  <path id="path1654" d="m4.391 2643.3h558.15"/>
  <path id="path1656" d="m4.328 2643.6h558.27"/>
  <path id="path1658" d="m4.282 2643.9h558.36"/>
  <path id="path1660" d="m4.245 2644.2h558.44"/>
  <path id="path1662" d="m4.207 2644.4h558.51"/>
  <path id="path1664" d="m4.17 2644.7h558.59"/>
  <path id="path1666" d="m4.133 2645h558.66"/>
  <path id="path1668" d="m4.096 2645.3h558.74"/>
  <path id="path1670" d="m4.058 2645.6h558.81"/>
  <path id="path1672" d="m4.021 2645.9h558.89"/>
  <path id="path1674" d="m3.984 2646.1h558.96"/>
  <path id="path1676" d="m3.946 2646.4h559.04"/>
  <path id="path1678" d="m3.909 2646.7h559.11"/>
  <path id="path1680" d="m3.872 2647h559.18"/>
  <path id="path1682" d="m3.834 2647.3h559.26"/>
  <path id="path1684" d="m3.797 2647.6h559.34"/>
  <path id="path1686" d="m3.76 2647.8h559.41"/>
  <path id="path1688" d="m3.722 2648.1h559.48"/>
  <path id="path1690" d="m3.685 2648.4h559.56"/>
  <path id="path1692" d="m3.648 2648.7h559.63"/>
  <path id="path1694" d="m3.61 2649h559.71"/>
  <path id="path1696" d="m3.573 2649.3h559.78"/>
  <path id="path1698" d="m3.536 2649.5h559.86"/>
  <path id="path1700" d="m3.498 2649.8h559.93"/>
  <path id="path1702" d="m3.461 2650.1h560.01"/>
  <path id="path1704" d="m3.424 2650.4h560.08"/>
  <path id="path1706" d="m3.387 2650.7h560.16"/>
  <path id="path1708" d="m3.349 2651h560.23"/>
  <path id="path1710" d="m3.312 2651.2h560.3"/>
  <path id="path1712" d="m3.274 2651.5h560.38"/>
  <path id="path1714" d="m3.237 2651.8h560.46"/>
  <path id="path1716" d="m3.2 2652.1h560.53"/>
  <path id="path1718" d="m3.162 2652.4h560.6"/>
  <path id="path1720" d="m3.125 2652.7h560.68"/>
  <path id="path1722" d="m3.088 2652.9h560.75"/>
  <path id="path1724" d="m3.051 2653.2h560.83"/>
  <path id="path1726" d="m3.013 2653.5h560.9"/>
  <path id="path1728" d="m2.976 2653.8h560.98"/>
  <path id="path1730" d="m2.939 2654.1h561.05"/>
  <path id="path1732" d="m2.901 2654.4h561.13"/>
  <path id="path1734" d="m2.864 2654.6h561.2"/>
  <path id="path1736" d="m2.827 2654.9h561.28"/>
  <path id="path1738" d="m2.789 2655.2h561.35"/>
  <path id="path1740" d="m2.752 2655.5h561.42"/>
  <path id="path1742" d="m2.715 2655.8h561.5"/>
  <path id="path1744" d="m2.677 2656.1h561.57"/>
  <path id="path1746" d="m2.64 2656.3h561.65"/>
  <path id="path1748" d="m2.603 2656.6h561.72"/>
  <path id="path1750" d="m2.565 2656.9h561.8"/>
  <path id="path1752" d="m2.528 2657.2h561.87"/>
  <path id="path1754" d="m2.491 2657.5h561.95"/>
  <path id="path1756" d="m2.453 2657.8h562.02"/>
  <path id="path1758" d="m2.416 2658h562.1"/>
  <path id="path1760" d="m2.379 2658.3h562.17"/>
  <path id="path1762" d="m2.342 2658.6h562.24"/>
  <path id="path1764" d="m2.304 2658.9h562.32"/>
  <path id="path1766" d="m2.267 2659.2h562.4"/>
  <path id="path1768" d="m2.23 2659.5h562.47"/>
  <path id="path1770" d="m2.192 2659.7h562.54"/>
  <path id="path1772" d="m2.155 2660h562.62"/>
  <path id="path1774" d="m2.118 2660.3h562.69"/>
  <path id="path1776" d="m2.08 2660.6h562.77"/>
  <path id="path1778" d="m2.043 2660.9h562.84"/>
  <path id="path1780" d="m2.006 2661.2h562.92"/>
  <path id="path1782" d="m1.968 2661.4h562.99"/>
  <path id="path1784" d="m1.931 2661.7h563.07"/>
  <path id="path1786" d="m1.894 2662h563.14"/>
  <path id="path1788" d="m1.856 2662.3h563.22"/>
  <path id="path1790" d="m1.819 2662.6h563.29"/>
  <path id="path1792" d="m1.782 2662.9h563.36"/>
  <path id="path1794" d="m1.744 2663.2h563.44"/>
  <path id="path1796" d="m1.707 2663.4h563.52"/>
  <path id="path1798" d="m1.67 2663.7h563.59"/>
  <path id="path1800" d="m1.633 2664h563.66"/>
  <path id="path1802" d="m1.595 2664.3h563.74"/>
  <path id="path1804" d="m1.558 2664.6h563.81"/>
  <path id="path1806" d="m1.521 2664.9h563.89"/>
  <path id="path1808" d="m1.483 2665.1h563.96"/>
  <path id="path1810" d="m1.446 2665.4h564.04"/>
  <path id="path1812" d="m1.409 2665.7h564.11"/>
  <path id="path1814" d="m1.371 2666h564.19"/>
  <path id="path1816" d="m1.334 2666.3h564.26"/>
  <path id="path1818" d="m1.297 2666.6h564.34"/>
  <path id="path1820" d="m1.259 2666.8h564.41"/>
  <path id="path1822" d="m1.222 2667.1h564.48"/>
  <path id="path1824" d="m1.185 2667.4h564.56"/>
  <path id="path1826" d="m1.147 2667.7h564.63"/>
  <path id="path1828" d="m1.11 2668h564.71"/>
  <path id="path1830" d="m1.077 2668.3h564.78"/>
  <path id="path1832" d="m1.064 2668.5h564.8"/>
  <path id="path1834" d="m1.052 2668.8h564.82"/>
  <path id="path1836" d="m1.039 2669.1h564.85"/>
  <path id="path1838" d="m1.027 2669.4h564.88"/>
  <path id="path1840" d="m1.015 2669.7h564.9"/>
  <path id="path1842" d="m1.002 2670h564.92"/>
  <path id="path1844" d="m0.99 2670.2h564.95"/>
  <path id="path1846" d="m0.978 2670.5h564.97"/>
  <path id="path1848" d="m0.965 2670.8h565"/>
  <path id="path1850" d="m0.953 2671.1h565.02"/>
  <path id="path1852" d="m0.94 2671.4h565.05"/>
  <path id="path1854" d="m0.928 2671.7h565.07"/>
  <path id="path1856" d="m0.916 2671.9h565.1"/>
  <path id="path1858" d="m0.903 2672.2h565.12"/>
  <path id="path1860" d="m0.891 2672.5h565.15"/>
  <path id="path1862" d="m0.879 2672.8h565.17"/>
  <path id="path1864" d="m0.866 2673.1h565.2"/>
  <path id="path1866" d="m0.854 2673.4h565.22"/>
  <path id="path1868" d="m0.842 2673.6h565.24"/>
  <path id="path1870" d="m0.829 2673.9h565.27"/>
  <path id="path1872" d="m0.817 2674.2h565.3"/>
  <path id="path1874" d="m0.804 2674.5h565.32"/>
  <path id="path1876" d="m0.792 2674.8h565.34"/>
  <path id="path1878" d="m0.78 2675.1h565.37"/>
  <path id="path1880" d="m0.767 2675.3h565.4"/>
  <path id="path1882" d="m0.755 2675.6h565.42"/>
  <path id="path1884" d="m0.742 2675.9h565.44"/>
  <path id="path1886" d="m0.73 2676.2h565.47"/>
  <path id="path1888" d="m0.718 2676.5h565.49"/>
  <path id="path1890" d="m0.705 2676.8h565.52"/>
  <path id="path1892" d="m0.693 2677h565.54"/>
  <path id="path1894" d="m0.681 2677.3h565.57"/>
  <path id="path1896" d="m0.668 2677.6h565.59"/>
  <path id="path1898" d="m0.656 2677.9h565.62"/>
  <path id="path1900" d="m0.643 2678.2h565.64"/>
  <path id="path1902" d="m0.631 2678.5h565.67"/>
  <path id="path1904" d="m0.619 2678.7h565.69"/>
  <path id="path1906" d="m0.606 2679h565.72"/>
  <path id="path1908" d="m0.594 2679.3h565.74"/>
  <path id="path1910" d="m0.581 2679.6h565.77"/>
  <path id="path1912" d="m0.569 2679.9h565.79"/>
  <path id="path1914" d="m0.557 2680.2h565.82"/>
  <path id="path1916" d="m0.544 2680.4h565.84"/>
  <path id="path1918" d="m0.532 2680.7h565.86"/>
  <path id="path1920" d="m0.52 2681h565.89"/>
  <path id="path1922" d="m0.507 2681.3h565.92"/>
  <path id="path1924" d="m0.495 2681.6h565.94"/>
  <path id="path1926" d="m0.483 2681.9h565.96"/>
  <path id="path1928" d="m0.47 2682.1h565.99"/>
  <path id="path1930" d="m0.458 2682.4h566.01"/>
  <path id="path1932" d="m0.445 2682.7h566.04"/>
  <path id="path1934" d="m0.433 2683h566.06"/>
  <path id="path1936" d="m0.421 2683.3h566.09"/>
  <path id="path1938" d="m0.408 2683.6h566.11"/>
  <path id="path1940" d="m0.396 2683.8h566.14"/>
  <path id="path1942" d="m0.384 2684.1h566.16"/>
  <path id="path1944" d="m0.371 2684.4h566.19"/>
  <path id="path1946" d="m0.359 2684.7h566.21"/>
  <path id="path1948" d="m0.346 2685h566.24"/>
  <path id="path1950" d="m0.334 2685.3h566.26"/>
  <path id="path1952" d="m0.322 2685.5h566.28"/>
  <path id="path1954" d="m0.309 2685.8h566.31"/>
  <path id="path1956" d="m0.297 2686.1h566.34"/>
  <path id="path1958" d="m0.284 2686.4h566.36"/>
  <path id="path1960" d="m0.272 2686.7h566.38"/>
  <path id="path1962" d="m0.26 2687h566.41"/>
  <path id="path1964" d="m0.247 2687.2h566.43"/>
  <path id="path1966" d="m0.235 2687.5h566.46"/>
  <path id="path1968" d="m0.223 2687.8h566.48"/>
  <path id="path1970" d="m0.21 2688.1h566.51"/>
  <path id="path1972" d="m0.198 2688.4h566.53"/>
  <path id="path1974" d="m0.185 2688.7h566.56"/>
  <path id="path1976" d="m0.173 2688.9h566.58"/>
  <path id="path1978" d="m0.161 2689.2h566.61"/>
  <path id="path1980" d="m0.148 2689.5h566.63"/>
  <path id="path1982" d="m0.136 2689.8h566.66"/>
  <path id="path1984" d="m0.124 2690.1h566.68"/>
  <path id="path1986" d="m0.111 2690.4h566.71"/>
  <path id="path1988" d="m0.099 2690.6h566.73"/>
  <path id="path1990" d="m0.086 2690.9h566.76"/>
  <path id="path1992" d="m0.074 2691.2h566.78"/>
  <path id="path1994" d="m0.062 2691.5h566.8"/>
  <path id="path1996" d="m0.049 2691.8h566.83"/>
  <path id="path1998" d="m0.037 2692.1h566.86"/>
  <path id="path2000" d="m0.025 2692.3h566.88"/>
  <path id="path2002" d="m0.012 2692.6h566.9"/>
  <path id="path2004" d="m0 2692.9h566.93"/>
  <path id="path2006" d="m0.012 2693.2h566.9"/>
  <path id="path2008" d="m0.025 2693.5h566.88"/>
  <path id="path2010" d="m0.037 2693.8h566.86"/>
  <path id="path2012" d="m0.049 2694h566.83"/>
  <path id="path2014" d="m0.062 2694.3h566.8"/>
  <path id="path2016" d="m0.074 2694.6h566.78"/>
  <path id="path2018" d="m0.086 2694.9h566.76"/>
  <path id="path2020" d="m0.099 2695.2h566.73"/>
  <path id="path2022" d="m0.111 2695.5h566.71"/>
  <path id="path2024" d="m0.124 2695.7h566.68"/>
  <path id="path2026" d="m0.136 2696h566.66"/>
  <path id="path2028" d="m0.148 2696.3h566.63"/>
  <path id="path2030" d="m0.161 2696.6h566.61"/>
  <path id="path2032" d="m0.173 2696.9h566.58"/>
  <path id="path2034" d="m0.185 2697.2h566.56"/>
  <path id="path2036" d="m0.198 2697.4h566.53"/>
  <path id="path2038" d="m0.21 2697.7h566.51"/>
  <path id="path2040" d="m0.223 2698h566.48"/>
  <path id="path2042" d="m0.235 2698.3h566.46"/>
  <path id="path2044" d="m0.247 2698.6h566.43"/>
  <path id="path2046" d="m0.26 2698.9h566.41"/>
  <path id="path2048" d="m0.272 2699.2h566.38"/>
  <path id="path2050" d="m0.284 2699.4h566.36"/>
  <path id="path2052" d="m0.297 2699.7h566.34"/>
  <path id="path2054" d="m0.309 2700h566.31"/>
  <path id="path2056" d="m0.322 2700.3h566.28"/>
  <path id="path2058" d="m0.334 2700.6h566.26"/>
  <path id="path2060" d="m0.346 2700.9h566.24"/>
  <path id="path2062" d="m0.359 2701.1h566.21"/>
  <path id="path2064" d="m0.371 2701.4h566.19"/>
  <path id="path2066" d="m0.384 2701.7h566.16"/>
  <path id="path2068" d="m0.396 2702h566.14"/>
  <path id="path2070" d="m0.408 2702.3h566.11"/>
  <path id="path2072" d="m0.421 2702.6h566.09"/>
  <path id="path2074" d="m0.433 2702.8h566.06"/>
  <path id="path2076" d="m0.445 2703.1h566.04"/>
  <path id="path2078" d="m0.458 2703.4h566.01"/>
  <path id="path2080" d="m0.47 2703.7h565.99"/>
  <path id="path2082" d="m0.483 2704h565.96"/>
  <path id="path2084" d="m0.495 2704.3h565.94"/>
  <path id="path2086" d="m0.507 2704.5h565.92"/>
  <path id="path2088" d="m0.52 2704.8h565.89"/>
  <path id="path2090" d="m0.532 2705.1h565.86"/>
  <path id="path2092" d="m0.544 2705.4h565.84"/>
  <path id="path2094" d="m0.557 2705.7h565.82"/>
  <path id="path2096" d="m0.569 2706h565.79"/>
  <path id="path2098" d="m0.581 2706.2h565.77"/>
  <path id="path2100" d="m0.594 2706.5h565.74"/>
  <path id="path2102" d="m0.606 2706.8h565.72"/>
  <path id="path2104" d="m0.619 2707.1h565.69"/>
  <path id="path2106" d="m0.631 2707.4h565.67"/>
  <path id="path2108" d="m0.643 2707.7h565.64"/>
  <path id="path2110" d="m0.656 2707.9h565.62"/>
  <path id="path2112" d="m0.668 2708.2h565.59"/>
  <path id="path2114" d="m0.681 2708.5h565.57"/>
  <path id="path2116" d="m0.693 2708.8h565.54"/>
  <path id="path2118" d="m0.705 2709.1h565.52"/>
  <path id="path2120" d="m0.718 2709.4h565.49"/>
  <path id="path2122" d="m0.73 2709.6h565.47"/>
  <path id="path2124" d="m0.742 2709.9h565.44"/>
  <path id="path2126" d="m0.755 2710.2h565.42"/>
  <path id="path2128" d="m0.767 2710.5h565.4"/>
  <path id="path2130" d="m0.78 2710.8h565.37"/>
  <path id="path2132" d="m0.792 2711.1h565.34"/>
  <path id="path2134" d="m0.804 2711.3h565.32"/>
  <path id="path2136" d="m0.817 2711.6h565.3"/>
  <path id="path2138" d="m0.829 2711.9h565.27"/>
  <path id="path2140" d="m0.842 2712.2h565.24"/>
  <path id="path2142" d="m0.854 2712.5h565.22"/>
  <path id="path2144" d="m0.866 2712.8h565.2"/>
  <path id="path2146" d="m0.879 2713h565.17"/>
  <path id="path2148" d="m0.891 2713.3h565.15"/>
  <path id="path2150" d="m0.903 2713.6h565.12"/>
  <path id="path2152" d="m0.916 2713.9h565.1"/>
  <path id="path2154" d="m0.928 2714.2h565.07"/>
  <path id="path2156" d="m0.94 2714.5h565.05"/>
  <path id="path2158" d="m0.953 2714.7h565.02"/>
  <path id="path2160" d="m0.965 2715h565"/>
  <path id="path2162" d="m0.978 2715.3h564.97"/>
  <path id="path2164" d="m0.99 2715.6h564.95"/>
  <path id="path2166" d="m1.002 2715.9h564.92"/>
  <path id="path2168" d="m1.015 2716.2h564.9"/>
  <path id="path2170" d="m1.027 2716.4h564.88"/>
  <path id="path2172" d="m1.039 2716.7h564.85"/>
  <path id="path2174" d="m1.052 2717h564.82"/>
  <path id="path2176" d="m1.064 2717.3h564.8"/>
  <path id="path2178" d="m1.077 2717.6h564.78"/>
  <path id="path2180" d="m1.11 2717.9h564.71"/>
  <path id="path2182" d="m1.147 2718.1h564.63"/>
  <path id="path2184" d="m1.185 2718.4h564.56"/>
  <path id="path2186" d="m1.222 2718.7h564.48"/>
  <path id="path2188" d="m1.259 2719h564.41"/>
  <path id="path2190" d="m1.297 2719.3h564.34"/>
  <path id="path2192" d="m1.334 2719.6h564.26"/>
  <path id="path2194" d="m1.371 2719.8h564.19"/>
  <path id="path2196" d="m1.409 2720.1h564.11"/>
  <path id="path2198" d="m1.446 2720.4h564.04"/>
  <path id="path2200" d="m1.483 2720.7h563.96"/>
  <path id="path2202" d="m1.521 2721h563.89"/>
  <path id="path2204" d="m1.558 2721.3h563.81"/>
  <path id="path2206" d="m1.595 2721.5h563.74"/>
  <path id="path2208" d="m1.633 2721.8h563.66"/>
  <path id="path2210" d="m1.67 2722.1h563.59"/>
  <path id="path2212" d="m1.707 2722.4h563.52"/>
  <path id="path2214" d="m1.744 2722.7h563.44"/>
  <path id="path2216" d="m1.782 2723h563.36"/>
  <path id="path2218" d="m1.819 2723.2h563.29"/>
  <path id="path2220" d="m1.856 2723.5h563.22"/>
  <path id="path2222" d="m1.894 2723.8h563.14"/>
  <path id="path2224" d="m1.931 2724.1h563.07"/>
  <path id="path2226" d="m1.968 2724.4h562.99"/>
  <path id="path2228" d="m2.006 2724.7h562.92"/>
  <path id="path2230" d="m2.043 2724.9h562.84"/>
  <path id="path2232" d="m2.08 2725.2h562.77"/>
  <path id="path2234" d="m2.118 2725.5h562.69"/>
  <path id="path2236" d="m2.155 2725.8h562.62"/>
  <path id="path2238" d="m2.192 2726.1h562.54"/>
  <path id="path2240" d="m2.23 2726.4h562.47"/>
  <path id="path2242" d="m2.267 2726.6h562.4"/>
  <path id="path2244" d="m2.304 2726.9h562.32"/>
  <path id="path2246" d="m2.342 2727.2h562.24"/>
  <path id="path2248" d="m2.379 2727.5h562.17"/>
  <path id="path2250" d="m2.416 2727.8h562.1"/>
  <path id="path2252" d="m2.453 2728.1h562.02"/>
  <path id="path2254" d="m2.491 2728.3h561.95"/>
  <path id="path2256" d="m2.528 2728.6h561.87"/>
  <path id="path2258" d="m2.565 2728.9h561.8"/>
  <path id="path2260" d="m2.603 2729.2h561.72"/>
  <path id="path2262" d="m2.64 2729.5h561.65"/>
  <path id="path2264" d="m2.677 2729.8h561.57"/>
  <path id="path2266" d="m2.715 2730h561.5"/>
  <path id="path2268" d="m2.752 2730.3h561.42"/>
  <path id="path2270" d="m2.789 2730.6h561.35"/>
  <path id="path2272" d="m2.827 2730.9h561.28"/>
  <path id="path2274" d="m2.864 2731.2h561.2"/>
  <path id="path2276" d="m2.901 2731.5h561.13"/>
  <path id="path2278" d="m2.939 2731.7h561.05"/>
  <path id="path2280" d="m2.976 2732h560.98"/>
  <path id="path2282" d="m3.013 2732.3h560.9"/>
  <path id="path2284" d="m3.051 2732.6h560.83"/>
  <path id="path2286" d="m3.088 2732.9h560.75"/>
  <path id="path2288" d="m3.125 2733.2h560.68"/>
  <path id="path2290" d="m3.162 2733.4h560.6"/>
  <path id="path2292" d="m3.2 2733.7h560.53"/>
  <path id="path2294" d="m3.237 2734h560.46"/>
  <path id="path2296" d="m3.274 2734.3h560.38"/>
  <path id="path2298" d="m3.312 2734.6h560.3"/>
  <path id="path2300" d="m3.349 2734.9h560.23"/>
  <path id="path2302" d="m3.387 2735.2h560.16"/>
  <path id="path2304" d="m3.424 2735.4h560.08"/>
  <path id="path2306" d="m3.461 2735.7h560.01"/>
  <path id="path2308" d="m3.498 2736h559.93"/>
  <path id="path2310" d="m3.536 2736.3h559.86"/>
  <path id="path2312" d="m3.573 2736.6h559.78"/>
  <path id="path2314" d="m3.61 2736.9h559.71"/>
  <path id="path2316" d="m3.648 2737.1h559.63"/>
  <path id="path2318" d="m3.685 2737.4h559.56"/>
  <path id="path2320" d="m3.722 2737.7h559.48"/>
  <path id="path2322" d="m3.76 2738h559.41"/>
  <path id="path2324" d="m3.797 2738.3h559.34"/>
  <path id="path2326" d="m3.834 2738.6h559.26"/>
  <path id="path2328" d="m3.872 2738.8h559.18"/>
  <path id="path2330" d="m3.909 2739.1h559.11"/>
  <path id="path2332" d="m3.946 2739.4h559.04"/>
  <path id="path2334" d="m3.984 2739.7h558.96"/>
  <path id="path2336" d="m4.021 2740h558.89"/>
  <path id="path2338" d="m4.058 2740.3h558.81"/>
  <path id="path2340" d="m4.096 2740.5h558.74"/>
  <path id="path2342" d="m4.133 2740.8h558.66"/>
  <path id="path2344" d="m4.17 2741.1h558.59"/>
  <path id="path2346" d="m4.207 2741.4h558.51"/>
  <path id="path2348" d="m4.245 2741.7h558.44"/>
  <path id="path2350" d="m4.282 2742h558.36"/>
  <path id="path2352" d="m4.328 2742.2h558.27"/>
  <path id="path2354" d="m4.391 2742.5h558.15"/>
  <path id="path2356" d="m4.454 2742.8h558.02"/>
  <path id="path2358" d="m4.517 2743.1h557.9"/>
  <path id="path2360" d="m4.58 2743.4h557.77"/>
  <path id="path2362" d="m4.643 2743.7h557.64"/>
  <path id="path2364" d="m4.705 2743.9h557.52"/>
  <path id="path2366" d="m4.768 2744.2h557.39"/>
  <path id="path2368" d="m4.831 2744.5h557.27"/>
  <path id="path2370" d="m4.894 2744.8h557.14"/>
  <path id="path2372" d="m4.957 2745.1h557.02"/>
  <path id="path2374" d="m5.02 2745.4h556.89"/>
  <path id="path2376" d="m5.083 2745.6h556.76"/>
  <path id="path2378" d="m5.145 2745.9h556.64"/>
  <path id="path2380" d="m5.208 2746.2h556.51"/>
  <path id="path2382" d="m5.271 2746.5h556.39"/>
  <path id="path2384" d="m5.334 2746.8h556.26"/>
  <path id="path2386" d="m5.397 2747.1h556.14"/>
  <path id="path2388" d="m5.46 2747.3h556.01"/>
  <path id="path2390" d="m5.522 2747.6h555.88"/>
  <path id="path2392" d="m5.585 2747.9h555.76"/>
  <path id="path2394" d="m5.648 2748.2h555.63"/>
  <path id="path2396" d="m5.711 2748.5h555.51"/>
  <path id="path2398" d="m5.774 2748.8h555.38"/>
  <path id="path2400" d="m5.837 2749h555.26"/>
  <path id="path2402" d="m5.899 2749.3h555.13"/>
  <path id="path2404" d="m5.962 2749.6h555"/>
  <path id="path2406" d="m6.025 2749.9h554.88"/>
  <path id="path2408" d="m6.088 2750.2h554.75"/>
  <path id="path2410" d="m6.151 2750.5h554.63"/>
  <path id="path2412" d="m6.214 2750.7h554.5"/>
  <path id="path2414" d="m6.277 2751h554.38"/>
  <path id="path2416" d="m6.339 2751.3h554.25"/>
  <path id="path2418" d="m6.402 2751.6h554.12"/>
  <path id="path2420" d="m6.465 2751.9h554"/>
  <path id="path2422" d="m6.528 2752.2h553.87"/>
  <path id="path2424" d="m6.591 2752.4h553.75"/>
  <path id="path2426" d="m6.654 2752.7h553.62"/>
  <path id="path2428" d="m6.716 2753h553.5"/>
  <path id="path2430" d="m6.779 2753.3h553.37"/>
  <path id="path2432" d="m6.842 2753.6h553.24"/>
  <path id="path2434" d="m6.905 2753.9h553.12"/>
  <path id="path2436" d="m6.968 2754.1h552.99"/>
  <path id="path2438" d="m7.031 2754.4h552.87"/>
  <path id="path2440" d="m7.094 2754.7h552.74"/>
  <path id="path2442" d="m7.156 2755h552.62"/>
  <path id="path2444" d="m7.219 2755.3h552.49"/>
  <path id="path2446" d="m7.282 2755.6h552.36"/>
  <path id="path2448" d="m7.345 2755.8h552.24"/>
  <path id="path2450" d="m7.408 2756.1h552.11"/>
  <path id="path2452" d="m7.471 2756.4h551.99"/>
  <path id="path2454" d="m7.533 2756.7h551.86"/>
  <path id="path2456" d="m7.596 2757h551.74"/>
  <path id="path2458" d="m7.659 2757.3h551.61"/>
  <path id="path2460" d="m7.722 2757.5h551.48"/>
  <path id="path2462" d="m7.785 2757.8h551.36"/>
  <path id="path2464" d="m7.848 2758.1h551.23"/>
  <path id="path2466" d="m7.91 2758.4h551.11"/>
  <path id="path2468" d="m7.973 2758.7h550.98"/>
  <path id="path2470" d="m8.036 2759h550.86"/>
  <path id="path2472" d="m8.099 2759.2h550.73"/>
  <path id="path2474" d="m8.162 2759.5h550.6"/>
  <path id="path2476" d="m8.225 2759.8h550.48"/>
  <path id="path2478" d="m8.287 2760.1h550.35"/>
  <path id="path2480" d="m8.35 2760.4h550.23"/>
  <path id="path2482" d="m8.413 2760.7h550.1"/>
  <path id="path2484" d="m8.476 2760.9h549.98"/>
  <path id="path2486" d="m8.539 2761.2h549.85"/>
  <path id="path2488" d="m8.602 2761.5h549.72"/>
  <path id="path2490" d="m8.664 2761.8h549.6"/>
  <path id="path2492" d="m8.727 2762.1h549.48"/>
  <path id="path2494" d="m8.79 2762.4h549.35"/>
  <path id="path2496" d="m8.853 2762.6h549.22"/>
  <path id="path2498" d="m8.916 2762.9h549.1"/>
  <path id="path2500" d="m8.979 2763.2h548.97"/>
  <path id="path2502" d="m9.042 2763.5h548.84"/>
  <path id="path2504" d="m9.104 2763.8h548.72"/>
  <path id="path2506" d="m9.167 2764.1h548.6"/>
  <path id="path2508" d="m9.23 2764.3h548.47"/>
  <path id="path2510" d="m9.293 2764.6h548.34"/>
  <path id="path2512" d="m9.356 2764.9h548.22"/>
  <path id="path2514" d="m9.419 2765.2h548.09"/>
  <path id="path2516" d="m9.481 2765.5h547.97"/>
  <path id="path2518" d="m9.544 2765.8h547.84"/>
  <path id="path2520" d="m9.607 2766h547.72"/>
  <path id="path2522" d="m9.675 2766.3h547.58"/>
  <path id="path2524" d="m9.764 2766.6h547.4"/>
  <path id="path2526" d="m9.854 2766.9h547.22"/>
  <path id="path2528" d="m9.943 2767.2h547.04"/>
  <path id="path2530" d="m10.032 2767.5h546.86"/>
  <path id="path2532" d="m10.122 2767.7h546.68"/>
  <path id="path2534" d="m10.211 2768h546.51"/>
  <path id="path2536" d="m10.3 2768.3h546.33"/>
  <path id="path2538" d="m10.39 2768.6h546.15"/>
  <path id="path2540" d="m10.479 2768.9h545.97"/>
  <path id="path2542" d="m10.568 2769.2h545.79"/>
  <path id="path2544" d="m10.658 2769.4h545.61"/>
  <path id="path2546" d="m10.747 2769.7h545.43"/>
  <path id="path2548" d="m10.837 2770h545.26"/>
  <path id="path2550" d="m10.926 2770.3h545.08"/>
  <path id="path2552" d="m11.015 2770.6h544.9"/>
  <path id="path2554" d="m11.105 2770.9h544.72"/>
  <path id="path2556" d="m11.194 2771.2h544.54"/>
  <path id="path2558" d="m11.284 2771.4h544.36"/>
  <path id="path2560" d="m11.373 2771.7h544.18"/>
  <path id="path2562" d="m11.462 2772h544"/>
  <path id="path2564" d="m11.552 2772.3h543.82"/>
  <path id="path2566" d="m11.641 2772.6h543.65"/>
  <path id="path2568" d="m11.73 2772.9h543.47"/>
  <path id="path2570" d="m11.82 2773.1h543.29"/>
  <path id="path2572" d="m11.909 2773.4h543.11"/>
  <path id="path2574" d="m11.999 2773.7h542.93"/>
  <path id="path2576" d="m12.088 2774h542.75"/>
  <path id="path2578" d="m12.177 2774.3h542.57"/>
  <path id="path2580" d="m12.267 2774.6h542.4"/>
  <path id="path2582" d="m12.356 2774.8h542.22"/>
  <path id="path2584" d="m12.445 2775.1h542.04"/>
  <path id="path2586" d="m12.535 2775.4h541.86"/>
  <path id="path2588" d="m12.624 2775.7h541.68"/>
  <path id="path2590" d="m12.714 2776h541.5"/>
  <path id="path2592" d="m12.803 2776.3h541.32"/>
  <path id="path2594" d="m12.892 2776.5h541.14"/>
  <path id="path2596" d="m12.982 2776.8h540.96"/>
  <path id="path2598" d="m13.071 2777.1h540.79"/>
  <path id="path2600" d="m13.161 2777.4h540.61"/>
  <path id="path2602" d="m13.25 2777.7h540.43"/>
  <path id="path2604" d="m13.339 2778h540.25"/>
  <path id="path2606" d="m13.429 2778.2h540.07"/>
  <path id="path2608" d="m13.518 2778.5h539.89"/>
  <path id="path2610" d="m13.607 2778.8h539.71"/>
  <path id="path2612" d="m13.697 2779.1h539.54"/>
  <path id="path2614" d="m13.786 2779.4h539.36"/>
  <path id="path2616" d="m13.875 2779.7h539.18"/>
  <path id="path2618" d="m13.965 2779.9h539"/>
  <path id="path2620" d="m14.054 2780.2h538.82"/>
  <path id="path2622" d="m14.144 2780.5h538.64"/>
  <path id="path2624" d="m14.233 2780.8h538.46"/>
  <path id="path2626" d="m14.322 2781.1h538.28"/>
  <path id="path2628" d="m14.412 2781.4h538.1"/>
  <path id="path2630" d="m14.501 2781.6h537.93"/>
  <path id="path2632" d="m14.591 2781.9h537.75"/>
  <path id="path2634" d="m14.68 2782.2h537.57"/>
  <path id="path2636" d="m14.769 2782.5h537.39"/>
  <path id="path2638" d="m14.859 2782.8h537.21"/>
  <path id="path2640" d="m14.948 2783.1h537.03"/>
  <path id="path2642" d="m15.037 2783.3h536.85"/>
  <path id="path2644" d="m15.127 2783.6h536.68"/>
  <path id="path2646" d="m15.216 2783.9h536.5"/>
  <path id="path2648" d="m15.306 2784.2h536.32"/>
  <path id="path2650" d="m15.395 2784.5h536.14"/>
  <path id="path2652" d="m15.484 2784.8h535.96"/>
  <path id="path2654" d="m15.574 2785h535.78"/>
  <path id="path2656" d="m15.663 2785.3h535.6"/>
  <path id="path2658" d="m15.752 2785.6h535.42"/>
  <path id="path2660" d="m15.842 2785.9h535.24"/>
  <path id="path2662" d="m15.931 2786.2h535.07"/>
  <path id="path2664" d="m16.02 2786.5h534.89"/>
  <path id="path2666" d="m16.11 2786.7h534.71"/>
  <path id="path2668" d="m16.199 2787h534.53"/>
  <path id="path2670" d="m16.289 2787.3h534.35"/>
  <path id="path2672" d="m16.378 2787.6h534.17"/>
  <path id="path2674" d="m16.467 2787.9h533.99"/>
  <path id="path2676" d="m16.557 2788.2h533.82"/>
  <path id="path2678" d="m16.646 2788.4h533.64"/>
  <path id="path2680" d="m16.736 2788.7h533.46"/>
  <path id="path2682" d="m16.825 2789h533.28"/>
  <path id="path2684" d="m16.914 2789.3h533.1"/>
  <path id="path2686" d="m17.004 2789.6h532.92"/>
  <path id="path2688" d="m17.093 2789.9h532.74"/>
  <path id="path2690" d="m17.21 2790.1h532.51"/>
  <path id="path2692" d="m17.327 2790.4h532.27"/>
  <path id="path2694" d="m17.445 2790.7h532.04"/>
  <path id="path2696" d="m17.562 2791h531.8"/>
  <path id="path2698" d="m17.679 2791.3h531.57"/>
  <path id="path2700" d="m17.797 2791.6h531.34"/>
  <path id="path2702" d="m17.914 2791.8h531.1"/>
  <path id="path2704" d="m18.032 2792.1h530.86"/>
  <path id="path2706" d="m18.149 2792.4h530.63"/>
  <path id="path2708" d="m18.267 2792.7h530.4"/>
  <path id="path2710" d="m18.384 2793h530.16"/>
  <path id="path2712" d="m18.501 2793.3h529.93"/>
  <path id="path2714" d="m18.619 2793.5h529.69"/>
  <path id="path2716" d="m18.736 2793.8h529.46"/>
  <path id="path2718" d="m18.854 2794.1h529.22"/>
  <path id="path2720" d="m18.971 2794.4h528.99"/>
  <path id="path2722" d="m19.089 2794.7h528.75"/>
  <path id="path2724" d="m19.206 2795h528.52"/>
  <path id="path2726" d="m19.323 2795.2h528.28"/>
  <path id="path2728" d="m19.441 2795.5h528.05"/>
  <path id="path2730" d="m19.558 2795.8h527.81"/>
  <path id="path2732" d="m19.676 2796.1h527.58"/>
  <path id="path2734" d="m19.793 2796.4h527.34"/>
  <path id="path2736" d="m19.91 2796.7h527.11"/>
  <path id="path2738" d="m20.028 2796.9h526.87"/>
  <path id="path2740" d="m20.145 2797.2h526.64"/>
  <path id="path2742" d="m20.263 2797.5h526.4"/>
  <path id="path2744" d="m20.38 2797.8h526.17"/>
  <path id="path2746" d="m20.498 2798.1h525.93"/>
  <path id="path2748" d="m20.615 2798.4h525.7"/>
  <path id="path2750" d="m20.732 2798.6h525.46"/>
  <path id="path2752" d="m20.85 2798.9h525.23"/>
  <path id="path2754" d="m20.967 2799.2h525"/>
  <path id="path2756" d="m21.085 2799.5h524.76"/>
  <path id="path2758" d="m21.202 2799.8h524.52"/>
  <path id="path2760" d="m21.319 2800.1h524.29"/>
  <path id="path2762" d="m21.437 2800.3h524.06"/>
  <path id="path2764" d="m21.554 2800.6h523.82"/>
  <path id="path2766" d="m21.672 2800.9h523.58"/>
  <path id="path2768" d="m21.789 2801.2h523.35"/>
  <path id="path2770" d="m21.906 2801.5h523.12"/>
  <path id="path2772" d="m22.024 2801.8h522.88"/>
  <path id="path2774" d="m22.141 2802h522.65"/>
  <path id="path2776" d="m22.259 2802.3h522.41"/>
  <path id="path2778" d="m22.376 2802.6h522.18"/>
  <path id="path2780" d="m22.494 2802.9h521.94"/>
  <path id="path2782" d="m22.611 2803.2h521.71"/>
  <path id="path2784" d="m22.728 2803.5h521.47"/>
  <path id="path2786" d="m22.846 2803.7h521.24"/>
  <path id="path2788" d="m22.963 2804h521"/>
  <path id="path2790" d="m23.081 2804.3h520.77"/>
  <path id="path2792" d="m23.198 2804.6h520.53"/>
  <path id="path2794" d="m23.315 2804.9h520.3"/>
  <path id="path2796" d="m23.433 2805.2h520.06"/>
  <path id="path2798" d="m23.55 2805.4h519.83"/>
  <path id="path2800" d="m23.668 2805.7h519.59"/>
  <path id="path2802" d="m23.785 2806h519.36"/>
  <path id="path2804" d="m23.902 2806.3h519.12"/>
  <path id="path2806" d="m24.02 2806.6h518.89"/>
  <path id="path2808" d="m24.137 2806.9h518.65"/>
  <path id="path2810" d="m24.255 2807.2h518.42"/>
  <path id="path2812" d="m24.372 2807.4h518.18"/>
  <path id="path2814" d="m24.489 2807.7h517.95"/>
  <path id="path2816" d="m24.607 2808h517.72"/>
  <path id="path2818" d="m24.724 2808.3h517.48"/>
  <path id="path2820" d="m24.842 2808.6h517.24"/>
  <path id="path2822" d="m24.959 2808.9h517.01"/>
  <path id="path2824" d="m25.077 2809.1h516.78"/>
  <path id="path2826" d="m25.194 2809.4h516.54"/>
  <path id="path2828" d="m25.311 2809.7h516.31"/>
  <path id="path2830" d="m25.429 2810h516.07"/>
  <path id="path2832" d="m25.546 2810.3h515.84"/>
  <path id="path2834" d="m25.664 2810.6h515.6"/>
  <path id="path2836" d="m25.781 2810.8h515.37"/>
  <path id="path2838" d="m25.898 2811.1h515.13"/>
  <path id="path2840" d="m26.016 2811.4h514.9"/>
  <path id="path2842" d="m26.133 2811.7h514.66"/>
  <path id="path2844" d="m26.251 2812h514.43"/>
  <path id="path2846" d="m26.368 2812.3h514.19"/>
  <path id="path2848" d="m26.486 2812.5h513.96"/>
  <path id="path2850" d="m26.614 2812.8h513.7"/>
  <path id="path2852" d="m26.762 2813.1h513.4"/>
  <path id="path2854" d="m26.91 2813.4h513.11"/>
  <path id="path2856" d="m27.057 2813.7h512.82"/>
  <path id="path2858" d="m27.205 2814h512.52"/>
  <path id="path2860" d="m27.352 2814.2h512.22"/>
  <path id="path2862" d="m27.5 2814.5h511.93"/>
  <path id="path2864" d="m27.647 2814.8h511.63"/>
  <path id="path2866" d="m27.795 2815.1h511.34"/>
  <path id="path2868" d="m27.943 2815.4h511.04"/>
  <path id="path2870" d="m28.09 2815.7h510.75"/>
  <path id="path2872" d="m28.238 2815.9h510.45"/>
  <path id="path2874" d="m28.385 2816.2h510.16"/>
  <path id="path2876" d="m28.533 2816.5h509.86"/>
  <path id="path2878" d="m28.68 2816.8h509.57"/>
  <path id="path2880" d="m28.828 2817.1h509.27"/>
  <path id="path2882" d="m28.976 2817.4h508.98"/>
  <path id="path2884" d="m29.123 2817.6h508.68"/>
  <path id="path2886" d="m29.271 2817.9h508.39"/>
  <path id="path2888" d="m29.418 2818.2h508.09"/>
  <path id="path2890" d="m29.566 2818.5h507.8"/>
  <path id="path2892" d="m29.713 2818.8h507.5"/>
  <path id="path2894" d="m29.861 2819.1h507.21"/>
  <path id="path2896" d="m30.008 2819.3h506.91"/>
  <path id="path2898" d="m30.156 2819.6h506.62"/>
  <path id="path2900" d="m30.304 2819.9h506.32"/>
  <path id="path2902" d="m30.451 2820.2h506.03"/>
  <path id="path2904" d="m30.599 2820.5h505.73"/>
  <path id="path2906" d="m30.746 2820.8h505.44"/>
  <path id="path2908" d="m30.894 2821h505.14"/>
  <path id="path2910" d="m31.041 2821.3h504.85"/>
  <path id="path2912" d="m31.189 2821.6h504.55"/>
  <path id="path2914" d="m31.336 2821.9h504.26"/>
  <path id="path2916" d="m31.484 2822.2h503.96"/>
  <path id="path2918" d="m31.632 2822.5h503.66"/>
  <path id="path2920" d="m31.779 2822.7h503.37"/>
  <path id="path2922" d="m31.927 2823h503.08"/>
  <path id="path2924" d="m32.074 2823.3h502.78"/>
  <path id="path2926" d="m32.222 2823.6h502.48"/>
  <path id="path2928" d="m32.37 2823.9h502.19"/>
  <path id="path2930" d="m32.517 2824.2h501.9"/>
  <path id="path2932" d="m32.664 2824.4h501.6"/>
  <path id="path2934" d="m32.812 2824.7h501.3"/>
  <path id="path2936" d="m32.96 2825h501.01"/>
  <path id="path2938" d="m33.107 2825.3h500.72"/>
  <path id="path2940" d="m33.255 2825.6h500.42"/>
  <path id="path2942" d="m33.402 2825.9h500.12"/>
  <path id="path2944" d="m33.55 2826.1h499.83"/>
  <path id="path2946" d="m33.698 2826.4h499.53"/>
  <path id="path2948" d="m33.845 2826.7h499.24"/>
  <path id="path2950" d="m33.993 2827h498.94"/>
  <path id="path2952" d="m34.14 2827.3h498.65"/>
  <path id="path2954" d="m34.288 2827.6h498.35"/>
  <path id="path2956" d="m34.435 2827.8h498.06"/>
  <path id="path2958" d="m34.583 2828.1h497.76"/>
  <path id="path2960" d="m34.73 2828.4h497.47"/>
  <path id="path2962" d="m34.878 2828.7h497.17"/>
  <path id="path2964" d="m35.026 2829h496.88"/>
  <path id="path2966" d="m35.173 2829.3h496.58"/>
  <path id="path2968" d="m35.321 2829.5h496.29"/>
  <path id="path2970" d="m35.468 2829.8h495.99"/>
  <path id="path2972" d="m35.616 2830.1h495.7"/>
  <path id="path2974" d="m35.763 2830.4h495.4"/>
  <path id="path2976" d="m35.911 2830.7h495.11"/>
  <path id="path2978" d="m36.058 2831h494.81"/>
  <path id="path2980" d="m36.206 2831.2h494.52"/>
  <path id="path2982" d="m36.354 2831.5h494.22"/>
  <path id="path2984" d="m36.501 2831.8h493.93"/>
  <path id="path2986" d="m36.649 2832.1h493.63"/>
  <path id="path2988" d="m36.796 2832.4h493.34"/>
  <path id="path2990" d="m36.944 2832.7h493.04"/>
  <path id="path2992" d="m37.092 2832.9h492.74"/>
  <path id="path2994" d="m37.239 2833.2h492.45"/>
  <path id="path2996" d="m37.387 2833.5h492.16"/>
  <path id="path2998" d="m37.534 2833.8h491.86"/>
  <path id="path3000" d="m37.682 2834.1h491.56"/>
  <path id="path3002" d="m37.829 2834.4h491.27"/>
  <path id="path3004" d="m37.977 2834.6h490.98"/>
  <path id="path3006" d="m38.157 2834.9h490.61"/>
  <path id="path3008" d="m38.338 2835.2h490.25"/>
  <path id="path3010" d="m38.519 2835.5h489.89"/>
  <path id="path3012" d="m38.699 2835.8h489.53"/>
  <path id="path3014" d="m38.88 2836.1h489.17"/>
  <path id="path3016" d="m39.06 2836.3h488.81"/>
  <path id="path3018" d="m39.241 2836.6h488.45"/>
  <path id="path3020" d="m39.422 2836.9h488.08"/>
  <path id="path3022" d="m39.602 2837.2h487.72"/>
  <path id="path3024" d="m39.783 2837.5h487.36"/>
  <path id="path3026" d="m39.963 2837.8h487"/>
  <path id="path3028" d="m40.144 2838h486.64"/>
  <path id="path3030" d="m40.324 2838.3h486.28"/>
  <path id="path3032" d="m40.505 2838.6h485.92"/>
  <path id="path3034" d="m40.686 2838.9h485.56"/>
  <path id="path3036" d="m40.866 2839.2h485.2"/>
  <path id="path3038" d="m41.047 2839.5h484.84"/>
  <path id="path3040" d="m41.227 2839.7h484.47"/>
  <path id="path3042" d="m41.408 2840h484.11"/>
  <path id="path3044" d="m41.589 2840.3h483.75"/>
  <path id="path3046" d="m41.769 2840.6h483.39"/>
  <path id="path3048" d="m41.95 2840.9h483.03"/>
  <path id="path3050" d="m42.13 2841.2h482.67"/>
  <path id="path3052" d="m42.311 2841.4h482.31"/>
  <path id="path3054" d="m42.491 2841.7h481.95"/>
  <path id="path3056" d="m42.672 2842h481.58"/>
  <path id="path3058" d="m42.853 2842.3h481.22"/>
  <path id="path3060" d="m43.033 2842.6h480.86"/>
  <path id="path3062" d="m43.214 2842.9h480.5"/>
  <path id="path3064" d="m43.394 2843.2h480.14"/>
  <path id="path3066" d="m43.575 2843.4h479.78"/>
  <path id="path3068" d="m43.756 2843.7h479.42"/>
  <path id="path3070" d="m43.936 2844h479.06"/>
  <path id="path3072" d="m44.117 2844.3h478.7"/>
  <path id="path3074" d="m44.297 2844.6h478.33"/>
  <path id="path3076" d="m44.478 2844.9h477.97"/>
  <path id="path3078" d="m44.658 2845.1h477.61"/>
  <path id="path3080" d="m44.839 2845.4h477.25"/>
  <path id="path3082" d="m45.02 2845.7h476.89"/>
  <path id="path3084" d="m45.2 2846h476.53"/>
  <path id="path3086" d="m45.381 2846.3h476.17"/>
  <path id="path3088" d="m45.561 2846.6h475.81"/>
  <path id="path3090" d="m45.742 2846.8h475.44"/>
  <path id="path3092" d="m45.923 2847.1h475.08"/>
  <path id="path3094" d="m46.103 2847.4h474.72"/>
  <path id="path3096" d="m46.284 2847.7h474.36"/>
  <path id="path3098" d="m46.464 2848h474"/>
  <path id="path3100" d="m46.645 2848.3h473.64"/>
  <path id="path3102" d="m46.826 2848.5h473.28"/>
  <path id="path3104" d="m47.006 2848.8h472.92"/>
  <path id="path3106" d="m47.187 2849.1h472.56"/>
  <path id="path3108" d="m47.367 2849.4h472.19"/>
  <path id="path3110" d="m47.548 2849.7h471.83"/>
  <path id="path3112" d="m47.728 2850h471.47"/>
  <path id="path3114" d="m47.909 2850.2h471.11"/>
  <path id="path3116" d="m48.09 2850.5h470.75"/>
  <path id="path3118" d="m48.27 2850.8h470.39"/>
  <path id="path3120" d="m48.451 2851.1h470.03"/>
  <path id="path3122" d="m48.631 2851.4h469.67"/>
  <path id="path3124" d="m48.812 2851.7h469.3"/>
  <path id="path3126" d="m48.993 2851.9h468.94"/>
  <path id="path3128" d="m49.173 2852.2h468.58"/>
  <path id="path3130" d="m49.354 2852.5h468.22"/>
  <path id="path3132" d="m49.534 2852.8h467.86"/>
  <path id="path3134" d="m49.715 2853.1h467.5"/>
  <path id="path3136" d="m49.896 2853.4h467.14"/>
  <path id="path3138" d="m50.076 2853.6h466.78"/>
  <path id="path3140" d="m50.257 2853.9h466.42"/>
  <path id="path3142" d="m50.437 2854.2h466.06"/>
  <path id="path3144" d="m50.618 2854.5h465.69"/>
  <path id="path3146" d="m50.799 2854.8h465.33"/>
  <path id="path3148" d="m50.979 2855.1h464.97"/>
  <path id="path3150" d="m51.16 2855.3h464.61"/>
  <path id="path3152" d="m51.356 2855.6h464.22"/>
  <path id="path3154" d="m51.573 2855.9h463.78"/>
  <path id="path3156" d="m51.791 2856.2h463.35"/>
  <path id="path3158" d="m52.008 2856.5h462.91"/>
  <path id="path3160" d="m52.226 2856.8h462.48"/>
  <path id="path3162" d="m52.443 2857h462.04"/>
  <path id="path3164" d="m52.661 2857.3h461.61"/>
  <path id="path3166" d="m52.878 2857.6h461.17"/>
  <path id="path3168" d="m53.096 2857.9h460.74"/>
  <path id="path3170" d="m53.313 2858.2h460.3"/>
  <path id="path3172" d="m53.531 2858.5h459.87"/>
  <path id="path3174" d="m53.748 2858.7h459.43"/>
  <path id="path3176" d="m53.966 2859h459"/>
  <path id="path3178" d="m54.184 2859.3h458.56"/>
  <path id="path3180" d="m54.401 2859.6h458.13"/>
  <path id="path3182" d="m54.618 2859.9h457.69"/>
  <path id="path3184" d="m54.836 2860.2h457.26"/>
  <path id="path3186" d="m55.054 2860.4h456.82"/>
  <path id="path3188" d="m55.271 2860.7h456.39"/>
  <path id="path3190" d="m55.489 2861h455.95"/>
  <path id="path3192" d="m55.706 2861.3h455.52"/>
  <path id="path3194" d="m55.924 2861.6h455.08"/>
  <path id="path3196" d="m56.141 2861.9h454.65"/>
  <path id="path3198" d="m56.359 2862.1h454.21"/>
  <path id="path3200" d="m56.576 2862.4h453.78"/>
  <path id="path3202" d="m56.794 2862.7h453.34"/>
  <path id="path3204" d="m57.011 2863h452.91"/>
  <path id="path3206" d="m57.229 2863.3h452.47"/>
  <path id="path3208" d="m57.446 2863.6h452.04"/>
  <path id="path3210" d="m57.664 2863.8h451.6"/>
  <path id="path3212" d="m57.881 2864.1h451.17"/>
  <path id="path3214" d="m58.099 2864.4h450.73"/>
  <path id="path3216" d="m58.316 2864.7h450.3"/>
  <path id="path3218" d="m58.534 2865h449.86"/>
  <path id="path3220" d="m58.751 2865.3h449.43"/>
  <path id="path3222" d="m58.969 2865.5h448.99"/>
  <path id="path3224" d="m59.186 2865.8h448.56"/>
  <path id="path3226" d="m59.404 2866.1h448.12"/>
  <path id="path3228" d="m59.621 2866.4h447.69"/>
  <path id="path3230" d="m59.839 2866.7h447.25"/>
  <path id="path3232" d="m60.056 2867h446.82"/>
  <path id="path3234" d="m60.274 2867.2h446.38"/>
  <path id="path3236" d="m60.491 2867.5h445.95"/>
  <path id="path3238" d="m60.709 2867.8h445.51"/>
  <path id="path3240" d="m60.926 2868.1h445.08"/>
  <path id="path3242" d="m61.144 2868.4h444.64"/>
  <path id="path3244" d="m61.361 2868.7h444.21"/>
  <path id="path3246" d="m61.579 2868.9h443.77"/>
  <path id="path3248" d="m61.796 2869.2h443.34"/>
  <path id="path3250" d="m62.014 2869.5h442.9"/>
  <path id="path3252" d="m62.231 2869.8h442.47"/>
  <path id="path3254" d="m62.449 2870.1h442.03"/>
  <path id="path3256" d="m62.667 2870.4h441.6"/>
  <path id="path3258" d="m62.884 2870.6h441.16"/>
  <path id="path3260" d="m63.101 2870.9h440.73"/>
  <path id="path3262" d="m63.319 2871.2h440.29"/>
  <path id="path3264" d="m63.537 2871.5h439.86"/>
  <path id="path3266" d="m63.754 2871.8h439.42"/>
  <path id="path3268" d="m63.972 2872.1h438.98"/>
  <path id="path3270" d="m64.189 2872.3h438.55"/>
  <path id="path3272" d="m64.407 2872.6h438.12"/>
  <path id="path3274" d="m64.624 2872.9h437.68"/>
  <path id="path3276" d="m64.842 2873.2h437.24"/>
  <path id="path3278" d="m65.059 2873.5h436.81"/>
  <path id="path3280" d="m65.277 2873.8h436.38"/>
  <path id="path3282" d="m65.494 2874h435.94"/>
  <path id="path3284" d="m65.712 2874.3h435.5"/>
  <path id="path3286" d="m65.929 2874.6h435.07"/>
  <path id="path3288" d="m66.147 2874.9h434.64"/>
  <path id="path3290" d="m66.373 2875.2h434.18"/>
  <path id="path3292" d="m66.633 2875.5h433.66"/>
  <path id="path3294" d="m66.893 2875.7h433.14"/>
  <path id="path3296" d="m67.152 2876h432.62"/>
  <path id="path3298" d="m67.412 2876.3h432.1"/>
  <path id="path3300" d="m67.672 2876.6h431.58"/>
  <path id="path3302" d="m67.932 2876.9h431.06"/>
  <path id="path3304" d="m68.191 2877.2h430.55"/>
  <path id="path3306" d="m68.451 2877.4h430.03"/>
  <path id="path3308" d="m68.711 2877.7h429.51"/>
  <path id="path3310" d="m68.971 2878h428.99"/>
  <path id="path3312" d="m69.23 2878.3h428.47"/>
  <path id="path3314" d="m69.49 2878.6h427.95"/>
  <path id="path3316" d="m69.75 2878.9h427.43"/>
  <path id="path3318" d="m70.01 2879.2h426.91"/>
  <path id="path3320" d="m70.269 2879.4h426.39"/>
  <path id="path3322" d="m70.529 2879.7h425.87"/>
  <path id="path3324" d="m70.789 2880h425.35"/>
  <path id="path3326" d="m71.049 2880.3h424.83"/>
  <path id="path3328" d="m71.308 2880.6h424.31"/>
  <path id="path3330" d="m71.568 2880.9h423.79"/>
  <path id="path3332" d="m71.828 2881.1h423.27"/>
  <path id="path3334" d="m72.088 2881.4h422.75"/>
  <path id="path3336" d="m72.347 2881.7h422.24"/>
  <path id="path3338" d="m72.607 2882h421.72"/>
  <path id="path3340" d="m72.867 2882.3h421.2"/>
  <path id="path3342" d="m73.127 2882.6h420.68"/>
  <path id="path3344" d="m73.386 2882.8h420.16"/>
  <path id="path3346" d="m73.646 2883.1h419.64"/>
  <path id="path3348" d="m73.906 2883.4h419.12"/>
  <path id="path3350" d="m74.165 2883.7h418.6"/>
  <path id="path3352" d="m74.425 2884h418.08"/>
  <path id="path3354" d="m74.685 2884.3h417.56"/>
  <path id="path3356" d="m74.945 2884.5h417.04"/>
  <path id="path3358" d="m75.204 2884.8h416.52"/>
  <path id="path3360" d="m75.464 2885.1h416"/>
  <path id="path3362" d="m75.724 2885.4h415.48"/>
  <path id="path3364" d="m75.984 2885.7h414.96"/>
  <path id="path3366" d="m76.244 2886h414.44"/>
  <path id="path3368" d="m76.503 2886.2h413.92"/>
  <path id="path3370" d="m76.763 2886.5h413.4"/>
  <path id="path3372" d="m77.023 2886.8h412.88"/>
  <path id="path3374" d="m77.282 2887.1h412.36"/>
  <path id="path3376" d="m77.542 2887.4h411.84"/>
  <path id="path3378" d="m77.802 2887.7h411.32"/>
  <path id="path3380" d="m78.062 2887.9h410.8"/>
  <path id="path3382" d="m78.321 2888.2h410.29"/>
  <path id="path3384" d="m78.581 2888.5h409.77"/>
  <path id="path3386" d="m78.841 2888.8h409.25"/>
  <path id="path3388" d="m79.101 2889.1h408.73"/>
  <path id="path3390" d="m79.36 2889.4h408.21"/>
  <path id="path3392" d="m79.62 2889.6h407.69"/>
  <path id="path3394" d="m79.88 2889.9h407.17"/>
  <path id="path3396" d="m80.14 2890.2h406.65"/>
  <path id="path3398" d="m80.399 2890.5h406.13"/>
  <path id="path3400" d="m80.659 2890.8h405.61"/>
  <path id="path3402" d="m80.919 2891.1h405.09"/>
  <path id="path3404" d="m81.179 2891.3h404.57"/>
  <path id="path3406" d="m81.438 2891.6h404.05"/>
  <path id="path3408" d="m81.698 2891.9h403.53"/>
  <path id="path3410" d="m81.958 2892.2h403.01"/>
  <path id="path3412" d="m82.218 2892.5h402.49"/>
  <path id="path3414" d="m82.477 2892.8h401.97"/>
  <path id="path3416" d="m82.737 2893h401.46"/>
  <path id="path3418" d="m82.997 2893.3h400.94"/>
  <path id="path3420" d="m83.301 2893.6h400.33"/>
  <path id="path3422" d="m83.61 2893.9h399.71"/>
  <path id="path3424" d="m83.92 2894.2h399.09"/>
  <path id="path3426" d="m84.229 2894.5h398.47"/>
  <path id="path3428" d="m84.538 2894.7h397.85"/>
  <path id="path3430" d="m84.848 2895h397.23"/>
  <path id="path3432" d="m85.157 2895.3h396.62"/>
  <path id="path3434" d="m85.466 2895.6h396"/>
  <path id="path3436" d="m85.776 2895.9h395.38"/>
  <path id="path3438" d="m86.085 2896.2h394.76"/>
  <path id="path3440" d="m86.394 2896.4h394.14"/>
  <path id="path3442" d="m86.704 2896.7h393.52"/>
  <path id="path3444" d="m87.013 2897h392.9"/>
  <path id="path3446" d="m87.322 2897.3h392.28"/>
  <path id="path3448" d="m87.632 2897.6h391.66"/>
  <path id="path3450" d="m87.941 2897.9h391.05"/>
  <path id="path3452" d="m88.25 2898.1h390.43"/>
  <path id="path3454" d="m88.56 2898.4h389.81"/>
  <path id="path3456" d="m88.869 2898.7h389.19"/>
  <path id="path3458" d="m89.179 2899h388.57"/>
  <path id="path3460" d="m89.488 2899.3h387.95"/>
  <path id="path3462" d="m89.797 2899.6h387.34"/>
  <path id="path3464" d="m90.107 2899.8h386.72"/>
  <path id="path3466" d="m90.416 2900.1h386.1"/>
  <path id="path3468" d="m90.725 2900.4h385.48"/>
  <path id="path3470" d="m91.035 2900.7h384.86"/>
  <path id="path3472" d="m91.344 2901h384.24"/>
  <path id="path3474" d="m91.653 2901.3h383.62"/>
  <path id="path3476" d="m91.963 2901.5h383"/>
  <path id="path3478" d="m92.272 2901.8h382.38"/>
  <path id="path3480" d="m92.581 2902.1h381.77"/>
  <path id="path3482" d="m92.891 2902.4h381.15"/>
  <path id="path3484" d="m93.2 2902.7h380.53"/>
  <path id="path3486" d="m93.509 2903h379.91"/>
  <path id="path3488" d="m93.819 2903.2h379.29"/>
  <path id="path3490" d="m94.128 2903.5h378.67"/>
  <path id="path3492" d="m94.437 2903.8h378.05"/>
  <path id="path3494" d="m94.747 2904.1h377.44"/>
  <path id="path3496" d="m95.056 2904.4h376.82"/>
  <path id="path3498" d="m95.365 2904.7h376.2"/>
  <path id="path3500" d="m95.675 2904.9h375.58"/>
  <path id="path3502" d="m95.984 2905.2h374.96"/>
  <path id="path3504" d="m96.294 2905.5h374.34"/>
  <path id="path3506" d="m96.603 2905.8h373.72"/>
  <path id="path3508" d="m96.912 2906.1h373.1"/>
  <path id="path3510" d="m97.222 2906.4h372.48"/>
  <path id="path3512" d="m97.531 2906.6h371.87"/>
  <path id="path3514" d="m97.84 2906.9h371.25"/>
  <path id="path3516" d="m98.15 2907.2h370.63"/>
  <path id="path3518" d="m98.459 2907.5h370.01"/>
  <path id="path3520" d="m98.768 2907.8h369.39"/>
  <path id="path3522" d="m99.078 2908.1h368.77"/>
  <path id="path3524" d="m99.387 2908.3h368.16"/>
  <path id="path3526" d="m99.697 2908.6h367.54"/>
  <path id="path3528" d="m100.01 2908.9h366.92"/>
  <path id="path3530" d="m100.32 2909.2h366.3"/>
  <path id="path3532" d="m100.62 2909.5h365.68"/>
  <path id="path3534" d="m100.93 2909.8h365.06"/>
  <path id="path3536" d="m101.24 2910h364.44"/>
  <path id="path3538" d="m101.61 2910.3h363.71"/>
  <path id="path3540" d="m101.98 2910.6h362.97"/>
  <path id="path3542" d="m102.35 2910.9h362.23"/>
  <path id="path3544" d="m102.72 2911.2h361.49"/>
  <path id="path3546" d="m103.09 2911.5h360.75"/>
  <path id="path3548" d="m103.46 2911.7h360.02"/>
  <path id="path3550" d="m103.83 2912h359.28"/>
  <path id="path3552" d="m104.2 2912.3h358.54"/>
  <path id="path3554" d="m104.56 2912.6h357.8"/>
  <path id="path3556" d="m104.94 2912.9h357.06"/>
  <path id="path3558" d="m105.3 2913.2h356.32"/>
  <path id="path3560" d="m105.67 2913.4h355.58"/>
  <path id="path3562" d="m106.04 2913.7h354.84"/>
  <path id="path3564" d="m106.41 2914h354.1"/>
  <path id="path3566" d="m106.78 2914.3h353.36"/>
  <path id="path3568" d="m107.15 2914.6h352.63"/>
  <path id="path3570" d="m107.52 2914.9h351.89"/>
  <path id="path3572" d="m107.89 2915.2h351.15"/>
  <path id="path3574" d="m108.26 2915.4h350.41"/>
  <path id="path3576" d="m108.63 2915.7h349.67"/>
  <path id="path3578" d="m109 2916h348.93"/>
  <path id="path3580" d="m109.37 2916.3h348.19"/>
  <path id="path3582" d="m109.74 2916.6h347.46"/>
  <path id="path3584" d="m110.11 2916.9h346.72"/>
  <path id="path3586" d="m110.48 2917.1h345.98"/>
  <path id="path3588" d="m110.84 2917.4h345.24"/>
  <path id="path3590" d="m111.22 2917.7h344.5"/>
  <path id="path3592" d="m111.58 2918h343.76"/>
  <path id="path3594" d="m111.95 2918.3h343.02"/>
  <path id="path3596" d="m112.32 2918.6h342.28"/>
  <path id="path3598" d="m112.69 2918.8h341.54"/>
  <path id="path3600" d="m113.06 2919.1h340.8"/>
  <path id="path3602" d="m113.43 2919.4h340.07"/>
  <path id="path3604" d="m113.8 2919.7h339.33"/>
  <path id="path3606" d="m114.17 2920h338.59"/>
  <path id="path3608" d="m114.54 2920.3h337.85"/>
  <path id="path3610" d="m114.91 2920.5h337.11"/>
  <path id="path3612" d="m115.28 2920.8h336.37"/>
  <path id="path3614" d="m115.65 2921.1h335.63"/>
  <path id="path3616" d="m116.02 2921.4h334.9"/>
  <path id="path3618" d="m116.39 2921.7h334.16"/>
  <path id="path3620" d="m116.76 2922h333.42"/>
  <path id="path3622" d="m117.12 2922.2h332.68"/>
  <path id="path3624" d="m117.5 2922.5h331.94"/>
  <path id="path3626" d="m117.86 2922.8h331.2"/>
  <path id="path3628" d="m118.23 2923.1h330.46"/>
  <path id="path3630" d="m118.6 2923.4h329.72"/>
  <path id="path3632" d="m118.97 2923.7h328.98"/>
  <path id="path3634" d="m119.34 2923.9h328.24"/>
  <path id="path3636" d="m119.71 2924.2h327.51"/>
  <path id="path3638" d="m120.08 2924.5h326.77"/>
  <path id="path3640" d="m120.45 2924.8h326.03"/>
  <path id="path3642" d="m120.82 2925.1h325.29"/>
  <path id="path3644" d="m121.25 2925.4h324.42"/>
  <path id="path3646" d="m121.7 2925.6h323.53"/>
  <path id="path3648" d="m122.14 2925.9h322.64"/>
  <path id="path3650" d="m122.59 2926.2h321.75"/>
  <path id="path3652" d="m123.03 2926.5h320.86"/>
  <path id="path3654" d="m123.48 2926.8h319.97"/>
  <path id="path3656" d="m123.92 2927.1h319.08"/>
  <path id="path3658" d="m124.37 2927.3h318.19"/>
  <path id="path3660" d="m124.81 2927.6h317.3"/>
  <path id="path3662" d="m125.26 2927.9h316.41"/>
  <path id="path3664" d="m125.7 2928.2h315.52"/>
  <path id="path3666" d="m126.15 2928.5h314.63"/>
  <path id="path3668" d="m126.59 2928.8h313.74"/>
  <path id="path3670" d="m127.04 2929h312.85"/>
  <path id="path3672" d="m127.48 2929.3h311.96"/>
  <path id="path3674" d="m127.93 2929.6h311.08"/>
  <path id="path3676" d="m128.37 2929.9h310.18"/>
  <path id="path3678" d="m128.82 2930.2h309.3"/>
  <path id="path3680" d="m129.26 2930.5h308.4"/>
  <path id="path3682" d="m129.71 2930.7h307.52"/>
  <path id="path3684" d="m130.15 2931h306.62"/>
  <path id="path3686" d="m130.6 2931.3h305.74"/>
  <path id="path3688" d="m131.04 2931.6h304.84"/>
  <path id="path3690" d="m131.49 2931.9h303.96"/>
  <path id="path3692" d="m131.93 2932.2h303.06"/>
  <path id="path3694" d="m132.38 2932.4h302.18"/>
  <path id="path3696" d="m132.82 2932.7h301.28"/>
  <path id="path3698" d="m133.27 2933h300.4"/>
  <path id="path3700" d="m133.71 2933.3h299.5"/>
  <path id="path3702" d="m134.16 2933.6h298.62"/>
  <path id="path3704" d="m134.6 2933.9h297.72"/>
  <path id="path3706" d="m135.05 2934.1h296.84"/>
  <path id="path3708" d="m135.49 2934.4h295.94"/>
  <path id="path3710" d="m135.94 2934.7h295.06"/>
  <path id="path3712" d="m136.38 2935h294.17"/>
  <path id="path3714" d="m136.83 2935.3h293.28"/>
  <path id="path3716" d="m137.27 2935.6h292.39"/>
  <path id="path3718" d="m137.72 2935.8h291.5"/>
  <path id="path3720" d="m138.16 2936.1h290.61"/>
  <path id="path3722" d="m138.61 2936.4h289.72"/>
  <path id="path3724" d="m139.05 2936.7h288.83"/>
  <path id="path3726" d="m139.5 2937h287.94"/>
  <path id="path3728" d="m139.94 2937.3h287.05"/>
  <path id="path3730" d="m140.39 2937.5h286.16"/>
  <path id="path3732" d="m140.83 2937.8h285.27"/>
  <path id="path3734" d="m141.28 2938.1h284.38"/>
  <path id="path3736" d="m141.72 2938.4h283.49"/>
  <path id="path3738" d="m142.26 2938.7h282.4"/>
  <path id="path3740" d="m142.81 2939h281.31"/>
  <path id="path3742" d="m143.35 2939.2h280.22"/>
  <path id="path3744" d="m143.9 2939.5h279.14"/>
  <path id="path3746" d="m144.44 2939.8h278.05"/>
  <path id="path3748" d="m144.98 2940.1h276.96"/>
  <path id="path3750" d="m145.53 2940.4h275.87"/>
  <path id="path3752" d="m146.08 2940.7h274.78"/>
  <path id="path3754" d="m146.62 2940.9h273.69"/>
  <path id="path3756" d="m147.16 2941.2h272.6"/>
  <path id="path3758" d="m147.71 2941.5h271.51"/>
  <path id="path3760" d="m148.25 2941.8h270.42"/>
  <path id="path3762" d="m148.8 2942.1h269.34"/>
  <path id="path3764" d="m149.34 2942.4h268.24"/>
  <path id="path3766" d="m149.89 2942.6h267.16"/>
  <path id="path3768" d="m150.43 2942.9h266.07"/>
  <path id="path3770" d="m150.98 2943.2h264.98"/>
  <path id="path3772" d="m151.52 2943.5h263.89"/>
  <path id="path3774" d="m152.06 2943.8h262.8"/>
  <path id="path3776" d="m152.61 2944.1h261.71"/>
  <path id="path3778" d="m153.15 2944.3h260.62"/>
  <path id="path3780" d="m153.7 2944.6h259.53"/>
  <path id="path3782" d="m154.24 2944.9h258.44"/>
  <path id="path3784" d="m154.79 2945.2h257.36"/>
  <path id="path3786" d="m155.33 2945.5h256.27"/>
  <path id="path3788" d="m155.88 2945.8h255.18"/>
  <path id="path3790" d="m156.42 2946h254.09"/>
  <path id="path3792" d="m156.96 2946.3h253"/>
  <path id="path3794" d="m157.51 2946.6h251.91"/>
  <path id="path3796" d="m158.05 2946.9h250.82"/>
  <path id="path3798" d="m158.6 2947.2h249.73"/>
  <path id="path3800" d="m159.14 2947.5h248.64"/>
  <path id="path3802" d="m159.69 2947.7h247.55"/>
  <path id="path3804" d="m160.23 2948h246.46"/>
  <path id="path3806" d="m160.78 2948.3h245.38"/>
  <path id="path3808" d="m161.32 2948.6h244.29"/>
  <path id="path3810" d="m161.87 2948.9h243.2"/>
  <path id="path3812" d="m162.41 2949.2h242.11"/>
  <path id="path3814" d="m162.96 2949.4h241.02"/>
  <path id="path3816" d="m163.5 2949.7h239.93"/>
  <path id="path3818" d="m164.14 2950h238.65"/>
  <path id="path3820" d="m164.82 2950.3h237.28"/>
  <path id="path3822" d="m165.51 2950.6h235.91"/>
  <path id="path3824" d="m166.19 2950.9h234.54"/>
  <path id="path3826" d="m166.88 2951.2h233.17"/>
  <path id="path3828" d="m167.56 2951.4h231.8"/>
  <path id="path3830" d="m168.25 2951.7h230.44"/>
  <path id="path3832" d="m168.93 2952h229.07"/>
  <path id="path3834" d="m169.62 2952.3h227.7"/>
  <path id="path3836" d="m170.3 2952.6h226.33"/>
  <path id="path3838" d="m170.98 2952.9h224.96"/>
  <path id="path3840" d="m171.67 2953.1h223.59"/>
  <path id="path3842" d="m172.35 2953.4h222.22"/>
  <path id="path3844" d="m173.04 2953.7h220.86"/>
  <path id="path3846" d="m173.72 2954h219.48"/>
  <path id="path3848" d="m174.41 2954.3h218.12"/>
  <path id="path3850" d="m175.09 2954.6h216.75"/>
  <path id="path3852" d="m175.78 2954.8h215.38"/>
  <path id="path3854" d="m176.46 2955.1h214.01"/>
  <path id="path3856" d="m177.14 2955.4h212.64"/>
  <path id="path3858" d="m177.83 2955.7h211.27"/>
  <path id="path3860" d="m178.51 2956h209.9"/>
  <path id="path3862" d="m179.2 2956.3h208.54"/>
  <path id="path3864" d="m179.88 2956.5h207.17"/>
  <path id="path3866" d="m180.56 2956.8h205.8"/>
  <path id="path3868" d="m181.25 2957.1h204.43"/>
  <path id="path3870" d="m181.93 2957.4h203.06"/>
  <path id="path3872" d="m182.62 2957.7h201.69"/>
  <path id="path3874" d="m183.3 2958h200.32"/>
  <path id="path3876" d="m183.99 2958.2h198.96"/>
  <path id="path3878" d="m184.67 2958.5h197.59"/>
  <path id="path3880" d="m185.36 2958.8h196.22"/>
  <path id="path3882" d="m186.04 2959.1h194.85"/>
  <path id="path3884" d="m186.79 2959.4h193.35"/>
  <path id="path3886" d="m187.69 2959.7h191.55"/>
  <path id="path3888" d="m188.59 2959.9h189.75"/>
  <path id="path3890" d="m189.49 2960.2h187.95"/>
  <path id="path3892" d="m190.39 2960.5h186.16"/>
  <path id="path3894" d="m191.28 2960.8h184.36"/>
  <path id="path3896" d="m192.18 2961.1h182.56"/>
  <path id="path3898" d="m193.08 2961.4h180.76"/>
  <path id="path3900" d="m193.98 2961.6h178.96"/>
  <path id="path3902" d="m194.88 2961.9h177.16"/>
  <path id="path3904" d="m195.78 2962.2h175.37"/>
  <path id="path3906" d="m196.68 2962.5h173.57"/>
  <path id="path3908" d="m197.58 2962.8h171.77"/>
  <path id="path3910" d="m198.48 2963.1h169.97"/>
  <path id="path3912" d="m199.38 2963.3h168.18"/>
  <path id="path3914" d="m200.28 2963.6h166.38"/>
  <path id="path3916" d="m201.18 2963.9h164.58"/>
  <path id="path3918" d="m202.07 2964.2h162.78"/>
  <path id="path3920" d="m202.97 2964.5h160.98"/>
  <path id="path3922" d="m203.87 2964.8h159.18"/>
  <path id="path3924" d="m204.77 2965h157.39"/>
  <path id="path3926" d="m205.67 2965.3h155.59"/>
  <path id="path3928" d="m206.57 2965.6h153.79"/>
  <path id="path3930" d="m207.47 2965.9h151.99"/>
  <path id="path3932" d="m208.37 2966.2h150.2"/>
  <path id="path3934" d="m209.27 2966.5h148.4"/>
  <path id="path3936" d="m210.19 2966.7h146.54"/>
  <path id="path3938" d="m211.47 2967h143.98"/>
  <path id="path3940" d="m212.75 2967.3h141.43"/>
  <path id="path3942" d="m214.03 2967.6h138.87"/>
  <path id="path3944" d="m215.31 2967.9h136.31"/>
  <path id="path3946" d="m216.59 2968.2h133.76"/>
  <path id="path3948" d="m217.86 2968.4h131.2"/>
  <path id="path3950" d="m219.14 2968.7h128.64"/>
  <path id="path3952" d="m220.42 2969h126.08"/>
  <path id="path3954" d="m221.7 2969.3h123.53"/>
  <path id="path3956" d="m222.98 2969.6h120.97"/>
  <path id="path3958" d="m224.26 2969.9h118.41"/>
  <path id="path3960" d="m225.54 2970.1h115.86"/>
  <path id="path3962" d="m226.82 2970.4h113.3"/>
  <path id="path3964" d="m228.09 2970.7h110.74"/>
  <path id="path3966" d="m229.37 2971h108.18"/>
  <path id="path3968" d="m230.65 2971.3h105.63"/>
  <path id="path3970" d="m231.93 2971.6h103.07"/>
  <path id="path3972" d="m233.21 2971.8h100.51"/>
  <path id="path3974" d="m234.66 2972.1h97.618"/>
  <path id="path3976" d="m236.81 2972.4h93.312"/>
  <path id="path3978" d="m238.96 2972.7h89.005"/>
  <path id="path3980" d="m241.12 2973h84.699"/>
  <path id="path3982" d="m243.27 2973.3h80.393"/>
  <path id="path3984" d="m245.42 2973.5h76.087"/>
  <path id="path3986" d="m247.57 2973.8h71.781"/>
  <path id="path3988" d="m249.73 2974.1h67.474"/>
  <path id="path3990" d="m251.88 2974.4h63.167"/>
  <path id="path3992" d="m254.03 2974.7h58.861"/>
  <path id="path3994" d="m256.19 2975h54.555"/>
  <path id="path3996" d="m258.34 2975.2h50.249"/>
  <path id="path3998" d="m263.99 2975.5h38.952"/>
  <path id="path4000" d="m270.48 2975.8h25.968"/>
  <path id="path4002" d="m276.97 2976.1h12.984"/>
 </g>
</svg>
