<?xml version="1.0" encoding="UTF-8" standalone="no"?>
<svg
   width="574.57739"
   height="471.4295"
   viewBox="0 0 574.57738 471.4295"
   version="1.1"
   id="svg32"
   sodipodi:docname="ENTRES71.hpgl.svg"
   inkscape:version="1.1.2 (0a00cf5339, 2022-02-04)"
   xmlns:inkscape="http://www.inkscape.org/namespaces/inkscape"
   xmlns:sodipodi="http://sodipodi.sourceforge.net/DTD/sodipodi-0.dtd"
   xmlns="http://www.w3.org/2000/svg"
   xmlns:svg="http://www.w3.org/2000/svg">
  <defs
     id="defs36" />
  <sodipodi:namedview
     id="namedview34"
     pagecolor="#ffffff"
     bordercolor="#666666"
     borderopacity="1.0"
     inkscape:pageshadow="2"
     inkscape:pageopacity="0.0"
     inkscape:pagecheckerboard="0"
     showgrid="false"
     inkscape:zoom="1.5757246"
     inkscape:cx="291.29455"
     inkscape:cy="-1067.7627"
     inkscape:window-width="1495"
     inkscape:window-height="970"
     inkscape:window-x="0"
     inkscape:window-y="32"
     inkscape:window-maximized="0"
     inkscape:current-layer="svg32" />
  <g
     id="g2"
     transform="translate(7.5662538,-1296.1417)" />
  <g
     style="fill:none;stroke:#000000;stroke-width:1mm"
     id="g4"
     transform="translate(7.5662538,-1296.1417)" />
  <g
     style="fill:none;stroke:#000000;stroke-width:4mm"
     id="g30"
     transform="translate(7.5662538,-1296.1417)">
    <path
       d="M 444.6819,1532.315 H 232.5999"
       id="path6" />
    <path
       d="m 559.4449,1531.856 -0.868,19.885 -2.598,19.733 -4.308,19.432 -5.985,18.982 -7.617,18.388 -9.19,17.655 -10.694,16.786 -12.117,15.791 -13.446,14.674 -14.675,13.447"
       id="path8" />
    <path
       d="m 477.9469,1706.629 -15.79,12.116 -16.786,10.694 -17.655,9.191 -18.388,7.616 -18.983,5.985 -19.431,4.308 -19.733,2.598 -19.885,0.868 -19.884,-0.868 -19.733,-2.598"
       id="path10" />
    <path
       d="m 291.6789,1756.539 -19.432,-4.308 -18.982,-5.985 -18.389,-7.616 -17.654,-9.191 -16.787,-10.694 -15.79,-12.116 -14.674,-13.447 -13.447,-14.674 -12.116,-15.791 -10.695,-16.786"
       id="path12" />
    <path
       d="m 133.7129,1645.931 -9.19,-17.655 -7.617,-18.388 -5.985,-18.982 -4.308,-19.432 -2.597,-19.733 -0.869,-19.885 0.869,-19.884 2.597,-19.733 4.308,-19.432 5.985,-18.982"
       id="path14" />
    <path
       d="m 116.9059,1453.825 7.617,-18.388 9.19,-17.655 10.695,-16.786 12.116,-15.791 13.447,-14.674 14.674,-13.447 15.79,-12.116 16.787,-10.694 17.654,-9.191 18.389,-7.616"
       id="path16" />
    <path
       d="m 253.2649,1317.467 18.982,-5.985 19.432,-4.308 19.733,-2.598 19.884,-0.868 19.885,0.868 19.733,2.598 19.431,4.308 18.983,5.985 18.388,7.616 17.655,9.191"
       id="path18" />
    <path
       d="m 445.3709,1334.274 16.786,10.694 15.79,12.116 14.675,13.447 13.446,14.674 12.117,15.791 10.694,16.786 9.19,17.655 7.617,18.388 5.985,18.982 4.308,19.432"
       id="path20" />
    <path
       d="m 555.9789,1492.239 2.598,19.733 0.868,19.884 -0.868,19.885"
       id="path22" />
    <path
       d="M 34.748895,1754.038 V 1646.619 L -7.4841047,1646.16"
       id="path24" />
    <path
       d="M -7.0251047,1754.497 H 78.817895"
       id="path26" />
    <path
       d="m 13.631895,1591.992 1.377,18.362"
       id="path28" />
  </g>
</svg>
