<?xml version="1.0" encoding="UTF-8"?>
<svg id="svg30" width="574.5" height="508.47" version="1.1" viewBox="0 0 574.5 508.47" xmlns="http://www.w3.org/2000/svg">
 <g id="g28" transform="translate(-1.6541e-8 -1379.5)" fill="none" stroke="#000" stroke-width="4mm">
  <path id="path6" d="m367.77 1628.2h-223.67"/>
  <path id="path8" d="m488.8 1627.7-0.916 20.971-2.739 20.812-4.544 20.494-6.312 20.019-8.033 19.394-9.693 18.619-11.278 17.704-12.779 16.653-14.181 15.477-15.477 14.181"/>
  <path id="path10" d="m402.85 1812-16.653 12.779-17.704 11.279-18.619 9.692-19.394 8.033-20.02 6.312-20.493 4.544-20.812 2.74-20.971 0.915-20.971-0.915-20.812-2.74"/>
  <path id="path12" d="m206.4 1864.6-20.494-4.544-20.019-6.312-19.394-8.033-18.619-9.692-17.704-11.279-16.653-12.779-15.477-14.181-14.181-15.476-12.779-16.654-11.278-17.704"/>
  <path id="path14" d="m39.803 1748-9.693-18.619-8.033-19.393-6.312-20.02-4.544-20.494-2.74-20.812-0.915-20.971 0.915-20.971 2.74-20.812 4.544-20.493 6.312-20.02"/>
  <path id="path16" d="m22.077 1545.4 8.033-19.393 9.693-18.62 11.278-17.704 12.779-16.653 14.181-15.476 15.477-14.182 16.653-12.779 17.704-11.278 18.619-9.693 19.394-8.033"/>
  <path id="path18" d="m165.89 1401.6 20.019-6.312 20.494-4.543 20.812-2.74 20.971-0.916 20.971 0.916 20.812 2.74 20.493 4.543 20.02 6.312 19.393 8.033 18.62 9.693"/>
  <path id="path20" d="m368.49 1419.3 17.704 11.278 16.653 12.779 15.477 14.181 14.181 15.477 12.779 16.653 11.278 17.704 9.693 18.62 8.033 19.393 6.312 20.02 4.544 20.493"/>
  <path id="path22" d="m485.15 1585.9 2.739 20.812 0.916 20.971-0.916 20.971"/>
  <path id="path24" d="m547.87 1880.4h26.628"/>
  <path id="path26" d="m554.16 1693.5v162.19"/>
 </g>
</svg>
