<?xml version="1.0" encoding="UTF-8" standalone="no"?>
<svg
   width="574.49524"
   height="508.46533"
   viewBox="0 0 574.49522 508.46534"
   version="1.1"
   id="svg30"
   sodipodi:docname="ENTRES61.hpgl.svg"
   inkscape:version="1.1.2 (0a00cf5339, 2022-02-04)"
   xmlns:inkscape="http://www.inkscape.org/namespaces/inkscape"
   xmlns:sodipodi="http://sodipodi.sourceforge.net/DTD/sodipodi-0.dtd"
   xmlns="http://www.w3.org/2000/svg"
   xmlns:svg="http://www.w3.org/2000/svg">
  <defs
     id="defs34" />
  <sodipodi:namedview
     id="namedview32"
     pagecolor="#ffffff"
     bordercolor="#666666"
     borderopacity="1.0"
     inkscape:pageshadow="2"
     inkscape:pageopacity="0.0"
     inkscape:pagecheckerboard="0"
     showgrid="false"
     inkscape:zoom="1.4574127"
     inkscape:cx="283.37889"
     inkscape:cy="-1132.4863"
     inkscape:window-width="1495"
     inkscape:window-height="970"
     inkscape:window-x="0"
     inkscape:window-y="32"
     inkscape:window-maximized="0"
     inkscape:current-layer="svg30" />
  <g
     id="g2"
     transform="translate(-1.6541244e-8,-1379.4977)" />
  <g
     style="fill:none;stroke:#000000;stroke-width:1mm"
     id="g4"
     transform="translate(-1.6541244e-8,-1379.4977)" />
  <g
     style="fill:none;stroke:#000000;stroke-width:4mm"
     id="g28"
     transform="translate(-1.6541244e-8,-1379.4977)">
    <path
       d="m 367.76725,1628.166 h -223.673"
       id="path6" />
    <path
       d="m 488.80225,1627.682 -0.916,20.971 -2.739,20.812 -4.544,20.494 -6.312,20.019 -8.033,19.394 -9.693,18.619 -11.278,17.704 -12.779,16.653 -14.181,15.477 -15.477,14.181"
       id="path8" />
    <path
       d="m 402.85025,1812.006 -16.653,12.779 -17.704,11.279 -18.619,9.692 -19.394,8.033 -20.02,6.312 -20.493,4.544 -20.812,2.74 -20.971,0.915 -20.971,-0.915 -20.812,-2.74"
       id="path10" />
    <path
       d="m 206.40125,1864.645 -20.494,-4.544 -20.019,-6.312 -19.394,-8.033 -18.619,-9.692 -17.704,-11.279 -16.653003,-12.779 -15.477,-14.181 -14.181,-15.476 -12.779,-16.654 -11.278,-17.704"
       id="path12" />
    <path
       d="m 39.803247,1747.991 -9.693,-18.619 -8.033,-19.393 -6.312,-20.02 -4.544,-20.494 -2.7399999,-20.812 -0.915,-20.971 0.915,-20.971 2.7399999,-20.812 4.544,-20.493 6.312,-20.02"
       id="path14" />
    <path
       d="m 22.077247,1545.386 8.033,-19.393 9.693,-18.62 11.278,-17.704 12.779,-16.653 14.181,-15.476 15.477,-14.182 16.653003,-12.779 17.704,-11.278 18.619,-9.693 19.394,-8.033"
       id="path16" />
    <path
       d="m 165.88825,1401.575 20.019,-6.312 20.494,-4.543 20.812,-2.74 20.971,-0.916 20.971,0.916 20.812,2.74 20.493,4.543 20.02,6.312 19.393,8.033 18.62,9.693"
       id="path18" />
    <path
       d="m 368.49325,1419.301 17.704,11.278 16.653,12.779 15.477,14.181 14.181,15.477 12.779,16.653 11.278,17.704 9.693,18.62 8.033,19.393 6.312,20.02 4.544,20.493"
       id="path20" />
    <path
       d="m 485.14725,1585.899 2.739,20.812 0.916,20.971 -0.916,20.971"
       id="path22" />
    <path
       d="m 547.86725,1880.404 h 26.628"
       id="path24" />
    <path
       d="m 554.16125,1693.525 v 162.188"
       id="path26" />
  </g>
</svg>
