<?xml version="1.0" encoding="UTF-8" standalone="no"?>
<svg
   width="347.71704"
   height="582.05432"
   viewBox="0 0 347.71705 582.0543"
   version="1.1"
   id="svg30"
   sodipodi:docname="FLGSTF01.hpgl.svg"
   inkscape:version="1.1.2 (0a00cf5339, 2022-02-04)"
   xmlns:inkscape="http://www.inkscape.org/namespaces/inkscape"
   xmlns:sodipodi="http://sodipodi.sourceforge.net/DTD/sodipodi-0.dtd"
   xmlns="http://www.w3.org/2000/svg"
   xmlns:svg="http://www.w3.org/2000/svg">
  <defs
     id="defs34" />
  <sodipodi:namedview
     id="namedview32"
     pagecolor="#ffffff"
     bordercolor="#666666"
     borderopacity="1.0"
     inkscape:pageshadow="2"
     inkscape:pageopacity="0.0"
     inkscape:pagecheckerboard="0"
     showgrid="false"
     inkscape:zoom="1.2682364"
     inkscape:cx="178.20021"
     inkscape:cy="-616.21003"
     inkscape:window-width="1495"
     inkscape:window-height="970"
     inkscape:window-x="0"
     inkscape:window-y="32"
     inkscape:window-maximized="0"
     inkscape:current-layer="svg30" />
  <g
     id="g2"
     transform="translate(7.5590553,-899.52794)" />
  <g
     style="fill:none;stroke:#000000;stroke-width:1mm"
     id="g4"
     transform="translate(7.5590553,-899.52794)" />
  <g
     style="fill:none;stroke:#000000;stroke-width:4mm"
     id="g28"
     transform="translate(7.5590553,-899.52794)">
    <path
       d="m 219.21294,1417.323 -0.216,4.941 -0.645,4.904 -1.071,4.828 -1.487,4.717 -1.893,4.57 -2.283,4.387 -2.658,4.171 -3.01,3.924 -3.342,3.646 -3.646,3.341"
       id="path6" />
    <path
       d="m 198.96194,1460.752 -3.924,3.011 -4.171,2.658 -4.387,2.283 -4.57,1.893 -4.717,1.487 -4.828,1.071 -4.904,0.645 -4.941,0.216 -4.941,-0.216 -4.903,-0.645"
       id="path8" />
    <path
       d="m 152.67594,1473.155 -4.829,-1.071 -4.717,-1.487 -4.569,-1.893 -4.387,-2.283 -4.172,-2.658 -3.923,-3.011 -3.647,-3.341 -3.341,-3.646 -3.011,-3.924 -2.657,-4.171"
       id="path10" />
    <path
       d="m 113.42294,1445.67 -2.284,-4.387 -1.893,-4.57 -1.487,-4.717 -1.07,-4.828 -0.646,-4.904 -0.216,-4.941 0.216,-4.941 0.646,-4.904 1.07,-4.828 1.487,-4.717"
       id="path12" />
    <path
       d="m 109.24594,1397.933 1.893,-4.569 2.284,-4.387 2.657,-4.172 3.011,-3.923 3.341,-3.647 3.647,-3.341 3.923,-3.011 4.172,-2.657 4.387,-2.284 4.569,-1.893"
       id="path14" />
    <path
       d="m 143.12994,1364.049 4.717,-1.487 4.829,-1.071 4.903,-0.645 4.941,-0.216 4.941,0.216 4.904,0.645 4.828,1.071 4.717,1.487 4.57,1.893 4.387,2.284"
       id="path16" />
    <path
       d="m 190.86694,1368.226 4.171,2.657 3.924,3.011 3.646,3.341 3.342,3.647 3.01,3.923 2.658,4.172 2.283,4.387 1.893,4.569 1.487,4.717 1.071,4.828"
       id="path18" />
    <path
       d="m 218.35194,1407.478 0.645,4.904 0.216,4.941 -0.216,4.941"
       id="path20" />
    <path
       d="M 162.51994,1360.63 V 907.087 h 170.079 v 198.425 h -170.079"
       id="path22" />
    <path
       d="M -7.5590553,1417.323 H 105.82694"
       id="path24" />
    <path
       d="m 219.21294,1417.323 h 113.386"
       id="path26" />
  </g>
</svg>
