<?xml version="1.0" encoding="UTF-8"?>
<svg id="svg30" width="347.72" height="582.05" version="1.1" viewBox="0 0 347.72 582.05" xmlns="http://www.w3.org/2000/svg">
 <g id="g28" transform="translate(7.5591 -899.53)" fill="none" stroke="#000" stroke-width="4mm">
  <path id="path6" d="m219.21 1417.3-0.216 4.941-0.645 4.904-1.071 4.828-1.487 4.717-1.893 4.57-2.283 4.387-2.658 4.171-3.01 3.924-3.342 3.646-3.646 3.341"/>
  <path id="path8" d="m198.96 1460.8-3.924 3.011-4.171 2.658-4.387 2.283-4.57 1.893-4.717 1.487-4.828 1.071-4.904 0.645-4.941 0.216-4.941-0.216-4.903-0.645"/>
  <path id="path10" d="m152.68 1473.2-4.829-1.071-4.717-1.487-4.569-1.893-4.387-2.283-4.172-2.658-3.923-3.011-3.647-3.341-3.341-3.646-3.011-3.924-2.657-4.171"/>
  <path id="path12" d="m113.42 1445.7-2.284-4.387-1.893-4.57-1.487-4.717-1.07-4.828-0.646-4.904-0.216-4.941 0.216-4.941 0.646-4.904 1.07-4.828 1.487-4.717"/>
  <path id="path14" d="m109.25 1397.9 1.893-4.569 2.284-4.387 2.657-4.172 3.011-3.923 3.341-3.647 3.647-3.341 3.923-3.011 4.172-2.657 4.387-2.284 4.569-1.893"/>
  <path id="path16" d="m143.13 1364 4.717-1.487 4.829-1.071 4.903-0.645 4.941-0.216 4.941 0.216 4.904 0.645 4.828 1.071 4.717 1.487 4.57 1.893 4.387 2.284"/>
  <path id="path18" d="m190.87 1368.2 4.171 2.657 3.924 3.011 3.646 3.341 3.342 3.647 3.01 3.923 2.658 4.172 2.283 4.387 1.893 4.569 1.487 4.717 1.071 4.828"/>
  <path id="path20" d="m218.35 1407.5 0.645 4.904 0.216 4.941-0.216 4.941"/>
  <path id="path22" d="m162.52 1360.6v-453.54h170.08v198.42h-170.08"/>
  <path id="path24" d="m-7.5591 1417.3h113.39"/>
  <path id="path26" d="m219.21 1417.3h113.39"/>
 </g>
</svg>
