<?xml version="1.0" encoding="UTF-8"?>
<svg id="svg20" width="578.02" height="245.76" version="1.1" viewBox="0 0 578.02 245.76" xmlns="http://www.w3.org/2000/svg">
 <g id="g18" transform="translate(5.7653 -892.11)" fill="none" stroke="#000" stroke-width="4mm">
  <path id="path6" d="m87.89 1017.3-78.569-96.543"/>
  <path id="path8" d="m88.917 1018.8-89.353 88.84"/>
  <path id="path10" d="m89.944 1017.3 39.541-42.623 49.812-35.946 64.19-28.758 71.38-10.27 64.704 3.081 71.379 14.379 61.11 28.757 42.622 31.838 10.784 22.082"/>
  <path id="path12" d="m86.863 1016.3 61.109 50.325 74.974 42.622 78.569 17.46 57.001 3.595 61.109-10.271 57.002-21.054 46.217-43.136 35.946-50.325"/>
  <path id="path14" d="m413.46 909.45-23.622 61.623v85.758l42.623 61.623"/>
  <path id="path16" d="m566.49 999.32-8.73 7.19"/>
 </g>
</svg>
