<?xml version="1.0" encoding="UTF-8" standalone="no"?>
<svg
   width="582.12933"
   height="235.15311"
   viewBox="0 0 582.12932 235.15311"
   version="1.1"
   id="svg20"
   sodipodi:docname="FSHHAV01.hpgl.svg"
   inkscape:version="1.1.2 (0a00cf5339, 2022-02-04)"
   xmlns:inkscape="http://www.inkscape.org/namespaces/inkscape"
   xmlns:sodipodi="http://sodipodi.sourceforge.net/DTD/sodipodi-0.dtd"
   xmlns="http://www.w3.org/2000/svg"
   xmlns:svg="http://www.w3.org/2000/svg">
  <defs
     id="defs24" />
  <sodipodi:namedview
     id="namedview22"
     pagecolor="#ffffff"
     bordercolor="#666666"
     borderopacity="1.0"
     inkscape:pageshadow="2"
     inkscape:pageopacity="0.0"
     inkscape:pagecheckerboard="0"
     showgrid="false"
     inkscape:zoom="2.3389172"
     inkscape:cx="293.72566"
     inkscape:cy="-527.38079"
     inkscape:window-width="1495"
     inkscape:window-height="970"
     inkscape:window-x="0"
     inkscape:window-y="32"
     inkscape:window-maximized="0"
     inkscape:current-layer="svg20" />
  <g
     id="g2"
     transform="translate(10.349008,-637.49294)" />
  <g
     style="fill:none;stroke:#000000;stroke-width:1mm"
     id="g4"
     transform="translate(10.349008,-637.49294)" />
  <g
     style="fill:none;stroke:#000000;stroke-width:4mm"
     id="g18"
     transform="translate(10.349008,-637.49294)">
    <path
       d="m -5.4976764,842.152 101.0580004,-84.574 42.286996,-47.304 49.454,-31.536 51.604,-20.068 48.737,-13.618 h 53.755 l 45.153,5.017 53.755,17.918 49.454,22.219 44.436,33.686"
       id="path6" />
    <path
       d="m 534.19532,723.892 27.236,33.686 -33.686,30.819 -31.536,27.236 -40.137,20.068 -51.604,20.068 -51.604,9.318 h -58.055 l -55.904,-9.318 -53.754,-20.068 -47.304,-31.536"
       id="path8" />
    <path
       d="m 137.84732,804.165 -31.536,-26.519"
       id="path10" />
    <path
       d="M 77.642324,743.96 5.9693236,652.219"
       id="path12" />
    <path
       d="m 448.90532,670.138 -12.901,24.368 -9.317,33.686 -2.15,22.219 v 17.918 l 6.45,31.536 13.618,40.136"
       id="path14" />
    <path
       d="M 106.31132,777.646 77.642324,743.96"
       id="path16" />
  </g>
</svg>
