<?xml version="1.0" encoding="UTF-8"?>
<svg id="svg20" width="582.13" height="235.15" version="1.1" viewBox="0 0 582.13 235.15" xmlns="http://www.w3.org/2000/svg">
 <g id="g18" transform="translate(10.349 -637.49)" fill="none" stroke="#000" stroke-width="4mm">
  <path id="path6" d="m-5.4977 842.15 101.06-84.574 42.287-47.304 49.454-31.536 51.604-20.068 48.737-13.618h53.755l45.153 5.017 53.755 17.918 49.454 22.219 44.436 33.686"/>
  <path id="path8" d="m534.2 723.89 27.236 33.686-33.686 30.819-31.536 27.236-40.137 20.068-51.604 20.068-51.604 9.318h-58.055l-55.904-9.318-53.754-20.068-47.304-31.536"/>
  <path id="path10" d="m137.85 804.16-31.536-26.519"/>
  <path id="path12" d="m77.642 743.96-71.673-91.741"/>
  <path id="path14" d="m448.91 670.14-12.901 24.368-9.317 33.686-2.15 22.219v17.918l6.45 31.536 13.618 40.136"/>
  <path id="path16" d="m106.31 777.65-28.669-33.686"/>
 </g>
</svg>
