<?xml version="1.0" encoding="UTF-8"?>
<svg id="svg26" width="577.34" height="275.89" version="1.1" viewBox="0 0 577.34 275.89" xmlns="http://www.w3.org/2000/svg">
 <g id="g24" transform="translate(10.328 -440.89)" fill="none" stroke="#000" stroke-width="4mm">
  <path id="path6" d="m106.93 650.18 80.172-66.957 33.478-37.443 39.205-25.109 40.967-15.858 38.764-11.013h42.729l35.681 3.965 42.729 14.537 39.205 17.62 35.24 26.43"/>
  <path id="path8" d="m535.1 556.36 21.585 26.871-26.43 24.228-25.109 22.025-31.716 15.858-40.967 15.858-40.967 7.489h-46.253l-44.491-7.489-42.729-15.858-37.443-25.109"/>
  <path id="path10" d="m220.58 620.23-25.109-21.144"/>
  <path id="path12" d="m180.93 581.02-56.825-73.123"/>
  <path id="path14" d="m197.67 599.53-17.62-20.704"/>
  <path id="path16" d="m517.48 446.23-265.18 265.18"/>
  <path id="path18" d="m30.28 708.77v-103.08l-40.526-0.441"/>
  <path id="path20" d="m-9.8057 709.21h82.375"/>
  <path id="path22" d="m10.017 553.27 1.322 17.62"/>
 </g>
</svg>
