<?xml version="1.0" encoding="UTF-8" standalone="no"?>
<svg
   width="577.33923"
   height="275.8851"
   viewBox="0 0 577.33922 275.88511"
   version="1.1"
   id="svg26"
   sodipodi:docname="FSHRES71.hpgl.svg"
   inkscape:version="1.1.2 (0a00cf5339, 2022-02-04)"
   xmlns:inkscape="http://www.inkscape.org/namespaces/inkscape"
   xmlns:sodipodi="http://sodipodi.sourceforge.net/DTD/sodipodi-0.dtd"
   xmlns="http://www.w3.org/2000/svg"
   xmlns:svg="http://www.w3.org/2000/svg">
  <defs
     id="defs30" />
  <sodipodi:namedview
     id="namedview28"
     pagecolor="#ffffff"
     bordercolor="#666666"
     borderopacity="1.0"
     inkscape:pageshadow="2"
     inkscape:pageopacity="0.0"
     inkscape:pagecheckerboard="0"
     showgrid="false"
     inkscape:zoom="2.3389172"
     inkscape:cx="293.72566"
     inkscape:cy="-308.04853"
     inkscape:window-width="1495"
     inkscape:window-height="970"
     inkscape:window-x="0"
     inkscape:window-y="32"
     inkscape:window-maximized="0"
     inkscape:current-layer="svg26" />
  <g
     id="g2"
     transform="translate(10.327983,-440.88594)" />
  <g
     style="fill:none;stroke:#000000;stroke-width:1mm"
     id="g4"
     transform="translate(10.327983,-440.88594)" />
  <g
     style="fill:none;stroke:#000000;stroke-width:4mm"
     id="g24"
     transform="translate(10.327983,-440.88594)">
    <path
       d="m 106.92827,650.185 80.172,-66.957 33.478,-37.443 39.205,-25.109 40.967,-15.858 38.764,-11.013 h 42.729 l 35.681,3.965 42.729,14.537 39.205,17.62 35.24,26.43"
       id="path6" />
    <path
       d="m 535.09827,556.357 21.585,26.871 -26.43,24.228 -25.109,22.025 -31.716,15.858 -40.967,15.858 -40.967,7.489 h -46.253 l -44.491,-7.489 -42.729,-15.858 -37.443,-25.109"
       id="path8" />
    <path
       d="m 220.57827,620.23 -25.109,-21.144"
       id="path10" />
    <path
       d="m 180.93327,581.025 -56.825,-73.123"
       id="path12" />
    <path
       d="m 197.67227,599.527 -17.62,-20.704"
       id="path14" />
    <path
       d="m 517.47827,446.231 -265.184,265.184"
       id="path16" />
    <path
       d="M 30.280269,708.772 V 605.694 l -40.526,-0.441"
       id="path18" />
    <path
       d="M -9.8057311,709.212 H 72.569269"
       id="path20" />
    <path
       d="m 10.017269,553.274 1.322,17.62"
       id="path22" />
  </g>
</svg>
