<?xml version="1.0" encoding="UTF-8"?>
<svg id="svg20" width="582.1" height="344.96" version="1.1" viewBox="0 0 582.1 344.96" xmlns="http://www.w3.org/2000/svg">
 <g id="g18" transform="translate(10.328 -557.14)" fill="none" stroke="#000" stroke-width="4mm">
  <path id="path6" d="m-5.4826 819.58 101.06-84.4 42.2-47.198 49.419-31.651 51.64-19.989 48.864-13.882h53.861l44.976 4.998 53.861 18.323 49.419 22.211 44.422 33.316"/>
  <path id="path8" d="m534.24 701.3 27.208 33.872-33.316 30.539-31.65 27.764-39.98 19.989-51.64 19.99-51.64 9.44h-58.303l-56.082-9.44-53.861-19.99-47.198-31.65"/>
  <path id="path10" d="m137.78 781.82-31.65-26.653"/>
  <path id="path12" d="m87.802 732.4-71.63-92.174"/>
  <path id="path14" d="m108.9 755.72-22.211-26.098"/>
  <path id="path16" d="m512.03 562.49-334.27 334.27"/>
 </g>
</svg>
