<?xml version="1.0" encoding="UTF-8"?>
<svg id="svg24" width="571.77" height="311.37" version="1.1" viewBox="0 0 571.77 311.37" xmlns="http://www.w3.org/2000/svg">
 <g id="g22" transform="translate(4.0475e-8 -495.2)" fill="none" stroke="#000" stroke-width="4mm">
  <path id="path6" d="m4.8455 728.21 89.489-74.739 37.369-41.794 43.761-28.027 45.728-17.701 43.27-12.293h47.695l39.827 4.426 47.695 16.226 43.761 19.668 39.336 29.502"/>
  <path id="path8" d="m482.78 623.48 24.094 29.993-29.502 27.044-28.027 24.585-35.402 17.701-45.728 17.701-45.729 8.359h-51.628l-49.662-8.359-47.694-17.701-41.795-28.027"/>
  <path id="path10" d="m131.7 694.77-28.027-23.602"/>
  <path id="path12" d="m87.45 651.01-63.429-81.622"/>
  <path id="path14" d="m106.14 671.66-19.668-23.11"/>
  <path id="path16" d="m463.11 500.55-296 296"/>
  <path id="path18" d="m557.02 642.65v110.63"/>
  <path id="path20" d="m544.73 799.01h27.043"/>
 </g>
</svg>
