<?xml version="1.0" encoding="UTF-8" standalone="no"?>
<svg
   width="571.77448"
   height="311.36511"
   viewBox="0 0 571.77446 311.36511"
   version="1.1"
   id="svg24"
   sodipodi:docname="FSHRES61.hpgl.svg"
   inkscape:version="1.1.2 (0a00cf5339, 2022-02-04)"
   xmlns:inkscape="http://www.inkscape.org/namespaces/inkscape"
   xmlns:sodipodi="http://sodipodi.sourceforge.net/DTD/sodipodi-0.dtd"
   xmlns="http://www.w3.org/2000/svg"
   xmlns:svg="http://www.w3.org/2000/svg">
  <defs
     id="defs28" />
  <sodipodi:namedview
     id="namedview26"
     pagecolor="#ffffff"
     bordercolor="#666666"
     borderopacity="1.0"
     inkscape:pageshadow="2"
     inkscape:pageopacity="0.0"
     inkscape:pagecheckerboard="0"
     showgrid="false"
     inkscape:zoom="2.3389172"
     inkscape:cx="283.4645"
     inkscape:cy="-345.67277"
     inkscape:window-width="1495"
     inkscape:window-height="970"
     inkscape:window-x="0"
     inkscape:window-y="32"
     inkscape:window-maximized="0"
     inkscape:current-layer="svg24" />
  <g
     id="g2"
     transform="translate(4.0474962e-8,-495.20495)" />
  <g
     style="fill:none;stroke:#000000;stroke-width:1mm"
     id="g4"
     transform="translate(4.0474962e-8,-495.20495)" />
  <g
     style="fill:none;stroke:#000000;stroke-width:4mm"
     id="g22"
     transform="translate(4.0474962e-8,-495.20495)">
    <path
       d="m 4.8454932,728.207 89.4889998,-74.739 37.368997,-41.794 43.761,-28.027 45.728,-17.701 43.27,-12.293 h 47.695 l 39.827,4.426 47.695,16.226 43.761,19.668 39.336,29.502"
       id="path6" />
    <path
       d="m 482.77649,623.475 24.094,29.993 -29.502,27.044 -28.027,24.585 -35.402,17.701 -45.728,17.701 -45.729,8.359 h -51.628 l -49.662,-8.359 -47.694,-17.701 -41.795,-28.027"
       id="path8" />
    <path
       d="m 131.70349,694.771 -28.027,-23.602"
       id="path10" />
    <path
       d="m 87.450493,651.01 -63.429,-81.622"
       id="path12" />
    <path
       d="M 106.13549,671.661 86.467493,648.551"
       id="path14" />
    <path
       d="m 463.10849,500.55 -296.002,296.003"
       id="path16" />
    <path
       d="M 557.02349,642.651 V 753.283"
       id="path18" />
    <path
       d="m 544.73149,799.011 h 27.043"
       id="path20" />
  </g>
</svg>
