<?xml version="1.0" encoding="UTF-8"?>
<svg id="svg30" width="582.06" height="582.06" version="1.1" viewBox="0 0 582.06 582.06" xmlns="http://www.w3.org/2000/svg">
 <g id="g28" transform="translate(7.5663 -1490.7)" fill="none" stroke="#000" stroke-width="4mm">
  <path id="path6" d="m566.93 1781.8-1.079 24.705-3.227 24.518-5.353 24.143-7.436 23.584-9.463 22.847-11.419 21.935-13.287 20.856-15.054 19.619-16.707 18.232-18.232 16.707"/>
  <path id="path8" d="m465.67 1998.9-19.619 15.054-20.856 13.287-21.935 11.419-22.847 9.463-23.585 7.436-24.143 5.353-24.517 3.228-24.706 1.078-24.705-1.078-24.518-3.228"/>
  <path id="path10" d="m234.24 2060.9-24.143-5.353-23.584-7.436-22.847-9.463-21.935-11.419-20.856-13.287-19.619-15.054-18.232-16.707-16.707-18.232-15.054-19.619-13.287-20.856"/>
  <path id="path12" d="m37.977 1923.5-11.419-21.935-9.463-22.847-7.436-23.584-5.353-24.143-3.228-24.518-1.078-24.705 1.078-24.706 3.228-24.518 5.353-24.142 7.436-23.585"/>
  <path id="path14" d="m17.095 1684.8 9.463-22.847 11.419-21.935 13.287-20.856 15.054-19.619 16.707-18.232 18.232-16.707 19.619-15.054 20.856-13.287 21.935-11.419 22.847-9.463"/>
  <path id="path16" d="m186.51 1515.4 23.584-7.436 24.143-5.353 24.518-3.227 24.705-1.079 24.706 1.079 24.517 3.227 24.143 5.353 23.585 7.436 22.847 9.463 21.935 11.419"/>
  <path id="path18" d="m425.2 1536.3 20.856 13.287 19.619 15.054 18.232 16.707 16.707 18.232 15.054 19.619 13.287 20.856 11.419 21.935 9.463 22.847 7.436 23.585 5.353 24.142"/>
  <path id="path20" d="m562.62 1732.6 3.227 24.518 1.079 24.706-1.079 24.705"/>
  <path id="path22" d="m25.107 1660.3h511.05"/>
  <path id="path24" d="m25.107 1903.3h515.91"/>
  <path id="path26" d="m283.46 1579.3v404.95"/>
 </g>
</svg>
