<?xml version="1.0" encoding="UTF-8" standalone="no"?>
<svg
   width="582.06152"
   height="582.06152"
   viewBox="0 0 582.06151 582.06151"
   version="1.1"
   id="svg30"
   sodipodi:docname="GATCON04.hpgl.svg"
   inkscape:version="1.1.2 (0a00cf5339, 2022-02-04)"
   xmlns:inkscape="http://www.inkscape.org/namespaces/inkscape"
   xmlns:sodipodi="http://sodipodi.sourceforge.net/DTD/sodipodi-0.dtd"
   xmlns="http://www.w3.org/2000/svg"
   xmlns:svg="http://www.w3.org/2000/svg">
  <defs
     id="defs34" />
  <sodipodi:namedview
     id="namedview32"
     pagecolor="#ffffff"
     bordercolor="#666666"
     borderopacity="1.0"
     inkscape:pageshadow="2"
     inkscape:pageopacity="0.0"
     inkscape:pagecheckerboard="0"
     showgrid="false"
     inkscape:zoom="1.2682364"
     inkscape:cx="290.95522"
     inkscape:cy="-1207.5824"
     inkscape:window-width="1495"
     inkscape:window-height="970"
     inkscape:window-x="0"
     inkscape:window-y="32"
     inkscape:window-maximized="0"
     inkscape:current-layer="svg30" />
  <g
     id="g2"
     transform="translate(7.5662612,-1490.7467)" />
  <g
     style="fill:none;stroke:#000000;stroke-width:1mm"
     id="g4"
     transform="translate(7.5662612,-1490.7467)" />
  <g
     style="fill:none;stroke:#000000;stroke-width:4mm"
     id="g28"
     transform="translate(7.5662612,-1490.7467)">
    <path
       d="m 566.92899,1781.778 -1.079,24.705 -3.227,24.518 -5.353,24.143 -7.436,23.584 -9.463,22.847 -11.419,21.935 -13.287,20.856 -15.054,19.619 -16.707,18.232 -18.232,16.707"
       id="path6" />
    <path
       d="m 465.67199,1998.924 -19.619,15.054 -20.856,13.287 -21.935,11.419 -22.847,9.463 -23.585,7.436 -24.143,5.353 -24.517,3.228 -24.706,1.078 -24.705,-1.078 -24.518,-3.228"
       id="path8" />
    <path
       d="m 234.24099,2060.936 -24.143,-5.353 -23.584,-7.436 -22.847,-9.463 -21.935,-11.419 -20.856,-13.287 -19.619,-15.054 -18.232003,-16.707 -16.707,-18.232 -15.054,-19.619 -13.287,-20.856"
       id="path10" />
    <path
       d="m 37.976987,1923.51 -11.419,-21.935 -9.463,-22.847 -7.4360003,-23.584 -5.353,-24.143 -3.228,-24.518 L -1.3344028e-5,1781.778 1.0779867,1757.072 l 3.228,-24.518 5.353,-24.142 7.4360003,-23.585"
       id="path12" />
    <path
       d="m 17.094987,1684.827 9.463,-22.847 11.419,-21.935 13.287,-20.856 15.054,-19.619 16.707,-18.232 18.232003,-16.707 19.619,-15.054 20.856,-13.287 21.935,-11.419 22.847,-9.463"
       id="path14" />
    <path
       d="m 186.51399,1515.408 23.584,-7.436 24.143,-5.353 24.518,-3.227 24.705,-1.079 24.706,1.079 24.517,3.227 24.143,5.353 23.585,7.436 22.847,9.463 21.935,11.419"
       id="path16" />
    <path
       d="m 425.19699,1536.29 20.856,13.287 19.619,15.054 18.232,16.707 16.707,18.232 15.054,19.619 13.287,20.856 11.419,21.935 9.463,22.847 7.436,23.585 5.353,24.142"
       id="path18" />
    <path
       d="m 562.62299,1732.554 3.227,24.518 1.079,24.706 v 0 l -1.079,24.705"
       id="path20" />
    <path
       d="M 25.106987,1660.293 H 536.15299"
       id="path22" />
    <path
       d="M 25.106987,1903.262 H 541.01199"
       id="path24" />
    <path
       d="m 283.46399,1579.303 v 404.949"
       id="path26" />
  </g>
</svg>
