<?xml version="1.0" encoding="UTF-8"?>
<svg id="svg26" width="584" height="582.08" version="1.1" viewBox="0 0 584 582.08" xmlns="http://www.w3.org/2000/svg">
 <g id="g24" transform="translate(9.5076 -1004.9)" fill="none" stroke="#000" stroke-width="4mm">
  <path id="path6" d="m95.129 1295 24.269-24.269 33.006-31.065 30.094-17.474 31.065-15.532 35.918-15.532 24.269-5.825 36.889-2.912h60.188l39.802 8.737"/>
  <path id="path8" d="m410.63 1191.1 30.094 9.707 33.006 14.562 33.977 18.445 24.269 21.357 21.357 18.444 11.649 21.357-27.182 24.269-33.006 33.006-39.801 18.445-30.094 14.562"/>
  <path id="path10" d="m434.9 1385.3-39.802 9.707-33.006 5.825h-58.246l-30.094-5.825-24.269-2.912-18.445-6.795-33.006-14.562-30.094-18.445-24.269-21.356"/>
  <path id="path12" d="m143.67 1330.9-24.269-11.65-9.708-12.62-14.561-11.649"/>
  <path id="path14" d="m95.129 1295-88.34 84.457-2.913-27.182-5.824-33.006v-69.895l8.737-39.802 12.62-18.444 75.72 103.87"/>
  <path id="path16" d="m82.509 1100.9 42.714-36.889 27.181-18.445 42.714-17.473 57.275-12.62 58.246-2.913 54.364 8.737 42.713 15.532 38.831 24.27 42.714 39.801 33.006 38.831"/>
  <path id="path18" d="m522.27 1139.7 9.708 12.62"/>
  <path id="path20" d="m76.684 1485.3 45.626 42.714 48.539 24.269 35.918 15.532 36.889 8.737 48.539 2.912h30.094l39.801-8.736 41.743-15.533 39.802-24.269 30.094-24.269"/>
  <path id="path22" d="m473.73 1506.6 27.181-24.269 33.977-41.744"/>
 </g>
</svg>
