<?xml version="1.0" encoding="UTF-8" standalone="no"?>
<svg
   width="583.99561"
   height="582.07733"
   viewBox="0 0 583.99559 582.07731"
   version="1.1"
   id="svg26"
   sodipodi:docname="HRBFAC09.hpgl.svg"
   inkscape:version="1.1.2 (0a00cf5339, 2022-02-04)"
   xmlns:inkscape="http://www.inkscape.org/namespaces/inkscape"
   xmlns:sodipodi="http://sodipodi.sourceforge.net/DTD/sodipodi-0.dtd"
   xmlns="http://www.w3.org/2000/svg"
   xmlns:svg="http://www.w3.org/2000/svg">
  <defs
     id="defs30" />
  <sodipodi:namedview
     id="namedview28"
     pagecolor="#ffffff"
     bordercolor="#666666"
     borderopacity="1.0"
     inkscape:pageshadow="2"
     inkscape:pageopacity="0.0"
     inkscape:pagecheckerboard="0"
     showgrid="false"
     inkscape:zoom="1.2682364"
     inkscape:cx="292.53221"
     inkscape:cy="-721.08007"
     inkscape:window-width="1495"
     inkscape:window-height="970"
     inkscape:window-x="0"
     inkscape:window-y="32"
     inkscape:window-maximized="0"
     inkscape:current-layer="svg26" />
  <g
     id="g2"
     transform="translate(9.5075503,-1004.9227)" />
  <g
     style="fill:none;stroke:#000000;stroke-width:1mm"
     id="g4"
     transform="translate(9.5075503,-1004.9227)" />
  <g
     style="fill:none;stroke:#000000;stroke-width:4mm"
     id="g24"
     transform="translate(9.5075503,-1004.9227)">
    <path
       d="m 95.128505,1295.006 24.268995,-24.269 33.006,-31.065 30.094,-17.474 31.065,-15.532 35.918,-15.532 24.269,-5.825 36.889,-2.912 h 27.182 33.006 l 39.802,8.737"
       id="path6" />
    <path
       d="m 410.6285,1191.134 30.094,9.707 33.006,14.562 33.977,18.445 24.269,21.357 21.357,18.444 11.649,21.357 -27.182,24.269 -33.006,33.006 -39.801,18.445 -30.094,14.562"
       id="path8" />
    <path
       d="m 434.8975,1385.288 -39.802,9.707 -33.006,5.825 h -24.269 -33.977 l -30.094,-5.825 -24.269,-2.912 -18.445,-6.795 -33.006,-14.562 -30.094,-18.445 -24.269,-21.356"
       id="path10" />
    <path
       d="m 143.6665,1330.925 -24.269,-11.65 -9.708,-12.62 -14.560995,-11.649"
       id="path12" />
    <path
       d="m 95.128505,1295.006 -88.34,84.457 -2.913,-27.182 -5.824,-33.006 v -31.064 -38.831 l 8.737,-39.802 12.62,-18.444 75.72,103.872"
       id="path14" />
    <path
       d="m 82.508505,1100.852 42.713995,-36.889 27.181,-18.445 42.714,-17.473 57.275,-12.62 58.246,-2.913 54.364,8.737 42.713,15.532 38.831,24.27 42.714,39.801 33.006,38.831"
       id="path16" />
    <path
       d="m 522.2665,1139.683 9.708,12.62"
       id="path18" />
    <path
       d="m 76.683505,1485.277 45.625995,42.714 48.539,24.269 35.918,15.532 36.889,8.737 48.539,2.912 h 30.094 l 39.801,-8.736 41.743,-15.533 39.802,-24.269 30.094,-24.269"
       id="path20" />
    <path
       d="m 473.7285,1506.634 27.181,-24.269 33.977,-41.744"
       id="path22" />
  </g>
</svg>
