<?xml version="1.0" encoding="UTF-8"?>
<svg id="svg34" width="582.05" height="580.99" version="1.1" viewBox="0 0 582.05 580.99" xmlns="http://www.w3.org/2000/svg">
 <g id="g32" transform="translate(7.5591 -1124.5)" fill="none" stroke="#000" stroke-width="4mm">
  <path id="path6" d="m391.65 1307.4h175.28v-175.28h-175.28v175.28"/>
  <path id="path8" d="m473.45 1155.8v14.873"/>
  <path id="path10" d="m478.41 1275.1v-82.862l-32.578-0.354"/>
  <path id="path12" d="m442.64 1275.5h59.136"/>
  <path id="path14" d="m76.494 1659.7-0.145 3.333-0.436 3.308-0.722 3.257-1.003 3.182-1.277 3.082-1.54 2.96-1.793 2.814-2.031 2.647-2.254 2.459-2.46 2.254"/>
  <path id="path16" d="m62.833 1689-2.647 2.031-2.813 1.793-2.96 1.541-3.082 1.276-3.182 1.004-3.257 0.722-3.308 0.435-3.333 0.146-3.334-0.146-3.307-0.435"/>
  <path id="path18" d="m31.61 1697.4-3.258-0.722-3.182-1.004-3.082-1.276-2.959-1.541-2.814-1.793-2.647-2.031-2.46-2.254-2.254-2.459-2.031-2.647-1.793-2.814"/>
  <path id="path20" d="m5.1301 1678.8-1.54-2.96-1.277-3.082-1.003-3.182-0.722-3.257-0.436-3.308-0.145-3.333 0.145-3.333 0.436-3.308 0.722-3.257 1.003-3.182"/>
  <path id="path22" d="m2.3131 1646.6 1.277-3.083 1.54-2.959 1.793-2.814 2.031-2.647 2.254-2.46 2.46-2.254 2.647-2.031 2.814-1.792 2.959-1.541 3.082-1.277"/>
  <path id="path24" d="m25.17 1623.8 3.182-1.003 3.258-0.722 3.307-0.435 3.334-0.146 3.333 0.146 3.308 0.435 3.257 0.722 3.182 1.003 3.082 1.277 2.96 1.541"/>
  <path id="path26" d="m57.373 1626.6 2.813 1.792 2.647 2.031 2.46 2.254 2.254 2.46 2.031 2.647 1.793 2.814 1.54 2.959 1.277 3.083 1.003 3.182 0.722 3.257"/>
  <path id="path28" d="m75.913 1653.1 0.436 3.308 0.145 3.333-0.145 3.333"/>
  <path id="path30" d="m389.53 1306.7-325.78 325.43"/>
 </g>
</svg>
