<?xml version="1.0" encoding="UTF-8" standalone="no"?>
<svg
   width="575.26001"
   height="308.0484"
   viewBox="0 0 575.25999 308.0484"
   version="1.1"
   id="svg30"
   sodipodi:docname="LIGHTS82.hpgl.svg"
   inkscape:version="1.1.2 (0a00cf5339, 2022-02-04)"
   xmlns:inkscape="http://www.inkscape.org/namespaces/inkscape"
   xmlns:sodipodi="http://sodipodi.sourceforge.net/DTD/sodipodi-0.dtd"
   xmlns="http://www.w3.org/2000/svg"
   xmlns:svg="http://www.w3.org/2000/svg">
  <defs
     id="defs34" />
  <sodipodi:namedview
     id="namedview32"
     pagecolor="#ffffff"
     bordercolor="#666666"
     borderopacity="1.0"
     inkscape:pageshadow="2"
     inkscape:pageopacity="0.0"
     inkscape:pagecheckerboard="0"
     showgrid="false"
     inkscape:zoom="2.3389172"
     inkscape:cx="284.3196"
     inkscape:cy="-1830.5479"
     inkscape:window-width="1495"
     inkscape:window-height="970"
     inkscape:window-x="0"
     inkscape:window-y="32"
     inkscape:window-maximized="0"
     inkscape:current-layer="svg30" />
  <g
     id="g2"
     transform="translate(0.76477089,-1976.9418)" />
  <g
     style="fill:none;stroke:#000000;stroke-width:1mm"
     id="g4"
     transform="translate(0.76477089,-1976.9418)" />
  <g
     style="fill:none;stroke:#000000;stroke-width:4mm"
     id="g28"
     transform="translate(0.76477089,-1976.9418)">
    <path
       d="m 232.01947,2164.815 -0.428,9.815 -1.283,9.74 -2.126,9.591 -2.954,9.369 -3.759,9.076 -4.537,8.714 -5.278,8.285 -5.98,7.794 -6.637,7.243 -7.243,6.637"
       id="path6" />
    <path
       d="m 191.79447,2251.079 -7.794,5.98 -8.285,5.279 -8.714,4.536 -9.076,3.759 -9.37,2.954 -9.591,2.127 -9.739,1.282 -9.815,0.428 -9.815,-0.428 -9.739001,-1.282"
       id="path8" />
    <path
       d="m 99.856469,2275.714 -9.591,-2.127 -9.37,-2.954 -9.076,-3.759 -8.714,-4.536 -8.285,-5.279 -7.794,-5.98 -7.243,-6.637 -6.637,-7.243 -5.98,-7.794 -5.278,-8.285"
       id="path10" />
    <path
       d="m 21.888469,2221.12 -4.537,-8.714 -3.759,-9.076 -2.954,-9.369 -2.1260003,-9.591 -1.283,-9.74 -0.428,-9.815 0.428,-9.814 1.283,-9.74 2.1260003,-9.591 2.954,-9.369"
       id="path12" />
    <path
       d="m 13.592469,2126.301 3.759,-9.076 4.537,-8.714 5.278,-8.286 5.98,-7.794 6.637,-7.243 7.243,-6.636 7.794,-5.981 8.285,-5.278 8.714,-4.536 9.076,-3.76"
       id="path14" />
    <path
       d="m 80.895469,2058.997 9.37,-2.954 9.591,-2.126 9.739001,-1.282 9.815,-0.429 9.815,0.429 9.739,1.282 9.591,2.126 9.37,2.954 9.076,3.76 8.714,4.536"
       id="path16" />
    <path
       d="m 175.71547,2067.293 8.285,5.278 7.794,5.981 7.243,6.636 6.637,7.243 5.98,7.794 5.278,8.286 4.537,8.714 3.759,9.076 2.954,9.369 2.126,9.591"
       id="path18" />
    <path
       d="m 230.30847,2145.261 1.283,9.74 0.428,9.814 -0.428,9.815"
       id="path20" />
    <path
       d="m 269.87947,2264.804 206.774,7.767"
       id="path22" />
    <path
       d="m 239.78547,2057.06 276.67,-72.808"
       id="path24" />
    <path
       d="m 287.35347,2159.961 286.377,-29.123"
       id="path26" />
  </g>
</svg>
