<?xml version="1.0" encoding="UTF-8"?>
<svg id="svg30" width="575.26" height="308.05" version="1.1" viewBox="0 0 575.26 308.05" xmlns="http://www.w3.org/2000/svg">
 <g id="g28" transform="translate(.76477 -1976.9)" fill="none" stroke="#000" stroke-width="4mm">
  <path id="path6" d="m232.02 2164.8-0.428 9.815-1.283 9.74-2.126 9.591-2.954 9.369-3.759 9.076-4.537 8.714-5.278 8.285-5.98 7.794-6.637 7.243-7.243 6.637"/>
  <path id="path8" d="m191.79 2251.1-7.794 5.98-8.285 5.279-8.714 4.536-9.076 3.759-9.37 2.954-9.591 2.127-9.739 1.282-9.815 0.428-9.815-0.428-9.739-1.282"/>
  <path id="path10" d="m99.856 2275.7-9.591-2.127-9.37-2.954-9.076-3.759-8.714-4.536-8.285-5.279-7.794-5.98-7.243-6.637-6.637-7.243-5.98-7.794-5.278-8.285"/>
  <path id="path12" d="m21.888 2221.1-4.537-8.714-3.759-9.076-2.954-9.369-2.126-9.591-1.283-9.74-0.428-9.815 0.428-9.814 1.283-9.74 2.126-9.591 2.954-9.369"/>
  <path id="path14" d="m13.592 2126.3 3.759-9.076 4.537-8.714 5.278-8.286 5.98-7.794 6.637-7.243 7.243-6.636 7.794-5.981 8.285-5.278 8.714-4.536 9.076-3.76"/>
  <path id="path16" d="m80.895 2059 9.37-2.954 9.591-2.126 9.739-1.282 9.815-0.429 9.815 0.429 9.739 1.282 9.591 2.126 9.37 2.954 9.076 3.76 8.714 4.536"/>
  <path id="path18" d="m175.72 2067.3 8.285 5.278 7.794 5.981 7.243 6.636 6.637 7.243 5.98 7.794 5.278 8.286 4.537 8.714 3.759 9.076 2.954 9.369 2.126 9.591"/>
  <path id="path20" d="m230.31 2145.3 1.283 9.74 0.428 9.814-0.428 9.815"/>
  <path id="path22" d="m269.88 2264.8 206.77 7.767"/>
  <path id="path24" d="m239.79 2057.1 276.67-72.808"/>
  <path id="path26" d="m287.35 2160 286.38-29.123"/>
 </g>
</svg>
