<?xml version="1.0" encoding="UTF-8" standalone="no"?>
<svg
   width="566.92902"
   height="217.96034"
   viewBox="0 0 566.929 217.96034"
   version="1.1"
   id="svg36"
   sodipodi:docname="LITFLT01.hpgl.svg"
   inkscape:version="1.1.2 (0a00cf5339, 2022-02-04)"
   xmlns:inkscape="http://www.inkscape.org/namespaces/inkscape"
   xmlns:sodipodi="http://sodipodi.sourceforge.net/DTD/sodipodi-0.dtd"
   xmlns="http://www.w3.org/2000/svg"
   xmlns:svg="http://www.w3.org/2000/svg">
  <defs
     id="defs40" />
  <sodipodi:namedview
     id="namedview38"
     pagecolor="#ffffff"
     bordercolor="#666666"
     borderopacity="1.0"
     inkscape:pageshadow="2"
     inkscape:pageopacity="0.0"
     inkscape:pagecheckerboard="0"
     showgrid="false"
     inkscape:zoom="2.3389172"
     inkscape:cx="283.4645"
     inkscape:cy="-408.52237"
     inkscape:window-width="1495"
     inkscape:window-height="970"
     inkscape:window-x="0"
     inkscape:window-y="32"
     inkscape:window-maximized="0"
     inkscape:current-layer="svg36" />
  <g
     id="g2"
     transform="translate(0,-510.23594)" />
  <g
     style="fill:none;stroke:#000000;stroke-width:1mm"
     id="g4"
     transform="translate(0,-510.23594)" />
  <g
     style="fill:none;stroke:#000000;stroke-width:4mm"
     id="g34"
     transform="translate(0,-510.23594)">
    <path
       d="m 328.819,675.276 -0.173,3.953 -0.516,3.922 -0.857,3.863 -1.189,3.774 -1.515,3.655 -1.827,3.51 -2.125,3.337 -2.409,3.139 -2.673,2.917 -2.917,2.673"
       id="path6" />
    <path
       d="m 312.618,710.019 -3.139,2.409 -3.337,2.126 -3.51,1.827 -3.656,1.514 -3.773,1.19 -3.863,0.856 -3.923,0.516 -3.953,0.173 -3.952,-0.173 -3.923,-0.516"
       id="path8" />
    <path
       d="m 275.589,719.941 -3.863,-0.856 -3.774,-1.19 -3.655,-1.514 -3.51,-1.827 -3.337,-2.126 -3.139,-2.409 -2.917,-2.673 -2.673,-2.917 -2.409,-3.139 -2.126,-3.337"
       id="path10" />
    <path
       d="m 244.186,697.953 -1.827,-3.51 -1.514,-3.655 -1.189,-3.774 -0.857,-3.863 -0.516,-3.922 -0.173,-3.953 0.173,-3.953 0.516,-3.923 0.857,-3.863 1.189,-3.773"
       id="path12" />
    <path
       d="m 240.845,659.764 1.514,-3.656 1.827,-3.51 2.126,-3.337 2.409,-3.139 2.673,-2.917 2.917,-2.673 3.139,-2.408 3.337,-2.126 3.51,-1.827 3.655,-1.514"
       id="path14" />
    <path
       d="m 267.952,632.657 3.774,-1.19 3.863,-0.857 3.923,-0.516 3.952,-0.173 3.953,0.173 3.923,0.516 3.863,0.857 3.773,1.189 3.656,1.515 3.51,1.827"
       id="path16" />
    <path
       d="m 306.142,635.998 3.337,2.126 3.139,2.408 2.917,2.673 2.673,2.917 2.409,3.139 2.125,3.337 1.827,3.51 1.515,3.656 1.189,3.773 0.857,3.863"
       id="path18" />
    <path
       d="m 328.13,667.4 0.516,3.923 0.173,3.953 -0.173,3.953"
       id="path20" />
    <path
       d="M 0,675.276 H 220.472"
       id="path22" />
    <path
       d="M 94.488,675.276 31.496,549.291"
       id="path24" />
    <path
       d="M 472.441,675.276 535.433,549.291"
       id="path26" />
    <path
       d="m 188.976,580.787 31.496,-62.992 h 125.985 l 31.496,62.992"
       id="path28" />
    <path
       d="M 31.496,549.291 157.48,580.787 H 409.449 L 535.433,549.291"
       id="path30" />
    <path
       d="M 346.457,675.276 H 566.929"
       id="path32" />
  </g>
</svg>
