<?xml version="1.0" encoding="UTF-8"?>
<svg id="svg36" width="566.93" height="217.96" version="1.1" viewBox="0 0 566.93 217.96" xmlns="http://www.w3.org/2000/svg">
 <g id="g34" transform="translate(0 -510.24)" fill="none" stroke="#000" stroke-width="4mm">
  <path id="path6" d="m328.82 675.28-0.173 3.953-0.516 3.922-0.857 3.863-1.189 3.774-1.515 3.655-1.827 3.51-2.125 3.337-2.409 3.139-2.673 2.917-2.917 2.673"/>
  <path id="path8" d="m312.62 710.02-3.139 2.409-3.337 2.126-3.51 1.827-3.656 1.514-3.773 1.19-3.863 0.856-3.923 0.516-3.953 0.173-3.952-0.173-3.923-0.516"/>
  <path id="path10" d="m275.59 719.94-3.863-0.856-3.774-1.19-3.655-1.514-3.51-1.827-3.337-2.126-3.139-2.409-2.917-2.673-2.673-2.917-2.409-3.139-2.126-3.337"/>
  <path id="path12" d="m244.19 697.95-1.827-3.51-1.514-3.655-1.189-3.774-0.857-3.863-0.516-3.922-0.173-3.953 0.173-3.953 0.516-3.923 0.857-3.863 1.189-3.773"/>
  <path id="path14" d="m240.84 659.76 1.514-3.656 1.827-3.51 2.126-3.337 2.409-3.139 2.673-2.917 2.917-2.673 3.139-2.408 3.337-2.126 3.51-1.827 3.655-1.514"/>
  <path id="path16" d="m267.95 632.66 3.774-1.19 3.863-0.857 3.923-0.516 3.952-0.173 3.953 0.173 3.923 0.516 3.863 0.857 3.773 1.189 3.656 1.515 3.51 1.827"/>
  <path id="path18" d="m306.14 636 3.337 2.126 3.139 2.408 2.917 2.673 2.673 2.917 2.409 3.139 2.125 3.337 1.827 3.51 1.515 3.656 1.189 3.773 0.857 3.863"/>
  <path id="path20" d="m328.13 667.4 0.516 3.923 0.173 3.953-0.173 3.953"/>
  <path id="path22" d="m0 675.28h220.47"/>
  <path id="path24" d="m94.488 675.28-62.992-125.98"/>
  <path id="path26" d="m472.44 675.28 62.992-125.98"/>
  <path id="path28" d="m188.98 580.79 31.496-62.992h125.98l31.496 62.992"/>
  <path id="path30" d="m31.496 549.29 125.98 31.496h251.97l125.98-31.496"/>
  <path id="path32" d="m346.46 675.28h220.47"/>
 </g>
</svg>
