<?xml version="1.0" encoding="UTF-8" standalone="no"?>
<svg
   width="566.92902"
   height="429.61429"
   viewBox="0 0 566.929 429.61429"
   version="1.1"
   id="svg50"
   sodipodi:docname="LITVES01.hpgl.svg"
   inkscape:version="1.1.2 (0a00cf5339, 2022-02-04)"
   xmlns:inkscape="http://www.inkscape.org/namespaces/inkscape"
   xmlns:sodipodi="http://sodipodi.sourceforge.net/DTD/sodipodi-0.dtd"
   xmlns="http://www.w3.org/2000/svg"
   xmlns:svg="http://www.w3.org/2000/svg">
  <defs
     id="defs54" />
  <sodipodi:namedview
     id="namedview52"
     pagecolor="#ffffff"
     bordercolor="#666666"
     borderopacity="1.0"
     inkscape:pageshadow="2"
     inkscape:pageopacity="0.0"
     inkscape:pagecheckerboard="0"
     showgrid="false"
     inkscape:zoom="1.7036017"
     inkscape:cx="283.51697"
     inkscape:cy="-305.52916"
     inkscape:window-width="1495"
     inkscape:window-height="970"
     inkscape:window-x="0"
     inkscape:window-y="32"
     inkscape:window-maximized="0"
     inkscape:current-layer="svg50" />
  <g
     id="g2"
     transform="translate(0,-516.535)" />
  <g
     style="fill:none;stroke:#000000;stroke-width:1mm"
     id="g4"
     transform="translate(0,-516.535)" />
  <g
     style="fill:none;stroke:#000000;stroke-width:4mm"
     id="g48"
     transform="translate(0,-516.535)">
    <path
       d="m 327.559,894.488 -0.168,3.843 -0.502,3.814 -0.833,3.756 -1.156,3.668 -1.472,3.554 -1.777,3.413 -2.067,3.244 -2.341,3.052 -2.599,2.836 -2.836,2.599"
       id="path6" />
    <path
       d="m 311.808,928.267 -3.052,2.341 -3.244,2.067 -3.412,1.776 -3.554,1.473 -3.669,1.156 -3.756,0.833 -3.814,0.502 -3.843,0.168 -3.843,-0.168 -3.814,-0.502"
       id="path8" />
    <path
       d="m 275.807,937.913 -3.755,-0.833 -3.669,-1.156 -3.554,-1.473 -3.412,-1.776 -3.244,-2.067 -3.052,-2.341 -2.836,-2.599 -2.599,-2.836 -2.342,-3.052 -2.067,-3.244"
       id="path10" />
    <path
       d="m 245.277,916.536 -1.776,-3.413 -1.472,-3.554 -1.157,-3.668 -0.832,-3.756 -0.502,-3.814 -0.168,-3.843 0.168,-3.843 0.502,-3.814 0.832,-3.755 1.157,-3.669"
       id="path12" />
    <path
       d="m 242.029,879.407 1.472,-3.554 1.776,-3.412 2.067,-3.244 2.342,-3.052 2.599,-2.836 2.836,-2.599 3.052,-2.342 3.244,-2.067 3.412,-1.776 3.554,-1.472"
       id="path14" />
    <path
       d="m 268.383,853.053 3.669,-1.157 3.755,-0.832 3.814,-0.502 3.843,-0.168 3.843,0.168 3.814,0.502 3.756,0.832 3.669,1.157 3.554,1.472 3.412,1.776"
       id="path16" />
    <path
       d="m 305.512,856.301 3.244,2.067 3.052,2.342 2.836,2.599 2.599,2.836 2.341,3.052 2.067,3.244 1.777,3.412 1.472,3.554 1.156,3.669 0.833,3.755"
       id="path18" />
    <path
       d="m 326.889,886.831 0.502,3.814 0.168,3.843 -0.168,3.843"
       id="path20" />
    <path
       d="M 0,894.488 H 220.472"
       id="path22" />
    <path
       d="M 94.488,894.488 31.496,737.008"
       id="path24" />
    <path
       d="m 472.441,894.488 62.992,-157.48"
       id="path26" />
    <path
       d="M 283.464,784.252 V 611.024"
       id="path28" />
    <path
       d="M 157.48,784.252 V 670.866"
       id="path30" />
    <path
       d="M 409.449,784.252 V 674.016"
       id="path32" />
    <path
       d="M 283.464,611.024 V 516.535"
       id="path34" />
    <path
       d="m 220.472,548.032 125.985,62.992"
       id="path36" />
    <path
       d="M 220.472,611.024 346.457,548.032"
       id="path38" />
    <path
       d="M 69.291,831.496 H 173.228"
       id="path40" />
    <path
       d="M 393.701,831.496 H 497.638"
       id="path42" />
    <path
       d="M 31.496,737.008 155.59,784.252 H 283.464 409.449 L 535.433,737.008"
       id="path44" />
    <path
       d="M 346.457,894.488 H 566.929"
       id="path46" />
  </g>
</svg>
