<?xml version="1.0" encoding="UTF-8"?>
<svg id="svg50" width="566.93" height="429.61" version="1.1" viewBox="0 0 566.93 429.61" xmlns="http://www.w3.org/2000/svg">
 <g id="g48" transform="translate(0 -516.54)" fill="none" stroke="#000" stroke-width="4mm">
  <path id="path6" d="m327.56 894.49-0.168 3.843-0.502 3.814-0.833 3.756-1.156 3.668-1.472 3.554-1.777 3.413-2.067 3.244-2.341 3.052-2.599 2.836-2.836 2.599"/>
  <path id="path8" d="m311.81 928.27-3.052 2.341-3.244 2.067-3.412 1.776-3.554 1.473-3.669 1.156-3.756 0.833-3.814 0.502-3.843 0.168-3.843-0.168-3.814-0.502"/>
  <path id="path10" d="m275.81 937.91-3.755-0.833-3.669-1.156-3.554-1.473-3.412-1.776-3.244-2.067-3.052-2.341-2.836-2.599-2.599-2.836-2.342-3.052-2.067-3.244"/>
  <path id="path12" d="m245.28 916.54-1.776-3.413-1.472-3.554-1.157-3.668-0.832-3.756-0.502-3.814-0.168-3.843 0.168-3.843 0.502-3.814 0.832-3.755 1.157-3.669"/>
  <path id="path14" d="m242.03 879.41 1.472-3.554 1.776-3.412 2.067-3.244 2.342-3.052 2.599-2.836 2.836-2.599 3.052-2.342 3.244-2.067 3.412-1.776 3.554-1.472"/>
  <path id="path16" d="m268.38 853.05 3.669-1.157 3.755-0.832 3.814-0.502 3.843-0.168 3.843 0.168 3.814 0.502 3.756 0.832 3.669 1.157 3.554 1.472 3.412 1.776"/>
  <path id="path18" d="m305.51 856.3 3.244 2.067 3.052 2.342 2.836 2.599 2.599 2.836 2.341 3.052 2.067 3.244 1.777 3.412 1.472 3.554 1.156 3.669 0.833 3.755"/>
  <path id="path20" d="m326.89 886.83 0.502 3.814 0.168 3.843-0.168 3.843"/>
  <path id="path22" d="m0 894.49h220.47"/>
  <path id="path24" d="m94.488 894.49-62.992-157.48"/>
  <path id="path26" d="m472.44 894.49 62.992-157.48"/>
  <path id="path28" d="m283.46 784.25v-173.23"/>
  <path id="path30" d="m157.48 784.25v-113.39"/>
  <path id="path32" d="m409.45 784.25v-110.24"/>
  <path id="path34" d="m283.46 611.02v-94.489"/>
  <path id="path36" d="m220.47 548.03 125.98 62.992"/>
  <path id="path38" d="m220.47 611.02 125.98-62.992"/>
  <path id="path40" d="m69.291 831.5h103.94"/>
  <path id="path42" d="m393.7 831.5h103.94"/>
  <path id="path44" d="m31.496 737.01 124.09 47.244h253.86l125.98-47.244"/>
  <path id="path46" d="m346.46 894.49h220.47"/>
 </g>
</svg>
