<?xml version="1.0" encoding="UTF-8"?>
<svg id="svg3742" width="582.06" height="582.06" version="1.1" viewBox="0 0 582.06 582.06" xmlns="http://www.w3.org/2000/svg">
 <g id="g3740" transform="translate(7.5662 -6468.1)" fill="none" stroke="#000" stroke-width="4mm">
  <path id="path6" d="m277.16 6503.4h12.602"/>
  <path id="path8" d="m270.86 6503.7h25.205"/>
  <path id="path10" d="m264.56 6504h37.807"/>
  <path id="path12" d="m260.2 6504.3h46.537"/>
  <path id="path14" d="m258.1 6504.5h50.719"/>
  <path id="path16" d="m256.01 6504.8h54.9"/>
  <path id="path18" d="m253.92 6505.1h59.081"/>
  <path id="path20" d="m251.83 6505.4h63.263"/>
  <path id="path22" d="m249.74 6505.6h67.444"/>
  <path id="path24" d="m247.65 6505.9h71.626"/>
  <path id="path26" d="m245.56 6506.2h75.807"/>
  <path id="path28" d="m243.47 6506.5h79.988"/>
  <path id="path30" d="m241.38 6506.8h84.17"/>
  <path id="path32" d="m239.29 6507h88.351"/>
  <path id="path34" d="m237.94 6507.3h91.052"/>
  <path id="path36" d="m236.7 6507.6h93.536"/>
  <path id="path38" d="m235.46 6507.9h96.018"/>
  <path id="path40" d="m234.21 6508.1h98.5"/>
  <path id="path42" d="m232.97 6508.4h100.98"/>
  <path id="path44" d="m231.73 6508.7h103.46"/>
  <path id="path46" d="m230.49 6509h105.95"/>
  <path id="path48" d="m229.25 6509.2h108.43"/>
  <path id="path50" d="m228.01 6509.5h110.91"/>
  <path id="path52" d="m226.77 6509.8h113.4"/>
  <path id="path54" d="m225.52 6510.1h115.88"/>
  <path id="path56" d="m224.28 6510.3h118.36"/>
  <path id="path58" d="m223.04 6510.6h120.84"/>
  <path id="path60" d="m221.8 6510.9h123.33"/>
  <path id="path62" d="m220.56 6511.2h125.81"/>
  <path id="path64" d="m219.32 6511.4h128.29"/>
  <path id="path66" d="m218.08 6511.7h130.77"/>
  <path id="path68" d="m216.95 6512h133.03"/>
  <path id="path70" d="m216.08 6512.3h134.77"/>
  <path id="path72" d="m215.2 6512.5h136.52"/>
  <path id="path74" d="m214.33 6512.8h138.26"/>
  <path id="path76" d="m213.46 6513.1h140.01"/>
  <path id="path78" d="m212.59 6513.4h141.76"/>
  <path id="path80" d="m211.71 6513.6h143.5"/>
  <path id="path82" d="m210.84 6513.9h145.25"/>
  <path id="path84" d="m209.97 6514.2h146.99"/>
  <path id="path86" d="m209.1 6514.5h148.74"/>
  <path id="path88" d="m208.22 6514.7h150.48"/>
  <path id="path90" d="m207.35 6515h152.23"/>
  <path id="path92" d="m206.48 6515.3h153.98"/>
  <path id="path94" d="m205.6 6515.6h155.72"/>
  <path id="path96" d="m204.73 6515.8h157.47"/>
  <path id="path98" d="m203.86 6516.1h159.21"/>
  <path id="path100" d="m202.98 6516.4h160.96"/>
  <path id="path102" d="m202.11 6516.7h162.7"/>
  <path id="path104" d="m201.24 6516.9h164.45"/>
  <path id="path106" d="m200.37 6517.2h166.2"/>
  <path id="path108" d="m199.49 6517.5h167.94"/>
  <path id="path110" d="m198.62 6517.8h169.69"/>
  <path id="path112" d="m197.75 6518h171.43"/>
  <path id="path114" d="m196.88 6518.3h173.18"/>
  <path id="path116" d="m196 6518.6h174.92"/>
  <path id="path118" d="m195.32 6518.9h176.29"/>
  <path id="path120" d="m194.66 6519.1h177.62"/>
  <path id="path122" d="m193.99 6519.4h178.95"/>
  <path id="path124" d="m193.33 6519.7h180.28"/>
  <path id="path126" d="m192.66 6520h181.6"/>
  <path id="path128" d="m192 6520.2h182.94"/>
  <path id="path130" d="m191.33 6520.5h184.26"/>
  <path id="path132" d="m190.67 6520.8h185.59"/>
  <path id="path134" d="m190 6521.1h186.92"/>
  <path id="path136" d="m189.34 6521.3h188.25"/>
  <path id="path138" d="m188.68 6521.6h189.58"/>
  <path id="path140" d="m188.01 6521.9h190.91"/>
  <path id="path142" d="m187.35 6522.2h192.24"/>
  <path id="path144" d="m186.68 6522.4h193.56"/>
  <path id="path146" d="m186.02 6522.7h194.89"/>
  <path id="path148" d="m185.35 6523h196.22"/>
  <path id="path150" d="m184.69 6523.3h197.55"/>
  <path id="path152" d="m184.02 6523.5h198.88"/>
  <path id="path154" d="m183.36 6523.8h200.21"/>
  <path id="path156" d="m182.7 6524.1h201.54"/>
  <path id="path158" d="m182.03 6524.4h202.87"/>
  <path id="path160" d="m181.37 6524.6h204.2"/>
  <path id="path162" d="m180.7 6524.9h205.52"/>
  <path id="path164" d="m180.04 6525.2h206.85"/>
  <path id="path166" d="m179.37 6525.5h208.18"/>
  <path id="path168" d="m178.71 6525.7h209.51"/>
  <path id="path170" d="m178.04 6526h210.84"/>
  <path id="path172" d="m177.38 6526.3h212.17"/>
  <path id="path174" d="m176.72 6526.6h213.5"/>
  <path id="path176" d="m176.05 6526.8h214.83"/>
  <path id="path178" d="m175.39 6527.1h216.16"/>
  <path id="path180" d="m174.84 6527.4h217.25"/>
  <path id="path182" d="m174.31 6527.7h218.3"/>
  <path id="path184" d="m173.78 6527.9h219.36"/>
  <path id="path186" d="m173.25 6528.2h220.42"/>
  <path id="path188" d="m172.72 6528.5h221.48"/>
  <path id="path190" d="m172.2 6528.8h222.54"/>
  <path id="path192" d="m171.67 6529h223.59"/>
  <path id="path194" d="m171.14 6529.3h224.65"/>
  <path id="path196" d="m170.61 6529.6h225.71"/>
  <path id="path198" d="m170.08 6529.9h226.76"/>
  <path id="path200" d="m169.55 6530.1h227.82"/>
  <path id="path202" d="m169.02 6530.4h228.88"/>
  <path id="path204" d="m168.5 6530.7h229.94"/>
  <path id="path206" d="m167.97 6531h230.99"/>
  <path id="path208" d="m167.44 6531.2h232.05"/>
  <path id="path210" d="m166.91 6531.5h233.11"/>
  <path id="path212" d="m166.38 6531.8h234.17"/>
  <path id="path214" d="m165.85 6532.1h235.22"/>
  <path id="path216" d="m165.32 6532.3h236.28"/>
  <path id="path218" d="m164.8 6532.6h237.34"/>
  <path id="path220" d="m164.27 6532.9h238.4"/>
  <path id="path222" d="m163.74 6533.2h239.45"/>
  <path id="path224" d="m163.21 6533.4h240.51"/>
  <path id="path226" d="m162.68 6533.7h241.57"/>
  <path id="path228" d="m162.15 6534h242.62"/>
  <path id="path230" d="m161.62 6534.3h243.68"/>
  <path id="path232" d="m161.1 6534.5h244.74"/>
  <path id="path234" d="m160.57 6534.8h245.8"/>
  <path id="path236" d="m160.04 6535.1h246.86"/>
  <path id="path238" d="m159.51 6535.4h247.91"/>
  <path id="path240" d="m158.98 6535.6h248.97"/>
  <path id="path242" d="m158.45 6535.9h250.02"/>
  <path id="path244" d="m157.92 6536.2h251.08"/>
  <path id="path246" d="m157.39 6536.5h252.14"/>
  <path id="path248" d="m156.87 6536.7h253.2"/>
  <path id="path250" d="m156.34 6537h254.26"/>
  <path id="path252" d="m155.81 6537.3h255.31"/>
  <path id="path254" d="m155.32 6537.6h256.29"/>
  <path id="path256" d="m154.89 6537.8h257.16"/>
  <path id="path258" d="m154.45 6538.1h258.02"/>
  <path id="path260" d="m154.02 6538.4h258.88"/>
  <path id="path262" d="m153.59 6538.7h259.75"/>
  <path id="path264" d="m153.16 6539h260.61"/>
  <path id="path266" d="m152.73 6539.2h261.48"/>
  <path id="path268" d="m152.29 6539.5h262.34"/>
  <path id="path270" d="m151.86 6539.8h263.2"/>
  <path id="path272" d="m151.43 6540.1h264.07"/>
  <path id="path274" d="m151 6540.3h264.93"/>
  <path id="path276" d="m150.57 6540.6h265.8"/>
  <path id="path278" d="m150.14 6540.9h266.66"/>
  <path id="path280" d="m149.7 6541.2h267.52"/>
  <path id="path282" d="m149.27 6541.4h268.39"/>
  <path id="path284" d="m148.84 6541.7h269.25"/>
  <path id="path286" d="m148.41 6542h270.12"/>
  <path id="path288" d="m147.98 6542.3h270.98"/>
  <path id="path290" d="m147.54 6542.5h271.84"/>
  <path id="path292" d="m147.11 6542.8h272.71"/>
  <path id="path294" d="m146.68 6543.1h273.57"/>
  <path id="path296" d="m146.25 6543.4h274.44"/>
  <path id="path298" d="m145.82 6543.6h275.3"/>
  <path id="path300" d="m145.38 6543.9h276.16"/>
  <path id="path302" d="m144.95 6544.2h277.03"/>
  <path id="path304" d="m144.52 6544.5h277.89"/>
  <path id="path306" d="m144.09 6544.7h278.76"/>
  <path id="path308" d="m143.65 6545h279.62"/>
  <path id="path310" d="m143.22 6545.3h280.48"/>
  <path id="path312" d="m142.79 6545.6h281.35"/>
  <path id="path314" d="m142.36 6545.8h282.21"/>
  <path id="path316" d="m141.93 6546.1h283.08"/>
  <path id="path318" d="m141.5 6546.4h283.94"/>
  <path id="path320" d="m141.06 6546.7h284.8"/>
  <path id="path322" d="m140.63 6546.9h285.67"/>
  <path id="path324" d="m140.2 6547.2h286.53"/>
  <path id="path326" d="m139.77 6547.5h287.4"/>
  <path id="path328" d="m139.34 6547.8h288.26"/>
  <path id="path330" d="m138.9 6548h289.12"/>
  <path id="path332" d="m138.47 6548.3h289.99"/>
  <path id="path334" d="m138.04 6548.6h290.85"/>
  <path id="path336" d="m137.61 6548.9h291.72"/>
  <path id="path338" d="m137.18 6549.1h292.58"/>
  <path id="path340" d="m136.74 6549.4h293.44"/>
  <path id="path342" d="m136.37 6549.7h294.19"/>
  <path id="path344" d="m136.01 6550h294.9"/>
  <path id="path346" d="m135.65 6550.2h295.62"/>
  <path id="path348" d="m135.29 6550.5h296.34"/>
  <path id="path350" d="m134.94 6550.8h297.06"/>
  <path id="path352" d="m134.58 6551.1h297.78"/>
  <path id="path354" d="m134.22 6551.3h298.49"/>
  <path id="path356" d="m133.86 6551.6h299.21"/>
  <path id="path358" d="m133.5 6551.9h299.93"/>
  <path id="path360" d="m133.14 6552.2h300.64"/>
  <path id="path362" d="m132.78 6552.4h301.36"/>
  <path id="path364" d="m132.42 6552.7h302.08"/>
  <path id="path366" d="m132.07 6553h302.8"/>
  <path id="path368" d="m131.71 6553.3h303.51"/>
  <path id="path370" d="m131.35 6553.5h304.23"/>
  <path id="path372" d="m130.99 6553.8h304.95"/>
  <path id="path374" d="m130.63 6554.1h305.66"/>
  <path id="path376" d="m130.27 6554.4h306.38"/>
  <path id="path378" d="m129.91 6554.6h307.1"/>
  <path id="path380" d="m129.56 6554.9h307.82"/>
  <path id="path382" d="m129.2 6555.2h308.54"/>
  <path id="path384" d="m128.84 6555.5h309.25"/>
  <path id="path386" d="m128.48 6555.7h309.97"/>
  <path id="path388" d="m128.12 6556h310.69"/>
  <path id="path390" d="m127.76 6556.3h311.4"/>
  <path id="path392" d="m127.4 6556.6h312.12"/>
  <path id="path394" d="m127.04 6556.8h312.84"/>
  <path id="path396" d="m126.69 6557.1h313.56"/>
  <path id="path398" d="m126.33 6557.4h314.27"/>
  <path id="path400" d="m125.97 6557.7h314.99"/>
  <path id="path402" d="m125.61 6557.9h315.71"/>
  <path id="path404" d="m125.25 6558.2h316.43"/>
  <path id="path406" d="m124.89 6558.5h317.14"/>
  <path id="path408" d="m124.53 6558.8h317.86"/>
  <path id="path410" d="m124.18 6559h318.58"/>
  <path id="path412" d="m123.82 6559.3h319.3"/>
  <path id="path414" d="m123.46 6559.6h320.01"/>
  <path id="path416" d="m123.1 6559.9h320.73"/>
  <path id="path418" d="m122.74 6560.1h321.45"/>
  <path id="path420" d="m122.38 6560.4h322.16"/>
  <path id="path422" d="m122.02 6560.7h322.88"/>
  <path id="path424" d="m121.66 6561h323.6"/>
  <path id="path426" d="m121.31 6561.2h324.32"/>
  <path id="path428" d="m120.95 6561.5h325.03"/>
  <path id="path430" d="m120.59 6561.8h325.75"/>
  <path id="path432" d="m120.23 6562.1h326.47"/>
  <path id="path434" d="m119.87 6562.3h327.19"/>
  <path id="path436" d="m119.51 6562.6h327.9"/>
  <path id="path438" d="m119.15 6562.9h328.62"/>
  <path id="path440" d="m118.82 6563.2h329.29"/>
  <path id="path442" d="m118.52 6563.4h329.89"/>
  <path id="path444" d="m118.22 6563.7h330.49"/>
  <path id="path446" d="m117.92 6564h331.09"/>
  <path id="path448" d="m117.62 6564.3h331.69"/>
  <path id="path450" d="m117.32 6564.5h332.29"/>
  <path id="path452" d="m117.02 6564.8h332.89"/>
  <path id="path454" d="m116.72 6565.1h333.49"/>
  <path id="path456" d="m116.42 6565.4h334.1"/>
  <path id="path458" d="m116.12 6565.6h334.7"/>
  <path id="path460" d="m115.82 6565.9h335.3"/>
  <path id="path462" d="m115.52 6566.2h335.9"/>
  <path id="path464" d="m115.22 6566.5h336.5"/>
  <path id="path466" d="m114.92 6566.7h337.1"/>
  <path id="path468" d="m114.62 6567h337.7"/>
  <path id="path470" d="m114.32 6567.3h338.3"/>
  <path id="path472" d="m114.01 6567.6h338.9"/>
  <path id="path474" d="m113.71 6567.8h339.5"/>
  <path id="path476" d="m113.41 6568.1h340.1"/>
  <path id="path478" d="m113.11 6568.4h340.7"/>
  <path id="path480" d="m112.81 6568.7h341.3"/>
  <path id="path482" d="m112.51 6568.9h341.9"/>
  <path id="path484" d="m112.21 6569.2h342.5"/>
  <path id="path486" d="m111.91 6569.5h343.1"/>
  <path id="path488" d="m111.61 6569.8h343.7"/>
  <path id="path490" d="m111.31 6570h344.31"/>
  <path id="path492" d="m111.01 6570.3h344.91"/>
  <path id="path494" d="m110.71 6570.6h345.51"/>
  <path id="path496" d="m110.41 6570.9h346.11"/>
  <path id="path498" d="m110.11 6571.2h346.71"/>
  <path id="path500" d="m109.81 6571.4h347.31"/>
  <path id="path502" d="m109.51 6571.7h347.91"/>
  <path id="path504" d="m109.21 6572h348.51"/>
  <path id="path506" d="m108.91 6572.3h349.11"/>
  <path id="path508" d="m108.61 6572.5h349.71"/>
  <path id="path510" d="m108.31 6572.8h350.31"/>
  <path id="path512" d="m108.01 6573.1h350.91"/>
  <path id="path514" d="m107.71 6573.4h351.51"/>
  <path id="path516" d="m107.41 6573.6h352.12"/>
  <path id="path518" d="m107.11 6573.9h352.72"/>
  <path id="path520" d="m106.81 6574.2h353.32"/>
  <path id="path522" d="m106.51 6574.5h353.92"/>
  <path id="path524" d="m106.21 6574.7h354.52"/>
  <path id="path526" d="m105.9 6575h355.12"/>
  <path id="path528" d="m105.6 6575.3h355.72"/>
  <path id="path530" d="m105.3 6575.6h356.32"/>
  <path id="path532" d="m105 6575.8h356.92"/>
  <path id="path534" d="m104.7 6576.1h357.52"/>
  <path id="path536" d="m104.4 6576.4h358.12"/>
  <path id="path538" d="m104.1 6576.7h358.72"/>
  <path id="path540" d="m103.8 6576.9h359.32"/>
  <path id="path542" d="m103.5 6577.2h359.92"/>
  <path id="path544" d="m103.2 6577.5h360.52"/>
  <path id="path546" d="m102.9 6577.8h361.12"/>
  <path id="path548" d="m102.6 6578h361.72"/>
  <path id="path550" d="m102.33 6578.3h362.27"/>
  <path id="path552" d="m102.08 6578.6h362.77"/>
  <path id="path554" d="m101.83 6578.9h363.28"/>
  <path id="path556" d="m101.57 6579.1h363.78"/>
  <path id="path558" d="m101.32 6579.4h364.28"/>
  <path id="path560" d="m101.07 6579.7h364.79"/>
  <path id="path562" d="m100.82 6580h365.29"/>
  <path id="path564" d="m100.57 6580.2h365.8"/>
  <path id="path566" d="m100.31 6580.5h366.3"/>
  <path id="path568" d="m100.06 6580.8h366.81"/>
  <path id="path570" d="m99.809 6581.1h367.31"/>
  <path id="path572" d="m99.557 6581.3h367.82"/>
  <path id="path574" d="m99.305 6581.6h368.32"/>
  <path id="path576" d="m99.053 6581.9h368.82"/>
  <path id="path578" d="m98.8 6582.2h369.33"/>
  <path id="path580" d="m98.548 6582.4h369.83"/>
  <path id="path582" d="m98.296 6582.7h370.34"/>
  <path id="path584" d="m98.044 6583h370.84"/>
  <path id="path586" d="m97.791 6583.3h371.35"/>
  <path id="path588" d="m97.54 6583.5h371.85"/>
  <path id="path590" d="m97.288 6583.8h372.35"/>
  <path id="path592" d="m97.035 6584.1h372.86"/>
  <path id="path594" d="m96.783 6584.4h373.36"/>
  <path id="path596" d="m96.531 6584.6h373.87"/>
  <path id="path598" d="m96.278 6584.9h374.37"/>
  <path id="path600" d="m96.026 6585.2h374.88"/>
  <path id="path602" d="m95.774 6585.5h375.38"/>
  <path id="path604" d="m95.522 6585.7h375.88"/>
  <path id="path606" d="m95.27 6586h376.39"/>
  <path id="path608" d="m95.018 6586.3h376.89"/>
  <path id="path610" d="m94.765 6586.6h377.4"/>
  <path id="path612" d="m94.513 6586.8h377.9"/>
  <path id="path614" d="m94.261 6587.1h378.41"/>
  <path id="path616" d="m94.009 6587.4h378.91"/>
  <path id="path618" d="m93.757 6587.7h379.42"/>
  <path id="path620" d="m93.505 6587.9h379.92"/>
  <path id="path622" d="m93.252 6588.2h380.42"/>
  <path id="path624" d="m93 6588.5h380.93"/>
  <path id="path626" d="m92.748 6588.8h381.43"/>
  <path id="path628" d="m92.496 6589h381.94"/>
  <path id="path630" d="m92.244 6589.3h382.44"/>
  <path id="path632" d="m91.992 6589.6h382.94"/>
  <path id="path634" d="m91.739 6589.9h383.45"/>
  <path id="path636" d="m91.487 6590.1h383.96"/>
  <path id="path638" d="m91.235 6590.4h384.46"/>
  <path id="path640" d="m90.982 6590.7h384.96"/>
  <path id="path642" d="m90.731 6591h385.47"/>
  <path id="path644" d="m90.479 6591.2h385.97"/>
  <path id="path646" d="m90.226 6591.5h386.48"/>
  <path id="path648" d="m89.974 6591.8h386.98"/>
  <path id="path650" d="m89.722 6592.1h387.48"/>
  <path id="path652" d="m89.469 6592.3h387.99"/>
  <path id="path654" d="m89.217 6592.6h388.49"/>
  <path id="path656" d="m88.965 6592.9h389"/>
  <path id="path658" d="m88.713 6593.2h389.5"/>
  <path id="path660" d="m88.461 6593.4h390.01"/>
  <path id="path662" d="m88.209 6593.7h390.51"/>
  <path id="path664" d="m87.956 6594h391.02"/>
  <path id="path666" d="m87.704 6594.3h391.52"/>
  <path id="path668" d="m87.452 6594.5h392.02"/>
  <path id="path670" d="m87.233 6594.8h392.46"/>
  <path id="path672" d="m87.021 6595.1h392.89"/>
  <path id="path674" d="m86.81 6595.4h393.31"/>
  <path id="path676" d="m86.599 6595.6h393.73"/>
  <path id="path678" d="m86.388 6595.9h394.15"/>
  <path id="path680" d="m86.176 6596.2h394.58"/>
  <path id="path682" d="m85.965 6596.5h395"/>
  <path id="path684" d="m85.754 6596.7h395.42"/>
  <path id="path686" d="m85.543 6597h395.84"/>
  <path id="path688" d="m85.332 6597.3h396.26"/>
  <path id="path690" d="m85.121 6597.6h396.69"/>
  <path id="path692" d="m84.91 6597.8h397.11"/>
  <path id="path694" d="m84.698 6598.1h397.53"/>
  <path id="path696" d="m84.487 6598.4h397.96"/>
  <path id="path698" d="m84.276 6598.7h398.38"/>
  <path id="path700" d="m84.065 6598.9h398.8"/>
  <path id="path702" d="m83.854 6599.2h399.22"/>
  <path id="path704" d="m83.643 6599.5h399.64"/>
  <path id="path706" d="m83.432 6599.8h400.06"/>
  <path id="path708" d="m83.22 6600h400.49"/>
  <path id="path710" d="m83.009 6600.3h400.91"/>
  <path id="path712" d="m82.798 6600.6h401.33"/>
  <path id="path714" d="m82.586 6600.9h401.76"/>
  <path id="path716" d="m82.376 6601.1h402.18"/>
  <path id="path718" d="m82.165 6601.4h402.6"/>
  <path id="path720" d="m81.954 6601.7h403.02"/>
  <path id="path722" d="m81.742 6602h403.44"/>
  <path id="path724" d="m81.531 6602.2h403.87"/>
  <path id="path726" d="m81.32 6602.5h404.29"/>
  <path id="path728" d="m81.108 6602.8h404.71"/>
  <path id="path730" d="m80.897 6603.1h405.13"/>
  <path id="path732" d="m80.686 6603.3h405.56"/>
  <path id="path734" d="m80.475 6603.6h405.98"/>
  <path id="path736" d="m80.264 6603.9h406.4"/>
  <path id="path738" d="m80.053 6604.2h406.82"/>
  <path id="path740" d="m79.842 6604.4h407.24"/>
  <path id="path742" d="m79.63 6604.7h407.67"/>
  <path id="path744" d="m79.419 6605h408.09"/>
  <path id="path746" d="m79.208 6605.3h408.51"/>
  <path id="path748" d="m78.997 6605.6h408.94"/>
  <path id="path750" d="m78.786 6605.8h409.36"/>
  <path id="path752" d="m78.575 6606.1h409.78"/>
  <path id="path754" d="m78.364 6606.4h410.2"/>
  <path id="path756" d="m78.152 6606.7h410.62"/>
  <path id="path758" d="m77.941 6606.9h411.05"/>
  <path id="path760" d="m77.73 6607.2h411.47"/>
  <path id="path762" d="m77.519 6607.5h411.89"/>
  <path id="path764" d="m77.307 6607.8h412.31"/>
  <path id="path766" d="m77.096 6608h412.74"/>
  <path id="path768" d="m76.885 6608.3h413.16"/>
  <path id="path770" d="m76.674 6608.6h413.58"/>
  <path id="path772" d="m76.463 6608.9h414"/>
  <path id="path774" d="m76.252 6609.1h414.42"/>
  <path id="path776" d="m76.041 6609.4h414.85"/>
  <path id="path778" d="m75.829 6609.7h415.27"/>
  <path id="path780" d="m75.618 6610h415.69"/>
  <path id="path782" d="m75.407 6610.2h416.12"/>
  <path id="path784" d="m75.196 6610.5h416.54"/>
  <path id="path786" d="m74.985 6610.8h416.96"/>
  <path id="path788" d="m74.774 6611.1h417.38"/>
  <path id="path790" d="m74.562 6611.3h417.8"/>
  <path id="path792" d="m74.351 6611.6h418.23"/>
  <path id="path794" d="m74.14 6611.9h418.65"/>
  <path id="path796" d="m73.929 6612.2h419.07"/>
  <path id="path798" d="m73.733 6612.4h419.46"/>
  <path id="path800" d="m73.558 6612.7h419.81"/>
  <path id="path802" d="m73.382 6613h420.16"/>
  <path id="path804" d="m73.207 6613.3h420.52"/>
  <path id="path806" d="m73.031 6613.5h420.87"/>
  <path id="path808" d="m72.856 6613.8h421.22"/>
  <path id="path810" d="m72.681 6614.1h421.57"/>
  <path id="path812" d="m72.505 6614.4h421.92"/>
  <path id="path814" d="m72.33 6614.6h422.27"/>
  <path id="path816" d="m72.155 6614.9h422.62"/>
  <path id="path818" d="m71.98 6615.2h422.97"/>
  <path id="path820" d="m71.805 6615.5h423.32"/>
  <path id="path822" d="m71.629 6615.7h423.67"/>
  <path id="path824" d="m71.454 6616h424.02"/>
  <path id="path826" d="m71.278 6616.3h424.37"/>
  <path id="path828" d="m71.103 6616.6h424.72"/>
  <path id="path830" d="m70.928 6616.8h425.07"/>
  <path id="path832" d="m70.752 6617.1h425.42"/>
  <path id="path834" d="m70.577 6617.4h425.78"/>
  <path id="path836" d="m70.402 6617.7h426.12"/>
  <path id="path838" d="m70.226 6617.9h426.48"/>
  <path id="path840" d="m70.051 6618.2h426.83"/>
  <path id="path842" d="m69.876 6618.5h427.18"/>
  <path id="path844" d="m69.7 6618.8h427.53"/>
  <path id="path846" d="m69.525 6619h427.88"/>
  <path id="path848" d="m69.349 6619.3h428.23"/>
  <path id="path850" d="m69.175 6619.6h428.58"/>
  <path id="path852" d="m68.999 6619.9h428.93"/>
  <path id="path854" d="m68.824 6620.1h429.28"/>
  <path id="path856" d="m68.649 6620.4h429.63"/>
  <path id="path858" d="m68.473 6620.7h429.98"/>
  <path id="path860" d="m68.298 6621h430.33"/>
  <path id="path862" d="m68.123 6621.2h430.68"/>
  <path id="path864" d="m67.947 6621.5h431.04"/>
  <path id="path866" d="m67.772 6621.8h431.38"/>
  <path id="path868" d="m67.596 6622.1h431.74"/>
  <path id="path870" d="m67.421 6622.3h432.09"/>
  <path id="path872" d="m67.246 6622.6h432.44"/>
  <path id="path874" d="m67.07 6622.9h432.79"/>
  <path id="path876" d="m66.895 6623.2h433.14"/>
  <path id="path878" d="m66.72 6623.4h433.49"/>
  <path id="path880" d="m66.544 6623.7h433.84"/>
  <path id="path882" d="m66.369 6624h434.19"/>
  <path id="path884" d="m66.194 6624.3h434.54"/>
  <path id="path886" d="m66.019 6624.5h434.89"/>
  <path id="path888" d="m65.844 6624.8h435.24"/>
  <path id="path890" d="m65.668 6625.1h435.59"/>
  <path id="path892" d="m65.493 6625.4h435.94"/>
  <path id="path894" d="m65.317 6625.6h436.29"/>
  <path id="path896" d="m65.142 6625.9h436.64"/>
  <path id="path898" d="m64.967 6626.2h437"/>
  <path id="path900" d="m64.791 6626.5h437.35"/>
  <path id="path902" d="m64.616 6626.7h437.7"/>
  <path id="path904" d="m64.441 6627h438.05"/>
  <path id="path906" d="m64.265 6627.3h438.4"/>
  <path id="path908" d="m64.09 6627.6h438.75"/>
  <path id="path910" d="m63.915 6627.8h439.1"/>
  <path id="path912" d="m63.739 6628.1h439.45"/>
  <path id="path914" d="m63.564 6628.4h439.8"/>
  <path id="path916" d="m63.388 6628.7h440.15"/>
  <path id="path918" d="m63.214 6628.9h440.5"/>
  <path id="path920" d="m63.038 6629.2h440.85"/>
  <path id="path922" d="m62.863 6629.5h441.2"/>
  <path id="path924" d="m62.688 6629.8h441.55"/>
  <path id="path926" d="m62.512 6630h441.9"/>
  <path id="path928" d="m62.337 6630.3h442.26"/>
  <path id="path930" d="m62.162 6630.6h442.6"/>
  <path id="path932" d="m61.986 6630.9h442.96"/>
  <path id="path934" d="m61.811 6631.1h443.31"/>
  <path id="path936" d="m61.668 6631.4h443.59"/>
  <path id="path938" d="m61.525 6631.7h443.88"/>
  <path id="path940" d="m61.381 6632h444.17"/>
  <path id="path942" d="m61.238 6632.2h444.45"/>
  <path id="path944" d="m61.095 6632.5h444.74"/>
  <path id="path946" d="m60.951 6632.8h445.03"/>
  <path id="path948" d="m60.808 6633.1h445.31"/>
  <path id="path950" d="m60.665 6633.3h445.6"/>
  <path id="path952" d="m60.521 6633.6h445.89"/>
  <path id="path954" d="m60.378 6633.9h446.17"/>
  <path id="path956" d="m60.235 6634.2h446.46"/>
  <path id="path958" d="m60.091 6634.4h446.75"/>
  <path id="path960" d="m59.948 6634.7h447.03"/>
  <path id="path962" d="m59.805 6635h447.32"/>
  <path id="path964" d="m59.662 6635.3h447.6"/>
  <path id="path966" d="m59.518 6635.5h447.89"/>
  <path id="path968" d="m59.375 6635.8h448.18"/>
  <path id="path970" d="m59.232 6636.1h448.46"/>
  <path id="path972" d="m59.089 6636.4h448.75"/>
  <path id="path974" d="m58.945 6636.6h449.04"/>
  <path id="path976" d="m58.802 6636.9h449.32"/>
  <path id="path978" d="m58.659 6637.2h449.61"/>
  <path id="path980" d="m58.516 6637.5h449.9"/>
  <path id="path982" d="m58.373 6637.8h450.18"/>
  <path id="path984" d="m58.229 6638h450.47"/>
  <path id="path986" d="m58.086 6638.3h450.76"/>
  <path id="path988" d="m57.943 6638.6h451.04"/>
  <path id="path990" d="m57.8 6638.9h451.33"/>
  <path id="path992" d="m57.656 6639.1h451.62"/>
  <path id="path994" d="m57.513 6639.4h451.9"/>
  <path id="path996" d="m57.37 6639.7h452.19"/>
  <path id="path998" d="m57.226 6640h452.48"/>
  <path id="path1000" d="m57.083 6640.2h452.76"/>
  <path id="path1002" d="m56.94 6640.5h453.05"/>
  <path id="path1004" d="m56.796 6640.8h453.34"/>
  <path id="path1006" d="m56.653 6641.1h453.62"/>
  <path id="path1008" d="m56.51 6641.3h453.91"/>
  <path id="path1010" d="m56.366 6641.6h454.2"/>
  <path id="path1012" d="m56.223 6641.9h454.48"/>
  <path id="path1014" d="m56.08 6642.2h454.77"/>
  <path id="path1016" d="m55.937 6642.4h455.06"/>
  <path id="path1018" d="m55.793 6642.7h455.34"/>
  <path id="path1020" d="m55.65 6643h455.63"/>
  <path id="path1022" d="m55.507 6643.3h455.92"/>
  <path id="path1024" d="m55.364 6643.5h456.2"/>
  <path id="path1026" d="m55.221 6643.8h456.49"/>
  <path id="path1028" d="m55.077 6644.1h456.78"/>
  <path id="path1030" d="m54.934 6644.4h457.06"/>
  <path id="path1032" d="m54.791 6644.6h457.35"/>
  <path id="path1034" d="m54.648 6644.9h457.63"/>
  <path id="path1036" d="m54.504 6645.2h457.92"/>
  <path id="path1038" d="m54.361 6645.5h458.21"/>
  <path id="path1040" d="m54.218 6645.7h458.49"/>
  <path id="path1042" d="m54.075 6646h458.78"/>
  <path id="path1044" d="m53.931 6646.3h459.07"/>
  <path id="path1046" d="m53.788 6646.6h459.35"/>
  <path id="path1048" d="m53.645 6646.8h459.64"/>
  <path id="path1050" d="m53.501 6647.1h459.93"/>
  <path id="path1052" d="m53.358 6647.4h460.21"/>
  <path id="path1054" d="m53.215 6647.7h460.5"/>
  <path id="path1056" d="m53.071 6647.9h460.79"/>
  <path id="path1058" d="m52.928 6648.2h461.07"/>
  <path id="path1060" d="m52.785 6648.5h461.36"/>
  <path id="path1062" d="m52.641 6648.8h461.65"/>
  <path id="path1064" d="m52.498 6649h461.93"/>
  <path id="path1066" d="m52.355 6649.3h462.22"/>
  <path id="path1068" d="m52.212 6649.6h462.5"/>
  <path id="path1070" d="m52.069 6649.9h462.79"/>
  <path id="path1072" d="m51.925 6650.1h463.08"/>
  <path id="path1074" d="m51.782 6650.4h463.36"/>
  <path id="path1076" d="m51.639 6650.7h463.65"/>
  <path id="path1078" d="m51.497 6651h463.94"/>
  <path id="path1080" d="m51.382 6651.2h464.16"/>
  <path id="path1082" d="m51.269 6651.5h464.39"/>
  <path id="path1084" d="m51.155 6651.8h464.62"/>
  <path id="path1086" d="m51.04 6652.1h464.85"/>
  <path id="path1088" d="m50.927 6652.3h465.08"/>
  <path id="path1090" d="m50.813 6652.6h465.3"/>
  <path id="path1092" d="m50.699 6652.9h465.53"/>
  <path id="path1094" d="m50.585 6653.2h465.76"/>
  <path id="path1096" d="m50.471 6653.4h465.99"/>
  <path id="path1098" d="m50.357 6653.7h466.22"/>
  <path id="path1100" d="m50.243 6654h466.44"/>
  <path id="path1102" d="m50.129 6654.3h466.67"/>
  <path id="path1104" d="m50.015 6654.5h466.9"/>
  <path id="path1106" d="m49.901 6654.8h467.13"/>
  <path id="path1108" d="m49.787 6655.1h467.36"/>
  <path id="path1110" d="m49.673 6655.4h467.58"/>
  <path id="path1112" d="m49.559 6655.6h467.81"/>
  <path id="path1114" d="m49.445 6655.9h468.04"/>
  <path id="path1116" d="m49.331 6656.2h468.27"/>
  <path id="path1118" d="m49.217 6656.5h468.5"/>
  <path id="path1120" d="m49.103 6656.7h468.72"/>
  <path id="path1122" d="m48.989 6657h468.95"/>
  <path id="path1124" d="m48.875 6657.3h469.18"/>
  <path id="path1126" d="m48.761 6657.6h469.41"/>
  <path id="path1128" d="m48.647 6657.8h469.64"/>
  <path id="path1130" d="m48.533 6658.1h469.86"/>
  <path id="path1132" d="m48.419 6658.4h470.09"/>
  <path id="path1134" d="m48.305 6658.7h470.32"/>
  <path id="path1136" d="m48.191 6658.9h470.55"/>
  <path id="path1138" d="m48.077 6659.2h470.78"/>
  <path id="path1140" d="m47.963 6659.5h471"/>
  <path id="path1142" d="m47.849 6659.8h471.23"/>
  <path id="path1144" d="m47.735 6660h471.46"/>
  <path id="path1146" d="m47.621 6660.3h471.69"/>
  <path id="path1148" d="m47.507 6660.6h471.92"/>
  <path id="path1150" d="m47.393 6660.9h472.14"/>
  <path id="path1152" d="m47.279 6661.1h472.37"/>
  <path id="path1154" d="m47.165 6661.4h472.6"/>
  <path id="path1156" d="m47.051 6661.7h472.83"/>
  <path id="path1158" d="m46.937 6662h473.06"/>
  <path id="path1160" d="m46.823 6662.2h473.28"/>
  <path id="path1162" d="m46.709 6662.5h473.51"/>
  <path id="path1164" d="m46.595 6662.8h473.74"/>
  <path id="path1166" d="m46.481 6663.1h473.97"/>
  <path id="path1168" d="m46.367 6663.3h474.2"/>
  <path id="path1170" d="m46.253 6663.6h474.42"/>
  <path id="path1172" d="m46.139 6663.9h474.65"/>
  <path id="path1174" d="m46.025 6664.2h474.88"/>
  <path id="path1176" d="m45.911 6664.4h475.11"/>
  <path id="path1178" d="m45.797 6664.7h475.34"/>
  <path id="path1180" d="m45.683 6665h475.56"/>
  <path id="path1182" d="m45.569 6665.3h475.79"/>
  <path id="path1184" d="m45.455 6665.5h476.02"/>
  <path id="path1186" d="m45.341 6665.8h476.25"/>
  <path id="path1188" d="m45.227 6666.1h476.48"/>
  <path id="path1190" d="m45.113 6666.4h476.7"/>
  <path id="path1192" d="m44.999 6666.6h476.93"/>
  <path id="path1194" d="m44.885 6666.9h477.16"/>
  <path id="path1196" d="m44.771 6667.2h477.39"/>
  <path id="path1198" d="m44.657 6667.5h477.61"/>
  <path id="path1200" d="m44.543 6667.7h477.84"/>
  <path id="path1202" d="m44.429 6668h478.07"/>
  <path id="path1204" d="m44.315 6668.3h478.3"/>
  <path id="path1206" d="m44.201 6668.6h478.53"/>
  <path id="path1208" d="m44.087 6668.8h478.76"/>
  <path id="path1210" d="m43.973 6669.1h478.98"/>
  <path id="path1212" d="m43.859 6669.4h479.21"/>
  <path id="path1214" d="m43.745 6669.7h479.44"/>
  <path id="path1216" d="m43.631 6670h479.67"/>
  <path id="path1218" d="m43.517 6670.2h479.9"/>
  <path id="path1220" d="m43.403 6670.5h480.12"/>
  <path id="path1222" d="m43.289 6670.8h480.35"/>
  <path id="path1224" d="m43.175 6671.1h480.58"/>
  <path id="path1226" d="m43.061 6671.3h480.81"/>
  <path id="path1228" d="m42.949 6671.6h481.03"/>
  <path id="path1230" d="m42.863 6671.9h481.2"/>
  <path id="path1232" d="m42.776 6672.2h481.38"/>
  <path id="path1234" d="m42.689 6672.4h481.55"/>
  <path id="path1236" d="m42.602 6672.7h481.72"/>
  <path id="path1238" d="m42.515 6673h481.9"/>
  <path id="path1240" d="m42.429 6673.3h482.07"/>
  <path id="path1242" d="m42.342 6673.5h482.24"/>
  <path id="path1244" d="m42.255 6673.8h482.42"/>
  <path id="path1246" d="m42.169 6674.1h482.59"/>
  <path id="path1248" d="m42.081 6674.4h482.77"/>
  <path id="path1250" d="m41.995 6674.6h482.94"/>
  <path id="path1252" d="m41.908 6674.9h483.11"/>
  <path id="path1254" d="m41.821 6675.2h483.29"/>
  <path id="path1256" d="m41.735 6675.5h483.46"/>
  <path id="path1258" d="m41.648 6675.7h483.63"/>
  <path id="path1260" d="m41.561 6676h483.81"/>
  <path id="path1262" d="m41.474 6676.3h483.98"/>
  <path id="path1264" d="m41.387 6676.6h484.16"/>
  <path id="path1266" d="m41.301 6676.8h484.33"/>
  <path id="path1268" d="m41.214 6677.1h484.5"/>
  <path id="path1270" d="m41.127 6677.4h484.68"/>
  <path id="path1272" d="m41.041 6677.7h484.85"/>
  <path id="path1274" d="m40.954 6677.9h485.02"/>
  <path id="path1276" d="m40.866 6678.2h485.2"/>
  <path id="path1278" d="m40.78 6678.5h485.37"/>
  <path id="path1280" d="m40.693 6678.8h485.54"/>
  <path id="path1282" d="m40.606 6679h485.72"/>
  <path id="path1284" d="m40.52 6679.3h485.89"/>
  <path id="path1286" d="m40.433 6679.6h486.06"/>
  <path id="path1288" d="m40.346 6679.9h486.24"/>
  <path id="path1290" d="m40.259 6680.1h486.41"/>
  <path id="path1292" d="m40.172 6680.4h486.58"/>
  <path id="path1294" d="m40.086 6680.7h486.76"/>
  <path id="path1296" d="m39.999 6681h486.93"/>
  <path id="path1298" d="m39.912 6681.2h487.1"/>
  <path id="path1300" d="m39.826 6681.5h487.28"/>
  <path id="path1302" d="m39.738 6681.8h487.45"/>
  <path id="path1304" d="m39.652 6682.1h487.62"/>
  <path id="path1306" d="m39.565 6682.3h487.8"/>
  <path id="path1308" d="m39.478 6682.6h487.97"/>
  <path id="path1310" d="m39.392 6682.9h488.14"/>
  <path id="path1312" d="m39.305 6683.2h488.32"/>
  <path id="path1314" d="m39.218 6683.4h488.49"/>
  <path id="path1316" d="m39.131 6683.7h488.67"/>
  <path id="path1318" d="m39.044 6684h488.84"/>
  <path id="path1320" d="m38.958 6684.3h489.01"/>
  <path id="path1322" d="m38.871 6684.5h489.19"/>
  <path id="path1324" d="m38.784 6684.8h489.36"/>
  <path id="path1326" d="m38.698 6685.1h489.53"/>
  <path id="path1328" d="m38.611 6685.4h489.71"/>
  <path id="path1330" d="m38.524 6685.6h489.88"/>
  <path id="path1332" d="m38.437 6685.9h490.06"/>
  <path id="path1334" d="m38.35 6686.2h490.23"/>
  <path id="path1336" d="m38.264 6686.5h490.4"/>
  <path id="path1338" d="m38.177 6686.7h490.58"/>
  <path id="path1340" d="m38.09 6687h490.75"/>
  <path id="path1342" d="m38.004 6687.3h490.92"/>
  <path id="path1344" d="m37.916 6687.6h491.1"/>
  <path id="path1346" d="m37.83 6687.8h491.27"/>
  <path id="path1348" d="m37.743 6688.1h491.44"/>
  <path id="path1350" d="m37.656 6688.4h491.62"/>
  <path id="path1352" d="m37.569 6688.7h491.79"/>
  <path id="path1354" d="m37.483 6688.9h491.96"/>
  <path id="path1356" d="m37.396 6689.2h492.14"/>
  <path id="path1358" d="m37.309 6689.5h492.31"/>
  <path id="path1360" d="m37.222 6689.8h492.48"/>
  <path id="path1362" d="m37.135 6690h492.66"/>
  <path id="path1364" d="m37.049 6690.3h492.83"/>
  <path id="path1366" d="m36.962 6690.6h493"/>
  <path id="path1368" d="m36.875 6690.9h493.18"/>
  <path id="path1370" d="m36.789 6691.1h493.35"/>
  <path id="path1372" d="m36.701 6691.4h493.53"/>
  <path id="path1374" d="m36.615 6691.7h493.7"/>
  <path id="path1376" d="m36.528 6692h493.87"/>
  <path id="path1378" d="m36.441 6692.2h494.05"/>
  <path id="path1380" d="m36.355 6692.5h494.22"/>
  <path id="path1382" d="m36.268 6692.8h494.39"/>
  <path id="path1384" d="m36.199 6693.1h494.53"/>
  <path id="path1386" d="m36.138 6693.3h494.65"/>
  <path id="path1388" d="m36.077 6693.6h494.78"/>
  <path id="path1390" d="m36.016 6693.9h494.9"/>
  <path id="path1392" d="m35.955 6694.2h495.02"/>
  <path id="path1394" d="m35.894 6694.4h495.14"/>
  <path id="path1396" d="m35.833 6694.7h495.26"/>
  <path id="path1398" d="m35.772 6695h495.38"/>
  <path id="path1400" d="m35.711 6695.3h495.51"/>
  <path id="path1402" d="m35.65 6695.5h495.63"/>
  <path id="path1404" d="m35.589 6695.8h495.75"/>
  <path id="path1406" d="m35.528 6696.1h495.87"/>
  <path id="path1408" d="m35.467 6696.4h496"/>
  <path id="path1410" d="m35.406 6696.6h496.12"/>
  <path id="path1412" d="m35.345 6696.9h496.24"/>
  <path id="path1414" d="m35.284 6697.2h496.36"/>
  <path id="path1416" d="m35.223 6697.5h496.48"/>
  <path id="path1418" d="m35.162 6697.7h496.6"/>
  <path id="path1420" d="m35.101 6698h496.73"/>
  <path id="path1422" d="m35.04 6698.3h496.85"/>
  <path id="path1424" d="m34.979 6698.6h496.97"/>
  <path id="path1426" d="m34.918 6698.8h497.09"/>
  <path id="path1428" d="m34.857 6699.1h497.22"/>
  <path id="path1430" d="m34.796 6699.4h497.34"/>
  <path id="path1432" d="m34.735 6699.7h497.46"/>
  <path id="path1434" d="m34.674 6699.9h497.58"/>
  <path id="path1436" d="m34.612 6700.2h497.7"/>
  <path id="path1438" d="m34.551 6700.5h497.83"/>
  <path id="path1440" d="m34.491 6700.8h497.95"/>
  <path id="path1442" d="m34.43 6701h498.07"/>
  <path id="path1444" d="m34.369 6701.3h498.19"/>
  <path id="path1446" d="m34.307 6701.6h498.31"/>
  <path id="path1448" d="m34.246 6701.9h498.44"/>
  <path id="path1450" d="m34.186 6702.1h498.56"/>
  <path id="path1452" d="m34.125 6702.4h498.68"/>
  <path id="path1454" d="m34.064 6702.7h498.8"/>
  <path id="path1456" d="m34.002 6703h498.92"/>
  <path id="path1458" d="m33.941 6703.2h499.05"/>
  <path id="path1460" d="m33.881 6703.5h499.17"/>
  <path id="path1462" d="m33.82 6703.8h499.29"/>
  <path id="path1464" d="m33.759 6704.1h499.41"/>
  <path id="path1466" d="m33.697 6704.4h499.53"/>
  <path id="path1468" d="m33.636 6704.6h499.66"/>
  <path id="path1470" d="m33.576 6704.9h499.78"/>
  <path id="path1472" d="m33.515 6705.2h499.9"/>
  <path id="path1474" d="m33.453 6705.5h500.02"/>
  <path id="path1476" d="m33.392 6705.7h500.14"/>
  <path id="path1478" d="m33.331 6706h500.27"/>
  <path id="path1480" d="m33.27 6706.3h500.39"/>
  <path id="path1482" d="m33.21 6706.6h500.51"/>
  <path id="path1484" d="m33.148 6706.8h500.63"/>
  <path id="path1486" d="m33.087 6707.1h500.76"/>
  <path id="path1488" d="m33.026 6707.4h500.88"/>
  <path id="path1490" d="m32.965 6707.7h501"/>
  <path id="path1492" d="m32.905 6707.9h501.12"/>
  <path id="path1494" d="m32.843 6708.2h501.24"/>
  <path id="path1496" d="m32.782 6708.5h501.36"/>
  <path id="path1498" d="m32.721 6708.8h501.49"/>
  <path id="path1500" d="m32.66 6709h501.61"/>
  <path id="path1502" d="m32.599 6709.3h501.73"/>
  <path id="path1504" d="m32.538 6709.6h501.85"/>
  <path id="path1506" d="m32.477 6709.9h501.98"/>
  <path id="path1508" d="m32.416 6710.1h502.1"/>
  <path id="path1510" d="m32.355 6710.4h502.22"/>
  <path id="path1512" d="m32.294 6710.7h502.34"/>
  <path id="path1514" d="m32.233 6711h502.46"/>
  <path id="path1516" d="m32.172 6711.2h502.58"/>
  <path id="path1518" d="m32.111 6711.5h502.71"/>
  <path id="path1520" d="m32.05 6711.8h502.83"/>
  <path id="path1522" d="m31.989 6712.1h502.95"/>
  <path id="path1524" d="m31.928 6712.3h503.07"/>
  <path id="path1526" d="m31.867 6712.6h503.2"/>
  <path id="path1528" d="m31.806 6712.9h503.32"/>
  <path id="path1530" d="m31.745 6713.2h503.44"/>
  <path id="path1532" d="m31.684 6713.4h503.56"/>
  <path id="path1534" d="m31.623 6713.7h503.68"/>
  <path id="path1536" d="m31.562 6714h503.8"/>
  <path id="path1538" d="m31.501 6714.3h503.93"/>
  <path id="path1540" d="m31.44 6714.5h504.05"/>
  <path id="path1542" d="m31.391 6714.8h504.15"/>
  <path id="path1544" d="m31.355 6715.1h504.22"/>
  <path id="path1546" d="m31.319 6715.4h504.29"/>
  <path id="path1548" d="m31.283 6715.6h504.36"/>
  <path id="path1550" d="m31.246 6715.9h504.44"/>
  <path id="path1552" d="m31.21 6716.2h504.51"/>
  <path id="path1554" d="m31.174 6716.5h504.58"/>
  <path id="path1556" d="m31.137 6716.7h504.65"/>
  <path id="path1558" d="m31.101 6717h504.73"/>
  <path id="path1560" d="m31.065 6717.3h504.8"/>
  <path id="path1562" d="m31.029 6717.6h504.87"/>
  <path id="path1564" d="m30.992 6717.8h504.94"/>
  <path id="path1566" d="m30.956 6718.1h505.02"/>
  <path id="path1568" d="m30.92 6718.4h505.09"/>
  <path id="path1570" d="m30.884 6718.7h505.16"/>
  <path id="path1572" d="m30.848 6718.9h505.23"/>
  <path id="path1574" d="m30.812 6719.2h505.3"/>
  <path id="path1576" d="m30.775 6719.5h505.38"/>
  <path id="path1578" d="m30.739 6719.8h505.45"/>
  <path id="path1580" d="m30.703 6720h505.52"/>
  <path id="path1582" d="m30.666 6720.3h505.6"/>
  <path id="path1584" d="m30.63 6720.6h505.67"/>
  <path id="path1586" d="m30.594 6720.9h505.74"/>
  <path id="path1588" d="m30.558 6721.1h505.81"/>
  <path id="path1590" d="m30.521 6721.4h505.89"/>
  <path id="path1592" d="m30.486 6721.7h505.96"/>
  <path id="path1594" d="m30.449 6722h506.03"/>
  <path id="path1596" d="m30.413 6722.2h506.1"/>
  <path id="path1598" d="m30.377 6722.5h506.18"/>
  <path id="path1600" d="m30.341 6722.8h506.25"/>
  <path id="path1602" d="m30.304 6723.1h506.32"/>
  <path id="path1604" d="m30.268 6723.3h506.39"/>
  <path id="path1606" d="m30.232 6723.6h506.46"/>
  <path id="path1608" d="m30.195 6723.9h506.54"/>
  <path id="path1610" d="m30.159 6724.2h506.61"/>
  <path id="path1612" d="m30.123 6724.4h506.68"/>
  <path id="path1614" d="m30.087 6724.7h506.76"/>
  <path id="path1616" d="m30.051 6725h506.83"/>
  <path id="path1618" d="m30.015 6725.3h506.9"/>
  <path id="path1620" d="m29.978 6725.5h506.97"/>
  <path id="path1622" d="m29.942 6725.8h507.04"/>
  <path id="path1624" d="m29.906 6726.1h507.12"/>
  <path id="path1626" d="m29.87 6726.4h507.19"/>
  <path id="path1628" d="m29.833 6726.6h507.26"/>
  <path id="path1630" d="m29.797 6726.9h507.34"/>
  <path id="path1632" d="m29.761 6727.2h507.41"/>
  <path id="path1634" d="m29.724 6727.5h507.48"/>
  <path id="path1636" d="m29.688 6727.7h507.55"/>
  <path id="path1638" d="m29.652 6728h507.62"/>
  <path id="path1640" d="m29.616 6728.3h507.7"/>
  <path id="path1642" d="m29.58 6728.6h507.77"/>
  <path id="path1644" d="m29.544 6728.8h507.84"/>
  <path id="path1646" d="m29.507 6729.1h507.91"/>
  <path id="path1648" d="m29.471 6729.4h507.99"/>
  <path id="path1650" d="m29.435 6729.7h508.06"/>
  <path id="path1652" d="m29.399 6729.9h508.13"/>
  <path id="path1654" d="m29.362 6730.2h508.2"/>
  <path id="path1656" d="m29.326 6730.5h508.28"/>
  <path id="path1658" d="m29.29 6730.8h508.35"/>
  <path id="path1660" d="m29.253 6731h508.42"/>
  <path id="path1662" d="m29.217 6731.3h508.5"/>
  <path id="path1664" d="m29.181 6731.6h508.57"/>
  <path id="path1666" d="m29.145 6731.9h508.64"/>
  <path id="path1668" d="m29.109 6732.1h508.71"/>
  <path id="path1670" d="m29.073 6732.4h508.78"/>
  <path id="path1672" d="m29.036 6732.7h508.86"/>
  <path id="path1674" d="m29 6733h508.93"/>
  <path id="path1676" d="m28.964 6733.2h509"/>
  <path id="path1678" d="m28.928 6733.5h509.07"/>
  <path id="path1680" d="m28.891 6733.8h509.15"/>
  <path id="path1682" d="m28.855 6734.1h509.22"/>
  <path id="path1684" d="m28.819 6734.3h509.29"/>
  <path id="path1686" d="m28.782 6734.6h509.36"/>
  <path id="path1688" d="m28.746 6734.9h509.44"/>
  <path id="path1690" d="m28.711 6735.2h509.51"/>
  <path id="path1692" d="m28.674 6735.4h509.58"/>
  <path id="path1694" d="m28.638 6735.7h509.65"/>
  <path id="path1696" d="m28.602 6736h509.72"/>
  <path id="path1698" d="m28.565 6736.3h509.8"/>
  <path id="path1700" d="m28.529 6736.6h509.87"/>
  <path id="path1702" d="m28.494 6736.8h509.94"/>
  <path id="path1704" d="m28.482 6737.1h509.96"/>
  <path id="path1706" d="m28.47 6737.4h509.99"/>
  <path id="path1708" d="m28.458 6737.7h510.01"/>
  <path id="path1710" d="m28.446 6737.9h510.04"/>
  <path id="path1712" d="m28.434 6738.2h510.06"/>
  <path id="path1714" d="m28.422 6738.5h510.08"/>
  <path id="path1716" d="m28.41 6738.8h510.11"/>
  <path id="path1718" d="m28.398 6739h510.13"/>
  <path id="path1720" d="m28.386 6739.3h510.16"/>
  <path id="path1722" d="m28.374 6739.6h510.18"/>
  <path id="path1724" d="m28.362 6739.9h510.2"/>
  <path id="path1726" d="m28.35 6740.1h510.23"/>
  <path id="path1728" d="m28.338 6740.4h510.25"/>
  <path id="path1730" d="m28.326 6740.7h510.28"/>
  <path id="path1732" d="m28.314 6741h510.3"/>
  <path id="path1734" d="m28.302 6741.2h510.32"/>
  <path id="path1736" d="m28.29 6741.5h510.35"/>
  <path id="path1738" d="m28.278 6741.8h510.37"/>
  <path id="path1740" d="m28.266 6742.1h510.4"/>
  <path id="path1742" d="m28.254 6742.3h510.42"/>
  <path id="path1744" d="m28.242 6742.6h510.44"/>
  <path id="path1746" d="m28.229 6742.9h510.47"/>
  <path id="path1748" d="m28.218 6743.2h510.49"/>
  <path id="path1750" d="m28.206 6743.4h510.52"/>
  <path id="path1752" d="m28.194 6743.7h510.54"/>
  <path id="path1754" d="m28.182 6744h510.56"/>
  <path id="path1756" d="m28.17 6744.3h510.59"/>
  <path id="path1758" d="m28.158 6744.5h510.61"/>
  <path id="path1760" d="m28.145 6744.8h510.64"/>
  <path id="path1762" d="m28.133 6745.1h510.66"/>
  <path id="path1764" d="m28.121 6745.4h510.69"/>
  <path id="path1766" d="m28.11 6745.6h510.71"/>
  <path id="path1768" d="m28.098 6745.9h510.73"/>
  <path id="path1770" d="m28.086 6746.2h510.76"/>
  <path id="path1772" d="m28.074 6746.5h510.78"/>
  <path id="path1774" d="m28.062 6746.7h510.8"/>
  <path id="path1776" d="m28.049 6747h510.83"/>
  <path id="path1778" d="m28.037 6747.3h510.85"/>
  <path id="path1780" d="m28.025 6747.6h510.88"/>
  <path id="path1782" d="m28.013 6747.8h510.9"/>
  <path id="path1784" d="m28.002 6748.1h510.92"/>
  <path id="path1786" d="m27.99 6748.4h510.95"/>
  <path id="path1788" d="m27.978 6748.7h510.97"/>
  <path id="path1790" d="m27.965 6748.9h511"/>
  <path id="path1792" d="m27.953 6749.2h511.02"/>
  <path id="path1794" d="m27.941 6749.5h511.05"/>
  <path id="path1796" d="m27.929 6749.8h511.07"/>
  <path id="path1798" d="m27.917 6750h511.1"/>
  <path id="path1800" d="m27.905 6750.3h511.12"/>
  <path id="path1802" d="m27.894 6750.6h511.14"/>
  <path id="path1804" d="m27.881 6750.9h511.17"/>
  <path id="path1806" d="m27.869 6751.1h511.19"/>
  <path id="path1808" d="m27.857 6751.4h511.22"/>
  <path id="path1810" d="m27.845 6751.7h511.24"/>
  <path id="path1812" d="m27.833 6752h511.26"/>
  <path id="path1814" d="m27.821 6752.2h511.29"/>
  <path id="path1816" d="m27.809 6752.5h511.31"/>
  <path id="path1818" d="m27.797 6752.8h511.34"/>
  <path id="path1820" d="m27.785 6753.1h511.36"/>
  <path id="path1822" d="m27.773 6753.3h511.38"/>
  <path id="path1824" d="m27.761 6753.6h511.41"/>
  <path id="path1826" d="m27.749 6753.9h511.43"/>
  <path id="path1828" d="m27.737 6754.2h511.46"/>
  <path id="path1830" d="m27.725 6754.4h511.48"/>
  <path id="path1832" d="m27.713 6754.7h511.5"/>
  <path id="path1834" d="m27.701 6755h511.53"/>
  <path id="path1836" d="m27.689 6755.3h511.55"/>
  <path id="path1838" d="m27.677 6755.5h511.58"/>
  <path id="path1840" d="m27.665 6755.8h511.6"/>
  <path id="path1842" d="m27.653 6756.1h511.62"/>
  <path id="path1844" d="m27.641 6756.4h511.65"/>
  <path id="path1846" d="m27.629 6756.6h511.67"/>
  <path id="path1848" d="m27.617 6756.9h511.7"/>
  <path id="path1850" d="m27.605 6757.2h511.72"/>
  <path id="path1852" d="m27.593 6757.5h511.74"/>
  <path id="path1854" d="m27.58 6757.7h511.77"/>
  <path id="path1856" d="m27.569 6758h511.79"/>
  <path id="path1858" d="m27.557 6758.3h511.82"/>
  <path id="path1860" d="m27.545 6758.6h511.84"/>
  <path id="path1862" d="m27.533 6758.8h511.86"/>
  <path id="path1864" d="m27.521 6759.1h511.89"/>
  <path id="path1866" d="m27.533 6759.4h511.86"/>
  <path id="path1868" d="m27.545 6759.7h511.84"/>
  <path id="path1870" d="m27.557 6759.9h511.82"/>
  <path id="path1872" d="m27.569 6760.2h511.79"/>
  <path id="path1874" d="m27.58 6760.5h511.77"/>
  <path id="path1876" d="m27.593 6760.8h511.74"/>
  <path id="path1878" d="m27.605 6761h511.72"/>
  <path id="path1880" d="m27.617 6761.3h511.7"/>
  <path id="path1882" d="m27.629 6761.6h511.67"/>
  <path id="path1884" d="m27.641 6761.9h511.65"/>
  <path id="path1886" d="m27.653 6762.1h511.62"/>
  <path id="path1888" d="m27.665 6762.4h511.6"/>
  <path id="path1890" d="m27.677 6762.7h511.58"/>
  <path id="path1892" d="m27.689 6763h511.55"/>
  <path id="path1894" d="m27.701 6763.2h511.53"/>
  <path id="path1896" d="m27.713 6763.5h511.5"/>
  <path id="path1898" d="m27.725 6763.8h511.48"/>
  <path id="path1900" d="m27.737 6764.1h511.46"/>
  <path id="path1902" d="m27.749 6764.3h511.43"/>
  <path id="path1904" d="m27.761 6764.6h511.41"/>
  <path id="path1906" d="m27.773 6764.9h511.38"/>
  <path id="path1908" d="m27.785 6765.2h511.36"/>
  <path id="path1910" d="m27.797 6765.4h511.34"/>
  <path id="path1912" d="m27.809 6765.7h511.31"/>
  <path id="path1914" d="m27.821 6766h511.29"/>
  <path id="path1916" d="m27.833 6766.3h511.26"/>
  <path id="path1918" d="m27.845 6766.5h511.24"/>
  <path id="path1920" d="m27.857 6766.8h511.22"/>
  <path id="path1922" d="m27.869 6767.1h511.19"/>
  <path id="path1924" d="m27.881 6767.4h511.17"/>
  <path id="path1926" d="m27.894 6767.6h511.14"/>
  <path id="path1928" d="m27.905 6767.9h511.12"/>
  <path id="path1930" d="m27.917 6768.2h511.1"/>
  <path id="path1932" d="m27.929 6768.5h511.07"/>
  <path id="path1934" d="m27.941 6768.7h511.05"/>
  <path id="path1936" d="m27.953 6769h511.02"/>
  <path id="path1938" d="m27.965 6769.3h511"/>
  <path id="path1940" d="m27.978 6769.6h510.97"/>
  <path id="path1942" d="m27.99 6769.8h510.95"/>
  <path id="path1944" d="m28.002 6770.1h510.92"/>
  <path id="path1946" d="m28.013 6770.4h510.9"/>
  <path id="path1948" d="m28.025 6770.7h510.88"/>
  <path id="path1950" d="m28.037 6771h510.85"/>
  <path id="path1952" d="m28.049 6771.2h510.83"/>
  <path id="path1954" d="m28.062 6771.5h510.8"/>
  <path id="path1956" d="m28.074 6771.8h510.78"/>
  <path id="path1958" d="m28.086 6772.1h510.76"/>
  <path id="path1960" d="m28.098 6772.3h510.73"/>
  <path id="path1962" d="m28.11 6772.6h510.71"/>
  <path id="path1964" d="m28.121 6772.9h510.69"/>
  <path id="path1966" d="m28.133 6773.2h510.66"/>
  <path id="path1968" d="m28.145 6773.4h510.64"/>
  <path id="path1970" d="m28.158 6773.7h510.61"/>
  <path id="path1972" d="m28.17 6774h510.59"/>
  <path id="path1974" d="m28.182 6774.3h510.56"/>
  <path id="path1976" d="m28.194 6774.5h510.54"/>
  <path id="path1978" d="m28.206 6774.8h510.52"/>
  <path id="path1980" d="m28.218 6775.1h510.49"/>
  <path id="path1982" d="m28.229 6775.4h510.47"/>
  <path id="path1984" d="m28.242 6775.6h510.44"/>
  <path id="path1986" d="m28.254 6775.9h510.42"/>
  <path id="path1988" d="m28.266 6776.2h510.4"/>
  <path id="path1990" d="m28.278 6776.5h510.37"/>
  <path id="path1992" d="m28.29 6776.7h510.35"/>
  <path id="path1994" d="m28.302 6777h510.32"/>
  <path id="path1996" d="m28.314 6777.3h510.3"/>
  <path id="path1998" d="m28.326 6777.6h510.28"/>
  <path id="path2000" d="m28.338 6777.8h510.25"/>
  <path id="path2002" d="m28.35 6778.1h510.23"/>
  <path id="path2004" d="m28.362 6778.4h510.2"/>
  <path id="path2006" d="m28.374 6778.7h510.18"/>
  <path id="path2008" d="m28.386 6778.9h510.16"/>
  <path id="path2010" d="m28.398 6779.2h510.13"/>
  <path id="path2012" d="m28.41 6779.5h510.11"/>
  <path id="path2014" d="m28.422 6779.8h510.08"/>
  <path id="path2016" d="m28.434 6780h510.06"/>
  <path id="path2018" d="m28.446 6780.3h510.04"/>
  <path id="path2020" d="m28.458 6780.6h510.01"/>
  <path id="path2022" d="m28.47 6780.9h509.99"/>
  <path id="path2024" d="m28.482 6781.1h509.96"/>
  <path id="path2026" d="m28.494 6781.4h509.94"/>
  <path id="path2028" d="m28.529 6781.7h509.87"/>
  <path id="path2030" d="m28.565 6782h509.8"/>
  <path id="path2032" d="m28.602 6782.2h509.72"/>
  <path id="path2034" d="m28.638 6782.5h509.65"/>
  <path id="path2036" d="m28.674 6782.8h509.58"/>
  <path id="path2038" d="m28.711 6783.1h509.51"/>
  <path id="path2040" d="m28.746 6783.3h509.44"/>
  <path id="path2042" d="m28.782 6783.6h509.36"/>
  <path id="path2044" d="m28.819 6783.9h509.29"/>
  <path id="path2046" d="m28.855 6784.2h509.22"/>
  <path id="path2048" d="m28.891 6784.4h509.15"/>
  <path id="path2050" d="m28.928 6784.7h509.07"/>
  <path id="path2052" d="m28.964 6785h509"/>
  <path id="path2054" d="m29 6785.3h508.93"/>
  <path id="path2056" d="m29.036 6785.5h508.86"/>
  <path id="path2058" d="m29.073 6785.8h508.78"/>
  <path id="path2060" d="m29.109 6786.1h508.71"/>
  <path id="path2062" d="m29.145 6786.4h508.64"/>
  <path id="path2064" d="m29.181 6786.6h508.57"/>
  <path id="path2066" d="m29.217 6786.9h508.5"/>
  <path id="path2068" d="m29.253 6787.2h508.42"/>
  <path id="path2070" d="m29.29 6787.5h508.35"/>
  <path id="path2072" d="m29.326 6787.7h508.28"/>
  <path id="path2074" d="m29.362 6788h508.2"/>
  <path id="path2076" d="m29.399 6788.3h508.13"/>
  <path id="path2078" d="m29.435 6788.6h508.06"/>
  <path id="path2080" d="m29.471 6788.8h507.99"/>
  <path id="path2082" d="m29.507 6789.1h507.91"/>
  <path id="path2084" d="m29.544 6789.4h507.84"/>
  <path id="path2086" d="m29.58 6789.7h507.77"/>
  <path id="path2088" d="m29.616 6789.9h507.7"/>
  <path id="path2090" d="m29.652 6790.2h507.62"/>
  <path id="path2092" d="m29.688 6790.5h507.55"/>
  <path id="path2094" d="m29.724 6790.8h507.48"/>
  <path id="path2096" d="m29.761 6791h507.41"/>
  <path id="path2098" d="m29.797 6791.3h507.34"/>
  <path id="path2100" d="m29.833 6791.6h507.26"/>
  <path id="path2102" d="m29.87 6791.9h507.19"/>
  <path id="path2104" d="m29.906 6792.1h507.12"/>
  <path id="path2106" d="m29.942 6792.4h507.04"/>
  <path id="path2108" d="m29.978 6792.7h506.97"/>
  <path id="path2110" d="m30.015 6793h506.9"/>
  <path id="path2112" d="m30.051 6793.2h506.83"/>
  <path id="path2114" d="m30.087 6793.5h506.76"/>
  <path id="path2116" d="m30.123 6793.8h506.68"/>
  <path id="path2118" d="m30.159 6794.1h506.61"/>
  <path id="path2120" d="m30.195 6794.3h506.54"/>
  <path id="path2122" d="m30.232 6794.6h506.46"/>
  <path id="path2124" d="m30.268 6794.9h506.39"/>
  <path id="path2126" d="m30.304 6795.2h506.32"/>
  <path id="path2128" d="m30.341 6795.4h506.25"/>
  <path id="path2130" d="m30.377 6795.7h506.18"/>
  <path id="path2132" d="m30.413 6796h506.1"/>
  <path id="path2134" d="m30.449 6796.3h506.03"/>
  <path id="path2136" d="m30.486 6796.5h505.96"/>
  <path id="path2138" d="m30.521 6796.8h505.89"/>
  <path id="path2140" d="m30.558 6797.1h505.81"/>
  <path id="path2142" d="m30.594 6797.4h505.74"/>
  <path id="path2144" d="m30.63 6797.6h505.67"/>
  <path id="path2146" d="m30.666 6797.9h505.6"/>
  <path id="path2148" d="m30.703 6798.2h505.52"/>
  <path id="path2150" d="m30.739 6798.5h505.45"/>
  <path id="path2152" d="m30.775 6798.7h505.38"/>
  <path id="path2154" d="m30.812 6799h505.3"/>
  <path id="path2156" d="m30.848 6799.3h505.23"/>
  <path id="path2158" d="m30.884 6799.6h505.16"/>
  <path id="path2160" d="m30.92 6799.8h505.09"/>
  <path id="path2162" d="m30.956 6800.1h505.02"/>
  <path id="path2164" d="m30.992 6800.4h504.94"/>
  <path id="path2166" d="m31.029 6800.7h504.87"/>
  <path id="path2168" d="m31.065 6800.9h504.8"/>
  <path id="path2170" d="m31.101 6801.2h504.73"/>
  <path id="path2172" d="m31.137 6801.5h504.65"/>
  <path id="path2174" d="m31.174 6801.8h504.58"/>
  <path id="path2176" d="m31.21 6802h504.51"/>
  <path id="path2178" d="m31.246 6802.3h504.44"/>
  <path id="path2180" d="m31.283 6802.6h504.36"/>
  <path id="path2182" d="m31.319 6802.9h504.29"/>
  <path id="path2184" d="m31.355 6803.2h504.22"/>
  <path id="path2186" d="m31.391 6803.4h504.15"/>
  <path id="path2188" d="m31.44 6803.7h504.05"/>
  <path id="path2190" d="m31.501 6804h503.93"/>
  <path id="path2192" d="m31.562 6804.3h503.8"/>
  <path id="path2194" d="m31.623 6804.5h503.68"/>
  <path id="path2196" d="m31.684 6804.8h503.56"/>
  <path id="path2198" d="m31.745 6805.1h503.44"/>
  <path id="path2200" d="m31.806 6805.4h503.32"/>
  <path id="path2202" d="m31.867 6805.6h503.2"/>
  <path id="path2204" d="m31.928 6805.9h503.07"/>
  <path id="path2206" d="m31.989 6806.2h502.95"/>
  <path id="path2208" d="m32.05 6806.5h502.83"/>
  <path id="path2210" d="m32.111 6806.7h502.71"/>
  <path id="path2212" d="m32.172 6807h502.58"/>
  <path id="path2214" d="m32.233 6807.3h502.46"/>
  <path id="path2216" d="m32.294 6807.6h502.34"/>
  <path id="path2218" d="m32.355 6807.8h502.22"/>
  <path id="path2220" d="m32.416 6808.1h502.1"/>
  <path id="path2222" d="m32.477 6808.4h501.98"/>
  <path id="path2224" d="m32.538 6808.7h501.85"/>
  <path id="path2226" d="m32.599 6808.9h501.73"/>
  <path id="path2228" d="m32.66 6809.2h501.61"/>
  <path id="path2230" d="m32.721 6809.5h501.49"/>
  <path id="path2232" d="m32.782 6809.8h501.36"/>
  <path id="path2234" d="m32.843 6810h501.24"/>
  <path id="path2236" d="m32.905 6810.3h501.12"/>
  <path id="path2238" d="m32.965 6810.6h501"/>
  <path id="path2240" d="m33.026 6810.9h500.88"/>
  <path id="path2242" d="m33.087 6811.1h500.76"/>
  <path id="path2244" d="m33.148 6811.4h500.63"/>
  <path id="path2246" d="m33.21 6811.7h500.51"/>
  <path id="path2248" d="m33.27 6812h500.39"/>
  <path id="path2250" d="m33.331 6812.2h500.27"/>
  <path id="path2252" d="m33.392 6812.5h500.14"/>
  <path id="path2254" d="m33.453 6812.8h500.02"/>
  <path id="path2256" d="m33.515 6813.1h499.9"/>
  <path id="path2258" d="m33.576 6813.3h499.78"/>
  <path id="path2260" d="m33.636 6813.6h499.66"/>
  <path id="path2262" d="m33.697 6813.9h499.53"/>
  <path id="path2264" d="m33.759 6814.2h499.41"/>
  <path id="path2266" d="m33.82 6814.4h499.29"/>
  <path id="path2268" d="m33.881 6814.7h499.17"/>
  <path id="path2270" d="m33.941 6815h499.05"/>
  <path id="path2272" d="m34.002 6815.3h498.92"/>
  <path id="path2274" d="m34.064 6815.5h498.8"/>
  <path id="path2276" d="m34.125 6815.8h498.68"/>
  <path id="path2278" d="m34.186 6816.1h498.56"/>
  <path id="path2280" d="m34.246 6816.4h498.44"/>
  <path id="path2282" d="m34.307 6816.6h498.31"/>
  <path id="path2284" d="m34.369 6816.9h498.19"/>
  <path id="path2286" d="m34.43 6817.2h498.07"/>
  <path id="path2288" d="m34.491 6817.5h497.95"/>
  <path id="path2290" d="m34.551 6817.7h497.83"/>
  <path id="path2292" d="m34.612 6818h497.7"/>
  <path id="path2294" d="m34.674 6818.3h497.58"/>
  <path id="path2296" d="m34.735 6818.6h497.46"/>
  <path id="path2298" d="m34.796 6818.8h497.34"/>
  <path id="path2300" d="m34.857 6819.1h497.22"/>
  <path id="path2302" d="m34.918 6819.4h497.09"/>
  <path id="path2304" d="m34.979 6819.7h496.97"/>
  <path id="path2306" d="m35.04 6819.9h496.85"/>
  <path id="path2308" d="m35.101 6820.2h496.73"/>
  <path id="path2310" d="m35.162 6820.5h496.6"/>
  <path id="path2312" d="m35.223 6820.8h496.48"/>
  <path id="path2314" d="m35.284 6821h496.36"/>
  <path id="path2316" d="m35.345 6821.3h496.24"/>
  <path id="path2318" d="m35.406 6821.6h496.12"/>
  <path id="path2320" d="m35.467 6821.9h496"/>
  <path id="path2322" d="m35.528 6822.1h495.87"/>
  <path id="path2324" d="m35.589 6822.4h495.75"/>
  <path id="path2326" d="m35.65 6822.7h495.63"/>
  <path id="path2328" d="m35.711 6823h495.51"/>
  <path id="path2330" d="m35.772 6823.2h495.38"/>
  <path id="path2332" d="m35.833 6823.5h495.26"/>
  <path id="path2334" d="m35.894 6823.8h495.14"/>
  <path id="path2336" d="m35.955 6824.1h495.02"/>
  <path id="path2338" d="m36.016 6824.3h494.9"/>
  <path id="path2340" d="m36.077 6824.6h494.78"/>
  <path id="path2342" d="m36.138 6824.9h494.65"/>
  <path id="path2344" d="m36.199 6825.2h494.53"/>
  <path id="path2346" d="m36.268 6825.4h494.39"/>
  <path id="path2348" d="m36.355 6825.7h494.22"/>
  <path id="path2350" d="m36.441 6826h494.05"/>
  <path id="path2352" d="m36.528 6826.3h493.87"/>
  <path id="path2354" d="m36.615 6826.5h493.7"/>
  <path id="path2356" d="m36.701 6826.8h493.53"/>
  <path id="path2358" d="m36.789 6827.1h493.35"/>
  <path id="path2360" d="m36.875 6827.4h493.18"/>
  <path id="path2362" d="m36.962 6827.6h493"/>
  <path id="path2364" d="m37.049 6827.9h492.83"/>
  <path id="path2366" d="m37.135 6828.2h492.66"/>
  <path id="path2368" d="m37.222 6828.5h492.48"/>
  <path id="path2370" d="m37.309 6828.7h492.31"/>
  <path id="path2372" d="m37.396 6829h492.14"/>
  <path id="path2374" d="m37.483 6829.3h491.96"/>
  <path id="path2376" d="m37.569 6829.6h491.79"/>
  <path id="path2378" d="m37.656 6829.8h491.62"/>
  <path id="path2380" d="m37.743 6830.1h491.44"/>
  <path id="path2382" d="m37.83 6830.4h491.27"/>
  <path id="path2384" d="m37.916 6830.7h491.1"/>
  <path id="path2386" d="m38.004 6830.9h490.92"/>
  <path id="path2388" d="m38.09 6831.2h490.75"/>
  <path id="path2390" d="m38.177 6831.5h490.58"/>
  <path id="path2392" d="m38.264 6831.8h490.4"/>
  <path id="path2394" d="m38.35 6832h490.23"/>
  <path id="path2396" d="m38.437 6832.3h490.06"/>
  <path id="path2398" d="m38.524 6832.6h489.88"/>
  <path id="path2400" d="m38.611 6832.9h489.71"/>
  <path id="path2402" d="m38.698 6833.1h489.53"/>
  <path id="path2404" d="m38.784 6833.4h489.36"/>
  <path id="path2406" d="m38.871 6833.7h489.19"/>
  <path id="path2408" d="m38.958 6834h489.01"/>
  <path id="path2410" d="m39.044 6834.2h488.84"/>
  <path id="path2412" d="m39.131 6834.5h488.67"/>
  <path id="path2414" d="m39.218 6834.8h488.49"/>
  <path id="path2416" d="m39.305 6835.1h488.32"/>
  <path id="path2418" d="m39.392 6835.4h488.14"/>
  <path id="path2420" d="m39.478 6835.6h487.97"/>
  <path id="path2422" d="m39.565 6835.9h487.8"/>
  <path id="path2424" d="m39.652 6836.2h487.62"/>
  <path id="path2426" d="m39.738 6836.5h487.45"/>
  <path id="path2428" d="m39.826 6836.7h487.28"/>
  <path id="path2430" d="m39.912 6837h487.1"/>
  <path id="path2432" d="m39.999 6837.3h486.93"/>
  <path id="path2434" d="m40.086 6837.6h486.76"/>
  <path id="path2436" d="m40.172 6837.8h486.58"/>
  <path id="path2438" d="m40.259 6838.1h486.41"/>
  <path id="path2440" d="m40.346 6838.4h486.24"/>
  <path id="path2442" d="m40.433 6838.7h486.06"/>
  <path id="path2444" d="m40.52 6838.9h485.89"/>
  <path id="path2446" d="m40.606 6839.2h485.72"/>
  <path id="path2448" d="m40.693 6839.5h485.54"/>
  <path id="path2450" d="m40.78 6839.8h485.37"/>
  <path id="path2452" d="m40.866 6840h485.2"/>
  <path id="path2454" d="m40.954 6840.3h485.02"/>
  <path id="path2456" d="m41.041 6840.6h484.85"/>
  <path id="path2458" d="m41.127 6840.9h484.68"/>
  <path id="path2460" d="m41.214 6841.1h484.5"/>
  <path id="path2462" d="m41.301 6841.4h484.33"/>
  <path id="path2464" d="m41.387 6841.7h484.16"/>
  <path id="path2466" d="m41.474 6842h483.98"/>
  <path id="path2468" d="m41.561 6842.2h483.81"/>
  <path id="path2470" d="m41.648 6842.5h483.63"/>
  <path id="path2472" d="m41.735 6842.8h483.46"/>
  <path id="path2474" d="m41.821 6843.1h483.29"/>
  <path id="path2476" d="m41.908 6843.3h483.11"/>
  <path id="path2478" d="m41.995 6843.6h482.94"/>
  <path id="path2480" d="m42.081 6843.9h482.77"/>
  <path id="path2482" d="m42.169 6844.2h482.59"/>
  <path id="path2484" d="m42.255 6844.4h482.42"/>
  <path id="path2486" d="m42.342 6844.7h482.24"/>
  <path id="path2488" d="m42.429 6845h482.07"/>
  <path id="path2490" d="m42.515 6845.3h481.9"/>
  <path id="path2492" d="m42.602 6845.5h481.72"/>
  <path id="path2494" d="m42.689 6845.8h481.55"/>
  <path id="path2496" d="m42.776 6846.1h481.38"/>
  <path id="path2498" d="m42.863 6846.4h481.2"/>
  <path id="path2500" d="m42.949 6846.6h481.03"/>
  <path id="path2502" d="m43.061 6846.9h480.81"/>
  <path id="path2504" d="m43.175 6847.2h480.58"/>
  <path id="path2506" d="m43.289 6847.5h480.35"/>
  <path id="path2508" d="m43.403 6847.7h480.12"/>
  <path id="path2510" d="m43.517 6848h479.9"/>
  <path id="path2512" d="m43.631 6848.3h479.67"/>
  <path id="path2514" d="m43.745 6848.6h479.44"/>
  <path id="path2516" d="m43.859 6848.8h479.21"/>
  <path id="path2518" d="m43.973 6849.1h478.98"/>
  <path id="path2520" d="m44.087 6849.4h478.76"/>
  <path id="path2522" d="m44.201 6849.7h478.53"/>
  <path id="path2524" d="m44.315 6849.9h478.3"/>
  <path id="path2526" d="m44.429 6850.2h478.07"/>
  <path id="path2528" d="m44.543 6850.5h477.84"/>
  <path id="path2530" d="m44.657 6850.8h477.61"/>
  <path id="path2532" d="m44.771 6851h477.39"/>
  <path id="path2534" d="m44.885 6851.3h477.16"/>
  <path id="path2536" d="m44.999 6851.6h476.93"/>
  <path id="path2538" d="m45.113 6851.9h476.7"/>
  <path id="path2540" d="m45.227 6852.1h476.48"/>
  <path id="path2542" d="m45.341 6852.4h476.25"/>
  <path id="path2544" d="m45.455 6852.7h476.02"/>
  <path id="path2546" d="m45.569 6853h475.79"/>
  <path id="path2548" d="m45.683 6853.2h475.56"/>
  <path id="path2550" d="m45.797 6853.5h475.34"/>
  <path id="path2552" d="m45.911 6853.8h475.11"/>
  <path id="path2554" d="m46.025 6854.1h474.88"/>
  <path id="path2556" d="m46.139 6854.3h474.65"/>
  <path id="path2558" d="m46.253 6854.6h474.42"/>
  <path id="path2560" d="m46.367 6854.9h474.2"/>
  <path id="path2562" d="m46.481 6855.2h473.97"/>
  <path id="path2564" d="m46.595 6855.4h473.74"/>
  <path id="path2566" d="m46.709 6855.7h473.51"/>
  <path id="path2568" d="m46.823 6856h473.28"/>
  <path id="path2570" d="m46.937 6856.3h473.06"/>
  <path id="path2572" d="m47.051 6856.5h472.83"/>
  <path id="path2574" d="m47.165 6856.8h472.6"/>
  <path id="path2576" d="m47.279 6857.1h472.37"/>
  <path id="path2578" d="m47.393 6857.4h472.14"/>
  <path id="path2580" d="m47.507 6857.6h471.92"/>
  <path id="path2582" d="m47.621 6857.9h471.69"/>
  <path id="path2584" d="m47.735 6858.2h471.46"/>
  <path id="path2586" d="m47.849 6858.5h471.23"/>
  <path id="path2588" d="m47.963 6858.7h471"/>
  <path id="path2590" d="m48.077 6859h470.78"/>
  <path id="path2592" d="m48.191 6859.3h470.55"/>
  <path id="path2594" d="m48.305 6859.6h470.32"/>
  <path id="path2596" d="m48.419 6859.8h470.09"/>
  <path id="path2598" d="m48.533 6860.1h469.86"/>
  <path id="path2600" d="m48.647 6860.4h469.64"/>
  <path id="path2602" d="m48.761 6860.7h469.41"/>
  <path id="path2604" d="m48.875 6860.9h469.18"/>
  <path id="path2606" d="m48.989 6861.2h468.95"/>
  <path id="path2608" d="m49.103 6861.5h468.72"/>
  <path id="path2610" d="m49.217 6861.8h468.5"/>
  <path id="path2612" d="m49.331 6862h468.27"/>
  <path id="path2614" d="m49.445 6862.3h468.04"/>
  <path id="path2616" d="m49.559 6862.6h467.81"/>
  <path id="path2618" d="m49.673 6862.9h467.58"/>
  <path id="path2620" d="m49.787 6863.1h467.36"/>
  <path id="path2622" d="m49.901 6863.4h467.13"/>
  <path id="path2624" d="m50.015 6863.7h466.9"/>
  <path id="path2626" d="m50.129 6864h466.67"/>
  <path id="path2628" d="m50.243 6864.2h466.44"/>
  <path id="path2630" d="m50.357 6864.5h466.22"/>
  <path id="path2632" d="m50.471 6864.8h465.99"/>
  <path id="path2634" d="m50.585 6865.1h465.76"/>
  <path id="path2636" d="m50.699 6865.3h465.53"/>
  <path id="path2638" d="m50.813 6865.6h465.3"/>
  <path id="path2640" d="m50.927 6865.9h465.08"/>
  <path id="path2642" d="m51.04 6866.2h464.85"/>
  <path id="path2644" d="m51.155 6866.4h464.62"/>
  <path id="path2646" d="m51.269 6866.7h464.39"/>
  <path id="path2648" d="m51.382 6867h464.16"/>
  <path id="path2650" d="m51.497 6867.3h463.94"/>
  <path id="path2652" d="m51.639 6867.5h463.65"/>
  <path id="path2654" d="m51.782 6867.8h463.36"/>
  <path id="path2656" d="m51.925 6868.1h463.08"/>
  <path id="path2658" d="m52.069 6868.4h462.79"/>
  <path id="path2660" d="m52.212 6868.6h462.5"/>
  <path id="path2662" d="m52.355 6868.9h462.22"/>
  <path id="path2664" d="m52.498 6869.2h461.93"/>
  <path id="path2666" d="m52.641 6869.5h461.65"/>
  <path id="path2668" d="m52.785 6869.8h461.36"/>
  <path id="path2670" d="m52.928 6870h461.07"/>
  <path id="path2672" d="m53.071 6870.3h460.79"/>
  <path id="path2674" d="m53.215 6870.6h460.5"/>
  <path id="path2676" d="m53.358 6870.9h460.21"/>
  <path id="path2678" d="m53.501 6871.1h459.93"/>
  <path id="path2680" d="m53.645 6871.4h459.64"/>
  <path id="path2682" d="m53.788 6871.7h459.35"/>
  <path id="path2684" d="m53.931 6872h459.07"/>
  <path id="path2686" d="m54.075 6872.2h458.78"/>
  <path id="path2688" d="m54.218 6872.5h458.49"/>
  <path id="path2690" d="m54.361 6872.8h458.21"/>
  <path id="path2692" d="m54.504 6873.1h457.92"/>
  <path id="path2694" d="m54.648 6873.3h457.63"/>
  <path id="path2696" d="m54.791 6873.6h457.35"/>
  <path id="path2698" d="m54.934 6873.9h457.06"/>
  <path id="path2700" d="m55.077 6874.2h456.78"/>
  <path id="path2702" d="m55.221 6874.4h456.49"/>
  <path id="path2704" d="m55.364 6874.7h456.2"/>
  <path id="path2706" d="m55.507 6875h455.92"/>
  <path id="path2708" d="m55.65 6875.3h455.63"/>
  <path id="path2710" d="m55.793 6875.5h455.34"/>
  <path id="path2712" d="m55.937 6875.8h455.06"/>
  <path id="path2714" d="m56.08 6876.1h454.77"/>
  <path id="path2716" d="m56.223 6876.4h454.48"/>
  <path id="path2718" d="m56.366 6876.6h454.2"/>
  <path id="path2720" d="m56.51 6876.9h453.91"/>
  <path id="path2722" d="m56.653 6877.2h453.62"/>
  <path id="path2724" d="m56.796 6877.5h453.34"/>
  <path id="path2726" d="m56.94 6877.7h453.05"/>
  <path id="path2728" d="m57.083 6878h452.76"/>
  <path id="path2730" d="m57.226 6878.3h452.48"/>
  <path id="path2732" d="m57.37 6878.6h452.19"/>
  <path id="path2734" d="m57.513 6878.8h451.9"/>
  <path id="path2736" d="m57.656 6879.1h451.62"/>
  <path id="path2738" d="m57.8 6879.4h451.33"/>
  <path id="path2740" d="m57.943 6879.7h451.04"/>
  <path id="path2742" d="m58.086 6879.9h450.76"/>
  <path id="path2744" d="m58.229 6880.2h450.47"/>
  <path id="path2746" d="m58.373 6880.5h450.18"/>
  <path id="path2748" d="m58.516 6880.8h449.9"/>
  <path id="path2750" d="m58.659 6881h449.61"/>
  <path id="path2752" d="m58.802 6881.3h449.32"/>
  <path id="path2754" d="m58.945 6881.6h449.04"/>
  <path id="path2756" d="m59.089 6881.9h448.75"/>
  <path id="path2758" d="m59.232 6882.1h448.46"/>
  <path id="path2760" d="m59.375 6882.4h448.18"/>
  <path id="path2762" d="m59.518 6882.7h447.89"/>
  <path id="path2764" d="m59.662 6883h447.6"/>
  <path id="path2766" d="m59.805 6883.2h447.32"/>
  <path id="path2768" d="m59.948 6883.5h447.03"/>
  <path id="path2770" d="m60.091 6883.8h446.75"/>
  <path id="path2772" d="m60.235 6884.1h446.46"/>
  <path id="path2774" d="m60.378 6884.3h446.17"/>
  <path id="path2776" d="m60.521 6884.6h445.89"/>
  <path id="path2778" d="m60.665 6884.9h445.6"/>
  <path id="path2780" d="m60.808 6885.2h445.31"/>
  <path id="path2782" d="m60.951 6885.4h445.03"/>
  <path id="path2784" d="m61.095 6885.7h444.74"/>
  <path id="path2786" d="m61.238 6886h444.45"/>
  <path id="path2788" d="m61.381 6886.3h444.17"/>
  <path id="path2790" d="m61.525 6886.5h443.88"/>
  <path id="path2792" d="m61.668 6886.8h443.59"/>
  <path id="path2794" d="m61.811 6887.1h443.31"/>
  <path id="path2796" d="m61.986 6887.4h442.96"/>
  <path id="path2798" d="m62.162 6887.6h442.6"/>
  <path id="path2800" d="m62.337 6887.9h442.26"/>
  <path id="path2802" d="m62.512 6888.2h441.9"/>
  <path id="path2804" d="m62.688 6888.5h441.55"/>
  <path id="path2806" d="m62.863 6888.7h441.2"/>
  <path id="path2808" d="m63.038 6889h440.85"/>
  <path id="path2810" d="m63.214 6889.3h440.5"/>
  <path id="path2812" d="m63.388 6889.6h440.15"/>
  <path id="path2814" d="m63.564 6889.8h439.8"/>
  <path id="path2816" d="m63.739 6890.1h439.45"/>
  <path id="path2818" d="m63.915 6890.4h439.1"/>
  <path id="path2820" d="m64.09 6890.7h438.75"/>
  <path id="path2822" d="m64.265 6890.9h438.4"/>
  <path id="path2824" d="m64.441 6891.2h438.05"/>
  <path id="path2826" d="m64.616 6891.5h437.7"/>
  <path id="path2828" d="m64.791 6891.8h437.35"/>
  <path id="path2830" d="m64.967 6892h437"/>
  <path id="path2832" d="m65.142 6892.3h436.64"/>
  <path id="path2834" d="m65.317 6892.6h436.29"/>
  <path id="path2836" d="m65.493 6892.9h435.94"/>
  <path id="path2838" d="m65.668 6893.1h435.59"/>
  <path id="path2840" d="m65.844 6893.4h435.24"/>
  <path id="path2842" d="m66.019 6893.7h434.89"/>
  <path id="path2844" d="m66.194 6894h434.54"/>
  <path id="path2846" d="m66.369 6894.2h434.19"/>
  <path id="path2848" d="m66.544 6894.5h433.84"/>
  <path id="path2850" d="m66.72 6894.8h433.49"/>
  <path id="path2852" d="m66.895 6895.1h433.14"/>
  <path id="path2854" d="m67.07 6895.3h432.79"/>
  <path id="path2856" d="m67.246 6895.6h432.44"/>
  <path id="path2858" d="m67.421 6895.9h432.09"/>
  <path id="path2860" d="m67.596 6896.2h431.74"/>
  <path id="path2862" d="m67.772 6896.4h431.38"/>
  <path id="path2864" d="m67.947 6896.7h431.04"/>
  <path id="path2866" d="m68.123 6897h430.68"/>
  <path id="path2868" d="m68.298 6897.3h430.33"/>
  <path id="path2870" d="m68.473 6897.5h429.98"/>
  <path id="path2872" d="m68.649 6897.8h429.63"/>
  <path id="path2874" d="m68.824 6898.1h429.28"/>
  <path id="path2876" d="m68.999 6898.4h428.93"/>
  <path id="path2878" d="m69.175 6898.6h428.58"/>
  <path id="path2880" d="m69.349 6898.9h428.23"/>
  <path id="path2882" d="m69.525 6899.2h427.88"/>
  <path id="path2884" d="m69.7 6899.5h427.53"/>
  <path id="path2886" d="m69.876 6899.7h427.18"/>
  <path id="path2888" d="m70.051 6900h426.83"/>
  <path id="path2890" d="m70.226 6900.3h426.48"/>
  <path id="path2892" d="m70.402 6900.6h426.12"/>
  <path id="path2894" d="m70.577 6900.8h425.78"/>
  <path id="path2896" d="m70.752 6901.1h425.42"/>
  <path id="path2898" d="m70.928 6901.4h425.07"/>
  <path id="path2900" d="m71.103 6901.7h424.72"/>
  <path id="path2902" d="m71.278 6902h424.37"/>
  <path id="path2904" d="m71.454 6902.2h424.02"/>
  <path id="path2906" d="m71.629 6902.5h423.67"/>
  <path id="path2908" d="m71.805 6902.8h423.32"/>
  <path id="path2910" d="m71.98 6903.1h422.97"/>
  <path id="path2912" d="m72.155 6903.3h422.62"/>
  <path id="path2914" d="m72.33 6903.6h422.27"/>
  <path id="path2916" d="m72.505 6903.9h421.92"/>
  <path id="path2918" d="m72.681 6904.2h421.57"/>
  <path id="path2920" d="m72.856 6904.4h421.22"/>
  <path id="path2922" d="m73.031 6904.7h420.87"/>
  <path id="path2924" d="m73.207 6905h420.52"/>
  <path id="path2926" d="m73.382 6905.3h420.16"/>
  <path id="path2928" d="m73.558 6905.5h419.81"/>
  <path id="path2930" d="m73.733 6905.8h419.46"/>
  <path id="path2932" d="m73.929 6906.1h419.07"/>
  <path id="path2934" d="m74.14 6906.4h418.65"/>
  <path id="path2936" d="m74.351 6906.6h418.23"/>
  <path id="path2938" d="m74.562 6906.9h417.8"/>
  <path id="path2940" d="m74.774 6907.2h417.38"/>
  <path id="path2942" d="m74.985 6907.5h416.96"/>
  <path id="path2944" d="m75.196 6907.7h416.54"/>
  <path id="path2946" d="m75.407 6908h416.12"/>
  <path id="path2948" d="m75.618 6908.3h415.69"/>
  <path id="path2950" d="m75.829 6908.6h415.27"/>
  <path id="path2952" d="m76.041 6908.8h414.85"/>
  <path id="path2954" d="m76.252 6909.1h414.42"/>
  <path id="path2956" d="m76.463 6909.4h414"/>
  <path id="path2958" d="m76.674 6909.7h413.58"/>
  <path id="path2960" d="m76.885 6909.9h413.16"/>
  <path id="path2962" d="m77.096 6910.2h412.74"/>
  <path id="path2964" d="m77.307 6910.5h412.31"/>
  <path id="path2966" d="m77.519 6910.8h411.89"/>
  <path id="path2968" d="m77.73 6911h411.47"/>
  <path id="path2970" d="m77.941 6911.3h411.05"/>
  <path id="path2972" d="m78.152 6911.6h410.62"/>
  <path id="path2974" d="m78.364 6911.9h410.2"/>
  <path id="path2976" d="m78.575 6912.1h409.78"/>
  <path id="path2978" d="m78.786 6912.4h409.36"/>
  <path id="path2980" d="m78.997 6912.7h408.94"/>
  <path id="path2982" d="m79.208 6913h408.51"/>
  <path id="path2984" d="m79.419 6913.2h408.09"/>
  <path id="path2986" d="m79.63 6913.5h407.67"/>
  <path id="path2988" d="m79.842 6913.8h407.24"/>
  <path id="path2990" d="m80.053 6914.1h406.82"/>
  <path id="path2992" d="m80.264 6914.3h406.4"/>
  <path id="path2994" d="m80.475 6914.6h405.98"/>
  <path id="path2996" d="m80.686 6914.9h405.56"/>
  <path id="path2998" d="m80.897 6915.2h405.13"/>
  <path id="path3000" d="m81.108 6915.4h404.71"/>
  <path id="path3002" d="m81.32 6915.7h404.29"/>
  <path id="path3004" d="m81.531 6916h403.87"/>
  <path id="path3006" d="m81.742 6916.3h403.44"/>
  <path id="path3008" d="m81.954 6916.5h403.02"/>
  <path id="path3010" d="m82.165 6916.8h402.6"/>
  <path id="path3012" d="m82.376 6917.1h402.18"/>
  <path id="path3014" d="m82.586 6917.4h401.76"/>
  <path id="path3016" d="m82.798 6917.6h401.33"/>
  <path id="path3018" d="m83.009 6917.9h400.91"/>
  <path id="path3020" d="m83.22 6918.2h400.49"/>
  <path id="path3022" d="m83.432 6918.5h400.06"/>
  <path id="path3024" d="m83.643 6918.7h399.64"/>
  <path id="path3026" d="m83.854 6919h399.22"/>
  <path id="path3028" d="m84.065 6919.3h398.8"/>
  <path id="path3030" d="m84.276 6919.6h398.38"/>
  <path id="path3032" d="m84.487 6919.8h397.96"/>
  <path id="path3034" d="m84.698 6920.1h397.53"/>
  <path id="path3036" d="m84.91 6920.4h397.11"/>
  <path id="path3038" d="m85.121 6920.7h396.69"/>
  <path id="path3040" d="m85.332 6920.9h396.26"/>
  <path id="path3042" d="m85.543 6921.2h395.84"/>
  <path id="path3044" d="m85.754 6921.5h395.42"/>
  <path id="path3046" d="m85.965 6921.8h395"/>
  <path id="path3048" d="m86.176 6922h394.58"/>
  <path id="path3050" d="m86.388 6922.3h394.15"/>
  <path id="path3052" d="m86.599 6922.6h393.73"/>
  <path id="path3054" d="m86.81 6922.9h393.31"/>
  <path id="path3056" d="m87.021 6923.1h392.89"/>
  <path id="path3058" d="m87.233 6923.4h392.46"/>
  <path id="path3060" d="m87.452 6923.7h392.02"/>
  <path id="path3062" d="m87.704 6924h391.52"/>
  <path id="path3064" d="m87.956 6924.2h391.02"/>
  <path id="path3066" d="m88.209 6924.5h390.51"/>
  <path id="path3068" d="m88.461 6924.8h390.01"/>
  <path id="path3070" d="m88.713 6925.1h389.5"/>
  <path id="path3072" d="m88.965 6925.3h389"/>
  <path id="path3074" d="m89.217 6925.6h388.49"/>
  <path id="path3076" d="m89.469 6925.9h387.99"/>
  <path id="path3078" d="m89.722 6926.2h387.48"/>
  <path id="path3080" d="m89.974 6926.4h386.98"/>
  <path id="path3082" d="m90.226 6926.7h386.48"/>
  <path id="path3084" d="m90.479 6927h385.97"/>
  <path id="path3086" d="m90.731 6927.3h385.47"/>
  <path id="path3088" d="m90.982 6927.5h384.96"/>
  <path id="path3090" d="m91.235 6927.8h384.46"/>
  <path id="path3092" d="m91.487 6928.1h383.96"/>
  <path id="path3094" d="m91.739 6928.4h383.45"/>
  <path id="path3096" d="m91.992 6928.6h382.94"/>
  <path id="path3098" d="m92.244 6928.9h382.44"/>
  <path id="path3100" d="m92.496 6929.2h381.94"/>
  <path id="path3102" d="m92.748 6929.5h381.43"/>
  <path id="path3104" d="m93 6929.7h380.93"/>
  <path id="path3106" d="m93.252 6930h380.42"/>
  <path id="path3108" d="m93.505 6930.3h379.92"/>
  <path id="path3110" d="m93.757 6930.6h379.42"/>
  <path id="path3112" d="m94.009 6930.8h378.91"/>
  <path id="path3114" d="m94.261 6931.1h378.41"/>
  <path id="path3116" d="m94.513 6931.4h377.9"/>
  <path id="path3118" d="m94.765 6931.7h377.4"/>
  <path id="path3120" d="m95.018 6931.9h376.89"/>
  <path id="path3122" d="m95.27 6932.2h376.39"/>
  <path id="path3124" d="m95.522 6932.5h375.88"/>
  <path id="path3126" d="m95.774 6932.8h375.38"/>
  <path id="path3128" d="m96.026 6933h374.88"/>
  <path id="path3130" d="m96.278 6933.3h374.37"/>
  <path id="path3132" d="m96.531 6933.6h373.87"/>
  <path id="path3134" d="m96.783 6933.9h373.36"/>
  <path id="path3136" d="m97.035 6934.2h372.86"/>
  <path id="path3138" d="m97.288 6934.4h372.35"/>
  <path id="path3140" d="m97.54 6934.7h371.85"/>
  <path id="path3142" d="m97.791 6935h371.35"/>
  <path id="path3144" d="m98.044 6935.3h370.84"/>
  <path id="path3146" d="m98.296 6935.5h370.34"/>
  <path id="path3148" d="m98.548 6935.8h369.83"/>
  <path id="path3150" d="m98.8 6936.1h369.33"/>
  <path id="path3152" d="m99.053 6936.4h368.82"/>
  <path id="path3154" d="m99.305 6936.6h368.32"/>
  <path id="path3156" d="m99.557 6936.9h367.82"/>
  <path id="path3158" d="m99.809 6937.2h367.31"/>
  <path id="path3160" d="m100.06 6937.5h366.81"/>
  <path id="path3162" d="m100.31 6937.7h366.3"/>
  <path id="path3164" d="m100.57 6938h365.8"/>
  <path id="path3166" d="m100.82 6938.3h365.29"/>
  <path id="path3168" d="m101.07 6938.6h364.79"/>
  <path id="path3170" d="m101.32 6938.8h364.28"/>
  <path id="path3172" d="m101.57 6939.1h363.78"/>
  <path id="path3174" d="m101.83 6939.4h363.28"/>
  <path id="path3176" d="m102.08 6939.7h362.77"/>
  <path id="path3178" d="m102.33 6939.9h362.27"/>
  <path id="path3180" d="m102.6 6940.2h361.72"/>
  <path id="path3182" d="m102.9 6940.5h361.12"/>
  <path id="path3184" d="m103.2 6940.8h360.52"/>
  <path id="path3186" d="m103.5 6941h359.92"/>
  <path id="path3188" d="m103.8 6941.3h359.32"/>
  <path id="path3190" d="m104.1 6941.6h358.72"/>
  <path id="path3192" d="m104.4 6941.9h358.12"/>
  <path id="path3194" d="m104.7 6942.1h357.52"/>
  <path id="path3196" d="m105 6942.4h356.92"/>
  <path id="path3198" d="m105.3 6942.7h356.32"/>
  <path id="path3200" d="m105.6 6943h355.72"/>
  <path id="path3202" d="m105.9 6943.2h355.12"/>
  <path id="path3204" d="m106.21 6943.5h354.52"/>
  <path id="path3206" d="m106.51 6943.8h353.92"/>
  <path id="path3208" d="m106.81 6944.1h353.32"/>
  <path id="path3210" d="m107.11 6944.3h352.72"/>
  <path id="path3212" d="m107.41 6944.6h352.12"/>
  <path id="path3214" d="m107.71 6944.9h351.51"/>
  <path id="path3216" d="m108.01 6945.2h350.91"/>
  <path id="path3218" d="m108.31 6945.4h350.31"/>
  <path id="path3220" d="m108.61 6945.7h349.71"/>
  <path id="path3222" d="m108.91 6946h349.11"/>
  <path id="path3224" d="m109.21 6946.3h348.51"/>
  <path id="path3226" d="m109.51 6946.5h347.91"/>
  <path id="path3228" d="m109.81 6946.8h347.31"/>
  <path id="path3230" d="m110.11 6947.1h346.71"/>
  <path id="path3232" d="m110.41 6947.4h346.11"/>
  <path id="path3234" d="m110.71 6947.6h345.51"/>
  <path id="path3236" d="m111.01 6947.9h344.91"/>
  <path id="path3238" d="m111.31 6948.2h344.31"/>
  <path id="path3240" d="m111.61 6948.5h343.7"/>
  <path id="path3242" d="m111.91 6948.7h343.1"/>
  <path id="path3244" d="m112.21 6949h342.5"/>
  <path id="path3246" d="m112.51 6949.3h341.9"/>
  <path id="path3248" d="m112.81 6949.6h341.3"/>
  <path id="path3250" d="m113.11 6949.8h340.7"/>
  <path id="path3252" d="m113.41 6950.1h340.1"/>
  <path id="path3254" d="m113.71 6950.4h339.5"/>
  <path id="path3256" d="m114.01 6950.7h338.9"/>
  <path id="path3258" d="m114.32 6950.9h338.3"/>
  <path id="path3260" d="m114.62 6951.2h337.7"/>
  <path id="path3262" d="m114.92 6951.5h337.1"/>
  <path id="path3264" d="m115.22 6951.8h336.5"/>
  <path id="path3266" d="m115.52 6952h335.9"/>
  <path id="path3268" d="m115.82 6952.3h335.3"/>
  <path id="path3270" d="m116.12 6952.6h334.7"/>
  <path id="path3272" d="m116.42 6952.9h334.1"/>
  <path id="path3274" d="m116.72 6953.1h333.49"/>
  <path id="path3276" d="m117.02 6953.4h332.89"/>
  <path id="path3278" d="m117.32 6953.7h332.29"/>
  <path id="path3280" d="m117.62 6954h331.69"/>
  <path id="path3282" d="m117.92 6954.2h331.09"/>
  <path id="path3284" d="m118.22 6954.5h330.49"/>
  <path id="path3286" d="m118.52 6954.8h329.89"/>
  <path id="path3288" d="m118.82 6955.1h329.29"/>
  <path id="path3290" d="m119.15 6955.3h328.62"/>
  <path id="path3292" d="m119.51 6955.6h327.9"/>
  <path id="path3294" d="m119.87 6955.9h327.19"/>
  <path id="path3296" d="m120.23 6956.2h326.47"/>
  <path id="path3298" d="m120.59 6956.4h325.75"/>
  <path id="path3300" d="m120.95 6956.7h325.03"/>
  <path id="path3302" d="m121.31 6957h324.32"/>
  <path id="path3304" d="m121.66 6957.3h323.6"/>
  <path id="path3306" d="m122.02 6957.5h322.88"/>
  <path id="path3308" d="m122.38 6957.8h322.16"/>
  <path id="path3310" d="m122.74 6958.1h321.45"/>
  <path id="path3312" d="m123.1 6958.4h320.73"/>
  <path id="path3314" d="m123.46 6958.6h320.01"/>
  <path id="path3316" d="m123.82 6958.9h319.3"/>
  <path id="path3318" d="m124.18 6959.2h318.58"/>
  <path id="path3320" d="m124.53 6959.5h317.86"/>
  <path id="path3322" d="m124.89 6959.7h317.14"/>
  <path id="path3324" d="m125.25 6960h316.43"/>
  <path id="path3326" d="m125.61 6960.3h315.71"/>
  <path id="path3328" d="m125.97 6960.6h314.99"/>
  <path id="path3330" d="m126.33 6960.8h314.27"/>
  <path id="path3332" d="m126.69 6961.1h313.56"/>
  <path id="path3334" d="m127.04 6961.4h312.84"/>
  <path id="path3336" d="m127.4 6961.7h312.12"/>
  <path id="path3338" d="m127.76 6961.9h311.4"/>
  <path id="path3340" d="m128.12 6962.2h310.69"/>
  <path id="path3342" d="m128.48 6962.5h309.97"/>
  <path id="path3344" d="m128.84 6962.8h309.25"/>
  <path id="path3346" d="m129.2 6963h308.54"/>
  <path id="path3348" d="m129.56 6963.3h307.82"/>
  <path id="path3350" d="m129.91 6963.6h307.1"/>
  <path id="path3352" d="m130.27 6963.9h306.38"/>
  <path id="path3354" d="m130.63 6964.1h305.66"/>
  <path id="path3356" d="m130.99 6964.4h304.95"/>
  <path id="path3358" d="m131.35 6964.7h304.23"/>
  <path id="path3360" d="m131.71 6965h303.51"/>
  <path id="path3362" d="m132.07 6965.2h302.8"/>
  <path id="path3364" d="m132.42 6965.5h302.08"/>
  <path id="path3366" d="m132.78 6965.8h301.36"/>
  <path id="path3368" d="m133.14 6966.1h300.64"/>
  <path id="path3370" d="m133.5 6966.3h299.93"/>
  <path id="path3372" d="m133.86 6966.6h299.21"/>
  <path id="path3374" d="m134.22 6966.9h298.49"/>
  <path id="path3376" d="m134.58 6967.2h297.78"/>
  <path id="path3378" d="m134.94 6967.4h297.06"/>
  <path id="path3380" d="m135.29 6967.7h296.34"/>
  <path id="path3382" d="m135.65 6968h295.62"/>
  <path id="path3384" d="m136.01 6968.3h294.9"/>
  <path id="path3386" d="m136.37 6968.6h294.19"/>
  <path id="path3388" d="m136.74 6968.8h293.44"/>
  <path id="path3390" d="m137.18 6969.1h292.58"/>
  <path id="path3392" d="m137.61 6969.4h291.72"/>
  <path id="path3394" d="m138.04 6969.7h290.85"/>
  <path id="path3396" d="m138.47 6969.9h289.99"/>
  <path id="path3398" d="m138.9 6970.2h289.12"/>
  <path id="path3400" d="m139.34 6970.5h288.26"/>
  <path id="path3402" d="m139.77 6970.8h287.4"/>
  <path id="path3404" d="m140.2 6971h286.53"/>
  <path id="path3406" d="m140.63 6971.3h285.67"/>
  <path id="path3408" d="m141.06 6971.6h284.8"/>
  <path id="path3410" d="m141.5 6971.9h283.94"/>
  <path id="path3412" d="m141.93 6972.1h283.08"/>
  <path id="path3414" d="m142.36 6972.4h282.21"/>
  <path id="path3416" d="m142.79 6972.7h281.35"/>
  <path id="path3418" d="m143.22 6973h280.48"/>
  <path id="path3420" d="m143.65 6973.2h279.62"/>
  <path id="path3422" d="m144.09 6973.5h278.76"/>
  <path id="path3424" d="m144.52 6973.8h277.89"/>
  <path id="path3426" d="m144.95 6974.1h277.03"/>
  <path id="path3428" d="m145.38 6974.3h276.16"/>
  <path id="path3430" d="m145.82 6974.6h275.3"/>
  <path id="path3432" d="m146.25 6974.9h274.44"/>
  <path id="path3434" d="m146.68 6975.2h273.57"/>
  <path id="path3436" d="m147.11 6975.4h272.71"/>
  <path id="path3438" d="m147.54 6975.7h271.84"/>
  <path id="path3440" d="m147.98 6976h270.98"/>
  <path id="path3442" d="m148.41 6976.3h270.12"/>
  <path id="path3444" d="m148.84 6976.5h269.25"/>
  <path id="path3446" d="m149.27 6976.8h268.39"/>
  <path id="path3448" d="m149.7 6977.1h267.52"/>
  <path id="path3450" d="m150.14 6977.4h266.66"/>
  <path id="path3452" d="m150.57 6977.6h265.8"/>
  <path id="path3454" d="m151 6977.9h264.93"/>
  <path id="path3456" d="m151.43 6978.2h264.07"/>
  <path id="path3458" d="m151.86 6978.5h263.2"/>
  <path id="path3460" d="m152.29 6978.7h262.34"/>
  <path id="path3462" d="m152.73 6979h261.48"/>
  <path id="path3464" d="m153.16 6979.3h260.61"/>
  <path id="path3466" d="m153.59 6979.6h259.75"/>
  <path id="path3468" d="m154.02 6979.8h258.88"/>
  <path id="path3470" d="m154.45 6980.1h258.02"/>
  <path id="path3472" d="m154.89 6980.4h257.16"/>
  <path id="path3474" d="m155.32 6980.7h256.29"/>
  <path id="path3476" d="m155.81 6980.9h255.31"/>
  <path id="path3478" d="m156.34 6981.2h254.26"/>
  <path id="path3480" d="m156.87 6981.5h253.2"/>
  <path id="path3482" d="m157.39 6981.8h252.14"/>
  <path id="path3484" d="m157.92 6982h251.08"/>
  <path id="path3486" d="m158.45 6982.3h250.02"/>
  <path id="path3488" d="m158.98 6982.6h248.97"/>
  <path id="path3490" d="m159.51 6982.9h247.91"/>
  <path id="path3492" d="m160.04 6983.1h246.86"/>
  <path id="path3494" d="m160.57 6983.4h245.8"/>
  <path id="path3496" d="m161.1 6983.7h244.74"/>
  <path id="path3498" d="m161.62 6984h243.68"/>
  <path id="path3500" d="m162.15 6984.2h242.62"/>
  <path id="path3502" d="m162.68 6984.5h241.57"/>
  <path id="path3504" d="m163.21 6984.8h240.51"/>
  <path id="path3506" d="m163.74 6985.1h239.45"/>
  <path id="path3508" d="m164.27 6985.3h238.4"/>
  <path id="path3510" d="m164.8 6985.6h237.34"/>
  <path id="path3512" d="m165.32 6985.9h236.28"/>
  <path id="path3514" d="m165.85 6986.2h235.22"/>
  <path id="path3516" d="m166.38 6986.4h234.17"/>
  <path id="path3518" d="m166.91 6986.7h233.11"/>
  <path id="path3520" d="m167.44 6987h232.05"/>
  <path id="path3522" d="m167.97 6987.3h230.99"/>
  <path id="path3524" d="m168.5 6987.5h229.94"/>
  <path id="path3526" d="m169.02 6987.8h228.88"/>
  <path id="path3528" d="m169.55 6988.1h227.82"/>
  <path id="path3530" d="m170.08 6988.4h226.76"/>
  <path id="path3532" d="m170.61 6988.6h225.71"/>
  <path id="path3534" d="m171.14 6988.9h224.65"/>
  <path id="path3536" d="m171.67 6989.2h223.59"/>
  <path id="path3538" d="m172.2 6989.5h222.54"/>
  <path id="path3540" d="m172.72 6989.7h221.48"/>
  <path id="path3542" d="m173.25 6990h220.42"/>
  <path id="path3544" d="m173.78 6990.3h219.36"/>
  <path id="path3546" d="m174.31 6990.6h218.3"/>
  <path id="path3548" d="m174.84 6990.8h217.25"/>
  <path id="path3550" d="m175.39 6991.1h216.16"/>
  <path id="path3552" d="m176.05 6991.4h214.83"/>
  <path id="path3554" d="m176.72 6991.7h213.5"/>
  <path id="path3556" d="m177.38 6991.9h212.17"/>
  <path id="path3558" d="m178.04 6992.2h210.84"/>
  <path id="path3560" d="m178.71 6992.5h209.51"/>
  <path id="path3562" d="m179.37 6992.8h208.18"/>
  <path id="path3564" d="m180.04 6993h206.85"/>
  <path id="path3566" d="m180.7 6993.3h205.52"/>
  <path id="path3568" d="m181.37 6993.6h204.2"/>
  <path id="path3570" d="m182.03 6993.9h202.87"/>
  <path id="path3572" d="m182.7 6994.1h201.54"/>
  <path id="path3574" d="m183.36 6994.4h200.21"/>
  <path id="path3576" d="m184.02 6994.7h198.88"/>
  <path id="path3578" d="m184.69 6995h197.55"/>
  <path id="path3580" d="m185.35 6995.2h196.22"/>
  <path id="path3582" d="m186.02 6995.5h194.89"/>
  <path id="path3584" d="m186.68 6995.8h193.56"/>
  <path id="path3586" d="m187.35 6996.1h192.24"/>
  <path id="path3588" d="m188.01 6996.3h190.91"/>
  <path id="path3590" d="m188.68 6996.6h189.58"/>
  <path id="path3592" d="m189.34 6996.9h188.25"/>
  <path id="path3594" d="m190 6997.2h186.92"/>
  <path id="path3596" d="m190.67 6997.4h185.59"/>
  <path id="path3598" d="m191.33 6997.7h184.26"/>
  <path id="path3600" d="m192 6998h182.94"/>
  <path id="path3602" d="m192.66 6998.3h181.6"/>
  <path id="path3604" d="m193.33 6998.5h180.28"/>
  <path id="path3606" d="m193.99 6998.8h178.95"/>
  <path id="path3608" d="m194.66 6999.1h177.62"/>
  <path id="path3610" d="m195.32 6999.4h176.29"/>
  <path id="path3612" d="m196 6999.6h174.92"/>
  <path id="path3614" d="m196.88 6999.9h173.18"/>
  <path id="path3616" d="m197.75 7000.2h171.43"/>
  <path id="path3618" d="m198.62 7000.5h169.69"/>
  <path id="path3620" d="m199.49 7000.8h167.94"/>
  <path id="path3622" d="m200.37 7001h166.2"/>
  <path id="path3624" d="m201.24 7001.3h164.45"/>
  <path id="path3626" d="m202.11 7001.6h162.7"/>
  <path id="path3628" d="m202.98 7001.9h160.96"/>
  <path id="path3630" d="m203.86 7002.1h159.21"/>
  <path id="path3632" d="m204.73 7002.4h157.47"/>
  <path id="path3634" d="m205.6 7002.7h155.72"/>
  <path id="path3636" d="m206.48 7003h153.98"/>
  <path id="path3638" d="m207.35 7003.2h152.23"/>
  <path id="path3640" d="m208.22 7003.5h150.48"/>
  <path id="path3642" d="m209.1 7003.8h148.74"/>
  <path id="path3644" d="m209.97 7004.1h146.99"/>
  <path id="path3646" d="m210.84 7004.3h145.25"/>
  <path id="path3648" d="m211.71 7004.6h143.5"/>
  <path id="path3650" d="m212.59 7004.9h141.76"/>
  <path id="path3652" d="m213.46 7005.2h140.01"/>
  <path id="path3654" d="m214.33 7005.4h138.26"/>
  <path id="path3656" d="m215.2 7005.7h136.52"/>
  <path id="path3658" d="m216.08 7006h134.77"/>
  <path id="path3660" d="m216.95 7006.3h133.03"/>
  <path id="path3662" d="m218.08 7006.5h130.77"/>
  <path id="path3664" d="m219.32 7006.8h128.29"/>
  <path id="path3666" d="m220.56 7007.1h125.81"/>
  <path id="path3668" d="m221.8 7007.4h123.33"/>
  <path id="path3670" d="m223.04 7007.6h120.84"/>
  <path id="path3672" d="m224.28 7007.9h118.36"/>
  <path id="path3674" d="m225.53 7008.2h115.88"/>
  <path id="path3676" d="m226.77 7008.5h113.4"/>
  <path id="path3678" d="m228.01 7008.7h110.91"/>
  <path id="path3680" d="m229.25 7009h108.43"/>
  <path id="path3682" d="m230.49 7009.3h105.95"/>
  <path id="path3684" d="m231.73 7009.6h103.46"/>
  <path id="path3686" d="m232.97 7009.8h100.98"/>
  <path id="path3688" d="m234.21 7010.1h98.5"/>
  <path id="path3690" d="m235.46 7010.4h96.017"/>
  <path id="path3692" d="m236.7 7010.7h93.535"/>
  <path id="path3694" d="m237.94 7010.9h91.051"/>
  <path id="path3696" d="m239.29 7011.2h88.351"/>
  <path id="path3698" d="m241.38 7011.5h84.169"/>
  <path id="path3700" d="m243.47 7011.8h79.988"/>
  <path id="path3702" d="m245.56 7012h75.807"/>
  <path id="path3704" d="m247.65 7012.3h71.625"/>
  <path id="path3706" d="m249.74 7012.6h67.443"/>
  <path id="path3708" d="m251.83 7012.9h63.263"/>
  <path id="path3710" d="m253.92 7013.1h59.081"/>
  <path id="path3712" d="m256.02 7013.4h54.899"/>
  <path id="path3714" d="m258.1 7013.7h50.719"/>
  <path id="path3716" d="m260.2 7014h46.537"/>
  <path id="path3718" d="m264.56 7014.2h37.807"/>
  <path id="path3720" d="m270.86 7014.5h25.205"/>
  <path id="path3722" d="m277.16 7014.8h12.602"/>
  <path id="path3724" d="m566.93 6759.1-1.078 24.706-3.228 24.517-5.352 24.143-7.437 23.585-9.464 22.847-11.418 21.934-13.287 20.857-15.054 19.618-16.707 18.233-18.232 16.707"/>
  <path id="path3726" d="m465.67 6976.3-19.619 15.054-20.856 13.287-21.935 11.418-22.847 9.464-23.584 7.436-24.144 5.353-24.517 3.227-24.706 1.079-24.705-1.079-24.518-3.227"/>
  <path id="path3728" d="m234.24 7038.3-24.143-5.353-23.584-7.436-22.847-9.464-21.935-11.418-20.856-13.287-19.619-15.054-18.232-16.707-16.707-18.233-15.054-19.618-13.287-20.857"/>
  <path id="path3730" d="m37.977 6900.8-11.419-21.934-9.463-22.847-7.437-23.585-5.352-24.143-3.228-24.517-1.078-24.706 1.078-24.705 3.228-24.518 5.352-24.143 7.437-23.584"/>
  <path id="path3732" d="m17.095 6662.2 9.463-22.847 11.419-21.935 13.287-20.856 15.054-19.619 16.707-18.233 18.232-16.706 19.619-15.054 20.856-13.288 21.935-11.418 22.847-9.463"/>
  <path id="path3734" d="m186.51 6492.7 23.584-7.437 24.143-5.352 24.518-3.228 24.705-1.078 24.706 1.078 24.517 3.228 24.144 5.352 23.584 7.437 22.847 9.463 21.935 11.418"/>
  <path id="path3736" d="m425.2 6513.6 20.856 13.288 19.619 15.054 18.232 16.706 16.707 18.233 15.054 19.619 13.287 20.856 11.418 21.935 9.464 22.847 7.436 23.584 5.353 24.143"/>
  <path id="path3738" d="m562.62 6709.9 3.228 24.518 1.078 24.705-1.078 24.706"/>
 </g>
</svg>
