<?xml version="1.0" encoding="UTF-8" standalone="no"?>
<svg
   width="531.17413"
   height="579.96014"
   viewBox="0 0 531.17411 579.96013"
   version="1.1"
   id="svg18"
   sodipodi:docname="LOWACC01.hpgl.svg"
   inkscape:version="1.1.2 (0a00cf5339, 2022-02-04)"
   xmlns:inkscape="http://www.inkscape.org/namespaces/inkscape"
   xmlns:sodipodi="http://sodipodi.sourceforge.net/DTD/sodipodi-0.dtd"
   xmlns="http://www.w3.org/2000/svg"
   xmlns:svg="http://www.w3.org/2000/svg">
  <defs
     id="defs22" />
  <sodipodi:namedview
     id="namedview20"
     pagecolor="#ffffff"
     bordercolor="#666666"
     borderopacity="1.0"
     inkscape:pageshadow="2"
     inkscape:pageopacity="0.0"
     inkscape:pagecheckerboard="0"
     showgrid="false"
     inkscape:zoom="1.2682364"
     inkscape:cx="264.93483"
     inkscape:cy="-868.52892"
     inkscape:window-width="1495"
     inkscape:window-height="970"
     inkscape:window-x="0"
     inkscape:window-y="32"
     inkscape:window-maximized="0"
     inkscape:current-layer="svg18" />
  <g
     id="g2"
     transform="translate(5.3450593,-1151.8789)" />
  <g
     style="fill:none;stroke:#000000;stroke-width:1mm"
     id="g4"
     transform="translate(5.3450593,-1151.8789)" />
  <g
     style="fill:none;stroke:#000000;stroke-width:4mm"
     id="g16"
     transform="translate(5.3450593,-1151.8789)">
    <path
       d="m 44.446996,1333.546 h 24.33"
       id="path6" />
    <path
       d="m 53.168996,1291.772 -0.459,-27.084 0.459,-8.722 7.804,-9.181 5.968,-8.263 11.935,-11.935 5.05,-11.476 2.754,-13.313 -3.213,-14.231 -4.591,-9.181 -9.64,-8.722"
       id="path8" />
    <path
       d="m 69.235996,1169.664 -10.558,-7.344 -9.181,-1.378 -10.559,-1.377 -10.558,2.755 -9.64,4.59 -9.181,9.181 -4.59,9.181 -2.755,8.722 v 8.263 l 2.296,7.804"
       id="path10" />
    <path
       d="m 4.509996,1210.061 2.295,2.295"
       id="path12" />
    <path
       d="M 87.138996,1293.149 520.484,1726.494"
       id="path14" />
  </g>
</svg>
