<?xml version="1.0" encoding="UTF-8"?>
<svg id="svg28" width="582.05" height="337.58" version="1.1" viewBox="0 0 582.05 337.58" xmlns="http://www.w3.org/2000/svg">
 <g id="g26" transform="translate(7.5587 -774.88)" fill="none" stroke="#000" stroke-width="4mm">
  <path id="path6" d="m71.57 1005.2 109.37-98.107 58.703-32.971 45.837-12.866 41.012-4.825 48.249 8.846 49.858 16.083 32.166 19.3 27.341 21.712 16.887 24.124-28.145 23.321"/>
  <path id="path8" d="m472.84 969.81-28.95 22.516-43.424 19.3-34.579 11.258-41.816 1.608-45.032-1.608-43.425-9.65-31.362-17.691-132.69-110.17"/>
  <path id="path10" d="m3.7777e-4 862.05v-79.611h563.71v77.199"/>
  <path id="path12" d="m3.7777e-4 1024.5v80.416h566.13l0.804-80.416"/>
  <path id="path14" d="m119.02 1024.5v80.416"/>
  <path id="path16" d="m441.48 1024.5v80.416"/>
  <path id="path18" d="m280.65 1023.7v78.807"/>
  <path id="path20" d="m119.02 783.25v81.22"/>
  <path id="path22" d="m441.48 781.64v81.219"/>
  <path id="path24" d="m279.85 780.83v80.416"/>
 </g>
</svg>
