<?xml version="1.0" encoding="UTF-8" standalone="no"?>
<svg
   width="558.55103"
   height="582.2005"
   viewBox="0 0 558.551 582.20048"
   version="1.1"
   id="svg36"
   sodipodi:docname="MONUMT12.hpgl.svg"
   inkscape:version="1.1.2 (0a00cf5339, 2022-02-04)"
   xmlns:inkscape="http://www.inkscape.org/namespaces/inkscape"
   xmlns:sodipodi="http://sodipodi.sourceforge.net/DTD/sodipodi-0.dtd"
   xmlns="http://www.w3.org/2000/svg"
   xmlns:svg="http://www.w3.org/2000/svg">
  <defs
     id="defs40" />
  <sodipodi:namedview
     id="namedview38"
     pagecolor="#ffffff"
     bordercolor="#666666"
     borderopacity="1.0"
     inkscape:pageshadow="2"
     inkscape:pageopacity="0.0"
     inkscape:pagecheckerboard="0"
     showgrid="false"
     inkscape:zoom="1.2682364"
     inkscape:cx="279.12777"
     inkscape:cy="-825.95011"
     inkscape:window-width="1495"
     inkscape:window-height="970"
     inkscape:window-x="0"
     inkscape:window-y="32"
     inkscape:window-maximized="0"
     inkscape:current-layer="svg36" />
  <g
     id="g2"
     transform="translate(0,-1109.3968)" />
  <g
     style="fill:none;stroke:#000000;stroke-width:1mm"
     id="g4"
     transform="translate(0,-1109.3968)" />
  <g
     style="fill:none;stroke:#000000;stroke-width:4mm"
     id="g34"
     transform="translate(0,-1109.3968)">
    <path
       d="m 349.094,1614.212 -0.265,6.085 -0.795,6.039 -1.319,5.947 -1.831,5.809 -2.331,5.627 -2.813,5.403 -3.272,5.137 -3.708,4.832 -4.115,4.491 -4.491,4.115"
       id="path6" />
    <path
       d="m 324.154,1667.697 -4.832,3.707 -5.137,3.273 -5.403,2.813 -5.627,2.33 -5.809,1.832 -5.947,1.318 -6.038,0.795 -6.085,0.266 -6.086,-0.266 -6.038,-0.795"
       id="path8" />
    <path
       d="m 267.152,1682.97 -5.947,-1.318 -5.809,-1.832 -5.627,-2.33 -5.403,-2.813 -5.137,-3.273 -4.832,-3.707 -4.491,-4.115 -4.115,-4.491 -3.708,-4.832 -3.272,-5.137"
       id="path10" />
    <path
       d="m 218.811,1649.122 -2.813,-5.403 -2.331,-5.627 -1.831,-5.809 -1.319,-5.947 -0.795,-6.039 -0.265,-6.085 0.265,-6.085 0.795,-6.039 1.319,-5.946 1.831,-5.809"
       id="path12" />
    <path
       d="m 213.667,1590.333 2.331,-5.628 2.813,-5.402 3.272,-5.137 3.708,-4.833 4.115,-4.49 4.491,-4.115 4.832,-3.708 5.137,-3.273 5.403,-2.812 5.627,-2.331"
       id="path14" />
    <path
       d="m 255.396,1548.604 5.809,-1.832 5.947,-1.318 6.038,-0.795 6.086,-0.266 6.085,0.266 6.038,0.795 5.947,1.318 5.809,1.832 5.627,2.331 5.403,2.812"
       id="path16" />
    <path
       d="m 314.185,1553.747 5.137,3.273 4.832,3.708 4.491,4.115 4.115,4.49 3.708,4.833 3.272,5.137 2.813,5.402 2.331,5.628 1.831,5.809 1.319,5.946"
       id="path18" />
    <path
       d="m 348.034,1602.088 0.795,6.039 0.265,6.085 -0.265,6.085"
       id="path20" />
    <path
       d="M 0,1614.212 H 191.304"
       id="path22" />
    <path
       d="M 349.094,1614.212 H 558.551"
       id="path24" />
    <path
       d="M 361.662,1126.877 143.827,1354.486"
       id="path26" />
    <path
       d="M 384.004,1273.496 139.638,1544.393"
       id="path28" />
    <path
       d="m 400.76,1448.043 -86.575,96.35"
       id="path30" />
    <path
       d="m 108.918,1612.816 62.836,-495.714 192.701,4.189 54.458,488.732"
       id="path32" />
  </g>
</svg>
