<?xml version="1.0" encoding="UTF-8"?>
<svg id="svg36" width="558.55" height="582.2" version="1.1" viewBox="0 0 558.55 582.2" xmlns="http://www.w3.org/2000/svg">
 <g id="g34" transform="translate(0 -1109.4)" fill="none" stroke="#000" stroke-width="4mm">
  <path id="path6" d="m349.09 1614.2-0.265 6.085-0.795 6.039-1.319 5.947-1.831 5.809-2.331 5.627-2.813 5.403-3.272 5.137-3.708 4.832-4.115 4.491-4.491 4.115"/>
  <path id="path8" d="m324.15 1667.7-4.832 3.707-5.137 3.273-5.403 2.813-5.627 2.33-5.809 1.832-5.947 1.318-6.038 0.795-6.085 0.266-6.086-0.266-6.038-0.795"/>
  <path id="path10" d="m267.15 1683-5.947-1.318-5.809-1.832-5.627-2.33-5.403-2.813-5.137-3.273-4.832-3.707-4.491-4.115-4.115-4.491-3.708-4.832-3.272-5.137"/>
  <path id="path12" d="m218.81 1649.1-2.813-5.403-2.331-5.627-1.831-5.809-1.319-5.947-0.795-6.039-0.265-6.085 0.265-6.085 0.795-6.039 1.319-5.946 1.831-5.809"/>
  <path id="path14" d="m213.67 1590.3 2.331-5.628 2.813-5.402 3.272-5.137 3.708-4.833 4.115-4.49 4.491-4.115 4.832-3.708 5.137-3.273 5.403-2.812 5.627-2.331"/>
  <path id="path16" d="m255.4 1548.6 5.809-1.832 5.947-1.318 6.038-0.795 6.086-0.266 6.085 0.266 6.038 0.795 5.947 1.318 5.809 1.832 5.627 2.331 5.403 2.812"/>
  <path id="path18" d="m314.18 1553.7 5.137 3.273 4.832 3.708 4.491 4.115 4.115 4.49 3.708 4.833 3.272 5.137 2.813 5.402 2.331 5.628 1.831 5.809 1.319 5.946"/>
  <path id="path20" d="m348.03 1602.1 0.795 6.039 0.265 6.085-0.265 6.085"/>
  <path id="path22" d="m0 1614.2h191.3"/>
  <path id="path24" d="m349.09 1614.2h209.46"/>
  <path id="path26" d="m361.66 1126.9-217.84 227.61"/>
  <path id="path28" d="m384 1273.5-244.37 270.9"/>
  <path id="path30" d="m400.76 1448-86.575 96.35"/>
  <path id="path32" d="m108.92 1612.8 62.836-495.71 192.7 4.189 54.458 488.73"/>
 </g>
</svg>
