<?xml version="1.0" encoding="UTF-8"?>
<svg id="svg30" width="261.66" height="575.12" version="1.1" viewBox="0 0 261.66 575.12" xmlns="http://www.w3.org/2000/svg">
 <g id="g28" transform="translate(0 -697.13)" fill="none" stroke="#000" stroke-width="4mm">
  <path id="path6" d="m174.44 1221.1-0.166 3.801-0.496 3.772-0.824 3.714-1.144 3.629-1.456 3.515-1.757 3.374-2.044 3.209-2.316 3.018-2.57 2.805-2.805 2.571"/>
  <path id="path8" d="m158.86 1254.5-3.018 2.316-3.209 2.044-3.374 1.756-3.515 1.456-3.629 1.144-3.714 0.824-3.772 0.496-3.801 0.166-3.801-0.166-3.772-0.496"/>
  <path id="path10" d="m123.26 1264-3.714-0.824-3.628-1.144-3.515-1.456-3.375-1.756-3.208-2.044-3.019-2.316-2.805-2.571-2.57-2.805-2.316-3.018-2.044-3.209"/>
  <path id="path12" d="m93.063 1242.9-1.757-3.374-1.456-3.515-1.144-3.629-0.823-3.714-0.497-3.772-0.166-3.801 0.166-3.801 0.497-3.771 0.823-3.715 1.144-3.628"/>
  <path id="path14" d="m89.85 1206.2 1.456-3.515 1.757-3.375 2.044-3.208 2.316-3.019 2.57-2.805 2.805-2.57 3.019-2.316 3.208-2.044 3.375-1.757 3.515-1.456"/>
  <path id="path16" d="m115.92 1180.1 3.628-1.144 3.714-0.823 3.772-0.497 3.801-0.166 3.801 0.166 3.772 0.497 3.714 0.823 3.629 1.144 3.515 1.456 3.374 1.757"/>
  <path id="path18" d="m152.64 1183.3 3.209 2.044 3.018 2.316 2.805 2.57 2.57 2.805 2.316 3.019 2.044 3.208 1.757 3.375 1.456 3.515 1.144 3.628 0.824 3.715"/>
  <path id="path20" d="m173.78 1213.5 0.496 3.771 0.166 3.801-0.166 3.801"/>
  <path id="path22" d="m0 1221.1h87.22"/>
  <path id="path24" d="m174.44 1221.1h87.22"/>
  <path id="path26" d="m87.22 1221.1 43.61-523.32 43.61 523.32"/>
 </g>
</svg>
