<?xml version="1.0" encoding="UTF-8" standalone="no"?>
<svg
   width="261.66"
   height="575.12299"
   viewBox="0 0 261.66 575.12297"
   version="1.1"
   id="svg30"
   sodipodi:docname="MSTCON04.hpgl.svg"
   inkscape:version="1.1.2 (0a00cf5339, 2022-02-04)"
   xmlns:inkscape="http://www.inkscape.org/namespaces/inkscape"
   xmlns:sodipodi="http://sodipodi.sourceforge.net/DTD/sodipodi-0.dtd"
   xmlns="http://www.w3.org/2000/svg"
   xmlns:svg="http://www.w3.org/2000/svg">
  <defs
     id="defs34" />
  <sodipodi:namedview
     id="namedview32"
     pagecolor="#ffffff"
     bordercolor="#666666"
     borderopacity="1.0"
     inkscape:pageshadow="2"
     inkscape:pageopacity="0.0"
     inkscape:pagecheckerboard="0"
     showgrid="false"
     inkscape:zoom="1.2682364"
     inkscape:cx="130.89042"
     inkscape:cy="-413.56643"
     inkscape:window-width="1495"
     inkscape:window-height="970"
     inkscape:window-x="0"
     inkscape:window-y="32"
     inkscape:window-maximized="0"
     inkscape:current-layer="svg30" />
  <g
     id="g2"
     transform="translate(0,-697.13125)" />
  <g
     style="fill:none;stroke:#000000;stroke-width:1mm"
     id="g4"
     transform="translate(0,-697.13125)" />
  <g
     style="fill:none;stroke:#000000;stroke-width:4mm"
     id="g28"
     transform="translate(0,-697.13125)">
    <path
       d="m 174.44,1221.078 -0.166,3.801 -0.496,3.772 -0.824,3.714 -1.144,3.629 -1.456,3.515 -1.757,3.374 -2.044,3.209 -2.316,3.018 -2.57,2.805 -2.805,2.571"
       id="path6" />
    <path
       d="m 158.862,1254.486 -3.018,2.316 -3.209,2.044 -3.374,1.756 -3.515,1.456 -3.629,1.144 -3.714,0.824 -3.772,0.496 -3.801,0.166 -3.801,-0.166 -3.772,-0.496"
       id="path8" />
    <path
       d="m 123.257,1264.026 -3.714,-0.824 -3.628,-1.144 -3.515,-1.456 -3.375,-1.756 -3.208,-2.044 -3.019,-2.316 -2.805,-2.571 -2.57,-2.805 -2.316,-3.018 -2.044,-3.209"
       id="path10" />
    <path
       d="m 93.063,1242.883 -1.757,-3.374 -1.456,-3.515 -1.144,-3.629 -0.823,-3.714 -0.497,-3.772 -0.166,-3.801 0.166,-3.801 0.497,-3.771 0.823,-3.715 1.144,-3.628"
       id="path12" />
    <path
       d="m 89.85,1206.163 1.456,-3.515 1.757,-3.375 2.044,-3.208 2.316,-3.019 2.57,-2.805 2.805,-2.57 3.019,-2.316 3.208,-2.044 3.375,-1.757 3.515,-1.456"
       id="path14" />
    <path
       d="m 115.915,1180.098 3.628,-1.144 3.714,-0.823 3.772,-0.497 3.801,-0.166 3.801,0.166 3.772,0.497 3.714,0.823 3.629,1.144 3.515,1.456 3.374,1.757"
       id="path16" />
    <path
       d="m 152.635,1183.311 3.209,2.044 3.018,2.316 2.805,2.57 2.57,2.805 2.316,3.019 2.044,3.208 1.757,3.375 1.456,3.515 1.144,3.628 0.824,3.715"
       id="path18" />
    <path
       d="m 173.778,1213.506 0.496,3.771 0.166,3.801 -0.166,3.801"
       id="path20" />
    <path
       d="M 0,1221.078 H 87.22"
       id="path22" />
    <path
       d="m 174.44,1221.078 h 87.22"
       id="path24" />
    <path
       d="m 87.22,1221.078 43.61,-523.319 43.61,523.319"
       id="path26" />
  </g>
</svg>
