<?xml version="1.0" encoding="UTF-8"?>
<svg id="svg40" width="582.06" height="582.06" version="1.1" viewBox="0 0 582.06 582.06" xmlns="http://www.w3.org/2000/svg">
 <g id="g38" transform="translate(7.5663 -1136)" fill="none" stroke="#000" stroke-width="4mm">
  <path id="path6" d="m566.93 1427-1.079 24.706-3.227 24.518-5.353 24.143-7.436 23.584-9.463 22.847-11.419 21.935-13.287 20.856-15.054 19.619-16.707 18.232-18.232 16.707"/>
  <path id="path8" d="m465.67 1644.2-19.619 15.054-20.856 13.287-21.935 11.419-22.847 9.463-23.585 7.436-24.142 5.353-24.518 3.227-24.706 1.079-24.705-1.079-24.518-3.227"/>
  <path id="path10" d="m234.24 1706.2-24.143-5.353-23.584-7.436-22.847-9.463-21.935-11.419-20.856-13.287-19.619-15.054-18.232-16.707-16.707-18.232-15.054-19.619-13.287-20.856"/>
  <path id="path12" d="m37.977 1568.8-11.419-21.935-9.463-22.847-7.436-23.584-5.353-24.143-3.228-24.518-1.078-24.706 1.078-24.705 3.228-24.518 5.353-24.142 7.436-23.585"/>
  <path id="path14" d="m17.095 1330.1 9.463-22.847 11.419-21.935 13.287-20.856 15.054-19.619 16.707-18.232 18.232-16.707 19.619-15.054 20.856-13.287 21.935-11.419 22.847-9.463"/>
  <path id="path16" d="m186.51 1160.7 23.584-7.436 24.143-5.353 24.518-3.227 24.705-1.079 24.706 1.079 24.517 3.227 24.143 5.353 23.585 7.436 22.847 9.463 21.935 11.419"/>
  <path id="path18" d="m425.2 1181.6 20.856 13.287 19.619 15.054 18.232 16.707 16.707 18.232 15.054 19.619 13.287 20.856 11.419 21.935 9.463 22.847 7.436 23.584 5.353 24.143"/>
  <path id="path20" d="m562.62 1377.8 3.227 24.518 1.079 24.705-1.079 24.706"/>
  <path id="path22" d="m432.63 1424.8-0.567 13.001-1.699 12.901-2.816 12.704-3.913 12.411-4.98 12.022-6.009 11.542-6.991 10.975-7.922 10.324-8.791 9.594-9.594 8.791"/>
  <path id="path24" d="m379.34 1539-10.324 7.922-10.975 6.991-11.542 6.009-12.022 4.98-12.411 3.913-12.704 2.816-12.901 1.699-13.001 0.567-13-0.567-12.901-1.699"/>
  <path id="path26" d="m257.56 1571.6-12.705-2.816-12.41-3.913-12.022-4.98-11.542-6.009-10.975-6.991-10.324-7.922-9.594-8.791-8.791-9.594-7.922-10.324-6.991-10.975"/>
  <path id="path28" d="m154.29 1499.3-6.009-11.542-4.98-12.022-3.913-12.411-2.816-12.704-1.699-12.901-0.567-13.001 0.567-13 1.699-12.901 2.816-12.704 3.913-12.411"/>
  <path id="path30" d="m143.3 1373.7 4.98-12.022 6.009-11.542 6.991-10.975 7.922-10.324 8.791-9.594 9.594-8.791 10.324-7.922 10.975-6.991 11.542-6.009 12.022-4.98"/>
  <path id="path32" d="m232.45 1284.6 12.41-3.913 12.705-2.816 12.901-1.699 13-0.567 13.001 0.567 12.901 1.699 12.704 2.816 12.411 3.913 12.022 4.98 11.542 6.009"/>
  <path id="path34" d="m358.04 1295.6 10.975 6.991 10.324 7.922 9.594 8.791 8.791 9.594 7.922 10.324 6.991 10.975 6.009 11.542 4.98 12.022 3.913 12.411 2.816 12.704"/>
  <path id="path36" d="m430.36 1398.9 1.699 12.901 0.567 13-0.567 13.001"/>
 </g>
</svg>
