<?xml version="1.0" encoding="UTF-8" standalone="no"?>
<svg
   width="582.06152"
   height="582.06152"
   viewBox="0 0 582.06151 582.06151"
   version="1.1"
   id="svg40"
   sodipodi:docname="OWNSHP01.hpgl.svg"
   inkscape:version="1.1.2 (0a00cf5339, 2022-02-04)"
   xmlns:inkscape="http://www.inkscape.org/namespaces/inkscape"
   xmlns:sodipodi="http://sodipodi.sourceforge.net/DTD/sodipodi-0.dtd"
   xmlns="http://www.w3.org/2000/svg"
   xmlns:svg="http://www.w3.org/2000/svg">
  <defs
     id="defs44" />
  <sodipodi:namedview
     id="namedview42"
     pagecolor="#ffffff"
     bordercolor="#666666"
     borderopacity="1.0"
     inkscape:pageshadow="2"
     inkscape:pageopacity="0.0"
     inkscape:pagecheckerboard="0"
     showgrid="false"
     inkscape:zoom="1.2682364"
     inkscape:cx="290.95522"
     inkscape:cy="-852.75899"
     inkscape:window-width="1495"
     inkscape:window-height="970"
     inkscape:window-x="0"
     inkscape:window-y="32"
     inkscape:window-maximized="0"
     inkscape:current-layer="svg40" />
  <g
     id="g2"
     transform="translate(7.5662612,-1136.0077)" />
  <g
     style="fill:none;stroke:#000000;stroke-width:1mm"
     id="g4"
     transform="translate(7.5662612,-1136.0077)" />
  <g
     style="fill:none;stroke:#000000;stroke-width:4mm"
     id="g38"
     transform="translate(7.5662612,-1136.0077)">
    <path
       d="m 566.92899,1427.038 -1.079,24.706 -3.227,24.518 -5.353,24.143 -7.436,23.584 -9.463,22.847 -11.419,21.935 -13.287,20.856 -15.054,19.619 -16.707,18.232 -18.232,16.707"
       id="path6" />
    <path
       d="m 465.67199,1644.185 -19.619,15.054 -20.856,13.287 -21.935,11.419 -22.847,9.463 -23.585,7.436 -24.142,5.353 -24.518,3.227 -24.706,1.079 -24.705,-1.079 -24.518,-3.227"
       id="path8" />
    <path
       d="m 234.24099,1706.197 -24.143,-5.353 -23.584,-7.436 -22.847,-9.463 -21.935,-11.419 -20.856,-13.287 -19.619,-15.054 -18.232003,-16.707 -16.707,-18.232 -15.054,-19.619 -13.287,-20.856"
       id="path10" />
    <path
       d="m 37.976987,1568.771 -11.419,-21.935 -9.463,-22.847 -7.4360003,-23.584 -5.353,-24.143 -3.228,-24.518 L -1.3344028e-5,1427.038 1.0779867,1402.333 l 3.228,-24.518 5.353,-24.142 7.4360003,-23.585"
       id="path12" />
    <path
       d="m 17.094987,1330.088 9.463,-22.847 11.419,-21.935 13.287,-20.856 15.054,-19.619 16.707,-18.232 18.232003,-16.707 19.619,-15.054 20.856,-13.287 21.935,-11.419 22.847,-9.463"
       id="path14" />
    <path
       d="m 186.51399,1160.669 23.584,-7.436 24.143,-5.353 24.518,-3.227 24.705,-1.079 24.706,1.079 24.517,3.227 24.143,5.353 23.585,7.436 22.847,9.463 21.935,11.419"
       id="path16" />
    <path
       d="m 425.19699,1181.551 20.856,13.287 19.619,15.054 18.232,16.707 16.707,18.232 15.054,19.619 13.287,20.856 11.419,21.935 9.463,22.847 7.436,23.584 5.353,24.143"
       id="path18" />
    <path
       d="m 562.62299,1377.815 3.227,24.518 1.079,24.705 v 0 l -1.079,24.706"
       id="path20" />
    <path
       d="m 432.62599,1424.752 -0.567,13.001 -1.699,12.901 -2.816,12.704 -3.913,12.411 -4.98,12.022 -6.009,11.542 -6.991,10.975 -7.922,10.324 -8.791,9.594 -9.594,8.791"
       id="path22" />
    <path
       d="m 379.34399,1539.017 -10.324,7.922 -10.975,6.991 -11.542,6.009 -12.022,4.98 -12.411,3.913 -12.704,2.816 -12.901,1.699 -13.001,0.567 -13,-0.567 -12.901,-1.699"
       id="path24" />
    <path
       d="m 257.56299,1571.648 -12.705,-2.816 -12.41,-3.913 -12.022,-4.98 -11.542,-6.009 -10.975,-6.991 -10.324,-7.922 -9.594,-8.791 -8.791,-9.594 -7.922,-10.324 -6.991,-10.975"
       id="path26" />
    <path
       d="m 154.28699,1499.333 -6.009,-11.542 -4.98,-12.022 -3.913,-12.411 -2.816,-12.704 -1.699,-12.901 -0.567,-13.001 0.567,-13 1.699,-12.901 2.816,-12.704 3.913,-12.411"
       id="path28" />
    <path
       d="m 143.29799,1373.736 4.98,-12.022 6.009,-11.542 6.991,-10.975 7.922,-10.324 8.791,-9.594 9.594,-8.791 10.324,-7.922 10.975,-6.991 11.542,-6.009 12.022,-4.98"
       id="path30" />
    <path
       d="m 232.44799,1284.586 12.41,-3.913 12.705,-2.816 12.901,-1.699 13,-0.567 13.001,0.567 12.901,1.699 12.704,2.816 12.411,3.913 12.022,4.98 11.542,6.009"
       id="path32" />
    <path
       d="m 358.04499,1295.575 10.975,6.991 10.324,7.922 9.594,8.791 8.791,9.594 7.922,10.324 6.991,10.975 6.009,11.542 4.98,12.022 3.913,12.411 2.816,12.704"
       id="path34" />
    <path
       d="m 430.35999,1398.851 1.699,12.901 0.567,13 -0.567,13.001"
       id="path36" />
  </g>
</svg>
