<?xml version="1.0" encoding="UTF-8" standalone="no"?>
<svg
   width="582.06152"
   height="582.06152"
   viewBox="0 0 582.06151 582.06151"
   version="1.1"
   id="svg2022"
   sodipodi:docname="POSGEN01.hpgl.svg"
   inkscape:version="1.1.2 (0a00cf5339, 2022-02-04)"
   xmlns:inkscape="http://www.inkscape.org/namespaces/inkscape"
   xmlns:sodipodi="http://sodipodi.sourceforge.net/DTD/sodipodi-0.dtd"
   xmlns="http://www.w3.org/2000/svg"
   xmlns:svg="http://www.w3.org/2000/svg">
  <defs
     id="defs2026" />
  <sodipodi:namedview
     id="namedview2024"
     pagecolor="#ffffff"
     bordercolor="#666666"
     borderopacity="1.0"
     inkscape:pageshadow="2"
     inkscape:pageopacity="0.0"
     inkscape:pagecheckerboard="0"
     showgrid="false"
     inkscape:zoom="1.2682364"
     inkscape:cx="290.95522"
     inkscape:cy="-1055.4026"
     inkscape:window-width="1495"
     inkscape:window-height="970"
     inkscape:window-x="0"
     inkscape:window-y="32"
     inkscape:window-maximized="0"
     inkscape:current-layer="svg2022" />
  <g
     id="g2"
     transform="translate(7.5662612,-1338.8908)" />
  <g
     style="fill:none;stroke:#000000;stroke-width:1mm"
     id="g4"
     transform="translate(7.5662612,-1338.8908)" />
  <g
     style="fill:none;stroke:#000000;stroke-width:4mm"
     id="g2020"
     transform="translate(7.5662612,-1338.8908)">
    <path
       d="m 566.92899,1629.921 -1.079,24.706 -3.227,24.518 -5.353,24.142 -7.436,23.585 -9.463,22.847 -11.419,21.935 -13.287,20.856 -15.054,19.619 -16.707,18.232 -18.232,16.707"
       id="path6" />
    <path
       d="m 465.67199,1847.068 -19.619,15.054 -20.856,13.287 -21.935,11.419 -22.847,9.463 -23.585,7.436 -24.143,5.353 -24.517,3.227 -24.706,1.079 -24.705,-1.079 -24.518,-3.227"
       id="path8" />
    <path
       d="m 234.24099,1909.08 -24.143,-5.353 -23.584,-7.436 -22.847,-9.463 -21.935,-11.419 -20.856,-13.287 -19.619,-15.054 -18.232003,-16.707 -16.707,-18.232 -15.054,-19.619 -13.287,-20.856"
       id="path10" />
    <path
       d="m 37.976987,1771.654 -11.419,-21.935 -9.463,-22.847 -7.4360003,-23.584 -5.353,-24.143 -3.228,-24.518 L -1.3344028e-5,1629.921 1.0779867,1605.216 l 3.228,-24.518 5.353,-24.143 7.4360003,-23.584"
       id="path12" />
    <path
       d="m 17.094987,1532.971 9.463,-22.847 11.419,-21.935 13.287,-20.856 15.054,-19.619 16.707,-18.232 18.232003,-16.707 19.619,-15.054 20.856,-13.287 21.935,-11.419 22.847,-9.463"
       id="path14" />
    <path
       d="m 186.51399,1363.552 23.584,-7.436 24.143,-5.353 24.518,-3.228 24.705,-1.078 24.706,1.078 24.517,3.228 24.143,5.353 23.585,7.436 22.847,9.463 21.935,11.419"
       id="path16" />
    <path
       d="m 425.19699,1384.434 20.856,13.287 19.619,15.054 18.232,16.707 16.707,18.232 15.054,19.619 13.287,20.856 11.419,21.935 9.463,22.847 7.436,23.584 5.353,24.143"
       id="path18" />
    <path
       d="m 562.62299,1580.698 3.227,24.518 1.079,24.705 v 0 l -1.079,24.706"
       id="path20" />
    <path
       d="m 280.21799,1559.197 h 6.493"
       id="path22" />
    <path
       d="m 277.18299,1559.339 h 12.563"
       id="path24" />
    <path
       d="m 276.10699,1559.48 h 14.715"
       id="path26" />
    <path
       d="m 275.02999,1559.622 h 16.869"
       id="path28" />
    <path
       d="m 273.95399,1559.764 h 19.022"
       id="path30" />
    <path
       d="m 272.87699,1559.906 h 21.175"
       id="path32" />
    <path
       d="m 271.80099,1560.047 h 23.328"
       id="path34" />
    <path
       d="m 270.90099,1560.189 h 25.128"
       id="path36" />
    <path
       d="m 270.26099,1560.331 h 26.407"
       id="path38" />
    <path
       d="m 269.62199,1560.473 h 27.685"
       id="path40" />
    <path
       d="m 268.98299,1560.614 h 28.963"
       id="path42" />
    <path
       d="m 268.34299,1560.756 h 30.243"
       id="path44" />
    <path
       d="m 267.70399,1560.898 h 31.521"
       id="path46" />
    <path
       d="m 267.06499,1561.04 h 32.799"
       id="path48" />
    <path
       d="m 266.42499,1561.181 h 34.078"
       id="path50" />
    <path
       d="m 265.78599,1561.323 h 35.357"
       id="path52" />
    <path
       d="m 265.14699,1561.465 h 36.635"
       id="path54" />
    <path
       d="m 264.68999,1561.606 h 37.549"
       id="path56" />
    <path
       d="m 264.24099,1561.748 h 38.447"
       id="path58" />
    <path
       d="m 263.79099,1561.89 h 39.347"
       id="path60" />
    <path
       d="m 263.34199,1562.032 h 40.245"
       id="path62" />
    <path
       d="m 262.89199,1562.173 h 41.145"
       id="path64" />
    <path
       d="m 262.44299,1562.315 h 42.043"
       id="path66" />
    <path
       d="m 261.99299,1562.457 h 42.943"
       id="path68" />
    <path
       d="m 261.54299,1562.599 h 43.842"
       id="path70" />
    <path
       d="m 261.09399,1562.74 h 44.741"
       id="path72" />
    <path
       d="m 260.64399,1562.882 h 45.64"
       id="path74" />
    <path
       d="m 260.19499,1563.024 h 46.539"
       id="path76" />
    <path
       d="m 259.74499,1563.166 h 47.438"
       id="path78" />
    <path
       d="m 259.29599,1563.307 h 48.337"
       id="path80" />
    <path
       d="m 258.93699,1563.449 h 49.055"
       id="path82" />
    <path
       d="m 258.59499,1563.591 h 49.739"
       id="path84" />
    <path
       d="m 258.25299,1563.732 h 50.423"
       id="path86" />
    <path
       d="m 257.91099,1563.874 h 51.107"
       id="path88" />
    <path
       d="m 257.56799,1564.016 h 51.792"
       id="path90" />
    <path
       d="m 257.22599,1564.158 h 52.476"
       id="path92" />
    <path
       d="m 256.88399,1564.299 h 53.161"
       id="path94" />
    <path
       d="m 256.54199,1564.441 h 53.845"
       id="path96" />
    <path
       d="m 256.19999,1564.583 h 54.529"
       id="path98" />
    <path
       d="m 255.85799,1564.725 h 55.213"
       id="path100" />
    <path
       d="m 255.51599,1564.866 h 55.897"
       id="path102" />
    <path
       d="m 255.17299,1565.008 h 56.582"
       id="path104" />
    <path
       d="m 254.83099,1565.15 h 57.267"
       id="path106" />
    <path
       d="m 254.48899,1565.292 h 57.951"
       id="path108" />
    <path
       d="m 254.14699,1565.433 h 58.635"
       id="path110" />
    <path
       d="m 253.80499,1565.575 h 59.319"
       id="path112" />
    <path
       d="m 253.47299,1565.717 h 59.983"
       id="path114" />
    <path
       d="m 253.20099,1565.858 h 60.527"
       id="path116" />
    <path
       d="m 252.92899,1566 h 61.071"
       id="path118" />
    <path
       d="m 252.65599,1566.142 h 61.616"
       id="path120" />
    <path
       d="m 252.38399,1566.284 h 62.161"
       id="path122" />
    <path
       d="m 252.11199,1566.425 h 62.705"
       id="path124" />
    <path
       d="m 251.83999,1566.567 h 63.249"
       id="path126" />
    <path
       d="m 251.56699,1566.709 h 63.794"
       id="path128" />
    <path
       d="m 251.29499,1566.851 h 64.339"
       id="path130" />
    <path
       d="m 251.02299,1566.992 h 64.883"
       id="path132" />
    <path
       d="m 250.75099,1567.134 h 65.427"
       id="path134" />
    <path
       d="m 250.47799,1567.276 h 65.973"
       id="path136" />
    <path
       d="m 250.20599,1567.418 h 66.517"
       id="path138" />
    <path
       d="m 249.93399,1567.559 h 67.061"
       id="path140" />
    <path
       d="m 249.66099,1567.701 h 67.606"
       id="path142" />
    <path
       d="m 249.38899,1567.843 h 68.151"
       id="path144" />
    <path
       d="m 249.11699,1567.984 h 68.695"
       id="path146" />
    <path
       d="m 248.84499,1568.126 h 69.239"
       id="path148" />
    <path
       d="m 248.57199,1568.268 h 69.784"
       id="path150" />
    <path
       d="m 248.29999,1568.41 h 70.329"
       id="path152" />
    <path
       d="m 248.02799,1568.551 h 70.872"
       id="path154" />
    <path
       d="m 247.80599,1568.693 h 71.317"
       id="path156" />
    <path
       d="m 247.58399,1568.835 h 71.761"
       id="path158" />
    <path
       d="m 247.36099,1568.977 h 72.207"
       id="path160" />
    <path
       d="m 247.13899,1569.118 h 72.651"
       id="path162" />
    <path
       d="m 246.91599,1569.26 h 73.097"
       id="path164" />
    <path
       d="m 246.69399,1569.402 h 73.541"
       id="path166" />
    <path
       d="m 246.47099,1569.544 h 73.987"
       id="path168" />
    <path
       d="m 246.24899,1569.685 h 74.431"
       id="path170" />
    <path
       d="m 246.02599,1569.827 h 74.877"
       id="path172" />
    <path
       d="m 245.80399,1569.969 h 75.321"
       id="path174" />
    <path
       d="m 245.58099,1570.11 h 75.767"
       id="path176" />
    <path
       d="m 245.35899,1570.252 h 76.211"
       id="path178" />
    <path
       d="m 245.13599,1570.394 h 76.656"
       id="path180" />
    <path
       d="m 244.91399,1570.536 h 77.101"
       id="path182" />
    <path
       d="m 244.69099,1570.677 h 77.546"
       id="path184" />
    <path
       d="m 244.46899,1570.819 h 77.991"
       id="path186" />
    <path
       d="m 244.24599,1570.961 h 78.436"
       id="path188" />
    <path
       d="m 244.02399,1571.103 h 78.881"
       id="path190" />
    <path
       d="m 243.80199,1571.244 h 79.325"
       id="path192" />
    <path
       d="m 243.57899,1571.386 h 79.771"
       id="path194" />
    <path
       d="m 243.35699,1571.528 h 80.215"
       id="path196" />
    <path
       d="m 243.13399,1571.67 h 80.661"
       id="path198" />
    <path
       d="m 242.91199,1571.811 h 81.105"
       id="path200" />
    <path
       d="m 242.71099,1571.953 h 81.507"
       id="path202" />
    <path
       d="m 242.52599,1572.095 h 81.877"
       id="path204" />
    <path
       d="m 242.34099,1572.236 h 82.246"
       id="path206" />
    <path
       d="m 242.15699,1572.378 h 82.615"
       id="path208" />
    <path
       d="m 241.97199,1572.52 h 82.985"
       id="path210" />
    <path
       d="m 241.78699,1572.662 h 83.355"
       id="path212" />
    <path
       d="m 241.60299,1572.803 h 83.723"
       id="path214" />
    <path
       d="m 241.41799,1572.945 h 84.093"
       id="path216" />
    <path
       d="m 241.23299,1573.087 h 84.463"
       id="path218" />
    <path
       d="m 241.04799,1573.229 h 84.832"
       id="path220" />
    <path
       d="m 240.86399,1573.37 h 85.201"
       id="path222" />
    <path
       d="m 240.67899,1573.512 h 85.571"
       id="path224" />
    <path
       d="m 240.49399,1573.654 h 85.94"
       id="path226" />
    <path
       d="m 240.30999,1573.795 h 86.309"
       id="path228" />
    <path
       d="m 240.12499,1573.937 h 86.679"
       id="path230" />
    <path
       d="m 239.93999,1574.079 h 87.049"
       id="path232" />
    <path
       d="m 239.75599,1574.221 h 87.417"
       id="path234" />
    <path
       d="m 239.57099,1574.362 h 87.787"
       id="path236" />
    <path
       d="m 239.38599,1574.504 h 88.157"
       id="path238" />
    <path
       d="m 239.20099,1574.646 h 88.526"
       id="path240" />
    <path
       d="m 239.01699,1574.788 h 88.895"
       id="path242" />
    <path
       d="m 238.83199,1574.929 h 89.265"
       id="path244" />
    <path
       d="m 238.64699,1575.071 h 89.635"
       id="path246" />
    <path
       d="m 238.46199,1575.213 h 90.004"
       id="path248" />
    <path
       d="m 238.27799,1575.355 h 90.373"
       id="path250" />
    <path
       d="m 238.09299,1575.496 h 90.743"
       id="path252" />
    <path
       d="m 237.90899,1575.638 h 91.111"
       id="path254" />
    <path
       d="m 237.75399,1575.78 h 91.42"
       id="path256" />
    <path
       d="m 237.59999,1575.921 h 91.729"
       id="path258" />
    <path
       d="m 237.44499,1576.063 h 92.039"
       id="path260" />
    <path
       d="m 237.28999,1576.205 h 92.348"
       id="path262" />
    <path
       d="m 237.13599,1576.347 h 92.657"
       id="path264" />
    <path
       d="m 236.98099,1576.488 h 92.967"
       id="path266" />
    <path
       d="m 236.82599,1576.63 h 93.276"
       id="path268" />
    <path
       d="m 236.67199,1576.772 h 93.585"
       id="path270" />
    <path
       d="m 236.51699,1576.914 h 93.895"
       id="path272" />
    <path
       d="m 236.36199,1577.055 h 94.205"
       id="path274" />
    <path
       d="m 236.20799,1577.197 h 94.513"
       id="path276" />
    <path
       d="m 236.05299,1577.339 h 94.823"
       id="path278" />
    <path
       d="m 235.89799,1577.48 h 95.133"
       id="path280" />
    <path
       d="m 235.74399,1577.622 h 95.441"
       id="path282" />
    <path
       d="m 235.58899,1577.764 h 95.751"
       id="path284" />
    <path
       d="m 235.43399,1577.906 h 96.061"
       id="path286" />
    <path
       d="m 235.27999,1578.047 h 96.369"
       id="path288" />
    <path
       d="m 235.12499,1578.189 h 96.679"
       id="path290" />
    <path
       d="m 234.96999,1578.331 h 96.989"
       id="path292" />
    <path
       d="m 234.81599,1578.473 h 97.297"
       id="path294" />
    <path
       d="m 234.66099,1578.614 h 97.607"
       id="path296" />
    <path
       d="m 234.50599,1578.756 h 97.917"
       id="path298" />
    <path
       d="m 234.35199,1578.898 h 98.225"
       id="path300" />
    <path
       d="m 234.19699,1579.04 h 98.535"
       id="path302" />
    <path
       d="m 234.04199,1579.181 h 98.845"
       id="path304" />
    <path
       d="m 233.88799,1579.323 h 99.153"
       id="path306" />
    <path
       d="m 233.73299,1579.465 h 99.463"
       id="path308" />
    <path
       d="m 233.57799,1579.606 h 99.773"
       id="path310" />
    <path
       d="m 233.42299,1579.748 h 100.082"
       id="path312" />
    <path
       d="m 233.28299,1579.89 h 100.363"
       id="path314" />
    <path
       d="m 233.15299,1580.032 h 100.623"
       id="path316" />
    <path
       d="m 233.02299,1580.173 h 100.883"
       id="path318" />
    <path
       d="m 232.89299,1580.315 h 101.143"
       id="path320" />
    <path
       d="m 232.76299,1580.457 h 101.403"
       id="path322" />
    <path
       d="m 232.63299,1580.599 h 101.663"
       id="path324" />
    <path
       d="m 232.50299,1580.74 h 101.922"
       id="path326" />
    <path
       d="m 232.37299,1580.882 h 102.182"
       id="path328" />
    <path
       d="m 232.24399,1581.024 h 102.441"
       id="path330" />
    <path
       d="m 232.11399,1581.165 h 102.701"
       id="path332" />
    <path
       d="m 231.98399,1581.307 h 102.961"
       id="path334" />
    <path
       d="m 231.85399,1581.449 h 103.221"
       id="path336" />
    <path
       d="m 231.72399,1581.591 h 103.481"
       id="path338" />
    <path
       d="m 231.59399,1581.732 h 103.741"
       id="path340" />
    <path
       d="m 231.46399,1581.874 h 104.001"
       id="path342" />
    <path
       d="m 231.33399,1582.016 h 104.26"
       id="path344" />
    <path
       d="m 231.20499,1582.158 h 104.519"
       id="path346" />
    <path
       d="m 231.07499,1582.299 h 104.779"
       id="path348" />
    <path
       d="m 230.94499,1582.441 h 105.039"
       id="path350" />
    <path
       d="m 230.81499,1582.583 h 105.299"
       id="path352" />
    <path
       d="m 230.68499,1582.725 h 105.559"
       id="path354" />
    <path
       d="m 230.55499,1582.866 h 105.819"
       id="path356" />
    <path
       d="m 230.42499,1583.008 h 106.078"
       id="path358" />
    <path
       d="m 230.29499,1583.15 h 106.338"
       id="path360" />
    <path
       d="m 230.16599,1583.291 h 106.597"
       id="path362" />
    <path
       d="m 230.03599,1583.433 h 106.857"
       id="path364" />
    <path
       d="m 229.90599,1583.575 h 107.117"
       id="path366" />
    <path
       d="m 229.77599,1583.717 h 107.377"
       id="path368" />
    <path
       d="m 229.64599,1583.858 h 107.637"
       id="path370" />
    <path
       d="m 229.51599,1584 h 107.897"
       id="path372" />
    <path
       d="m 229.38599,1584.142 h 108.156"
       id="path374" />
    <path
       d="m 229.25599,1584.284 h 108.416"
       id="path376" />
    <path
       d="m 229.13499,1584.425 h 108.659"
       id="path378" />
    <path
       d="m 229.02599,1584.567 h 108.877"
       id="path380" />
    <path
       d="m 228.91699,1584.709 h 109.094"
       id="path382" />
    <path
       d="m 228.80899,1584.851 h 109.311"
       id="path384" />
    <path
       d="m 228.69999,1584.992 h 109.529"
       id="path386" />
    <path
       d="m 228.59099,1585.134 h 109.747"
       id="path388" />
    <path
       d="m 228.48199,1585.276 h 109.964"
       id="path390" />
    <path
       d="m 228.37399,1585.417 h 110.181"
       id="path392" />
    <path
       d="m 228.26499,1585.559 h 110.399"
       id="path394" />
    <path
       d="m 228.15599,1585.701 h 110.617"
       id="path396" />
    <path
       d="m 228.04699,1585.843 h 110.834"
       id="path398" />
    <path
       d="m 227.93899,1585.984 h 111.051"
       id="path400" />
    <path
       d="m 227.82999,1586.126 h 111.269"
       id="path402" />
    <path
       d="m 227.72099,1586.268 h 111.487"
       id="path404" />
    <path
       d="m 227.61199,1586.41 h 111.704"
       id="path406" />
    <path
       d="m 227.50399,1586.551 h 111.921"
       id="path408" />
    <path
       d="m 227.39499,1586.693 h 112.139"
       id="path410" />
    <path
       d="m 227.28599,1586.835 h 112.357"
       id="path412" />
    <path
       d="m 227.17699,1586.977 h 112.574"
       id="path414" />
    <path
       d="m 227.06899,1587.118 h 112.791"
       id="path416" />
    <path
       d="m 226.95999,1587.26 h 113.009"
       id="path418" />
    <path
       d="m 226.85099,1587.402 h 113.227"
       id="path420" />
    <path
       d="m 226.74199,1587.543 h 113.444"
       id="path422" />
    <path
       d="m 226.63399,1587.685 h 113.661"
       id="path424" />
    <path
       d="m 226.52499,1587.827 h 113.879"
       id="path426" />
    <path
       d="m 226.41599,1587.969 h 114.097"
       id="path428" />
    <path
       d="m 226.30699,1588.11 h 114.315"
       id="path430" />
    <path
       d="m 226.19899,1588.252 h 114.531"
       id="path432" />
    <path
       d="m 226.08999,1588.394 h 114.749"
       id="path434" />
    <path
       d="m 225.98099,1588.536 h 114.967"
       id="path436" />
    <path
       d="m 225.87199,1588.677 h 115.184"
       id="path438" />
    <path
       d="m 225.76399,1588.819 h 115.401"
       id="path440" />
    <path
       d="m 225.65499,1588.961 h 115.619"
       id="path442" />
    <path
       d="m 225.54599,1589.103 h 115.837"
       id="path444" />
    <path
       d="m 225.43699,1589.244 h 116.055"
       id="path446" />
    <path
       d="m 225.34299,1589.386 h 116.243"
       id="path448" />
    <path
       d="m 225.25299,1589.528 h 116.423"
       id="path450" />
    <path
       d="m 225.16299,1589.669 h 116.603"
       id="path452" />
    <path
       d="m 225.07199,1589.811 h 116.785"
       id="path454" />
    <path
       d="m 224.98199,1589.953 h 116.965"
       id="path456" />
    <path
       d="m 224.89199,1590.095 h 117.145"
       id="path458" />
    <path
       d="m 224.80099,1590.236 h 117.327"
       id="path460" />
    <path
       d="m 224.71099,1590.378 h 117.507"
       id="path462" />
    <path
       d="m 224.62099,1590.52 h 117.687"
       id="path464" />
    <path
       d="m 224.52999,1590.662 h 117.868"
       id="path466" />
    <path
       d="m 224.43999,1590.803 h 118.049"
       id="path468" />
    <path
       d="m 224.34999,1590.945 h 118.229"
       id="path470" />
    <path
       d="m 224.25999,1591.087 h 118.409"
       id="path472" />
    <path
       d="m 224.16899,1591.229 h 118.591"
       id="path474" />
    <path
       d="m 224.07899,1591.37 h 118.771"
       id="path476" />
    <path
       d="m 223.98899,1591.512 h 118.951"
       id="path478" />
    <path
       d="m 223.89799,1591.654 h 119.132"
       id="path480" />
    <path
       d="m 223.80799,1591.795 h 119.313"
       id="path482" />
    <path
       d="m 223.71799,1591.937 h 119.493"
       id="path484" />
    <path
       d="m 223.62699,1592.079 h 119.674"
       id="path486" />
    <path
       d="m 223.53699,1592.221 h 119.855"
       id="path488" />
    <path
       d="m 223.44699,1592.362 h 120.035"
       id="path490" />
    <path
       d="m 223.35699,1592.504 h 120.215"
       id="path492" />
    <path
       d="m 223.26599,1592.646 h 120.396"
       id="path494" />
    <path
       d="m 223.17599,1592.788 h 120.577"
       id="path496" />
    <path
       d="m 223.08599,1592.929 h 120.757"
       id="path498" />
    <path
       d="m 222.99499,1593.071 h 120.938"
       id="path500" />
    <path
       d="m 222.90499,1593.213 h 121.119"
       id="path502" />
    <path
       d="m 222.81499,1593.355 h 121.299"
       id="path504" />
    <path
       d="m 222.72499,1593.496 h 121.479"
       id="path506" />
    <path
       d="m 222.63399,1593.638 h 121.66"
       id="path508" />
    <path
       d="m 222.54399,1593.78 h 121.841"
       id="path510" />
    <path
       d="m 222.45399,1593.921 h 122.021"
       id="path512" />
    <path
       d="m 222.36299,1594.063 h 122.202"
       id="path514" />
    <path
       d="m 222.27299,1594.205 h 122.383"
       id="path516" />
    <path
       d="m 222.18299,1594.347 h 122.563"
       id="path518" />
    <path
       d="m 222.09299,1594.488 h 122.743"
       id="path520" />
    <path
       d="m 222.01899,1594.63 h 122.891"
       id="path522" />
    <path
       d="m 221.94499,1594.772 h 123.039"
       id="path524" />
    <path
       d="m 221.87099,1594.914 h 123.187"
       id="path526" />
    <path
       d="m 221.79699,1595.055 h 123.334"
       id="path528" />
    <path
       d="m 221.72399,1595.197 h 123.481"
       id="path530" />
    <path
       d="m 221.64999,1595.339 h 123.629"
       id="path532" />
    <path
       d="m 221.57599,1595.481 h 123.777"
       id="path534" />
    <path
       d="m 221.50199,1595.622 h 123.925"
       id="path536" />
    <path
       d="m 221.42799,1595.764 h 124.072"
       id="path538" />
    <path
       d="m 221.35499,1595.906 h 124.219"
       id="path540" />
    <path
       d="m 221.28099,1596.047 h 124.367"
       id="path542" />
    <path
       d="m 221.20699,1596.189 h 124.515"
       id="path544" />
    <path
       d="m 221.13299,1596.331 h 124.662"
       id="path546" />
    <path
       d="m 221.05999,1596.473 h 124.809"
       id="path548" />
    <path
       d="m 220.98599,1596.614 h 124.957"
       id="path550" />
    <path
       d="m 220.91199,1596.756 h 125.105"
       id="path552" />
    <path
       d="m 220.83799,1596.898 h 125.253"
       id="path554" />
    <path
       d="m 220.76399,1597.04 h 125.4"
       id="path556" />
    <path
       d="m 220.69099,1597.181 h 125.547"
       id="path558" />
    <path
       d="m 220.61699,1597.323 h 125.695"
       id="path560" />
    <path
       d="m 220.54299,1597.465 h 125.843"
       id="path562" />
    <path
       d="m 220.46899,1597.606 h 125.99"
       id="path564" />
    <path
       d="m 220.39599,1597.748 h 126.137"
       id="path566" />
    <path
       d="m 220.32199,1597.89 h 126.285"
       id="path568" />
    <path
       d="m 220.24799,1598.032 h 126.433"
       id="path570" />
    <path
       d="m 220.17399,1598.173 h 126.581"
       id="path572" />
    <path
       d="m 220.09999,1598.315 h 126.728"
       id="path574" />
    <path
       d="m 220.02699,1598.457 h 126.875"
       id="path576" />
    <path
       d="m 219.95299,1598.599 h 127.023"
       id="path578" />
    <path
       d="m 219.87899,1598.74 h 127.171"
       id="path580" />
    <path
       d="m 219.80499,1598.882 h 127.319"
       id="path582" />
    <path
       d="m 219.73199,1599.024 h 127.465"
       id="path584" />
    <path
       d="m 219.65799,1599.166 h 127.613"
       id="path586" />
    <path
       d="m 219.58399,1599.307 h 127.761"
       id="path588" />
    <path
       d="m 219.50999,1599.449 h 127.909"
       id="path590" />
    <path
       d="m 219.43599,1599.591 h 128.056"
       id="path592" />
    <path
       d="m 219.36299,1599.732 h 128.203"
       id="path594" />
    <path
       d="m 219.28899,1599.874 h 128.351"
       id="path596" />
    <path
       d="m 219.21999,1600.016 h 128.489"
       id="path598" />
    <path
       d="m 219.16099,1600.158 h 128.607"
       id="path600" />
    <path
       d="m 219.10199,1600.299 h 128.724"
       id="path602" />
    <path
       d="m 219.04399,1600.441 h 128.841"
       id="path604" />
    <path
       d="m 218.98499,1600.583 h 128.959"
       id="path606" />
    <path
       d="m 218.92599,1600.725 h 129.077"
       id="path608" />
    <path
       d="m 218.86699,1600.866 h 129.194"
       id="path610" />
    <path
       d="m 218.80899,1601.008 h 129.311"
       id="path612" />
    <path
       d="m 218.74999,1601.15 h 129.429"
       id="path614" />
    <path
       d="m 218.69099,1601.292 h 129.546"
       id="path616" />
    <path
       d="m 218.63299,1601.433 h 129.663"
       id="path618" />
    <path
       d="m 218.57399,1601.575 h 129.781"
       id="path620" />
    <path
       d="m 218.51499,1601.717 h 129.899"
       id="path622" />
    <path
       d="m 218.45699,1601.858 h 130.015"
       id="path624" />
    <path
       d="m 218.39799,1602 h 130.133"
       id="path626" />
    <path
       d="m 218.33899,1602.142 h 130.251"
       id="path628" />
    <path
       d="m 218.27999,1602.284 h 130.368"
       id="path630" />
    <path
       d="m 218.22199,1602.425 h 130.485"
       id="path632" />
    <path
       d="m 218.16299,1602.567 h 130.603"
       id="path634" />
    <path
       d="m 218.10399,1602.709 h 130.72"
       id="path636" />
    <path
       d="m 218.04599,1602.851 h 130.837"
       id="path638" />
    <path
       d="m 217.98699,1602.992 h 130.955"
       id="path640" />
    <path
       d="m 217.92799,1603.134 h 131.073"
       id="path642" />
    <path
       d="m 217.86899,1603.276 h 131.19"
       id="path644" />
    <path
       d="m 217.81099,1603.417 h 131.307"
       id="path646" />
    <path
       d="m 217.75199,1603.559 h 131.425"
       id="path648" />
    <path
       d="m 217.69299,1603.701 h 131.542"
       id="path650" />
    <path
       d="m 217.63499,1603.843 h 131.659"
       id="path652" />
    <path
       d="m 217.57599,1603.984 h 131.777"
       id="path654" />
    <path
       d="m 217.51699,1604.126 h 131.895"
       id="path656" />
    <path
       d="m 217.45899,1604.268 h 132.011"
       id="path658" />
    <path
       d="m 217.39999,1604.41 h 132.129"
       id="path660" />
    <path
       d="m 217.34099,1604.551 h 132.247"
       id="path662" />
    <path
       d="m 217.28199,1604.693 h 132.364"
       id="path664" />
    <path
       d="m 217.22399,1604.835 h 132.481"
       id="path666" />
    <path
       d="m 217.16499,1604.977 h 132.599"
       id="path668" />
    <path
       d="m 217.10599,1605.118 h 132.717"
       id="path670" />
    <path
       d="m 217.04799,1605.26 h 132.833"
       id="path672" />
    <path
       d="m 216.98899,1605.402 h 132.951"
       id="path674" />
    <path
       d="m 216.92999,1605.543 h 133.069"
       id="path676" />
    <path
       d="m 216.87199,1605.685 h 133.185"
       id="path678" />
    <path
       d="m 216.82699,1605.827 h 133.275"
       id="path680" />
    <path
       d="m 216.78199,1605.969 h 133.365"
       id="path682" />
    <path
       d="m 216.73799,1606.11 h 133.453"
       id="path684" />
    <path
       d="m 216.69299,1606.252 h 133.543"
       id="path686" />
    <path
       d="m 216.64799,1606.394 h 133.633"
       id="path688" />
    <path
       d="m 216.60299,1606.536 h 133.722"
       id="path690" />
    <path
       d="m 216.55899,1606.677 h 133.811"
       id="path692" />
    <path
       d="m 216.51399,1606.819 h 133.901"
       id="path694" />
    <path
       d="m 216.46899,1606.961 h 133.99"
       id="path696" />
    <path
       d="m 216.42499,1607.103 h 134.079"
       id="path698" />
    <path
       d="m 216.37999,1607.244 h 134.169"
       id="path700" />
    <path
       d="m 216.33499,1607.386 h 134.258"
       id="path702" />
    <path
       d="m 216.29099,1607.528 h 134.347"
       id="path704" />
    <path
       d="m 216.24599,1607.669 h 134.437"
       id="path706" />
    <path
       d="m 216.20099,1607.811 h 134.527"
       id="path708" />
    <path
       d="m 216.15699,1607.953 h 134.615"
       id="path710" />
    <path
       d="m 216.11199,1608.095 h 134.705"
       id="path712" />
    <path
       d="m 216.06699,1608.236 h 134.795"
       id="path714" />
    <path
       d="m 216.02299,1608.378 h 134.883"
       id="path716" />
    <path
       d="m 215.97799,1608.52 h 134.973"
       id="path718" />
    <path
       d="m 215.93299,1608.662 h 135.063"
       id="path720" />
    <path
       d="m 215.88799,1608.803 h 135.152"
       id="path722" />
    <path
       d="m 215.84399,1608.945 h 135.241"
       id="path724" />
    <path
       d="m 215.79899,1609.087 h 135.331"
       id="path726" />
    <path
       d="m 215.75399,1609.229 h 135.42"
       id="path728" />
    <path
       d="m 215.70999,1609.37 h 135.509"
       id="path730" />
    <path
       d="m 215.66499,1609.512 h 135.599"
       id="path732" />
    <path
       d="m 215.61999,1609.654 h 135.689"
       id="path734" />
    <path
       d="m 215.57599,1609.795 h 135.777"
       id="path736" />
    <path
       d="m 215.53099,1609.937 h 135.867"
       id="path738" />
    <path
       d="m 215.48599,1610.079 h 135.957"
       id="path740" />
    <path
       d="m 215.44199,1610.221 h 136.045"
       id="path742" />
    <path
       d="m 215.39699,1610.362 h 136.135"
       id="path744" />
    <path
       d="m 215.35199,1610.504 h 136.225"
       id="path746" />
    <path
       d="m 215.30799,1610.646 h 136.313"
       id="path748" />
    <path
       d="m 215.26299,1610.788 h 136.403"
       id="path750" />
    <path
       d="m 215.21799,1610.929 h 136.493"
       id="path752" />
    <path
       d="m 215.17299,1611.071 h 136.582"
       id="path754" />
    <path
       d="m 215.12899,1611.213 h 136.671"
       id="path756" />
    <path
       d="m 215.08399,1611.355 h 136.761"
       id="path758" />
    <path
       d="m 215.03899,1611.496 h 136.85"
       id="path760" />
    <path
       d="m 214.99999,1611.638 h 136.929"
       id="path762" />
    <path
       d="m 214.96899,1611.78 h 136.991"
       id="path764" />
    <path
       d="m 214.93699,1611.921 h 137.055"
       id="path766" />
    <path
       d="m 214.90599,1612.063 h 137.117"
       id="path768" />
    <path
       d="m 214.87399,1612.205 h 137.18"
       id="path770" />
    <path
       d="m 214.84299,1612.347 h 137.243"
       id="path772" />
    <path
       d="m 214.81199,1612.488 h 137.305"
       id="path774" />
    <path
       d="m 214.77999,1612.63 h 137.369"
       id="path776" />
    <path
       d="m 214.74899,1612.772 h 137.431"
       id="path778" />
    <path
       d="m 214.71699,1612.914 h 137.494"
       id="path780" />
    <path
       d="m 214.68599,1613.055 h 137.557"
       id="path782" />
    <path
       d="m 214.65499,1613.197 h 137.619"
       id="path784" />
    <path
       d="m 214.62299,1613.339 h 137.683"
       id="path786" />
    <path
       d="m 214.59199,1613.481 h 137.745"
       id="path788" />
    <path
       d="m 214.55999,1613.622 h 137.809"
       id="path790" />
    <path
       d="m 214.52899,1613.764 h 137.871"
       id="path792" />
    <path
       d="m 214.49699,1613.906 h 137.934"
       id="path794" />
    <path
       d="m 214.46599,1614.047 h 137.997"
       id="path796" />
    <path
       d="m 214.43499,1614.189 h 138.059"
       id="path798" />
    <path
       d="m 214.40299,1614.331 h 138.123"
       id="path800" />
    <path
       d="m 214.37199,1614.473 h 138.185"
       id="path802" />
    <path
       d="m 214.33999,1614.614 h 138.249"
       id="path804" />
    <path
       d="m 214.30899,1614.756 h 138.311"
       id="path806" />
    <path
       d="m 214.27699,1614.898 h 138.374"
       id="path808" />
    <path
       d="m 214.24599,1615.04 h 138.437"
       id="path810" />
    <path
       d="m 214.21499,1615.181 h 138.499"
       id="path812" />
    <path
       d="m 214.18299,1615.323 h 138.563"
       id="path814" />
    <path
       d="m 214.15199,1615.465 h 138.625"
       id="path816" />
    <path
       d="m 214.11999,1615.607 h 138.688"
       id="path818" />
    <path
       d="m 214.08899,1615.748 h 138.751"
       id="path820" />
    <path
       d="m 214.05699,1615.89 h 138.814"
       id="path822" />
    <path
       d="m 214.02599,1616.032 h 138.877"
       id="path824" />
    <path
       d="m 213.99499,1616.173 h 138.939"
       id="path826" />
    <path
       d="m 213.96299,1616.315 h 139.003"
       id="path828" />
    <path
       d="m 213.93199,1616.457 h 139.065"
       id="path830" />
    <path
       d="m 213.89999,1616.599 h 139.128"
       id="path832" />
    <path
       d="m 213.86899,1616.74 h 139.191"
       id="path834" />
    <path
       d="m 213.83699,1616.882 h 139.254"
       id="path836" />
    <path
       d="m 213.80599,1617.024 h 139.317"
       id="path838" />
    <path
       d="m 213.77499,1617.166 h 139.379"
       id="path840" />
    <path
       d="m 213.74299,1617.307 h 139.443"
       id="path842" />
    <path
       d="m 213.71199,1617.449 h 139.505"
       id="path844" />
    <path
       d="m 213.67999,1617.591 h 139.568"
       id="path846" />
    <path
       d="m 213.65899,1617.732 h 139.61"
       id="path848" />
    <path
       d="m 213.64099,1617.874 h 139.647"
       id="path850" />
    <path
       d="m 213.62199,1618.016 h 139.685"
       id="path852" />
    <path
       d="m 213.60299,1618.158 h 139.722"
       id="path854" />
    <path
       d="m 213.58499,1618.299 h 139.759"
       id="path856" />
    <path
       d="m 213.56599,1618.441 h 139.797"
       id="path858" />
    <path
       d="m 213.54699,1618.583 h 139.834"
       id="path860" />
    <path
       d="m 213.52899,1618.725 h 139.871"
       id="path862" />
    <path
       d="m 213.50999,1618.866 h 139.909"
       id="path864" />
    <path
       d="m 213.49199,1619.008 h 139.945"
       id="path866" />
    <path
       d="m 213.47299,1619.15 h 139.983"
       id="path868" />
    <path
       d="m 213.45399,1619.292 h 140.021"
       id="path870" />
    <path
       d="m 213.43599,1619.433 h 140.057"
       id="path872" />
    <path
       d="m 213.41699,1619.575 h 140.095"
       id="path874" />
    <path
       d="m 213.39799,1619.717 h 140.133"
       id="path876" />
    <path
       d="m 213.37999,1619.858 h 140.169"
       id="path878" />
    <path
       d="m 213.36099,1620 h 140.207"
       id="path880" />
    <path
       d="m 213.34199,1620.142 h 140.245"
       id="path882" />
    <path
       d="m 213.32399,1620.284 h 140.281"
       id="path884" />
    <path
       d="m 213.30499,1620.425 h 140.319"
       id="path886" />
    <path
       d="m 213.28599,1620.567 h 140.356"
       id="path888" />
    <path
       d="m 213.26799,1620.709 h 140.393"
       id="path890" />
    <path
       d="m 213.24899,1620.851 h 140.431"
       id="path892" />
    <path
       d="m 213.22999,1620.992 h 140.468"
       id="path894" />
    <path
       d="m 213.21199,1621.134 h 140.505"
       id="path896" />
    <path
       d="m 213.19299,1621.276 h 140.543"
       id="path898" />
    <path
       d="m 213.17399,1621.418 h 140.58"
       id="path900" />
    <path
       d="m 213.15599,1621.559 h 140.617"
       id="path902" />
    <path
       d="m 213.13699,1621.701 h 140.655"
       id="path904" />
    <path
       d="m 213.11799,1621.843 h 140.692"
       id="path906" />
    <path
       d="m 213.09999,1621.984 h 140.729"
       id="path908" />
    <path
       d="m 213.08099,1622.126 h 140.767"
       id="path910" />
    <path
       d="m 213.06199,1622.268 h 140.804"
       id="path912" />
    <path
       d="m 213.04399,1622.41 h 140.841"
       id="path914" />
    <path
       d="m 213.02499,1622.551 h 140.879"
       id="path916" />
    <path
       d="m 213.00599,1622.693 h 140.916"
       id="path918" />
    <path
       d="m 212.98799,1622.835 h 140.953"
       id="path920" />
    <path
       d="m 212.96899,1622.977 h 140.991"
       id="path922" />
    <path
       d="m 212.94999,1623.118 h 141.028"
       id="path924" />
    <path
       d="m 212.93199,1623.26 h 141.065"
       id="path926" />
    <path
       d="m 212.91299,1623.402 h 141.103"
       id="path928" />
    <path
       d="m 212.89399,1623.543 h 141.14"
       id="path930" />
    <path
       d="m 212.87599,1623.685 h 141.177"
       id="path932" />
    <path
       d="m 212.86399,1623.827 h 141.2"
       id="path934" />
    <path
       d="m 212.85799,1623.969 h 141.213"
       id="path936" />
    <path
       d="m 212.85199,1624.11 h 141.225"
       id="path938" />
    <path
       d="m 212.84599,1624.252 h 141.237"
       id="path940" />
    <path
       d="m 212.83999,1624.394 h 141.249"
       id="path942" />
    <path
       d="m 212.83299,1624.536 h 141.262"
       id="path944" />
    <path
       d="m 212.82699,1624.677 h 141.275"
       id="path946" />
    <path
       d="m 212.82099,1624.819 h 141.287"
       id="path948" />
    <path
       d="m 212.81499,1624.961 h 141.299"
       id="path950" />
    <path
       d="m 212.80899,1625.103 h 141.311"
       id="path952" />
    <path
       d="m 212.80199,1625.244 h 141.324"
       id="path954" />
    <path
       d="m 212.79599,1625.386 h 141.337"
       id="path956" />
    <path
       d="m 212.78999,1625.528 h 141.349"
       id="path958" />
    <path
       d="m 212.78399,1625.669 h 141.361"
       id="path960" />
    <path
       d="m 212.77799,1625.811 h 141.373"
       id="path962" />
    <path
       d="m 212.77199,1625.953 h 141.385"
       id="path964" />
    <path
       d="m 212.76499,1626.095 h 141.399"
       id="path966" />
    <path
       d="m 212.75899,1626.236 h 141.411"
       id="path968" />
    <path
       d="m 212.75299,1626.378 h 141.423"
       id="path970" />
    <path
       d="m 212.74699,1626.52 h 141.435"
       id="path972" />
    <path
       d="m 212.74099,1626.662 h 141.447"
       id="path974" />
    <path
       d="m 212.73399,1626.803 h 141.46"
       id="path976" />
    <path
       d="m 212.72799,1626.945 h 141.473"
       id="path978" />
    <path
       d="m 212.72199,1627.087 h 141.485"
       id="path980" />
    <path
       d="m 212.71599,1627.228 h 141.497"
       id="path982" />
    <path
       d="m 212.70999,1627.37 h 141.509"
       id="path984" />
    <path
       d="m 212.70299,1627.512 h 141.522"
       id="path986" />
    <path
       d="m 212.69699,1627.654 h 141.535"
       id="path988" />
    <path
       d="m 212.69099,1627.795 h 141.547"
       id="path990" />
    <path
       d="m 212.68499,1627.937 h 141.559"
       id="path992" />
    <path
       d="m 212.67899,1628.079 h 141.571"
       id="path994" />
    <path
       d="m 212.67199,1628.221 h 141.584"
       id="path996" />
    <path
       d="m 212.66599,1628.362 h 141.596"
       id="path998" />
    <path
       d="m 212.65999,1628.504 h 141.609"
       id="path1000" />
    <path
       d="m 212.65399,1628.646 h 141.621"
       id="path1002" />
    <path
       d="m 212.64799,1628.788 h 141.633"
       id="path1004" />
    <path
       d="m 212.64199,1628.929 h 141.645"
       id="path1006" />
    <path
       d="m 212.63499,1629.071 h 141.658"
       id="path1008" />
    <path
       d="m 212.62899,1629.213 h 141.671"
       id="path1010" />
    <path
       d="m 212.62299,1629.354 h 141.683"
       id="path1012" />
    <path
       d="m 212.61699,1629.496 h 141.695"
       id="path1014" />
    <path
       d="m 212.61099,1629.638 h 141.707"
       id="path1016" />
    <path
       d="m 212.60399,1629.78 h 141.72"
       id="path1018" />
    <path
       d="m 212.59799,1629.921 h 141.733"
       id="path1020" />
    <path
       d="m 212.60399,1630.063 h 141.72"
       id="path1022" />
    <path
       d="m 212.61099,1630.205 h 141.707"
       id="path1024" />
    <path
       d="m 212.61699,1630.347 h 141.695"
       id="path1026" />
    <path
       d="m 212.62299,1630.488 h 141.683"
       id="path1028" />
    <path
       d="m 212.62899,1630.63 h 141.671"
       id="path1030" />
    <path
       d="m 212.63499,1630.772 h 141.658"
       id="path1032" />
    <path
       d="m 212.64199,1630.914 h 141.645"
       id="path1034" />
    <path
       d="m 212.64799,1631.055 h 141.633"
       id="path1036" />
    <path
       d="m 212.65399,1631.197 h 141.621"
       id="path1038" />
    <path
       d="m 212.65999,1631.339 h 141.609"
       id="path1040" />
    <path
       d="m 212.66599,1631.48 h 141.596"
       id="path1042" />
    <path
       d="m 212.67199,1631.622 h 141.584"
       id="path1044" />
    <path
       d="m 212.67899,1631.764 h 141.571"
       id="path1046" />
    <path
       d="m 212.68499,1631.906 h 141.559"
       id="path1048" />
    <path
       d="m 212.69099,1632.047 h 141.547"
       id="path1050" />
    <path
       d="m 212.69699,1632.189 h 141.535"
       id="path1052" />
    <path
       d="m 212.70299,1632.331 h 141.522"
       id="path1054" />
    <path
       d="m 212.70999,1632.473 h 141.509"
       id="path1056" />
    <path
       d="m 212.71599,1632.614 h 141.497"
       id="path1058" />
    <path
       d="m 212.72199,1632.756 h 141.485"
       id="path1060" />
    <path
       d="m 212.72799,1632.898 h 141.473"
       id="path1062" />
    <path
       d="m 212.73399,1633.04 h 141.46"
       id="path1064" />
    <path
       d="m 212.74099,1633.181 h 141.447"
       id="path1066" />
    <path
       d="m 212.74699,1633.323 h 141.435"
       id="path1068" />
    <path
       d="m 212.75299,1633.465 h 141.423"
       id="path1070" />
    <path
       d="m 212.75899,1633.606 h 141.411"
       id="path1072" />
    <path
       d="m 212.76499,1633.748 h 141.399"
       id="path1074" />
    <path
       d="m 212.77199,1633.89 h 141.385"
       id="path1076" />
    <path
       d="m 212.77799,1634.032 h 141.373"
       id="path1078" />
    <path
       d="m 212.78399,1634.173 h 141.361"
       id="path1080" />
    <path
       d="m 212.78999,1634.315 h 141.349"
       id="path1082" />
    <path
       d="m 212.79599,1634.457 h 141.337"
       id="path1084" />
    <path
       d="m 212.80199,1634.599 h 141.324"
       id="path1086" />
    <path
       d="m 212.80899,1634.74 h 141.311"
       id="path1088" />
    <path
       d="m 212.81499,1634.882 h 141.299"
       id="path1090" />
    <path
       d="m 212.82099,1635.024 h 141.287"
       id="path1092" />
    <path
       d="m 212.82699,1635.166 h 141.275"
       id="path1094" />
    <path
       d="m 212.83299,1635.307 h 141.262"
       id="path1096" />
    <path
       d="m 212.83999,1635.449 h 141.249"
       id="path1098" />
    <path
       d="m 212.84599,1635.591 h 141.237"
       id="path1100" />
    <path
       d="m 212.85199,1635.732 h 141.225"
       id="path1102" />
    <path
       d="m 212.85799,1635.874 h 141.213"
       id="path1104" />
    <path
       d="m 212.86399,1636.016 h 141.2"
       id="path1106" />
    <path
       d="m 212.87599,1636.158 h 141.177"
       id="path1108" />
    <path
       d="m 212.89399,1636.299 h 141.14"
       id="path1110" />
    <path
       d="m 212.91299,1636.441 h 141.103"
       id="path1112" />
    <path
       d="m 212.93199,1636.583 h 141.065"
       id="path1114" />
    <path
       d="m 212.94999,1636.725 h 141.028"
       id="path1116" />
    <path
       d="m 212.96899,1636.866 h 140.991"
       id="path1118" />
    <path
       d="m 212.98799,1637.008 h 140.953"
       id="path1120" />
    <path
       d="m 213.00599,1637.15 h 140.916"
       id="path1122" />
    <path
       d="m 213.02499,1637.292 h 140.879"
       id="path1124" />
    <path
       d="m 213.04399,1637.433 h 140.841"
       id="path1126" />
    <path
       d="m 213.06199,1637.575 h 140.804"
       id="path1128" />
    <path
       d="m 213.08099,1637.717 h 140.767"
       id="path1130" />
    <path
       d="m 213.09999,1637.858 h 140.729"
       id="path1132" />
    <path
       d="m 213.11799,1638 h 140.692"
       id="path1134" />
    <path
       d="m 213.13699,1638.142 h 140.655"
       id="path1136" />
    <path
       d="m 213.15599,1638.284 h 140.617"
       id="path1138" />
    <path
       d="m 213.17399,1638.425 h 140.581"
       id="path1140" />
    <path
       d="m 213.19299,1638.567 h 140.543"
       id="path1142" />
    <path
       d="m 213.21199,1638.709 h 140.505"
       id="path1144" />
    <path
       d="m 213.22999,1638.851 h 140.469"
       id="path1146" />
    <path
       d="m 213.24899,1638.992 h 140.431"
       id="path1148" />
    <path
       d="m 213.26799,1639.134 h 140.393"
       id="path1150" />
    <path
       d="m 213.28599,1639.276 h 140.357"
       id="path1152" />
    <path
       d="m 213.30499,1639.418 h 140.319"
       id="path1154" />
    <path
       d="m 213.32399,1639.559 h 140.281"
       id="path1156" />
    <path
       d="m 213.34199,1639.701 h 140.245"
       id="path1158" />
    <path
       d="m 213.36099,1639.843 h 140.207"
       id="path1160" />
    <path
       d="m 213.37999,1639.984 h 140.169"
       id="path1162" />
    <path
       d="m 213.39799,1640.126 h 140.133"
       id="path1164" />
    <path
       d="m 213.41699,1640.268 h 140.095"
       id="path1166" />
    <path
       d="m 213.43599,1640.41 h 140.057"
       id="path1168" />
    <path
       d="m 213.45399,1640.551 h 140.021"
       id="path1170" />
    <path
       d="m 213.47299,1640.693 h 139.983"
       id="path1172" />
    <path
       d="m 213.49199,1640.835 h 139.945"
       id="path1174" />
    <path
       d="m 213.50999,1640.977 h 139.909"
       id="path1176" />
    <path
       d="m 213.52899,1641.118 h 139.871"
       id="path1178" />
    <path
       d="m 213.54799,1641.26 h 139.833"
       id="path1180" />
    <path
       d="m 213.56599,1641.402 h 139.797"
       id="path1182" />
    <path
       d="m 213.58499,1641.544 h 139.759"
       id="path1184" />
    <path
       d="m 213.60399,1641.685 h 139.721"
       id="path1186" />
    <path
       d="m 213.62199,1641.827 h 139.685"
       id="path1188" />
    <path
       d="m 213.64099,1641.969 h 139.647"
       id="path1190" />
    <path
       d="m 213.65999,1642.11 h 139.609"
       id="path1192" />
    <path
       d="m 213.67999,1642.252 h 139.568"
       id="path1194" />
    <path
       d="m 213.71199,1642.394 h 139.505"
       id="path1196" />
    <path
       d="m 213.74299,1642.536 h 139.443"
       id="path1198" />
    <path
       d="m 213.77499,1642.677 h 139.379"
       id="path1200" />
    <path
       d="m 213.80599,1642.819 h 139.317"
       id="path1202" />
    <path
       d="m 213.83799,1642.961 h 139.253"
       id="path1204" />
    <path
       d="m 213.86899,1643.103 h 139.191"
       id="path1206" />
    <path
       d="m 213.89999,1643.244 h 139.128"
       id="path1208" />
    <path
       d="m 213.93199,1643.386 h 139.065"
       id="path1210" />
    <path
       d="m 213.96299,1643.528 h 139.003"
       id="path1212" />
    <path
       d="m 213.99499,1643.669 h 138.939"
       id="path1214" />
    <path
       d="m 214.02599,1643.811 h 138.877"
       id="path1216" />
    <path
       d="m 214.05699,1643.953 h 138.814"
       id="path1218" />
    <path
       d="m 214.08899,1644.095 h 138.751"
       id="path1220" />
    <path
       d="m 214.11999,1644.236 h 138.689"
       id="path1222" />
    <path
       d="m 214.15199,1644.378 h 138.625"
       id="path1224" />
    <path
       d="m 214.18299,1644.52 h 138.563"
       id="path1226" />
    <path
       d="m 214.21499,1644.662 h 138.499"
       id="path1228" />
    <path
       d="m 214.24599,1644.803 h 138.437"
       id="path1230" />
    <path
       d="m 214.27699,1644.945 h 138.374"
       id="path1232" />
    <path
       d="m 214.30899,1645.087 h 138.311"
       id="path1234" />
    <path
       d="m 214.33999,1645.229 h 138.249"
       id="path1236" />
    <path
       d="m 214.37199,1645.37 h 138.185"
       id="path1238" />
    <path
       d="m 214.40299,1645.512 h 138.123"
       id="path1240" />
    <path
       d="m 214.43499,1645.654 h 138.059"
       id="path1242" />
    <path
       d="m 214.46599,1645.795 h 137.997"
       id="path1244" />
    <path
       d="m 214.49699,1645.937 h 137.934"
       id="path1246" />
    <path
       d="m 214.52899,1646.079 h 137.871"
       id="path1248" />
    <path
       d="m 214.55999,1646.221 h 137.809"
       id="path1250" />
    <path
       d="m 214.59199,1646.362 h 137.745"
       id="path1252" />
    <path
       d="m 214.62299,1646.504 h 137.683"
       id="path1254" />
    <path
       d="m 214.65499,1646.646 h 137.619"
       id="path1256" />
    <path
       d="m 214.68599,1646.788 h 137.557"
       id="path1258" />
    <path
       d="m 214.71699,1646.929 h 137.494"
       id="path1260" />
    <path
       d="m 214.74899,1647.071 h 137.431"
       id="path1262" />
    <path
       d="m 214.77999,1647.213 h 137.369"
       id="path1264" />
    <path
       d="m 214.81199,1647.354 h 137.305"
       id="path1266" />
    <path
       d="m 214.84299,1647.496 h 137.243"
       id="path1268" />
    <path
       d="m 214.87399,1647.638 h 137.18"
       id="path1270" />
    <path
       d="m 214.90599,1647.78 h 137.117"
       id="path1272" />
    <path
       d="m 214.93699,1647.921 h 137.055"
       id="path1274" />
    <path
       d="m 214.96899,1648.063 h 136.991"
       id="path1276" />
    <path
       d="m 214.99999,1648.205 h 136.929"
       id="path1278" />
    <path
       d="m 215.03899,1648.347 h 136.85"
       id="path1280" />
    <path
       d="m 215.08399,1648.488 h 136.761"
       id="path1282" />
    <path
       d="m 215.12899,1648.63 h 136.671"
       id="path1284" />
    <path
       d="m 215.17299,1648.772 h 136.582"
       id="path1286" />
    <path
       d="m 215.21799,1648.914 h 136.493"
       id="path1288" />
    <path
       d="m 215.26299,1649.055 h 136.403"
       id="path1290" />
    <path
       d="m 215.30699,1649.197 h 136.314"
       id="path1292" />
    <path
       d="m 215.35199,1649.339 h 136.225"
       id="path1294" />
    <path
       d="m 215.39699,1649.48 h 136.135"
       id="path1296" />
    <path
       d="m 215.44199,1649.622 h 136.045"
       id="path1298" />
    <path
       d="m 215.48599,1649.764 h 135.957"
       id="path1300" />
    <path
       d="m 215.53099,1649.906 h 135.867"
       id="path1302" />
    <path
       d="m 215.57599,1650.047 h 135.777"
       id="path1304" />
    <path
       d="m 215.61999,1650.189 h 135.689"
       id="path1306" />
    <path
       d="m 215.66499,1650.331 h 135.599"
       id="path1308" />
    <path
       d="m 215.70999,1650.473 h 135.509"
       id="path1310" />
    <path
       d="m 215.75399,1650.614 h 135.42"
       id="path1312" />
    <path
       d="m 215.79899,1650.756 h 135.331"
       id="path1314" />
    <path
       d="m 215.84399,1650.898 h 135.241"
       id="path1316" />
    <path
       d="m 215.88799,1651.04 h 135.152"
       id="path1318" />
    <path
       d="m 215.93299,1651.181 h 135.063"
       id="path1320" />
    <path
       d="m 215.97799,1651.323 h 134.973"
       id="path1322" />
    <path
       d="m 216.02299,1651.465 h 134.883"
       id="path1324" />
    <path
       d="m 216.06699,1651.606 h 134.795"
       id="path1326" />
    <path
       d="m 216.11199,1651.748 h 134.705"
       id="path1328" />
    <path
       d="m 216.15699,1651.89 h 134.615"
       id="path1330" />
    <path
       d="m 216.20099,1652.032 h 134.527"
       id="path1332" />
    <path
       d="m 216.24599,1652.173 h 134.437"
       id="path1334" />
    <path
       d="m 216.29099,1652.315 h 134.347"
       id="path1336" />
    <path
       d="m 216.33499,1652.457 h 134.258"
       id="path1338" />
    <path
       d="m 216.37999,1652.599 h 134.169"
       id="path1340" />
    <path
       d="m 216.42499,1652.74 h 134.079"
       id="path1342" />
    <path
       d="m 216.46899,1652.882 h 133.99"
       id="path1344" />
    <path
       d="m 216.51399,1653.024 h 133.901"
       id="path1346" />
    <path
       d="m 216.55899,1653.166 h 133.811"
       id="path1348" />
    <path
       d="m 216.60299,1653.307 h 133.722"
       id="path1350" />
    <path
       d="m 216.64799,1653.449 h 133.633"
       id="path1352" />
    <path
       d="m 216.69299,1653.591 h 133.543"
       id="path1354" />
    <path
       d="m 216.73799,1653.732 h 133.453"
       id="path1356" />
    <path
       d="m 216.78199,1653.874 h 133.365"
       id="path1358" />
    <path
       d="m 216.82699,1654.016 h 133.275"
       id="path1360" />
    <path
       d="m 216.87199,1654.158 h 133.185"
       id="path1362" />
    <path
       d="m 216.92999,1654.299 h 133.069"
       id="path1364" />
    <path
       d="m 216.98899,1654.441 h 132.951"
       id="path1366" />
    <path
       d="m 217.04799,1654.583 h 132.833"
       id="path1368" />
    <path
       d="m 217.10599,1654.725 h 132.717"
       id="path1370" />
    <path
       d="m 217.16499,1654.866 h 132.599"
       id="path1372" />
    <path
       d="m 217.22399,1655.008 h 132.481"
       id="path1374" />
    <path
       d="m 217.28199,1655.15 h 132.364"
       id="path1376" />
    <path
       d="m 217.34099,1655.292 h 132.247"
       id="path1378" />
    <path
       d="m 217.39999,1655.433 h 132.129"
       id="path1380" />
    <path
       d="m 217.45899,1655.575 h 132.011"
       id="path1382" />
    <path
       d="m 217.51699,1655.717 h 131.895"
       id="path1384" />
    <path
       d="m 217.57599,1655.858 h 131.777"
       id="path1386" />
    <path
       d="m 217.63499,1656 h 131.659"
       id="path1388" />
    <path
       d="m 217.69299,1656.142 h 131.542"
       id="path1390" />
    <path
       d="m 217.75199,1656.284 h 131.425"
       id="path1392" />
    <path
       d="m 217.81099,1656.425 h 131.307"
       id="path1394" />
    <path
       d="m 217.86899,1656.567 h 131.19"
       id="path1396" />
    <path
       d="m 217.92799,1656.709 h 131.073"
       id="path1398" />
    <path
       d="m 217.98699,1656.851 h 130.955"
       id="path1400" />
    <path
       d="m 218.04599,1656.992 h 130.837"
       id="path1402" />
    <path
       d="m 218.10399,1657.134 h 130.72"
       id="path1404" />
    <path
       d="m 218.16299,1657.276 h 130.603"
       id="path1406" />
    <path
       d="m 218.22199,1657.418 h 130.485"
       id="path1408" />
    <path
       d="m 218.27999,1657.559 h 130.368"
       id="path1410" />
    <path
       d="m 218.33899,1657.701 h 130.251"
       id="path1412" />
    <path
       d="m 218.39799,1657.843 h 130.133"
       id="path1414" />
    <path
       d="m 218.45699,1657.984 h 130.015"
       id="path1416" />
    <path
       d="m 218.51499,1658.126 h 129.899"
       id="path1418" />
    <path
       d="m 218.57399,1658.268 h 129.781"
       id="path1420" />
    <path
       d="m 218.63299,1658.41 h 129.663"
       id="path1422" />
    <path
       d="m 218.69099,1658.551 h 129.546"
       id="path1424" />
    <path
       d="m 218.74999,1658.693 h 129.429"
       id="path1426" />
    <path
       d="m 218.80899,1658.835 h 129.311"
       id="path1428" />
    <path
       d="m 218.86699,1658.977 h 129.194"
       id="path1430" />
    <path
       d="m 218.92599,1659.118 h 129.077"
       id="path1432" />
    <path
       d="m 218.98499,1659.26 h 128.959"
       id="path1434" />
    <path
       d="m 219.04399,1659.402 h 128.841"
       id="path1436" />
    <path
       d="m 219.10199,1659.544 h 128.724"
       id="path1438" />
    <path
       d="m 219.16099,1659.685 h 128.607"
       id="path1440" />
    <path
       d="m 219.21999,1659.827 h 128.489"
       id="path1442" />
    <path
       d="m 219.28899,1659.969 h 128.351"
       id="path1444" />
    <path
       d="m 219.36299,1660.11 h 128.203"
       id="path1446" />
    <path
       d="m 219.43599,1660.252 h 128.056"
       id="path1448" />
    <path
       d="m 219.50999,1660.394 h 127.909"
       id="path1450" />
    <path
       d="m 219.58399,1660.536 h 127.761"
       id="path1452" />
    <path
       d="m 219.65799,1660.677 h 127.613"
       id="path1454" />
    <path
       d="m 219.73199,1660.819 h 127.465"
       id="path1456" />
    <path
       d="m 219.80499,1660.961 h 127.319"
       id="path1458" />
    <path
       d="m 219.87899,1661.103 h 127.171"
       id="path1460" />
    <path
       d="m 219.95299,1661.244 h 127.023"
       id="path1462" />
    <path
       d="m 220.02699,1661.386 h 126.875"
       id="path1464" />
    <path
       d="m 220.09999,1661.528 h 126.728"
       id="path1466" />
    <path
       d="m 220.17399,1661.67 h 126.581"
       id="path1468" />
    <path
       d="m 220.24799,1661.811 h 126.433"
       id="path1470" />
    <path
       d="m 220.32199,1661.953 h 126.285"
       id="path1472" />
    <path
       d="m 220.39599,1662.095 h 126.137"
       id="path1474" />
    <path
       d="m 220.46899,1662.236 h 125.99"
       id="path1476" />
    <path
       d="m 220.54299,1662.378 h 125.843"
       id="path1478" />
    <path
       d="m 220.61699,1662.52 h 125.695"
       id="path1480" />
    <path
       d="m 220.69099,1662.662 h 125.547"
       id="path1482" />
    <path
       d="m 220.76399,1662.803 h 125.4"
       id="path1484" />
    <path
       d="m 220.83799,1662.945 h 125.253"
       id="path1486" />
    <path
       d="m 220.91199,1663.087 h 125.105"
       id="path1488" />
    <path
       d="m 220.98599,1663.229 h 124.957"
       id="path1490" />
    <path
       d="m 221.05999,1663.37 h 124.809"
       id="path1492" />
    <path
       d="m 221.13299,1663.512 h 124.662"
       id="path1494" />
    <path
       d="m 221.20699,1663.654 h 124.515"
       id="path1496" />
    <path
       d="m 221.28099,1663.795 h 124.367"
       id="path1498" />
    <path
       d="m 221.35499,1663.937 h 124.219"
       id="path1500" />
    <path
       d="m 221.42799,1664.079 h 124.072"
       id="path1502" />
    <path
       d="m 221.50199,1664.221 h 123.925"
       id="path1504" />
    <path
       d="m 221.57599,1664.362 h 123.777"
       id="path1506" />
    <path
       d="m 221.64999,1664.504 h 123.629"
       id="path1508" />
    <path
       d="m 221.72399,1664.646 h 123.481"
       id="path1510" />
    <path
       d="m 221.79699,1664.788 h 123.334"
       id="path1512" />
    <path
       d="m 221.87099,1664.929 h 123.187"
       id="path1514" />
    <path
       d="m 221.94499,1665.071 h 123.039"
       id="path1516" />
    <path
       d="m 222.01899,1665.213 h 122.891"
       id="path1518" />
    <path
       d="m 222.09299,1665.355 h 122.743"
       id="path1520" />
    <path
       d="m 222.18299,1665.496 h 122.563"
       id="path1522" />
    <path
       d="m 222.27299,1665.638 h 122.383"
       id="path1524" />
    <path
       d="m 222.36299,1665.78 h 122.202"
       id="path1526" />
    <path
       d="m 222.45399,1665.921 h 122.021"
       id="path1528" />
    <path
       d="m 222.54399,1666.063 h 121.841"
       id="path1530" />
    <path
       d="m 222.63399,1666.205 h 121.66"
       id="path1532" />
    <path
       d="m 222.72499,1666.347 h 121.479"
       id="path1534" />
    <path
       d="m 222.81499,1666.488 h 121.299"
       id="path1536" />
    <path
       d="m 222.90499,1666.63 h 121.119"
       id="path1538" />
    <path
       d="m 222.99499,1666.772 h 120.938"
       id="path1540" />
    <path
       d="m 223.08599,1666.914 h 120.757"
       id="path1542" />
    <path
       d="m 223.17599,1667.055 h 120.577"
       id="path1544" />
    <path
       d="m 223.26599,1667.197 h 120.396"
       id="path1546" />
    <path
       d="m 223.35699,1667.339 h 120.215"
       id="path1548" />
    <path
       d="m 223.44699,1667.481 h 120.035"
       id="path1550" />
    <path
       d="m 223.53699,1667.622 h 119.855"
       id="path1552" />
    <path
       d="m 223.62699,1667.764 h 119.674"
       id="path1554" />
    <path
       d="m 223.71799,1667.906 h 119.493"
       id="path1556" />
    <path
       d="m 223.80799,1668.047 h 119.313"
       id="path1558" />
    <path
       d="m 223.89799,1668.189 h 119.132"
       id="path1560" />
    <path
       d="m 223.98899,1668.331 h 118.951"
       id="path1562" />
    <path
       d="m 224.07899,1668.473 h 118.771"
       id="path1564" />
    <path
       d="m 224.16899,1668.614 h 118.591"
       id="path1566" />
    <path
       d="m 224.25999,1668.756 h 118.409"
       id="path1568" />
    <path
       d="m 224.34999,1668.898 h 118.229"
       id="path1570" />
    <path
       d="m 224.43999,1669.04 h 118.049"
       id="path1572" />
    <path
       d="m 224.52999,1669.181 h 117.868"
       id="path1574" />
    <path
       d="m 224.62099,1669.323 h 117.687"
       id="path1576" />
    <path
       d="m 224.71099,1669.465 h 117.507"
       id="path1578" />
    <path
       d="m 224.80099,1669.606 h 117.327"
       id="path1580" />
    <path
       d="m 224.89199,1669.748 h 117.145"
       id="path1582" />
    <path
       d="m 224.98199,1669.89 h 116.965"
       id="path1584" />
    <path
       d="m 225.07199,1670.032 h 116.785"
       id="path1586" />
    <path
       d="m 225.16299,1670.173 h 116.603"
       id="path1588" />
    <path
       d="m 225.25299,1670.315 h 116.423"
       id="path1590" />
    <path
       d="m 225.34299,1670.457 h 116.243"
       id="path1592" />
    <path
       d="m 225.43699,1670.599 h 116.055"
       id="path1594" />
    <path
       d="m 225.54599,1670.74 h 115.837"
       id="path1596" />
    <path
       d="m 225.65499,1670.882 h 115.619"
       id="path1598" />
    <path
       d="m 225.76399,1671.024 h 115.401"
       id="path1600" />
    <path
       d="m 225.87199,1671.166 h 115.184"
       id="path1602" />
    <path
       d="m 225.98099,1671.307 h 114.967"
       id="path1604" />
    <path
       d="m 226.08999,1671.449 h 114.749"
       id="path1606" />
    <path
       d="m 226.19899,1671.591 h 114.531"
       id="path1608" />
    <path
       d="m 226.30699,1671.732 h 114.315"
       id="path1610" />
    <path
       d="m 226.41599,1671.874 h 114.097"
       id="path1612" />
    <path
       d="m 226.52499,1672.016 h 113.879"
       id="path1614" />
    <path
       d="m 226.63399,1672.158 h 113.661"
       id="path1616" />
    <path
       d="m 226.74199,1672.299 h 113.444"
       id="path1618" />
    <path
       d="m 226.85099,1672.441 h 113.227"
       id="path1620" />
    <path
       d="m 226.95999,1672.583 h 113.009"
       id="path1622" />
    <path
       d="m 227.06899,1672.725 h 112.791"
       id="path1624" />
    <path
       d="m 227.17699,1672.866 h 112.574"
       id="path1626" />
    <path
       d="m 227.28599,1673.008 h 112.357"
       id="path1628" />
    <path
       d="m 227.39499,1673.15 h 112.139"
       id="path1630" />
    <path
       d="m 227.50399,1673.291 h 111.921"
       id="path1632" />
    <path
       d="m 227.61199,1673.433 h 111.704"
       id="path1634" />
    <path
       d="m 227.72099,1673.575 h 111.487"
       id="path1636" />
    <path
       d="m 227.82999,1673.717 h 111.269"
       id="path1638" />
    <path
       d="m 227.93899,1673.858 h 111.051"
       id="path1640" />
    <path
       d="m 228.04699,1674 h 110.834"
       id="path1642" />
    <path
       d="m 228.15599,1674.142 h 110.617"
       id="path1644" />
    <path
       d="m 228.26499,1674.284 h 110.399"
       id="path1646" />
    <path
       d="m 228.37399,1674.425 h 110.181"
       id="path1648" />
    <path
       d="m 228.48199,1674.567 h 109.964"
       id="path1650" />
    <path
       d="m 228.59099,1674.709 h 109.747"
       id="path1652" />
    <path
       d="m 228.69999,1674.851 h 109.529"
       id="path1654" />
    <path
       d="m 228.80899,1674.992 h 109.311"
       id="path1656" />
    <path
       d="m 228.91699,1675.134 h 109.094"
       id="path1658" />
    <path
       d="m 229.02599,1675.276 h 108.877"
       id="path1660" />
    <path
       d="m 229.13499,1675.417 h 108.659"
       id="path1662" />
    <path
       d="m 229.25599,1675.559 h 108.416"
       id="path1664" />
    <path
       d="m 229.38599,1675.701 h 108.156"
       id="path1666" />
    <path
       d="m 229.51599,1675.843 h 107.897"
       id="path1668" />
    <path
       d="m 229.64599,1675.984 h 107.637"
       id="path1670" />
    <path
       d="m 229.77599,1676.126 h 107.377"
       id="path1672" />
    <path
       d="m 229.90599,1676.268 h 107.117"
       id="path1674" />
    <path
       d="m 230.03599,1676.41 h 106.857"
       id="path1676" />
    <path
       d="m 230.16599,1676.551 h 106.597"
       id="path1678" />
    <path
       d="m 230.29499,1676.693 h 106.338"
       id="path1680" />
    <path
       d="m 230.42499,1676.835 h 106.078"
       id="path1682" />
    <path
       d="m 230.55499,1676.977 h 105.819"
       id="path1684" />
    <path
       d="m 230.68499,1677.118 h 105.559"
       id="path1686" />
    <path
       d="m 230.81499,1677.26 h 105.299"
       id="path1688" />
    <path
       d="m 230.94499,1677.402 h 105.039"
       id="path1690" />
    <path
       d="m 231.07499,1677.543 h 104.779"
       id="path1692" />
    <path
       d="m 231.20499,1677.685 h 104.519"
       id="path1694" />
    <path
       d="m 231.33399,1677.827 h 104.26"
       id="path1696" />
    <path
       d="m 231.46399,1677.969 h 104.001"
       id="path1698" />
    <path
       d="m 231.59399,1678.11 h 103.741"
       id="path1700" />
    <path
       d="m 231.72399,1678.252 h 103.481"
       id="path1702" />
    <path
       d="m 231.85399,1678.394 h 103.221"
       id="path1704" />
    <path
       d="m 231.98399,1678.536 h 102.961"
       id="path1706" />
    <path
       d="m 232.11399,1678.677 h 102.701"
       id="path1708" />
    <path
       d="m 232.24399,1678.819 h 102.441"
       id="path1710" />
    <path
       d="m 232.37299,1678.961 h 102.182"
       id="path1712" />
    <path
       d="m 232.50299,1679.103 h 101.922"
       id="path1714" />
    <path
       d="m 232.63299,1679.244 h 101.663"
       id="path1716" />
    <path
       d="m 232.76299,1679.386 h 101.403"
       id="path1718" />
    <path
       d="m 232.89299,1679.528 h 101.143"
       id="path1720" />
    <path
       d="m 233.02299,1679.669 h 100.883"
       id="path1722" />
    <path
       d="m 233.15299,1679.811 h 100.623"
       id="path1724" />
    <path
       d="m 233.28299,1679.953 h 100.363"
       id="path1726" />
    <path
       d="m 233.42299,1680.095 h 100.082"
       id="path1728" />
    <path
       d="m 233.57799,1680.236 h 99.773"
       id="path1730" />
    <path
       d="m 233.73299,1680.378 h 99.463"
       id="path1732" />
    <path
       d="m 233.88799,1680.52 h 99.153"
       id="path1734" />
    <path
       d="m 234.04199,1680.662 h 98.845"
       id="path1736" />
    <path
       d="m 234.19699,1680.803 h 98.535"
       id="path1738" />
    <path
       d="m 234.35199,1680.945 h 98.225"
       id="path1740" />
    <path
       d="m 234.50599,1681.087 h 97.917"
       id="path1742" />
    <path
       d="m 234.66099,1681.229 h 97.607"
       id="path1744" />
    <path
       d="m 234.81599,1681.37 h 97.297"
       id="path1746" />
    <path
       d="m 234.96999,1681.512 h 96.989"
       id="path1748" />
    <path
       d="m 235.12499,1681.654 h 96.679"
       id="path1750" />
    <path
       d="m 235.27999,1681.795 h 96.369"
       id="path1752" />
    <path
       d="m 235.43399,1681.937 h 96.061"
       id="path1754" />
    <path
       d="m 235.58899,1682.079 h 95.751"
       id="path1756" />
    <path
       d="m 235.74399,1682.221 h 95.441"
       id="path1758" />
    <path
       d="m 235.89799,1682.362 h 95.133"
       id="path1760" />
    <path
       d="m 236.05299,1682.504 h 94.823"
       id="path1762" />
    <path
       d="m 236.20799,1682.646 h 94.513"
       id="path1764" />
    <path
       d="m 236.36199,1682.788 h 94.205"
       id="path1766" />
    <path
       d="m 236.51699,1682.929 h 93.895"
       id="path1768" />
    <path
       d="m 236.67199,1683.071 h 93.585"
       id="path1770" />
    <path
       d="m 236.82599,1683.213 h 93.276"
       id="path1772" />
    <path
       d="m 236.98099,1683.355 h 92.967"
       id="path1774" />
    <path
       d="m 237.13599,1683.496 h 92.657"
       id="path1776" />
    <path
       d="m 237.28999,1683.638 h 92.348"
       id="path1778" />
    <path
       d="m 237.44499,1683.78 h 92.039"
       id="path1780" />
    <path
       d="m 237.59999,1683.921 h 91.729"
       id="path1782" />
    <path
       d="m 237.75399,1684.063 h 91.42"
       id="path1784" />
    <path
       d="m 237.90899,1684.205 h 91.111"
       id="path1786" />
    <path
       d="m 238.09299,1684.347 h 90.743"
       id="path1788" />
    <path
       d="m 238.27799,1684.488 h 90.373"
       id="path1790" />
    <path
       d="m 238.46199,1684.63 h 90.004"
       id="path1792" />
    <path
       d="m 238.64699,1684.772 h 89.635"
       id="path1794" />
    <path
       d="m 238.83199,1684.914 h 89.265"
       id="path1796" />
    <path
       d="m 239.01699,1685.055 h 88.895"
       id="path1798" />
    <path
       d="m 239.20099,1685.197 h 88.526"
       id="path1800" />
    <path
       d="m 239.38599,1685.339 h 88.157"
       id="path1802" />
    <path
       d="m 239.57099,1685.481 h 87.787"
       id="path1804" />
    <path
       d="m 239.75599,1685.622 h 87.417"
       id="path1806" />
    <path
       d="m 239.93999,1685.764 h 87.049"
       id="path1808" />
    <path
       d="m 240.12499,1685.906 h 86.679"
       id="path1810" />
    <path
       d="m 240.30999,1686.047 h 86.309"
       id="path1812" />
    <path
       d="m 240.49399,1686.189 h 85.94"
       id="path1814" />
    <path
       d="m 240.67899,1686.331 h 85.571"
       id="path1816" />
    <path
       d="m 240.86399,1686.473 h 85.201"
       id="path1818" />
    <path
       d="m 241.04799,1686.614 h 84.832"
       id="path1820" />
    <path
       d="m 241.23299,1686.756 h 84.463"
       id="path1822" />
    <path
       d="m 241.41799,1686.898 h 84.093"
       id="path1824" />
    <path
       d="m 241.60299,1687.04 h 83.723"
       id="path1826" />
    <path
       d="m 241.78699,1687.181 h 83.355"
       id="path1828" />
    <path
       d="m 241.97199,1687.323 h 82.985"
       id="path1830" />
    <path
       d="m 242.15699,1687.465 h 82.615"
       id="path1832" />
    <path
       d="m 242.34099,1687.607 h 82.246"
       id="path1834" />
    <path
       d="m 242.52599,1687.748 h 81.877"
       id="path1836" />
    <path
       d="m 242.71099,1687.89 h 81.507"
       id="path1838" />
    <path
       d="m 242.91199,1688.032 h 81.105"
       id="path1840" />
    <path
       d="m 243.13399,1688.173 h 80.661"
       id="path1842" />
    <path
       d="m 243.35699,1688.315 h 80.215"
       id="path1844" />
    <path
       d="m 243.57899,1688.457 h 79.771"
       id="path1846" />
    <path
       d="m 243.80199,1688.599 h 79.325"
       id="path1848" />
    <path
       d="m 244.02399,1688.74 h 78.881"
       id="path1850" />
    <path
       d="m 244.24599,1688.882 h 78.436"
       id="path1852" />
    <path
       d="m 244.46899,1689.024 h 77.991"
       id="path1854" />
    <path
       d="m 244.69099,1689.166 h 77.546"
       id="path1856" />
    <path
       d="m 244.91399,1689.307 h 77.101"
       id="path1858" />
    <path
       d="m 245.13599,1689.449 h 76.656"
       id="path1860" />
    <path
       d="m 245.35899,1689.591 h 76.211"
       id="path1862" />
    <path
       d="m 245.58099,1689.732 h 75.767"
       id="path1864" />
    <path
       d="m 245.80399,1689.874 h 75.321"
       id="path1866" />
    <path
       d="m 246.02599,1690.016 h 74.877"
       id="path1868" />
    <path
       d="m 246.24899,1690.158 h 74.431"
       id="path1870" />
    <path
       d="m 246.47099,1690.299 h 73.987"
       id="path1872" />
    <path
       d="m 246.69399,1690.441 h 73.541"
       id="path1874" />
    <path
       d="m 246.91599,1690.583 h 73.097"
       id="path1876" />
    <path
       d="m 247.13899,1690.725 h 72.651"
       id="path1878" />
    <path
       d="m 247.36099,1690.866 h 72.207"
       id="path1880" />
    <path
       d="m 247.58399,1691.008 h 71.761"
       id="path1882" />
    <path
       d="m 247.80599,1691.15 h 71.317"
       id="path1884" />
    <path
       d="m 248.02799,1691.292 h 70.872"
       id="path1886" />
    <path
       d="m 248.29999,1691.433 h 70.329"
       id="path1888" />
    <path
       d="m 248.57199,1691.575 h 69.784"
       id="path1890" />
    <path
       d="m 248.84499,1691.717 h 69.239"
       id="path1892" />
    <path
       d="m 249.11699,1691.858 h 68.695"
       id="path1894" />
    <path
       d="m 249.38899,1692 h 68.151"
       id="path1896" />
    <path
       d="m 249.66099,1692.142 h 67.606"
       id="path1898" />
    <path
       d="m 249.93399,1692.284 h 67.061"
       id="path1900" />
    <path
       d="m 250.20599,1692.425 h 66.517"
       id="path1902" />
    <path
       d="m 250.47799,1692.567 h 65.973"
       id="path1904" />
    <path
       d="m 250.75099,1692.709 h 65.427"
       id="path1906" />
    <path
       d="m 251.02299,1692.851 h 64.883"
       id="path1908" />
    <path
       d="m 251.29499,1692.992 h 64.339"
       id="path1910" />
    <path
       d="m 251.56699,1693.134 h 63.794"
       id="path1912" />
    <path
       d="m 251.83999,1693.276 h 63.249"
       id="path1914" />
    <path
       d="m 252.11199,1693.417 h 62.705"
       id="path1916" />
    <path
       d="m 252.38399,1693.559 h 62.161"
       id="path1918" />
    <path
       d="m 252.65599,1693.701 h 61.616"
       id="path1920" />
    <path
       d="m 252.92899,1693.843 h 61.071"
       id="path1922" />
    <path
       d="m 253.20099,1693.984 h 60.527"
       id="path1924" />
    <path
       d="m 253.47299,1694.126 h 59.983"
       id="path1926" />
    <path
       d="m 253.80499,1694.268 h 59.319"
       id="path1928" />
    <path
       d="m 254.14699,1694.41 h 58.635"
       id="path1930" />
    <path
       d="m 254.48899,1694.551 h 57.951"
       id="path1932" />
    <path
       d="m 254.83099,1694.693 h 57.267"
       id="path1934" />
    <path
       d="m 255.17299,1694.835 h 56.582"
       id="path1936" />
    <path
       d="m 255.51599,1694.977 h 55.897"
       id="path1938" />
    <path
       d="m 255.85799,1695.118 h 55.213"
       id="path1940" />
    <path
       d="m 256.19999,1695.26 h 54.529"
       id="path1942" />
    <path
       d="m 256.54199,1695.402 h 53.845"
       id="path1944" />
    <path
       d="m 256.88399,1695.543 h 53.161"
       id="path1946" />
    <path
       d="m 257.22599,1695.685 h 52.476"
       id="path1948" />
    <path
       d="m 257.56799,1695.827 h 51.792"
       id="path1950" />
    <path
       d="m 257.91099,1695.969 h 51.107"
       id="path1952" />
    <path
       d="m 258.25299,1696.11 h 50.423"
       id="path1954" />
    <path
       d="m 258.59499,1696.252 h 49.739"
       id="path1956" />
    <path
       d="m 258.93699,1696.394 h 49.055"
       id="path1958" />
    <path
       d="m 259.29599,1696.536 h 48.337"
       id="path1960" />
    <path
       d="m 259.74499,1696.677 h 47.438"
       id="path1962" />
    <path
       d="m 260.19499,1696.819 h 46.539"
       id="path1964" />
    <path
       d="m 260.64399,1696.961 h 45.64"
       id="path1966" />
    <path
       d="m 261.09399,1697.103 h 44.741"
       id="path1968" />
    <path
       d="m 261.54299,1697.244 h 43.842"
       id="path1970" />
    <path
       d="m 261.99299,1697.386 h 42.943"
       id="path1972" />
    <path
       d="m 262.44299,1697.528 h 42.043"
       id="path1974" />
    <path
       d="m 262.89199,1697.669 h 41.145"
       id="path1976" />
    <path
       d="m 263.34199,1697.811 h 40.245"
       id="path1978" />
    <path
       d="m 263.79099,1697.953 h 39.347"
       id="path1980" />
    <path
       d="m 264.24099,1698.095 h 38.447"
       id="path1982" />
    <path
       d="m 264.68999,1698.236 h 37.549"
       id="path1984" />
    <path
       d="m 265.14699,1698.378 h 36.635"
       id="path1986" />
    <path
       d="m 265.78599,1698.52 h 35.357"
       id="path1988" />
    <path
       d="m 266.42499,1698.662 h 34.079"
       id="path1990" />
    <path
       d="m 267.06499,1698.803 h 32.799"
       id="path1992" />
    <path
       d="m 267.70399,1698.945 h 31.521"
       id="path1994" />
    <path
       d="m 268.34299,1699.087 h 30.243"
       id="path1996" />
    <path
       d="m 268.98199,1699.229 h 28.964"
       id="path1998" />
    <path
       d="m 269.62199,1699.37 h 27.685"
       id="path2000" />
    <path
       d="m 270.26099,1699.512 h 26.407"
       id="path2002" />
    <path
       d="m 270.89999,1699.654 h 25.129"
       id="path2004" />
    <path
       d="m 271.79999,1699.795 h 23.329"
       id="path2006" />
    <path
       d="m 272.87699,1699.937 h 21.175"
       id="path2008" />
    <path
       d="m 273.95299,1700.079 h 19.023"
       id="path2010" />
    <path
       d="m 275.02999,1700.221 h 16.869"
       id="path2012" />
    <path
       d="m 276.10599,1700.362 h 14.716"
       id="path2014" />
    <path
       d="m 277.18299,1700.504 h 12.563"
       id="path2016" />
    <path
       d="m 280.21799,1700.646 h 6.493"
       id="path2018" />
  </g>
</svg>
