<?xml version="1.0" encoding="UTF-8"?>
<svg id="svg2022" width="582.06" height="582.06" version="1.1" viewBox="0 0 582.06 582.06" xmlns="http://www.w3.org/2000/svg">
 <g id="g2020" transform="translate(7.5663 -1338.9)" fill="none" stroke="#000" stroke-width="4mm">
  <path id="path6" d="m566.93 1629.9-1.079 24.706-3.227 24.518-5.353 24.142-7.436 23.585-9.463 22.847-11.419 21.935-13.287 20.856-15.054 19.619-16.707 18.232-18.232 16.707"/>
  <path id="path8" d="m465.67 1847.1-19.619 15.054-20.856 13.287-21.935 11.419-22.847 9.463-23.585 7.436-24.143 5.353-24.517 3.227-24.706 1.079-24.705-1.079-24.518-3.227"/>
  <path id="path10" d="m234.24 1909.1-24.143-5.353-23.584-7.436-22.847-9.463-21.935-11.419-20.856-13.287-19.619-15.054-18.232-16.707-16.707-18.232-15.054-19.619-13.287-20.856"/>
  <path id="path12" d="m37.977 1771.7-11.419-21.935-9.463-22.847-7.436-23.584-5.353-24.143-3.228-24.518-1.078-24.706 1.078-24.705 3.228-24.518 5.353-24.143 7.436-23.584"/>
  <path id="path14" d="m17.095 1533 9.463-22.847 11.419-21.935 13.287-20.856 15.054-19.619 16.707-18.232 18.232-16.707 19.619-15.054 20.856-13.287 21.935-11.419 22.847-9.463"/>
  <path id="path16" d="m186.51 1363.6 23.584-7.436 24.143-5.353 24.518-3.228 24.705-1.078 24.706 1.078 24.517 3.228 24.143 5.353 23.585 7.436 22.847 9.463 21.935 11.419"/>
  <path id="path18" d="m425.2 1384.4 20.856 13.287 19.619 15.054 18.232 16.707 16.707 18.232 15.054 19.619 13.287 20.856 11.419 21.935 9.463 22.847 7.436 23.584 5.353 24.143"/>
  <path id="path20" d="m562.62 1580.7 3.227 24.518 1.079 24.705-1.079 24.706"/>
  <path id="path22" d="m280.22 1559.2h6.493"/>
  <path id="path24" d="m277.18 1559.3h12.563"/>
  <path id="path26" d="m276.11 1559.5h14.715"/>
  <path id="path28" d="m275.03 1559.6h16.869"/>
  <path id="path30" d="m273.95 1559.8h19.022"/>
  <path id="path32" d="m272.88 1559.9h21.175"/>
  <path id="path34" d="m271.8 1560h23.328"/>
  <path id="path36" d="m270.9 1560.2h25.128"/>
  <path id="path38" d="m270.26 1560.3h26.407"/>
  <path id="path40" d="m269.62 1560.5h27.685"/>
  <path id="path42" d="m268.98 1560.6h28.963"/>
  <path id="path44" d="m268.34 1560.8h30.243"/>
  <path id="path46" d="m267.7 1560.9h31.521"/>
  <path id="path48" d="m267.06 1561h32.799"/>
  <path id="path50" d="m266.42 1561.2h34.078"/>
  <path id="path52" d="m265.79 1561.3h35.357"/>
  <path id="path54" d="m265.15 1561.5h36.635"/>
  <path id="path56" d="m264.69 1561.6h37.549"/>
  <path id="path58" d="m264.24 1561.7h38.447"/>
  <path id="path60" d="m263.79 1561.9h39.347"/>
  <path id="path62" d="m263.34 1562h40.245"/>
  <path id="path64" d="m262.89 1562.2h41.145"/>
  <path id="path66" d="m262.44 1562.3h42.043"/>
  <path id="path68" d="m261.99 1562.5h42.943"/>
  <path id="path70" d="m261.54 1562.6h43.842"/>
  <path id="path72" d="m261.09 1562.7h44.741"/>
  <path id="path74" d="m260.64 1562.9h45.64"/>
  <path id="path76" d="m260.19 1563h46.539"/>
  <path id="path78" d="m259.74 1563.2h47.438"/>
  <path id="path80" d="m259.3 1563.3h48.337"/>
  <path id="path82" d="m258.94 1563.4h49.055"/>
  <path id="path84" d="m258.59 1563.6h49.739"/>
  <path id="path86" d="m258.25 1563.7h50.423"/>
  <path id="path88" d="m257.91 1563.9h51.107"/>
  <path id="path90" d="m257.57 1564h51.792"/>
  <path id="path92" d="m257.23 1564.2h52.476"/>
  <path id="path94" d="m256.88 1564.3h53.161"/>
  <path id="path96" d="m256.54 1564.4h53.845"/>
  <path id="path98" d="m256.2 1564.6h54.529"/>
  <path id="path100" d="m255.86 1564.7h55.213"/>
  <path id="path102" d="m255.52 1564.9h55.897"/>
  <path id="path104" d="m255.17 1565h56.582"/>
  <path id="path106" d="m254.83 1565.2h57.267"/>
  <path id="path108" d="m254.49 1565.3h57.951"/>
  <path id="path110" d="m254.15 1565.4h58.635"/>
  <path id="path112" d="m253.8 1565.6h59.319"/>
  <path id="path114" d="m253.47 1565.7h59.983"/>
  <path id="path116" d="m253.2 1565.9h60.527"/>
  <path id="path118" d="m252.93 1566h61.071"/>
  <path id="path120" d="m252.66 1566.1h61.616"/>
  <path id="path122" d="m252.38 1566.3h62.161"/>
  <path id="path124" d="m252.11 1566.4h62.705"/>
  <path id="path126" d="m251.84 1566.6h63.249"/>
  <path id="path128" d="m251.57 1566.7h63.794"/>
  <path id="path130" d="m251.29 1566.9h64.339"/>
  <path id="path132" d="m251.02 1567h64.883"/>
  <path id="path134" d="m250.75 1567.1h65.427"/>
  <path id="path136" d="m250.48 1567.3h65.973"/>
  <path id="path138" d="m250.21 1567.4h66.517"/>
  <path id="path140" d="m249.93 1567.6h67.061"/>
  <path id="path142" d="m249.66 1567.7h67.606"/>
  <path id="path144" d="m249.39 1567.8h68.151"/>
  <path id="path146" d="m249.12 1568h68.695"/>
  <path id="path148" d="m248.84 1568.1h69.239"/>
  <path id="path150" d="m248.57 1568.3h69.784"/>
  <path id="path152" d="m248.3 1568.4h70.329"/>
  <path id="path154" d="m248.03 1568.6h70.872"/>
  <path id="path156" d="m247.81 1568.7h71.317"/>
  <path id="path158" d="m247.58 1568.8h71.761"/>
  <path id="path160" d="m247.36 1569h72.207"/>
  <path id="path162" d="m247.14 1569.1h72.651"/>
  <path id="path164" d="m246.92 1569.3h73.097"/>
  <path id="path166" d="m246.69 1569.4h73.541"/>
  <path id="path168" d="m246.47 1569.5h73.987"/>
  <path id="path170" d="m246.25 1569.7h74.431"/>
  <path id="path172" d="m246.03 1569.8h74.877"/>
  <path id="path174" d="m245.8 1570h75.321"/>
  <path id="path176" d="m245.58 1570.1h75.767"/>
  <path id="path178" d="m245.36 1570.3h76.211"/>
  <path id="path180" d="m245.14 1570.4h76.656"/>
  <path id="path182" d="m244.91 1570.5h77.101"/>
  <path id="path184" d="m244.69 1570.7h77.546"/>
  <path id="path186" d="m244.47 1570.8h77.991"/>
  <path id="path188" d="m244.25 1571h78.436"/>
  <path id="path190" d="m244.02 1571.1h78.881"/>
  <path id="path192" d="m243.8 1571.2h79.325"/>
  <path id="path194" d="m243.58 1571.4h79.771"/>
  <path id="path196" d="m243.36 1571.5h80.215"/>
  <path id="path198" d="m243.13 1571.7h80.661"/>
  <path id="path200" d="m242.91 1571.8h81.105"/>
  <path id="path202" d="m242.71 1572h81.507"/>
  <path id="path204" d="m242.53 1572.1h81.877"/>
  <path id="path206" d="m242.34 1572.2h82.246"/>
  <path id="path208" d="m242.16 1572.4h82.615"/>
  <path id="path210" d="m241.97 1572.5h82.985"/>
  <path id="path212" d="m241.79 1572.7h83.355"/>
  <path id="path214" d="m241.6 1572.8h83.723"/>
  <path id="path216" d="m241.42 1572.9h84.093"/>
  <path id="path218" d="m241.23 1573.1h84.463"/>
  <path id="path220" d="m241.05 1573.2h84.832"/>
  <path id="path222" d="m240.86 1573.4h85.201"/>
  <path id="path224" d="m240.68 1573.5h85.571"/>
  <path id="path226" d="m240.49 1573.7h85.94"/>
  <path id="path228" d="m240.31 1573.8h86.309"/>
  <path id="path230" d="m240.12 1573.9h86.679"/>
  <path id="path232" d="m239.94 1574.1h87.049"/>
  <path id="path234" d="m239.76 1574.2h87.417"/>
  <path id="path236" d="m239.57 1574.4h87.787"/>
  <path id="path238" d="m239.39 1574.5h88.157"/>
  <path id="path240" d="m239.2 1574.6h88.526"/>
  <path id="path242" d="m239.02 1574.8h88.895"/>
  <path id="path244" d="m238.83 1574.9h89.265"/>
  <path id="path246" d="m238.65 1575.1h89.635"/>
  <path id="path248" d="m238.46 1575.2h90.004"/>
  <path id="path250" d="m238.28 1575.4h90.373"/>
  <path id="path252" d="m238.09 1575.5h90.743"/>
  <path id="path254" d="m237.91 1575.6h91.111"/>
  <path id="path256" d="m237.75 1575.8h91.42"/>
  <path id="path258" d="m237.6 1575.9h91.729"/>
  <path id="path260" d="m237.44 1576.1h92.039"/>
  <path id="path262" d="m237.29 1576.2h92.348"/>
  <path id="path264" d="m237.14 1576.3h92.657"/>
  <path id="path266" d="m236.98 1576.5h92.967"/>
  <path id="path268" d="m236.83 1576.6h93.276"/>
  <path id="path270" d="m236.67 1576.8h93.585"/>
  <path id="path272" d="m236.52 1576.9h93.895"/>
  <path id="path274" d="m236.36 1577.1h94.205"/>
  <path id="path276" d="m236.21 1577.2h94.513"/>
  <path id="path278" d="m236.05 1577.3h94.823"/>
  <path id="path280" d="m235.9 1577.5h95.133"/>
  <path id="path282" d="m235.74 1577.6h95.441"/>
  <path id="path284" d="m235.59 1577.8h95.751"/>
  <path id="path286" d="m235.43 1577.9h96.061"/>
  <path id="path288" d="m235.28 1578h96.369"/>
  <path id="path290" d="m235.12 1578.2h96.679"/>
  <path id="path292" d="m234.97 1578.3h96.989"/>
  <path id="path294" d="m234.82 1578.5h97.297"/>
  <path id="path296" d="m234.66 1578.6h97.607"/>
  <path id="path298" d="m234.51 1578.8h97.917"/>
  <path id="path300" d="m234.35 1578.9h98.225"/>
  <path id="path302" d="m234.2 1579h98.535"/>
  <path id="path304" d="m234.04 1579.2h98.845"/>
  <path id="path306" d="m233.89 1579.3h99.153"/>
  <path id="path308" d="m233.73 1579.5h99.463"/>
  <path id="path310" d="m233.58 1579.6h99.773"/>
  <path id="path312" d="m233.42 1579.7h100.08"/>
  <path id="path314" d="m233.28 1579.9h100.36"/>
  <path id="path316" d="m233.15 1580h100.62"/>
  <path id="path318" d="m233.02 1580.2h100.88"/>
  <path id="path320" d="m232.89 1580.3h101.14"/>
  <path id="path322" d="m232.76 1580.5h101.4"/>
  <path id="path324" d="m232.63 1580.6h101.66"/>
  <path id="path326" d="m232.5 1580.7h101.92"/>
  <path id="path328" d="m232.37 1580.9h102.18"/>
  <path id="path330" d="m232.24 1581h102.44"/>
  <path id="path332" d="m232.11 1581.2h102.7"/>
  <path id="path334" d="m231.98 1581.3h102.96"/>
  <path id="path336" d="m231.85 1581.4h103.22"/>
  <path id="path338" d="m231.72 1581.6h103.48"/>
  <path id="path340" d="m231.59 1581.7h103.74"/>
  <path id="path342" d="m231.46 1581.9h104"/>
  <path id="path344" d="m231.33 1582h104.26"/>
  <path id="path346" d="m231.2 1582.2h104.52"/>
  <path id="path348" d="m231.07 1582.3h104.78"/>
  <path id="path350" d="m230.94 1582.4h105.04"/>
  <path id="path352" d="m230.81 1582.6h105.3"/>
  <path id="path354" d="m230.68 1582.7h105.56"/>
  <path id="path356" d="m230.55 1582.9h105.82"/>
  <path id="path358" d="m230.42 1583h106.08"/>
  <path id="path360" d="m230.29 1583.2h106.34"/>
  <path id="path362" d="m230.17 1583.3h106.6"/>
  <path id="path364" d="m230.04 1583.4h106.86"/>
  <path id="path366" d="m229.91 1583.6h107.12"/>
  <path id="path368" d="m229.78 1583.7h107.38"/>
  <path id="path370" d="m229.65 1583.9h107.64"/>
  <path id="path372" d="m229.52 1584h107.9"/>
  <path id="path374" d="m229.39 1584.1h108.16"/>
  <path id="path376" d="m229.26 1584.3h108.42"/>
  <path id="path378" d="m229.13 1584.4h108.66"/>
  <path id="path380" d="m229.03 1584.6h108.88"/>
  <path id="path382" d="m228.92 1584.7h109.09"/>
  <path id="path384" d="m228.81 1584.9h109.31"/>
  <path id="path386" d="m228.7 1585h109.53"/>
  <path id="path388" d="m228.59 1585.1h109.75"/>
  <path id="path390" d="m228.48 1585.3h109.96"/>
  <path id="path392" d="m228.37 1585.4h110.18"/>
  <path id="path394" d="m228.26 1585.6h110.4"/>
  <path id="path396" d="m228.16 1585.7h110.62"/>
  <path id="path398" d="m228.05 1585.8h110.83"/>
  <path id="path400" d="m227.94 1586h111.05"/>
  <path id="path402" d="m227.83 1586.1h111.27"/>
  <path id="path404" d="m227.72 1586.3h111.49"/>
  <path id="path406" d="m227.61 1586.4h111.7"/>
  <path id="path408" d="m227.5 1586.6h111.92"/>
  <path id="path410" d="m227.39 1586.7h112.14"/>
  <path id="path412" d="m227.29 1586.8h112.36"/>
  <path id="path414" d="m227.18 1587h112.57"/>
  <path id="path416" d="m227.07 1587.1h112.79"/>
  <path id="path418" d="m226.96 1587.3h113.01"/>
  <path id="path420" d="m226.85 1587.4h113.23"/>
  <path id="path422" d="m226.74 1587.5h113.44"/>
  <path id="path424" d="m226.63 1587.7h113.66"/>
  <path id="path426" d="m226.52 1587.8h113.88"/>
  <path id="path428" d="m226.42 1588h114.1"/>
  <path id="path430" d="m226.31 1588.1h114.32"/>
  <path id="path432" d="m226.2 1588.3h114.53"/>
  <path id="path434" d="m226.09 1588.4h114.75"/>
  <path id="path436" d="m225.98 1588.5h114.97"/>
  <path id="path438" d="m225.87 1588.7h115.18"/>
  <path id="path440" d="m225.76 1588.8h115.4"/>
  <path id="path442" d="m225.65 1589h115.62"/>
  <path id="path444" d="m225.55 1589.1h115.84"/>
  <path id="path446" d="m225.44 1589.2h116.06"/>
  <path id="path448" d="m225.34 1589.4h116.24"/>
  <path id="path450" d="m225.25 1589.5h116.42"/>
  <path id="path452" d="m225.16 1589.7h116.6"/>
  <path id="path454" d="m225.07 1589.8h116.78"/>
  <path id="path456" d="m224.98 1590h116.96"/>
  <path id="path458" d="m224.89 1590.1h117.14"/>
  <path id="path460" d="m224.8 1590.2h117.33"/>
  <path id="path462" d="m224.71 1590.4h117.51"/>
  <path id="path464" d="m224.62 1590.5h117.69"/>
  <path id="path466" d="m224.53 1590.7h117.87"/>
  <path id="path468" d="m224.44 1590.8h118.05"/>
  <path id="path470" d="m224.35 1590.9h118.23"/>
  <path id="path472" d="m224.26 1591.1h118.41"/>
  <path id="path474" d="m224.17 1591.2h118.59"/>
  <path id="path476" d="m224.08 1591.4h118.77"/>
  <path id="path478" d="m223.99 1591.5h118.95"/>
  <path id="path480" d="m223.9 1591.7h119.13"/>
  <path id="path482" d="m223.81 1591.8h119.31"/>
  <path id="path484" d="m223.72 1591.9h119.49"/>
  <path id="path486" d="m223.63 1592.1h119.67"/>
  <path id="path488" d="m223.54 1592.2h119.86"/>
  <path id="path490" d="m223.45 1592.4h120.04"/>
  <path id="path492" d="m223.36 1592.5h120.22"/>
  <path id="path494" d="m223.27 1592.6h120.4"/>
  <path id="path496" d="m223.18 1592.8h120.58"/>
  <path id="path498" d="m223.09 1592.9h120.76"/>
  <path id="path500" d="m222.99 1593.1h120.94"/>
  <path id="path502" d="m222.9 1593.2h121.12"/>
  <path id="path504" d="m222.81 1593.4h121.3"/>
  <path id="path506" d="m222.72 1593.5h121.48"/>
  <path id="path508" d="m222.63 1593.6h121.66"/>
  <path id="path510" d="m222.54 1593.8h121.84"/>
  <path id="path512" d="m222.45 1593.9h122.02"/>
  <path id="path514" d="m222.36 1594.1h122.2"/>
  <path id="path516" d="m222.27 1594.2h122.38"/>
  <path id="path518" d="m222.18 1594.3h122.56"/>
  <path id="path520" d="m222.09 1594.5h122.74"/>
  <path id="path522" d="m222.02 1594.6h122.89"/>
  <path id="path524" d="m221.94 1594.8h123.04"/>
  <path id="path526" d="m221.87 1594.9h123.19"/>
  <path id="path528" d="m221.8 1595.1h123.33"/>
  <path id="path530" d="m221.72 1595.2h123.48"/>
  <path id="path532" d="m221.65 1595.3h123.63"/>
  <path id="path534" d="m221.58 1595.5h123.78"/>
  <path id="path536" d="m221.5 1595.6h123.92"/>
  <path id="path538" d="m221.43 1595.8h124.07"/>
  <path id="path540" d="m221.35 1595.9h124.22"/>
  <path id="path542" d="m221.28 1596h124.37"/>
  <path id="path544" d="m221.21 1596.2h124.52"/>
  <path id="path546" d="m221.13 1596.3h124.66"/>
  <path id="path548" d="m221.06 1596.5h124.81"/>
  <path id="path550" d="m220.99 1596.6h124.96"/>
  <path id="path552" d="m220.91 1596.8h125.1"/>
  <path id="path554" d="m220.84 1596.9h125.25"/>
  <path id="path556" d="m220.76 1597h125.4"/>
  <path id="path558" d="m220.69 1597.2h125.55"/>
  <path id="path560" d="m220.62 1597.3h125.7"/>
  <path id="path562" d="m220.54 1597.5h125.84"/>
  <path id="path564" d="m220.47 1597.6h125.99"/>
  <path id="path566" d="m220.4 1597.7h126.14"/>
  <path id="path568" d="m220.32 1597.9h126.28"/>
  <path id="path570" d="m220.25 1598h126.43"/>
  <path id="path572" d="m220.17 1598.2h126.58"/>
  <path id="path574" d="m220.1 1598.3h126.73"/>
  <path id="path576" d="m220.03 1598.5h126.88"/>
  <path id="path578" d="m219.95 1598.6h127.02"/>
  <path id="path580" d="m219.88 1598.7h127.17"/>
  <path id="path582" d="m219.8 1598.9h127.32"/>
  <path id="path584" d="m219.73 1599h127.46"/>
  <path id="path586" d="m219.66 1599.2h127.61"/>
  <path id="path588" d="m219.58 1599.3h127.76"/>
  <path id="path590" d="m219.51 1599.4h127.91"/>
  <path id="path592" d="m219.44 1599.6h128.06"/>
  <path id="path594" d="m219.36 1599.7h128.2"/>
  <path id="path596" d="m219.29 1599.9h128.35"/>
  <path id="path598" d="m219.22 1600h128.49"/>
  <path id="path600" d="m219.16 1600.2h128.61"/>
  <path id="path602" d="m219.1 1600.3h128.72"/>
  <path id="path604" d="m219.04 1600.4h128.84"/>
  <path id="path606" d="m218.98 1600.6h128.96"/>
  <path id="path608" d="m218.93 1600.7h129.08"/>
  <path id="path610" d="m218.87 1600.9h129.19"/>
  <path id="path612" d="m218.81 1601h129.31"/>
  <path id="path614" d="m218.75 1601.2h129.43"/>
  <path id="path616" d="m218.69 1601.3h129.55"/>
  <path id="path618" d="m218.63 1601.4h129.66"/>
  <path id="path620" d="m218.57 1601.6h129.78"/>
  <path id="path622" d="m218.51 1601.7h129.9"/>
  <path id="path624" d="m218.46 1601.9h130.02"/>
  <path id="path626" d="m218.4 1602h130.13"/>
  <path id="path628" d="m218.34 1602.1h130.25"/>
  <path id="path630" d="m218.28 1602.3h130.37"/>
  <path id="path632" d="m218.22 1602.4h130.48"/>
  <path id="path634" d="m218.16 1602.6h130.6"/>
  <path id="path636" d="m218.1 1602.7h130.72"/>
  <path id="path638" d="m218.05 1602.9h130.84"/>
  <path id="path640" d="m217.99 1603h130.96"/>
  <path id="path642" d="m217.93 1603.1h131.07"/>
  <path id="path644" d="m217.87 1603.3h131.19"/>
  <path id="path646" d="m217.81 1603.4h131.31"/>
  <path id="path648" d="m217.75 1603.6h131.42"/>
  <path id="path650" d="m217.69 1603.7h131.54"/>
  <path id="path652" d="m217.63 1603.8h131.66"/>
  <path id="path654" d="m217.58 1604h131.78"/>
  <path id="path656" d="m217.52 1604.1h131.9"/>
  <path id="path658" d="m217.46 1604.3h132.01"/>
  <path id="path660" d="m217.4 1604.4h132.13"/>
  <path id="path662" d="m217.34 1604.6h132.25"/>
  <path id="path664" d="m217.28 1604.7h132.36"/>
  <path id="path666" d="m217.22 1604.8h132.48"/>
  <path id="path668" d="m217.16 1605h132.6"/>
  <path id="path670" d="m217.11 1605.1h132.72"/>
  <path id="path672" d="m217.05 1605.3h132.83"/>
  <path id="path674" d="m216.99 1605.4h132.95"/>
  <path id="path676" d="m216.93 1605.5h133.07"/>
  <path id="path678" d="m216.87 1605.7h133.18"/>
  <path id="path680" d="m216.83 1605.8h133.28"/>
  <path id="path682" d="m216.78 1606h133.36"/>
  <path id="path684" d="m216.74 1606.1h133.45"/>
  <path id="path686" d="m216.69 1606.3h133.54"/>
  <path id="path688" d="m216.65 1606.4h133.63"/>
  <path id="path690" d="m216.6 1606.5h133.72"/>
  <path id="path692" d="m216.56 1606.7h133.81"/>
  <path id="path694" d="m216.51 1606.8h133.9"/>
  <path id="path696" d="m216.47 1607h133.99"/>
  <path id="path698" d="m216.42 1607.1h134.08"/>
  <path id="path700" d="m216.38 1607.2h134.17"/>
  <path id="path702" d="m216.33 1607.4h134.26"/>
  <path id="path704" d="m216.29 1607.5h134.35"/>
  <path id="path706" d="m216.25 1607.7h134.44"/>
  <path id="path708" d="m216.2 1607.8h134.53"/>
  <path id="path710" d="m216.16 1608h134.62"/>
  <path id="path712" d="m216.11 1608.1h134.7"/>
  <path id="path714" d="m216.07 1608.2h134.8"/>
  <path id="path716" d="m216.02 1608.4h134.88"/>
  <path id="path718" d="m215.98 1608.5h134.97"/>
  <path id="path720" d="m215.93 1608.7h135.06"/>
  <path id="path722" d="m215.89 1608.8h135.15"/>
  <path id="path724" d="m215.84 1608.9h135.24"/>
  <path id="path726" d="m215.8 1609.1h135.33"/>
  <path id="path728" d="m215.75 1609.2h135.42"/>
  <path id="path730" d="m215.71 1609.4h135.51"/>
  <path id="path732" d="m215.66 1609.5h135.6"/>
  <path id="path734" d="m215.62 1609.7h135.69"/>
  <path id="path736" d="m215.58 1609.8h135.78"/>
  <path id="path738" d="m215.53 1609.9h135.87"/>
  <path id="path740" d="m215.49 1610.1h135.96"/>
  <path id="path742" d="m215.44 1610.2h136.04"/>
  <path id="path744" d="m215.4 1610.4h136.14"/>
  <path id="path746" d="m215.35 1610.5h136.22"/>
  <path id="path748" d="m215.31 1610.6h136.31"/>
  <path id="path750" d="m215.26 1610.8h136.4"/>
  <path id="path752" d="m215.22 1610.9h136.49"/>
  <path id="path754" d="m215.17 1611.1h136.58"/>
  <path id="path756" d="m215.13 1611.2h136.67"/>
  <path id="path758" d="m215.08 1611.4h136.76"/>
  <path id="path760" d="m215.04 1611.5h136.85"/>
  <path id="path762" d="m215 1611.6h136.93"/>
  <path id="path764" d="m214.97 1611.8h136.99"/>
  <path id="path766" d="m214.94 1611.9h137.06"/>
  <path id="path768" d="m214.91 1612.1h137.12"/>
  <path id="path770" d="m214.87 1612.2h137.18"/>
  <path id="path772" d="m214.84 1612.3h137.24"/>
  <path id="path774" d="m214.81 1612.5h137.3"/>
  <path id="path776" d="m214.78 1612.6h137.37"/>
  <path id="path778" d="m214.75 1612.8h137.43"/>
  <path id="path780" d="m214.72 1612.9h137.49"/>
  <path id="path782" d="m214.69 1613.1h137.56"/>
  <path id="path784" d="m214.65 1613.2h137.62"/>
  <path id="path786" d="m214.62 1613.3h137.68"/>
  <path id="path788" d="m214.59 1613.5h137.74"/>
  <path id="path790" d="m214.56 1613.6h137.81"/>
  <path id="path792" d="m214.53 1613.8h137.87"/>
  <path id="path794" d="m214.5 1613.9h137.93"/>
  <path id="path796" d="m214.47 1614h138"/>
  <path id="path798" d="m214.43 1614.2h138.06"/>
  <path id="path800" d="m214.4 1614.3h138.12"/>
  <path id="path802" d="m214.37 1614.5h138.18"/>
  <path id="path804" d="m214.34 1614.6h138.25"/>
  <path id="path806" d="m214.31 1614.8h138.31"/>
  <path id="path808" d="m214.28 1614.9h138.37"/>
  <path id="path810" d="m214.25 1615h138.44"/>
  <path id="path812" d="m214.21 1615.2h138.5"/>
  <path id="path814" d="m214.18 1615.3h138.56"/>
  <path id="path816" d="m214.15 1615.5h138.62"/>
  <path id="path818" d="m214.12 1615.6h138.69"/>
  <path id="path820" d="m214.09 1615.7h138.75"/>
  <path id="path822" d="m214.06 1615.9h138.81"/>
  <path id="path824" d="m214.03 1616h138.88"/>
  <path id="path826" d="m213.99 1616.2h138.94"/>
  <path id="path828" d="m213.96 1616.3h139"/>
  <path id="path830" d="m213.93 1616.5h139.06"/>
  <path id="path832" d="m213.9 1616.6h139.13"/>
  <path id="path834" d="m213.87 1616.7h139.19"/>
  <path id="path836" d="m213.84 1616.9h139.25"/>
  <path id="path838" d="m213.81 1617h139.32"/>
  <path id="path840" d="m213.77 1617.2h139.38"/>
  <path id="path842" d="m213.74 1617.3h139.44"/>
  <path id="path844" d="m213.71 1617.4h139.5"/>
  <path id="path846" d="m213.68 1617.6h139.57"/>
  <path id="path848" d="m213.66 1617.7h139.61"/>
  <path id="path850" d="m213.64 1617.9h139.65"/>
  <path id="path852" d="m213.62 1618h139.68"/>
  <path id="path854" d="m213.6 1618.2h139.72"/>
  <path id="path856" d="m213.58 1618.3h139.76"/>
  <path id="path858" d="m213.57 1618.4h139.8"/>
  <path id="path860" d="m213.55 1618.6h139.83"/>
  <path id="path862" d="m213.53 1618.7h139.87"/>
  <path id="path864" d="m213.51 1618.9h139.91"/>
  <path id="path866" d="m213.49 1619h139.94"/>
  <path id="path868" d="m213.47 1619.2h139.98"/>
  <path id="path870" d="m213.45 1619.3h140.02"/>
  <path id="path872" d="m213.44 1619.4h140.06"/>
  <path id="path874" d="m213.42 1619.6h140.1"/>
  <path id="path876" d="m213.4 1619.7h140.13"/>
  <path id="path878" d="m213.38 1619.9h140.17"/>
  <path id="path880" d="m213.36 1620h140.21"/>
  <path id="path882" d="m213.34 1620.1h140.24"/>
  <path id="path884" d="m213.32 1620.3h140.28"/>
  <path id="path886" d="m213.3 1620.4h140.32"/>
  <path id="path888" d="m213.29 1620.6h140.36"/>
  <path id="path890" d="m213.27 1620.7h140.39"/>
  <path id="path892" d="m213.25 1620.9h140.43"/>
  <path id="path894" d="m213.23 1621h140.47"/>
  <path id="path896" d="m213.21 1621.1h140.5"/>
  <path id="path898" d="m213.19 1621.3h140.54"/>
  <path id="path900" d="m213.17 1621.4h140.58"/>
  <path id="path902" d="m213.16 1621.6h140.62"/>
  <path id="path904" d="m213.14 1621.7h140.66"/>
  <path id="path906" d="m213.12 1621.8h140.69"/>
  <path id="path908" d="m213.1 1622h140.73"/>
  <path id="path910" d="m213.08 1622.1h140.77"/>
  <path id="path912" d="m213.06 1622.3h140.8"/>
  <path id="path914" d="m213.04 1622.4h140.84"/>
  <path id="path916" d="m213.02 1622.6h140.88"/>
  <path id="path918" d="m213.01 1622.7h140.92"/>
  <path id="path920" d="m212.99 1622.8h140.95"/>
  <path id="path922" d="m212.97 1623h140.99"/>
  <path id="path924" d="m212.95 1623.1h141.03"/>
  <path id="path926" d="m212.93 1623.3h141.06"/>
  <path id="path928" d="m212.91 1623.4h141.1"/>
  <path id="path930" d="m212.89 1623.5h141.14"/>
  <path id="path932" d="m212.88 1623.7h141.18"/>
  <path id="path934" d="m212.86 1623.8h141.2"/>
  <path id="path936" d="m212.86 1624h141.21"/>
  <path id="path938" d="m212.85 1624.1h141.22"/>
  <path id="path940" d="m212.85 1624.3h141.24"/>
  <path id="path942" d="m212.84 1624.4h141.25"/>
  <path id="path944" d="m212.83 1624.5h141.26"/>
  <path id="path946" d="m212.83 1624.7h141.28"/>
  <path id="path948" d="m212.82 1624.8h141.29"/>
  <path id="path950" d="m212.81 1625h141.3"/>
  <path id="path952" d="m212.81 1625.1h141.31"/>
  <path id="path954" d="m212.8 1625.2h141.32"/>
  <path id="path956" d="m212.8 1625.4h141.34"/>
  <path id="path958" d="m212.79 1625.5h141.35"/>
  <path id="path960" d="m212.78 1625.7h141.36"/>
  <path id="path962" d="m212.78 1625.8h141.37"/>
  <path id="path964" d="m212.77 1626h141.38"/>
  <path id="path966" d="m212.76 1626.1h141.4"/>
  <path id="path968" d="m212.76 1626.2h141.41"/>
  <path id="path970" d="m212.75 1626.4h141.42"/>
  <path id="path972" d="m212.75 1626.5h141.44"/>
  <path id="path974" d="m212.74 1626.7h141.45"/>
  <path id="path976" d="m212.73 1626.8h141.46"/>
  <path id="path978" d="m212.73 1626.9h141.47"/>
  <path id="path980" d="m212.72 1627.1h141.48"/>
  <path id="path982" d="m212.72 1627.2h141.5"/>
  <path id="path984" d="m212.71 1627.4h141.51"/>
  <path id="path986" d="m212.7 1627.5h141.52"/>
  <path id="path988" d="m212.7 1627.7h141.54"/>
  <path id="path990" d="m212.69 1627.8h141.55"/>
  <path id="path992" d="m212.68 1627.9h141.56"/>
  <path id="path994" d="m212.68 1628.1h141.57"/>
  <path id="path996" d="m212.67 1628.2h141.58"/>
  <path id="path998" d="m212.67 1628.4h141.6"/>
  <path id="path1000" d="m212.66 1628.5h141.61"/>
  <path id="path1002" d="m212.65 1628.6h141.62"/>
  <path id="path1004" d="m212.65 1628.8h141.63"/>
  <path id="path1006" d="m212.64 1628.9h141.64"/>
  <path id="path1008" d="m212.63 1629.1h141.66"/>
  <path id="path1010" d="m212.63 1629.2h141.67"/>
  <path id="path1012" d="m212.62 1629.4h141.68"/>
  <path id="path1014" d="m212.62 1629.5h141.7"/>
  <path id="path1016" d="m212.61 1629.6h141.71"/>
  <path id="path1018" d="m212.6 1629.8h141.72"/>
  <path id="path1020" d="m212.6 1629.9h141.73"/>
  <path id="path1022" d="m212.6 1630.1h141.72"/>
  <path id="path1024" d="m212.61 1630.2h141.71"/>
  <path id="path1026" d="m212.62 1630.3h141.7"/>
  <path id="path1028" d="m212.62 1630.5h141.68"/>
  <path id="path1030" d="m212.63 1630.6h141.67"/>
  <path id="path1032" d="m212.63 1630.8h141.66"/>
  <path id="path1034" d="m212.64 1630.9h141.64"/>
  <path id="path1036" d="m212.65 1631.1h141.63"/>
  <path id="path1038" d="m212.65 1631.2h141.62"/>
  <path id="path1040" d="m212.66 1631.3h141.61"/>
  <path id="path1042" d="m212.67 1631.5h141.6"/>
  <path id="path1044" d="m212.67 1631.6h141.58"/>
  <path id="path1046" d="m212.68 1631.8h141.57"/>
  <path id="path1048" d="m212.68 1631.9h141.56"/>
  <path id="path1050" d="m212.69 1632h141.55"/>
  <path id="path1052" d="m212.7 1632.2h141.54"/>
  <path id="path1054" d="m212.7 1632.3h141.52"/>
  <path id="path1056" d="m212.71 1632.5h141.51"/>
  <path id="path1058" d="m212.72 1632.6h141.5"/>
  <path id="path1060" d="m212.72 1632.8h141.48"/>
  <path id="path1062" d="m212.73 1632.9h141.47"/>
  <path id="path1064" d="m212.73 1633h141.46"/>
  <path id="path1066" d="m212.74 1633.2h141.45"/>
  <path id="path1068" d="m212.75 1633.3h141.44"/>
  <path id="path1070" d="m212.75 1633.5h141.42"/>
  <path id="path1072" d="m212.76 1633.6h141.41"/>
  <path id="path1074" d="m212.76 1633.7h141.4"/>
  <path id="path1076" d="m212.77 1633.9h141.38"/>
  <path id="path1078" d="m212.78 1634h141.37"/>
  <path id="path1080" d="m212.78 1634.2h141.36"/>
  <path id="path1082" d="m212.79 1634.3h141.35"/>
  <path id="path1084" d="m212.8 1634.5h141.34"/>
  <path id="path1086" d="m212.8 1634.6h141.32"/>
  <path id="path1088" d="m212.81 1634.7h141.31"/>
  <path id="path1090" d="m212.81 1634.9h141.3"/>
  <path id="path1092" d="m212.82 1635h141.29"/>
  <path id="path1094" d="m212.83 1635.2h141.28"/>
  <path id="path1096" d="m212.83 1635.3h141.26"/>
  <path id="path1098" d="m212.84 1635.4h141.25"/>
  <path id="path1100" d="m212.85 1635.6h141.24"/>
  <path id="path1102" d="m212.85 1635.7h141.22"/>
  <path id="path1104" d="m212.86 1635.9h141.21"/>
  <path id="path1106" d="m212.86 1636h141.2"/>
  <path id="path1108" d="m212.88 1636.2h141.18"/>
  <path id="path1110" d="m212.89 1636.3h141.14"/>
  <path id="path1112" d="m212.91 1636.4h141.1"/>
  <path id="path1114" d="m212.93 1636.6h141.06"/>
  <path id="path1116" d="m212.95 1636.7h141.03"/>
  <path id="path1118" d="m212.97 1636.9h140.99"/>
  <path id="path1120" d="m212.99 1637h140.95"/>
  <path id="path1122" d="m213.01 1637.2h140.92"/>
  <path id="path1124" d="m213.02 1637.3h140.88"/>
  <path id="path1126" d="m213.04 1637.4h140.84"/>
  <path id="path1128" d="m213.06 1637.6h140.8"/>
  <path id="path1130" d="m213.08 1637.7h140.77"/>
  <path id="path1132" d="m213.1 1637.9h140.73"/>
  <path id="path1134" d="m213.12 1638h140.69"/>
  <path id="path1136" d="m213.14 1638.1h140.66"/>
  <path id="path1138" d="m213.16 1638.3h140.62"/>
  <path id="path1140" d="m213.17 1638.4h140.58"/>
  <path id="path1142" d="m213.19 1638.6h140.54"/>
  <path id="path1144" d="m213.21 1638.7h140.5"/>
  <path id="path1146" d="m213.23 1638.9h140.47"/>
  <path id="path1148" d="m213.25 1639h140.43"/>
  <path id="path1150" d="m213.27 1639.1h140.39"/>
  <path id="path1152" d="m213.29 1639.3h140.36"/>
  <path id="path1154" d="m213.3 1639.4h140.32"/>
  <path id="path1156" d="m213.32 1639.6h140.28"/>
  <path id="path1158" d="m213.34 1639.7h140.24"/>
  <path id="path1160" d="m213.36 1639.8h140.21"/>
  <path id="path1162" d="m213.38 1640h140.17"/>
  <path id="path1164" d="m213.4 1640.1h140.13"/>
  <path id="path1166" d="m213.42 1640.3h140.1"/>
  <path id="path1168" d="m213.44 1640.4h140.06"/>
  <path id="path1170" d="m213.45 1640.6h140.02"/>
  <path id="path1172" d="m213.47 1640.7h139.98"/>
  <path id="path1174" d="m213.49 1640.8h139.94"/>
  <path id="path1176" d="m213.51 1641h139.91"/>
  <path id="path1178" d="m213.53 1641.1h139.87"/>
  <path id="path1180" d="m213.55 1641.3h139.83"/>
  <path id="path1182" d="m213.57 1641.4h139.8"/>
  <path id="path1184" d="m213.58 1641.5h139.76"/>
  <path id="path1186" d="m213.6 1641.7h139.72"/>
  <path id="path1188" d="m213.62 1641.8h139.68"/>
  <path id="path1190" d="m213.64 1642h139.65"/>
  <path id="path1192" d="m213.66 1642.1h139.61"/>
  <path id="path1194" d="m213.68 1642.3h139.57"/>
  <path id="path1196" d="m213.71 1642.4h139.5"/>
  <path id="path1198" d="m213.74 1642.5h139.44"/>
  <path id="path1200" d="m213.77 1642.7h139.38"/>
  <path id="path1202" d="m213.81 1642.8h139.32"/>
  <path id="path1204" d="m213.84 1643h139.25"/>
  <path id="path1206" d="m213.87 1643.1h139.19"/>
  <path id="path1208" d="m213.9 1643.2h139.13"/>
  <path id="path1210" d="m213.93 1643.4h139.06"/>
  <path id="path1212" d="m213.96 1643.5h139"/>
  <path id="path1214" d="m213.99 1643.7h138.94"/>
  <path id="path1216" d="m214.03 1643.8h138.88"/>
  <path id="path1218" d="m214.06 1644h138.81"/>
  <path id="path1220" d="m214.09 1644.1h138.75"/>
  <path id="path1222" d="m214.12 1644.2h138.69"/>
  <path id="path1224" d="m214.15 1644.4h138.62"/>
  <path id="path1226" d="m214.18 1644.5h138.56"/>
  <path id="path1228" d="m214.21 1644.7h138.5"/>
  <path id="path1230" d="m214.25 1644.8h138.44"/>
  <path id="path1232" d="m214.28 1644.9h138.37"/>
  <path id="path1234" d="m214.31 1645.1h138.31"/>
  <path id="path1236" d="m214.34 1645.2h138.25"/>
  <path id="path1238" d="m214.37 1645.4h138.18"/>
  <path id="path1240" d="m214.4 1645.5h138.12"/>
  <path id="path1242" d="m214.43 1645.7h138.06"/>
  <path id="path1244" d="m214.47 1645.8h138"/>
  <path id="path1246" d="m214.5 1645.9h137.93"/>
  <path id="path1248" d="m214.53 1646.1h137.87"/>
  <path id="path1250" d="m214.56 1646.2h137.81"/>
  <path id="path1252" d="m214.59 1646.4h137.74"/>
  <path id="path1254" d="m214.62 1646.5h137.68"/>
  <path id="path1256" d="m214.65 1646.6h137.62"/>
  <path id="path1258" d="m214.69 1646.8h137.56"/>
  <path id="path1260" d="m214.72 1646.9h137.49"/>
  <path id="path1262" d="m214.75 1647.1h137.43"/>
  <path id="path1264" d="m214.78 1647.2h137.37"/>
  <path id="path1266" d="m214.81 1647.4h137.3"/>
  <path id="path1268" d="m214.84 1647.5h137.24"/>
  <path id="path1270" d="m214.87 1647.6h137.18"/>
  <path id="path1272" d="m214.91 1647.8h137.12"/>
  <path id="path1274" d="m214.94 1647.9h137.06"/>
  <path id="path1276" d="m214.97 1648.1h136.99"/>
  <path id="path1278" d="m215 1648.2h136.93"/>
  <path id="path1280" d="m215.04 1648.3h136.85"/>
  <path id="path1282" d="m215.08 1648.5h136.76"/>
  <path id="path1284" d="m215.13 1648.6h136.67"/>
  <path id="path1286" d="m215.17 1648.8h136.58"/>
  <path id="path1288" d="m215.22 1648.9h136.49"/>
  <path id="path1290" d="m215.26 1649.1h136.4"/>
  <path id="path1292" d="m215.31 1649.2h136.31"/>
  <path id="path1294" d="m215.35 1649.3h136.22"/>
  <path id="path1296" d="m215.4 1649.5h136.14"/>
  <path id="path1298" d="m215.44 1649.6h136.04"/>
  <path id="path1300" d="m215.49 1649.8h135.96"/>
  <path id="path1302" d="m215.53 1649.9h135.87"/>
  <path id="path1304" d="m215.58 1650h135.78"/>
  <path id="path1306" d="m215.62 1650.2h135.69"/>
  <path id="path1308" d="m215.66 1650.3h135.6"/>
  <path id="path1310" d="m215.71 1650.5h135.51"/>
  <path id="path1312" d="m215.75 1650.6h135.42"/>
  <path id="path1314" d="m215.8 1650.8h135.33"/>
  <path id="path1316" d="m215.84 1650.9h135.24"/>
  <path id="path1318" d="m215.89 1651h135.15"/>
  <path id="path1320" d="m215.93 1651.2h135.06"/>
  <path id="path1322" d="m215.98 1651.3h134.97"/>
  <path id="path1324" d="m216.02 1651.5h134.88"/>
  <path id="path1326" d="m216.07 1651.6h134.8"/>
  <path id="path1328" d="m216.11 1651.7h134.7"/>
  <path id="path1330" d="m216.16 1651.9h134.62"/>
  <path id="path1332" d="m216.2 1652h134.53"/>
  <path id="path1334" d="m216.25 1652.2h134.44"/>
  <path id="path1336" d="m216.29 1652.3h134.35"/>
  <path id="path1338" d="m216.33 1652.5h134.26"/>
  <path id="path1340" d="m216.38 1652.6h134.17"/>
  <path id="path1342" d="m216.42 1652.7h134.08"/>
  <path id="path1344" d="m216.47 1652.9h133.99"/>
  <path id="path1346" d="m216.51 1653h133.9"/>
  <path id="path1348" d="m216.56 1653.2h133.81"/>
  <path id="path1350" d="m216.6 1653.3h133.72"/>
  <path id="path1352" d="m216.65 1653.4h133.63"/>
  <path id="path1354" d="m216.69 1653.6h133.54"/>
  <path id="path1356" d="m216.74 1653.7h133.45"/>
  <path id="path1358" d="m216.78 1653.9h133.36"/>
  <path id="path1360" d="m216.83 1654h133.28"/>
  <path id="path1362" d="m216.87 1654.2h133.18"/>
  <path id="path1364" d="m216.93 1654.3h133.07"/>
  <path id="path1366" d="m216.99 1654.4h132.95"/>
  <path id="path1368" d="m217.05 1654.6h132.83"/>
  <path id="path1370" d="m217.11 1654.7h132.72"/>
  <path id="path1372" d="m217.16 1654.9h132.6"/>
  <path id="path1374" d="m217.22 1655h132.48"/>
  <path id="path1376" d="m217.28 1655.2h132.36"/>
  <path id="path1378" d="m217.34 1655.3h132.25"/>
  <path id="path1380" d="m217.4 1655.4h132.13"/>
  <path id="path1382" d="m217.46 1655.6h132.01"/>
  <path id="path1384" d="m217.52 1655.7h131.9"/>
  <path id="path1386" d="m217.58 1655.9h131.78"/>
  <path id="path1388" d="m217.63 1656h131.66"/>
  <path id="path1390" d="m217.69 1656.1h131.54"/>
  <path id="path1392" d="m217.75 1656.3h131.42"/>
  <path id="path1394" d="m217.81 1656.4h131.31"/>
  <path id="path1396" d="m217.87 1656.6h131.19"/>
  <path id="path1398" d="m217.93 1656.7h131.07"/>
  <path id="path1400" d="m217.99 1656.9h130.96"/>
  <path id="path1402" d="m218.05 1657h130.84"/>
  <path id="path1404" d="m218.1 1657.1h130.72"/>
  <path id="path1406" d="m218.16 1657.3h130.6"/>
  <path id="path1408" d="m218.22 1657.4h130.48"/>
  <path id="path1410" d="m218.28 1657.6h130.37"/>
  <path id="path1412" d="m218.34 1657.7h130.25"/>
  <path id="path1414" d="m218.4 1657.8h130.13"/>
  <path id="path1416" d="m218.46 1658h130.02"/>
  <path id="path1418" d="m218.51 1658.1h129.9"/>
  <path id="path1420" d="m218.57 1658.3h129.78"/>
  <path id="path1422" d="m218.63 1658.4h129.66"/>
  <path id="path1424" d="m218.69 1658.6h129.55"/>
  <path id="path1426" d="m218.75 1658.7h129.43"/>
  <path id="path1428" d="m218.81 1658.8h129.31"/>
  <path id="path1430" d="m218.87 1659h129.19"/>
  <path id="path1432" d="m218.93 1659.1h129.08"/>
  <path id="path1434" d="m218.98 1659.3h128.96"/>
  <path id="path1436" d="m219.04 1659.4h128.84"/>
  <path id="path1438" d="m219.1 1659.5h128.72"/>
  <path id="path1440" d="m219.16 1659.7h128.61"/>
  <path id="path1442" d="m219.22 1659.8h128.49"/>
  <path id="path1444" d="m219.29 1660h128.35"/>
  <path id="path1446" d="m219.36 1660.1h128.2"/>
  <path id="path1448" d="m219.44 1660.3h128.06"/>
  <path id="path1450" d="m219.51 1660.4h127.91"/>
  <path id="path1452" d="m219.58 1660.5h127.76"/>
  <path id="path1454" d="m219.66 1660.7h127.61"/>
  <path id="path1456" d="m219.73 1660.8h127.46"/>
  <path id="path1458" d="m219.8 1661h127.32"/>
  <path id="path1460" d="m219.88 1661.1h127.17"/>
  <path id="path1462" d="m219.95 1661.2h127.02"/>
  <path id="path1464" d="m220.03 1661.4h126.88"/>
  <path id="path1466" d="m220.1 1661.5h126.73"/>
  <path id="path1468" d="m220.17 1661.7h126.58"/>
  <path id="path1470" d="m220.25 1661.8h126.43"/>
  <path id="path1472" d="m220.32 1662h126.28"/>
  <path id="path1474" d="m220.4 1662.1h126.14"/>
  <path id="path1476" d="m220.47 1662.2h125.99"/>
  <path id="path1478" d="m220.54 1662.4h125.84"/>
  <path id="path1480" d="m220.62 1662.5h125.7"/>
  <path id="path1482" d="m220.69 1662.7h125.55"/>
  <path id="path1484" d="m220.76 1662.8h125.4"/>
  <path id="path1486" d="m220.84 1662.9h125.25"/>
  <path id="path1488" d="m220.91 1663.1h125.1"/>
  <path id="path1490" d="m220.99 1663.2h124.96"/>
  <path id="path1492" d="m221.06 1663.4h124.81"/>
  <path id="path1494" d="m221.13 1663.5h124.66"/>
  <path id="path1496" d="m221.21 1663.7h124.52"/>
  <path id="path1498" d="m221.28 1663.8h124.37"/>
  <path id="path1500" d="m221.35 1663.9h124.22"/>
  <path id="path1502" d="m221.43 1664.1h124.07"/>
  <path id="path1504" d="m221.5 1664.2h123.92"/>
  <path id="path1506" d="m221.58 1664.4h123.78"/>
  <path id="path1508" d="m221.65 1664.5h123.63"/>
  <path id="path1510" d="m221.72 1664.6h123.48"/>
  <path id="path1512" d="m221.8 1664.8h123.33"/>
  <path id="path1514" d="m221.87 1664.9h123.19"/>
  <path id="path1516" d="m221.94 1665.1h123.04"/>
  <path id="path1518" d="m222.02 1665.2h122.89"/>
  <path id="path1520" d="m222.09 1665.4h122.74"/>
  <path id="path1522" d="m222.18 1665.5h122.56"/>
  <path id="path1524" d="m222.27 1665.6h122.38"/>
  <path id="path1526" d="m222.36 1665.8h122.2"/>
  <path id="path1528" d="m222.45 1665.9h122.02"/>
  <path id="path1530" d="m222.54 1666.1h121.84"/>
  <path id="path1532" d="m222.63 1666.2h121.66"/>
  <path id="path1534" d="m222.72 1666.3h121.48"/>
  <path id="path1536" d="m222.81 1666.5h121.3"/>
  <path id="path1538" d="m222.9 1666.6h121.12"/>
  <path id="path1540" d="m222.99 1666.8h120.94"/>
  <path id="path1542" d="m223.09 1666.9h120.76"/>
  <path id="path1544" d="m223.18 1667.1h120.58"/>
  <path id="path1546" d="m223.27 1667.2h120.4"/>
  <path id="path1548" d="m223.36 1667.3h120.22"/>
  <path id="path1550" d="m223.45 1667.5h120.04"/>
  <path id="path1552" d="m223.54 1667.6h119.86"/>
  <path id="path1554" d="m223.63 1667.8h119.67"/>
  <path id="path1556" d="m223.72 1667.9h119.49"/>
  <path id="path1558" d="m223.81 1668h119.31"/>
  <path id="path1560" d="m223.9 1668.2h119.13"/>
  <path id="path1562" d="m223.99 1668.3h118.95"/>
  <path id="path1564" d="m224.08 1668.5h118.77"/>
  <path id="path1566" d="m224.17 1668.6h118.59"/>
  <path id="path1568" d="m224.26 1668.8h118.41"/>
  <path id="path1570" d="m224.35 1668.9h118.23"/>
  <path id="path1572" d="m224.44 1669h118.05"/>
  <path id="path1574" d="m224.53 1669.2h117.87"/>
  <path id="path1576" d="m224.62 1669.3h117.69"/>
  <path id="path1578" d="m224.71 1669.5h117.51"/>
  <path id="path1580" d="m224.8 1669.6h117.33"/>
  <path id="path1582" d="m224.89 1669.7h117.14"/>
  <path id="path1584" d="m224.98 1669.9h116.96"/>
  <path id="path1586" d="m225.07 1670h116.78"/>
  <path id="path1588" d="m225.16 1670.2h116.6"/>
  <path id="path1590" d="m225.25 1670.3h116.42"/>
  <path id="path1592" d="m225.34 1670.5h116.24"/>
  <path id="path1594" d="m225.44 1670.6h116.06"/>
  <path id="path1596" d="m225.55 1670.7h115.84"/>
  <path id="path1598" d="m225.65 1670.9h115.62"/>
  <path id="path1600" d="m225.76 1671h115.4"/>
  <path id="path1602" d="m225.87 1671.2h115.18"/>
  <path id="path1604" d="m225.98 1671.3h114.97"/>
  <path id="path1606" d="m226.09 1671.4h114.75"/>
  <path id="path1608" d="m226.2 1671.6h114.53"/>
  <path id="path1610" d="m226.31 1671.7h114.32"/>
  <path id="path1612" d="m226.42 1671.9h114.1"/>
  <path id="path1614" d="m226.52 1672h113.88"/>
  <path id="path1616" d="m226.63 1672.2h113.66"/>
  <path id="path1618" d="m226.74 1672.3h113.44"/>
  <path id="path1620" d="m226.85 1672.4h113.23"/>
  <path id="path1622" d="m226.96 1672.6h113.01"/>
  <path id="path1624" d="m227.07 1672.7h112.79"/>
  <path id="path1626" d="m227.18 1672.9h112.57"/>
  <path id="path1628" d="m227.29 1673h112.36"/>
  <path id="path1630" d="m227.39 1673.2h112.14"/>
  <path id="path1632" d="m227.5 1673.3h111.92"/>
  <path id="path1634" d="m227.61 1673.4h111.7"/>
  <path id="path1636" d="m227.72 1673.6h111.49"/>
  <path id="path1638" d="m227.83 1673.7h111.27"/>
  <path id="path1640" d="m227.94 1673.9h111.05"/>
  <path id="path1642" d="m228.05 1674h110.83"/>
  <path id="path1644" d="m228.16 1674.1h110.62"/>
  <path id="path1646" d="m228.26 1674.3h110.4"/>
  <path id="path1648" d="m228.37 1674.4h110.18"/>
  <path id="path1650" d="m228.48 1674.6h109.96"/>
  <path id="path1652" d="m228.59 1674.7h109.75"/>
  <path id="path1654" d="m228.7 1674.9h109.53"/>
  <path id="path1656" d="m228.81 1675h109.31"/>
  <path id="path1658" d="m228.92 1675.1h109.09"/>
  <path id="path1660" d="m229.03 1675.3h108.88"/>
  <path id="path1662" d="m229.13 1675.4h108.66"/>
  <path id="path1664" d="m229.26 1675.6h108.42"/>
  <path id="path1666" d="m229.39 1675.7h108.16"/>
  <path id="path1668" d="m229.52 1675.8h107.9"/>
  <path id="path1670" d="m229.65 1676h107.64"/>
  <path id="path1672" d="m229.78 1676.1h107.38"/>
  <path id="path1674" d="m229.91 1676.3h107.12"/>
  <path id="path1676" d="m230.04 1676.4h106.86"/>
  <path id="path1678" d="m230.17 1676.6h106.6"/>
  <path id="path1680" d="m230.29 1676.7h106.34"/>
  <path id="path1682" d="m230.42 1676.8h106.08"/>
  <path id="path1684" d="m230.55 1677h105.82"/>
  <path id="path1686" d="m230.68 1677.1h105.56"/>
  <path id="path1688" d="m230.81 1677.3h105.3"/>
  <path id="path1690" d="m230.94 1677.4h105.04"/>
  <path id="path1692" d="m231.07 1677.5h104.78"/>
  <path id="path1694" d="m231.2 1677.7h104.52"/>
  <path id="path1696" d="m231.33 1677.8h104.26"/>
  <path id="path1698" d="m231.46 1678h104"/>
  <path id="path1700" d="m231.59 1678.1h103.74"/>
  <path id="path1702" d="m231.72 1678.3h103.48"/>
  <path id="path1704" d="m231.85 1678.4h103.22"/>
  <path id="path1706" d="m231.98 1678.5h102.96"/>
  <path id="path1708" d="m232.11 1678.7h102.7"/>
  <path id="path1710" d="m232.24 1678.8h102.44"/>
  <path id="path1712" d="m232.37 1679h102.18"/>
  <path id="path1714" d="m232.5 1679.1h101.92"/>
  <path id="path1716" d="m232.63 1679.2h101.66"/>
  <path id="path1718" d="m232.76 1679.4h101.4"/>
  <path id="path1720" d="m232.89 1679.5h101.14"/>
  <path id="path1722" d="m233.02 1679.7h100.88"/>
  <path id="path1724" d="m233.15 1679.8h100.62"/>
  <path id="path1726" d="m233.28 1680h100.36"/>
  <path id="path1728" d="m233.42 1680.1h100.08"/>
  <path id="path1730" d="m233.58 1680.2h99.773"/>
  <path id="path1732" d="m233.73 1680.4h99.463"/>
  <path id="path1734" d="m233.89 1680.5h99.153"/>
  <path id="path1736" d="m234.04 1680.7h98.845"/>
  <path id="path1738" d="m234.2 1680.8h98.535"/>
  <path id="path1740" d="m234.35 1680.9h98.225"/>
  <path id="path1742" d="m234.51 1681.1h97.917"/>
  <path id="path1744" d="m234.66 1681.2h97.607"/>
  <path id="path1746" d="m234.82 1681.4h97.297"/>
  <path id="path1748" d="m234.97 1681.5h96.989"/>
  <path id="path1750" d="m235.12 1681.7h96.679"/>
  <path id="path1752" d="m235.28 1681.8h96.369"/>
  <path id="path1754" d="m235.43 1681.9h96.061"/>
  <path id="path1756" d="m235.59 1682.1h95.751"/>
  <path id="path1758" d="m235.74 1682.2h95.441"/>
  <path id="path1760" d="m235.9 1682.4h95.133"/>
  <path id="path1762" d="m236.05 1682.5h94.823"/>
  <path id="path1764" d="m236.21 1682.6h94.513"/>
  <path id="path1766" d="m236.36 1682.8h94.205"/>
  <path id="path1768" d="m236.52 1682.9h93.895"/>
  <path id="path1770" d="m236.67 1683.1h93.585"/>
  <path id="path1772" d="m236.83 1683.2h93.276"/>
  <path id="path1774" d="m236.98 1683.4h92.967"/>
  <path id="path1776" d="m237.14 1683.5h92.657"/>
  <path id="path1778" d="m237.29 1683.6h92.348"/>
  <path id="path1780" d="m237.44 1683.8h92.039"/>
  <path id="path1782" d="m237.6 1683.9h91.729"/>
  <path id="path1784" d="m237.75 1684.1h91.42"/>
  <path id="path1786" d="m237.91 1684.2h91.111"/>
  <path id="path1788" d="m238.09 1684.3h90.743"/>
  <path id="path1790" d="m238.28 1684.5h90.373"/>
  <path id="path1792" d="m238.46 1684.6h90.004"/>
  <path id="path1794" d="m238.65 1684.8h89.635"/>
  <path id="path1796" d="m238.83 1684.9h89.265"/>
  <path id="path1798" d="m239.02 1685.1h88.895"/>
  <path id="path1800" d="m239.2 1685.2h88.526"/>
  <path id="path1802" d="m239.39 1685.3h88.157"/>
  <path id="path1804" d="m239.57 1685.5h87.787"/>
  <path id="path1806" d="m239.76 1685.6h87.417"/>
  <path id="path1808" d="m239.94 1685.8h87.049"/>
  <path id="path1810" d="m240.12 1685.9h86.679"/>
  <path id="path1812" d="m240.31 1686h86.309"/>
  <path id="path1814" d="m240.49 1686.2h85.94"/>
  <path id="path1816" d="m240.68 1686.3h85.571"/>
  <path id="path1818" d="m240.86 1686.5h85.201"/>
  <path id="path1820" d="m241.05 1686.6h84.832"/>
  <path id="path1822" d="m241.23 1686.8h84.463"/>
  <path id="path1824" d="m241.42 1686.9h84.093"/>
  <path id="path1826" d="m241.6 1687h83.723"/>
  <path id="path1828" d="m241.79 1687.2h83.355"/>
  <path id="path1830" d="m241.97 1687.3h82.985"/>
  <path id="path1832" d="m242.16 1687.5h82.615"/>
  <path id="path1834" d="m242.34 1687.6h82.246"/>
  <path id="path1836" d="m242.53 1687.7h81.877"/>
  <path id="path1838" d="m242.71 1687.9h81.507"/>
  <path id="path1840" d="m242.91 1688h81.105"/>
  <path id="path1842" d="m243.13 1688.2h80.661"/>
  <path id="path1844" d="m243.36 1688.3h80.215"/>
  <path id="path1846" d="m243.58 1688.5h79.771"/>
  <path id="path1848" d="m243.8 1688.6h79.325"/>
  <path id="path1850" d="m244.02 1688.7h78.881"/>
  <path id="path1852" d="m244.25 1688.9h78.436"/>
  <path id="path1854" d="m244.47 1689h77.991"/>
  <path id="path1856" d="m244.69 1689.2h77.546"/>
  <path id="path1858" d="m244.91 1689.3h77.101"/>
  <path id="path1860" d="m245.14 1689.4h76.656"/>
  <path id="path1862" d="m245.36 1689.6h76.211"/>
  <path id="path1864" d="m245.58 1689.7h75.767"/>
  <path id="path1866" d="m245.8 1689.9h75.321"/>
  <path id="path1868" d="m246.03 1690h74.877"/>
  <path id="path1870" d="m246.25 1690.2h74.431"/>
  <path id="path1872" d="m246.47 1690.3h73.987"/>
  <path id="path1874" d="m246.69 1690.4h73.541"/>
  <path id="path1876" d="m246.92 1690.6h73.097"/>
  <path id="path1878" d="m247.14 1690.7h72.651"/>
  <path id="path1880" d="m247.36 1690.9h72.207"/>
  <path id="path1882" d="m247.58 1691h71.761"/>
  <path id="path1884" d="m247.81 1691.2h71.317"/>
  <path id="path1886" d="m248.03 1691.3h70.872"/>
  <path id="path1888" d="m248.3 1691.4h70.329"/>
  <path id="path1890" d="m248.57 1691.6h69.784"/>
  <path id="path1892" d="m248.84 1691.7h69.239"/>
  <path id="path1894" d="m249.12 1691.9h68.695"/>
  <path id="path1896" d="m249.39 1692h68.151"/>
  <path id="path1898" d="m249.66 1692.1h67.606"/>
  <path id="path1900" d="m249.93 1692.3h67.061"/>
  <path id="path1902" d="m250.21 1692.4h66.517"/>
  <path id="path1904" d="m250.48 1692.6h65.973"/>
  <path id="path1906" d="m250.75 1692.7h65.427"/>
  <path id="path1908" d="m251.02 1692.9h64.883"/>
  <path id="path1910" d="m251.29 1693h64.339"/>
  <path id="path1912" d="m251.57 1693.1h63.794"/>
  <path id="path1914" d="m251.84 1693.3h63.249"/>
  <path id="path1916" d="m252.11 1693.4h62.705"/>
  <path id="path1918" d="m252.38 1693.6h62.161"/>
  <path id="path1920" d="m252.66 1693.7h61.616"/>
  <path id="path1922" d="m252.93 1693.8h61.071"/>
  <path id="path1924" d="m253.2 1694h60.527"/>
  <path id="path1926" d="m253.47 1694.1h59.983"/>
  <path id="path1928" d="m253.8 1694.3h59.319"/>
  <path id="path1930" d="m254.15 1694.4h58.635"/>
  <path id="path1932" d="m254.49 1694.6h57.951"/>
  <path id="path1934" d="m254.83 1694.7h57.267"/>
  <path id="path1936" d="m255.17 1694.8h56.582"/>
  <path id="path1938" d="m255.52 1695h55.897"/>
  <path id="path1940" d="m255.86 1695.1h55.213"/>
  <path id="path1942" d="m256.2 1695.3h54.529"/>
  <path id="path1944" d="m256.54 1695.4h53.845"/>
  <path id="path1946" d="m256.88 1695.5h53.161"/>
  <path id="path1948" d="m257.23 1695.7h52.476"/>
  <path id="path1950" d="m257.57 1695.8h51.792"/>
  <path id="path1952" d="m257.91 1696h51.107"/>
  <path id="path1954" d="m258.25 1696.1h50.423"/>
  <path id="path1956" d="m258.59 1696.3h49.739"/>
  <path id="path1958" d="m258.94 1696.4h49.055"/>
  <path id="path1960" d="m259.3 1696.5h48.337"/>
  <path id="path1962" d="m259.74 1696.7h47.438"/>
  <path id="path1964" d="m260.19 1696.8h46.539"/>
  <path id="path1966" d="m260.64 1697h45.64"/>
  <path id="path1968" d="m261.09 1697.1h44.741"/>
  <path id="path1970" d="m261.54 1697.2h43.842"/>
  <path id="path1972" d="m261.99 1697.4h42.943"/>
  <path id="path1974" d="m262.44 1697.5h42.043"/>
  <path id="path1976" d="m262.89 1697.7h41.145"/>
  <path id="path1978" d="m263.34 1697.8h40.245"/>
  <path id="path1980" d="m263.79 1698h39.347"/>
  <path id="path1982" d="m264.24 1698.1h38.447"/>
  <path id="path1984" d="m264.69 1698.2h37.549"/>
  <path id="path1986" d="m265.15 1698.4h36.635"/>
  <path id="path1988" d="m265.79 1698.5h35.357"/>
  <path id="path1990" d="m266.42 1698.7h34.079"/>
  <path id="path1992" d="m267.06 1698.8h32.799"/>
  <path id="path1994" d="m267.7 1698.9h31.521"/>
  <path id="path1996" d="m268.34 1699.1h30.243"/>
  <path id="path1998" d="m268.98 1699.2h28.964"/>
  <path id="path2000" d="m269.62 1699.4h27.685"/>
  <path id="path2002" d="m270.26 1699.5h26.407"/>
  <path id="path2004" d="m270.9 1699.7h25.129"/>
  <path id="path2006" d="m271.8 1699.8h23.329"/>
  <path id="path2008" d="m272.88 1699.9h21.175"/>
  <path id="path2010" d="m273.95 1700.1h19.023"/>
  <path id="path2012" d="m275.03 1700.2h16.869"/>
  <path id="path2014" d="m276.11 1700.4h14.716"/>
  <path id="path2016" d="m277.18 1700.5h12.563"/>
  <path id="path2018" d="m280.22 1700.6h6.493"/>
 </g>
</svg>
