<?xml version="1.0" encoding="UTF-8"?>
<svg id="svg28" width="574.5" height="574.5" version="1.1" viewBox="0 0 574.5 574.5" xmlns="http://www.w3.org/2000/svg">
 <g id="g26" transform="translate(7.5663 -2440.7)" fill="none" stroke="#000" stroke-width="4mm">
  <path id="path6" d="m559.36 2728.9-1.06 24.287-3.173 24.102-5.262 23.734-7.31 23.185-9.303 22.459-11.225 21.563-13.062 20.503-14.799 19.287-16.424 17.923-17.923 16.423"/>
  <path id="path8" d="m459.82 2942.4-19.286 14.8-20.503 13.061-21.563 11.225-22.46 9.303-23.184 7.31-23.734 5.262-24.102 3.173-24.287 1.061-24.287-1.061-24.102-3.173"/>
  <path id="path10" d="m232.31 3003.4-23.734-5.262-23.184-7.31-22.46-9.303-21.563-11.225-20.503-13.061-19.286-14.8-17.924-16.423-16.423-17.923-14.799-19.287-13.062-20.503"/>
  <path id="path12" d="m39.376 2868.3-11.225-21.563-9.303-22.459-7.31-23.185-5.262-23.734-3.173-24.102-1.06-24.287 1.06-24.286 3.173-24.102 5.262-23.734 7.31-23.185"/>
  <path id="path14" d="m18.848 2633.6 9.303-22.459 11.225-21.564 13.062-20.502 14.799-19.287 16.423-17.923 17.924-16.424 19.286-14.799 20.503-13.061 21.563-11.225 22.46-9.303"/>
  <path id="path16" d="m185.4 2467.1 23.184-7.311 23.734-5.261 24.102-3.173 24.287-1.061 24.287 1.061 24.102 3.173 23.733 5.261 23.185 7.311 22.46 9.303 21.563 11.225"/>
  <path id="path18" d="m420.03 2487.6 20.503 13.061 19.286 14.799 17.923 16.424 16.424 17.923 14.799 19.287 13.062 20.502 11.225 21.564 9.303 22.459 7.31 23.185 5.262 23.734"/>
  <path id="path20" d="m555.13 2680.6 3.173 24.102 1.06 24.286-1.06 24.287"/>
  <path id="path22" d="m280.7 2440.7v566.93"/>
  <path id="path24" d="m-7.5663 2728.9h566.93"/>
 </g>
</svg>
