<?xml version="1.0" encoding="UTF-8" standalone="no"?>
<svg
   width="574.49524"
   height="574.49628"
   viewBox="0 0 574.49522 574.49626"
   version="1.1"
   id="svg28"
   sodipodi:docname="POSITN02.hpgl.svg"
   inkscape:version="1.1.2 (0a00cf5339, 2022-02-04)"
   xmlns:inkscape="http://www.inkscape.org/namespaces/inkscape"
   xmlns:sodipodi="http://sodipodi.sourceforge.net/DTD/sodipodi-0.dtd"
   xmlns="http://www.w3.org/2000/svg"
   xmlns:svg="http://www.w3.org/2000/svg">
  <defs
     id="defs32" />
  <sodipodi:namedview
     id="namedview30"
     pagecolor="#ffffff"
     bordercolor="#666666"
     borderopacity="1.0"
     inkscape:pageshadow="2"
     inkscape:pageopacity="0.0"
     inkscape:pagecheckerboard="0"
     showgrid="false"
     inkscape:zoom="1.2682364"
     inkscape:cx="290.95522"
     inkscape:cy="-2156.9322"
     inkscape:window-width="1495"
     inkscape:window-height="970"
     inkscape:window-x="0"
     inkscape:window-y="32"
     inkscape:window-maximized="0"
     inkscape:current-layer="svg28" />
  <g
     id="g2"
     transform="translate(7.5662517,-2440.678)" />
  <g
     style="fill:none;stroke:#000000;stroke-width:1mm"
     id="g4"
     transform="translate(7.5662517,-2440.678)" />
  <g
     style="fill:none;stroke:#000000;stroke-width:4mm"
     id="g26"
     transform="translate(7.5662517,-2440.678)">
    <path
       d="m 559.36275,2728.947 -1.06,24.287 -3.173,24.102 -5.262,23.734 -7.31,23.185 -9.303,22.459 -11.225,21.563 -13.062,20.503 -14.799,19.287 -16.424,17.923 -17.923,16.423"
       id="path6" />
    <path
       d="m 459.82175,2942.413 -19.286,14.8 -20.503,13.061 -21.563,11.225 -22.46,9.303 -23.184,7.31 -23.734,5.262 -24.102,3.173 -24.287,1.061 -24.287,-1.061 -24.102,-3.173"
       id="path8" />
    <path
       d="m 232.31375,3003.374 -23.734,-5.262 -23.184,-7.31 -22.46,-9.303 -21.563,-11.225 -20.503,-13.061 -19.286,-14.8 -17.924002,-16.423 -16.423,-17.923 -14.799,-19.287 -13.062,-20.503"
       id="path10" />
    <path
       d="m 39.375748,2868.277 -11.225,-21.563 -9.303,-22.459 -7.31,-23.185 -5.2619997,-23.734 -3.173,-24.102 -1.06,-24.287 1.06,-24.286 3.173,-24.102 5.2619997,-23.734 7.31,-23.185"
       id="path12" />
    <path
       d="m 18.847748,2633.64 9.303,-22.459 11.225,-21.564 13.062,-20.502 14.799,-19.287 16.423,-17.923 17.924002,-16.424 19.286,-14.799 20.503,-13.061 21.563,-11.225 22.46,-9.303"
       id="path14" />
    <path
       d="m 185.39575,2467.093 23.184,-7.311 23.734,-5.261 24.102,-3.173 24.287,-1.061 24.287,1.061 24.102,3.173 23.733,5.261 23.185,7.311 22.46,9.303 21.563,11.225"
       id="path16" />
    <path
       d="m 420.03275,2487.621 20.503,13.061 19.286,14.799 17.923,16.424 16.424,17.923 14.799,19.287 13.062,20.502 11.225,21.564 9.303,22.459 7.31,23.185 5.262,23.734"
       id="path18" />
    <path
       d="m 555.12975,2680.559 3.173,24.102 1.06,24.286 -1.06,24.287"
       id="path20" />
    <path
       d="m 280.70275,2440.678 v 566.93"
       id="path22" />
    <path
       d="M -7.5662517,2728.947 H 559.36275"
       id="path24" />
  </g>
</svg>
