<?xml version="1.0" encoding="UTF-8" standalone="no"?>
<svg
   width="563.21198"
   height="566.92902"
   viewBox="0 0 563.212 566.929"
   version="1.1"
   id="svg40"
   sodipodi:docname="RACNSP01.hpgl.svg"
   inkscape:version="1.1.2 (0a00cf5339, 2022-02-04)"
   xmlns:inkscape="http://www.inkscape.org/namespaces/inkscape"
   xmlns:sodipodi="http://sodipodi.sourceforge.net/DTD/sodipodi-0.dtd"
   xmlns="http://www.w3.org/2000/svg"
   xmlns:svg="http://www.w3.org/2000/svg">
  <defs
     id="defs44" />
  <sodipodi:namedview
     id="namedview42"
     pagecolor="#ffffff"
     bordercolor="#666666"
     borderopacity="1.0"
     inkscape:pageshadow="2"
     inkscape:pageopacity="0.0"
     inkscape:pagecheckerboard="0"
     showgrid="false"
     inkscape:zoom="1.2682364"
     inkscape:cx="281.49326"
     inkscape:cy="-974.97595"
     inkscape:window-width="1495"
     inkscape:window-height="970"
     inkscape:window-x="0"
     inkscape:window-y="32"
     inkscape:window-maximized="0"
     inkscape:current-layer="svg40" />
  <g
     id="g2"
     transform="translate(0,-1258.397)" />
  <g
     style="fill:none;stroke:#000000;stroke-width:1mm"
     id="g4"
     transform="translate(0,-1258.397)" />
  <g
     style="fill:none;stroke:#000000;stroke-width:4mm"
     id="g38"
     transform="translate(0,-1258.397)">
    <path
       d="m 422.874,1543.72 -0.527,12.07 -1.577,11.977 -2.615,11.794 -3.633,11.522 -4.623,11.161 -5.578,10.716 -6.491,10.189 -7.354,9.584 -8.162,8.907 -8.907,8.162"
       id="path6" />
    <path
       d="m 373.407,1649.802 -9.584,7.354 -10.189,6.491 -10.716,5.578 -11.161,4.623 -11.521,3.633 -11.795,2.615 -11.977,1.577 -12.07,0.527 -12.069,-0.527 -11.977,-1.577"
       id="path8" />
    <path
       d="m 260.348,1680.096 -11.795,-2.615 -11.521,-3.633 -11.162,-4.623 -10.715,-5.578 -10.189,-6.491 -9.584,-7.354 -8.907,-8.162 -8.162,-8.907 -7.354,-9.584 -6.491,-10.189"
       id="path10" />
    <path
       d="m 164.468,1612.96 -5.579,-10.716 -4.623,-11.161 -3.633,-11.522 -2.614,-11.794 -1.577,-11.977 -0.527,-12.07 0.527,-12.069 1.577,-11.977 2.614,-11.795 3.633,-11.521"
       id="path12" />
    <path
       d="m 154.266,1496.358 4.623,-11.162 5.579,-10.715 6.491,-10.189 7.354,-9.585 8.162,-8.906 8.906,-8.162 9.585,-7.354 10.189,-6.491 10.715,-5.579 11.162,-4.623"
       id="path14" />
    <path
       d="m 237.032,1413.592 11.521,-3.633 11.795,-2.614 11.977,-1.577 12.069,-0.527 12.07,0.527 11.977,1.577 11.794,2.614 11.522,3.633 11.161,4.623 10.716,5.579"
       id="path16" />
    <path
       d="m 353.634,1423.794 10.189,6.491 9.584,7.354 8.907,8.162 8.162,8.906 7.354,9.585 6.491,10.189 5.578,10.715 4.623,11.162 3.633,11.521 2.615,11.795"
       id="path18" />
    <path
       d="m 420.77,1519.674 1.577,11.977 0.527,12.069 -0.527,12.07"
       id="path20" />
    <path
       d="M 285.324,1405.241 V 1258.397"
       id="path22" />
    <path
       d="m 284.394,1683.129 v 142.197"
       id="path24" />
    <path
       d="M 423.803,1540.932 H 563.212"
       id="path26" />
    <path
       d="M 144.986,1541.861 H 0"
       id="path28" />
    <path
       d="M 381.051,1640.377 483.284,1742.61"
       id="path30" />
    <path
       d="M 481.425,1347.619 380.122,1449.852"
       id="path32" />
    <path
       d="M 184.02,1641.306 81.787,1743.54"
       id="path34" />
    <path
       d="m 85.504,1346.689 101.304,102.233"
       id="path36" />
  </g>
</svg>
