<?xml version="1.0" encoding="UTF-8"?>
<svg id="svg40" width="563.21" height="566.93" version="1.1" viewBox="0 0 563.21 566.93" xmlns="http://www.w3.org/2000/svg">
 <g id="g38" transform="translate(0 -1258.4)" fill="none" stroke="#000" stroke-width="4mm">
  <path id="path6" d="m422.87 1543.7-0.527 12.07-1.577 11.977-2.615 11.794-3.633 11.522-4.623 11.161-5.578 10.716-6.491 10.189-7.354 9.584-8.162 8.907-8.907 8.162"/>
  <path id="path8" d="m373.41 1649.8-9.584 7.354-10.189 6.491-10.716 5.578-11.161 4.623-11.521 3.633-11.795 2.615-11.977 1.577-12.07 0.527-12.069-0.527-11.977-1.577"/>
  <path id="path10" d="m260.35 1680.1-11.795-2.615-11.521-3.633-11.162-4.623-10.715-5.578-10.189-6.491-9.584-7.354-8.907-8.162-8.162-8.907-7.354-9.584-6.491-10.189"/>
  <path id="path12" d="m164.47 1613-5.579-10.716-4.623-11.161-3.633-11.522-2.614-11.794-1.577-11.977-0.527-12.07 0.527-12.069 1.577-11.977 2.614-11.795 3.633-11.521"/>
  <path id="path14" d="m154.27 1496.4 4.623-11.162 5.579-10.715 6.491-10.189 7.354-9.585 8.162-8.906 8.906-8.162 9.585-7.354 10.189-6.491 10.715-5.579 11.162-4.623"/>
  <path id="path16" d="m237.03 1413.6 11.521-3.633 11.795-2.614 11.977-1.577 12.069-0.527 12.07 0.527 11.977 1.577 11.794 2.614 11.522 3.633 11.161 4.623 10.716 5.579"/>
  <path id="path18" d="m353.63 1423.8 10.189 6.491 9.584 7.354 8.907 8.162 8.162 8.906 7.354 9.585 6.491 10.189 5.578 10.715 4.623 11.162 3.633 11.521 2.615 11.795"/>
  <path id="path20" d="m420.77 1519.7 1.577 11.977 0.527 12.069-0.527 12.07"/>
  <path id="path22" d="m285.32 1405.2v-146.84"/>
  <path id="path24" d="m284.39 1683.1v142.2"/>
  <path id="path26" d="m423.8 1540.9h139.41"/>
  <path id="path28" d="m144.99 1541.9h-144.99"/>
  <path id="path30" d="m381.05 1640.4 102.23 102.23"/>
  <path id="path32" d="m481.42 1347.6-101.3 102.23"/>
  <path id="path34" d="m184.02 1641.3-102.23 102.23"/>
  <path id="path36" d="m85.504 1346.7 101.3 102.23"/>
 </g>
</svg>
