<?xml version="1.0" encoding="UTF-8" standalone="no"?>
<svg
   width="414.77499"
   height="582.05536"
   viewBox="0 0 414.775 582.05534"
   version="1.1"
   id="svg38"
   sodipodi:docname="RASCAN11.hpgl.svg"
   inkscape:version="1.1.2 (0a00cf5339, 2022-02-04)"
   xmlns:inkscape="http://www.inkscape.org/namespaces/inkscape"
   xmlns:sodipodi="http://sodipodi.sourceforge.net/DTD/sodipodi-0.dtd"
   xmlns="http://www.w3.org/2000/svg"
   xmlns:svg="http://www.w3.org/2000/svg">
  <defs
     id="defs42" />
  <sodipodi:namedview
     id="namedview40"
     pagecolor="#ffffff"
     bordercolor="#666666"
     borderopacity="1.0"
     inkscape:pageshadow="2"
     inkscape:pageopacity="0.0"
     inkscape:pagecheckerboard="0"
     showgrid="false"
     inkscape:zoom="1.2682364"
     inkscape:cx="207.37459"
     inkscape:cy="-542.87986"
     inkscape:window-width="1495"
     inkscape:window-height="970"
     inkscape:window-x="0"
     inkscape:window-y="32"
     inkscape:window-maximized="0"
     inkscape:current-layer="svg38" />
  <g
     id="g2"
     transform="translate(0,-826.15994)" />
  <g
     style="fill:none;stroke:#000000;stroke-width:1mm"
     id="g4"
     transform="translate(0,-826.15994)" />
  <g
     style="fill:none;stroke:#000000;stroke-width:4mm"
     id="g36"
     transform="translate(0,-826.15994)">
    <path
       d="m 264.706,1348.541 -0.199,4.542 -0.593,4.506 -0.984,4.438 -1.367,4.336 -1.74,4.2 -2.099,4.032 -2.442,3.834 -2.767,3.606 -3.071,3.352 -3.352,3.071"
       id="path6" />
    <path
       d="m 246.092,1388.458 -3.606,2.767 -3.834,2.442 -4.032,2.099 -4.2,1.74 -4.336,1.367 -4.438,0.984 -4.506,0.593 -4.542,0.199 -4.541,-0.199 -4.507,-0.593"
       id="path8" />
    <path
       d="m 203.55,1399.857 -4.438,-0.984 -4.336,-1.367 -4.2,-1.74 -4.032,-2.099 -3.834,-2.442 -3.606,-2.767 -3.351,-3.071 -3.072,-3.352 -2.767,-3.606 -2.442,-3.834"
       id="path10" />
    <path
       d="m 167.472,1374.595 -2.099,-4.032 -1.74,-4.2 -1.367,-4.336 -0.984,-4.438 -0.593,-4.506 -0.198,-4.542 0.198,-4.541 0.593,-4.507 0.984,-4.438 1.367,-4.336"
       id="path12" />
    <path
       d="m 163.633,1330.719 1.74,-4.2 2.099,-4.032 2.442,-3.834 2.767,-3.606 3.072,-3.351 3.351,-3.072 3.606,-2.767 3.834,-2.442 4.032,-2.099 4.2,-1.74"
       id="path14" />
    <path
       d="m 194.776,1299.576 4.336,-1.367 4.438,-0.984 4.507,-0.593 4.541,-0.198 4.542,0.198 4.506,0.593 4.438,0.984 4.336,1.367 4.2,1.74 4.032,2.099"
       id="path16" />
    <path
       d="m 238.652,1303.415 3.834,2.442 3.606,2.767 3.352,3.072 3.071,3.351 2.767,3.606 2.442,3.834 2.099,4.032 1.74,4.2 1.367,4.336 0.984,4.438"
       id="path18" />
    <path
       d="m 263.914,1339.493 0.593,4.507 0.199,4.541 -0.199,4.542"
       id="path20" />
    <path
       d="M 92.751,1345.415 V 978.578"
       id="path22" />
    <path
       d="M 317.855,1343.33 V 978.578 H 137.563"
       id="path24" />
    <path
       d="M 163.617,1346.457 H 22.927"
       id="path26" />
    <path
       d="M 264.706,1344.372 H 406.438"
       id="path28" />
    <path
       d="M 140.69,978.578 H 92.751"
       id="path30" />
    <path
       d="M 204.261,974.409 V 834.761"
       id="path32" />
    <path
       d="M 0,833.719 H 414.775"
       id="path34" />
  </g>
</svg>
