<?xml version="1.0" encoding="UTF-8"?>
<svg id="svg38" width="414.77" height="582.06" version="1.1" viewBox="0 0 414.78 582.06" xmlns="http://www.w3.org/2000/svg">
 <g id="g36" transform="translate(0 -826.16)" fill="none" stroke="#000" stroke-width="4mm">
  <path id="path6" d="m264.71 1348.5-0.199 4.542-0.593 4.506-0.984 4.438-1.367 4.336-1.74 4.2-2.099 4.032-2.442 3.834-2.767 3.606-3.071 3.352-3.352 3.071"/>
  <path id="path8" d="m246.09 1388.5-3.606 2.767-3.834 2.442-4.032 2.099-4.2 1.74-4.336 1.367-4.438 0.984-4.506 0.593-4.542 0.199-4.541-0.199-4.507-0.593"/>
  <path id="path10" d="m203.55 1399.9-4.438-0.984-4.336-1.367-4.2-1.74-4.032-2.099-3.834-2.442-3.606-2.767-3.351-3.071-3.072-3.352-2.767-3.606-2.442-3.834"/>
  <path id="path12" d="m167.47 1374.6-2.099-4.032-1.74-4.2-1.367-4.336-0.984-4.438-0.593-4.506-0.198-4.542 0.198-4.541 0.593-4.507 0.984-4.438 1.367-4.336"/>
  <path id="path14" d="m163.63 1330.7 1.74-4.2 2.099-4.032 2.442-3.834 2.767-3.606 3.072-3.351 3.351-3.072 3.606-2.767 3.834-2.442 4.032-2.099 4.2-1.74"/>
  <path id="path16" d="m194.78 1299.6 4.336-1.367 4.438-0.984 4.507-0.593 4.541-0.198 4.542 0.198 4.506 0.593 4.438 0.984 4.336 1.367 4.2 1.74 4.032 2.099"/>
  <path id="path18" d="m238.65 1303.4 3.834 2.442 3.606 2.767 3.352 3.072 3.071 3.351 2.767 3.606 2.442 3.834 2.099 4.032 1.74 4.2 1.367 4.336 0.984 4.438"/>
  <path id="path20" d="m263.91 1339.5 0.593 4.507 0.199 4.541-0.199 4.542"/>
  <path id="path22" d="m92.751 1345.4v-366.84"/>
  <path id="path24" d="m317.86 1343.3v-364.75h-180.29"/>
  <path id="path26" d="m163.62 1346.5h-140.69"/>
  <path id="path28" d="m264.71 1344.4h141.73"/>
  <path id="path30" d="m140.69 978.58h-47.939"/>
  <path id="path32" d="m204.26 974.41v-139.65"/>
  <path id="path34" d="m0 833.72h414.78"/>
 </g>
</svg>
