<?xml version="1.0" encoding="UTF-8" standalone="no"?>
<svg
   width="581.34418"
   height="521.29254"
   viewBox="0 0 581.34416 521.29256"
   version="1.1"
   id="svg44"
   sodipodi:docname="RCLDEF01.hpgl.svg"
   inkscape:version="1.1.2 (0a00cf5339, 2022-02-04)"
   xmlns:inkscape="http://www.inkscape.org/namespaces/inkscape"
   xmlns:sodipodi="http://sodipodi.sourceforge.net/DTD/sodipodi-0.dtd"
   xmlns="http://www.w3.org/2000/svg"
   xmlns:svg="http://www.w3.org/2000/svg">
  <defs
     id="defs48" />
  <sodipodi:namedview
     id="namedview46"
     pagecolor="#ffffff"
     bordercolor="#666666"
     borderopacity="1.0"
     inkscape:pageshadow="2"
     inkscape:pageopacity="0.0"
     inkscape:pagecheckerboard="0"
     showgrid="false"
     inkscape:zoom="1.4785903"
     inkscape:cx="290.81755"
     inkscape:cy="-333.76387"
     inkscape:window-width="1495"
     inkscape:window-height="970"
     inkscape:window-x="0"
     inkscape:window-y="32"
     inkscape:window-maximized="0"
     inkscape:current-layer="svg44" />
  <g
     id="g2"
     transform="translate(7.5590553,-577.09957)" />
  <g
     style="fill:none;stroke:#000000;stroke-width:1mm"
     id="g4"
     transform="translate(7.5590553,-577.09957)" />
  <g
     style="fill:none;stroke:#000000;stroke-width:4mm"
     id="g42"
     transform="translate(7.5590553,-577.09957)">
    <path
       d="m -0.70291011,791.544 6.09600001,-13.13 6.0960001,-11.723 7.972,-7.972 7.971,-7.972 12.192,-4.22 10.786,0.938 14.067,4.22 13.13,2.814 10.785,15.943 8.441,8.91"
       id="path6" />
    <path
       d="m 96.83309,779.352 5.627,10.316 v 11.723 l -5.627,11.254 -6.096,9.848 -9.378,11.254 -10.786,11.723 -9.847,12.192 -6.096,8.91 -5.158,7.971 -0.938,10.317"
       id="path8" />
    <path
       d="m 48.53409,884.86 v 10.785 7.972 l 0.938,10.316 v 0.938"
       id="path10" />
    <path
       d="m 39.62409,954.26 h 24.853"
       id="path12" />
    <path
       d="m 463.06309,791.544 6.096,-13.13 6.096,-11.723 7.971,-7.972 7.972,-7.972 12.192,-4.22 10.785,0.938 14.068,4.22 13.13,2.814 10.785,15.943 8.441,8.91 5.627,10.316"
       id="path14" />
    <path
       d="m 566.22609,789.668 v 11.723 l -5.627,11.254 -6.096,9.848 -9.379,11.254 -10.785,11.723 -9.847,12.192 -6.096,8.91 -5.158,7.971 -0.938,10.317 v 10.785 7.972"
       id="path16" />
    <path
       d="m 512.30009,903.617 0.938,10.316 v 0.938"
       id="path18" />
    <path
       d="m 503.39009,954.26 h 24.853"
       id="path20" />
    <path
       d="m 385.69009,837.967 -0.389,8.91 -1.164,8.842 -1.93,8.706 -2.682,8.505 -3.413,8.24 -4.117,7.91 -4.792,7.521 -5.429,7.076 -6.025,6.575 -6.575,6.025"
       id="path22" />
    <path
       d="m 349.17409,916.277 -7.075,5.429 -7.521,4.791 -7.911,4.118 -8.239,3.413 -8.505,2.682 -8.707,1.93 -8.842,1.164 -8.909,0.389 -8.91,-0.389 -8.841,-1.164"
       id="path24" />
    <path
       d="m 265.71409,938.64 -8.707,-1.93 -8.505,-2.682 -8.24,-3.413 -7.91,-4.118 -7.521,-4.791 -7.075,-5.429 -6.576,-6.025 -6.024,-6.575 -5.429,-7.076 -4.792,-7.521"
       id="path26" />
    <path
       d="m 194.93509,889.08 -4.118,-7.91 -3.413,-8.239 -2.681,-8.506 -1.931,-8.706 -1.164,-8.842 -0.389,-8.91 0.389,-8.909 1.164,-8.842 1.931,-8.707 2.681,-8.505"
       id="path28" />
    <path
       d="m 187.40409,803.004 3.413,-8.239 4.118,-7.91 4.792,-7.522 5.429,-7.075 6.024,-6.575 6.576,-6.025 7.075,-5.429 7.521,-4.792 7.91,-4.117 8.24,-3.413"
       id="path30" />
    <path
       d="m 248.50209,741.907 8.505,-2.682 8.706,-1.93 8.842,-1.164 8.91,-0.389 8.909,0.389 8.842,1.164 8.707,1.93 8.505,2.682 8.239,3.413 7.911,4.117"
       id="path32" />
    <path
       d="m 334.57809,749.437 7.521,4.792 7.075,5.429 6.575,6.025 6.025,6.575 5.429,7.075 4.792,7.522 4.117,7.91 3.413,8.239 2.682,8.505 1.93,8.707"
       id="path34" />
    <path
       d="m 384.13709,820.216 1.164,8.842 0.389,8.909 v 0 l -0.389,8.91"
       id="path36" />
    <path
       d="m 203.74809,762.471 80.655,-167.875 80.186,167.875"
       id="path38" />
    <path
       d="m 363.18209,914.871 -83.469,165.999 -75.965,-167.406"
       id="path40" />
  </g>
</svg>
