<?xml version="1.0" encoding="UTF-8"?>
<svg id="svg44" width="581.34" height="521.29" version="1.1" viewBox="0 0 581.34 521.29" xmlns="http://www.w3.org/2000/svg">
 <g id="g42" transform="translate(7.5591 -577.1)" fill="none" stroke="#000" stroke-width="4mm">
  <path id="path6" d="m-0.70291 791.54 6.096-13.13 6.096-11.723 7.972-7.972 7.971-7.972 12.192-4.22 10.786 0.938 14.067 4.22 13.13 2.814 10.785 15.943 8.441 8.91"/>
  <path id="path8" d="m96.833 779.35 5.627 10.316v11.723l-5.627 11.254-6.096 9.848-9.378 11.254-10.786 11.723-9.847 12.192-6.096 8.91-5.158 7.971-0.938 10.317"/>
  <path id="path10" d="m48.534 884.86v18.757l0.938 10.316v0.938"/>
  <path id="path12" d="m39.624 954.26h24.853"/>
  <path id="path14" d="m463.06 791.54 6.096-13.13 6.096-11.723 7.971-7.972 7.972-7.972 12.192-4.22 10.785 0.938 14.068 4.22 13.13 2.814 10.785 15.943 8.441 8.91 5.627 10.316"/>
  <path id="path16" d="m566.23 789.67v11.723l-5.627 11.254-6.096 9.848-9.379 11.254-10.785 11.723-9.847 12.192-6.096 8.91-5.158 7.971-0.938 10.317v18.757"/>
  <path id="path18" d="m512.3 903.62 0.938 10.316v0.938"/>
  <path id="path20" d="m503.39 954.26h24.853"/>
  <path id="path22" d="m385.69 837.97-0.389 8.91-1.164 8.842-1.93 8.706-2.682 8.505-3.413 8.24-4.117 7.91-4.792 7.521-5.429 7.076-6.025 6.575-6.575 6.025"/>
  <path id="path24" d="m349.17 916.28-7.075 5.429-7.521 4.791-7.911 4.118-8.239 3.413-8.505 2.682-8.707 1.93-8.842 1.164-8.909 0.389-8.91-0.389-8.841-1.164"/>
  <path id="path26" d="m265.71 938.64-8.707-1.93-8.505-2.682-8.24-3.413-7.91-4.118-7.521-4.791-7.075-5.429-6.576-6.025-6.024-6.575-5.429-7.076-4.792-7.521"/>
  <path id="path28" d="m194.94 889.08-4.118-7.91-3.413-8.239-2.681-8.506-1.931-8.706-1.164-8.842-0.389-8.91 0.389-8.909 1.164-8.842 1.931-8.707 2.681-8.505"/>
  <path id="path30" d="m187.4 803 3.413-8.239 4.118-7.91 4.792-7.522 5.429-7.075 6.024-6.575 6.576-6.025 7.075-5.429 7.521-4.792 7.91-4.117 8.24-3.413"/>
  <path id="path32" d="m248.5 741.91 8.505-2.682 8.706-1.93 8.842-1.164 8.91-0.389 8.909 0.389 8.842 1.164 8.707 1.93 8.505 2.682 8.239 3.413 7.911 4.117"/>
  <path id="path34" d="m334.58 749.44 7.521 4.792 7.075 5.429 6.575 6.025 6.025 6.575 5.429 7.075 4.792 7.522 4.117 7.91 3.413 8.239 2.682 8.505 1.93 8.707"/>
  <path id="path36" d="m384.14 820.22 1.164 8.842 0.389 8.909-0.389 8.91"/>
  <path id="path38" d="m203.75 762.47 80.655-167.88 80.186 167.88"/>
  <path id="path40" d="m363.18 914.87-83.469 166-75.965-167.41"/>
 </g>
</svg>
