<?xml version="1.0" encoding="UTF-8"?>
<svg id="svg26" width="350.52" height="591.99" version="1.1" viewBox="0 0 350.52 591.99" xmlns="http://www.w3.org/2000/svg">
 <g id="g24" transform="translate(7.5663 -727.13)" fill="none" stroke="#000" stroke-width="4mm">
  <path id="path6" d="m335.39 1143.9-0.638 14.616-1.91 14.504-3.166 14.283-4.399 13.952-5.599 13.516-6.755 12.977-7.86 12.338-8.906 11.606-9.883 10.786-10.786 9.884"/>
  <path id="path8" d="m275.49 1272.3-11.607 8.905-12.338 7.861-12.977 6.755-13.515 5.598-13.953 4.4-14.282 3.166-14.505 1.91-14.615 0.638-14.616-0.638-14.504-1.91"/>
  <path id="path10" d="m138.57 1309-14.283-3.166-13.952-4.4-13.516-5.598-12.976-6.755-12.339-7.861-11.606-8.905-10.786-9.884-9.883-10.786-8.906-11.606-7.86-12.338"/>
  <path id="path12" d="m22.467 1227.7-6.756-12.977-5.598-13.516-4.399-13.952-3.167-14.283-1.909-14.504-0.638-14.616 0.638-14.615 1.909-14.504 3.167-14.283 4.399-13.952"/>
  <path id="path14" d="m10.113 1086.5 5.598-13.516 6.755-12.977 7.861-12.338 8.906-11.606 9.883-10.786 10.786-9.884 11.606-8.905 12.339-7.861 12.976-6.755 13.516-5.598"/>
  <path id="path16" d="m110.34 986.28 13.952-4.4 14.283-3.166 14.504-1.91 14.616-0.638 14.615 0.638 14.505 1.91 14.282 3.166 13.953 4.4 13.515 5.598 12.977 6.755"/>
  <path id="path18" d="m251.54 998.63 12.338 7.86 11.607 8.906 10.785 9.884 9.884 10.786 8.906 11.606 7.86 12.338 6.755 12.977 5.599 13.516 4.399 13.952 3.166 14.283"/>
  <path id="path20" d="m332.84 1114.7 1.91 14.504 0.638 14.615-0.638 14.616"/>
  <path id="path22" d="m36.923 1020 132.31-275.39 131.54 275.39"/>
 </g>
</svg>
