<?xml version="1.0" encoding="UTF-8"?>
<svg id="svg28" width="253.48" height="601.95" version="1.1" viewBox="0 0 253.48 601.95" xmlns="http://www.w3.org/2000/svg">
 <g id="g26" transform="translate(7.5518 -675.72)" fill="none" stroke="#000" stroke-width="4mm">
  <path id="path6" d="m238.38 976.96-0.454 10.387-1.357 10.309-2.25 10.15-3.126 9.916-3.979 9.606-4.801 9.223-5.587 8.768-6.329 8.249-7.024 7.666-7.666 7.024-8.249 6.329"/>
  <path id="path8" d="m187.55 1074.6-8.768 5.587-9.223 4.801-9.606 3.979-9.916 3.126-10.15 2.25-10.309 1.358-10.387 0.453-10.387-0.453-10.308-1.358-10.151-2.25"/>
  <path id="path10" d="m88.349 1092.1-9.916-3.126-9.606-3.979-9.222-4.801-8.769-5.587-8.249-6.329-7.665-7.024-7.025-7.666-6.329-8.249-5.587-8.768-4.8-9.223"/>
  <path id="path12" d="m11.181 1027.3-3.979-9.606-3.127-9.916-2.25-10.15-1.357-10.309-0.454-10.387 0.454-10.387 1.357-10.308 2.25-10.151 3.127-9.916 3.979-9.606"/>
  <path id="path14" d="m11.181 926.59 4.8-9.222 5.587-8.769 6.329-8.249 7.025-7.665 7.665-7.025 8.249-6.329 8.769-5.587 9.222-4.8 9.606-3.979 9.916-3.127"/>
  <path id="path16" d="m88.349 861.84 10.151-2.25 10.308-1.357 10.387-0.454 10.387 0.454 10.309 1.357 10.15 2.25 9.916 3.127 9.606 3.979 9.223 4.8 8.768 5.587"/>
  <path id="path18" d="m187.55 879.33 8.249 6.329 7.666 7.025 7.024 7.665 6.329 8.249 5.587 8.769 4.801 9.222 3.979 9.606 3.126 9.916 2.25 10.151 1.357 10.308 0.454 10.387"/>
  <path id="path20" d="m238.38 976.96-0.454 10.387"/>
  <path id="path22" d="m26.256 888.94 94.033-195.72 93.485 195.72"/>
  <path id="path24" d="m212.13 1066.6-97.312 193.53-88.566-195.17"/>
 </g>
</svg>
