<?xml version="1.0" encoding="UTF-8" standalone="no"?>
<svg
   width="350.52051"
   height="591.99268"
   viewBox="0 0 350.52051 591.99266"
   version="1.1"
   id="svg26"
   sodipodi:docname="RDOCAL02.hpgl.svg"
   inkscape:version="1.1.2 (0a00cf5339, 2022-02-04)"
   xmlns:inkscape="http://www.inkscape.org/namespaces/inkscape"
   xmlns:sodipodi="http://sodipodi.sourceforge.net/DTD/sodipodi-0.dtd"
   xmlns="http://www.w3.org/2000/svg"
   xmlns:svg="http://www.w3.org/2000/svg">
  <defs
     id="defs30" />
  <sodipodi:namedview
     id="namedview28"
     pagecolor="#ffffff"
     bordercolor="#666666"
     borderopacity="1.0"
     inkscape:pageshadow="2"
     inkscape:pageopacity="0.0"
     inkscape:pagecheckerboard="0"
     showgrid="false"
     inkscape:zoom="1.2682364"
     inkscape:cx="175.83472"
     inkscape:cy="-443.52929"
     inkscape:window-width="1495"
     inkscape:window-height="970"
     inkscape:window-x="0"
     inkscape:window-y="32"
     inkscape:window-maximized="0"
     inkscape:current-layer="svg26" />
  <g
     id="g2"
     transform="translate(7.5662539,-727.12656)" />
  <g
     style="fill:none;stroke:#000000;stroke-width:1mm"
     id="g4"
     transform="translate(7.5662539,-727.12656)" />
  <g
     style="fill:none;stroke:#000000;stroke-width:4mm"
     id="g24"
     transform="translate(7.5662539,-727.12656)">
    <path
       d="m 335.388,1143.858 -0.638,14.616 -1.91,14.504 -3.166,14.283 -4.399,13.952 -5.599,13.516 -6.755,12.977 -7.86,12.338 -8.906,11.606 -9.883,10.786 -10.786,9.884"
       id="path6" />
    <path
       d="m 275.486,1272.32 -11.607,8.905 -12.338,7.861 -12.977,6.755 -13.515,5.598 -13.953,4.4 -14.282,3.166 -14.505,1.91 -14.615,0.638 -14.616,-0.638 -14.504,-1.91"
       id="path8" />
    <path
       d="m 138.574,1309.005 -14.283,-3.166 -13.952,-4.4 -13.516,-5.598 -12.976,-6.755 -12.339,-7.861 -11.606,-8.905 -10.786,-9.884 -9.883,-10.786 -8.906,-11.606 -7.86,-12.338"
       id="path10" />
    <path
       d="m 22.467,1227.706 -6.756,-12.977 -5.598,-13.516 -4.399,-13.952 -3.167,-14.283 -1.909,-14.504 -0.638,-14.616 0.638,-14.615 1.909,-14.504 3.167,-14.283 4.399,-13.952"
       id="path12" />
    <path
       d="m 10.113,1086.504 5.598,-13.516 6.755,-12.977 7.861,-12.338 8.906,-11.606 9.883,-10.786 10.786,-9.884 11.606,-8.905 12.339,-7.861 12.976,-6.755 13.516,-5.598"
       id="path14" />
    <path
       d="m 110.339,986.278 13.952,-4.4 14.283,-3.166 14.504,-1.91 14.616,-0.638 14.615,0.638 14.505,1.91 14.282,3.166 13.953,4.4 13.515,5.598 12.977,6.755"
       id="path16" />
    <path
       d="m 251.541,998.631 12.338,7.86 11.607,8.906 10.785,9.884 9.884,10.786 8.906,11.606 7.86,12.338 6.755,12.977 5.599,13.516 4.399,13.952 3.166,14.283"
       id="path18" />
    <path
       d="m 332.84,1114.739 1.91,14.504 0.638,14.615 v 0 l -0.638,14.616"
       id="path20" />
    <path
       d="m 36.923,1020.011 132.309,-275.388 131.54,275.388"
       id="path22" />
  </g>
</svg>
