<?xml version="1.0" encoding="UTF-8" standalone="no"?>
<svg
   width="253.48012"
   height="601.94757"
   viewBox="0 0 253.48012 601.94755"
   version="1.1"
   id="svg28"
   sodipodi:docname="RDOCAL03.hpgl.svg"
   inkscape:version="1.1.2 (0a00cf5339, 2022-02-04)"
   xmlns:inkscape="http://www.inkscape.org/namespaces/inkscape"
   xmlns:sodipodi="http://sodipodi.sourceforge.net/DTD/sodipodi-0.dtd"
   xmlns="http://www.w3.org/2000/svg"
   xmlns:svg="http://www.w3.org/2000/svg">
  <defs
     id="defs32" />
  <sodipodi:namedview
     id="namedview30"
     pagecolor="#ffffff"
     bordercolor="#666666"
     borderopacity="1.0"
     inkscape:pageshadow="2"
     inkscape:pageopacity="0.0"
     inkscape:pagecheckerboard="0"
     showgrid="false"
     inkscape:zoom="1.2682364"
     inkscape:cx="126.94794"
     inkscape:cy="-392.27702"
     inkscape:window-width="1495"
     inkscape:window-height="970"
     inkscape:window-x="0"
     inkscape:window-y="32"
     inkscape:window-maximized="0"
     inkscape:current-layer="svg28" />
  <g
     id="g2"
     transform="translate(7.5518451,-675.72055)" />
  <g
     style="fill:none;stroke:#000000;stroke-width:1mm"
     id="g4"
     transform="translate(7.5518451,-675.72055)" />
  <g
     style="fill:none;stroke:#000000;stroke-width:4mm"
     id="g26"
     transform="translate(7.5518451,-675.72055)">
    <path
       d="m 238.37643,976.955 -0.454,10.387 -1.357,10.309 -2.25,10.15 -3.126,9.916 -3.979,9.606 -4.801,9.223 -5.587,8.768 -6.329,8.249 -7.024,7.666 -7.666,7.024 -8.249,6.329"
       id="path6" />
    <path
       d="m 187.55443,1074.582 -8.768,5.587 -9.223,4.801 -9.606,3.979 -9.916,3.126 -10.15,2.25 -10.309,1.358 -10.387,0.453 -10.387,-0.453 -10.308003,-1.358 -10.151,-2.25"
       id="path8" />
    <path
       d="m 88.349427,1092.075 -9.916,-3.126 -9.606,-3.979 -9.222,-4.801 -8.769,-5.587 -8.249,-6.329 -7.665,-7.024 -7.025,-7.666 -6.329,-8.249 -5.587,-8.768 -4.8,-9.223"
       id="path10" />
    <path
       d="m 11.181427,1027.323 -3.9789997,-9.606 -3.127,-9.916 -2.25,-10.15 -1.35700002,-10.309 -0.454,-10.387 0.454,-10.387 1.35700002,-10.308 2.25,-10.151 3.127,-9.916 3.9789997,-9.606"
       id="path12" />
    <path
       d="m 11.181427,926.587 4.8,-9.222 5.587,-8.769 6.329,-8.249 7.025,-7.665 7.665,-7.025 8.249,-6.329 8.769,-5.587 9.222,-4.8 9.606,-3.979 9.916,-3.127"
       id="path14" />
    <path
       d="m 88.349427,861.835 10.151,-2.25 10.308003,-1.357 10.387,-0.454 10.387,0.454 10.309,1.357 10.15,2.25 9.916,3.127 9.606,3.979 9.223,4.8 8.768,5.587"
       id="path16" />
    <path
       d="m 187.55443,879.328 8.249,6.329 7.666,7.025 7.024,7.665 6.329,8.249 5.587,8.769 4.801,9.222 3.979,9.606 3.126,9.916 2.25,10.151 1.357,10.308 0.454,10.387"
       id="path18" />
    <path
       d="m 238.37643,976.955 v 0 l -0.454,10.387"
       id="path20" />
    <path
       d="m 26.256427,888.936 94.033003,-195.719 93.485,195.719"
       id="path22" />
    <path
       d="m 212.13443,1066.614 -97.312,193.532 -88.566003,-195.172"
       id="path24" />
  </g>
</svg>
