<?xml version="1.0" encoding="UTF-8" standalone="no"?>
<svg
   width="582.06152"
   height="582.0625"
   viewBox="0 0 582.06151 582.06248"
   version="1.1"
   id="svg24"
   sodipodi:docname="RDOSTA02.hpgl.svg"
   inkscape:version="1.1.2 (0a00cf5339, 2022-02-04)"
   xmlns:inkscape="http://www.inkscape.org/namespaces/inkscape"
   xmlns:sodipodi="http://sodipodi.sourceforge.net/DTD/sodipodi-0.dtd"
   xmlns="http://www.w3.org/2000/svg"
   xmlns:svg="http://www.w3.org/2000/svg">
  <defs
     id="defs28" />
  <sodipodi:namedview
     id="namedview26"
     pagecolor="#ffffff"
     bordercolor="#666666"
     borderopacity="1.0"
     inkscape:pageshadow="2"
     inkscape:pageopacity="0.0"
     inkscape:pagecheckerboard="0"
     showgrid="false"
     inkscape:zoom="1.2682364"
     inkscape:cx="290.95522"
     inkscape:cy="-713.19511"
     inkscape:window-width="1495"
     inkscape:window-height="970"
     inkscape:window-x="0"
     inkscape:window-y="32"
     inkscape:window-maximized="0"
     inkscape:current-layer="svg24" />
  <g
     id="g2"
     transform="translate(7.5662609,-996.57074)" />
  <g
     style="fill:none;stroke:#000000;stroke-width:1mm"
     id="g4"
     transform="translate(7.5662609,-996.57074)" />
  <g
     style="fill:none;stroke:#000000;stroke-width:4mm"
     id="g22"
     transform="translate(7.5662609,-996.57074)">
    <path
       d="m 566.92899,1287.602 -1.079,24.706 -3.227,24.517 -5.353,24.143 -7.436,23.585 -9.463,22.846 -11.419,21.935 -13.287,20.857 -15.054,19.618 -16.707,18.233 -18.232,16.706"
       id="path6" />
    <path
       d="m 465.67199,1504.748 -19.619,15.055 -20.856,13.286 -21.935,11.419 -22.847,9.464 -23.585,7.436 -24.143,5.352 -24.517,3.228 -24.706,1.079 -24.705,-1.079 -24.518,-3.228"
       id="path8" />
    <path
       d="m 234.24099,1566.76 -24.143,-5.352 -23.584,-7.436 -22.847,-9.464 -21.935,-11.419 -20.856,-13.286 -19.619,-15.055 -18.232003,-16.706 -16.707,-18.232 -15.054,-19.619 -13.287,-20.857"
       id="path10" />
    <path
       d="m 37.976987,1429.334 -11.419,-21.935 -9.463,-22.846 -7.4360003,-23.585 -5.353,-24.143 -3.228,-24.517 L -1.3343489e-5,1287.602 1.0779867,1262.896 l 3.228,-24.517 5.353,-24.143 7.4360003,-23.585"
       id="path12" />
    <path
       d="m 17.094987,1190.651 9.463,-22.846 11.419,-21.935 13.287,-20.857 15.054,-19.619 16.707,-18.232 18.232003,-16.707 19.619,-15.054 20.856,-13.287 21.935,-11.418 22.847,-9.464"
       id="path14" />
    <path
       d="m 186.51399,1021.232 23.584,-7.436 24.143,-5.352 24.518,-3.228 24.705,-1.079 24.706,1.079 24.517,3.228 24.143,5.352 23.585,7.436 22.847,9.464 21.935,11.418"
       id="path16" />
    <path
       d="m 425.19699,1042.114 20.856,13.287 19.619,15.054 18.232,16.707 16.707,18.232 15.054,19.619 13.287,20.857 11.419,21.935 9.463,22.846 7.436,23.585 5.353,24.143"
       id="path18" />
    <path
       d="m 562.62299,1238.379 3.227,24.517 1.079,24.706 v 0 l -1.079,24.706"
       id="path20" />
  </g>
</svg>
