<?xml version="1.0" encoding="UTF-8"?>
<svg id="svg24" width="582.06" height="582.06" version="1.1" viewBox="0 0 582.06 582.06" xmlns="http://www.w3.org/2000/svg">
 <g id="g22" transform="translate(7.5663 -996.57)" fill="none" stroke="#000" stroke-width="4mm">
  <path id="path6" d="m566.93 1287.6-1.079 24.706-3.227 24.517-5.353 24.143-7.436 23.585-9.463 22.846-11.419 21.935-13.287 20.857-15.054 19.618-16.707 18.233-18.232 16.706"/>
  <path id="path8" d="m465.67 1504.7-19.619 15.055-20.856 13.286-21.935 11.419-22.847 9.464-23.585 7.436-24.143 5.352-24.517 3.228-24.706 1.079-24.705-1.079-24.518-3.228"/>
  <path id="path10" d="m234.24 1566.8-24.143-5.352-23.584-7.436-22.847-9.464-21.935-11.419-20.856-13.286-19.619-15.055-18.232-16.706-16.707-18.232-15.054-19.619-13.287-20.857"/>
  <path id="path12" d="m37.977 1429.3-11.419-21.935-9.463-22.846-7.436-23.585-5.353-24.143-3.228-24.517-1.078-24.706 1.078-24.706 3.228-24.517 5.353-24.143 7.436-23.585"/>
  <path id="path14" d="m17.095 1190.7 9.463-22.846 11.419-21.935 13.287-20.857 15.054-19.619 16.707-18.232 18.232-16.707 19.619-15.054 20.856-13.287 21.935-11.418 22.847-9.464"/>
  <path id="path16" d="m186.51 1021.2 23.584-7.436 24.143-5.352 24.518-3.228 24.705-1.079 24.706 1.079 24.517 3.228 24.143 5.352 23.585 7.436 22.847 9.464 21.935 11.418"/>
  <path id="path18" d="m425.2 1042.1 20.856 13.287 19.619 15.054 18.232 16.707 16.707 18.232 15.054 19.619 13.287 20.857 11.419 21.935 9.463 22.846 7.436 23.585 5.353 24.143"/>
  <path id="path20" d="m562.62 1238.4 3.227 24.517 1.079 24.706-1.079 24.706"/>
 </g>
</svg>
