<?xml version="1.0" encoding="UTF-8" standalone="no"?>
<svg
   width="566.92902"
   height="160.31825"
   viewBox="0 0 566.929 160.31825"
   version="1.1"
   id="svg24"
   sodipodi:docname="RECDEF51.hpgl.svg"
   inkscape:version="1.1.2 (0a00cf5339, 2022-02-04)"
   xmlns:inkscape="http://www.inkscape.org/namespaces/inkscape"
   xmlns:sodipodi="http://sodipodi.sourceforge.net/DTD/sodipodi-0.dtd"
   xmlns="http://www.w3.org/2000/svg"
   xmlns:svg="http://www.w3.org/2000/svg">
  <defs
     id="defs28" />
  <sodipodi:namedview
     id="namedview26"
     pagecolor="#ffffff"
     bordercolor="#666666"
     borderopacity="1.0"
     inkscape:pageshadow="2"
     inkscape:pageopacity="0.0"
     inkscape:pagecheckerboard="0"
     showgrid="false"
     inkscape:zoom="2.3389172"
     inkscape:cx="283.4645"
     inkscape:cy="-451.27719"
     inkscape:window-width="1495"
     inkscape:window-height="970"
     inkscape:window-x="0"
     inkscape:window-y="32"
     inkscape:window-maximized="0"
     inkscape:current-layer="svg24" />
  <g
     id="g2"
     transform="translate(0,-523.5598)" />
  <g
     style="fill:none;stroke:#000000;stroke-width:1mm"
     id="g4"
     transform="translate(0,-523.5598)" />
  <g
     style="fill:none;stroke:#000000;stroke-width:4mm"
     id="g22"
     transform="translate(0,-523.5598)">
    <path
       d="M 0,608.524 H 106.442"
       id="path6" />
    <path
       d="M 460.486,608.524 H 566.929"
       id="path8" />
    <path
       d="m 249.567,562.671 4.257,-9.17 4.258,-8.188 5.568,-5.568 5.567,-5.567 8.516,-2.948 7.533,0.655 9.825,2.948 9.171,1.965 7.532,11.135 5.896,6.223"
       id="path10" />
    <path
       d="m 317.69,554.156 3.93,7.205 v 8.188 l -3.93,7.861 -4.258,6.878 -6.55,7.86 -7.533,8.188 -6.878,8.515 -4.258,6.223 -3.602,5.568 -0.655,7.205"
       id="path12" />
    <path
       d="m 283.956,627.847 v 7.533 5.568 l 0.655,7.205 v 0.655"
       id="path14" />
    <path
       d="m 277.733,676.319 h 17.358"
       id="path16" />
    <path
       d="m 215.505,659.289 -67.141,-50.765 67.141,-50.765"
       id="path18" />
    <path
       d="m 348.476,657.978 67.141,-50.764 -67.141,-50.765"
       id="path20" />
  </g>
</svg>
