<?xml version="1.0" encoding="UTF-8"?>
<svg id="svg24" width="566.93" height="160.32" version="1.1" viewBox="0 0 566.93 160.32" xmlns="http://www.w3.org/2000/svg">
 <g id="g22" transform="translate(0 -523.56)" fill="none" stroke="#000" stroke-width="4mm">
  <path id="path6" d="m0 608.52h106.44"/>
  <path id="path8" d="m460.49 608.52h106.44"/>
  <path id="path10" d="m249.57 562.67 4.257-9.17 4.258-8.188 11.135-11.135 8.516-2.948 7.533 0.655 9.825 2.948 9.171 1.965 7.532 11.135 5.896 6.223"/>
  <path id="path12" d="m317.69 554.16 3.93 7.205v8.188l-3.93 7.861-4.258 6.878-6.55 7.86-7.533 8.188-6.878 8.515-4.258 6.223-3.602 5.568-0.655 7.205"/>
  <path id="path14" d="m283.96 627.85v13.101l0.655 7.205v0.655"/>
  <path id="path16" d="m277.73 676.32h17.358"/>
  <path id="path18" d="m215.5 659.29-67.141-50.765 67.141-50.765"/>
  <path id="path20" d="m348.48 657.98 67.141-50.764-67.141-50.765"/>
 </g>
</svg>
