<?xml version="1.0" encoding="UTF-8"?>
<svg id="svg66" width="581.27" height="249.77" version="1.1" viewBox="0 0 581.27 249.77" xmlns="http://www.w3.org/2000/svg">
 <g id="g64" transform="translate(7.5663 -608.19)" fill="none" stroke="#000" stroke-width="4mm">
  <path id="path6" d="m-0.0072184 616.54v237.01"/>
  <path id="path8" d="m312.59 618.11v236.22"/>
  <path id="path10" d="m-0.79422 615.75h78.74"/>
  <path id="path12" d="m-0.0072184 735.43h77.953"/>
  <path id="path14" d="m312.59 618.11h77.952"/>
  <path id="path16" d="m312.59 737.01h77.952"/>
  <path id="path18" d="m77.946 733.86 29.134 118.11"/>
  <path id="path20" d="m390.54 735.43 28.347 118.9"/>
  <path id="path22" d="m418.1 714.17v-78.74"/>
  <path id="path24" d="m105.5 712.6v-78.741"/>
  <path id="path26" d="m77.946 614.96 26.772 19.685"/>
  <path id="path28" d="m77.946 733.86 26.772-21.259"/>
  <path id="path30" d="m390.54 735.43 27.559-20.472"/>
  <path id="path32" d="m389.76 617.32 28.346 19.685"/>
  <path id="path34" d="m262.98 792.13-0.221 5.078-0.664 5.04-1.1 4.963-1.529 4.848-1.945 4.696-2.347 4.509-2.731 4.287-3.095 4.033-3.434 3.748-3.748 3.434"/>
  <path id="path36" d="m242.17 836.76-4.032 3.094-4.288 2.731-4.508 2.348-4.697 1.945-4.848 1.528-4.962 1.101-5.04 0.663-5.078 0.222-5.079-0.222-5.039-0.663"/>
  <path id="path38" d="m194.6 849.51-4.963-1.101-4.848-1.528-4.696-1.945-4.509-2.348-4.287-2.731-4.033-3.094-3.748-3.434-3.434-3.748-3.094-4.033-2.732-4.287"/>
  <path id="path40" d="m154.26 821.26-2.347-4.509-1.945-4.696-1.529-4.848-1.1-4.963-0.663-5.04-0.222-5.078 0.222-5.078 0.663-5.04 1.1-4.963 1.529-4.848"/>
  <path id="path42" d="m149.96 772.2 1.945-4.696 2.347-4.509 2.732-4.287 3.094-4.033 3.434-3.747 3.748-3.435 4.033-3.094 4.287-2.731 4.509-2.347 4.696-1.946"/>
  <path id="path44" d="m184.79 737.37 4.848-1.528 4.963-1.1 5.039-0.664 5.079-0.222 5.078 0.222 5.04 0.664 4.962 1.1 4.848 1.528 4.697 1.946 4.508 2.347"/>
  <path id="path46" d="m233.85 741.66 4.288 2.731 4.032 3.094 3.748 3.435 3.434 3.747 3.095 4.033 2.731 4.287 2.347 4.509 1.945 4.696 1.529 4.848 1.1 4.963"/>
  <path id="path48" d="m262.1 782.01 0.664 5.04 0.221 5.078-0.221 5.078"/>
  <path id="path50" d="m566.13 792.13-0.219 5.01-0.654 4.971-1.086 4.896-1.508 4.783-1.918 4.632-2.316 4.448-2.694 4.229-3.053 3.979-3.388 3.697-3.697 3.388-3.978 3.052"/>
  <path id="path52" d="m541.62 839.21-4.229 2.695-4.448 2.315-4.633 1.919-4.782 1.508-4.896 1.085-4.972 0.655-5.009 0.218-5.01-0.218-4.972-0.655-4.895-1.085-4.783-1.508"/>
  <path id="path54" d="m488.99 846.14-4.633-1.919-4.447-2.315-4.23-2.695-3.978-3.052-3.697-3.388-3.388-3.697-3.052-3.979-2.695-4.229-2.315-4.448-1.919-4.632"/>
  <path id="path56" d="m454.64 811.79-1.508-4.783-1.085-4.896-0.655-4.971-0.219-5.01 0.219-5.01 0.655-4.971 1.085-4.896 1.508-4.782 1.919-4.633 2.315-4.448"/>
  <path id="path58" d="m458.87 763.39 2.695-4.229 3.052-3.979 3.388-3.697 3.697-3.387 3.978-3.053 4.23-2.694 4.447-2.316 4.633-1.919 4.783-1.508 4.895-1.085"/>
  <path id="path60" d="m498.67 735.52 4.972-0.655 5.01-0.218 5.009 0.218 4.972 0.655 4.896 1.085 4.782 1.508 4.633 1.919 4.448 2.316 4.229 2.694 3.978 3.053 3.697 3.387"/>
  <path id="path62" d="m549.3 751.48 3.388 3.697 3.053 3.979 2.694 4.229 2.316 4.448 1.918 4.633 1.508 4.782 1.086 4.896 0.654 4.971 0.219 5.01-0.219 5.01"/>
 </g>
</svg>
