<?xml version="1.0" encoding="UTF-8" standalone="no"?>
<svg
   width="581.26733"
   height="249.77133"
   viewBox="0 0 581.26732 249.77134"
   version="1.1"
   id="svg66"
   sodipodi:docname="ROLROL01.hpgl.svg"
   inkscape:version="1.1.2 (0a00cf5339, 2022-02-04)"
   xmlns:inkscape="http://www.inkscape.org/namespaces/inkscape"
   xmlns:sodipodi="http://sodipodi.sourceforge.net/DTD/sodipodi-0.dtd"
   xmlns="http://www.w3.org/2000/svg"
   xmlns:svg="http://www.w3.org/2000/svg">
  <defs
     id="defs70" />
  <sodipodi:namedview
     id="namedview68"
     pagecolor="#ffffff"
     bordercolor="#666666"
     borderopacity="1.0"
     inkscape:pageshadow="2"
     inkscape:pageopacity="0.0"
     inkscape:pagecheckerboard="0"
     showgrid="false"
     inkscape:zoom="2.3389172"
     inkscape:cx="291.16037"
     inkscape:cy="-488.90144"
     inkscape:window-width="1495"
     inkscape:window-height="970"
     inkscape:window-x="0"
     inkscape:window-y="32"
     inkscape:window-maximized="0"
     inkscape:current-layer="svg66" />
  <g
     id="g2"
     transform="translate(7.5662738,-608.18894)" />
  <g
     style="fill:none;stroke:#000000;stroke-width:1mm"
     id="g4"
     transform="translate(7.5662738,-608.18894)" />
  <g
     style="fill:none;stroke:#000000;stroke-width:4mm"
     id="g64"
     transform="translate(7.5662738,-608.18894)">
    <path
       d="M -0.00721843,616.536 V 853.543"
       id="path6" />
    <path
       d="M 312.59178,618.11 V 854.331"
       id="path8" />
    <path
       d="M -0.79421843,615.748 H 77.945782"
       id="path10" />
    <path
       d="M -0.00721843,735.433 H 77.945782"
       id="path12" />
    <path
       d="m 312.59178,618.11 h 77.952"
       id="path14" />
    <path
       d="m 312.59178,737.008 h 77.952"
       id="path16" />
    <path
       d="M 77.945782,733.858 107.07978,851.969"
       id="path18" />
    <path
       d="m 390.54378,735.433 28.347,118.898"
       id="path20" />
    <path
       d="m 418.10278,714.173 v -78.74"
       id="path22" />
    <path
       d="M 105.50478,712.599 V 633.858"
       id="path24" />
    <path
       d="m 77.945782,614.961 26.771998,19.685"
       id="path26" />
    <path
       d="M 77.945782,733.858 104.71778,712.599"
       id="path28" />
    <path
       d="m 390.54378,735.433 27.559,-20.472"
       id="path30" />
    <path
       d="m 389.75678,617.323 28.346,19.685"
       id="path32" />
    <path
       d="m 262.98478,792.126 -0.221,5.078 -0.664,5.04 -1.1,4.963 -1.529,4.848 -1.945,4.696 -2.347,4.509 -2.731,4.287 -3.095,4.033 -3.434,3.748 -3.748,3.434"
       id="path34" />
    <path
       d="m 242.17078,836.762 -4.032,3.094 -4.288,2.731 -4.508,2.348 -4.697,1.945 -4.848,1.528 -4.962,1.101 -5.04,0.663 -5.078,0.222 -5.079,-0.222 -5.039,-0.663"
       id="path36" />
    <path
       d="m 194.59978,849.509 -4.963,-1.101 -4.848,-1.528 -4.696,-1.945 -4.509,-2.348 -4.287,-2.731 -4.033,-3.094 -3.748,-3.434 -3.434,-3.748 -3.094,-4.033 -2.732,-4.287"
       id="path38" />
    <path
       d="m 154.25578,821.26 -2.347,-4.509 -1.945,-4.696 -1.529,-4.848 -1.1,-4.963 -0.663,-5.04 -0.222,-5.078 0.222,-5.078 0.663,-5.04 1.1,-4.963 1.529,-4.848"
       id="path40" />
    <path
       d="m 149.96378,772.197 1.945,-4.696 2.347,-4.509 2.732,-4.287 3.094,-4.033 3.434,-3.747 3.748,-3.435 4.033,-3.094 4.287,-2.731 4.509,-2.347 4.696,-1.946"
       id="path42" />
    <path
       d="m 184.78878,737.372 4.848,-1.528 4.963,-1.1 5.039,-0.664 5.079,-0.222 5.078,0.222 5.04,0.664 4.962,1.1 4.848,1.528 4.697,1.946 4.508,2.347"
       id="path44" />
    <path
       d="m 233.85078,741.665 4.288,2.731 4.032,3.094 3.748,3.435 3.434,3.747 3.095,4.033 2.731,4.287 2.347,4.509 1.945,4.696 1.529,4.848 1.1,4.963"
       id="path46" />
    <path
       d="m 262.09978,782.008 0.664,5.04 0.221,5.078 -0.221,5.078"
       id="path48" />
    <path
       d="m 566.13478,792.126 -0.219,5.01 -0.654,4.971 -1.086,4.896 -1.508,4.783 -1.918,4.632 -2.316,4.448 -2.694,4.229 -3.053,3.979 -3.388,3.697 -3.697,3.388 -3.978,3.052"
       id="path50" />
    <path
       d="m 541.62378,839.211 -4.229,2.695 -4.448,2.315 -4.633,1.919 -4.782,1.508 -4.896,1.085 -4.972,0.655 -5.009,0.218 -5.01,-0.218 -4.972,-0.655 -4.895,-1.085 -4.783,-1.508"
       id="path52" />
    <path
       d="m 488.99478,846.14 -4.633,-1.919 -4.447,-2.315 -4.23,-2.695 -3.978,-3.052 -3.697,-3.388 -3.388,-3.697 -3.052,-3.979 -2.695,-4.229 -2.315,-4.448 -1.919,-4.632"
       id="path54" />
    <path
       d="m 454.64078,811.786 -1.508,-4.783 -1.085,-4.896 -0.655,-4.971 -0.219,-5.01 0.219,-5.01 0.655,-4.971 1.085,-4.896 1.508,-4.782 1.919,-4.633 2.315,-4.448"
       id="path56" />
    <path
       d="m 458.87478,763.386 2.695,-4.229 3.052,-3.979 3.388,-3.697 3.697,-3.387 3.978,-3.053 4.23,-2.694 4.447,-2.316 4.633,-1.919 4.783,-1.508 4.895,-1.085"
       id="path58" />
    <path
       d="m 498.67278,735.519 4.972,-0.655 5.01,-0.218 5.009,0.218 4.972,0.655 4.896,1.085 4.782,1.508 4.633,1.919 4.448,2.316 4.229,2.694 3.978,3.053 3.697,3.387"
       id="path60" />
    <path
       d="m 549.29878,751.481 3.388,3.697 3.053,3.979 2.694,4.229 2.316,4.448 1.918,4.633 1.508,4.782 1.086,4.896 0.654,4.971 0.219,5.01 -0.219,5.01"
       id="path62" />
  </g>
</svg>
