<?xml version="1.0" encoding="UTF-8" standalone="no"?>
<svg
   width="582.06152"
   height="582.06152"
   viewBox="0 0 582.06151 582.06151"
   version="1.1"
   id="svg28"
   sodipodi:docname="RSRDEF51.hpgl.svg"
   inkscape:version="1.1.2 (0a00cf5339, 2022-02-04)"
   xmlns:inkscape="http://www.inkscape.org/namespaces/inkscape"
   xmlns:sodipodi="http://sodipodi.sourceforge.net/DTD/sodipodi-0.dtd"
   xmlns="http://www.w3.org/2000/svg"
   xmlns:svg="http://www.w3.org/2000/svg">
  <defs
     id="defs32" />
  <sodipodi:namedview
     id="namedview30"
     pagecolor="#ffffff"
     bordercolor="#666666"
     borderopacity="1.0"
     inkscape:pageshadow="2"
     inkscape:pageopacity="0.0"
     inkscape:pagecheckerboard="0"
     showgrid="false"
     inkscape:zoom="1.2682364"
     inkscape:cx="290.95522"
     inkscape:cy="-1323.4914"
     inkscape:window-width="1495"
     inkscape:window-height="970"
     inkscape:window-x="0"
     inkscape:window-y="32"
     inkscape:window-maximized="0"
     inkscape:current-layer="svg28" />
  <g
     id="g2"
     transform="translate(7.5662612,-1607.0988)" />
  <g
     style="fill:none;stroke:#000000;stroke-width:1mm"
     id="g4"
     transform="translate(7.5662612,-1607.0988)" />
  <g
     style="fill:none;stroke:#000000;stroke-width:4mm"
     id="g26"
     transform="translate(7.5662612,-1607.0988)">
    <path
       d="M 284.60499,1971.134 V 1705.921"
       id="path6" />
    <path
       d="m 246.39199,2073.797 h 81.56"
       id="path8" />
    <path
       d="m 566.92899,1898.129 -1.079,24.706 -3.227,24.517 -5.353,24.143 -7.436,23.585 -9.463,22.846 -11.419,21.935 -13.287,20.857 -15.054,19.619 -16.707,18.232 -18.232,16.707"
       id="path10" />
    <path
       d="m 465.67199,2115.276 -19.619,15.054 -20.856,13.287 -21.935,11.418 -22.847,9.464 -23.585,7.436 -24.142,5.352 -24.518,3.228 -24.706,1.079 -24.705,-1.079 -24.518,-3.228"
       id="path12" />
    <path
       d="m 234.24099,2177.287 -24.143,-5.352 -23.584,-7.436 -22.847,-9.464 -21.935,-11.418 -20.856,-13.287 -19.619,-15.054 -18.232003,-16.707 -16.707,-18.232 -15.054,-19.619 -13.287,-20.857"
       id="path14" />
    <path
       d="m 37.976987,2039.861 -11.419,-21.935 -9.463,-22.846 -7.4360003,-23.585 -5.353,-24.143 -3.228,-24.517 L -1.3344028e-5,1898.129 1.0779867,1873.424 l 3.228,-24.518 5.353,-24.143 7.4360003,-23.584"
       id="path16" />
    <path
       d="m 17.094987,1801.179 9.463,-22.847 11.419,-21.935 13.287,-20.856 15.054,-19.619 16.707,-18.233 18.232003,-16.706 19.619,-15.054 20.856,-13.287 21.935,-11.419 22.847,-9.463"
       id="path18" />
    <path
       d="m 186.51399,1631.76 23.584,-7.437 24.143,-5.352 24.518,-3.228 24.705,-1.078 24.706,1.078 24.517,3.228 24.143,5.352 23.585,7.437 22.847,9.463 21.935,11.419"
       id="path20" />
    <path
       d="m 425.19699,1652.642 20.856,13.286 19.619,15.055 18.232,16.706 16.707,18.233 15.054,19.618 13.287,20.857 11.419,21.935 9.463,22.846 7.436,23.585 5.353,24.143"
       id="path22" />
    <path
       d="m 562.62299,1848.906 3.227,24.518 1.079,24.705 -1.079,24.706"
       id="path24" />
  </g>
</svg>
