<?xml version="1.0" encoding="UTF-8" standalone="no"?>
<svg
   width="494.46921"
   height="586.98944"
   viewBox="0 0 494.46922 586.98942"
   version="1.1"
   id="svg40"
   sodipodi:docname="RTLDEF51.hpgl.svg"
   inkscape:version="1.1.2 (0a00cf5339, 2022-02-04)"
   xmlns:inkscape="http://www.inkscape.org/namespaces/inkscape"
   xmlns:sodipodi="http://sodipodi.sourceforge.net/DTD/sodipodi-0.dtd"
   xmlns="http://www.w3.org/2000/svg"
   xmlns:svg="http://www.w3.org/2000/svg">
  <defs
     id="defs44" />
  <sodipodi:namedview
     id="namedview42"
     pagecolor="#ffffff"
     bordercolor="#666666"
     borderopacity="1.0"
     inkscape:pageshadow="2"
     inkscape:pageopacity="0.0"
     inkscape:pagecheckerboard="0"
     showgrid="false"
     inkscape:zoom="1.2682364"
     inkscape:cx="247.58791"
     inkscape:cy="-835.41207"
     inkscape:window-width="1495"
     inkscape:window-height="970"
     inkscape:window-x="0"
     inkscape:window-y="32"
     inkscape:window-maximized="0"
     inkscape:current-layer="svg40" />
  <g
     id="g2"
     transform="translate(7.5590553,-1118.5026)" />
  <g
     style="fill:none;stroke:#000000;stroke-width:1mm"
     id="g4"
     transform="translate(7.5590553,-1118.5026)" />
  <g
     style="fill:none;stroke:#000000;stroke-width:4mm"
     id="g38"
     transform="translate(7.5590553,-1118.5026)">
    <path
       d="m 201.18911,1197.077 50.167,-66.074 50.167,66.074"
       id="path6" />
    <path
       d="m 164.07311,1244.389 -33.853,47.312 h 60.364"
       id="path8" />
    <path
       d="m 307.23311,1290.07 h 66.482 l -38.34,-50.167"
       id="path10" />
    <path
       d="m 188.95311,1621.254 v 76.679 h 123.99 v -75.455"
       id="path12" />
    <path
       d="m 188.95311,1560.075 v -64.034"
       id="path14" />
    <path
       d="m 188.95311,1356.959 v 61.18"
       id="path16" />
    <path
       d="m 319.06111,1353.696 v 59.548"
       id="path18" />
    <path
       d="m 317.42911,1492.778 v 61.995"
       id="path20" />
    <path
       d="m -0.7028916,1425.072 5.302,-11.42 5.302,-10.196 6.9339996,-6.934 6.933,-6.934 10.605,-3.67 9.381,0.815 12.235,3.671 11.421,2.447 9.38,13.868 7.342,7.749"
       id="path22" />
    <path
       d="m 84.132108,1414.468 4.894,8.973 v 10.197 l -4.894,9.788 -5.302,8.565 -8.157,9.789 -9.381,10.197 -8.565,10.604 -5.303,7.749 -4.486,6.934 -0.816,8.973"
       id="path24" />
    <path
       d="m 42.122108,1506.237 v 9.381 6.934 l 0.816,8.973 v 0.815"
       id="path26" />
    <path
       d="m 34.373108,1566.601 h 21.616"
       id="path28" />
    <path
       d="m 389.62111,1424.257 5.302,-11.42 5.303,-10.197 6.933,-6.934 6.934,-6.933 10.604,-3.671 9.381,0.816 12.236,3.67 11.42,2.448 9.381,13.867 7.342,7.749"
       id="path30" />
    <path
       d="m 474.45711,1413.652 4.894,8.973 v 10.197 l -4.894,9.789 -5.303,8.565 -8.157,9.788 -9.381,10.197 -8.565,10.604 -5.302,7.75 -4.486,6.933 -0.816,8.973"
       id="path32" />
    <path
       d="m 432.44711,1505.421 v 9.381 6.934 l 0.816,8.973 v 0.816"
       id="path34" />
    <path
       d="m 424.69711,1565.785 h 21.617"
       id="path36" />
  </g>
</svg>
