<?xml version="1.0" encoding="UTF-8"?>
<svg id="svg40" width="494.47" height="586.99" version="1.1" viewBox="0 0 494.47 586.99" xmlns="http://www.w3.org/2000/svg">
 <g id="g38" transform="translate(7.5591 -1118.5)" fill="none" stroke="#000" stroke-width="4mm">
  <path id="path6" d="m201.19 1197.1 50.167-66.074 50.167 66.074"/>
  <path id="path8" d="m164.07 1244.4-33.853 47.312h60.364"/>
  <path id="path10" d="m307.23 1290.1h66.482l-38.34-50.167"/>
  <path id="path12" d="m188.95 1621.3v76.679h123.99v-75.455"/>
  <path id="path14" d="m188.95 1560.1v-64.034"/>
  <path id="path16" d="m188.95 1357v61.18"/>
  <path id="path18" d="m319.06 1353.7v59.548"/>
  <path id="path20" d="m317.43 1492.8v61.995"/>
  <path id="path22" d="m-0.70289 1425.1 5.302-11.42 5.302-10.196 6.934-6.934 6.933-6.934 10.605-3.67 9.381 0.815 12.235 3.671 11.421 2.447 9.38 13.868 7.342 7.749"/>
  <path id="path24" d="m84.132 1414.5 4.894 8.973v10.197l-4.894 9.788-5.302 8.565-8.157 9.789-9.381 10.197-8.565 10.604-5.303 7.749-4.486 6.934-0.816 8.973"/>
  <path id="path26" d="m42.122 1506.2v16.315l0.816 8.973v0.815"/>
  <path id="path28" d="m34.373 1566.6h21.616"/>
  <path id="path30" d="m389.62 1424.3 5.302-11.42 5.303-10.197 6.933-6.934 6.934-6.933 10.604-3.671 9.381 0.816 12.236 3.67 11.42 2.448 9.381 13.867 7.342 7.749"/>
  <path id="path32" d="m474.46 1413.7 4.894 8.973v10.197l-4.894 9.789-5.303 8.565-8.157 9.788-9.381 10.197-8.565 10.604-5.302 7.75-4.486 6.933-0.816 8.973"/>
  <path id="path34" d="m432.45 1505.4v16.315l0.816 8.973v0.816"/>
  <path id="path36" d="m424.7 1565.8h21.617"/>
 </g>
</svg>
