<?xml version="1.0" encoding="UTF-8"?>
<svg id="svg40" width="577.92" height="577.92" version="1.1" viewBox="0 0 577.92 577.92" xmlns="http://www.w3.org/2000/svg">
 <g id="g38" transform="translate(7.5663 -898.69)" fill="none" stroke="#000" stroke-width="4mm">
  <path id="path6" d="m347.61 914.54-66.211 103.46v318.64l248.29-53.797-24.829-20.69-24.829-20.691-24.829-24.829-24.829-33.106-41.382-66.21-16.553-37.244"/>
  <path id="path8" d="m372.44 1080.1-12.414-41.382-8.277-37.243-4.138-37.244v-49.658"/>
  <path id="path10" d="m281.4 984.88-24.829 8.277-24.829 20.69-20.69 12.415-20.691 20.691-16.553 20.691-16.553 24.829-16.552 20.691-12.415 28.967-12.414 28.967-8.277 24.829"/>
  <path id="path12" d="m107.59 1195.9-4.138 33.105-4.138 33.106v45.519l4.138 24.83v33.105l8.277-12.415 37.243-37.243 24.829-12.415 28.967-8.276"/>
  <path id="path14" d="m202.77 1295.2 16.553-4.138h24.829l-12.415-16.553-12.414-24.829-12.415-37.243-4.138-24.829v-66.211l8.277-28.967"/>
  <path id="path16" d="m211.05 1092.5 8.276-28.967 16.553-24.83 12.414-20.69 16.553-20.691 12.414-12.415h4.138"/>
  <path id="path18" d="m562.79 1187.7-1.071 24.525-3.204 24.338-5.313 23.967-7.382 23.413-9.395 22.679-11.335 21.775-13.19 20.704-14.944 19.476-16.585 18.099-18.099 16.585"/>
  <path id="path20" d="m462.27 1403.2-19.476 14.944-20.704 13.19-21.775 11.336-22.68 9.394-23.412 7.382-23.967 5.313-24.338 3.204-24.526 1.071-24.525-1.071-24.338-3.204"/>
  <path id="path22" d="m232.53 1464.8-23.967-5.313-23.412-7.382-22.68-9.394-21.775-11.336-20.704-13.19-19.476-14.944-18.099-16.585-16.585-18.099-14.944-19.476-13.19-20.704"/>
  <path id="path24" d="m37.7 1328.4-11.335-21.775-9.395-22.679-7.382-23.413-5.313-23.967-3.204-24.338-1.071-24.525 1.071-24.526 3.204-24.338 5.313-23.967 7.382-23.412"/>
  <path id="path26" d="m16.97 1091.4 9.395-22.68 11.335-21.775 13.19-20.704 14.944-19.476 16.585-18.099 18.099-16.585 19.476-14.944 20.704-13.19 21.775-11.335 22.68-9.395"/>
  <path id="path28" d="m185.15 923.23 23.412-7.382 23.967-5.313 24.338-3.204 24.525-1.071 24.526 1.071 24.338 3.204 23.967 5.313 23.412 7.382 22.68 9.395 21.775 11.335"/>
  <path id="path30" d="m422.09 943.96 20.704 13.19 19.476 14.944 18.099 16.585 16.585 18.099 14.944 19.476 13.19 20.704 11.335 21.775 9.395 22.68 7.382 23.412 5.313 23.967"/>
  <path id="path32" d="m558.52 1138.8 3.204 24.338 1.071 24.526-1.071 24.525"/>
  <path id="path34" d="m281.4 902.12v484.17"/>
  <path id="path36" d="m81.108 1385.5h398.09"/>
 </g>
</svg>
