<?xml version="1.0" encoding="UTF-8" standalone="no"?>
<svg
   width="577.92352"
   height="577.92352"
   viewBox="0 0 577.92351 577.92351"
   version="1.1"
   id="svg40"
   sodipodi:docname="SMCFAC02.hpgl.svg"
   inkscape:version="1.1.2 (0a00cf5339, 2022-02-04)"
   xmlns:inkscape="http://www.inkscape.org/namespaces/inkscape"
   xmlns:sodipodi="http://sodipodi.sourceforge.net/DTD/sodipodi-0.dtd"
   xmlns="http://www.w3.org/2000/svg"
   xmlns:svg="http://www.w3.org/2000/svg">
  <defs
     id="defs44" />
  <sodipodi:namedview
     id="namedview42"
     pagecolor="#ffffff"
     bordercolor="#666666"
     borderopacity="1.0"
     inkscape:pageshadow="2"
     inkscape:pageopacity="0.0"
     inkscape:pagecheckerboard="0"
     showgrid="false"
     inkscape:zoom="1.2682364"
     inkscape:cx="289.37822"
     inkscape:cy="-615.42154"
     inkscape:window-width="1495"
     inkscape:window-height="970"
     inkscape:window-x="0"
     inkscape:window-y="32"
     inkscape:window-maximized="0"
     inkscape:current-layer="svg40" />
  <g
     id="g2"
     transform="translate(7.5662593,-898.69274)" />
  <g
     style="fill:none;stroke:#000000;stroke-width:1mm"
     id="g4"
     transform="translate(7.5662593,-898.69274)" />
  <g
     style="fill:none;stroke:#000000;stroke-width:4mm"
     id="g38"
     transform="translate(7.5662593,-898.69274)">
    <path
       d="m 347.606,914.535 -66.211,103.455 v 318.639 l 248.291,-53.797 -24.829,-20.69 -24.829,-20.691 -24.829,-24.829 -24.829,-33.106 -20.691,-33.105 -20.691,-33.105 -16.553,-37.244"
       id="path6" />
    <path
       d="m 372.435,1080.062 -12.414,-41.382 -8.277,-37.243 -4.138,-37.244 v -24.829 -20.69 -4.139"
       id="path8" />
    <path
       d="m 281.395,984.884 -24.829,8.277 -24.829,20.69 -20.69,12.415 -20.691,20.691 -16.553,20.691 -16.553,24.829 -16.552,20.691 -12.415,28.967 -12.414,28.967 -8.277,24.829"
       id="path10" />
    <path
       d="m 107.592,1195.931 -4.138,33.105 -4.138,33.106 v 45.519 l 4.138,24.83 v 33.105 l 8.277,-12.415 20.69,-20.69 16.553,-16.553 24.829,-12.415 28.967,-8.276"
       id="path12" />
    <path
       d="m 202.77,1295.247 16.553,-4.138 h 24.829 l -12.415,-16.553 -12.414,-24.829 -12.415,-37.243 -4.138,-24.829 v -20.691 -20.691 -24.829 l 8.277,-28.967"
       id="path14" />
    <path
       d="m 211.047,1092.477 8.276,-28.967 16.553,-24.83 12.414,-20.69 16.553,-20.691 12.414,-12.415 h 4.138"
       id="path16" />
    <path
       d="m 562.791,1187.655 -1.071,24.525 -3.204,24.338 -5.313,23.967 -7.382,23.413 -9.395,22.679 -11.335,21.775 -13.19,20.704 -14.944,19.476 -16.585,18.099 -18.099,16.585"
       id="path18" />
    <path
       d="m 462.273,1403.216 -19.476,14.944 -20.704,13.19 -21.775,11.336 -22.68,9.394 -23.412,7.382 -23.967,5.313 -24.338,3.204 -24.526,1.071 -24.525,-1.071 -24.338,-3.204"
       id="path20" />
    <path
       d="m 232.532,1464.775 -23.967,-5.313 -23.412,-7.382 -22.68,-9.394 -21.775,-11.336 -20.704,-13.19 -19.476,-14.944 -18.099,-16.585 -16.585,-18.099 -14.944,-19.476 -13.19,-20.704"
       id="path22" />
    <path
       d="M 37.7,1328.352 26.365,1306.577 16.97,1283.898 9.588,1260.485 4.275,1236.518 1.071,1212.18 0,1187.655 l 1.071,-24.526 3.204,-24.338 5.313,-23.967 7.382,-23.412"
       id="path24" />
    <path
       d="m 16.97,1091.412 9.395,-22.68 11.335,-21.775 13.19,-20.704 14.944,-19.476 16.585,-18.099 18.099,-16.585 19.476,-14.944 20.704,-13.19 21.775,-11.335 22.68,-9.395"
       id="path26" />
    <path
       d="m 185.153,923.229 23.412,-7.382 23.967,-5.313 24.338,-3.204 24.525,-1.071 24.526,1.071 24.338,3.204 23.967,5.313 23.412,7.382 22.68,9.395 21.775,11.335"
       id="path28" />
    <path
       d="m 422.093,943.959 20.704,13.19 19.476,14.944 18.099,16.585 16.585,18.099 14.944,19.476 13.19,20.704 11.335,21.775 9.395,22.68 7.382,23.412 5.313,23.967"
       id="path30" />
    <path
       d="m 558.516,1138.791 3.204,24.338 1.071,24.526 v 0 l -1.071,24.525"
       id="path32" />
    <path
       d="m 281.395,902.121 v 484.166"
       id="path34" />
    <path
       d="M 81.108,1385.459 H 479.2"
       id="path36" />
  </g>
</svg>
