<?xml version="1.0" encoding="UTF-8" standalone="no"?>
<svg
   width="566.92902"
   height="230.69727"
   viewBox="0 0 566.929 230.69727"
   version="1.1"
   id="svg18"
   sodipodi:docname="TIDEHT01.hpgl.svg"
   inkscape:version="1.1.2 (0a00cf5339, 2022-02-04)"
   xmlns:inkscape="http://www.inkscape.org/namespaces/inkscape"
   xmlns:sodipodi="http://sodipodi.sourceforge.net/DTD/sodipodi-0.dtd"
   xmlns="http://www.w3.org/2000/svg"
   xmlns:svg="http://www.w3.org/2000/svg">
  <defs
     id="defs22" />
  <sodipodi:namedview
     id="namedview20"
     pagecolor="#ffffff"
     bordercolor="#666666"
     borderopacity="1.0"
     inkscape:pageshadow="2"
     inkscape:pageopacity="0.0"
     inkscape:pagecheckerboard="0"
     showgrid="false"
     inkscape:zoom="2.3389172"
     inkscape:cx="283.4645"
     inkscape:cy="-473.08216"
     inkscape:window-width="1495"
     inkscape:window-height="970"
     inkscape:window-x="0"
     inkscape:window-y="32"
     inkscape:window-maximized="0"
     inkscape:current-layer="svg18" />
  <g
     id="g2"
     transform="translate(0,-580.4827)" />
  <g
     style="fill:none;stroke:#000000;stroke-width:1mm"
     id="g4"
     transform="translate(0,-580.4827)" />
  <g
     style="fill:none;stroke:#000000;stroke-width:4mm"
     id="g16"
     transform="translate(0,-580.4827)">
    <path
       d="M 0,695.835 H 566.929"
       id="path6" />
    <path
       d="m 46.175,695.194 v -15.392 l 4.489,-19.881 9.62,-21.164 14.109,-17.957 18.599,-14.109 21.805,-10.261 21.163,-7.055 19.881,-1.282 21.164,4.489 19.24,6.413"
       id="path8" />
    <path
       d="m 196.245,598.995 17.957,10.903 14.75,12.185 14.109,20.522 10.903,24.371 v 18.598 9.62 16.674 l 3.206,18.598 4.489,14.751 9.62,18.598"
       id="path10" />
    <path
       d="m 271.279,763.815 19.24,16.033 7.696,6.414 10.902,6.413 12.827,5.772 19.881,3.848 22.446,1.282 25.012,-5.13 18.598,-8.338 21.164,-13.467 15.391,-15.392"
       id="path12" />
    <path
       d="m 444.436,761.25 12.186,-21.805 7.054,-20.522 3.207,-10.903 v -12.826"
       id="path14" />
  </g>
</svg>
