<?xml version="1.0" encoding="UTF-8" standalone="no"?>
<svg
   width="582.06152"
   height="582.06152"
   viewBox="0 0 582.06151 582.06151"
   version="1.1"
   id="svg24"
   sodipodi:docname="TNKCON12.hpgl.svg"
   inkscape:version="1.1.2 (0a00cf5339, 2022-02-04)"
   xmlns:inkscape="http://www.inkscape.org/namespaces/inkscape"
   xmlns:sodipodi="http://sodipodi.sourceforge.net/DTD/sodipodi-0.dtd"
   xmlns="http://www.w3.org/2000/svg"
   xmlns:svg="http://www.w3.org/2000/svg">
  <defs
     id="defs28" />
  <sodipodi:namedview
     id="namedview26"
     pagecolor="#ffffff"
     bordercolor="#666666"
     borderopacity="1.0"
     inkscape:pageshadow="2"
     inkscape:pageopacity="0.0"
     inkscape:pagecheckerboard="0"
     showgrid="false"
     inkscape:zoom="1.2682364"
     inkscape:cx="290.95522"
     inkscape:cy="-2984.8536"
     inkscape:window-width="1495"
     inkscape:window-height="970"
     inkscape:window-x="0"
     inkscape:window-y="32"
     inkscape:window-maximized="0"
     inkscape:current-layer="svg24" />
  <g
     id="g2"
     transform="translate(7.5662612,-3268.2467)" />
  <g
     style="fill:none;stroke:#000000;stroke-width:1mm"
     id="g4"
     transform="translate(7.5662612,-3268.2467)" />
  <g
     style="fill:none;stroke:#000000;stroke-width:4mm"
     id="g22"
     transform="translate(7.5662612,-3268.2467)">
    <path
       d="m 566.929,3559.277 -1.079,24.706 -3.228,24.518 -5.352,24.143 -7.436,23.584 -9.463,22.847 -11.419,21.935 -13.287,20.856 -15.054,19.619 -16.707,18.232 -18.232,16.707"
       id="path6" />
    <path
       d="m 465.672,3776.424 -19.619,15.054 -20.856,13.287 -21.935,11.419 -22.847,9.463 -23.585,7.436 -24.142,5.353 -24.518,3.227 -24.706,1.079 -24.705,-1.079 -24.518,-3.227"
       id="path8" />
    <path
       d="m 234.241,3838.436 -24.143,-5.353 -23.584,-7.436 -22.847,-9.463 -21.935,-11.419 -20.856,-13.287 -19.619,-15.054 -18.232,-16.707 -16.707,-18.232 -15.054,-19.619 -13.287,-20.856"
       id="path10" />
    <path
       d="M 37.977,3701.01 26.558,3679.075 17.095,3656.228 9.659,3632.644 4.306,3608.501 1.079,3583.983 0,3559.277 l 1.079,-24.705 3.227,-24.518 5.353,-24.143 7.436,-23.584"
       id="path12" />
    <path
       d="m 17.095,3462.327 9.463,-22.847 11.419,-21.935 13.287,-20.856 15.054,-19.619 16.707,-18.232 18.232,-16.707 19.619,-15.054 20.856,-13.287 21.935,-11.419 22.847,-9.463"
       id="path14" />
    <path
       d="m 186.514,3292.908 23.584,-7.436 24.143,-5.353 24.518,-3.227 24.705,-1.079 24.706,1.079 24.518,3.227 24.142,5.353 23.585,7.436 22.847,9.463 21.935,11.419"
       id="path16" />
    <path
       d="m 425.197,3313.79 20.856,13.287 19.619,15.054 18.232,16.707 16.707,18.232 15.054,19.619 13.287,20.856 11.419,21.935 9.463,22.847 7.436,23.584 5.352,24.143"
       id="path18" />
    <path
       d="m 562.622,3510.054 3.228,24.518 1.079,24.705 -1.079,24.706"
       id="path20" />
  </g>
</svg>
