<?xml version="1.0" encoding="UTF-8"?>
<svg id="svg3108" width="566.93" height="414.29" version="1.1" viewBox="0 0 566.93 414.29" xmlns="http://www.w3.org/2000/svg">
 <g id="g3106" transform="translate(0 -2414.8)" fill="none" stroke="#000" stroke-width="4mm">
  <path id="path6" d="m0 2422.3h566.93"/>
  <path id="path8" d="m0.099 2422.6h566.56"/>
  <path id="path10" d="m0.199 2422.8h566.2"/>
  <path id="path12" d="m0.299 2423.1h565.83"/>
  <path id="path14" d="m0.399 2423.4h565.47"/>
  <path id="path16" d="m0.499 2423.6h565.1"/>
  <path id="path18" d="m0.598 2423.9h564.74"/>
  <path id="path20" d="m0.698 2424.1h564.37"/>
  <path id="path22" d="m0.798 2424.4h564"/>
  <path id="path24" d="m0.898 2424.7h563.64"/>
  <path id="path26" d="m0.997 2424.9h563.27"/>
  <path id="path28" d="m1.097 2425.2h562.91"/>
  <path id="path30" d="m1.197 2425.4h562.54"/>
  <path id="path32" d="m1.296 2425.7h562.18"/>
  <path id="path34" d="m1.396 2425.9h561.81"/>
  <path id="path36" d="m1.496 2426.2h561.44"/>
  <path id="path38" d="m1.596 2426.5h561.08"/>
  <path id="path40" d="m1.696 2426.7h560.71"/>
  <path id="path42" d="m1.795 2427h560.35"/>
  <path id="path44" d="m1.895 2427.2h559.98"/>
  <path id="path46" d="m1.995 2427.5h559.61"/>
  <path id="path48" d="m2.094 2427.7h559.25"/>
  <path id="path50" d="m2.194 2428h558.88"/>
  <path id="path52" d="m2.294 2428.3h558.52"/>
  <path id="path54" d="m2.394 2428.5h558.15"/>
  <path id="path56" d="m2.494 2428.8h557.78"/>
  <path id="path58" d="m2.593 2429h557.42"/>
  <path id="path60" d="m2.693 2429.3h557.05"/>
  <path id="path62" d="m2.793 2429.5h556.69"/>
  <path id="path64" d="m2.893 2429.8h556.32"/>
  <path id="path66" d="m2.992 2430.1h555.96"/>
  <path id="path68" d="m3.092 2430.3h555.59"/>
  <path id="path70" d="m3.192 2430.6h555.22"/>
  <path id="path72" d="m3.292 2430.8h554.86"/>
  <path id="path74" d="m3.391 2431.1h554.49"/>
  <path id="path76" d="m3.491 2431.4h554.13"/>
  <path id="path78" d="m3.591 2431.6h553.76"/>
  <path id="path80" d="m3.691 2431.9h553.4"/>
  <path id="path82" d="m3.79 2432.1h553.03"/>
  <path id="path84" d="m3.89 2432.4h552.66"/>
  <path id="path86" d="m3.99 2432.6h552.3"/>
  <path id="path88" d="m4.089 2432.9h551.93"/>
  <path id="path90" d="m4.19 2433.2h551.57"/>
  <path id="path92" d="m4.289 2433.4h551.2"/>
  <path id="path94" d="m4.389 2433.7h550.84"/>
  <path id="path96" d="m4.489 2433.9h550.47"/>
  <path id="path98" d="m4.588 2434.2h550.1"/>
  <path id="path100" d="m4.688 2434.4h549.74"/>
  <path id="path102" d="m4.788 2434.7h549.37"/>
  <path id="path104" d="m4.888 2435h549.01"/>
  <path id="path106" d="m4.987 2435.2h548.64"/>
  <path id="path108" d="m5.087 2435.5h548.28"/>
  <path id="path110" d="m5.187 2435.7h547.91"/>
  <path id="path112" d="m5.287 2436h547.54"/>
  <path id="path114" d="m5.386 2436.2h547.18"/>
  <path id="path116" d="m5.486 2436.5h546.81"/>
  <path id="path118" d="m5.586 2436.8h546.45"/>
  <path id="path120" d="m5.686 2437h546.08"/>
  <path id="path122" d="m5.785 2437.3h545.72"/>
  <path id="path124" d="m5.885 2437.5h545.35"/>
  <path id="path126" d="m5.985 2437.8h544.98"/>
  <path id="path128" d="m6.085 2438.1h544.62"/>
  <path id="path130" d="m6.185 2438.3h544.25"/>
  <path id="path132" d="m6.284 2438.6h543.89"/>
  <path id="path134" d="m6.384 2438.8h543.52"/>
  <path id="path136" d="m6.484 2439.1h543.15"/>
  <path id="path138" d="m6.583 2439.3h542.79"/>
  <path id="path140" d="m6.683 2439.6h542.42"/>
  <path id="path142" d="m6.783 2439.9h542.06"/>
  <path id="path144" d="m6.883 2440.1h541.69"/>
  <path id="path146" d="m6.983 2440.4h541.32"/>
  <path id="path148" d="m7.082 2440.6h540.96"/>
  <path id="path150" d="m7.182 2440.9h540.59"/>
  <path id="path152" d="m7.282 2441.1h540.23"/>
  <path id="path154" d="m7.381 2441.4h539.86"/>
  <path id="path156" d="m7.481 2441.7h539.5"/>
  <path id="path158" d="m7.581 2441.9h539.13"/>
  <path id="path160" d="m7.681 2442.2h538.76"/>
  <path id="path162" d="m7.781 2442.4h538.4"/>
  <path id="path164" d="m7.88 2442.7h538.04"/>
  <path id="path166" d="m7.98 2443h537.67"/>
  <path id="path168" d="m8.08 2443.2h537.3"/>
  <path id="path170" d="m8.18 2443.5h536.94"/>
  <path id="path172" d="m8.279 2443.7h536.57"/>
  <path id="path174" d="m8.379 2444h536.2"/>
  <path id="path176" d="m8.479 2444.2h535.84"/>
  <path id="path178" d="m8.578 2444.5h535.47"/>
  <path id="path180" d="m8.678 2444.8h535.11"/>
  <path id="path182" d="m8.778 2445h534.74"/>
  <path id="path184" d="m8.878 2445.3h534.38"/>
  <path id="path186" d="m8.978 2445.5h534.01"/>
  <path id="path188" d="m9.077 2445.8h533.64"/>
  <path id="path190" d="m9.177 2446h533.28"/>
  <path id="path192" d="m9.277 2446.3h532.91"/>
  <path id="path194" d="m9.376 2446.6h532.55"/>
  <path id="path196" d="m9.476 2446.8h532.18"/>
  <path id="path198" d="m9.576 2447.1h531.82"/>
  <path id="path200" d="m9.676 2447.3h531.45"/>
  <path id="path202" d="m9.776 2447.6h531.08"/>
  <path id="path204" d="m9.875 2447.8h530.72"/>
  <path id="path206" d="m9.975 2448.1h530.35"/>
  <path id="path208" d="m10.075 2448.4h529.99"/>
  <path id="path210" d="m10.175 2448.6h529.62"/>
  <path id="path212" d="m10.274 2448.9h529.26"/>
  <path id="path214" d="m10.374 2449.1h528.89"/>
  <path id="path216" d="m10.474 2449.4h528.52"/>
  <path id="path218" d="m10.574 2449.6h528.16"/>
  <path id="path220" d="m10.673 2449.9h527.79"/>
  <path id="path222" d="m10.773 2450.2h527.43"/>
  <path id="path224" d="m10.873 2450.4h527.06"/>
  <path id="path226" d="m10.973 2450.7h526.7"/>
  <path id="path228" d="m11.072 2450.9h526.33"/>
  <path id="path230" d="m11.172 2451.2h525.96"/>
  <path id="path232" d="m11.272 2451.5h525.6"/>
  <path id="path234" d="m11.372 2451.7h525.23"/>
  <path id="path236" d="m11.471 2452h524.87"/>
  <path id="path238" d="m11.571 2452.2h524.5"/>
  <path id="path240" d="m11.671 2452.5h524.14"/>
  <path id="path242" d="m11.771 2452.7h523.77"/>
  <path id="path244" d="m11.87 2453h523.4"/>
  <path id="path246" d="m11.97 2453.3h523.04"/>
  <path id="path248" d="m12.07 2453.5h522.67"/>
  <path id="path250" d="m12.17 2453.8h522.31"/>
  <path id="path252" d="m12.269 2454h521.94"/>
  <path id="path254" d="m12.369 2454.3h521.58"/>
  <path id="path256" d="m12.469 2454.5h521.21"/>
  <path id="path258" d="m12.569 2454.8h520.84"/>
  <path id="path260" d="m12.668 2455.1h520.48"/>
  <path id="path262" d="m12.768 2455.3h520.11"/>
  <path id="path264" d="m12.868 2455.6h519.75"/>
  <path id="path266" d="m12.968 2455.8h519.38"/>
  <path id="path268" d="m13.067 2456.1h519.02"/>
  <path id="path270" d="m13.167 2456.4h518.65"/>
  <path id="path272" d="m13.267 2456.6h518.28"/>
  <path id="path274" d="m13.367 2456.9h517.92"/>
  <path id="path276" d="m13.466 2457.1h517.55"/>
  <path id="path278" d="m13.566 2457.4h517.19"/>
  <path id="path280" d="m13.666 2457.6h516.82"/>
  <path id="path282" d="m13.766 2457.9h516.45"/>
  <path id="path284" d="m13.865 2458.2h516.09"/>
  <path id="path286" d="m13.965 2458.4h515.72"/>
  <path id="path288" d="m14.065 2458.7h515.36"/>
  <path id="path290" d="m14.165 2458.9h514.99"/>
  <path id="path292" d="m14.265 2459.2h514.62"/>
  <path id="path294" d="m14.364 2459.4h514.26"/>
  <path id="path296" d="m14.464 2459.7h513.89"/>
  <path id="path298" d="m14.564 2460h513.53"/>
  <path id="path300" d="m14.663 2460.2h513.16"/>
  <path id="path302" d="m14.763 2460.5h512.8"/>
  <path id="path304" d="m14.863 2460.7h512.43"/>
  <path id="path306" d="m14.963 2461h512.06"/>
  <path id="path308" d="m15.063 2461.2h511.7"/>
  <path id="path310" d="m15.162 2461.5h511.33"/>
  <path id="path312" d="m15.262 2461.8h510.97"/>
  <path id="path314" d="m15.362 2462h510.6"/>
  <path id="path316" d="m15.461 2462.3h510.24"/>
  <path id="path318" d="m15.561 2462.5h509.87"/>
  <path id="path320" d="m15.661 2462.8h509.5"/>
  <path id="path322" d="m15.761 2463h509.14"/>
  <path id="path324" d="m15.86 2463.3h508.77"/>
  <path id="path326" d="m15.96 2463.6h508.41"/>
  <path id="path328" d="m16.06 2463.8h508.04"/>
  <path id="path330" d="m16.16 2464.1h507.68"/>
  <path id="path332" d="m16.26 2464.3h507.31"/>
  <path id="path334" d="m16.359 2464.6h506.94"/>
  <path id="path336" d="m16.459 2464.9h506.58"/>
  <path id="path338" d="m16.559 2465.1h506.21"/>
  <path id="path340" d="m16.658 2465.4h505.85"/>
  <path id="path342" d="m16.758 2465.6h505.48"/>
  <path id="path344" d="m16.858 2465.9h505.12"/>
  <path id="path346" d="m16.958 2466.1h504.75"/>
  <path id="path348" d="m17.058 2466.4h504.38"/>
  <path id="path350" d="m17.157 2466.7h504.02"/>
  <path id="path352" d="m17.257 2466.9h503.65"/>
  <path id="path354" d="m17.357 2467.2h503.29"/>
  <path id="path356" d="m17.456 2467.4h502.92"/>
  <path id="path358" d="m17.556 2467.7h502.56"/>
  <path id="path360" d="m17.656 2467.9h502.19"/>
  <path id="path362" d="m17.756 2468.2h501.82"/>
  <path id="path364" d="m17.856 2468.5h501.46"/>
  <path id="path366" d="m17.955 2468.7h501.09"/>
  <path id="path368" d="m18.055 2469h500.73"/>
  <path id="path370" d="m18.155 2469.2h500.36"/>
  <path id="path372" d="m18.255 2469.5h499.99"/>
  <path id="path374" d="m18.354 2469.8h499.63"/>
  <path id="path376" d="m18.454 2470h499.26"/>
  <path id="path378" d="m18.554 2470.3h498.9"/>
  <path id="path380" d="m18.654 2470.5h498.53"/>
  <path id="path382" d="m18.753 2470.8h498.17"/>
  <path id="path384" d="m18.853 2471h497.8"/>
  <path id="path386" d="m18.953 2471.3h497.43"/>
  <path id="path388" d="m19.053 2471.6h497.07"/>
  <path id="path390" d="m19.152 2471.8h496.7"/>
  <path id="path392" d="m19.252 2472.1h496.34"/>
  <path id="path394" d="m19.352 2472.3h495.97"/>
  <path id="path396" d="m19.451 2472.6h495.61"/>
  <path id="path398" d="m19.551 2472.8h495.24"/>
  <path id="path400" d="m19.651 2473.1h494.88"/>
  <path id="path402" d="m19.751 2473.4h494.51"/>
  <path id="path404" d="m19.851 2473.6h494.14"/>
  <path id="path406" d="m19.95 2473.9h493.78"/>
  <path id="path408" d="m20.05 2474.1h493.41"/>
  <path id="path410" d="m20.15 2474.4h493.05"/>
  <path id="path412" d="m20.25 2474.6h492.68"/>
  <path id="path414" d="m20.349 2474.9h492.31"/>
  <path id="path416" d="m20.449 2475.2h491.95"/>
  <path id="path418" d="m20.549 2475.4h491.58"/>
  <path id="path420" d="m20.649 2475.7h491.22"/>
  <path id="path422" d="m20.748 2475.9h490.85"/>
  <path id="path424" d="m20.848 2476.2h490.48"/>
  <path id="path426" d="m20.948 2476.4h490.12"/>
  <path id="path428" d="m21.048 2476.7h489.75"/>
  <path id="path430" d="m21.147 2477h489.39"/>
  <path id="path432" d="m21.247 2477.2h489.02"/>
  <path id="path434" d="m21.347 2477.5h488.66"/>
  <path id="path436" d="m21.447 2477.7h488.29"/>
  <path id="path438" d="m21.547 2478h487.92"/>
  <path id="path440" d="m21.646 2478.3h487.56"/>
  <path id="path442" d="m21.746 2478.5h487.19"/>
  <path id="path444" d="m21.846 2478.8h486.83"/>
  <path id="path446" d="m21.945 2479h486.46"/>
  <path id="path448" d="m22.045 2479.3h486.1"/>
  <path id="path450" d="m22.145 2479.5h485.73"/>
  <path id="path452" d="m22.245 2479.8h485.36"/>
  <path id="path454" d="m22.345 2480.1h485"/>
  <path id="path456" d="m22.444 2480.3h484.63"/>
  <path id="path458" d="m22.544 2480.6h484.27"/>
  <path id="path460" d="m22.644 2480.8h483.9"/>
  <path id="path462" d="m22.743 2481.1h483.54"/>
  <path id="path464" d="m22.843 2481.3h483.17"/>
  <path id="path466" d="m22.943 2481.6h482.8"/>
  <path id="path468" d="m23.043 2481.9h482.44"/>
  <path id="path470" d="m23.142 2482.1h482.07"/>
  <path id="path472" d="m23.242 2482.4h481.71"/>
  <path id="path474" d="m23.342 2482.6h481.34"/>
  <path id="path476" d="m23.442 2482.9h480.98"/>
  <path id="path478" d="m23.542 2483.2h480.61"/>
  <path id="path480" d="m23.641 2483.4h480.24"/>
  <path id="path482" d="m23.741 2483.7h479.88"/>
  <path id="path484" d="m23.841 2483.9h479.51"/>
  <path id="path486" d="m23.94 2484.2h479.15"/>
  <path id="path488" d="m24.04 2484.4h478.78"/>
  <path id="path490" d="m24.14 2484.7h478.42"/>
  <path id="path492" d="m24.24 2485h478.05"/>
  <path id="path494" d="m24.34 2485.2h477.68"/>
  <path id="path496" d="m24.439 2485.5h477.32"/>
  <path id="path498" d="m24.539 2485.7h476.95"/>
  <path id="path500" d="m24.639 2486h476.59"/>
  <path id="path502" d="m24.738 2486.2h476.22"/>
  <path id="path504" d="m24.838 2486.5h475.86"/>
  <path id="path506" d="m24.938 2486.8h475.49"/>
  <path id="path508" d="m25.038 2487h475.12"/>
  <path id="path510" d="m25.138 2487.3h474.76"/>
  <path id="path512" d="m25.237 2487.5h474.39"/>
  <path id="path514" d="m25.337 2487.8h474.03"/>
  <path id="path516" d="m25.437 2488h473.66"/>
  <path id="path518" d="m25.537 2488.3h473.29"/>
  <path id="path520" d="m25.636 2488.6h472.93"/>
  <path id="path522" d="m25.736 2488.8h472.56"/>
  <path id="path524" d="m25.836 2489.1h472.2"/>
  <path id="path526" d="m25.936 2489.3h471.83"/>
  <path id="path528" d="m26.035 2489.6h471.47"/>
  <path id="path530" d="m26.135 2489.8h471.1"/>
  <path id="path532" d="m26.235 2490.1h470.73"/>
  <path id="path534" d="m26.335 2490.4h470.37"/>
  <path id="path536" d="m26.434 2490.6h470"/>
  <path id="path538" d="m26.534 2490.9h469.64"/>
  <path id="path540" d="m26.634 2491.1h469.27"/>
  <path id="path542" d="m26.733 2491.4h468.91"/>
  <path id="path544" d="m26.833 2491.7h468.54"/>
  <path id="path546" d="m26.933 2491.9h468.17"/>
  <path id="path548" d="m27.033 2492.2h467.81"/>
  <path id="path550" d="m27.133 2492.4h467.44"/>
  <path id="path552" d="m27.232 2492.7h467.08"/>
  <path id="path554" d="m27.332 2492.9h466.71"/>
  <path id="path556" d="m27.432 2493.2h466.34"/>
  <path id="path558" d="m27.532 2493.5h465.98"/>
  <path id="path560" d="m27.631 2493.7h465.61"/>
  <path id="path562" d="m27.731 2494h465.25"/>
  <path id="path564" d="m27.831 2494.2h464.88"/>
  <path id="path566" d="m27.931 2494.5h464.52"/>
  <path id="path568" d="m28.03 2494.7h464.15"/>
  <path id="path570" d="m28.13 2495h463.78"/>
  <path id="path572" d="m28.23 2495.3h463.42"/>
  <path id="path574" d="m28.33 2495.5h463.05"/>
  <path id="path576" d="m28.429 2495.8h462.69"/>
  <path id="path578" d="m28.529 2496h462.32"/>
  <path id="path580" d="m28.629 2496.3h461.96"/>
  <path id="path582" d="m28.729 2496.6h461.59"/>
  <path id="path584" d="m28.828 2496.8h461.22"/>
  <path id="path586" d="m28.928 2497.1h460.86"/>
  <path id="path588" d="m29.028 2497.3h460.49"/>
  <path id="path590" d="m29.128 2497.6h460.13"/>
  <path id="path592" d="m29.227 2497.8h459.76"/>
  <path id="path594" d="m29.327 2498.1h459.4"/>
  <path id="path596" d="m29.427 2498.4h459.03"/>
  <path id="path598" d="m29.526 2498.6h458.66"/>
  <path id="path600" d="m29.627 2498.9h458.3"/>
  <path id="path602" d="m29.726 2499.1h457.93"/>
  <path id="path604" d="m29.826 2499.4h457.57"/>
  <path id="path606" d="m29.926 2499.6h457.2"/>
  <path id="path608" d="m30.025 2499.9h456.84"/>
  <path id="path610" d="m30.125 2500.2h456.47"/>
  <path id="path612" d="m30.225 2500.4h456.1"/>
  <path id="path614" d="m30.325 2500.7h455.74"/>
  <path id="path616" d="m30.424 2500.9h455.37"/>
  <path id="path618" d="m30.524 2501.2h455.01"/>
  <path id="path620" d="m30.624 2501.4h454.64"/>
  <path id="path622" d="m30.724 2501.7h454.28"/>
  <path id="path624" d="m30.823 2502h453.91"/>
  <path id="path626" d="m30.923 2502.2h453.54"/>
  <path id="path628" d="m31.023 2502.5h453.18"/>
  <path id="path630" d="m31.123 2502.7h452.81"/>
  <path id="path632" d="m31.222 2503h452.45"/>
  <path id="path634" d="m31.322 2503.2h452.08"/>
  <path id="path636" d="m31.422 2503.5h451.72"/>
  <path id="path638" d="m31.522 2503.8h451.35"/>
  <path id="path640" d="m31.622 2504h450.98"/>
  <path id="path642" d="m31.721 2504.3h450.62"/>
  <path id="path644" d="m31.821 2504.5h450.25"/>
  <path id="path646" d="m31.921 2504.8h449.89"/>
  <path id="path648" d="m32.02 2505.1h449.52"/>
  <path id="path650" d="m32.12 2505.3h449.15"/>
  <path id="path652" d="m32.22 2505.6h448.79"/>
  <path id="path654" d="m32.32 2505.8h448.42"/>
  <path id="path656" d="m32.42 2506.1h448.06"/>
  <path id="path658" d="m32.519 2506.3h447.69"/>
  <path id="path660" d="m32.619 2506.6h447.32"/>
  <path id="path662" d="m32.719 2506.9h446.96"/>
  <path id="path664" d="m32.818 2507.1h446.59"/>
  <path id="path666" d="m32.918 2507.4h446.23"/>
  <path id="path668" d="m33.018 2507.6h445.86"/>
  <path id="path670" d="m33.118 2507.9h445.5"/>
  <path id="path672" d="m33.218 2508.1h445.13"/>
  <path id="path674" d="m33.317 2508.4h444.76"/>
  <path id="path676" d="m33.417 2508.7h444.4"/>
  <path id="path678" d="m33.517 2508.9h444.03"/>
  <path id="path680" d="m33.617 2509.2h443.67"/>
  <path id="path682" d="m33.716 2509.4h443.3"/>
  <path id="path684" d="m33.816 2509.7h442.94"/>
  <path id="path686" d="m33.916 2510h442.57"/>
  <path id="path688" d="m34.015 2510.2h442.2"/>
  <path id="path690" d="m34.115 2510.5h441.84"/>
  <path id="path692" d="m34.215 2510.7h441.47"/>
  <path id="path694" d="m34.315 2511h441.11"/>
  <path id="path696" d="m34.415 2511.2h440.74"/>
  <path id="path698" d="m34.514 2511.5h440.38"/>
  <path id="path700" d="m34.614 2511.8h440.01"/>
  <path id="path702" d="m34.714 2512h439.64"/>
  <path id="path704" d="m34.813 2512.3h439.28"/>
  <path id="path706" d="m34.913 2512.5h438.91"/>
  <path id="path708" d="m35.013 2512.8h438.55"/>
  <path id="path710" d="m35.113 2513h438.18"/>
  <path id="path712" d="m35.213 2513.3h437.82"/>
  <path id="path714" d="m35.312 2513.6h437.45"/>
  <path id="path716" d="m35.412 2513.8h437.08"/>
  <path id="path718" d="m35.512 2514.1h436.72"/>
  <path id="path720" d="m35.612 2514.3h436.35"/>
  <path id="path722" d="m35.711 2514.6h435.99"/>
  <path id="path724" d="m35.811 2514.8h435.62"/>
  <path id="path726" d="m35.911 2515.1h435.26"/>
  <path id="path728" d="m36.011 2515.4h434.89"/>
  <path id="path730" d="m36.11 2515.6h434.52"/>
  <path id="path732" d="m36.21 2515.9h434.16"/>
  <path id="path734" d="m36.31 2516.1h433.79"/>
  <path id="path736" d="m36.41 2516.4h433.43"/>
  <path id="path738" d="m36.509 2516.6h433.06"/>
  <path id="path740" d="m36.609 2516.9h432.7"/>
  <path id="path742" d="m36.709 2517.2h432.33"/>
  <path id="path744" d="m36.808 2517.4h431.96"/>
  <path id="path746" d="m36.908 2517.7h431.6"/>
  <path id="path748" d="m37.008 2517.9h431.23"/>
  <path id="path750" d="m37.108 2518.2h430.87"/>
  <path id="path752" d="m37.208 2518.5h430.5"/>
  <path id="path754" d="m37.307 2518.7h430.14"/>
  <path id="path756" d="m37.407 2519h429.77"/>
  <path id="path758" d="m37.507 2519.2h429.4"/>
  <path id="path760" d="m37.607 2519.5h429.04"/>
  <path id="path762" d="m37.706 2519.7h428.67"/>
  <path id="path764" d="m37.806 2520h428.31"/>
  <path id="path766" d="m37.906 2520.3h427.94"/>
  <path id="path768" d="m38.006 2520.5h427.57"/>
  <path id="path770" d="m38.105 2520.8h427.21"/>
  <path id="path772" d="m38.205 2521h426.84"/>
  <path id="path774" d="m38.305 2521.3h426.48"/>
  <path id="path776" d="m38.405 2521.5h426.11"/>
  <path id="path778" d="m38.504 2521.8h425.75"/>
  <path id="path780" d="m38.604 2522.1h425.38"/>
  <path id="path782" d="m38.704 2522.3h425.01"/>
  <path id="path784" d="m38.804 2522.6h424.65"/>
  <path id="path786" d="m38.903 2522.8h424.28"/>
  <path id="path788" d="m39.003 2523.1h423.92"/>
  <path id="path790" d="m39.103 2523.4h423.55"/>
  <path id="path792" d="m39.203 2523.6h423.18"/>
  <path id="path794" d="m39.302 2523.9h422.82"/>
  <path id="path796" d="m39.402 2524.1h422.45"/>
  <path id="path798" d="m39.502 2524.4h422.09"/>
  <path id="path800" d="m39.602 2524.6h421.72"/>
  <path id="path802" d="m39.702 2524.9h421.36"/>
  <path id="path804" d="m39.801 2525.2h420.99"/>
  <path id="path806" d="m39.901 2525.4h420.62"/>
  <path id="path808" d="m40.001 2525.7h420.26"/>
  <path id="path810" d="m40.1 2525.9h419.89"/>
  <path id="path812" d="m40.2 2526.2h419.53"/>
  <path id="path814" d="m40.3 2526.4h419.16"/>
  <path id="path816" d="m40.4 2526.7h418.8"/>
  <path id="path818" d="m40.5 2527h418.43"/>
  <path id="path820" d="m40.599 2527.2h418.06"/>
  <path id="path822" d="m40.699 2527.5h417.7"/>
  <path id="path824" d="m40.799 2527.7h417.33"/>
  <path id="path826" d="m40.898 2528h416.97"/>
  <path id="path828" d="m40.998 2528.2h416.6"/>
  <path id="path830" d="m41.098 2528.5h416.24"/>
  <path id="path832" d="m41.198 2528.8h415.87"/>
  <path id="path834" d="m41.297 2529h415.5"/>
  <path id="path836" d="m41.397 2529.3h415.14"/>
  <path id="path838" d="m41.497 2529.5h414.77"/>
  <path id="path840" d="m41.597 2529.8h414.41"/>
  <path id="path842" d="m41.697 2530h414.04"/>
  <path id="path844" d="m41.796 2530.3h413.68"/>
  <path id="path846" d="m41.896 2530.6h413.31"/>
  <path id="path848" d="m41.996 2530.8h412.94"/>
  <path id="path850" d="m42.095 2531.1h412.58"/>
  <path id="path852" d="m42.195 2531.3h412.21"/>
  <path id="path854" d="m42.295 2531.6h411.85"/>
  <path id="path856" d="m42.395 2531.9h411.48"/>
  <path id="path858" d="m42.495 2532.1h411.12"/>
  <path id="path860" d="m42.594 2532.4h410.75"/>
  <path id="path862" d="m42.694 2532.6h410.38"/>
  <path id="path864" d="m42.794 2532.9h410.02"/>
  <path id="path866" d="m42.893 2533.1h409.65"/>
  <path id="path868" d="m42.993 2533.4h409.29"/>
  <path id="path870" d="m43.093 2533.7h408.92"/>
  <path id="path872" d="m43.193 2533.9h408.56"/>
  <path id="path874" d="m43.293 2534.2h408.19"/>
  <path id="path876" d="m43.392 2534.4h407.82"/>
  <path id="path878" d="m43.492 2534.7h407.46"/>
  <path id="path880" d="m43.592 2534.9h407.09"/>
  <path id="path882" d="m43.692 2535.2h406.73"/>
  <path id="path884" d="m43.791 2535.5h406.36"/>
  <path id="path886" d="m43.891 2535.7h406"/>
  <path id="path888" d="m43.991 2536h405.63"/>
  <path id="path890" d="m44.09 2536.2h405.26"/>
  <path id="path892" d="m44.19 2536.5h404.9"/>
  <path id="path894" d="m44.29 2536.8h404.53"/>
  <path id="path896" d="m44.39 2537h404.17"/>
  <path id="path898" d="m44.49 2537.3h403.8"/>
  <path id="path900" d="m44.589 2537.5h403.43"/>
  <path id="path902" d="m44.689 2537.8h403.07"/>
  <path id="path904" d="m44.789 2538h402.7"/>
  <path id="path906" d="m44.888 2538.3h402.34"/>
  <path id="path908" d="m44.988 2538.6h401.97"/>
  <path id="path910" d="m45.088 2538.8h401.6"/>
  <path id="path912" d="m45.188 2539.1h401.24"/>
  <path id="path914" d="m45.288 2539.3h400.87"/>
  <path id="path916" d="m45.387 2539.6h400.51"/>
  <path id="path918" d="m45.487 2539.8h400.14"/>
  <path id="path920" d="m45.587 2540.1h399.78"/>
  <path id="path922" d="m45.687 2540.4h399.41"/>
  <path id="path924" d="m45.786 2540.6h399.04"/>
  <path id="path926" d="m45.886 2540.9h398.68"/>
  <path id="path928" d="m45.986 2541.1h398.31"/>
  <path id="path930" d="m46.086 2541.4h397.95"/>
  <path id="path932" d="m46.185 2541.6h397.58"/>
  <path id="path934" d="m46.285 2541.9h397.22"/>
  <path id="path936" d="m46.385 2542.2h396.85"/>
  <path id="path938" d="m46.485 2542.4h396.48"/>
  <path id="path940" d="m46.584 2542.7h396.12"/>
  <path id="path942" d="m46.684 2542.9h395.75"/>
  <path id="path944" d="m46.784 2543.2h395.39"/>
  <path id="path946" d="m46.884 2543.5h395.02"/>
  <path id="path948" d="m46.984 2543.7h394.66"/>
  <path id="path950" d="m47.083 2544h394.29"/>
  <path id="path952" d="m47.183 2544.2h393.92"/>
  <path id="path954" d="m47.283 2544.5h393.56"/>
  <path id="path956" d="m47.382 2544.7h393.19"/>
  <path id="path958" d="m47.482 2545h392.83"/>
  <path id="path960" d="m47.582 2545.3h392.46"/>
  <path id="path962" d="m47.682 2545.5h392.1"/>
  <path id="path964" d="m47.782 2545.8h391.73"/>
  <path id="path966" d="m47.881 2546h391.36"/>
  <path id="path968" d="m47.981 2546.3h391"/>
  <path id="path970" d="m48.081 2546.5h390.63"/>
  <path id="path972" d="m48.18 2546.8h390.27"/>
  <path id="path974" d="m48.28 2547.1h389.9"/>
  <path id="path976" d="m48.38 2547.3h389.54"/>
  <path id="path978" d="m48.48 2547.6h389.17"/>
  <path id="path980" d="m48.579 2547.8h388.8"/>
  <path id="path982" d="m48.679 2548.1h388.44"/>
  <path id="path984" d="m48.779 2548.3h388.07"/>
  <path id="path986" d="m48.879 2548.6h387.71"/>
  <path id="path988" d="m48.979 2548.9h387.34"/>
  <path id="path990" d="m49.078 2549.1h386.98"/>
  <path id="path992" d="m49.178 2549.4h386.61"/>
  <path id="path994" d="m49.278 2549.6h386.24"/>
  <path id="path996" d="m49.377 2549.9h385.88"/>
  <path id="path998" d="m49.477 2550.2h385.51"/>
  <path id="path1000" d="m49.577 2550.4h385.15"/>
  <path id="path1002" d="m49.677 2550.7h384.78"/>
  <path id="path1004" d="m49.777 2550.9h384.41"/>
  <path id="path1006" d="m49.876 2551.2h384.05"/>
  <path id="path1008" d="m49.976 2551.4h383.68"/>
  <path id="path1010" d="m50.076 2551.7h383.32"/>
  <path id="path1012" d="m50.175 2552h382.95"/>
  <path id="path1014" d="m50.275 2552.2h382.59"/>
  <path id="path1016" d="m50.375 2552.5h382.22"/>
  <path id="path1018" d="m50.475 2552.7h381.85"/>
  <path id="path1020" d="m50.575 2553h381.49"/>
  <path id="path1022" d="m50.674 2553.2h381.12"/>
  <path id="path1024" d="m50.774 2553.5h380.76"/>
  <path id="path1026" d="m50.874 2553.8h380.39"/>
  <path id="path1028" d="m50.974 2554h380.02"/>
  <path id="path1030" d="m51.073 2554.3h379.66"/>
  <path id="path1032" d="m51.173 2554.5h379.29"/>
  <path id="path1034" d="m51.273 2554.8h378.93"/>
  <path id="path1036" d="m51.372 2555h378.56"/>
  <path id="path1038" d="m51.472 2555.3h378.2"/>
  <path id="path1040" d="m51.572 2555.6h377.83"/>
  <path id="path1042" d="m51.672 2555.8h377.46"/>
  <path id="path1044" d="m51.772 2556.1h377.1"/>
  <path id="path1046" d="m51.871 2556.3h376.73"/>
  <path id="path1048" d="m51.971 2556.6h376.37"/>
  <path id="path1050" d="m52.071 2556.9h376"/>
  <path id="path1052" d="m52.17 2557.1h375.64"/>
  <path id="path1054" d="m52.27 2557.4h375.27"/>
  <path id="path1056" d="m52.37 2557.6h374.9"/>
  <path id="path1058" d="m52.47 2557.9h374.54"/>
  <path id="path1060" d="m52.57 2558.1h374.17"/>
  <path id="path1062" d="m52.669 2558.4h373.81"/>
  <path id="path1064" d="m52.769 2558.7h373.44"/>
  <path id="path1066" d="m52.869 2558.9h373.08"/>
  <path id="path1068" d="m52.969 2559.2h372.71"/>
  <path id="path1070" d="m53.068 2559.4h372.34"/>
  <path id="path1072" d="m53.168 2559.7h371.98"/>
  <path id="path1074" d="m53.268 2559.9h371.61"/>
  <path id="path1076" d="m53.368 2560.2h371.25"/>
  <path id="path1078" d="m53.467 2560.5h370.88"/>
  <path id="path1080" d="m53.567 2560.7h370.52"/>
  <path id="path1082" d="m53.667 2561h370.15"/>
  <path id="path1084" d="m53.767 2561.2h369.78"/>
  <path id="path1086" d="m53.866 2561.5h369.42"/>
  <path id="path1088" d="m53.966 2561.7h369.05"/>
  <path id="path1090" d="m54.066 2562h368.69"/>
  <path id="path1092" d="m54.166 2562.3h368.32"/>
  <path id="path1094" d="m54.265 2562.5h367.96"/>
  <path id="path1096" d="m54.365 2562.8h367.59"/>
  <path id="path1098" d="m54.465 2563h367.22"/>
  <path id="path1100" d="m54.565 2563.3h366.86"/>
  <path id="path1102" d="m54.664 2563.6h366.49"/>
  <path id="path1104" d="m54.764 2563.8h366.13"/>
  <path id="path1106" d="m54.864 2564.1h365.76"/>
  <path id="path1108" d="m54.964 2564.3h365.4"/>
  <path id="path1110" d="m55.064 2564.6h365.03"/>
  <path id="path1112" d="m55.163 2564.8h364.66"/>
  <path id="path1114" d="m55.263 2565.1h364.3"/>
  <path id="path1116" d="m55.363 2565.4h363.93"/>
  <path id="path1118" d="m55.462 2565.6h363.57"/>
  <path id="path1120" d="m55.562 2565.9h363.2"/>
  <path id="path1122" d="m55.662 2566.1h362.84"/>
  <path id="path1124" d="m55.762 2566.4h362.47"/>
  <path id="path1126" d="m55.861 2566.6h362.1"/>
  <path id="path1128" d="m55.961 2566.9h361.74"/>
  <path id="path1130" d="m56.061 2567.2h361.37"/>
  <path id="path1132" d="m56.161 2567.4h361.01"/>
  <path id="path1134" d="m56.26 2567.7h360.64"/>
  <path id="path1136" d="m56.36 2567.9h360.27"/>
  <path id="path1138" d="m56.46 2568.2h359.91"/>
  <path id="path1140" d="m56.56 2568.4h359.54"/>
  <path id="path1142" d="m56.659 2568.7h359.18"/>
  <path id="path1144" d="m56.759 2569h358.81"/>
  <path id="path1146" d="m56.859 2569.2h358.44"/>
  <path id="path1148" d="m56.959 2569.5h358.08"/>
  <path id="path1150" d="m57.059 2569.7h357.71"/>
  <path id="path1152" d="m57.158 2570h357.35"/>
  <path id="path1154" d="m57.258 2570.3h356.98"/>
  <path id="path1156" d="m57.358 2570.5h356.62"/>
  <path id="path1158" d="m57.457 2570.8h356.25"/>
  <path id="path1160" d="m57.557 2571h355.89"/>
  <path id="path1162" d="m57.657 2571.3h355.52"/>
  <path id="path1164" d="m57.757 2571.5h355.15"/>
  <path id="path1166" d="m57.857 2571.8h354.79"/>
  <path id="path1168" d="m57.956 2572.1h354.42"/>
  <path id="path1170" d="m58.056 2572.3h354.06"/>
  <path id="path1172" d="m58.156 2572.6h353.69"/>
  <path id="path1174" d="m58.255 2572.8h353.33"/>
  <path id="path1176" d="m58.355 2573.1h352.96"/>
  <path id="path1178" d="m58.455 2573.3h352.59"/>
  <path id="path1180" d="m58.555 2573.6h352.23"/>
  <path id="path1182" d="m58.654 2573.9h351.86"/>
  <path id="path1184" d="m58.754 2574.1h351.5"/>
  <path id="path1186" d="m58.854 2574.4h351.13"/>
  <path id="path1188" d="m58.954 2574.6h350.76"/>
  <path id="path1190" d="m59.054 2574.9h350.4"/>
  <path id="path1192" d="m59.153 2575.1h350.03"/>
  <path id="path1194" d="m59.253 2575.4h349.67"/>
  <path id="path1196" d="m59.353 2575.7h349.3"/>
  <path id="path1198" d="m59.452 2575.9h348.94"/>
  <path id="path1200" d="m59.552 2576.2h348.57"/>
  <path id="path1202" d="m59.652 2576.4h348.2"/>
  <path id="path1204" d="m59.752 2576.7h347.84"/>
  <path id="path1206" d="m59.852 2577h347.47"/>
  <path id="path1208" d="m59.951 2577.2h347.11"/>
  <path id="path1210" d="m60.051 2577.5h346.74"/>
  <path id="path1212" d="m60.151 2577.7h346.38"/>
  <path id="path1214" d="m60.25 2578h346.01"/>
  <path id="path1216" d="m60.35 2578.2h345.64"/>
  <path id="path1218" d="m60.45 2578.5h345.28"/>
  <path id="path1220" d="m60.55 2578.8h344.91"/>
  <path id="path1222" d="m60.65 2579h344.55"/>
  <path id="path1224" d="m60.749 2579.3h344.18"/>
  <path id="path1226" d="m60.849 2579.5h343.82"/>
  <path id="path1228" d="m60.949 2579.8h343.45"/>
  <path id="path1230" d="m61.049 2580h343.08"/>
  <path id="path1232" d="m61.148 2580.3h342.72"/>
  <path id="path1234" d="m61.248 2580.6h342.35"/>
  <path id="path1236" d="m61.348 2580.8h341.99"/>
  <path id="path1238" d="m61.448 2581.1h341.62"/>
  <path id="path1240" d="m61.547 2581.3h341.26"/>
  <path id="path1242" d="m61.647 2581.6h340.89"/>
  <path id="path1244" d="m61.747 2581.8h340.52"/>
  <path id="path1246" d="m61.847 2582.1h340.16"/>
  <path id="path1248" d="m61.946 2582.4h339.79"/>
  <path id="path1250" d="m62.046 2582.6h339.43"/>
  <path id="path1252" d="m62.146 2582.9h339.06"/>
  <path id="path1254" d="m62.245 2583.1h338.7"/>
  <path id="path1256" d="m62.346 2583.4h338.33"/>
  <path id="path1258" d="m62.445 2583.7h337.96"/>
  <path id="path1260" d="m62.545 2583.9h337.6"/>
  <path id="path1262" d="m62.645 2584.2h337.23"/>
  <path id="path1264" d="m62.744 2584.4h336.87"/>
  <path id="path1266" d="m62.844 2584.7h336.5"/>
  <path id="path1268" d="m62.944 2584.9h336.13"/>
  <path id="path1270" d="m63.044 2585.2h335.77"/>
  <path id="path1272" d="m63.143 2585.5h335.4"/>
  <path id="path1274" d="m63.243 2585.7h335.04"/>
  <path id="path1276" d="m63.343 2586h334.67"/>
  <path id="path1278" d="m63.443 2586.2h334.3"/>
  <path id="path1280" d="m63.542 2586.5h333.94"/>
  <path id="path1282" d="m63.642 2586.7h333.57"/>
  <path id="path1284" d="m63.742 2587h333.21"/>
  <path id="path1286" d="m63.842 2587.3h332.84"/>
  <path id="path1288" d="m63.941 2587.5h332.48"/>
  <path id="path1290" d="m64.041 2587.8h332.11"/>
  <path id="path1292" d="m64.141 2588h331.74"/>
  <path id="path1294" d="m64.241 2588.3h331.38"/>
  <path id="path1296" d="m64.341 2588.5h331.01"/>
  <path id="path1298" d="m64.44 2588.8h330.65"/>
  <path id="path1300" d="m64.54 2589.1h330.28"/>
  <path id="path1302" d="m64.64 2589.3h329.92"/>
  <path id="path1304" d="m64.739 2589.6h329.55"/>
  <path id="path1306" d="m64.839 2589.8h329.18"/>
  <path id="path1308" d="m64.939 2590.1h328.82"/>
  <path id="path1310" d="m65.039 2590.4h328.45"/>
  <path id="path1312" d="m65.139 2590.6h328.09"/>
  <path id="path1314" d="m65.238 2590.9h327.72"/>
  <path id="path1316" d="m65.338 2591.1h327.36"/>
  <path id="path1318" d="m65.438 2591.4h326.99"/>
  <path id="path1320" d="m65.537 2591.6h326.62"/>
  <path id="path1322" d="m65.637 2591.9h326.26"/>
  <path id="path1324" d="m65.737 2592.2h325.89"/>
  <path id="path1326" d="m65.837 2592.4h325.53"/>
  <path id="path1328" d="m65.936 2592.7h325.16"/>
  <path id="path1330" d="m66.036 2592.9h324.8"/>
  <path id="path1332" d="m66.136 2593.2h324.43"/>
  <path id="path1334" d="m66.236 2593.4h324.06"/>
  <path id="path1336" d="m66.336 2593.7h323.7"/>
  <path id="path1338" d="m66.435 2594h323.33"/>
  <path id="path1340" d="m66.535 2594.2h322.97"/>
  <path id="path1342" d="m66.635 2594.5h322.6"/>
  <path id="path1344" d="m66.734 2594.7h322.24"/>
  <path id="path1346" d="m66.834 2595h321.87"/>
  <path id="path1348" d="m66.934 2595.2h321.5"/>
  <path id="path1350" d="m67.034 2595.5h321.14"/>
  <path id="path1352" d="m67.134 2595.8h320.77"/>
  <path id="path1354" d="m67.233 2596h320.41"/>
  <path id="path1356" d="m67.333 2596.3h320.04"/>
  <path id="path1358" d="m67.433 2596.5h319.68"/>
  <path id="path1360" d="m67.532 2596.8h319.31"/>
  <path id="path1362" d="m67.632 2597.1h318.94"/>
  <path id="path1364" d="m67.732 2597.3h318.58"/>
  <path id="path1366" d="m67.832 2597.6h318.21"/>
  <path id="path1368" d="m67.932 2597.8h317.85"/>
  <path id="path1370" d="m68.031 2598.1h317.48"/>
  <path id="path1372" d="m68.131 2598.3h317.12"/>
  <path id="path1374" d="m68.231 2598.6h316.75"/>
  <path id="path1376" d="m68.33 2598.9h316.38"/>
  <path id="path1378" d="m68.43 2599.1h316.02"/>
  <path id="path1380" d="m68.53 2599.4h315.65"/>
  <path id="path1382" d="m68.63 2599.6h315.28"/>
  <path id="path1384" d="m68.73 2599.9h314.92"/>
  <path id="path1386" d="m68.829 2600.1h314.56"/>
  <path id="path1388" d="m68.929 2600.4h314.19"/>
  <path id="path1390" d="m69.029 2600.7h313.82"/>
  <path id="path1392" d="m69.129 2600.9h313.46"/>
  <path id="path1394" d="m69.228 2601.2h313.09"/>
  <path id="path1396" d="m69.328 2601.4h312.73"/>
  <path id="path1398" d="m69.428 2601.7h312.36"/>
  <path id="path1400" d="m69.527 2601.9h312"/>
  <path id="path1402" d="m69.627 2602.2h311.63"/>
  <path id="path1404" d="m69.727 2602.5h311.26"/>
  <path id="path1406" d="m69.827 2602.7h310.9"/>
  <path id="path1408" d="m69.927 2603h310.53"/>
  <path id="path1410" d="m70.026 2603.2h310.17"/>
  <path id="path1412" d="m70.126 2603.5h309.8"/>
  <path id="path1414" d="m70.226 2603.8h309.43"/>
  <path id="path1416" d="m70.325 2604h309.07"/>
  <path id="path1418" d="m70.425 2604.3h308.7"/>
  <path id="path1420" d="m70.525 2604.5h308.34"/>
  <path id="path1422" d="m70.625 2604.8h307.97"/>
  <path id="path1424" d="m70.725 2605h307.6"/>
  <path id="path1426" d="m70.824 2605.3h307.24"/>
  <path id="path1428" d="m70.924 2605.6h306.87"/>
  <path id="path1430" d="m71.024 2605.8h306.51"/>
  <path id="path1432" d="m71.124 2606.1h306.14"/>
  <path id="path1434" d="m71.223 2606.3h305.78"/>
  <path id="path1436" d="m71.323 2606.6h305.41"/>
  <path id="path1438" d="m71.423 2606.8h305.04"/>
  <path id="path1440" d="m71.523 2607.1h304.68"/>
  <path id="path1442" d="m71.622 2607.4h304.31"/>
  <path id="path1444" d="m71.722 2607.6h303.95"/>
  <path id="path1446" d="m71.822 2607.9h303.58"/>
  <path id="path1448" d="m71.922 2608.1h303.22"/>
  <path id="path1450" d="m72.021 2608.4h302.85"/>
  <path id="path1452" d="m72.121 2608.6h302.48"/>
  <path id="path1454" d="m72.221 2608.9h302.12"/>
  <path id="path1456" d="m72.321 2609.2h301.75"/>
  <path id="path1458" d="m72.421 2609.4h301.39"/>
  <path id="path1460" d="m72.52 2609.7h301.02"/>
  <path id="path1462" d="m72.62 2609.9h300.66"/>
  <path id="path1464" d="m72.72 2610.2h300.29"/>
  <path id="path1466" d="m72.819 2610.5h299.92"/>
  <path id="path1468" d="m72.919 2610.7h299.56"/>
  <path id="path1470" d="m73.019 2611h299.19"/>
  <path id="path1472" d="m73.119 2611.2h298.83"/>
  <path id="path1474" d="m73.219 2611.5h298.46"/>
  <path id="path1476" d="m73.318 2611.7h298.1"/>
  <path id="path1478" d="m73.418 2612h297.73"/>
  <path id="path1480" d="m73.518 2612.3h297.36"/>
  <path id="path1482" d="m73.617 2612.5h297"/>
  <path id="path1484" d="m73.717 2612.8h296.63"/>
  <path id="path1486" d="m73.817 2613h296.27"/>
  <path id="path1488" d="m73.917 2613.3h295.9"/>
  <path id="path1490" d="m74.016 2613.5h295.54"/>
  <path id="path1492" d="m74.116 2613.8h295.17"/>
  <path id="path1494" d="m74.216 2614.1h294.8"/>
  <path id="path1496" d="m74.316 2614.3h294.44"/>
  <path id="path1498" d="m74.416 2614.6h294.07"/>
  <path id="path1500" d="m74.515 2614.8h293.71"/>
  <path id="path1502" d="m74.615 2615.1h293.34"/>
  <path id="path1504" d="m74.715 2615.3h292.97"/>
  <path id="path1506" d="m74.814 2615.6h292.61"/>
  <path id="path1508" d="m74.914 2615.9h292.24"/>
  <path id="path1510" d="m75.014 2616.1h291.88"/>
  <path id="path1512" d="m75.114 2616.4h291.51"/>
  <path id="path1514" d="m75.214 2616.6h291.14"/>
  <path id="path1516" d="m75.313 2616.9h290.78"/>
  <path id="path1518" d="m75.413 2617.2h290.41"/>
  <path id="path1520" d="m75.513 2617.4h290.05"/>
  <path id="path1522" d="m75.612 2617.7h289.68"/>
  <path id="path1524" d="m75.712 2617.9h289.32"/>
  <path id="path1526" d="m75.812 2618.2h288.95"/>
  <path id="path1528" d="m75.912 2618.4h288.58"/>
  <path id="path1530" d="m76.012 2618.7h288.22"/>
  <path id="path1532" d="m76.111 2619h287.85"/>
  <path id="path1534" d="m76.211 2619.2h287.49"/>
  <path id="path1536" d="m76.311 2619.5h287.12"/>
  <path id="path1538" d="m76.411 2619.7h286.76"/>
  <path id="path1540" d="m76.51 2620h286.39"/>
  <path id="path1542" d="m76.61 2620.2h286.02"/>
  <path id="path1544" d="m76.71 2620.5h285.66"/>
  <path id="path1546" d="m76.809 2620.8h285.29"/>
  <path id="path1548" d="m76.909 2621h284.93"/>
  <path id="path1550" d="m77.009 2621.3h284.56"/>
  <path id="path1552" d="m77.109 2621.5h284.2"/>
  <path id="path1554" d="m77.209 2621.8h283.83"/>
  <path id="path1556" d="m77.308 2622h283.46"/>
  <path id="path1558" d="m77.408 2622.3h283.1"/>
  <path id="path1560" d="m77.508 2622.6h282.73"/>
  <path id="path1562" d="m77.607 2622.8h282.37"/>
  <path id="path1564" d="m77.707 2623.1h282"/>
  <path id="path1566" d="m77.807 2623.3h281.64"/>
  <path id="path1568" d="m77.907 2623.6h281.27"/>
  <path id="path1570" d="m78.007 2623.9h280.9"/>
  <path id="path1572" d="m78.106 2624.1h280.54"/>
  <path id="path1574" d="m78.206 2624.4h280.17"/>
  <path id="path1576" d="m78.306 2624.6h279.81"/>
  <path id="path1578" d="m78.406 2624.9h279.44"/>
  <path id="path1580" d="m78.505 2625.1h279.08"/>
  <path id="path1582" d="m78.605 2625.4h278.71"/>
  <path id="path1584" d="m78.705 2625.7h278.34"/>
  <path id="path1586" d="m78.805 2625.9h277.98"/>
  <path id="path1588" d="m78.904 2626.2h277.61"/>
  <path id="path1590" d="m79.004 2626.4h277.25"/>
  <path id="path1592" d="m79.104 2626.7h276.88"/>
  <path id="path1594" d="m79.204 2626.9h276.52"/>
  <path id="path1596" d="m79.303 2627.2h276.15"/>
  <path id="path1598" d="m79.403 2627.5h275.78"/>
  <path id="path1600" d="m79.503 2627.7h275.42"/>
  <path id="path1602" d="m79.603 2628h275.05"/>
  <path id="path1604" d="m79.702 2628.2h274.69"/>
  <path id="path1606" d="m79.802 2628.5h274.32"/>
  <path id="path1608" d="m79.902 2628.7h273.96"/>
  <path id="path1610" d="m80.002 2629h273.59"/>
  <path id="path1612" d="m80.101 2629.3h273.22"/>
  <path id="path1614" d="m80.201 2629.5h272.86"/>
  <path id="path1616" d="m80.301 2629.8h272.49"/>
  <path id="path1618" d="m80.401 2630h272.13"/>
  <path id="path1620" d="m80.501 2630.3h271.76"/>
  <path id="path1622" d="m80.6 2630.6h271.4"/>
  <path id="path1624" d="m80.7 2630.8h271.03"/>
  <path id="path1626" d="m80.8 2631.1h270.66"/>
  <path id="path1628" d="m80.899 2631.3h270.3"/>
  <path id="path1630" d="m80.999 2631.6h269.93"/>
  <path id="path1632" d="m81.099 2631.8h269.57"/>
  <path id="path1634" d="m81.199 2632.1h269.2"/>
  <path id="path1636" d="m81.298 2632.4h268.84"/>
  <path id="path1638" d="m81.398 2632.6h268.47"/>
  <path id="path1640" d="m81.498 2632.9h268.1"/>
  <path id="path1642" d="m81.598 2633.1h267.74"/>
  <path id="path1644" d="m81.697 2633.4h267.37"/>
  <path id="path1646" d="m81.797 2633.6h267.01"/>
  <path id="path1648" d="m81.897 2633.9h266.64"/>
  <path id="path1650" d="m81.997 2634.2h266.27"/>
  <path id="path1652" d="m82.096 2634.4h265.91"/>
  <path id="path1654" d="m82.196 2634.7h265.54"/>
  <path id="path1656" d="m82.296 2634.9h265.18"/>
  <path id="path1658" d="m82.396 2635.2h264.81"/>
  <path id="path1660" d="m82.496 2635.4h264.44"/>
  <path id="path1662" d="m82.595 2635.7h264.08"/>
  <path id="path1664" d="m82.695 2636h263.71"/>
  <path id="path1666" d="m82.795 2636.2h263.35"/>
  <path id="path1668" d="m82.894 2636.5h262.98"/>
  <path id="path1670" d="m82.994 2636.7h262.62"/>
  <path id="path1672" d="m83.094 2637h262.25"/>
  <path id="path1674" d="m83.194 2637.3h261.88"/>
  <path id="path1676" d="m83.294 2637.5h261.52"/>
  <path id="path1678" d="m83.393 2637.8h261.15"/>
  <path id="path1680" d="m83.493 2638h260.79"/>
  <path id="path1682" d="m83.593 2638.3h260.42"/>
  <path id="path1684" d="m83.692 2638.5h260.06"/>
  <path id="path1686" d="m83.792 2638.8h259.69"/>
  <path id="path1688" d="m83.892 2639.1h259.32"/>
  <path id="path1690" d="m83.992 2639.3h258.96"/>
  <path id="path1692" d="m84.091 2639.6h258.59"/>
  <path id="path1694" d="m84.191 2639.8h258.23"/>
  <path id="path1696" d="m84.291 2640.1h257.86"/>
  <path id="path1698" d="m84.391 2640.3h257.5"/>
  <path id="path1700" d="m84.491 2640.6h257.13"/>
  <path id="path1702" d="m84.59 2640.9h256.76"/>
  <path id="path1704" d="m84.69 2641.1h256.4"/>
  <path id="path1706" d="m84.79 2641.4h256.03"/>
  <path id="path1708" d="m84.889 2641.6h255.67"/>
  <path id="path1710" d="m84.989 2641.9h255.3"/>
  <path id="path1712" d="m85.089 2642.1h254.94"/>
  <path id="path1714" d="m85.189 2642.4h254.57"/>
  <path id="path1716" d="m85.289 2642.7h254.2"/>
  <path id="path1718" d="m85.388 2642.9h253.84"/>
  <path id="path1720" d="m85.488 2643.2h253.47"/>
  <path id="path1722" d="m85.588 2643.4h253.11"/>
  <path id="path1724" d="m85.687 2643.7h252.74"/>
  <path id="path1726" d="m85.787 2644h252.38"/>
  <path id="path1728" d="m85.887 2644.2h252.01"/>
  <path id="path1730" d="m85.987 2644.5h251.64"/>
  <path id="path1732" d="m86.087 2644.7h251.28"/>
  <path id="path1734" d="m86.186 2645h250.91"/>
  <path id="path1736" d="m86.286 2645.2h250.55"/>
  <path id="path1738" d="m86.386 2645.5h250.18"/>
  <path id="path1740" d="m86.486 2645.8h249.81"/>
  <path id="path1742" d="m86.585 2646h249.45"/>
  <path id="path1744" d="m86.685 2646.3h249.08"/>
  <path id="path1746" d="m86.785 2646.5h248.72"/>
  <path id="path1748" d="m86.885 2646.8h248.35"/>
  <path id="path1750" d="m86.984 2647h247.99"/>
  <path id="path1752" d="m87.084 2647.3h247.62"/>
  <path id="path1754" d="m87.184 2647.6h247.25"/>
  <path id="path1756" d="m87.284 2647.8h246.89"/>
  <path id="path1758" d="m87.383 2648.1h246.52"/>
  <path id="path1760" d="m87.483 2648.3h246.16"/>
  <path id="path1762" d="m87.583 2648.6h245.79"/>
  <path id="path1764" d="m87.682 2648.8h245.43"/>
  <path id="path1766" d="m87.783 2649.1h245.06"/>
  <path id="path1768" d="m87.882 2649.4h244.69"/>
  <path id="path1770" d="m87.982 2649.6h244.33"/>
  <path id="path1772" d="m88.082 2649.9h243.96"/>
  <path id="path1774" d="m88.181 2650.1h243.6"/>
  <path id="path1776" d="m88.281 2650.4h243.23"/>
  <path id="path1778" d="m88.381 2650.7h242.86"/>
  <path id="path1780" d="m88.481 2650.9h242.5"/>
  <path id="path1782" d="m88.58 2651.2h242.13"/>
  <path id="path1784" d="m88.68 2651.4h241.77"/>
  <path id="path1786" d="m88.78 2651.7h241.4"/>
  <path id="path1788" d="m88.88 2651.9h241.04"/>
  <path id="path1790" d="m88.979 2652.2h240.67"/>
  <path id="path1792" d="m89.079 2652.5h240.3"/>
  <path id="path1794" d="m89.179 2652.7h239.94"/>
  <path id="path1796" d="m89.279 2653h239.57"/>
  <path id="path1798" d="m89.378 2653.2h239.21"/>
  <path id="path1800" d="m89.478 2653.5h238.84"/>
  <path id="path1802" d="m89.578 2653.7h238.48"/>
  <path id="path1804" d="m89.678 2654h238.11"/>
  <path id="path1806" d="m89.778 2654.3h237.74"/>
  <path id="path1808" d="m89.877 2654.5h237.38"/>
  <path id="path1810" d="m89.977 2654.8h237.01"/>
  <path id="path1812" d="m90.077 2655h236.65"/>
  <path id="path1814" d="m90.176 2655.3h236.28"/>
  <path id="path1816" d="m90.276 2655.5h235.92"/>
  <path id="path1818" d="m90.376 2655.8h235.55"/>
  <path id="path1820" d="m90.476 2656.1h235.18"/>
  <path id="path1822" d="m90.576 2656.3h234.82"/>
  <path id="path1824" d="m90.675 2656.6h234.45"/>
  <path id="path1826" d="m90.775 2656.8h234.09"/>
  <path id="path1828" d="m90.875 2657.1h233.72"/>
  <path id="path1830" d="m90.974 2657.4h233.36"/>
  <path id="path1832" d="m91.074 2657.6h232.99"/>
  <path id="path1834" d="m91.174 2657.9h232.62"/>
  <path id="path1836" d="m91.274 2658.1h232.26"/>
  <path id="path1838" d="m91.373 2658.4h231.89"/>
  <path id="path1840" d="m91.473 2658.6h231.53"/>
  <path id="path1842" d="m91.573 2658.9h231.16"/>
  <path id="path1844" d="m91.673 2659.2h230.8"/>
  <path id="path1846" d="m91.773 2659.4h230.43"/>
  <path id="path1848" d="m91.872 2659.7h230.06"/>
  <path id="path1850" d="m91.972 2659.9h229.7"/>
  <path id="path1852" d="m92.072 2660.2h229.33"/>
  <path id="path1854" d="m92.171 2660.4h228.97"/>
  <path id="path1856" d="m92.271 2660.7h228.6"/>
  <path id="path1858" d="m92.371 2661h228.24"/>
  <path id="path1860" d="m92.471 2661.2h227.87"/>
  <path id="path1862" d="m92.571 2661.5h227.5"/>
  <path id="path1864" d="m92.67 2661.7h227.14"/>
  <path id="path1866" d="m92.77 2662h226.77"/>
  <path id="path1868" d="m92.87 2662.2h226.41"/>
  <path id="path1870" d="m92.969 2662.5h226.04"/>
  <path id="path1872" d="m93.069 2662.8h225.68"/>
  <path id="path1874" d="m93.169 2663h225.31"/>
  <path id="path1876" d="m93.269 2663.3h224.94"/>
  <path id="path1878" d="m93.369 2663.5h224.58"/>
  <path id="path1880" d="m93.468 2663.8h224.21"/>
  <path id="path1882" d="m93.568 2664.1h223.85"/>
  <path id="path1884" d="m93.668 2664.3h223.48"/>
  <path id="path1886" d="m93.768 2664.6h223.11"/>
  <path id="path1888" d="m93.867 2664.8h222.75"/>
  <path id="path1890" d="m93.967 2665.1h222.38"/>
  <path id="path1892" d="m94.067 2665.3h222.02"/>
  <path id="path1894" d="m94.167 2665.6h221.65"/>
  <path id="path1896" d="m94.266 2665.9h221.29"/>
  <path id="path1898" d="m94.366 2666.1h220.92"/>
  <path id="path1900" d="m94.466 2666.4h220.55"/>
  <path id="path1902" d="m94.566 2666.6h220.19"/>
  <path id="path1904" d="m94.665 2666.9h219.82"/>
  <path id="path1906" d="m94.765 2667.1h219.46"/>
  <path id="path1908" d="m94.865 2667.4h219.09"/>
  <path id="path1910" d="m94.964 2667.7h218.72"/>
  <path id="path1912" d="m95.064 2667.9h218.36"/>
  <path id="path1914" d="m95.164 2668.2h217.99"/>
  <path id="path1916" d="m95.264 2668.4h217.63"/>
  <path id="path1918" d="m95.364 2668.7h217.26"/>
  <path id="path1920" d="m95.463 2668.9h216.9"/>
  <path id="path1922" d="m95.563 2669.2h216.53"/>
  <path id="path1924" d="m95.663 2669.5h216.16"/>
  <path id="path1926" d="m95.763 2669.7h215.8"/>
  <path id="path1928" d="m95.862 2670h215.43"/>
  <path id="path1930" d="m95.962 2670.2h215.07"/>
  <path id="path1932" d="m96.062 2670.5h214.7"/>
  <path id="path1934" d="m96.162 2670.8h214.34"/>
  <path id="path1936" d="m96.261 2671h213.97"/>
  <path id="path1938" d="m96.361 2671.3h213.6"/>
  <path id="path1940" d="m96.461 2671.5h213.24"/>
  <path id="path1942" d="m96.561 2671.8h212.87"/>
  <path id="path1944" d="m96.66 2672h212.51"/>
  <path id="path1946" d="m96.76 2672.3h212.14"/>
  <path id="path1948" d="m96.86 2672.6h211.78"/>
  <path id="path1950" d="m96.96 2672.8h211.41"/>
  <path id="path1952" d="m97.059 2673.1h211.04"/>
  <path id="path1954" d="m97.159 2673.3h210.68"/>
  <path id="path1956" d="m97.259 2673.6h210.31"/>
  <path id="path1958" d="m97.359 2673.8h209.95"/>
  <path id="path1960" d="m97.458 2674.1h209.58"/>
  <path id="path1962" d="m97.558 2674.4h209.22"/>
  <path id="path1964" d="m97.658 2674.6h208.85"/>
  <path id="path1966" d="m97.758 2674.9h208.48"/>
  <path id="path1968" d="m97.858 2675.1h208.12"/>
  <path id="path1970" d="m97.957 2675.4h207.75"/>
  <path id="path1972" d="m98.057 2675.6h207.39"/>
  <path id="path1974" d="m98.157 2675.9h207.02"/>
  <path id="path1976" d="m98.256 2676.2h206.66"/>
  <path id="path1978" d="m98.356 2676.4h206.29"/>
  <path id="path1980" d="m98.456 2676.7h205.92"/>
  <path id="path1982" d="m98.556 2676.9h205.56"/>
  <path id="path1984" d="m98.655 2677.2h205.19"/>
  <path id="path1986" d="m98.755 2677.5h204.83"/>
  <path id="path1988" d="m98.855 2677.7h204.46"/>
  <path id="path1990" d="m98.955 2678h204.09"/>
  <path id="path1992" d="m99.054 2678.2h203.73"/>
  <path id="path1994" d="m99.154 2678.5h203.36"/>
  <path id="path1996" d="m99.254 2678.7h203"/>
  <path id="path1998" d="m99.354 2679h202.63"/>
  <path id="path2000" d="m99.453 2679.3h202.27"/>
  <path id="path2002" d="m99.553 2679.5h201.9"/>
  <path id="path2004" d="m99.653 2679.8h201.53"/>
  <path id="path2006" d="m99.753 2680h201.17"/>
  <path id="path2008" d="m99.853 2680.3h200.8"/>
  <path id="path2010" d="m99.952 2680.5h200.44"/>
  <path id="path2012" d="m100.05 2680.8h200.07"/>
  <path id="path2014" d="m100.15 2681.1h199.7"/>
  <path id="path2016" d="m100.25 2681.3h199.34"/>
  <path id="path2018" d="m100.35 2681.6h198.97"/>
  <path id="path2020" d="m100.45 2681.8h198.61"/>
  <path id="path2022" d="m100.55 2682.1h198.24"/>
  <path id="path2024" d="m100.65 2682.3h197.88"/>
  <path id="path2026" d="m100.75 2682.6h197.51"/>
  <path id="path2028" d="m100.85 2682.9h197.14"/>
  <path id="path2030" d="m100.95 2683.1h196.78"/>
  <path id="path2032" d="m101.05 2683.4h196.41"/>
  <path id="path2034" d="m101.15 2683.6h196.05"/>
  <path id="path2036" d="m101.25 2683.9h195.68"/>
  <path id="path2038" d="m101.35 2684.2h195.32"/>
  <path id="path2040" d="m101.45 2684.4h194.95"/>
  <path id="path2042" d="m101.55 2684.7h194.58"/>
  <path id="path2044" d="m101.65 2684.9h194.22"/>
  <path id="path2046" d="m101.75 2685.2h193.85"/>
  <path id="path2048" d="m101.85 2685.4h193.49"/>
  <path id="path2050" d="m101.95 2685.7h193.12"/>
  <path id="path2052" d="m102.05 2686h192.76"/>
  <path id="path2054" d="m102.15 2686.2h192.39"/>
  <path id="path2056" d="m102.25 2686.5h192.02"/>
  <path id="path2058" d="m102.35 2686.7h191.66"/>
  <path id="path2060" d="m102.45 2687h191.29"/>
  <path id="path2062" d="m102.55 2687.2h190.93"/>
  <path id="path2064" d="m102.65 2687.5h190.56"/>
  <path id="path2066" d="m102.74 2687.8h190.2"/>
  <path id="path2068" d="m102.84 2688h189.83"/>
  <path id="path2070" d="m102.94 2688.3h189.46"/>
  <path id="path2072" d="m103.04 2688.5h189.1"/>
  <path id="path2074" d="m103.14 2688.8h188.73"/>
  <path id="path2076" d="m103.24 2689h188.37"/>
  <path id="path2078" d="m103.34 2689.3h188"/>
  <path id="path2080" d="m103.44 2689.6h187.64"/>
  <path id="path2082" d="m103.54 2689.8h187.27"/>
  <path id="path2084" d="m103.64 2690.1h186.9"/>
  <path id="path2086" d="m103.74 2690.3h186.54"/>
  <path id="path2088" d="m103.84 2690.6h186.17"/>
  <path id="path2090" d="m103.94 2690.9h185.81"/>
  <path id="path2092" d="m104.04 2691.1h185.44"/>
  <path id="path2094" d="m104.14 2691.4h185.08"/>
  <path id="path2096" d="m104.24 2691.6h184.71"/>
  <path id="path2098" d="m104.34 2691.9h184.34"/>
  <path id="path2100" d="m104.44 2692.1h183.98"/>
  <path id="path2102" d="m104.54 2692.4h183.61"/>
  <path id="path2104" d="m104.64 2692.7h183.25"/>
  <path id="path2106" d="m104.74 2692.9h182.88"/>
  <path id="path2108" d="m104.84 2693.2h182.52"/>
  <path id="path2110" d="m104.94 2693.4h182.15"/>
  <path id="path2112" d="m105.04 2693.7h181.78"/>
  <path id="path2114" d="m105.14 2693.9h181.42"/>
  <path id="path2116" d="m105.24 2694.2h181.05"/>
  <path id="path2118" d="m105.34 2694.5h180.69"/>
  <path id="path2120" d="m105.44 2694.7h180.32"/>
  <path id="path2122" d="m105.54 2695h179.96"/>
  <path id="path2124" d="m105.64 2695.2h179.59"/>
  <path id="path2126" d="m105.74 2695.5h179.22"/>
  <path id="path2128" d="m105.84 2695.7h178.86"/>
  <path id="path2130" d="m105.94 2696h178.49"/>
  <path id="path2132" d="m106.04 2696.3h178.13"/>
  <path id="path2134" d="m106.14 2696.5h177.76"/>
  <path id="path2136" d="m106.24 2696.8h177.39"/>
  <path id="path2138" d="m106.34 2697h177.03"/>
  <path id="path2140" d="m106.44 2697.3h176.66"/>
  <path id="path2142" d="m106.54 2697.6h176.3"/>
  <path id="path2144" d="m106.64 2697.8h175.93"/>
  <path id="path2146" d="m106.74 2698.1h175.56"/>
  <path id="path2148" d="m106.84 2698.3h175.2"/>
  <path id="path2150" d="m106.94 2698.6h174.83"/>
  <path id="path2152" d="m107.04 2698.8h174.47"/>
  <path id="path2154" d="m107.13 2699.1h174.1"/>
  <path id="path2156" d="m107.23 2699.4h173.74"/>
  <path id="path2158" d="m107.33 2699.6h173.37"/>
  <path id="path2160" d="m107.43 2699.9h173"/>
  <path id="path2162" d="m107.53 2700.1h172.64"/>
  <path id="path2164" d="m107.63 2700.4h172.27"/>
  <path id="path2166" d="m107.73 2700.6h171.91"/>
  <path id="path2168" d="m107.83 2700.9h171.54"/>
  <path id="path2170" d="m107.93 2701.2h171.18"/>
  <path id="path2172" d="m108.03 2701.4h170.81"/>
  <path id="path2174" d="m108.13 2701.7h170.44"/>
  <path id="path2176" d="m108.23 2701.9h170.08"/>
  <path id="path2178" d="m108.33 2702.2h169.71"/>
  <path id="path2180" d="m108.43 2702.4h169.35"/>
  <path id="path2182" d="m108.53 2702.7h168.98"/>
  <path id="path2184" d="m108.63 2703h168.62"/>
  <path id="path2186" d="m108.73 2703.2h168.25"/>
  <path id="path2188" d="m108.83 2703.5h167.88"/>
  <path id="path2190" d="m108.93 2703.7h167.52"/>
  <path id="path2192" d="m109.03 2704h167.15"/>
  <path id="path2194" d="m109.13 2704.3h166.79"/>
  <path id="path2196" d="m109.23 2704.5h166.42"/>
  <path id="path2198" d="m109.33 2704.8h166.06"/>
  <path id="path2200" d="m109.43 2705h165.69"/>
  <path id="path2202" d="m109.53 2705.3h165.32"/>
  <path id="path2204" d="m109.63 2705.5h164.96"/>
  <path id="path2206" d="m109.73 2705.8h164.59"/>
  <path id="path2208" d="m109.83 2706.1h164.23"/>
  <path id="path2210" d="m109.93 2706.3h163.86"/>
  <path id="path2212" d="m110.03 2706.6h163.5"/>
  <path id="path2214" d="m110.13 2706.8h163.13"/>
  <path id="path2216" d="m110.23 2707.1h162.76"/>
  <path id="path2218" d="m110.33 2707.3h162.4"/>
  <path id="path2220" d="m110.43 2707.6h162.03"/>
  <path id="path2222" d="m110.53 2707.9h161.67"/>
  <path id="path2224" d="m110.63 2708.1h161.3"/>
  <path id="path2226" d="m110.73 2708.4h160.93"/>
  <path id="path2228" d="m110.82 2708.6h160.57"/>
  <path id="path2230" d="m110.92 2708.9h160.2"/>
  <path id="path2232" d="m111.02 2709.1h159.84"/>
  <path id="path2234" d="m111.12 2709.4h159.47"/>
  <path id="path2236" d="m111.22 2709.7h159.11"/>
  <path id="path2238" d="m111.32 2709.9h158.74"/>
  <path id="path2240" d="m111.42 2710.2h158.37"/>
  <path id="path2242" d="m111.52 2710.4h158.01"/>
  <path id="path2244" d="m111.62 2710.7h157.64"/>
  <path id="path2246" d="m111.72 2711h157.28"/>
  <path id="path2248" d="m111.82 2711.2h156.91"/>
  <path id="path2250" d="m111.92 2711.5h156.54"/>
  <path id="path2252" d="m112.02 2711.7h156.18"/>
  <path id="path2254" d="m112.12 2712h155.81"/>
  <path id="path2256" d="m112.22 2712.2h155.45"/>
  <path id="path2258" d="m112.32 2712.5h155.08"/>
  <path id="path2260" d="m112.42 2712.8h154.72"/>
  <path id="path2262" d="m112.52 2713h154.35"/>
  <path id="path2264" d="m112.62 2713.3h153.98"/>
  <path id="path2266" d="m112.72 2713.5h153.62"/>
  <path id="path2268" d="m112.82 2713.8h153.25"/>
  <path id="path2270" d="m112.92 2714h152.89"/>
  <path id="path2272" d="m113.02 2714.3h152.52"/>
  <path id="path2274" d="m113.12 2714.6h152.16"/>
  <path id="path2276" d="m113.22 2714.8h151.79"/>
  <path id="path2278" d="m113.32 2715.1h151.42"/>
  <path id="path2280" d="m113.42 2715.3h151.06"/>
  <path id="path2282" d="m113.52 2715.6h150.69"/>
  <path id="path2284" d="m113.62 2715.8h150.33"/>
  <path id="path2286" d="m113.72 2716.1h149.96"/>
  <path id="path2288" d="m113.82 2716.4h149.6"/>
  <path id="path2290" d="m113.92 2716.6h149.23"/>
  <path id="path2292" d="m114.02 2716.9h148.86"/>
  <path id="path2294" d="m114.12 2717.1h148.5"/>
  <path id="path2296" d="m114.22 2717.4h148.13"/>
  <path id="path2298" d="m114.32 2717.7h147.77"/>
  <path id="path2300" d="m114.42 2717.9h147.4"/>
  <path id="path2302" d="m114.52 2718.2h147.04"/>
  <path id="path2304" d="m114.62 2718.4h146.67"/>
  <path id="path2306" d="m114.72 2718.7h146.3"/>
  <path id="path2308" d="m114.82 2718.9h145.94"/>
  <path id="path2310" d="m114.92 2719.2h145.57"/>
  <path id="path2312" d="m115.02 2719.5h145.21"/>
  <path id="path2314" d="m115.12 2719.7h144.84"/>
  <path id="path2316" d="m115.22 2720h144.48"/>
  <path id="path2318" d="m115.31 2720.2h144.11"/>
  <path id="path2320" d="m115.41 2720.5h143.74"/>
  <path id="path2322" d="m115.51 2720.7h143.38"/>
  <path id="path2324" d="m115.61 2721h143.01"/>
  <path id="path2326" d="m115.71 2721.3h142.65"/>
  <path id="path2328" d="m115.81 2721.5h142.28"/>
  <path id="path2330" d="m115.91 2721.8h141.92"/>
  <path id="path2332" d="m116.01 2722h141.55"/>
  <path id="path2334" d="m116.11 2722.3h141.18"/>
  <path id="path2336" d="m116.21 2722.5h140.82"/>
  <path id="path2338" d="m116.31 2722.8h140.45"/>
  <path id="path2340" d="m116.41 2723.1h140.09"/>
  <path id="path2342" d="m116.51 2723.3h139.72"/>
  <path id="path2344" d="m116.61 2723.6h139.36"/>
  <path id="path2346" d="m116.71 2723.8h138.99"/>
  <path id="path2348" d="m116.81 2724.1h138.62"/>
  <path id="path2350" d="m116.91 2724.4h138.26"/>
  <path id="path2352" d="m117.01 2724.6h137.89"/>
  <path id="path2354" d="m117.11 2724.9h137.53"/>
  <path id="path2356" d="m117.21 2725.1h137.16"/>
  <path id="path2358" d="m117.31 2725.4h136.8"/>
  <path id="path2360" d="m117.41 2725.6h136.43"/>
  <path id="path2362" d="m117.51 2725.9h136.06"/>
  <path id="path2364" d="m117.61 2726.2h135.7"/>
  <path id="path2366" d="m117.71 2726.4h135.33"/>
  <path id="path2368" d="m117.81 2726.7h134.97"/>
  <path id="path2370" d="m117.91 2726.9h134.6"/>
  <path id="path2372" d="m118.01 2727.2h134.23"/>
  <path id="path2374" d="m118.11 2727.4h133.87"/>
  <path id="path2376" d="m118.21 2727.7h133.5"/>
  <path id="path2378" d="m118.31 2728h133.14"/>
  <path id="path2380" d="m118.41 2728.2h132.77"/>
  <path id="path2382" d="m118.51 2728.5h132.41"/>
  <path id="path2384" d="m118.61 2728.7h132.04"/>
  <path id="path2386" d="m118.71 2729h131.67"/>
  <path id="path2388" d="m118.81 2729.2h131.31"/>
  <path id="path2390" d="m118.9 2729.5h130.94"/>
  <path id="path2392" d="m119 2729.8h130.58"/>
  <path id="path2394" d="m119.1 2730h130.21"/>
  <path id="path2396" d="m119.2 2730.3h129.84"/>
  <path id="path2398" d="m119.3 2730.5h129.48"/>
  <path id="path2400" d="m119.4 2730.8h129.11"/>
  <path id="path2402" d="m119.5 2731.1h128.75"/>
  <path id="path2404" d="m119.6 2731.3h128.38"/>
  <path id="path2406" d="m119.7 2731.6h128.02"/>
  <path id="path2408" d="m119.8 2731.8h127.65"/>
  <path id="path2410" d="m119.9 2732.1h127.28"/>
  <path id="path2412" d="m120 2732.3h126.92"/>
  <path id="path2414" d="m120.1 2732.6h126.55"/>
  <path id="path2416" d="m120.2 2732.9h126.19"/>
  <path id="path2418" d="m120.3 2733.1h125.82"/>
  <path id="path2420" d="m120.4 2733.4h125.46"/>
  <path id="path2422" d="m120.5 2733.6h125.09"/>
  <path id="path2424" d="m120.6 2733.9h124.72"/>
  <path id="path2426" d="m120.7 2734.1h124.36"/>
  <path id="path2428" d="m120.8 2734.4h123.99"/>
  <path id="path2430" d="m120.9 2734.7h123.63"/>
  <path id="path2432" d="m121 2734.9h123.26"/>
  <path id="path2434" d="m121.1 2735.2h122.9"/>
  <path id="path2436" d="m121.2 2735.4h122.53"/>
  <path id="path2438" d="m121.3 2735.7h122.16"/>
  <path id="path2440" d="m121.4 2735.9h121.8"/>
  <path id="path2442" d="m121.5 2736.2h121.43"/>
  <path id="path2444" d="m121.6 2736.5h121.07"/>
  <path id="path2446" d="m121.7 2736.7h120.7"/>
  <path id="path2448" d="m121.8 2737h120.34"/>
  <path id="path2450" d="m121.9 2737.2h119.97"/>
  <path id="path2452" d="m122 2737.5h119.6"/>
  <path id="path2454" d="m122.1 2737.8h119.24"/>
  <path id="path2456" d="m122.2 2738h118.87"/>
  <path id="path2458" d="m122.3 2738.3h118.51"/>
  <path id="path2460" d="m122.4 2738.5h118.14"/>
  <path id="path2462" d="m122.5 2738.8h117.78"/>
  <path id="path2464" d="m122.6 2739h117.41"/>
  <path id="path2466" d="m122.7 2739.3h117.04"/>
  <path id="path2468" d="m122.8 2739.6h116.68"/>
  <path id="path2470" d="m122.9 2739.8h116.31"/>
  <path id="path2472" d="m123 2740.1h115.95"/>
  <path id="path2474" d="m123.1 2740.3h115.58"/>
  <path id="path2476" d="m123.2 2740.6h115.21"/>
  <path id="path2478" d="m123.3 2740.8h114.85"/>
  <path id="path2480" d="m123.39 2741.1h114.48"/>
  <path id="path2482" d="m123.49 2741.4h114.12"/>
  <path id="path2484" d="m123.59 2741.6h113.75"/>
  <path id="path2486" d="m123.69 2741.9h113.39"/>
  <path id="path2488" d="m123.79 2742.1h113.02"/>
  <path id="path2490" d="m123.89 2742.4h112.65"/>
  <path id="path2492" d="m123.99 2742.6h112.29"/>
  <path id="path2494" d="m124.09 2742.9h111.92"/>
  <path id="path2496" d="m124.19 2743.2h111.56"/>
  <path id="path2498" d="m124.29 2743.4h111.19"/>
  <path id="path2500" d="m124.39 2743.7h110.82"/>
  <path id="path2502" d="m124.49 2743.9h110.46"/>
  <path id="path2504" d="m124.59 2744.2h110.09"/>
  <path id="path2506" d="m124.69 2744.5h109.73"/>
  <path id="path2508" d="m124.79 2744.7h109.36"/>
  <path id="path2510" d="m124.89 2745h109"/>
  <path id="path2512" d="m124.99 2745.2h108.63"/>
  <path id="path2514" d="m125.09 2745.5h108.26"/>
  <path id="path2516" d="m125.19 2745.7h107.9"/>
  <path id="path2518" d="m125.29 2746h107.53"/>
  <path id="path2520" d="m125.39 2746.3h107.17"/>
  <path id="path2522" d="m125.49 2746.5h106.8"/>
  <path id="path2524" d="m125.59 2746.8h106.44"/>
  <path id="path2526" d="m125.69 2747h106.07"/>
  <path id="path2528" d="m125.79 2747.3h105.7"/>
  <path id="path2530" d="m125.89 2747.5h105.34"/>
  <path id="path2532" d="m125.99 2747.8h104.97"/>
  <path id="path2534" d="m126.09 2748.1h104.61"/>
  <path id="path2536" d="m126.19 2748.3h104.24"/>
  <path id="path2538" d="m126.29 2748.6h103.88"/>
  <path id="path2540" d="m126.39 2748.8h103.51"/>
  <path id="path2542" d="m126.49 2749.1h103.14"/>
  <path id="path2544" d="m126.59 2749.3h102.78"/>
  <path id="path2546" d="m126.69 2749.6h102.41"/>
  <path id="path2548" d="m126.79 2749.9h102.05"/>
  <path id="path2550" d="m126.89 2750.1h101.68"/>
  <path id="path2552" d="m126.98 2750.4h101.32"/>
  <path id="path2554" d="m127.08 2750.6h100.95"/>
  <path id="path2556" d="m127.18 2750.9h100.58"/>
  <path id="path2558" d="m127.28 2751.2h100.22"/>
  <path id="path2560" d="m127.38 2751.4h99.853"/>
  <path id="path2562" d="m127.48 2751.7h99.487"/>
  <path id="path2564" d="m127.58 2751.9h99.121"/>
  <path id="path2566" d="m127.68 2752.2h98.756"/>
  <path id="path2568" d="m127.78 2752.4h98.39"/>
  <path id="path2570" d="m127.88 2752.7h98.024"/>
  <path id="path2572" d="m127.98 2753h97.658"/>
  <path id="path2574" d="m128.08 2753.2h97.292"/>
  <path id="path2576" d="m128.18 2753.5h96.927"/>
  <path id="path2578" d="m128.28 2753.7h96.561"/>
  <path id="path2580" d="m128.38 2754h96.195"/>
  <path id="path2582" d="m128.48 2754.2h95.83"/>
  <path id="path2584" d="m128.58 2754.5h95.464"/>
  <path id="path2586" d="m128.68 2754.8h95.098"/>
  <path id="path2588" d="m128.78 2755h94.732"/>
  <path id="path2590" d="m128.88 2755.3h94.366"/>
  <path id="path2592" d="m128.98 2755.5h94.001"/>
  <path id="path2594" d="m129.08 2755.8h93.635"/>
  <path id="path2596" d="m129.18 2756h93.269"/>
  <path id="path2598" d="m129.28 2756.3h92.903"/>
  <path id="path2600" d="m129.38 2756.6h92.538"/>
  <path id="path2602" d="m129.48 2756.8h92.172"/>
  <path id="path2604" d="m129.58 2757.1h91.806"/>
  <path id="path2606" d="m129.68 2757.3h91.44"/>
  <path id="path2608" d="m129.78 2757.6h91.075"/>
  <path id="path2610" d="m129.88 2757.9h90.709"/>
  <path id="path2612" d="m129.98 2758.1h90.343"/>
  <path id="path2614" d="m130.08 2758.4h89.977"/>
  <path id="path2616" d="m130.18 2758.6h89.612"/>
  <path id="path2618" d="m130.28 2758.9h89.246"/>
  <path id="path2620" d="m130.38 2759.1h88.88"/>
  <path id="path2622" d="m130.48 2759.4h88.515"/>
  <path id="path2624" d="m130.58 2759.7h88.148"/>
  <path id="path2626" d="m130.68 2759.9h87.783"/>
  <path id="path2628" d="m130.78 2760.2h87.417"/>
  <path id="path2630" d="m130.88 2760.4h87.051"/>
  <path id="path2632" d="m130.98 2760.7h86.686"/>
  <path id="path2634" d="m131.08 2760.9h86.32"/>
  <path id="path2636" d="m131.18 2761.2h85.954"/>
  <path id="path2638" d="m131.28 2761.5h85.588"/>
  <path id="path2640" d="m131.37 2761.7h85.223"/>
  <path id="path2642" d="m131.47 2762h84.857"/>
  <path id="path2644" d="m131.57 2762.2h84.491"/>
  <path id="path2646" d="m131.67 2762.5h84.125"/>
  <path id="path2648" d="m131.77 2762.7h83.76"/>
  <path id="path2650" d="m131.87 2763h83.394"/>
  <path id="path2652" d="m131.97 2763.3h83.028"/>
  <path id="path2654" d="m132.07 2763.5h82.661"/>
  <path id="path2656" d="m132.17 2763.8h82.297"/>
  <path id="path2658" d="m132.27 2764h81.931"/>
  <path id="path2660" d="m132.37 2764.3h81.565"/>
  <path id="path2662" d="m132.47 2764.6h81.199"/>
  <path id="path2664" d="m132.57 2764.8h80.832"/>
  <path id="path2666" d="m132.67 2765.1h80.468"/>
  <path id="path2668" d="m132.77 2765.3h80.102"/>
  <path id="path2670" d="m132.87 2765.6h79.735"/>
  <path id="path2672" d="m132.97 2765.8h79.371"/>
  <path id="path2674" d="m133.07 2766.1h79.004"/>
  <path id="path2676" d="m133.17 2766.4h78.639"/>
  <path id="path2678" d="m133.27 2766.6h78.273"/>
  <path id="path2680" d="m133.37 2766.9h77.906"/>
  <path id="path2682" d="m133.47 2767.1h77.542"/>
  <path id="path2684" d="m133.57 2767.4h77.175"/>
  <path id="path2686" d="m133.67 2767.6h76.809"/>
  <path id="path2688" d="m133.77 2767.9h76.445"/>
  <path id="path2690" d="m133.87 2768.2h76.078"/>
  <path id="path2692" d="m133.97 2768.4h75.713"/>
  <path id="path2694" d="m134.07 2768.7h75.346"/>
  <path id="path2696" d="m134.17 2768.9h74.98"/>
  <path id="path2698" d="m134.27 2769.2h74.616"/>
  <path id="path2700" d="m134.37 2769.4h74.249"/>
  <path id="path2702" d="m134.47 2769.7h73.883"/>
  <path id="path2704" d="m134.57 2770h73.517"/>
  <path id="path2706" d="m134.67 2770.2h73.152"/>
  <path id="path2708" d="m134.77 2770.5h72.787"/>
  <path id="path2710" d="m134.87 2770.7h72.42"/>
  <path id="path2712" d="m134.96 2771h72.055"/>
  <path id="path2714" d="m135.06 2771.3h71.689"/>
  <path id="path2716" d="m135.16 2771.5h71.323"/>
  <path id="path2718" d="m135.26 2771.8h70.957"/>
  <path id="path2720" d="m135.36 2772h70.591"/>
  <path id="path2722" d="m135.46 2772.3h70.226"/>
  <path id="path2724" d="m135.56 2772.5h69.86"/>
  <path id="path2726" d="m135.66 2772.8h69.494"/>
  <path id="path2728" d="m135.76 2773.1h69.129"/>
  <path id="path2730" d="m135.86 2773.3h68.763"/>
  <path id="path2732" d="m135.96 2773.6h68.397"/>
  <path id="path2734" d="m136.06 2773.8h68.031"/>
  <path id="path2736" d="m136.16 2774.1h67.665"/>
  <path id="path2738" d="m136.26 2774.3h67.3"/>
  <path id="path2740" d="m136.36 2774.6h66.934"/>
  <path id="path2742" d="m136.46 2774.9h66.568"/>
  <path id="path2744" d="m136.56 2775.1h66.202"/>
  <path id="path2746" d="m136.66 2775.4h65.837"/>
  <path id="path2748" d="m136.76 2775.6h65.471"/>
  <path id="path2750" d="m136.86 2775.9h65.105"/>
  <path id="path2752" d="m136.96 2776.1h64.739"/>
  <path id="path2754" d="m137.06 2776.4h64.374"/>
  <path id="path2756" d="m137.16 2776.7h64.008"/>
  <path id="path2758" d="m137.26 2776.9h63.642"/>
  <path id="path2760" d="m137.36 2777.2h63.276"/>
  <path id="path2762" d="m137.46 2777.4h62.911"/>
  <path id="path2764" d="m137.56 2777.7h62.545"/>
  <path id="path2766" d="m137.66 2778h62.179"/>
  <path id="path2768" d="m137.76 2778.2h61.814"/>
  <path id="path2770" d="m137.86 2778.5h61.448"/>
  <path id="path2772" d="m137.96 2778.7h61.082"/>
  <path id="path2774" d="m138.06 2779h60.716"/>
  <path id="path2776" d="m138.16 2779.2h60.35"/>
  <path id="path2778" d="m138.26 2779.5h59.985"/>
  <path id="path2780" d="m138.36 2779.8h59.619"/>
  <path id="path2782" d="m138.46 2780h59.253"/>
  <path id="path2784" d="m138.56 2780.3h58.887"/>
  <path id="path2786" d="m138.66 2780.5h58.522"/>
  <path id="path2788" d="m138.76 2780.8h58.156"/>
  <path id="path2790" d="m138.86 2781h57.79"/>
  <path id="path2792" d="m138.96 2781.3h57.424"/>
  <path id="path2794" d="m139.06 2781.6h57.059"/>
  <path id="path2796" d="m139.16 2781.8h56.693"/>
  <path id="path2798" d="m139.26 2782.1h56.327"/>
  <path id="path2800" d="m139.36 2782.3h55.961"/>
  <path id="path2802" d="m139.45 2782.6h55.596"/>
  <path id="path2804" d="m139.55 2782.8h55.23"/>
  <path id="path2806" d="m139.65 2783.1h54.864"/>
  <path id="path2808" d="m139.75 2783.4h54.498"/>
  <path id="path2810" d="m139.85 2783.6h54.133"/>
  <path id="path2812" d="m139.95 2783.9h53.767"/>
  <path id="path2814" d="m140.05 2784.1h53.401"/>
  <path id="path2816" d="m140.15 2784.4h53.035"/>
  <path id="path2818" d="m140.25 2784.7h52.67"/>
  <path id="path2820" d="m140.35 2784.9h52.304"/>
  <path id="path2822" d="m140.45 2785.2h51.938"/>
  <path id="path2824" d="m140.55 2785.4h51.572"/>
  <path id="path2826" d="m140.65 2785.7h51.206"/>
  <path id="path2828" d="m140.75 2785.9h50.841"/>
  <path id="path2830" d="m140.85 2786.2h50.475"/>
  <path id="path2832" d="m140.95 2786.5h50.109"/>
  <path id="path2834" d="m141.05 2786.7h49.744"/>
  <path id="path2836" d="m141.15 2787h49.378"/>
  <path id="path2838" d="m141.25 2787.2h49.012"/>
  <path id="path2840" d="m141.35 2787.5h48.646"/>
  <path id="path2842" d="m141.45 2787.7h48.28"/>
  <path id="path2844" d="m141.55 2788h47.915"/>
  <path id="path2846" d="m141.65 2788.3h47.549"/>
  <path id="path2848" d="m141.75 2788.5h47.183"/>
  <path id="path2850" d="m141.85 2788.8h46.818"/>
  <path id="path2852" d="m141.95 2789h46.452"/>
  <path id="path2854" d="m142.05 2789.3h46.086"/>
  <path id="path2856" d="m142.15 2789.5h45.72"/>
  <path id="path2858" d="m142.25 2789.8h45.355"/>
  <path id="path2860" d="m142.35 2790.1h44.989"/>
  <path id="path2862" d="m142.45 2790.3h44.623"/>
  <path id="path2864" d="m142.55 2790.6h44.257"/>
  <path id="path2866" d="m142.65 2790.8h43.891"/>
  <path id="path2868" d="m142.75 2791.1h43.526"/>
  <path id="path2870" d="m142.85 2791.4h43.16"/>
  <path id="path2872" d="m142.95 2791.6h42.794"/>
  <path id="path2874" d="m143.04 2791.9h42.429"/>
  <path id="path2876" d="m143.14 2792.1h42.063"/>
  <path id="path2878" d="m143.24 2792.4h41.697"/>
  <path id="path2880" d="m143.34 2792.6h41.331"/>
  <path id="path2882" d="m143.44 2792.9h40.965"/>
  <path id="path2884" d="m143.54 2793.2h40.6"/>
  <path id="path2886" d="m143.64 2793.4h40.234"/>
  <path id="path2888" d="m143.74 2793.7h39.868"/>
  <path id="path2890" d="m143.84 2793.9h39.503"/>
  <path id="path2892" d="m143.94 2794.2h39.137"/>
  <path id="path2894" d="m144.04 2794.4h38.771"/>
  <path id="path2896" d="m144.14 2794.7h38.405"/>
  <path id="path2898" d="m144.24 2795h38.039"/>
  <path id="path2900" d="m144.34 2795.2h37.673"/>
  <path id="path2902" d="m144.44 2795.5h37.308"/>
  <path id="path2904" d="m144.54 2795.7h36.942"/>
  <path id="path2906" d="m144.64 2796h36.576"/>
  <path id="path2908" d="m144.74 2796.2h36.211"/>
  <path id="path2910" d="m144.84 2796.5h35.845"/>
  <path id="path2912" d="m144.94 2796.8h35.479"/>
  <path id="path2914" d="m145.04 2797h35.114"/>
  <path id="path2916" d="m145.14 2797.3h34.747"/>
  <path id="path2918" d="m145.24 2797.5h34.382"/>
  <path id="path2920" d="m145.34 2797.8h34.016"/>
  <path id="path2922" d="m145.44 2798.1h33.65"/>
  <path id="path2924" d="m145.54 2798.3h33.285"/>
  <path id="path2926" d="m145.64 2798.6h32.918"/>
  <path id="path2928" d="m145.74 2798.8h32.553"/>
  <path id="path2930" d="m145.84 2799.1h32.188"/>
  <path id="path2932" d="m145.94 2799.3h31.821"/>
  <path id="path2934" d="m146.04 2799.6h31.456"/>
  <path id="path2936" d="m146.14 2799.9h31.089"/>
  <path id="path2938" d="m146.24 2800.1h30.724"/>
  <path id="path2940" d="m146.34 2800.4h30.359"/>
  <path id="path2942" d="m146.44 2800.6h29.992"/>
  <path id="path2944" d="m146.54 2800.9h29.627"/>
  <path id="path2946" d="m146.64 2801.1h29.26"/>
  <path id="path2948" d="m146.74 2801.4h28.895"/>
  <path id="path2950" d="m146.84 2801.7h28.53"/>
  <path id="path2952" d="m146.94 2801.9h28.163"/>
  <path id="path2954" d="m147.04 2802.2h27.798"/>
  <path id="path2956" d="m147.14 2802.4h27.432"/>
  <path id="path2958" d="m147.24 2802.7h27.066"/>
  <path id="path2960" d="m147.34 2803h26.701"/>
  <path id="path2962" d="m147.44 2803.2h26.334"/>
  <path id="path2964" d="m147.53 2803.5h25.969"/>
  <path id="path2966" d="m147.63 2803.7h25.603"/>
  <path id="path2968" d="m147.73 2804h25.237"/>
  <path id="path2970" d="m147.83 2804.2h24.872"/>
  <path id="path2972" d="m147.93 2804.5h24.506"/>
  <path id="path2974" d="m148.03 2804.8h24.14"/>
  <path id="path2976" d="m148.13 2805h23.774"/>
  <path id="path2978" d="m148.23 2805.3h23.408"/>
  <path id="path2980" d="m148.33 2805.5h23.043"/>
  <path id="path2982" d="m148.43 2805.8h22.677"/>
  <path id="path2984" d="m148.53 2806h22.311"/>
  <path id="path2986" d="m148.63 2806.3h21.945"/>
  <path id="path2988" d="m148.73 2806.6h21.579"/>
  <path id="path2990" d="m148.83 2806.8h21.214"/>
  <path id="path2992" d="m148.93 2807.1h20.848"/>
  <path id="path2994" d="m149.03 2807.3h20.482"/>
  <path id="path2996" d="m149.13 2807.6h20.117"/>
  <path id="path2998" d="m149.23 2807.8h19.751"/>
  <path id="path3000" d="m149.33 2808.1h19.385"/>
  <path id="path3002" d="m149.43 2808.4h19.019"/>
  <path id="path3004" d="m149.53 2808.6h18.654"/>
  <path id="path3006" d="m149.63 2808.9h18.288"/>
  <path id="path3008" d="m149.73 2809.1h17.922"/>
  <path id="path3010" d="m149.83 2809.4h17.556"/>
  <path id="path3012" d="m149.93 2809.6h17.191"/>
  <path id="path3014" d="m150.03 2809.9h16.825"/>
  <path id="path3016" d="m150.13 2810.2h16.459"/>
  <path id="path3018" d="m150.23 2810.4h16.093"/>
  <path id="path3020" d="m150.33 2810.7h15.728"/>
  <path id="path3022" d="m150.43 2810.9h15.362"/>
  <path id="path3024" d="m150.53 2811.2h14.996"/>
  <path id="path3026" d="m150.63 2811.5h14.63"/>
  <path id="path3028" d="m150.73 2811.7h14.264"/>
  <path id="path3030" d="m150.83 2812h13.899"/>
  <path id="path3032" d="m150.93 2812.2h13.533"/>
  <path id="path3034" d="m151.03 2812.5h13.167"/>
  <path id="path3036" d="m151.12 2812.7h12.802"/>
  <path id="path3038" d="m151.22 2813h12.436"/>
  <path id="path3040" d="m151.32 2813.3h12.07"/>
  <path id="path3042" d="m151.42 2813.5h11.704"/>
  <path id="path3044" d="m151.52 2813.8h11.338"/>
  <path id="path3046" d="m151.62 2814h10.973"/>
  <path id="path3048" d="m151.72 2814.3h10.607"/>
  <path id="path3050" d="m151.82 2814.5h10.241"/>
  <path id="path3052" d="m151.92 2814.8h9.876"/>
  <path id="path3054" d="m152.02 2815.1h9.51"/>
  <path id="path3056" d="m152.12 2815.3h9.144"/>
  <path id="path3058" d="m152.22 2815.6h8.778"/>
  <path id="path3060" d="m152.32 2815.8h8.413"/>
  <path id="path3062" d="m152.42 2816.1h8.047"/>
  <path id="path3064" d="m152.52 2816.4h7.681"/>
  <path id="path3066" d="m152.62 2816.6h7.315"/>
  <path id="path3068" d="m152.72 2816.9h6.949"/>
  <path id="path3070" d="m152.82 2817.1h6.584"/>
  <path id="path3072" d="m152.92 2817.4h6.218"/>
  <path id="path3074" d="m153.02 2817.6h5.852"/>
  <path id="path3076" d="m153.12 2817.9h5.487"/>
  <path id="path3078" d="m153.22 2818.2h5.121"/>
  <path id="path3080" d="m153.32 2818.4h4.755"/>
  <path id="path3082" d="m153.42 2818.7h4.389"/>
  <path id="path3084" d="m153.52 2818.9h4.023"/>
  <path id="path3086" d="m153.62 2819.2h3.658"/>
  <path id="path3088" d="m153.72 2819.4h3.292"/>
  <path id="path3090" d="m153.82 2819.7h2.926"/>
  <path id="path3092" d="m153.92 2820h2.561"/>
  <path id="path3094" d="m154.02 2820.2h2.195"/>
  <path id="path3096" d="m154.12 2820.5h1.829"/>
  <path id="path3098" d="m154.22 2820.7h1.463"/>
  <path id="path3100" d="m154.32 2821h1.097"/>
  <path id="path3102" d="m154.42 2821.2h0.732"/>
  <path id="path3104" d="m154.52 2821.5h0.366"/>
 </g>
</svg>
