<?xml version="1.0" encoding="UTF-8"?>
<svg id="svg3606" width="566.93" height="581.42" version="1.1" viewBox="0 0 566.93 581.42" xmlns="http://www.w3.org/2000/svg">
 <g id="g3604" transform="translate(0 -3000.6)" fill="none" stroke="#000" stroke-width="4mm">
  <path id="path6" d="m276.25 3008.2h14.427"/>
  <path id="path8" d="m269.04 3008.5h28.855"/>
  <path id="path10" d="m261.82 3008.8h43.284"/>
  <path id="path12" d="m257.38 3009.1h52.164"/>
  <path id="path14" d="m254.99 3009.4h56.949"/>
  <path id="path16" d="m252.6 3009.8h61.733"/>
  <path id="path18" d="m250.21 3010.1h66.517"/>
  <path id="path20" d="m247.81 3010.4h71.302"/>
  <path id="path22" d="m245.42 3010.7h76.087"/>
  <path id="path24" d="m243.03 3011h80.871"/>
  <path id="path26" d="m240.64 3011.3h85.656"/>
  <path id="path28" d="m238.24 3011.7h90.441"/>
  <path id="path30" d="m235.85 3012h95.225"/>
  <path id="path32" d="m233.78 3012.3h99.375"/>
  <path id="path34" d="m232.36 3012.6h102.22"/>
  <path id="path36" d="m230.94 3012.9h105.06"/>
  <path id="path38" d="m229.52 3013.2h107.9"/>
  <path id="path40" d="m228.09 3013.5h110.74"/>
  <path id="path42" d="m226.67 3013.9h113.58"/>
  <path id="path44" d="m225.25 3014.2h116.42"/>
  <path id="path46" d="m223.83 3014.5h119.26"/>
  <path id="path48" d="m222.41 3014.8h122.11"/>
  <path id="path50" d="m220.99 3015.1h124.95"/>
  <path id="path52" d="m219.57 3015.4h127.79"/>
  <path id="path54" d="m218.15 3015.7h130.63"/>
  <path id="path56" d="m216.73 3016.1h133.47"/>
  <path id="path58" d="m215.31 3016.4h136.31"/>
  <path id="path60" d="m213.89 3016.7h139.16"/>
  <path id="path62" d="m212.47 3017h142"/>
  <path id="path64" d="m211.04 3017.3h144.84"/>
  <path id="path66" d="m209.76 3017.6h147.4"/>
  <path id="path68" d="m208.77 3018h149.4"/>
  <path id="path70" d="m207.77 3018.3h151.39"/>
  <path id="path72" d="m206.77 3018.6h153.39"/>
  <path id="path74" d="m205.77 3018.9h155.39"/>
  <path id="path76" d="m204.77 3019.2h157.39"/>
  <path id="path78" d="m203.77 3019.5h159.38"/>
  <path id="path80" d="m202.77 3019.8h161.38"/>
  <path id="path82" d="m201.77 3020.2h163.38"/>
  <path id="path84" d="m200.78 3020.5h165.38"/>
  <path id="path86" d="m199.78 3020.8h167.38"/>
  <path id="path88" d="m198.78 3021.1h169.38"/>
  <path id="path90" d="m197.78 3021.4h171.37"/>
  <path id="path92" d="m196.78 3021.7h173.37"/>
  <path id="path94" d="m195.78 3022h175.37"/>
  <path id="path96" d="m194.78 3022.4h177.37"/>
  <path id="path98" d="m193.78 3022.7h179.36"/>
  <path id="path100" d="m192.78 3023h181.36"/>
  <path id="path102" d="m191.78 3023.3h183.36"/>
  <path id="path104" d="m190.79 3023.6h185.36"/>
  <path id="path106" d="m189.79 3023.9h187.36"/>
  <path id="path108" d="m188.79 3024.3h189.35"/>
  <path id="path110" d="m187.79 3024.6h191.35"/>
  <path id="path112" d="m186.79 3024.9h193.35"/>
  <path id="path114" d="m185.96 3025.2h195"/>
  <path id="path116" d="m185.2 3025.5h196.52"/>
  <path id="path118" d="m184.44 3025.8h198.04"/>
  <path id="path120" d="m183.68 3026.1h199.56"/>
  <path id="path122" d="m182.92 3026.5h201.08"/>
  <path id="path124" d="m182.16 3026.8h202.6"/>
  <path id="path126" d="m181.4 3027.1h204.13"/>
  <path id="path128" d="m180.64 3027.4h205.65"/>
  <path id="path130" d="m179.88 3027.7h207.17"/>
  <path id="path132" d="m179.12 3028h208.69"/>
  <path id="path134" d="m178.36 3028.3h210.21"/>
  <path id="path136" d="m177.6 3028.7h211.73"/>
  <path id="path138" d="m176.84 3029h213.25"/>
  <path id="path140" d="m176.08 3029.3h214.77"/>
  <path id="path142" d="m175.32 3029.6h216.29"/>
  <path id="path144" d="m174.56 3029.9h217.81"/>
  <path id="path146" d="m173.8 3030.2h219.33"/>
  <path id="path148" d="m173.04 3030.6h220.85"/>
  <path id="path150" d="m172.28 3030.9h222.38"/>
  <path id="path152" d="m171.52 3031.2h223.9"/>
  <path id="path154" d="m170.76 3031.5h225.42"/>
  <path id="path156" d="m170 3031.8h226.94"/>
  <path id="path158" d="m169.24 3032.1h228.46"/>
  <path id="path160" d="m168.48 3032.4h229.98"/>
  <path id="path162" d="m167.72 3032.8h231.5"/>
  <path id="path164" d="m166.95 3033.1h233.02"/>
  <path id="path166" d="m166.19 3033.4h234.54"/>
  <path id="path168" d="m165.43 3033.7h236.06"/>
  <path id="path170" d="m164.67 3034h237.58"/>
  <path id="path172" d="m163.91 3034.3h239.1"/>
  <path id="path174" d="m163.26 3034.6h240.41"/>
  <path id="path176" d="m162.65 3035h241.62"/>
  <path id="path178" d="m162.05 3035.3h242.84"/>
  <path id="path180" d="m161.44 3035.6h244.04"/>
  <path id="path182" d="m160.84 3035.9h245.25"/>
  <path id="path184" d="m160.23 3036.2h246.46"/>
  <path id="path186" d="m159.63 3036.5h247.67"/>
  <path id="path188" d="m159.02 3036.9h248.88"/>
  <path id="path190" d="m158.42 3037.2h250.1"/>
  <path id="path192" d="m157.81 3037.5h251.3"/>
  <path id="path194" d="m157.21 3037.8h252.52"/>
  <path id="path196" d="m156.6 3038.1h253.72"/>
  <path id="path198" d="m156 3038.4h254.94"/>
  <path id="path200" d="m155.39 3038.7h256.14"/>
  <path id="path202" d="m154.79 3039.1h257.36"/>
  <path id="path204" d="m154.18 3039.4h258.56"/>
  <path id="path206" d="m153.58 3039.7h259.78"/>
  <path id="path208" d="m152.97 3040h260.98"/>
  <path id="path210" d="m152.37 3040.3h262.2"/>
  <path id="path212" d="m151.76 3040.6h263.4"/>
  <path id="path214" d="m151.16 3040.9h264.62"/>
  <path id="path216" d="m150.55 3041.3h265.82"/>
  <path id="path218" d="m149.95 3041.6h267.04"/>
  <path id="path220" d="m149.34 3041.9h268.24"/>
  <path id="path222" d="m148.74 3042.2h269.46"/>
  <path id="path224" d="m148.13 3042.5h270.66"/>
  <path id="path226" d="m147.53 3042.8h271.88"/>
  <path id="path228" d="m146.92 3043.2h273.08"/>
  <path id="path230" d="m146.32 3043.5h274.3"/>
  <path id="path232" d="m145.71 3043.8h275.5"/>
  <path id="path234" d="m145.11 3044.1h276.72"/>
  <path id="path236" d="m144.5 3044.4h277.93"/>
  <path id="path238" d="m143.9 3044.7h279.14"/>
  <path id="path240" d="m143.29 3045h280.35"/>
  <path id="path242" d="m142.69 3045.4h281.56"/>
  <path id="path244" d="m142.08 3045.7h282.77"/>
  <path id="path246" d="m141.52 3046h283.88"/>
  <path id="path248" d="m141.03 3046.3h284.87"/>
  <path id="path250" d="m140.53 3046.6h285.86"/>
  <path id="path252" d="m140.04 3046.9h286.85"/>
  <path id="path254" d="m139.55 3047.2h287.84"/>
  <path id="path256" d="m139.05 3047.6h288.83"/>
  <path id="path258" d="m138.56 3047.9h289.82"/>
  <path id="path260" d="m138.06 3048.2h290.8"/>
  <path id="path262" d="m137.57 3048.5h291.79"/>
  <path id="path264" d="m137.07 3048.8h292.78"/>
  <path id="path266" d="m136.58 3049.1h293.77"/>
  <path id="path268" d="m136.08 3049.4h294.76"/>
  <path id="path270" d="m135.59 3049.8h295.75"/>
  <path id="path272" d="m135.1 3050.1h296.74"/>
  <path id="path274" d="m134.6 3050.4h297.72"/>
  <path id="path276" d="m134.11 3050.7h298.72"/>
  <path id="path278" d="m133.61 3051h299.7"/>
  <path id="path280" d="m133.12 3051.3h300.69"/>
  <path id="path282" d="m132.62 3051.7h301.68"/>
  <path id="path284" d="m132.13 3052h302.67"/>
  <path id="path286" d="m131.64 3052.3h303.66"/>
  <path id="path288" d="m131.14 3052.6h304.65"/>
  <path id="path290" d="m130.65 3052.9h305.64"/>
  <path id="path292" d="m130.15 3053.2h306.62"/>
  <path id="path294" d="m129.66 3053.5h307.61"/>
  <path id="path296" d="m129.16 3053.9h308.6"/>
  <path id="path298" d="m128.67 3054.2h309.59"/>
  <path id="path300" d="m128.17 3054.5h310.58"/>
  <path id="path302" d="m127.68 3054.8h311.57"/>
  <path id="path304" d="m127.19 3055.1h312.56"/>
  <path id="path306" d="m126.69 3055.4h313.55"/>
  <path id="path308" d="m126.2 3055.7h314.54"/>
  <path id="path310" d="m125.7 3056.1h315.52"/>
  <path id="path312" d="m125.21 3056.4h316.51"/>
  <path id="path314" d="m124.71 3056.7h317.5"/>
  <path id="path316" d="m124.22 3057h318.49"/>
  <path id="path318" d="m123.72 3057.3h319.48"/>
  <path id="path320" d="m123.23 3057.6h320.47"/>
  <path id="path322" d="m122.74 3058h321.46"/>
  <path id="path324" d="m122.24 3058.3h322.44"/>
  <path id="path326" d="m121.75 3058.6h323.43"/>
  <path id="path328" d="m121.25 3058.9h324.42"/>
  <path id="path330" d="m120.78 3059.2h325.37"/>
  <path id="path332" d="m120.37 3059.5h326.19"/>
  <path id="path334" d="m119.96 3059.8h327.01"/>
  <path id="path336" d="m119.55 3060.2h327.84"/>
  <path id="path338" d="m119.14 3060.5h328.66"/>
  <path id="path340" d="m118.73 3060.8h329.48"/>
  <path id="path342" d="m118.32 3061.1h330.3"/>
  <path id="path344" d="m117.9 3061.4h331.12"/>
  <path id="path346" d="m117.5 3061.7h331.94"/>
  <path id="path348" d="m117.08 3062h332.76"/>
  <path id="path350" d="m116.67 3062.4h333.58"/>
  <path id="path352" d="m116.26 3062.7h334.4"/>
  <path id="path354" d="m115.85 3063h335.22"/>
  <path id="path356" d="m115.44 3063.3h336.04"/>
  <path id="path358" d="m115.03 3063.6h336.86"/>
  <path id="path360" d="m114.62 3063.9h337.69"/>
  <path id="path362" d="m114.21 3064.3h338.51"/>
  <path id="path364" d="m113.8 3064.6h339.33"/>
  <path id="path366" d="m113.39 3064.9h340.15"/>
  <path id="path368" d="m112.98 3065.2h340.97"/>
  <path id="path370" d="m112.57 3065.5h341.79"/>
  <path id="path372" d="m112.16 3065.8h342.61"/>
  <path id="path374" d="m111.75 3066.1h343.43"/>
  <path id="path376" d="m111.34 3066.5h344.25"/>
  <path id="path378" d="m110.93 3066.8h345.07"/>
  <path id="path380" d="m110.52 3067.1h345.9"/>
  <path id="path382" d="m110.11 3067.4h346.72"/>
  <path id="path384" d="m109.7 3067.7h347.54"/>
  <path id="path386" d="m109.28 3068h348.36"/>
  <path id="path388" d="m108.88 3068.3h349.18"/>
  <path id="path390" d="m108.46 3068.7h350"/>
  <path id="path392" d="m108.05 3069h350.82"/>
  <path id="path394" d="m107.64 3069.3h351.64"/>
  <path id="path396" d="m107.23 3069.6h352.46"/>
  <path id="path398" d="m106.82 3069.9h353.28"/>
  <path id="path400" d="m106.41 3070.2h354.1"/>
  <path id="path402" d="m106 3070.6h354.92"/>
  <path id="path404" d="m105.59 3070.9h355.75"/>
  <path id="path406" d="m105.18 3071.2h356.57"/>
  <path id="path408" d="m104.77 3071.5h357.39"/>
  <path id="path410" d="m104.36 3071.8h358.21"/>
  <path id="path412" d="m103.95 3072.1h359.03"/>
  <path id="path414" d="m103.54 3072.4h359.85"/>
  <path id="path416" d="m103.13 3072.8h360.67"/>
  <path id="path418" d="m102.72 3073.1h361.49"/>
  <path id="path420" d="m102.31 3073.4h362.31"/>
  <path id="path422" d="m101.9 3073.7h363.14"/>
  <path id="path424" d="m101.49 3074h363.96"/>
  <path id="path426" d="m101.11 3074.3h364.72"/>
  <path id="path428" d="m100.76 3074.6h365.4"/>
  <path id="path430" d="m100.42 3075h366.09"/>
  <path id="path432" d="m100.07 3075.3h366.78"/>
  <path id="path434" d="m99.731 3075.6h367.47"/>
  <path id="path436" d="m99.387 3075.9h368.16"/>
  <path id="path438" d="m99.043 3076.2h368.84"/>
  <path id="path440" d="m98.7 3076.5h369.53"/>
  <path id="path442" d="m98.356 3076.9h370.22"/>
  <path id="path444" d="m98.012 3077.2h370.9"/>
  <path id="path446" d="m97.668 3077.5h371.59"/>
  <path id="path448" d="m97.325 3077.8h372.28"/>
  <path id="path450" d="m96.981 3078.1h372.97"/>
  <path id="path452" d="m96.637 3078.4h373.66"/>
  <path id="path454" d="m96.293 3078.7h374.34"/>
  <path id="path456" d="m95.95 3079.1h375.03"/>
  <path id="path458" d="m95.606 3079.4h375.72"/>
  <path id="path460" d="m95.262 3079.7h376.4"/>
  <path id="path462" d="m94.919 3080h377.09"/>
  <path id="path464" d="m94.575 3080.3h377.78"/>
  <path id="path466" d="m94.231 3080.6h378.47"/>
  <path id="path468" d="m93.887 3080.9h379.15"/>
  <path id="path470" d="m93.544 3081.3h379.84"/>
  <path id="path472" d="m93.2 3081.6h380.53"/>
  <path id="path474" d="m92.856 3081.9h381.22"/>
  <path id="path476" d="m92.513 3082.2h381.9"/>
  <path id="path478" d="m92.169 3082.5h382.59"/>
  <path id="path480" d="m91.825 3082.8h383.28"/>
  <path id="path482" d="m91.481 3083.2h383.97"/>
  <path id="path484" d="m91.138 3083.5h384.65"/>
  <path id="path486" d="m90.794 3083.8h385.34"/>
  <path id="path488" d="m90.45 3084.1h386.03"/>
  <path id="path490" d="m90.107 3084.4h386.72"/>
  <path id="path492" d="m89.763 3084.7h387.4"/>
  <path id="path494" d="m89.419 3085h388.09"/>
  <path id="path496" d="m89.075 3085.4h388.78"/>
  <path id="path498" d="m88.732 3085.7h389.46"/>
  <path id="path500" d="m88.388 3086h390.15"/>
  <path id="path502" d="m88.044 3086.3h390.84"/>
  <path id="path504" d="m87.7 3086.6h391.53"/>
  <path id="path506" d="m87.357 3086.9h392.22"/>
  <path id="path508" d="m87.013 3087.2h392.9"/>
  <path id="path510" d="m86.669 3087.6h393.59"/>
  <path id="path512" d="m86.326 3087.9h394.28"/>
  <path id="path514" d="m85.982 3088.2h394.96"/>
  <path id="path516" d="m85.638 3088.5h395.65"/>
  <path id="path518" d="m85.294 3088.8h396.34"/>
  <path id="path520" d="m84.951 3089.1h397.03"/>
  <path id="path522" d="m84.607 3089.4h397.72"/>
  <path id="path524" d="m84.263 3089.8h398.4"/>
  <path id="path526" d="m83.92 3090.1h399.09"/>
  <path id="path528" d="m83.576 3090.4h399.78"/>
  <path id="path530" d="m83.232 3090.7h400.46"/>
  <path id="path532" d="m82.91 3091h401.11"/>
  <path id="path534" d="m82.622 3091.3h401.68"/>
  <path id="path536" d="m82.333 3091.7h402.26"/>
  <path id="path538" d="m82.045 3092h402.84"/>
  <path id="path540" d="m81.756 3092.3h403.42"/>
  <path id="path542" d="m81.467 3092.6h404"/>
  <path id="path544" d="m81.179 3092.9h404.57"/>
  <path id="path546" d="m80.89 3093.2h405.15"/>
  <path id="path548" d="m80.602 3093.5h405.73"/>
  <path id="path550" d="m80.313 3093.9h406.3"/>
  <path id="path552" d="m80.024 3094.2h406.88"/>
  <path id="path554" d="m79.736 3094.5h407.46"/>
  <path id="path556" d="m79.447 3094.8h408.04"/>
  <path id="path558" d="m79.158 3095.1h408.61"/>
  <path id="path560" d="m78.87 3095.4h409.19"/>
  <path id="path562" d="m78.581 3095.7h409.77"/>
  <path id="path564" d="m78.292 3096.1h410.34"/>
  <path id="path566" d="m78.004 3096.4h410.92"/>
  <path id="path568" d="m77.715 3096.7h411.5"/>
  <path id="path570" d="m77.427 3097h412.08"/>
  <path id="path572" d="m77.138 3097.3h412.65"/>
  <path id="path574" d="m76.85 3097.6h413.23"/>
  <path id="path576" d="m76.561 3098h413.81"/>
  <path id="path578" d="m76.272 3098.3h414.38"/>
  <path id="path580" d="m75.984 3098.6h414.96"/>
  <path id="path582" d="m75.695 3098.9h415.54"/>
  <path id="path584" d="m75.407 3099.2h416.12"/>
  <path id="path586" d="m75.118 3099.5h416.69"/>
  <path id="path588" d="m74.829 3099.8h417.27"/>
  <path id="path590" d="m74.541 3100.2h417.85"/>
  <path id="path592" d="m74.252 3100.5h418.42"/>
  <path id="path594" d="m73.964 3100.8h419"/>
  <path id="path596" d="m73.675 3101.1h419.58"/>
  <path id="path598" d="m73.386 3101.4h420.16"/>
  <path id="path600" d="m73.098 3101.7h420.73"/>
  <path id="path602" d="m72.809 3102h421.31"/>
  <path id="path604" d="m72.52 3102.4h421.89"/>
  <path id="path606" d="m72.232 3102.7h422.46"/>
  <path id="path608" d="m71.943 3103h423.04"/>
  <path id="path610" d="m71.654 3103.3h423.62"/>
  <path id="path612" d="m71.366 3103.6h424.2"/>
  <path id="path614" d="m71.077 3103.9h424.77"/>
  <path id="path616" d="m70.789 3104.3h425.35"/>
  <path id="path618" d="m70.5 3104.6h425.93"/>
  <path id="path620" d="m70.212 3104.9h426.5"/>
  <path id="path622" d="m69.923 3105.2h427.08"/>
  <path id="path624" d="m69.634 3105.5h427.66"/>
  <path id="path626" d="m69.346 3105.8h428.24"/>
  <path id="path628" d="m69.057 3106.1h428.82"/>
  <path id="path630" d="m68.769 3106.5h429.39"/>
  <path id="path632" d="m68.48 3106.8h429.97"/>
  <path id="path634" d="m68.192 3107.1h430.54"/>
  <path id="path636" d="m67.903 3107.4h431.12"/>
  <path id="path638" d="m67.614 3107.7h431.7"/>
  <path id="path640" d="m67.326 3108h432.28"/>
  <path id="path642" d="m67.037 3108.3h432.86"/>
  <path id="path644" d="m66.748 3108.7h433.43"/>
  <path id="path646" d="m66.46 3109h434.01"/>
  <path id="path648" d="m66.195 3109.3h434.54"/>
  <path id="path650" d="m65.954 3109.6h435.02"/>
  <path id="path652" d="m65.712 3109.9h435.5"/>
  <path id="path654" d="m65.47 3110.2h435.99"/>
  <path id="path656" d="m65.228 3110.6h436.47"/>
  <path id="path658" d="m64.987 3110.9h436.96"/>
  <path id="path660" d="m64.745 3111.2h437.44"/>
  <path id="path662" d="m64.503 3111.5h437.92"/>
  <path id="path664" d="m64.261 3111.8h438.41"/>
  <path id="path666" d="m64.02 3112.1h438.89"/>
  <path id="path668" d="m63.778 3112.4h439.37"/>
  <path id="path670" d="m63.537 3112.8h439.86"/>
  <path id="path672" d="m63.295 3113.1h440.34"/>
  <path id="path674" d="m63.053 3113.4h440.82"/>
  <path id="path676" d="m62.812 3113.7h441.3"/>
  <path id="path678" d="m62.57 3114h441.79"/>
  <path id="path680" d="m62.328 3114.3h442.27"/>
  <path id="path682" d="m62.086 3114.6h442.76"/>
  <path id="path684" d="m61.845 3115h443.24"/>
  <path id="path686" d="m61.603 3115.3h443.72"/>
  <path id="path688" d="m61.361 3115.6h444.21"/>
  <path id="path690" d="m61.12 3115.9h444.69"/>
  <path id="path692" d="m60.878 3116.2h445.17"/>
  <path id="path694" d="m60.636 3116.5h445.66"/>
  <path id="path696" d="m60.395 3116.9h446.14"/>
  <path id="path698" d="m60.153 3117.2h446.62"/>
  <path id="path700" d="m59.912 3117.5h447.1"/>
  <path id="path702" d="m59.67 3117.8h447.59"/>
  <path id="path704" d="m59.428 3118.1h448.07"/>
  <path id="path706" d="m59.186 3118.4h448.56"/>
  <path id="path708" d="m58.945 3118.7h449.04"/>
  <path id="path710" d="m58.703 3119.1h449.52"/>
  <path id="path712" d="m58.461 3119.4h450.01"/>
  <path id="path714" d="m58.22 3119.7h450.49"/>
  <path id="path716" d="m57.978 3120h450.97"/>
  <path id="path718" d="m57.736 3120.3h451.46"/>
  <path id="path720" d="m57.495 3120.6h451.94"/>
  <path id="path722" d="m57.253 3120.9h452.42"/>
  <path id="path724" d="m57.011 3121.3h452.91"/>
  <path id="path726" d="m56.77 3121.6h453.39"/>
  <path id="path728" d="m56.528 3121.9h453.87"/>
  <path id="path730" d="m56.286 3122.2h454.36"/>
  <path id="path732" d="m56.044 3122.5h454.84"/>
  <path id="path734" d="m55.803 3122.8h455.32"/>
  <path id="path736" d="m55.561 3123.2h455.81"/>
  <path id="path738" d="m55.319 3123.5h456.29"/>
  <path id="path740" d="m55.078 3123.8h456.77"/>
  <path id="path742" d="m54.836 3124.1h457.26"/>
  <path id="path744" d="m54.595 3124.4h457.74"/>
  <path id="path746" d="m54.353 3124.7h458.22"/>
  <path id="path748" d="m54.111 3125h458.71"/>
  <path id="path750" d="m53.87 3125.4h459.19"/>
  <path id="path752" d="m53.628 3125.7h459.67"/>
  <path id="path754" d="m53.386 3126h460.16"/>
  <path id="path756" d="m53.144 3126.3h460.64"/>
  <path id="path758" d="m52.903 3126.6h461.12"/>
  <path id="path760" d="m52.661 3126.9h461.61"/>
  <path id="path762" d="m52.419 3127.2h462.09"/>
  <path id="path764" d="m52.178 3127.6h462.57"/>
  <path id="path766" d="m51.936 3127.9h463.06"/>
  <path id="path768" d="m51.695 3128.2h463.54"/>
  <path id="path770" d="m51.453 3128.5h464.02"/>
  <path id="path772" d="m51.22 3128.8h464.49"/>
  <path id="path774" d="m51.019 3129.1h464.89"/>
  <path id="path776" d="m50.819 3129.4h465.29"/>
  <path id="path778" d="m50.618 3129.8h465.69"/>
  <path id="path780" d="m50.417 3130.1h466.09"/>
  <path id="path782" d="m50.217 3130.4h466.5"/>
  <path id="path784" d="m50.016 3130.7h466.9"/>
  <path id="path786" d="m49.816 3131h467.3"/>
  <path id="path788" d="m49.615 3131.3h467.7"/>
  <path id="path790" d="m49.414 3131.7h468.1"/>
  <path id="path792" d="m49.214 3132h468.5"/>
  <path id="path794" d="m49.013 3132.3h468.9"/>
  <path id="path796" d="m48.812 3132.6h469.3"/>
  <path id="path798" d="m48.611 3132.9h469.71"/>
  <path id="path800" d="m48.411 3133.2h470.11"/>
  <path id="path802" d="m48.21 3133.5h470.51"/>
  <path id="path804" d="m48.01 3133.9h470.91"/>
  <path id="path806" d="m47.809 3134.2h471.31"/>
  <path id="path808" d="m47.608 3134.5h471.71"/>
  <path id="path810" d="m47.408 3134.8h472.11"/>
  <path id="path812" d="m47.207 3135.1h472.52"/>
  <path id="path814" d="m47.006 3135.4h472.92"/>
  <path id="path816" d="m46.806 3135.7h473.32"/>
  <path id="path818" d="m46.605 3136.1h473.72"/>
  <path id="path820" d="m46.404 3136.4h474.12"/>
  <path id="path822" d="m46.204 3136.7h474.52"/>
  <path id="path824" d="m46.003 3137h474.92"/>
  <path id="path826" d="m45.803 3137.3h475.32"/>
  <path id="path828" d="m45.602 3137.6h475.72"/>
  <path id="path830" d="m45.401 3138h476.13"/>
  <path id="path832" d="m45.2 3138.3h476.53"/>
  <path id="path834" d="m45 3138.6h476.93"/>
  <path id="path836" d="m44.799 3138.9h477.33"/>
  <path id="path838" d="m44.598 3139.2h477.73"/>
  <path id="path840" d="m44.398 3139.5h478.13"/>
  <path id="path842" d="m44.197 3139.8h478.53"/>
  <path id="path844" d="m43.997 3140.2h478.94"/>
  <path id="path846" d="m43.796 3140.5h479.34"/>
  <path id="path848" d="m43.595 3140.8h479.74"/>
  <path id="path850" d="m43.395 3141.1h480.14"/>
  <path id="path852" d="m43.194 3141.4h480.54"/>
  <path id="path854" d="m42.993 3141.7h480.94"/>
  <path id="path856" d="m42.792 3142h481.34"/>
  <path id="path858" d="m42.592 3142.4h481.74"/>
  <path id="path860" d="m42.391 3142.7h482.15"/>
  <path id="path862" d="m42.191 3143h482.55"/>
  <path id="path864" d="m41.99 3143.3h482.95"/>
  <path id="path866" d="m41.789 3143.6h483.35"/>
  <path id="path868" d="m41.589 3143.9h483.75"/>
  <path id="path870" d="m41.388 3144.3h484.15"/>
  <path id="path872" d="m41.187 3144.6h484.56"/>
  <path id="path874" d="m40.987 3144.9h484.96"/>
  <path id="path876" d="m40.786 3145.2h485.36"/>
  <path id="path878" d="m40.586 3145.5h485.76"/>
  <path id="path880" d="m40.385 3145.8h486.16"/>
  <path id="path882" d="m40.184 3146.1h486.56"/>
  <path id="path884" d="m39.983 3146.5h486.96"/>
  <path id="path886" d="m39.783 3146.8h487.36"/>
  <path id="path888" d="m39.582 3147.1h487.76"/>
  <path id="path890" d="m39.381 3147.4h488.17"/>
  <path id="path892" d="m39.181 3147.7h488.57"/>
  <path id="path894" d="m38.98 3148h488.97"/>
  <path id="path896" d="m38.78 3148.3h489.37"/>
  <path id="path898" d="m38.579 3148.7h489.77"/>
  <path id="path900" d="m38.378 3149h490.17"/>
  <path id="path902" d="m38.178 3149.3h490.57"/>
  <path id="path904" d="m37.977 3149.6h490.98"/>
  <path id="path906" d="m37.813 3149.9h491.3"/>
  <path id="path908" d="m37.649 3150.2h491.63"/>
  <path id="path910" d="m37.485 3150.6h491.96"/>
  <path id="path912" d="m37.321 3150.9h492.29"/>
  <path id="path914" d="m37.157 3151.2h492.62"/>
  <path id="path916" d="m36.993 3151.5h492.94"/>
  <path id="path918" d="m36.829 3151.8h493.27"/>
  <path id="path920" d="m36.665 3152.1h493.6"/>
  <path id="path922" d="m36.501 3152.4h493.93"/>
  <path id="path924" d="m36.337 3152.8h494.26"/>
  <path id="path926" d="m36.173 3153.1h494.58"/>
  <path id="path928" d="m36.01 3153.4h494.91"/>
  <path id="path930" d="m35.845 3153.7h495.24"/>
  <path id="path932" d="m35.682 3154h495.56"/>
  <path id="path934" d="m35.517 3154.3h495.89"/>
  <path id="path936" d="m35.354 3154.6h496.22"/>
  <path id="path938" d="m35.189 3155h496.55"/>
  <path id="path940" d="m35.026 3155.3h496.88"/>
  <path id="path942" d="m34.862 3155.6h497.2"/>
  <path id="path944" d="m34.698 3155.9h497.53"/>
  <path id="path946" d="m34.534 3156.2h497.86"/>
  <path id="path948" d="m34.37 3156.5h498.19"/>
  <path id="path950" d="m34.206 3156.9h498.52"/>
  <path id="path952" d="m34.042 3157.2h498.84"/>
  <path id="path954" d="m33.878 3157.5h499.17"/>
  <path id="path956" d="m33.714 3157.8h499.5"/>
  <path id="path958" d="m33.55 3158.1h499.83"/>
  <path id="path960" d="m33.386 3158.4h500.16"/>
  <path id="path962" d="m33.222 3158.7h500.48"/>
  <path id="path964" d="m33.058 3159.1h500.81"/>
  <path id="path966" d="m32.894 3159.4h501.14"/>
  <path id="path968" d="m32.73 3159.7h501.47"/>
  <path id="path970" d="m32.566 3160h501.8"/>
  <path id="path972" d="m32.402 3160.3h502.12"/>
  <path id="path974" d="m32.238 3160.6h502.45"/>
  <path id="path976" d="m32.074 3160.9h502.78"/>
  <path id="path978" d="m31.91 3161.3h503.11"/>
  <path id="path980" d="m31.747 3161.6h503.44"/>
  <path id="path982" d="m31.582 3161.9h503.76"/>
  <path id="path984" d="m31.419 3162.2h504.09"/>
  <path id="path986" d="m31.254 3162.5h504.42"/>
  <path id="path988" d="m31.091 3162.8h504.75"/>
  <path id="path990" d="m30.926 3163.2h505.08"/>
  <path id="path992" d="m30.763 3163.5h505.4"/>
  <path id="path994" d="m30.598 3163.8h505.73"/>
  <path id="path996" d="m30.435 3164.1h506.06"/>
  <path id="path998" d="m30.271 3164.4h506.39"/>
  <path id="path1000" d="m30.107 3164.7h506.72"/>
  <path id="path1002" d="m29.943 3165h507.04"/>
  <path id="path1004" d="m29.779 3165.4h507.37"/>
  <path id="path1006" d="m29.615 3165.7h507.7"/>
  <path id="path1008" d="m29.451 3166h508.03"/>
  <path id="path1010" d="m29.287 3166.3h508.36"/>
  <path id="path1012" d="m29.123 3166.6h508.68"/>
  <path id="path1014" d="m28.959 3166.9h509.01"/>
  <path id="path1016" d="m28.795 3167.2h509.34"/>
  <path id="path1018" d="m28.631 3167.6h509.67"/>
  <path id="path1020" d="m28.467 3167.9h510"/>
  <path id="path1022" d="m28.303 3168.2h510.32"/>
  <path id="path1024" d="m28.139 3168.5h510.65"/>
  <path id="path1026" d="m27.975 3168.8h510.98"/>
  <path id="path1028" d="m27.811 3169.1h511.31"/>
  <path id="path1030" d="m27.647 3169.4h511.64"/>
  <path id="path1032" d="m27.483 3169.8h511.96"/>
  <path id="path1034" d="m27.319 3170.1h512.29"/>
  <path id="path1036" d="m27.156 3170.4h512.62"/>
  <path id="path1038" d="m26.991 3170.7h512.95"/>
  <path id="path1040" d="m26.828 3171h513.27"/>
  <path id="path1042" d="m26.663 3171.3h513.6"/>
  <path id="path1044" d="m26.512 3171.7h513.9"/>
  <path id="path1046" d="m26.381 3172h514.17"/>
  <path id="path1048" d="m26.25 3172.3h514.43"/>
  <path id="path1050" d="m26.12 3172.6h514.69"/>
  <path id="path1052" d="m25.99 3172.9h514.95"/>
  <path id="path1054" d="m25.859 3173.2h515.21"/>
  <path id="path1056" d="m25.729 3173.5h515.47"/>
  <path id="path1058" d="m25.598 3173.9h515.73"/>
  <path id="path1060" d="m25.468 3174.2h515.99"/>
  <path id="path1062" d="m25.337 3174.5h516.25"/>
  <path id="path1064" d="m25.207 3174.8h516.52"/>
  <path id="path1066" d="m25.076 3175.1h516.78"/>
  <path id="path1068" d="m24.946 3175.4h517.04"/>
  <path id="path1070" d="m24.816 3175.7h517.3"/>
  <path id="path1072" d="m24.685 3176.1h517.56"/>
  <path id="path1074" d="m24.555 3176.4h517.82"/>
  <path id="path1076" d="m24.424 3176.7h518.08"/>
  <path id="path1078" d="m24.294 3177h518.34"/>
  <path id="path1080" d="m24.163 3177.3h518.6"/>
  <path id="path1082" d="m24.033 3177.6h518.86"/>
  <path id="path1084" d="m23.903 3178h519.12"/>
  <path id="path1086" d="m23.772 3178.3h519.38"/>
  <path id="path1088" d="m23.641 3178.6h519.65"/>
  <path id="path1090" d="m23.511 3178.9h519.91"/>
  <path id="path1092" d="m23.38 3179.2h520.17"/>
  <path id="path1094" d="m23.25 3179.5h520.43"/>
  <path id="path1096" d="m23.12 3179.8h520.69"/>
  <path id="path1098" d="m22.989 3180.2h520.95"/>
  <path id="path1100" d="m22.859 3180.5h521.21"/>
  <path id="path1102" d="m22.728 3180.8h521.47"/>
  <path id="path1104" d="m22.598 3181.1h521.73"/>
  <path id="path1106" d="m22.467 3181.4h522"/>
  <path id="path1108" d="m22.337 3181.7h522.26"/>
  <path id="path1110" d="m22.206 3182h522.52"/>
  <path id="path1112" d="m22.076 3182.4h522.78"/>
  <path id="path1114" d="m21.946 3182.7h523.04"/>
  <path id="path1116" d="m21.815 3183h523.3"/>
  <path id="path1118" d="m21.684 3183.3h523.56"/>
  <path id="path1120" d="m21.554 3183.6h523.82"/>
  <path id="path1122" d="m21.423 3183.9h524.08"/>
  <path id="path1124" d="m21.293 3184.3h524.34"/>
  <path id="path1126" d="m21.163 3184.6h524.6"/>
  <path id="path1128" d="m21.032 3184.9h524.86"/>
  <path id="path1130" d="m20.902 3185.2h525.12"/>
  <path id="path1132" d="m20.771 3185.5h525.39"/>
  <path id="path1134" d="m20.641 3185.8h525.65"/>
  <path id="path1136" d="m20.51 3186.1h525.91"/>
  <path id="path1138" d="m20.38 3186.5h526.17"/>
  <path id="path1140" d="m20.25 3186.8h526.43"/>
  <path id="path1142" d="m20.119 3187.1h526.69"/>
  <path id="path1144" d="m19.989 3187.4h526.95"/>
  <path id="path1146" d="m19.858 3187.7h527.21"/>
  <path id="path1148" d="m19.728 3188h527.47"/>
  <path id="path1150" d="m19.597 3188.3h527.74"/>
  <path id="path1152" d="m19.467 3188.7h528"/>
  <path id="path1154" d="m19.336 3189h528.26"/>
  <path id="path1156" d="m19.206 3189.3h528.52"/>
  <path id="path1158" d="m19.075 3189.6h528.78"/>
  <path id="path1160" d="m18.945 3189.9h529.04"/>
  <path id="path1162" d="m18.814 3190.2h529.3"/>
  <path id="path1164" d="m18.684 3190.6h529.56"/>
  <path id="path1166" d="m18.553 3190.9h529.82"/>
  <path id="path1168" d="m18.423 3191.2h530.08"/>
  <path id="path1170" d="m18.293 3191.5h530.34"/>
  <path id="path1172" d="m18.162 3191.8h530.6"/>
  <path id="path1174" d="m18.032 3192.1h530.86"/>
  <path id="path1176" d="m17.901 3192.4h531.13"/>
  <path id="path1178" d="m17.771 3192.8h531.39"/>
  <path id="path1180" d="m17.64 3193.1h531.65"/>
  <path id="path1182" d="m17.51 3193.4h531.91"/>
  <path id="path1184" d="m17.379 3193.7h532.17"/>
  <path id="path1186" d="m17.249 3194h532.43"/>
  <path id="path1188" d="m17.118 3194.3h532.69"/>
  <path id="path1190" d="m17.014 3194.6h532.9"/>
  <path id="path1192" d="m16.914 3195h533.1"/>
  <path id="path1194" d="m16.815 3195.3h533.3"/>
  <path id="path1196" d="m16.716 3195.6h533.5"/>
  <path id="path1198" d="m16.616 3195.9h533.7"/>
  <path id="path1200" d="m16.517 3196.2h533.9"/>
  <path id="path1202" d="m16.418 3196.5h534.09"/>
  <path id="path1204" d="m16.318 3196.9h534.29"/>
  <path id="path1206" d="m16.219 3197.2h534.49"/>
  <path id="path1208" d="m16.12 3197.5h534.69"/>
  <path id="path1210" d="m16.02 3197.8h534.89"/>
  <path id="path1212" d="m15.921 3198.1h535.09"/>
  <path id="path1214" d="m15.822 3198.4h535.28"/>
  <path id="path1216" d="m15.722 3198.7h535.48"/>
  <path id="path1218" d="m15.623 3199.1h535.68"/>
  <path id="path1220" d="m15.524 3199.4h535.88"/>
  <path id="path1222" d="m15.424 3199.7h536.08"/>
  <path id="path1224" d="m15.325 3200h536.28"/>
  <path id="path1226" d="m15.226 3200.3h536.48"/>
  <path id="path1228" d="m15.127 3200.6h536.68"/>
  <path id="path1230" d="m15.027 3200.9h536.87"/>
  <path id="path1232" d="m14.928 3201.3h537.07"/>
  <path id="path1234" d="m14.829 3201.6h537.27"/>
  <path id="path1236" d="m14.729 3201.9h537.47"/>
  <path id="path1238" d="m14.63 3202.2h537.67"/>
  <path id="path1240" d="m14.531 3202.5h537.87"/>
  <path id="path1242" d="m14.431 3202.8h538.07"/>
  <path id="path1244" d="m14.332 3203.2h538.26"/>
  <path id="path1246" d="m14.233 3203.5h538.46"/>
  <path id="path1248" d="m14.133 3203.8h538.66"/>
  <path id="path1250" d="m14.034 3204.1h538.86"/>
  <path id="path1252" d="m13.935 3204.4h539.06"/>
  <path id="path1254" d="m13.835 3204.7h539.26"/>
  <path id="path1256" d="m13.736 3205h539.46"/>
  <path id="path1258" d="m13.637 3205.4h539.66"/>
  <path id="path1260" d="m13.538 3205.7h539.85"/>
  <path id="path1262" d="m13.438 3206h540.05"/>
  <path id="path1264" d="m13.339 3206.3h540.25"/>
  <path id="path1266" d="m13.24 3206.6h540.45"/>
  <path id="path1268" d="m13.14 3206.9h540.65"/>
  <path id="path1270" d="m13.041 3207.2h540.85"/>
  <path id="path1272" d="m12.942 3207.6h541.04"/>
  <path id="path1274" d="m12.843 3207.9h541.24"/>
  <path id="path1276" d="m12.743 3208.2h541.44"/>
  <path id="path1278" d="m12.644 3208.5h541.64"/>
  <path id="path1280" d="m12.545 3208.8h541.84"/>
  <path id="path1282" d="m12.445 3209.1h542.04"/>
  <path id="path1284" d="m12.346 3209.4h542.24"/>
  <path id="path1286" d="m12.247 3209.8h542.44"/>
  <path id="path1288" d="m12.148 3210.1h542.63"/>
  <path id="path1290" d="m12.048 3210.4h542.83"/>
  <path id="path1292" d="m11.949 3210.7h543.03"/>
  <path id="path1294" d="m11.85 3211h543.23"/>
  <path id="path1296" d="m11.75 3211.3h543.43"/>
  <path id="path1298" d="m11.651 3211.7h543.63"/>
  <path id="path1300" d="m11.552 3212h543.82"/>
  <path id="path1302" d="m11.452 3212.3h544.02"/>
  <path id="path1304" d="m11.353 3212.6h544.22"/>
  <path id="path1306" d="m11.254 3212.9h544.42"/>
  <path id="path1308" d="m11.155 3213.2h544.62"/>
  <path id="path1310" d="m11.055 3213.5h544.82"/>
  <path id="path1312" d="m10.956 3213.9h545.02"/>
  <path id="path1314" d="m10.857 3214.2h545.22"/>
  <path id="path1316" d="m10.757 3214.5h545.42"/>
  <path id="path1318" d="m10.658 3214.8h545.61"/>
  <path id="path1320" d="m10.559 3215.1h545.81"/>
  <path id="path1322" d="m10.459 3215.4h546.01"/>
  <path id="path1324" d="m10.36 3215.7h546.21"/>
  <path id="path1326" d="m10.261 3216.1h546.41"/>
  <path id="path1328" d="m10.161 3216.4h546.61"/>
  <path id="path1330" d="m10.062 3216.7h546.8"/>
  <path id="path1332" d="m9.963 3217h547"/>
  <path id="path1334" d="m9.863 3217.3h547.2"/>
  <path id="path1336" d="m9.764 3217.6h547.4"/>
  <path id="path1338" d="m9.665 3218h547.6"/>
  <path id="path1340" d="m9.593 3218.3h547.74"/>
  <path id="path1342" d="m9.523 3218.6h547.88"/>
  <path id="path1344" d="m9.454 3218.9h548.02"/>
  <path id="path1346" d="m9.384 3219.2h548.16"/>
  <path id="path1348" d="m9.314 3219.5h548.3"/>
  <path id="path1350" d="m9.244 3219.8h548.44"/>
  <path id="path1352" d="m9.174 3220.2h548.58"/>
  <path id="path1354" d="m9.105 3220.5h548.72"/>
  <path id="path1356" d="m9.035 3220.8h548.86"/>
  <path id="path1358" d="m8.965 3221.1h549"/>
  <path id="path1360" d="m8.895 3221.4h549.14"/>
  <path id="path1362" d="m8.825 3221.7h549.28"/>
  <path id="path1364" d="m8.755 3222h549.42"/>
  <path id="path1366" d="m8.685 3222.4h549.56"/>
  <path id="path1368" d="m8.615 3222.7h549.7"/>
  <path id="path1370" d="m8.546 3223h549.84"/>
  <path id="path1372" d="m8.476 3223.3h549.98"/>
  <path id="path1374" d="m8.406 3223.6h550.12"/>
  <path id="path1376" d="m8.336 3223.9h550.26"/>
  <path id="path1378" d="m8.266 3224.3h550.4"/>
  <path id="path1380" d="m8.197 3224.6h550.54"/>
  <path id="path1382" d="m8.127 3224.9h550.68"/>
  <path id="path1384" d="m8.057 3225.2h550.82"/>
  <path id="path1386" d="m7.987 3225.5h550.96"/>
  <path id="path1388" d="m7.917 3225.8h551.1"/>
  <path id="path1390" d="m7.848 3226.1h551.23"/>
  <path id="path1392" d="m7.778 3226.5h551.37"/>
  <path id="path1394" d="m7.708 3226.8h551.51"/>
  <path id="path1396" d="m7.638 3227.1h551.65"/>
  <path id="path1398" d="m7.568 3227.4h551.79"/>
  <path id="path1400" d="m7.499 3227.7h551.93"/>
  <path id="path1402" d="m7.429 3228h552.07"/>
  <path id="path1404" d="m7.359 3228.3h552.21"/>
  <path id="path1406" d="m7.289 3228.7h552.35"/>
  <path id="path1408" d="m7.219 3229h552.49"/>
  <path id="path1410" d="m7.149 3229.3h552.63"/>
  <path id="path1412" d="m7.079 3229.6h552.77"/>
  <path id="path1414" d="m7.01 3229.9h552.91"/>
  <path id="path1416" d="m6.94 3230.2h553.05"/>
  <path id="path1418" d="m6.87 3230.6h553.19"/>
  <path id="path1420" d="m6.8 3230.9h553.33"/>
  <path id="path1422" d="m6.73 3231.2h553.47"/>
  <path id="path1424" d="m6.66 3231.5h553.61"/>
  <path id="path1426" d="m6.591 3231.8h553.75"/>
  <path id="path1428" d="m6.521 3232.1h553.89"/>
  <path id="path1430" d="m6.451 3232.4h554.03"/>
  <path id="path1432" d="m6.381 3232.8h554.17"/>
  <path id="path1434" d="m6.311 3233.1h554.31"/>
  <path id="path1436" d="m6.242 3233.4h554.44"/>
  <path id="path1438" d="m6.172 3233.7h554.58"/>
  <path id="path1440" d="m6.102 3234h554.72"/>
  <path id="path1442" d="m6.032 3234.3h554.86"/>
  <path id="path1444" d="m5.962 3234.6h555"/>
  <path id="path1446" d="m5.893 3235h555.14"/>
  <path id="path1448" d="m5.823 3235.3h555.28"/>
  <path id="path1450" d="m5.753 3235.6h555.42"/>
  <path id="path1452" d="m5.683 3235.9h555.56"/>
  <path id="path1454" d="m5.613 3236.2h555.7"/>
  <path id="path1456" d="m5.543 3236.5h555.84"/>
  <path id="path1458" d="m5.474 3236.9h555.98"/>
  <path id="path1460" d="m5.404 3237.2h556.12"/>
  <path id="path1462" d="m5.334 3237.5h556.26"/>
  <path id="path1464" d="m5.264 3237.8h556.4"/>
  <path id="path1466" d="m5.194 3238.1h556.54"/>
  <path id="path1468" d="m5.124 3238.4h556.68"/>
  <path id="path1470" d="m5.054 3238.7h556.82"/>
  <path id="path1472" d="m4.985 3239.1h556.96"/>
  <path id="path1474" d="m4.915 3239.4h557.1"/>
  <path id="path1476" d="m4.845 3239.7h557.24"/>
  <path id="path1478" d="m4.775 3240h557.38"/>
  <path id="path1480" d="m4.705 3240.3h557.52"/>
  <path id="path1482" d="m4.636 3240.6h557.66"/>
  <path id="path1484" d="m4.566 3240.9h557.8"/>
  <path id="path1486" d="m4.496 3241.3h557.94"/>
  <path id="path1488" d="m4.426 3241.6h558.08"/>
  <path id="path1490" d="m4.356 3241.9h558.22"/>
  <path id="path1492" d="m4.294 3242.2h558.34"/>
  <path id="path1494" d="m4.253 3242.5h558.42"/>
  <path id="path1496" d="m4.212 3242.8h558.5"/>
  <path id="path1498" d="m4.17 3243.2h558.59"/>
  <path id="path1500" d="m4.129 3243.5h558.67"/>
  <path id="path1502" d="m4.087 3243.8h558.76"/>
  <path id="path1504" d="m4.046 3244.1h558.84"/>
  <path id="path1506" d="m4.004 3244.4h558.92"/>
  <path id="path1508" d="m3.963 3244.7h559"/>
  <path id="path1510" d="m3.921 3245h559.09"/>
  <path id="path1512" d="m3.88 3245.4h559.17"/>
  <path id="path1514" d="m3.838 3245.7h559.25"/>
  <path id="path1516" d="m3.797 3246h559.34"/>
  <path id="path1518" d="m3.755 3246.3h559.42"/>
  <path id="path1520" d="m3.714 3246.6h559.5"/>
  <path id="path1522" d="m3.673 3246.9h559.58"/>
  <path id="path1524" d="m3.631 3247.2h559.67"/>
  <path id="path1526" d="m3.59 3247.6h559.75"/>
  <path id="path1528" d="m3.548 3247.9h559.83"/>
  <path id="path1530" d="m3.507 3248.2h559.92"/>
  <path id="path1532" d="m3.465 3248.5h560"/>
  <path id="path1534" d="m3.424 3248.8h560.08"/>
  <path id="path1536" d="m3.382 3249.1h560.16"/>
  <path id="path1538" d="m3.341 3249.4h560.25"/>
  <path id="path1540" d="m3.299 3249.8h560.33"/>
  <path id="path1542" d="m3.258 3250.1h560.41"/>
  <path id="path1544" d="m3.216 3250.4h560.5"/>
  <path id="path1546" d="m3.175 3250.7h560.58"/>
  <path id="path1548" d="m3.134 3251h560.66"/>
  <path id="path1550" d="m3.092 3251.3h560.74"/>
  <path id="path1552" d="m3.051 3251.7h560.83"/>
  <path id="path1554" d="m3.009 3252h560.91"/>
  <path id="path1556" d="m2.968 3252.3h560.99"/>
  <path id="path1558" d="m2.926 3252.6h561.08"/>
  <path id="path1560" d="m2.885 3252.9h561.16"/>
  <path id="path1562" d="m2.843 3253.2h561.24"/>
  <path id="path1564" d="m2.802 3253.5h561.32"/>
  <path id="path1566" d="m2.76 3253.9h561.41"/>
  <path id="path1568" d="m2.719 3254.2h561.49"/>
  <path id="path1570" d="m2.677 3254.5h561.58"/>
  <path id="path1572" d="m2.636 3254.8h561.66"/>
  <path id="path1574" d="m2.595 3255.1h561.74"/>
  <path id="path1576" d="m2.553 3255.4h561.82"/>
  <path id="path1578" d="m2.512 3255.7h561.9"/>
  <path id="path1580" d="m2.47 3256.1h561.99"/>
  <path id="path1582" d="m2.429 3256.4h562.07"/>
  <path id="path1584" d="m2.387 3256.7h562.15"/>
  <path id="path1586" d="m2.346 3257h562.24"/>
  <path id="path1588" d="m2.304 3257.3h562.32"/>
  <path id="path1590" d="m2.263 3257.6h562.4"/>
  <path id="path1592" d="m2.221 3258h562.49"/>
  <path id="path1594" d="m2.18 3258.3h562.57"/>
  <path id="path1596" d="m2.139 3258.6h562.65"/>
  <path id="path1598" d="m2.097 3258.9h562.74"/>
  <path id="path1600" d="m2.056 3259.2h562.82"/>
  <path id="path1602" d="m2.014 3259.5h562.9"/>
  <path id="path1604" d="m1.973 3259.8h562.98"/>
  <path id="path1606" d="m1.931 3260.2h563.07"/>
  <path id="path1608" d="m1.889 3260.5h563.15"/>
  <path id="path1610" d="m1.848 3260.8h563.23"/>
  <path id="path1612" d="m1.807 3261.1h563.32"/>
  <path id="path1614" d="m1.765 3261.4h563.4"/>
  <path id="path1616" d="m1.724 3261.7h563.48"/>
  <path id="path1618" d="m1.682 3262h563.56"/>
  <path id="path1620" d="m1.641 3262.4h563.65"/>
  <path id="path1622" d="m1.6 3262.7h563.73"/>
  <path id="path1624" d="m1.558 3263h563.81"/>
  <path id="path1626" d="m1.517 3263.3h563.9"/>
  <path id="path1628" d="m1.475 3263.6h563.98"/>
  <path id="path1630" d="m1.433 3263.9h564.06"/>
  <path id="path1632" d="m1.392 3264.3h564.14"/>
  <path id="path1634" d="m1.35 3264.6h564.23"/>
  <path id="path1636" d="m1.309 3264.9h564.31"/>
  <path id="path1638" d="m1.268 3265.2h564.39"/>
  <path id="path1640" d="m1.226 3265.5h564.48"/>
  <path id="path1642" d="m1.185 3265.8h564.56"/>
  <path id="path1644" d="m1.143 3266.1h564.64"/>
  <path id="path1646" d="m1.102 3266.5h564.72"/>
  <path id="path1648" d="m1.072 3266.8h564.78"/>
  <path id="path1650" d="m1.059 3267.1h564.81"/>
  <path id="path1652" d="m1.045 3267.4h564.84"/>
  <path id="path1654" d="m1.031 3267.7h564.87"/>
  <path id="path1656" d="m1.017 3268h564.89"/>
  <path id="path1658" d="m1.004 3268.3h564.92"/>
  <path id="path1660" d="m0.99 3268.7h564.95"/>
  <path id="path1662" d="m0.976 3269h564.98"/>
  <path id="path1664" d="m0.963 3269.3h565"/>
  <path id="path1666" d="m0.949 3269.6h565.03"/>
  <path id="path1668" d="m0.935 3269.9h565.06"/>
  <path id="path1670" d="m0.921 3270.2h565.09"/>
  <path id="path1672" d="m0.908 3270.6h565.11"/>
  <path id="path1674" d="m0.894 3270.9h565.14"/>
  <path id="path1676" d="m0.88 3271.2h565.17"/>
  <path id="path1678" d="m0.866 3271.5h565.2"/>
  <path id="path1680" d="m0.853 3271.8h565.22"/>
  <path id="path1682" d="m0.839 3272.1h565.25"/>
  <path id="path1684" d="m0.825 3272.4h565.28"/>
  <path id="path1686" d="m0.811 3272.8h565.31"/>
  <path id="path1688" d="m0.798 3273.1h565.33"/>
  <path id="path1690" d="m0.784 3273.4h565.36"/>
  <path id="path1692" d="m0.77 3273.7h565.39"/>
  <path id="path1694" d="m0.756 3274h565.42"/>
  <path id="path1696" d="m0.743 3274.3h565.44"/>
  <path id="path1698" d="m0.729 3274.6h565.47"/>
  <path id="path1700" d="m0.715 3275h565.5"/>
  <path id="path1702" d="m0.701 3275.3h565.53"/>
  <path id="path1704" d="m0.688 3275.6h565.55"/>
  <path id="path1706" d="m0.674 3275.9h565.58"/>
  <path id="path1708" d="m0.66 3276.2h565.61"/>
  <path id="path1710" d="m0.646 3276.5h565.64"/>
  <path id="path1712" d="m0.633 3276.9h565.66"/>
  <path id="path1714" d="m0.619 3277.2h565.69"/>
  <path id="path1716" d="m0.605 3277.5h565.72"/>
  <path id="path1718" d="m0.591 3277.8h565.75"/>
  <path id="path1720" d="m0.577 3278.1h565.78"/>
  <path id="path1722" d="m0.564 3278.4h565.8"/>
  <path id="path1724" d="m0.55 3278.7h565.83"/>
  <path id="path1726" d="m0.536 3279.1h565.86"/>
  <path id="path1728" d="m0.522 3279.4h565.88"/>
  <path id="path1730" d="m0.509 3279.7h565.91"/>
  <path id="path1732" d="m0.495 3280h565.94"/>
  <path id="path1734" d="m0.481 3280.3h565.97"/>
  <path id="path1736" d="m0.467 3280.6h565.99"/>
  <path id="path1738" d="m0.453 3280.9h566.02"/>
  <path id="path1740" d="m0.44 3281.3h566.05"/>
  <path id="path1742" d="m0.426 3281.6h566.08"/>
  <path id="path1744" d="m0.412 3281.9h566.1"/>
  <path id="path1746" d="m0.398 3282.2h566.13"/>
  <path id="path1748" d="m0.385 3282.5h566.16"/>
  <path id="path1750" d="m0.371 3282.8h566.19"/>
  <path id="path1752" d="m0.357 3283.2h566.21"/>
  <path id="path1754" d="m0.344 3283.5h566.24"/>
  <path id="path1756" d="m0.33 3283.8h566.27"/>
  <path id="path1758" d="m0.316 3284.1h566.3"/>
  <path id="path1760" d="m0.302 3284.4h566.32"/>
  <path id="path1762" d="m0.289 3284.7h566.35"/>
  <path id="path1764" d="m0.275 3285h566.38"/>
  <path id="path1766" d="m0.261 3285.4h566.41"/>
  <path id="path1768" d="m0.247 3285.7h566.43"/>
  <path id="path1770" d="m0.234 3286h566.46"/>
  <path id="path1772" d="m0.22 3286.3h566.49"/>
  <path id="path1774" d="m0.206 3286.6h566.52"/>
  <path id="path1776" d="m0.192 3286.9h566.54"/>
  <path id="path1778" d="m0.179 3287.2h566.57"/>
  <path id="path1780" d="m0.165 3287.6h566.6"/>
  <path id="path1782" d="m0.151 3287.9h566.63"/>
  <path id="path1784" d="m0.137 3288.2h566.65"/>
  <path id="path1786" d="m0.124 3288.5h566.68"/>
  <path id="path1788" d="m0.11 3288.8h566.71"/>
  <path id="path1790" d="m0.096 3289.1h566.74"/>
  <path id="path1792" d="m0.082 3289.4h566.76"/>
  <path id="path1794" d="m0.069 3289.8h566.79"/>
  <path id="path1796" d="m0.055 3290.1h566.82"/>
  <path id="path1798" d="m0.041 3290.4h566.85"/>
  <path id="path1800" d="m0.027 3290.7h566.87"/>
  <path id="path1802" d="m0.014 3291h566.9"/>
  <path id="path1804" d="m0 3291.3h566.93"/>
  <path id="path1806" d="m0.014 3291.7h566.9"/>
  <path id="path1808" d="m0.027 3292h566.87"/>
  <path id="path1810" d="m0.041 3292.3h566.85"/>
  <path id="path1812" d="m0.055 3292.6h566.82"/>
  <path id="path1814" d="m0.069 3292.9h566.79"/>
  <path id="path1816" d="m0.082 3293.2h566.76"/>
  <path id="path1818" d="m0.096 3293.5h566.74"/>
  <path id="path1820" d="m0.11 3293.9h566.71"/>
  <path id="path1822" d="m0.124 3294.2h566.68"/>
  <path id="path1824" d="m0.137 3294.5h566.65"/>
  <path id="path1826" d="m0.151 3294.8h566.63"/>
  <path id="path1828" d="m0.165 3295.1h566.6"/>
  <path id="path1830" d="m0.179 3295.4h566.57"/>
  <path id="path1832" d="m0.192 3295.7h566.54"/>
  <path id="path1834" d="m0.206 3296.1h566.52"/>
  <path id="path1836" d="m0.22 3296.4h566.49"/>
  <path id="path1838" d="m0.234 3296.7h566.46"/>
  <path id="path1840" d="m0.247 3297h566.43"/>
  <path id="path1842" d="m0.261 3297.3h566.41"/>
  <path id="path1844" d="m0.275 3297.6h566.38"/>
  <path id="path1846" d="m0.289 3298h566.35"/>
  <path id="path1848" d="m0.302 3298.3h566.32"/>
  <path id="path1850" d="m0.316 3298.6h566.3"/>
  <path id="path1852" d="m0.33 3298.9h566.27"/>
  <path id="path1854" d="m0.344 3299.2h566.24"/>
  <path id="path1856" d="m0.357 3299.5h566.21"/>
  <path id="path1858" d="m0.371 3299.8h566.19"/>
  <path id="path1860" d="m0.385 3300.2h566.16"/>
  <path id="path1862" d="m0.398 3300.5h566.13"/>
  <path id="path1864" d="m0.412 3300.8h566.1"/>
  <path id="path1866" d="m0.426 3301.1h566.08"/>
  <path id="path1868" d="m0.44 3301.4h566.05"/>
  <path id="path1870" d="m0.453 3301.7h566.02"/>
  <path id="path1872" d="m0.467 3302h565.99"/>
  <path id="path1874" d="m0.481 3302.4h565.97"/>
  <path id="path1876" d="m0.495 3302.7h565.94"/>
  <path id="path1878" d="m0.509 3303h565.91"/>
  <path id="path1880" d="m0.522 3303.3h565.88"/>
  <path id="path1882" d="m0.536 3303.6h565.86"/>
  <path id="path1884" d="m0.55 3303.9h565.83"/>
  <path id="path1886" d="m0.564 3304.3h565.8"/>
  <path id="path1888" d="m0.577 3304.6h565.78"/>
  <path id="path1890" d="m0.591 3304.9h565.75"/>
  <path id="path1892" d="m0.605 3305.2h565.72"/>
  <path id="path1894" d="m0.619 3305.5h565.69"/>
  <path id="path1896" d="m0.633 3305.8h565.66"/>
  <path id="path1898" d="m0.646 3306.1h565.64"/>
  <path id="path1900" d="m0.66 3306.5h565.61"/>
  <path id="path1902" d="m0.674 3306.8h565.58"/>
  <path id="path1904" d="m0.688 3307.1h565.55"/>
  <path id="path1906" d="m0.701 3307.4h565.53"/>
  <path id="path1908" d="m0.715 3307.7h565.5"/>
  <path id="path1910" d="m0.729 3308h565.47"/>
  <path id="path1912" d="m0.743 3308.3h565.44"/>
  <path id="path1914" d="m0.756 3308.7h565.42"/>
  <path id="path1916" d="m0.77 3309h565.39"/>
  <path id="path1918" d="m0.784 3309.3h565.36"/>
  <path id="path1920" d="m0.798 3309.6h565.33"/>
  <path id="path1922" d="m0.811 3309.9h565.31"/>
  <path id="path1924" d="m0.825 3310.2h565.28"/>
  <path id="path1926" d="m0.839 3310.6h565.25"/>
  <path id="path1928" d="m0.853 3310.9h565.22"/>
  <path id="path1930" d="m0.866 3311.2h565.2"/>
  <path id="path1932" d="m0.88 3311.5h565.17"/>
  <path id="path1934" d="m0.894 3311.8h565.14"/>
  <path id="path1936" d="m0.908 3312.1h565.11"/>
  <path id="path1938" d="m0.921 3312.4h565.09"/>
  <path id="path1940" d="m0.935 3312.8h565.06"/>
  <path id="path1942" d="m0.949 3313.1h565.03"/>
  <path id="path1944" d="m0.963 3313.4h565"/>
  <path id="path1946" d="m0.976 3313.7h564.98"/>
  <path id="path1948" d="m0.99 3314h564.95"/>
  <path id="path1950" d="m1.004 3314.3h564.92"/>
  <path id="path1952" d="m1.017 3314.6h564.89"/>
  <path id="path1954" d="m1.031 3315h564.87"/>
  <path id="path1956" d="m1.045 3315.3h564.84"/>
  <path id="path1958" d="m1.059 3315.6h564.81"/>
  <path id="path1960" d="m1.072 3315.9h564.78"/>
  <path id="path1962" d="m1.102 3316.2h564.72"/>
  <path id="path1964" d="m1.143 3316.5h564.64"/>
  <path id="path1966" d="m1.185 3316.9h564.56"/>
  <path id="path1968" d="m1.226 3317.2h564.48"/>
  <path id="path1970" d="m1.268 3317.5h564.39"/>
  <path id="path1972" d="m1.309 3317.8h564.31"/>
  <path id="path1974" d="m1.35 3318.1h564.23"/>
  <path id="path1976" d="m1.392 3318.4h564.14"/>
  <path id="path1978" d="m1.433 3318.7h564.06"/>
  <path id="path1980" d="m1.475 3319.1h563.98"/>
  <path id="path1982" d="m1.517 3319.4h563.9"/>
  <path id="path1984" d="m1.558 3319.7h563.81"/>
  <path id="path1986" d="m1.599 3320h563.73"/>
  <path id="path1988" d="m1.641 3320.3h563.65"/>
  <path id="path1990" d="m1.682 3320.6h563.56"/>
  <path id="path1992" d="m1.724 3320.9h563.48"/>
  <path id="path1994" d="m1.765 3321.3h563.4"/>
  <path id="path1996" d="m1.807 3321.6h563.32"/>
  <path id="path1998" d="m1.848 3321.9h563.23"/>
  <path id="path2000" d="m1.889 3322.2h563.15"/>
  <path id="path2002" d="m1.931 3322.5h563.07"/>
  <path id="path2004" d="m1.973 3322.8h562.98"/>
  <path id="path2006" d="m2.014 3323.2h562.9"/>
  <path id="path2008" d="m2.056 3323.5h562.82"/>
  <path id="path2010" d="m2.097 3323.8h562.74"/>
  <path id="path2012" d="m2.138 3324.1h562.65"/>
  <path id="path2014" d="m2.18 3324.4h562.57"/>
  <path id="path2016" d="m2.221 3324.7h562.49"/>
  <path id="path2018" d="m2.263 3325h562.4"/>
  <path id="path2020" d="m2.304 3325.4h562.32"/>
  <path id="path2022" d="m2.346 3325.7h562.24"/>
  <path id="path2024" d="m2.387 3326h562.15"/>
  <path id="path2026" d="m2.429 3326.3h562.07"/>
  <path id="path2028" d="m2.47 3326.6h561.99"/>
  <path id="path2030" d="m2.512 3326.9h561.9"/>
  <path id="path2032" d="m2.553 3327.2h561.82"/>
  <path id="path2034" d="m2.595 3327.6h561.74"/>
  <path id="path2036" d="m2.636 3327.9h561.66"/>
  <path id="path2038" d="m2.677 3328.2h561.58"/>
  <path id="path2040" d="m2.719 3328.5h561.49"/>
  <path id="path2042" d="m2.76 3328.8h561.41"/>
  <path id="path2044" d="m2.802 3329.1h561.32"/>
  <path id="path2046" d="m2.843 3329.4h561.24"/>
  <path id="path2048" d="m2.885 3329.8h561.16"/>
  <path id="path2050" d="m2.926 3330.1h561.08"/>
  <path id="path2052" d="m2.968 3330.4h560.99"/>
  <path id="path2054" d="m3.009 3330.7h560.91"/>
  <path id="path2056" d="m3.051 3331h560.83"/>
  <path id="path2058" d="m3.092 3331.3h560.74"/>
  <path id="path2060" d="m3.134 3331.7h560.66"/>
  <path id="path2062" d="m3.175 3332h560.58"/>
  <path id="path2064" d="m3.216 3332.3h560.5"/>
  <path id="path2066" d="m3.258 3332.6h560.41"/>
  <path id="path2068" d="m3.299 3332.9h560.33"/>
  <path id="path2070" d="m3.341 3333.2h560.25"/>
  <path id="path2072" d="m3.382 3333.5h560.16"/>
  <path id="path2074" d="m3.424 3333.9h560.08"/>
  <path id="path2076" d="m3.465 3334.2h560"/>
  <path id="path2078" d="m3.507 3334.5h559.92"/>
  <path id="path2080" d="m3.548 3334.8h559.83"/>
  <path id="path2082" d="m3.59 3335.1h559.75"/>
  <path id="path2084" d="m3.631 3335.4h559.67"/>
  <path id="path2086" d="m3.673 3335.7h559.58"/>
  <path id="path2088" d="m3.714 3336.1h559.5"/>
  <path id="path2090" d="m3.755 3336.4h559.42"/>
  <path id="path2092" d="m3.797 3336.7h559.34"/>
  <path id="path2094" d="m3.838 3337h559.25"/>
  <path id="path2096" d="m3.88 3337.3h559.17"/>
  <path id="path2098" d="m3.921 3337.6h559.09"/>
  <path id="path2100" d="m3.963 3338h559"/>
  <path id="path2102" d="m4.004 3338.3h558.92"/>
  <path id="path2104" d="m4.046 3338.6h558.84"/>
  <path id="path2106" d="m4.087 3338.9h558.76"/>
  <path id="path2108" d="m4.129 3339.2h558.67"/>
  <path id="path2110" d="m4.17 3339.5h558.59"/>
  <path id="path2112" d="m4.212 3339.8h558.5"/>
  <path id="path2114" d="m4.253 3340.2h558.42"/>
  <path id="path2116" d="m4.294 3340.5h558.34"/>
  <path id="path2118" d="m4.356 3340.8h558.22"/>
  <path id="path2120" d="m4.426 3341.1h558.08"/>
  <path id="path2122" d="m4.496 3341.4h557.94"/>
  <path id="path2124" d="m4.566 3341.7h557.8"/>
  <path id="path2126" d="m4.636 3342h557.66"/>
  <path id="path2128" d="m4.705 3342.4h557.52"/>
  <path id="path2130" d="m4.775 3342.7h557.38"/>
  <path id="path2132" d="m4.845 3343h557.24"/>
  <path id="path2134" d="m4.915 3343.3h557.1"/>
  <path id="path2136" d="m4.985 3343.6h556.96"/>
  <path id="path2138" d="m5.054 3343.9h556.82"/>
  <path id="path2140" d="m5.124 3344.3h556.68"/>
  <path id="path2142" d="m5.194 3344.6h556.54"/>
  <path id="path2144" d="m5.264 3344.9h556.4"/>
  <path id="path2146" d="m5.334 3345.2h556.26"/>
  <path id="path2148" d="m5.404 3345.5h556.12"/>
  <path id="path2150" d="m5.474 3345.8h555.98"/>
  <path id="path2152" d="m5.543 3346.1h555.84"/>
  <path id="path2154" d="m5.613 3346.5h555.7"/>
  <path id="path2156" d="m5.683 3346.8h555.56"/>
  <path id="path2158" d="m5.753 3347.1h555.42"/>
  <path id="path2160" d="m5.823 3347.4h555.28"/>
  <path id="path2162" d="m5.893 3347.7h555.14"/>
  <path id="path2164" d="m5.962 3348h555"/>
  <path id="path2166" d="m6.032 3348.3h554.86"/>
  <path id="path2168" d="m6.102 3348.7h554.72"/>
  <path id="path2170" d="m6.172 3349h554.58"/>
  <path id="path2172" d="m6.242 3349.3h554.44"/>
  <path id="path2174" d="m6.311 3349.6h554.31"/>
  <path id="path2176" d="m6.381 3349.9h554.17"/>
  <path id="path2178" d="m6.451 3350.2h554.03"/>
  <path id="path2180" d="m6.521 3350.6h553.89"/>
  <path id="path2182" d="m6.591 3350.9h553.75"/>
  <path id="path2184" d="m6.66 3351.2h553.61"/>
  <path id="path2186" d="m6.73 3351.5h553.47"/>
  <path id="path2188" d="m6.8 3351.8h553.33"/>
  <path id="path2190" d="m6.87 3352.1h553.19"/>
  <path id="path2192" d="m6.94 3352.4h553.05"/>
  <path id="path2194" d="m7.01 3352.8h552.91"/>
  <path id="path2196" d="m7.079 3353.1h552.77"/>
  <path id="path2198" d="m7.149 3353.4h552.63"/>
  <path id="path2200" d="m7.219 3353.7h552.49"/>
  <path id="path2202" d="m7.289 3354h552.35"/>
  <path id="path2204" d="m7.359 3354.3h552.21"/>
  <path id="path2206" d="m7.429 3354.6h552.07"/>
  <path id="path2208" d="m7.499 3355h551.93"/>
  <path id="path2210" d="m7.568 3355.3h551.79"/>
  <path id="path2212" d="m7.638 3355.6h551.65"/>
  <path id="path2214" d="m7.708 3355.9h551.51"/>
  <path id="path2216" d="m7.778 3356.2h551.37"/>
  <path id="path2218" d="m7.848 3356.5h551.23"/>
  <path id="path2220" d="m7.917 3356.9h551.1"/>
  <path id="path2222" d="m7.987 3357.2h550.96"/>
  <path id="path2224" d="m8.057 3357.5h550.82"/>
  <path id="path2226" d="m8.127 3357.8h550.68"/>
  <path id="path2228" d="m8.197 3358.1h550.54"/>
  <path id="path2230" d="m8.266 3358.4h550.4"/>
  <path id="path2232" d="m8.336 3358.7h550.26"/>
  <path id="path2234" d="m8.406 3359.1h550.12"/>
  <path id="path2236" d="m8.476 3359.4h549.98"/>
  <path id="path2238" d="m8.546 3359.7h549.84"/>
  <path id="path2240" d="m8.615 3360h549.7"/>
  <path id="path2242" d="m8.685 3360.3h549.56"/>
  <path id="path2244" d="m8.755 3360.6h549.42"/>
  <path id="path2246" d="m8.825 3360.9h549.28"/>
  <path id="path2248" d="m8.895 3361.3h549.14"/>
  <path id="path2250" d="m8.965 3361.6h549"/>
  <path id="path2252" d="m9.035 3361.9h548.86"/>
  <path id="path2254" d="m9.105 3362.2h548.72"/>
  <path id="path2256" d="m9.174 3362.5h548.58"/>
  <path id="path2258" d="m9.244 3362.8h548.44"/>
  <path id="path2260" d="m9.314 3363.2h548.3"/>
  <path id="path2262" d="m9.384 3363.5h548.16"/>
  <path id="path2264" d="m9.454 3363.8h548.02"/>
  <path id="path2266" d="m9.523 3364.1h547.88"/>
  <path id="path2268" d="m9.593 3364.4h547.74"/>
  <path id="path2270" d="m9.665 3364.7h547.6"/>
  <path id="path2272" d="m9.764 3365h547.4"/>
  <path id="path2274" d="m9.863 3365.4h547.2"/>
  <path id="path2276" d="m9.963 3365.7h547"/>
  <path id="path2278" d="m10.062 3366h546.8"/>
  <path id="path2280" d="m10.161 3366.3h546.61"/>
  <path id="path2282" d="m10.261 3366.6h546.41"/>
  <path id="path2284" d="m10.36 3366.9h546.21"/>
  <path id="path2286" d="m10.459 3367.2h546.01"/>
  <path id="path2288" d="m10.559 3367.6h545.81"/>
  <path id="path2290" d="m10.658 3367.9h545.61"/>
  <path id="path2292" d="m10.757 3368.2h545.42"/>
  <path id="path2294" d="m10.857 3368.5h545.22"/>
  <path id="path2296" d="m10.956 3368.8h545.02"/>
  <path id="path2298" d="m11.055 3369.1h544.82"/>
  <path id="path2300" d="m11.155 3369.4h544.62"/>
  <path id="path2302" d="m11.254 3369.8h544.42"/>
  <path id="path2304" d="m11.353 3370.1h544.22"/>
  <path id="path2306" d="m11.452 3370.4h544.02"/>
  <path id="path2308" d="m11.552 3370.7h543.82"/>
  <path id="path2310" d="m11.651 3371h543.63"/>
  <path id="path2312" d="m11.75 3371.3h543.43"/>
  <path id="path2314" d="m11.85 3371.7h543.23"/>
  <path id="path2316" d="m11.949 3372h543.03"/>
  <path id="path2318" d="m12.048 3372.3h542.83"/>
  <path id="path2320" d="m12.148 3372.6h542.63"/>
  <path id="path2322" d="m12.247 3372.9h542.44"/>
  <path id="path2324" d="m12.346 3373.2h542.24"/>
  <path id="path2326" d="m12.445 3373.5h542.04"/>
  <path id="path2328" d="m12.545 3373.9h541.84"/>
  <path id="path2330" d="m12.644 3374.2h541.64"/>
  <path id="path2332" d="m12.743 3374.5h541.44"/>
  <path id="path2334" d="m12.843 3374.8h541.24"/>
  <path id="path2336" d="m12.942 3375.1h541.04"/>
  <path id="path2338" d="m13.041 3375.4h540.85"/>
  <path id="path2340" d="m13.14 3375.7h540.65"/>
  <path id="path2342" d="m13.24 3376.1h540.45"/>
  <path id="path2344" d="m13.339 3376.4h540.25"/>
  <path id="path2346" d="m13.438 3376.7h540.05"/>
  <path id="path2348" d="m13.538 3377h539.85"/>
  <path id="path2350" d="m13.637 3377.3h539.66"/>
  <path id="path2352" d="m13.736 3377.6h539.46"/>
  <path id="path2354" d="m13.835 3378h539.26"/>
  <path id="path2356" d="m13.935 3378.3h539.06"/>
  <path id="path2358" d="m14.034 3378.6h538.86"/>
  <path id="path2360" d="m14.133 3378.9h538.66"/>
  <path id="path2362" d="m14.233 3379.2h538.46"/>
  <path id="path2364" d="m14.332 3379.5h538.26"/>
  <path id="path2366" d="m14.431 3379.8h538.07"/>
  <path id="path2368" d="m14.531 3380.2h537.87"/>
  <path id="path2370" d="m14.63 3380.5h537.67"/>
  <path id="path2372" d="m14.729 3380.8h537.47"/>
  <path id="path2374" d="m14.829 3381.1h537.27"/>
  <path id="path2376" d="m14.928 3381.4h537.07"/>
  <path id="path2378" d="m15.027 3381.7h536.87"/>
  <path id="path2380" d="m15.127 3382h536.68"/>
  <path id="path2382" d="m15.226 3382.4h536.48"/>
  <path id="path2384" d="m15.325 3382.7h536.28"/>
  <path id="path2386" d="m15.424 3383h536.08"/>
  <path id="path2388" d="m15.524 3383.3h535.88"/>
  <path id="path2390" d="m15.623 3383.6h535.68"/>
  <path id="path2392" d="m15.722 3383.9h535.48"/>
  <path id="path2394" d="m15.822 3384.3h535.28"/>
  <path id="path2396" d="m15.921 3384.6h535.09"/>
  <path id="path2398" d="m16.02 3384.9h534.89"/>
  <path id="path2400" d="m16.12 3385.2h534.69"/>
  <path id="path2402" d="m16.219 3385.5h534.49"/>
  <path id="path2404" d="m16.318 3385.8h534.29"/>
  <path id="path2406" d="m16.418 3386.1h534.09"/>
  <path id="path2408" d="m16.517 3386.5h533.9"/>
  <path id="path2410" d="m16.616 3386.8h533.7"/>
  <path id="path2412" d="m16.716 3387.1h533.5"/>
  <path id="path2414" d="m16.815 3387.4h533.3"/>
  <path id="path2416" d="m16.914 3387.7h533.1"/>
  <path id="path2418" d="m17.014 3388h532.9"/>
  <path id="path2420" d="m17.118 3388.3h532.69"/>
  <path id="path2422" d="m17.249 3388.7h532.43"/>
  <path id="path2424" d="m17.379 3389h532.17"/>
  <path id="path2426" d="m17.51 3389.3h531.91"/>
  <path id="path2428" d="m17.64 3389.6h531.65"/>
  <path id="path2430" d="m17.771 3389.9h531.39"/>
  <path id="path2432" d="m17.901 3390.2h531.13"/>
  <path id="path2434" d="m18.032 3390.6h530.86"/>
  <path id="path2436" d="m18.162 3390.9h530.6"/>
  <path id="path2438" d="m18.293 3391.2h530.34"/>
  <path id="path2440" d="m18.423 3391.5h530.08"/>
  <path id="path2442" d="m18.553 3391.8h529.82"/>
  <path id="path2444" d="m18.684 3392.1h529.56"/>
  <path id="path2446" d="m18.814 3392.4h529.3"/>
  <path id="path2448" d="m18.945 3392.8h529.04"/>
  <path id="path2450" d="m19.075 3393.1h528.78"/>
  <path id="path2452" d="m19.206 3393.4h528.52"/>
  <path id="path2454" d="m19.336 3393.7h528.26"/>
  <path id="path2456" d="m19.467 3394h528"/>
  <path id="path2458" d="m19.597 3394.3h527.74"/>
  <path id="path2460" d="m19.728 3394.6h527.47"/>
  <path id="path2462" d="m19.858 3395h527.21"/>
  <path id="path2464" d="m19.989 3395.3h526.95"/>
  <path id="path2466" d="m20.119 3395.6h526.69"/>
  <path id="path2468" d="m20.25 3395.9h526.43"/>
  <path id="path2470" d="m20.38 3396.2h526.17"/>
  <path id="path2472" d="m20.51 3396.5h525.91"/>
  <path id="path2474" d="m20.641 3396.9h525.65"/>
  <path id="path2476" d="m20.771 3397.2h525.39"/>
  <path id="path2478" d="m20.902 3397.5h525.12"/>
  <path id="path2480" d="m21.032 3397.8h524.86"/>
  <path id="path2482" d="m21.163 3398.1h524.6"/>
  <path id="path2484" d="m21.293 3398.4h524.34"/>
  <path id="path2486" d="m21.423 3398.7h524.08"/>
  <path id="path2488" d="m21.554 3399.1h523.82"/>
  <path id="path2490" d="m21.684 3399.4h523.56"/>
  <path id="path2492" d="m21.815 3399.7h523.3"/>
  <path id="path2494" d="m21.946 3400h523.04"/>
  <path id="path2496" d="m22.076 3400.3h522.78"/>
  <path id="path2498" d="m22.206 3400.6h522.52"/>
  <path id="path2500" d="m22.337 3400.9h522.26"/>
  <path id="path2502" d="m22.467 3401.3h522"/>
  <path id="path2504" d="m22.598 3401.6h521.73"/>
  <path id="path2506" d="m22.728 3401.9h521.47"/>
  <path id="path2508" d="m22.859 3402.2h521.21"/>
  <path id="path2510" d="m22.989 3402.5h520.95"/>
  <path id="path2512" d="m23.12 3402.8h520.69"/>
  <path id="path2514" d="m23.25 3403.2h520.43"/>
  <path id="path2516" d="m23.38 3403.5h520.17"/>
  <path id="path2518" d="m23.511 3403.8h519.91"/>
  <path id="path2520" d="m23.641 3404.1h519.65"/>
  <path id="path2522" d="m23.772 3404.4h519.38"/>
  <path id="path2524" d="m23.903 3404.7h519.12"/>
  <path id="path2526" d="m24.033 3405h518.86"/>
  <path id="path2528" d="m24.163 3405.4h518.6"/>
  <path id="path2530" d="m24.294 3405.7h518.34"/>
  <path id="path2532" d="m24.424 3406h518.08"/>
  <path id="path2534" d="m24.555 3406.3h517.82"/>
  <path id="path2536" d="m24.685 3406.6h517.56"/>
  <path id="path2538" d="m24.816 3406.9h517.3"/>
  <path id="path2540" d="m24.946 3407.2h517.04"/>
  <path id="path2542" d="m25.076 3407.6h516.78"/>
  <path id="path2544" d="m25.207 3407.9h516.52"/>
  <path id="path2546" d="m25.337 3408.2h516.25"/>
  <path id="path2548" d="m25.468 3408.5h515.99"/>
  <path id="path2550" d="m25.598 3408.8h515.73"/>
  <path id="path2552" d="m25.729 3409.1h515.47"/>
  <path id="path2554" d="m25.859 3409.4h515.21"/>
  <path id="path2556" d="m25.99 3409.8h514.95"/>
  <path id="path2558" d="m26.12 3410.1h514.69"/>
  <path id="path2560" d="m26.25 3410.4h514.43"/>
  <path id="path2562" d="m26.381 3410.7h514.17"/>
  <path id="path2564" d="m26.512 3411h513.9"/>
  <path id="path2566" d="m26.663 3411.3h513.6"/>
  <path id="path2568" d="m26.828 3411.7h513.27"/>
  <path id="path2570" d="m26.991 3412h512.95"/>
  <path id="path2572" d="m27.156 3412.3h512.62"/>
  <path id="path2574" d="m27.319 3412.6h512.29"/>
  <path id="path2576" d="m27.483 3412.9h511.96"/>
  <path id="path2578" d="m27.647 3413.2h511.64"/>
  <path id="path2580" d="m27.811 3413.5h511.31"/>
  <path id="path2582" d="m27.975 3413.9h510.98"/>
  <path id="path2584" d="m28.139 3414.2h510.65"/>
  <path id="path2586" d="m28.303 3414.5h510.32"/>
  <path id="path2588" d="m28.467 3414.8h510"/>
  <path id="path2590" d="m28.631 3415.1h509.67"/>
  <path id="path2592" d="m28.795 3415.4h509.34"/>
  <path id="path2594" d="m28.959 3415.7h509.01"/>
  <path id="path2596" d="m29.123 3416.1h508.68"/>
  <path id="path2598" d="m29.287 3416.4h508.36"/>
  <path id="path2600" d="m29.451 3416.7h508.03"/>
  <path id="path2602" d="m29.615 3417h507.7"/>
  <path id="path2604" d="m29.779 3417.3h507.37"/>
  <path id="path2606" d="m29.943 3417.6h507.04"/>
  <path id="path2608" d="m30.107 3418h506.72"/>
  <path id="path2610" d="m30.271 3418.3h506.39"/>
  <path id="path2612" d="m30.435 3418.6h506.06"/>
  <path id="path2614" d="m30.598 3418.9h505.73"/>
  <path id="path2616" d="m30.763 3419.2h505.4"/>
  <path id="path2618" d="m30.926 3419.5h505.08"/>
  <path id="path2620" d="m31.091 3419.8h504.75"/>
  <path id="path2622" d="m31.254 3420.2h504.42"/>
  <path id="path2624" d="m31.419 3420.5h504.09"/>
  <path id="path2626" d="m31.582 3420.8h503.76"/>
  <path id="path2628" d="m31.747 3421.1h503.44"/>
  <path id="path2630" d="m31.91 3421.4h503.11"/>
  <path id="path2632" d="m32.074 3421.7h502.78"/>
  <path id="path2634" d="m32.238 3422h502.45"/>
  <path id="path2636" d="m32.402 3422.4h502.12"/>
  <path id="path2638" d="m32.566 3422.7h501.8"/>
  <path id="path2640" d="m32.73 3423h501.47"/>
  <path id="path2642" d="m32.894 3423.3h501.14"/>
  <path id="path2644" d="m33.058 3423.6h500.81"/>
  <path id="path2646" d="m33.222 3423.9h500.48"/>
  <path id="path2648" d="m33.386 3424.3h500.16"/>
  <path id="path2650" d="m33.55 3424.6h499.83"/>
  <path id="path2652" d="m33.714 3424.9h499.5"/>
  <path id="path2654" d="m33.878 3425.2h499.17"/>
  <path id="path2656" d="m34.042 3425.5h498.84"/>
  <path id="path2658" d="m34.206 3425.8h498.52"/>
  <path id="path2660" d="m34.37 3426.1h498.19"/>
  <path id="path2662" d="m34.534 3426.5h497.86"/>
  <path id="path2664" d="m34.698 3426.8h497.53"/>
  <path id="path2666" d="m34.862 3427.1h497.2"/>
  <path id="path2668" d="m35.026 3427.4h496.88"/>
  <path id="path2670" d="m35.189 3427.7h496.55"/>
  <path id="path2672" d="m35.354 3428h496.22"/>
  <path id="path2674" d="m35.517 3428.3h495.89"/>
  <path id="path2676" d="m35.682 3428.7h495.56"/>
  <path id="path2678" d="m35.845 3429h495.24"/>
  <path id="path2680" d="m36.01 3429.3h494.91"/>
  <path id="path2682" d="m36.173 3429.6h494.58"/>
  <path id="path2684" d="m36.337 3429.9h494.26"/>
  <path id="path2686" d="m36.501 3430.2h493.93"/>
  <path id="path2688" d="m36.665 3430.6h493.6"/>
  <path id="path2690" d="m36.829 3430.9h493.27"/>
  <path id="path2692" d="m36.993 3431.2h492.94"/>
  <path id="path2694" d="m37.157 3431.5h492.62"/>
  <path id="path2696" d="m37.321 3431.8h492.29"/>
  <path id="path2698" d="m37.485 3432.1h491.96"/>
  <path id="path2700" d="m37.649 3432.4h491.63"/>
  <path id="path2702" d="m37.813 3432.8h491.3"/>
  <path id="path2704" d="m37.977 3433.1h490.98"/>
  <path id="path2706" d="m38.178 3433.4h490.57"/>
  <path id="path2708" d="m38.378 3433.7h490.17"/>
  <path id="path2710" d="m38.579 3434h489.77"/>
  <path id="path2712" d="m38.78 3434.3h489.37"/>
  <path id="path2714" d="m38.98 3434.6h488.97"/>
  <path id="path2716" d="m39.181 3435h488.57"/>
  <path id="path2718" d="m39.381 3435.3h488.17"/>
  <path id="path2720" d="m39.582 3435.6h487.76"/>
  <path id="path2722" d="m39.783 3435.9h487.36"/>
  <path id="path2724" d="m39.983 3436.2h486.96"/>
  <path id="path2726" d="m40.184 3436.5h486.56"/>
  <path id="path2728" d="m40.385 3436.9h486.16"/>
  <path id="path2730" d="m40.586 3437.2h485.76"/>
  <path id="path2732" d="m40.786 3437.5h485.36"/>
  <path id="path2734" d="m40.987 3437.8h484.96"/>
  <path id="path2736" d="m41.187 3438.1h484.56"/>
  <path id="path2738" d="m41.388 3438.4h484.15"/>
  <path id="path2740" d="m41.589 3438.7h483.75"/>
  <path id="path2742" d="m41.789 3439.1h483.35"/>
  <path id="path2744" d="m41.99 3439.4h482.95"/>
  <path id="path2746" d="m42.191 3439.7h482.55"/>
  <path id="path2748" d="m42.391 3440h482.15"/>
  <path id="path2750" d="m42.592 3440.3h481.74"/>
  <path id="path2752" d="m42.792 3440.6h481.34"/>
  <path id="path2754" d="m42.993 3440.9h480.94"/>
  <path id="path2756" d="m43.194 3441.3h480.54"/>
  <path id="path2758" d="m43.395 3441.6h480.14"/>
  <path id="path2760" d="m43.595 3441.9h479.74"/>
  <path id="path2762" d="m43.796 3442.2h479.34"/>
  <path id="path2764" d="m43.997 3442.5h478.94"/>
  <path id="path2766" d="m44.197 3442.8h478.53"/>
  <path id="path2768" d="m44.398 3443.2h478.13"/>
  <path id="path2770" d="m44.598 3443.5h477.73"/>
  <path id="path2772" d="m44.799 3443.8h477.33"/>
  <path id="path2774" d="m45 3444.1h476.93"/>
  <path id="path2776" d="m45.2 3444.4h476.53"/>
  <path id="path2778" d="m45.401 3444.7h476.13"/>
  <path id="path2780" d="m45.602 3445h475.72"/>
  <path id="path2782" d="m45.803 3445.4h475.32"/>
  <path id="path2784" d="m46.003 3445.7h474.92"/>
  <path id="path2786" d="m46.204 3446h474.52"/>
  <path id="path2788" d="m46.404 3446.3h474.12"/>
  <path id="path2790" d="m46.605 3446.6h473.72"/>
  <path id="path2792" d="m46.806 3446.9h473.32"/>
  <path id="path2794" d="m47.006 3447.2h472.92"/>
  <path id="path2796" d="m47.207 3447.6h472.52"/>
  <path id="path2798" d="m47.408 3447.9h472.11"/>
  <path id="path2800" d="m47.608 3448.2h471.71"/>
  <path id="path2802" d="m47.809 3448.5h471.31"/>
  <path id="path2804" d="m48.01 3448.8h470.91"/>
  <path id="path2806" d="m48.21 3449.1h470.51"/>
  <path id="path2808" d="m48.411 3449.4h470.11"/>
  <path id="path2810" d="m48.611 3449.8h469.71"/>
  <path id="path2812" d="m48.812 3450.1h469.3"/>
  <path id="path2814" d="m49.013 3450.4h468.9"/>
  <path id="path2816" d="m49.214 3450.7h468.5"/>
  <path id="path2818" d="m49.414 3451h468.1"/>
  <path id="path2820" d="m49.615 3451.3h467.7"/>
  <path id="path2822" d="m49.816 3451.7h467.3"/>
  <path id="path2824" d="m50.016 3452h466.9"/>
  <path id="path2826" d="m50.217 3452.3h466.5"/>
  <path id="path2828" d="m50.417 3452.6h466.09"/>
  <path id="path2830" d="m50.618 3452.9h465.69"/>
  <path id="path2832" d="m50.819 3453.2h465.29"/>
  <path id="path2834" d="m51.019 3453.5h464.89"/>
  <path id="path2836" d="m51.22 3453.9h464.49"/>
  <path id="path2838" d="m51.453 3454.2h464.02"/>
  <path id="path2840" d="m51.695 3454.5h463.54"/>
  <path id="path2842" d="m51.936 3454.8h463.06"/>
  <path id="path2844" d="m52.178 3455.1h462.57"/>
  <path id="path2846" d="m52.419 3455.4h462.09"/>
  <path id="path2848" d="m52.661 3455.7h461.61"/>
  <path id="path2850" d="m52.903 3456.1h461.12"/>
  <path id="path2852" d="m53.144 3456.4h460.64"/>
  <path id="path2854" d="m53.386 3456.7h460.16"/>
  <path id="path2856" d="m53.628 3457h459.67"/>
  <path id="path2858" d="m53.87 3457.3h459.19"/>
  <path id="path2860" d="m54.111 3457.6h458.71"/>
  <path id="path2862" d="m54.353 3458h458.22"/>
  <path id="path2864" d="m54.595 3458.3h457.74"/>
  <path id="path2866" d="m54.836 3458.6h457.26"/>
  <path id="path2868" d="m55.078 3458.9h456.77"/>
  <path id="path2870" d="m55.319 3459.2h456.29"/>
  <path id="path2872" d="m55.561 3459.5h455.81"/>
  <path id="path2874" d="m55.803 3459.8h455.32"/>
  <path id="path2876" d="m56.044 3460.2h454.84"/>
  <path id="path2878" d="m56.286 3460.5h454.36"/>
  <path id="path2880" d="m56.528 3460.8h453.87"/>
  <path id="path2882" d="m56.77 3461.1h453.39"/>
  <path id="path2884" d="m57.011 3461.4h452.91"/>
  <path id="path2886" d="m57.253 3461.7h452.42"/>
  <path id="path2888" d="m57.495 3462h451.94"/>
  <path id="path2890" d="m57.736 3462.4h451.46"/>
  <path id="path2892" d="m57.978 3462.7h450.97"/>
  <path id="path2894" d="m58.22 3463h450.49"/>
  <path id="path2896" d="m58.461 3463.3h450.01"/>
  <path id="path2898" d="m58.703 3463.6h449.52"/>
  <path id="path2900" d="m58.945 3463.9h449.04"/>
  <path id="path2902" d="m59.186 3464.3h448.56"/>
  <path id="path2904" d="m59.428 3464.6h448.07"/>
  <path id="path2906" d="m59.67 3464.9h447.59"/>
  <path id="path2908" d="m59.912 3465.2h447.1"/>
  <path id="path2910" d="m60.153 3465.5h446.62"/>
  <path id="path2912" d="m60.395 3465.8h446.14"/>
  <path id="path2914" d="m60.636 3466.1h445.66"/>
  <path id="path2916" d="m60.878 3466.5h445.17"/>
  <path id="path2918" d="m61.12 3466.8h444.69"/>
  <path id="path2920" d="m61.361 3467.1h444.21"/>
  <path id="path2922" d="m61.603 3467.4h443.72"/>
  <path id="path2924" d="m61.845 3467.7h443.24"/>
  <path id="path2926" d="m62.086 3468h442.76"/>
  <path id="path2928" d="m62.328 3468.3h442.27"/>
  <path id="path2930" d="m62.57 3468.7h441.79"/>
  <path id="path2932" d="m62.812 3469h441.3"/>
  <path id="path2934" d="m63.053 3469.3h440.82"/>
  <path id="path2936" d="m63.295 3469.6h440.34"/>
  <path id="path2938" d="m63.537 3469.9h439.86"/>
  <path id="path2940" d="m63.778 3470.2h439.37"/>
  <path id="path2942" d="m64.02 3470.6h438.89"/>
  <path id="path2944" d="m64.261 3470.9h438.41"/>
  <path id="path2946" d="m64.503 3471.2h437.92"/>
  <path id="path2948" d="m64.745 3471.5h437.44"/>
  <path id="path2950" d="m64.987 3471.8h436.96"/>
  <path id="path2952" d="m65.228 3472.1h436.47"/>
  <path id="path2954" d="m65.47 3472.4h435.99"/>
  <path id="path2956" d="m65.712 3472.8h435.5"/>
  <path id="path2958" d="m65.954 3473.1h435.02"/>
  <path id="path2960" d="m66.195 3473.4h434.54"/>
  <path id="path2962" d="m66.46 3473.7h434.01"/>
  <path id="path2964" d="m66.748 3474h433.43"/>
  <path id="path2966" d="m67.037 3474.3h432.86"/>
  <path id="path2968" d="m67.326 3474.6h432.28"/>
  <path id="path2970" d="m67.614 3475h431.7"/>
  <path id="path2972" d="m67.903 3475.3h431.12"/>
  <path id="path2974" d="m68.192 3475.6h430.54"/>
  <path id="path2976" d="m68.48 3475.9h429.97"/>
  <path id="path2978" d="m68.769 3476.2h429.39"/>
  <path id="path2980" d="m69.057 3476.5h428.81"/>
  <path id="path2982" d="m69.346 3476.9h428.24"/>
  <path id="path2984" d="m69.634 3477.2h427.66"/>
  <path id="path2986" d="m69.923 3477.5h427.08"/>
  <path id="path2988" d="m70.212 3477.8h426.5"/>
  <path id="path2990" d="m70.5 3478.1h425.93"/>
  <path id="path2992" d="m70.789 3478.4h425.35"/>
  <path id="path2994" d="m71.077 3478.7h424.77"/>
  <path id="path2996" d="m71.366 3479.1h424.2"/>
  <path id="path2998" d="m71.654 3479.4h423.62"/>
  <path id="path3000" d="m71.943 3479.7h423.04"/>
  <path id="path3002" d="m72.232 3480h422.46"/>
  <path id="path3004" d="m72.52 3480.3h421.89"/>
  <path id="path3006" d="m72.809 3480.6h421.31"/>
  <path id="path3008" d="m73.098 3480.9h420.73"/>
  <path id="path3010" d="m73.386 3481.3h420.16"/>
  <path id="path3012" d="m73.675 3481.6h419.58"/>
  <path id="path3014" d="m73.964 3481.9h419"/>
  <path id="path3016" d="m74.252 3482.2h418.42"/>
  <path id="path3018" d="m74.541 3482.5h417.85"/>
  <path id="path3020" d="m74.829 3482.8h417.27"/>
  <path id="path3022" d="m75.118 3483.2h416.69"/>
  <path id="path3024" d="m75.407 3483.5h416.12"/>
  <path id="path3026" d="m75.695 3483.8h415.54"/>
  <path id="path3028" d="m75.984 3484.1h414.96"/>
  <path id="path3030" d="m76.272 3484.4h414.38"/>
  <path id="path3032" d="m76.561 3484.7h413.81"/>
  <path id="path3034" d="m76.85 3485h413.23"/>
  <path id="path3036" d="m77.138 3485.4h412.65"/>
  <path id="path3038" d="m77.427 3485.7h412.08"/>
  <path id="path3040" d="m77.715 3486h411.5"/>
  <path id="path3042" d="m78.004 3486.3h410.92"/>
  <path id="path3044" d="m78.292 3486.6h410.34"/>
  <path id="path3046" d="m78.581 3486.9h409.77"/>
  <path id="path3048" d="m78.87 3487.2h409.19"/>
  <path id="path3050" d="m79.158 3487.6h408.61"/>
  <path id="path3052" d="m79.447 3487.9h408.04"/>
  <path id="path3054" d="m79.736 3488.2h407.46"/>
  <path id="path3056" d="m80.024 3488.5h406.88"/>
  <path id="path3058" d="m80.313 3488.8h406.3"/>
  <path id="path3060" d="m80.602 3489.1h405.72"/>
  <path id="path3062" d="m80.89 3489.4h405.15"/>
  <path id="path3064" d="m81.179 3489.8h404.57"/>
  <path id="path3066" d="m81.467 3490.1h403.99"/>
  <path id="path3068" d="m81.756 3490.4h403.42"/>
  <path id="path3070" d="m82.045 3490.7h402.84"/>
  <path id="path3072" d="m82.333 3491h402.26"/>
  <path id="path3074" d="m82.622 3491.3h401.68"/>
  <path id="path3076" d="m82.91 3491.7h401.11"/>
  <path id="path3078" d="m83.232 3492h400.46"/>
  <path id="path3080" d="m83.576 3492.3h399.78"/>
  <path id="path3082" d="m83.92 3492.6h399.09"/>
  <path id="path3084" d="m84.263 3492.9h398.4"/>
  <path id="path3086" d="m84.607 3493.2h397.72"/>
  <path id="path3088" d="m84.951 3493.5h397.03"/>
  <path id="path3090" d="m85.294 3493.9h396.34"/>
  <path id="path3092" d="m85.638 3494.2h395.65"/>
  <path id="path3094" d="m85.982 3494.5h394.96"/>
  <path id="path3096" d="m86.326 3494.8h394.28"/>
  <path id="path3098" d="m86.669 3495.1h393.59"/>
  <path id="path3100" d="m87.013 3495.4h392.9"/>
  <path id="path3102" d="m87.357 3495.7h392.22"/>
  <path id="path3104" d="m87.7 3496.1h391.53"/>
  <path id="path3106" d="m88.044 3496.4h390.84"/>
  <path id="path3108" d="m88.388 3496.7h390.15"/>
  <path id="path3110" d="m88.732 3497h389.46"/>
  <path id="path3112" d="m89.075 3497.3h388.78"/>
  <path id="path3114" d="m89.419 3497.6h388.09"/>
  <path id="path3116" d="m89.763 3498h387.4"/>
  <path id="path3118" d="m90.107 3498.3h386.72"/>
  <path id="path3120" d="m90.45 3498.6h386.03"/>
  <path id="path3122" d="m90.794 3498.9h385.34"/>
  <path id="path3124" d="m91.138 3499.2h384.65"/>
  <path id="path3126" d="m91.481 3499.5h383.97"/>
  <path id="path3128" d="m91.825 3499.8h383.28"/>
  <path id="path3130" d="m92.169 3500.2h382.59"/>
  <path id="path3132" d="m92.513 3500.5h381.9"/>
  <path id="path3134" d="m92.856 3500.8h381.22"/>
  <path id="path3136" d="m93.2 3501.1h380.53"/>
  <path id="path3138" d="m93.544 3501.4h379.84"/>
  <path id="path3140" d="m93.887 3501.7h379.15"/>
  <path id="path3142" d="m94.231 3502h378.47"/>
  <path id="path3144" d="m94.575 3502.4h377.78"/>
  <path id="path3146" d="m94.919 3502.7h377.09"/>
  <path id="path3148" d="m95.262 3503h376.4"/>
  <path id="path3150" d="m95.606 3503.3h375.72"/>
  <path id="path3152" d="m95.95 3503.6h375.03"/>
  <path id="path3154" d="m96.293 3503.9h374.34"/>
  <path id="path3156" d="m96.637 3504.3h373.65"/>
  <path id="path3158" d="m96.981 3504.6h372.97"/>
  <path id="path3160" d="m97.325 3504.9h372.28"/>
  <path id="path3162" d="m97.668 3505.2h371.59"/>
  <path id="path3164" d="m98.012 3505.5h370.9"/>
  <path id="path3166" d="m98.356 3505.8h370.22"/>
  <path id="path3168" d="m98.7 3506.1h369.53"/>
  <path id="path3170" d="m99.043 3506.5h368.84"/>
  <path id="path3172" d="m99.387 3506.8h368.15"/>
  <path id="path3174" d="m99.731 3507.1h367.47"/>
  <path id="path3176" d="m100.07 3507.4h366.78"/>
  <path id="path3178" d="m100.42 3507.7h366.09"/>
  <path id="path3180" d="m100.76 3508h365.4"/>
  <path id="path3182" d="m101.11 3508.3h364.72"/>
  <path id="path3184" d="m101.49 3508.7h363.96"/>
  <path id="path3186" d="m101.9 3509h363.13"/>
  <path id="path3188" d="m102.31 3509.3h362.31"/>
  <path id="path3190" d="m102.72 3509.6h361.49"/>
  <path id="path3192" d="m103.13 3509.9h360.67"/>
  <path id="path3194" d="m103.54 3510.2h359.85"/>
  <path id="path3196" d="m103.95 3510.6h359.03"/>
  <path id="path3198" d="m104.36 3510.9h358.21"/>
  <path id="path3200" d="m104.77 3511.2h357.39"/>
  <path id="path3202" d="m105.18 3511.5h356.57"/>
  <path id="path3204" d="m105.59 3511.8h355.74"/>
  <path id="path3206" d="m106 3512.1h354.92"/>
  <path id="path3208" d="m106.41 3512.4h354.1"/>
  <path id="path3210" d="m106.82 3512.8h353.28"/>
  <path id="path3212" d="m107.23 3513.1h352.46"/>
  <path id="path3214" d="m107.64 3513.4h351.64"/>
  <path id="path3216" d="m108.05 3513.7h350.82"/>
  <path id="path3218" d="m108.46 3514h350"/>
  <path id="path3220" d="m108.88 3514.3h349.18"/>
  <path id="path3222" d="m109.29 3514.6h348.36"/>
  <path id="path3224" d="m109.7 3515h347.54"/>
  <path id="path3226" d="m110.11 3515.3h346.72"/>
  <path id="path3228" d="m110.52 3515.6h345.9"/>
  <path id="path3230" d="m110.93 3515.9h345.07"/>
  <path id="path3232" d="m111.34 3516.2h344.25"/>
  <path id="path3234" d="m111.75 3516.5h343.43"/>
  <path id="path3236" d="m112.16 3516.9h342.61"/>
  <path id="path3238" d="m112.57 3517.2h341.79"/>
  <path id="path3240" d="m112.98 3517.5h340.97"/>
  <path id="path3242" d="m113.39 3517.8h340.15"/>
  <path id="path3244" d="m113.8 3518.1h339.33"/>
  <path id="path3246" d="m114.21 3518.4h338.51"/>
  <path id="path3248" d="m114.62 3518.7h337.68"/>
  <path id="path3250" d="m115.03 3519.1h336.86"/>
  <path id="path3252" d="m115.44 3519.4h336.04"/>
  <path id="path3254" d="m115.85 3519.7h335.22"/>
  <path id="path3256" d="m116.26 3520h334.4"/>
  <path id="path3258" d="m116.67 3520.3h333.58"/>
  <path id="path3260" d="m117.08 3520.6h332.76"/>
  <path id="path3262" d="m117.5 3520.9h331.94"/>
  <path id="path3264" d="m117.91 3521.3h331.12"/>
  <path id="path3266" d="m118.32 3521.6h330.3"/>
  <path id="path3268" d="m118.73 3521.9h329.48"/>
  <path id="path3270" d="m119.14 3522.2h328.66"/>
  <path id="path3272" d="m119.55 3522.5h327.84"/>
  <path id="path3274" d="m119.96 3522.8h327.01"/>
  <path id="path3276" d="m120.37 3523.2h326.19"/>
  <path id="path3278" d="m120.78 3523.5h325.37"/>
  <path id="path3280" d="m121.25 3523.8h324.42"/>
  <path id="path3282" d="m121.75 3524.1h323.43"/>
  <path id="path3284" d="m122.24 3524.4h322.44"/>
  <path id="path3286" d="m122.74 3524.7h321.46"/>
  <path id="path3288" d="m123.23 3525h320.47"/>
  <path id="path3290" d="m123.72 3525.4h319.48"/>
  <path id="path3292" d="m124.22 3525.7h318.49"/>
  <path id="path3294" d="m124.71 3526h317.5"/>
  <path id="path3296" d="m125.21 3526.3h316.51"/>
  <path id="path3298" d="m125.7 3526.6h315.52"/>
  <path id="path3300" d="m126.2 3526.9h314.54"/>
  <path id="path3302" d="m126.69 3527.2h313.55"/>
  <path id="path3304" d="m127.19 3527.6h312.56"/>
  <path id="path3306" d="m127.68 3527.9h311.57"/>
  <path id="path3308" d="m128.18 3528.2h310.58"/>
  <path id="path3310" d="m128.67 3528.5h309.59"/>
  <path id="path3312" d="m129.16 3528.8h308.6"/>
  <path id="path3314" d="m129.66 3529.1h307.61"/>
  <path id="path3316" d="m130.15 3529.4h306.62"/>
  <path id="path3318" d="m130.65 3529.8h305.64"/>
  <path id="path3320" d="m131.14 3530.1h304.65"/>
  <path id="path3322" d="m131.64 3530.4h303.66"/>
  <path id="path3324" d="m132.13 3530.7h302.67"/>
  <path id="path3326" d="m132.62 3531h301.68"/>
  <path id="path3328" d="m133.12 3531.3h300.69"/>
  <path id="path3330" d="m133.61 3531.7h299.7"/>
  <path id="path3332" d="m134.11 3532h298.72"/>
  <path id="path3334" d="m134.6 3532.3h297.72"/>
  <path id="path3336" d="m135.1 3532.6h296.74"/>
  <path id="path3338" d="m135.59 3532.9h295.75"/>
  <path id="path3340" d="m136.08 3533.2h294.76"/>
  <path id="path3342" d="m136.58 3533.5h293.77"/>
  <path id="path3344" d="m137.07 3533.9h292.78"/>
  <path id="path3346" d="m137.57 3534.2h291.79"/>
  <path id="path3348" d="m138.06 3534.5h290.8"/>
  <path id="path3350" d="m138.56 3534.8h289.82"/>
  <path id="path3352" d="m139.05 3535.1h288.83"/>
  <path id="path3354" d="m139.55 3535.4h287.84"/>
  <path id="path3356" d="m140.04 3535.7h286.85"/>
  <path id="path3358" d="m140.53 3536.1h285.86"/>
  <path id="path3360" d="m141.03 3536.4h284.87"/>
  <path id="path3362" d="m141.52 3536.7h283.88"/>
  <path id="path3364" d="m142.08 3537h282.76"/>
  <path id="path3366" d="m142.69 3537.3h281.56"/>
  <path id="path3368" d="m143.29 3537.6h280.34"/>
  <path id="path3370" d="m143.9 3538h279.14"/>
  <path id="path3372" d="m144.5 3538.3h277.93"/>
  <path id="path3374" d="m145.11 3538.6h276.72"/>
  <path id="path3376" d="m145.71 3538.9h275.5"/>
  <path id="path3378" d="m146.32 3539.2h274.3"/>
  <path id="path3380" d="m146.92 3539.5h273.08"/>
  <path id="path3382" d="m147.53 3539.8h271.88"/>
  <path id="path3384" d="m148.13 3540.2h270.66"/>
  <path id="path3386" d="m148.74 3540.5h269.46"/>
  <path id="path3388" d="m149.34 3540.8h268.24"/>
  <path id="path3390" d="m149.95 3541.1h267.04"/>
  <path id="path3392" d="m150.55 3541.4h265.82"/>
  <path id="path3394" d="m151.16 3541.7h264.62"/>
  <path id="path3396" d="m151.76 3542h263.4"/>
  <path id="path3398" d="m152.37 3542.4h262.2"/>
  <path id="path3400" d="m152.97 3542.7h260.98"/>
  <path id="path3402" d="m153.58 3543h259.78"/>
  <path id="path3404" d="m154.18 3543.3h258.56"/>
  <path id="path3406" d="m154.79 3543.6h257.36"/>
  <path id="path3408" d="m155.39 3543.9h256.14"/>
  <path id="path3410" d="m156 3544.3h254.94"/>
  <path id="path3412" d="m156.6 3544.6h253.72"/>
  <path id="path3414" d="m157.21 3544.9h252.52"/>
  <path id="path3416" d="m157.81 3545.2h251.3"/>
  <path id="path3418" d="m158.42 3545.5h250.09"/>
  <path id="path3420" d="m159.02 3545.8h248.88"/>
  <path id="path3422" d="m159.63 3546.1h247.67"/>
  <path id="path3424" d="m160.23 3546.5h246.46"/>
  <path id="path3426" d="m160.84 3546.8h245.25"/>
  <path id="path3428" d="m161.44 3547.1h244.04"/>
  <path id="path3430" d="m162.05 3547.4h242.84"/>
  <path id="path3432" d="m162.65 3547.7h241.62"/>
  <path id="path3434" d="m163.26 3548h240.41"/>
  <path id="path3436" d="m163.91 3548.3h239.1"/>
  <path id="path3438" d="m164.67 3548.7h237.58"/>
  <path id="path3440" d="m165.43 3549h236.06"/>
  <path id="path3442" d="m166.19 3549.3h234.54"/>
  <path id="path3444" d="m166.95 3549.6h233.02"/>
  <path id="path3446" d="m167.72 3549.9h231.5"/>
  <path id="path3448" d="m168.48 3550.2h229.98"/>
  <path id="path3450" d="m169.24 3550.6h228.46"/>
  <path id="path3452" d="m170 3550.9h226.94"/>
  <path id="path3454" d="m170.76 3551.2h225.42"/>
  <path id="path3456" d="m171.52 3551.5h223.9"/>
  <path id="path3458" d="m172.28 3551.8h222.38"/>
  <path id="path3460" d="m173.04 3552.1h220.85"/>
  <path id="path3462" d="m173.8 3552.4h219.33"/>
  <path id="path3464" d="m174.56 3552.8h217.81"/>
  <path id="path3466" d="m175.32 3553.1h216.29"/>
  <path id="path3468" d="m176.08 3553.4h214.77"/>
  <path id="path3470" d="m176.84 3553.7h213.25"/>
  <path id="path3472" d="m177.6 3554h211.73"/>
  <path id="path3474" d="m178.36 3554.3h210.21"/>
  <path id="path3476" d="m179.12 3554.6h208.69"/>
  <path id="path3478" d="m179.88 3555h207.17"/>
  <path id="path3480" d="m180.64 3555.3h205.65"/>
  <path id="path3482" d="m181.4 3555.6h204.13"/>
  <path id="path3484" d="m182.16 3555.9h202.6"/>
  <path id="path3486" d="m182.92 3556.2h201.08"/>
  <path id="path3488" d="m183.68 3556.5h199.56"/>
  <path id="path3490" d="m184.44 3556.9h198.04"/>
  <path id="path3492" d="m185.2 3557.2h196.52"/>
  <path id="path3494" d="m185.96 3557.5h195"/>
  <path id="path3496" d="m186.79 3557.8h193.35"/>
  <path id="path3498" d="m187.79 3558.1h191.35"/>
  <path id="path3500" d="m188.79 3558.4h189.35"/>
  <path id="path3502" d="m189.79 3558.7h187.36"/>
  <path id="path3504" d="m190.79 3559.1h185.36"/>
  <path id="path3506" d="m191.78 3559.4h183.36"/>
  <path id="path3508" d="m192.78 3559.7h181.36"/>
  <path id="path3510" d="m193.78 3560h179.36"/>
  <path id="path3512" d="m194.78 3560.3h177.37"/>
  <path id="path3514" d="m195.78 3560.6h175.37"/>
  <path id="path3516" d="m196.78 3560.9h173.37"/>
  <path id="path3518" d="m197.78 3561.3h171.37"/>
  <path id="path3520" d="m198.78 3561.6h169.38"/>
  <path id="path3522" d="m199.78 3561.9h167.38"/>
  <path id="path3524" d="m200.78 3562.2h165.38"/>
  <path id="path3526" d="m201.77 3562.5h163.38"/>
  <path id="path3528" d="m202.77 3562.8h161.38"/>
  <path id="path3530" d="m203.77 3563.2h159.38"/>
  <path id="path3532" d="m204.77 3563.5h157.39"/>
  <path id="path3534" d="m205.77 3563.8h155.39"/>
  <path id="path3536" d="m206.77 3564.1h153.39"/>
  <path id="path3538" d="m207.77 3564.4h151.39"/>
  <path id="path3540" d="m208.77 3564.7h149.4"/>
  <path id="path3542" d="m209.76 3565h147.4"/>
  <path id="path3544" d="m211.04 3565.4h144.84"/>
  <path id="path3546" d="m212.47 3565.7h142"/>
  <path id="path3548" d="m213.89 3566h139.16"/>
  <path id="path3550" d="m215.31 3566.3h136.31"/>
  <path id="path3552" d="m216.73 3566.6h133.47"/>
  <path id="path3554" d="m218.15 3566.9h130.63"/>
  <path id="path3556" d="m219.57 3567.2h127.79"/>
  <path id="path3558" d="m220.99 3567.6h124.95"/>
  <path id="path3560" d="m222.41 3567.9h122.11"/>
  <path id="path3562" d="m223.83 3568.2h119.26"/>
  <path id="path3564" d="m225.25 3568.5h116.42"/>
  <path id="path3566" d="m226.67 3568.8h113.58"/>
  <path id="path3568" d="m228.09 3569.1h110.74"/>
  <path id="path3570" d="m229.52 3569.4h107.9"/>
  <path id="path3572" d="m230.94 3569.8h105.06"/>
  <path id="path3574" d="m232.36 3570.1h102.22"/>
  <path id="path3576" d="m233.78 3570.4h99.375"/>
  <path id="path3578" d="m235.85 3570.7h95.225"/>
  <path id="path3580" d="m238.24 3571h90.441"/>
  <path id="path3582" d="m240.64 3571.3h85.656"/>
  <path id="path3584" d="m243.03 3571.7h80.871"/>
  <path id="path3586" d="m245.42 3572h76.087"/>
  <path id="path3588" d="m247.81 3572.3h71.302"/>
  <path id="path3590" d="m250.21 3572.6h66.517"/>
  <path id="path3592" d="m252.6 3572.9h61.733"/>
  <path id="path3594" d="m254.99 3573.2h56.949"/>
  <path id="path3596" d="m257.38 3573.5h52.164"/>
  <path id="path3598" d="m261.82 3573.9h43.284"/>
  <path id="path3600" d="m269.04 3574.2h28.855"/>
  <path id="path3602" d="m276.25 3574.5h14.427"/>
 </g>
</svg>
