<?xml version="1.0" encoding="UTF-8"?>
<svg id="svg3408" width="566.93" height="452.94" version="1.1" viewBox="0 0 566.93 452.94" xmlns="http://www.w3.org/2000/svg">
 <g id="g3406" transform="translate(0 -2363.2)" fill="none" stroke="#000" stroke-width="4mm">
  <path id="path6" d="m0 2370.8h566.93"/>
  <path id="path8" d="m0.166 2371.1h566.6"/>
  <path id="path10" d="m0.333 2371.3h566.26"/>
  <path id="path12" d="m0.5 2371.6h565.93"/>
  <path id="path14" d="m0.667 2371.8h565.6"/>
  <path id="path16" d="m0.833 2372.1h565.26"/>
  <path id="path18" d="m1 2372.3h564.93"/>
  <path id="path20" d="m1.167 2372.6h564.6"/>
  <path id="path22" d="m1.334 2372.9h564.26"/>
  <path id="path24" d="m1.501 2373.1h563.93"/>
  <path id="path26" d="m1.667 2373.4h563.59"/>
  <path id="path28" d="m1.834 2373.6h563.26"/>
  <path id="path30" d="m2.001 2373.9h562.93"/>
  <path id="path32" d="m2.167 2374.1h562.59"/>
  <path id="path34" d="m2.334 2374.4h562.26"/>
  <path id="path36" d="m2.501 2374.7h561.93"/>
  <path id="path38" d="m2.668 2374.9h561.59"/>
  <path id="path40" d="m2.834 2375.2h561.26"/>
  <path id="path42" d="m3.001 2375.4h560.93"/>
  <path id="path44" d="m3.168 2375.7h560.59"/>
  <path id="path46" d="m3.335 2375.9h560.26"/>
  <path id="path48" d="m3.501 2376.2h559.93"/>
  <path id="path50" d="m3.668 2376.5h559.59"/>
  <path id="path52" d="m3.835 2376.7h559.26"/>
  <path id="path54" d="m4.002 2377h558.92"/>
  <path id="path56" d="m4.168 2377.2h558.59"/>
  <path id="path58" d="m4.335 2377.5h558.26"/>
  <path id="path60" d="m4.502 2377.8h557.92"/>
  <path id="path62" d="m4.669 2378h557.59"/>
  <path id="path64" d="m4.835 2378.3h557.26"/>
  <path id="path66" d="m5.002 2378.5h556.92"/>
  <path id="path68" d="m5.169 2378.8h556.59"/>
  <path id="path70" d="m5.335 2379h556.26"/>
  <path id="path72" d="m5.502 2379.3h555.92"/>
  <path id="path74" d="m5.669 2379.6h555.59"/>
  <path id="path76" d="m5.836 2379.8h555.26"/>
  <path id="path78" d="m6.003 2380.1h554.92"/>
  <path id="path80" d="m6.169 2380.3h554.59"/>
  <path id="path82" d="m6.336 2380.6h554.26"/>
  <path id="path84" d="m6.503 2380.8h553.92"/>
  <path id="path86" d="m6.67 2381.1h553.59"/>
  <path id="path88" d="m6.836 2381.4h553.26"/>
  <path id="path90" d="m7.003 2381.6h552.92"/>
  <path id="path92" d="m7.17 2381.9h552.59"/>
  <path id="path94" d="m7.336 2382.1h552.26"/>
  <path id="path96" d="m7.503 2382.4h551.92"/>
  <path id="path98" d="m7.67 2382.6h551.59"/>
  <path id="path100" d="m7.837 2382.9h551.26"/>
  <path id="path102" d="m8.003 2383.2h550.92"/>
  <path id="path104" d="m8.17 2383.4h550.59"/>
  <path id="path106" d="m8.337 2383.7h550.26"/>
  <path id="path108" d="m8.504 2383.9h549.92"/>
  <path id="path110" d="m8.671 2384.2h549.59"/>
  <path id="path112" d="m8.837 2384.5h549.25"/>
  <path id="path114" d="m9.004 2384.7h548.92"/>
  <path id="path116" d="m9.171 2385h548.59"/>
  <path id="path118" d="m9.337 2385.2h548.25"/>
  <path id="path120" d="m9.504 2385.5h547.92"/>
  <path id="path122" d="m9.671 2385.7h547.59"/>
  <path id="path124" d="m9.838 2386h547.25"/>
  <path id="path126" d="m10.004 2386.3h546.92"/>
  <path id="path128" d="m10.171 2386.5h546.59"/>
  <path id="path130" d="m10.338 2386.8h546.25"/>
  <path id="path132" d="m10.504 2387h545.92"/>
  <path id="path134" d="m10.672 2387.3h545.58"/>
  <path id="path136" d="m10.838 2387.5h545.25"/>
  <path id="path138" d="m11.005 2387.8h544.92"/>
  <path id="path140" d="m11.172 2388.1h544.58"/>
  <path id="path142" d="m11.338 2388.3h544.25"/>
  <path id="path144" d="m11.505 2388.6h543.92"/>
  <path id="path146" d="m11.672 2388.8h543.58"/>
  <path id="path148" d="m11.839 2389.1h543.25"/>
  <path id="path150" d="m12.005 2389.3h542.92"/>
  <path id="path152" d="m12.172 2389.6h542.58"/>
  <path id="path154" d="m12.339 2389.9h542.25"/>
  <path id="path156" d="m12.505 2390.1h541.92"/>
  <path id="path158" d="m12.672 2390.4h541.58"/>
  <path id="path160" d="m12.839 2390.6h541.25"/>
  <path id="path162" d="m13.006 2390.9h540.92"/>
  <path id="path164" d="m13.173 2391.2h540.58"/>
  <path id="path166" d="m13.339 2391.4h540.25"/>
  <path id="path168" d="m13.506 2391.7h539.92"/>
  <path id="path170" d="m13.673 2391.9h539.58"/>
  <path id="path172" d="m13.84 2392.2h539.25"/>
  <path id="path174" d="m14.006 2392.4h538.92"/>
  <path id="path176" d="m14.173 2392.7h538.58"/>
  <path id="path178" d="m14.34 2393h538.25"/>
  <path id="path180" d="m14.506 2393.2h537.92"/>
  <path id="path182" d="m14.673 2393.5h537.58"/>
  <path id="path184" d="m14.84 2393.7h537.25"/>
  <path id="path186" d="m15.007 2394h536.92"/>
  <path id="path188" d="m15.173 2394.2h536.58"/>
  <path id="path190" d="m15.34 2394.5h536.25"/>
  <path id="path192" d="m15.507 2394.8h535.92"/>
  <path id="path194" d="m15.674 2395h535.58"/>
  <path id="path196" d="m15.841 2395.3h535.25"/>
  <path id="path198" d="m16.007 2395.5h534.92"/>
  <path id="path200" d="m16.174 2395.8h534.58"/>
  <path id="path202" d="m16.341 2396h534.25"/>
  <path id="path204" d="m16.507 2396.3h533.91"/>
  <path id="path206" d="m16.674 2396.6h533.58"/>
  <path id="path208" d="m16.841 2396.8h533.25"/>
  <path id="path210" d="m17.008 2397.1h532.91"/>
  <path id="path212" d="m17.174 2397.3h532.58"/>
  <path id="path214" d="m17.341 2397.6h532.25"/>
  <path id="path216" d="m17.508 2397.9h531.91"/>
  <path id="path218" d="m17.674 2398.1h531.58"/>
  <path id="path220" d="m17.842 2398.4h531.24"/>
  <path id="path222" d="m18.008 2398.6h530.91"/>
  <path id="path224" d="m18.175 2398.9h530.58"/>
  <path id="path226" d="m18.342 2399.1h530.24"/>
  <path id="path228" d="m18.508 2399.4h529.91"/>
  <path id="path230" d="m18.675 2399.7h529.58"/>
  <path id="path232" d="m18.842 2399.9h529.24"/>
  <path id="path234" d="m19.009 2400.2h528.91"/>
  <path id="path236" d="m19.175 2400.4h528.58"/>
  <path id="path238" d="m19.342 2400.7h528.24"/>
  <path id="path240" d="m19.509 2400.9h527.91"/>
  <path id="path242" d="m19.675 2401.2h527.58"/>
  <path id="path244" d="m19.842 2401.5h527.24"/>
  <path id="path246" d="m20.009 2401.7h526.91"/>
  <path id="path248" d="m20.176 2402h526.58"/>
  <path id="path250" d="m20.343 2402.2h526.24"/>
  <path id="path252" d="m20.509 2402.5h525.91"/>
  <path id="path254" d="m20.676 2402.7h525.58"/>
  <path id="path256" d="m20.843 2403h525.24"/>
  <path id="path258" d="m21.01 2403.3h524.91"/>
  <path id="path260" d="m21.176 2403.5h524.58"/>
  <path id="path262" d="m21.343 2403.8h524.24"/>
  <path id="path264" d="m21.51 2404h523.91"/>
  <path id="path266" d="m21.676 2404.3h523.58"/>
  <path id="path268" d="m21.843 2404.6h523.24"/>
  <path id="path270" d="m22.01 2404.8h522.91"/>
  <path id="path272" d="m22.177 2405.1h522.58"/>
  <path id="path274" d="m22.343 2405.3h522.24"/>
  <path id="path276" d="m22.51 2405.6h521.91"/>
  <path id="path278" d="m22.677 2405.8h521.58"/>
  <path id="path280" d="m22.844 2406.1h521.24"/>
  <path id="path282" d="m23.011 2406.4h520.91"/>
  <path id="path284" d="m23.177 2406.6h520.58"/>
  <path id="path286" d="m23.344 2406.9h520.24"/>
  <path id="path288" d="m23.511 2407.1h519.91"/>
  <path id="path290" d="m23.677 2407.4h519.57"/>
  <path id="path292" d="m23.844 2407.6h519.24"/>
  <path id="path294" d="m24.011 2407.9h518.91"/>
  <path id="path296" d="m24.178 2408.2h518.57"/>
  <path id="path298" d="m24.344 2408.4h518.24"/>
  <path id="path300" d="m24.511 2408.7h517.91"/>
  <path id="path302" d="m24.678 2408.9h517.57"/>
  <path id="path304" d="m24.845 2409.2h517.24"/>
  <path id="path306" d="m25.011 2409.4h516.91"/>
  <path id="path308" d="m25.178 2409.7h516.57"/>
  <path id="path310" d="m25.345 2410h516.24"/>
  <path id="path312" d="m25.512 2410.2h515.9"/>
  <path id="path314" d="m25.678 2410.5h515.57"/>
  <path id="path316" d="m25.845 2410.7h515.24"/>
  <path id="path318" d="m26.012 2411h514.9"/>
  <path id="path320" d="m26.179 2411.3h514.57"/>
  <path id="path322" d="m26.345 2411.5h514.24"/>
  <path id="path324" d="m26.512 2411.8h513.9"/>
  <path id="path326" d="m26.679 2412h513.57"/>
  <path id="path328" d="m26.845 2412.3h513.24"/>
  <path id="path330" d="m27.012 2412.5h512.9"/>
  <path id="path332" d="m27.179 2412.8h512.57"/>
  <path id="path334" d="m27.346 2413.1h512.24"/>
  <path id="path336" d="m27.513 2413.3h511.9"/>
  <path id="path338" d="m27.679 2413.6h511.57"/>
  <path id="path340" d="m27.846 2413.8h511.24"/>
  <path id="path342" d="m28.013 2414.1h510.9"/>
  <path id="path344" d="m28.18 2414.3h510.57"/>
  <path id="path346" d="m28.346 2414.6h510.24"/>
  <path id="path348" d="m28.513 2414.9h509.9"/>
  <path id="path350" d="m28.68 2415.1h509.57"/>
  <path id="path352" d="m28.846 2415.4h509.24"/>
  <path id="path354" d="m29.013 2415.6h508.9"/>
  <path id="path356" d="m29.18 2415.9h508.57"/>
  <path id="path358" d="m29.347 2416.1h508.24"/>
  <path id="path360" d="m29.513 2416.4h507.9"/>
  <path id="path362" d="m29.68 2416.7h507.57"/>
  <path id="path364" d="m29.847 2416.9h507.24"/>
  <path id="path366" d="m30.014 2417.2h506.9"/>
  <path id="path368" d="m30.18 2417.4h506.57"/>
  <path id="path370" d="m30.347 2417.7h506.24"/>
  <path id="path372" d="m30.514 2418h505.9"/>
  <path id="path374" d="m30.681 2418.2h505.57"/>
  <path id="path376" d="m30.847 2418.5h505.23"/>
  <path id="path378" d="m31.014 2418.7h504.9"/>
  <path id="path380" d="m31.181 2419h504.57"/>
  <path id="path382" d="m31.348 2419.2h504.23"/>
  <path id="path384" d="m31.514 2419.5h503.9"/>
  <path id="path386" d="m31.681 2419.8h503.57"/>
  <path id="path388" d="m31.848 2420h503.23"/>
  <path id="path390" d="m32.015 2420.3h502.9"/>
  <path id="path392" d="m32.181 2420.5h502.57"/>
  <path id="path394" d="m32.348 2420.8h502.23"/>
  <path id="path396" d="m32.515 2421h501.9"/>
  <path id="path398" d="m32.682 2421.3h501.56"/>
  <path id="path400" d="m32.848 2421.6h501.23"/>
  <path id="path402" d="m33.015 2421.8h500.9"/>
  <path id="path404" d="m33.182 2422.1h500.56"/>
  <path id="path406" d="m33.349 2422.3h500.23"/>
  <path id="path408" d="m33.515 2422.6h499.9"/>
  <path id="path410" d="m33.682 2422.8h499.56"/>
  <path id="path412" d="m33.849 2423.1h499.23"/>
  <path id="path414" d="m34.015 2423.4h498.9"/>
  <path id="path416" d="m34.182 2423.6h498.56"/>
  <path id="path418" d="m34.349 2423.9h498.23"/>
  <path id="path420" d="m34.516 2424.1h497.9"/>
  <path id="path422" d="m34.683 2424.4h497.56"/>
  <path id="path424" d="m34.849 2424.7h497.23"/>
  <path id="path426" d="m35.016 2424.9h496.9"/>
  <path id="path428" d="m35.183 2425.2h496.56"/>
  <path id="path430" d="m35.349 2425.4h496.23"/>
  <path id="path432" d="m35.516 2425.7h495.9"/>
  <path id="path434" d="m35.683 2425.9h495.56"/>
  <path id="path436" d="m35.85 2426.2h495.23"/>
  <path id="path438" d="m36.016 2426.5h494.9"/>
  <path id="path440" d="m36.183 2426.7h494.56"/>
  <path id="path442" d="m36.35 2427h494.23"/>
  <path id="path444" d="m36.517 2427.2h493.9"/>
  <path id="path446" d="m36.684 2427.5h493.56"/>
  <path id="path448" d="m36.85 2427.7h493.23"/>
  <path id="path450" d="m37.017 2428h492.9"/>
  <path id="path452" d="m37.184 2428.3h492.56"/>
  <path id="path454" d="m37.35 2428.5h492.23"/>
  <path id="path456" d="m37.517 2428.8h491.9"/>
  <path id="path458" d="m37.684 2429h491.56"/>
  <path id="path460" d="m37.851 2429.3h491.23"/>
  <path id="path462" d="m38.017 2429.5h490.89"/>
  <path id="path464" d="m38.184 2429.8h490.56"/>
  <path id="path466" d="m38.351 2430.1h490.23"/>
  <path id="path468" d="m38.518 2430.3h489.89"/>
  <path id="path470" d="m38.684 2430.6h489.56"/>
  <path id="path472" d="m38.851 2430.8h489.23"/>
  <path id="path474" d="m39.018 2431.1h488.89"/>
  <path id="path476" d="m39.185 2431.4h488.56"/>
  <path id="path478" d="m39.351 2431.6h488.23"/>
  <path id="path480" d="m39.518 2431.9h487.89"/>
  <path id="path482" d="m39.685 2432.1h487.56"/>
  <path id="path484" d="m39.852 2432.4h487.22"/>
  <path id="path486" d="m40.018 2432.6h486.89"/>
  <path id="path488" d="m40.185 2432.9h486.56"/>
  <path id="path490" d="m40.352 2433.2h486.22"/>
  <path id="path492" d="m40.518 2433.4h485.89"/>
  <path id="path494" d="m40.685 2433.7h485.56"/>
  <path id="path496" d="m40.852 2433.9h485.22"/>
  <path id="path498" d="m41.019 2434.2h484.89"/>
  <path id="path500" d="m41.185 2434.4h484.56"/>
  <path id="path502" d="m41.352 2434.7h484.22"/>
  <path id="path504" d="m41.519 2435h483.89"/>
  <path id="path506" d="m41.686 2435.2h483.56"/>
  <path id="path508" d="m41.853 2435.5h483.22"/>
  <path id="path510" d="m42.019 2435.7h482.89"/>
  <path id="path512" d="m42.186 2436h482.56"/>
  <path id="path514" d="m42.353 2436.2h482.22"/>
  <path id="path516" d="m42.519 2436.5h481.89"/>
  <path id="path518" d="m42.686 2436.8h481.56"/>
  <path id="path520" d="m42.853 2437h481.22"/>
  <path id="path522" d="m43.02 2437.3h480.89"/>
  <path id="path524" d="m43.186 2437.5h480.56"/>
  <path id="path526" d="m43.353 2437.8h480.22"/>
  <path id="path528" d="m43.52 2438.1h479.89"/>
  <path id="path530" d="m43.687 2438.3h479.56"/>
  <path id="path532" d="m43.854 2438.6h479.22"/>
  <path id="path534" d="m44.02 2438.8h478.89"/>
  <path id="path536" d="m44.187 2439.1h478.56"/>
  <path id="path538" d="m44.354 2439.3h478.22"/>
  <path id="path540" d="m44.52 2439.6h477.89"/>
  <path id="path542" d="m44.687 2439.9h477.56"/>
  <path id="path544" d="m44.854 2440.1h477.22"/>
  <path id="path546" d="m45.021 2440.4h476.89"/>
  <path id="path548" d="m45.187 2440.6h476.55"/>
  <path id="path550" d="m45.354 2440.9h476.22"/>
  <path id="path552" d="m45.521 2441.1h475.89"/>
  <path id="path554" d="m45.687 2441.4h475.55"/>
  <path id="path556" d="m45.854 2441.7h475.22"/>
  <path id="path558" d="m46.021 2441.9h474.89"/>
  <path id="path560" d="m46.188 2442.2h474.55"/>
  <path id="path562" d="m46.355 2442.4h474.22"/>
  <path id="path564" d="m46.521 2442.7h473.89"/>
  <path id="path566" d="m46.688 2443h473.55"/>
  <path id="path568" d="m46.855 2443.2h473.22"/>
  <path id="path570" d="m47.022 2443.5h472.88"/>
  <path id="path572" d="m47.188 2443.7h472.55"/>
  <path id="path574" d="m47.355 2444h472.22"/>
  <path id="path576" d="m47.522 2444.2h471.88"/>
  <path id="path578" d="m47.688 2444.5h471.55"/>
  <path id="path580" d="m47.855 2444.8h471.22"/>
  <path id="path582" d="m48.022 2445h470.88"/>
  <path id="path584" d="m48.189 2445.3h470.55"/>
  <path id="path586" d="m48.355 2445.5h470.22"/>
  <path id="path588" d="m48.522 2445.8h469.88"/>
  <path id="path590" d="m48.689 2446h469.55"/>
  <path id="path592" d="m48.856 2446.3h469.22"/>
  <path id="path594" d="m49.023 2446.6h468.88"/>
  <path id="path596" d="m49.189 2446.8h468.55"/>
  <path id="path598" d="m49.356 2447.1h468.22"/>
  <path id="path600" d="m49.523 2447.3h467.88"/>
  <path id="path602" d="m49.689 2447.6h467.55"/>
  <path id="path604" d="m49.856 2447.8h467.22"/>
  <path id="path606" d="m50.023 2448.1h466.88"/>
  <path id="path608" d="m50.19 2448.4h466.55"/>
  <path id="path610" d="m50.356 2448.6h466.22"/>
  <path id="path612" d="m50.523 2448.9h465.88"/>
  <path id="path614" d="m50.69 2449.1h465.55"/>
  <path id="path616" d="m50.857 2449.4h465.22"/>
  <path id="path618" d="m51.024 2449.6h464.88"/>
  <path id="path620" d="m51.19 2449.9h464.55"/>
  <path id="path622" d="m51.357 2450.2h464.22"/>
  <path id="path624" d="m51.524 2450.4h463.88"/>
  <path id="path626" d="m51.69 2450.7h463.55"/>
  <path id="path628" d="m51.857 2450.9h463.22"/>
  <path id="path630" d="m52.024 2451.2h462.88"/>
  <path id="path632" d="m52.191 2451.5h462.55"/>
  <path id="path634" d="m52.357 2451.7h462.21"/>
  <path id="path636" d="m52.524 2452h461.88"/>
  <path id="path638" d="m52.691 2452.2h461.55"/>
  <path id="path640" d="m52.857 2452.5h461.21"/>
  <path id="path642" d="m53.024 2452.7h460.88"/>
  <path id="path644" d="m53.191 2453h460.55"/>
  <path id="path646" d="m53.358 2453.3h460.21"/>
  <path id="path648" d="m53.525 2453.5h459.88"/>
  <path id="path650" d="m53.691 2453.8h459.55"/>
  <path id="path652" d="m53.858 2454h459.21"/>
  <path id="path654" d="m54.025 2454.3h458.88"/>
  <path id="path656" d="m54.192 2454.5h458.54"/>
  <path id="path658" d="m54.358 2454.8h458.21"/>
  <path id="path660" d="m54.525 2455.1h457.88"/>
  <path id="path662" d="m54.692 2455.3h457.54"/>
  <path id="path664" d="m54.858 2455.6h457.21"/>
  <path id="path666" d="m55.025 2455.8h456.88"/>
  <path id="path668" d="m55.192 2456.1h456.54"/>
  <path id="path670" d="m55.359 2456.4h456.21"/>
  <path id="path672" d="m55.526 2456.6h455.88"/>
  <path id="path674" d="m55.692 2456.9h455.54"/>
  <path id="path676" d="m55.859 2457.1h455.21"/>
  <path id="path678" d="m56.026 2457.4h454.88"/>
  <path id="path680" d="m56.193 2457.6h454.54"/>
  <path id="path682" d="m56.359 2457.9h454.21"/>
  <path id="path684" d="m56.526 2458.2h453.88"/>
  <path id="path686" d="m56.693 2458.4h453.54"/>
  <path id="path688" d="m56.859 2458.7h453.21"/>
  <path id="path690" d="m57.026 2458.9h452.88"/>
  <path id="path692" d="m57.193 2459.2h452.54"/>
  <path id="path694" d="m57.36 2459.4h452.21"/>
  <path id="path696" d="m57.526 2459.7h451.88"/>
  <path id="path698" d="m57.693 2460h451.54"/>
  <path id="path700" d="m57.86 2460.2h451.21"/>
  <path id="path702" d="m58.027 2460.5h450.88"/>
  <path id="path704" d="m58.194 2460.7h450.54"/>
  <path id="path706" d="m58.36 2461h450.21"/>
  <path id="path708" d="m58.527 2461.2h449.88"/>
  <path id="path710" d="m58.694 2461.5h449.54"/>
  <path id="path712" d="m58.86 2461.8h449.21"/>
  <path id="path714" d="m59.027 2462h448.88"/>
  <path id="path716" d="m59.194 2462.3h448.54"/>
  <path id="path718" d="m59.361 2462.5h448.21"/>
  <path id="path720" d="m59.527 2462.8h447.87"/>
  <path id="path722" d="m59.694 2463h447.54"/>
  <path id="path724" d="m59.861 2463.3h447.21"/>
  <path id="path726" d="m60.027 2463.6h446.87"/>
  <path id="path728" d="m60.194 2463.8h446.54"/>
  <path id="path730" d="m60.361 2464.1h446.21"/>
  <path id="path732" d="m60.528 2464.3h445.87"/>
  <path id="path734" d="m60.695 2464.6h445.54"/>
  <path id="path736" d="m60.861 2464.9h445.21"/>
  <path id="path738" d="m61.028 2465.1h444.87"/>
  <path id="path740" d="m61.195 2465.4h444.54"/>
  <path id="path742" d="m61.362 2465.6h444.2"/>
  <path id="path744" d="m61.528 2465.9h443.87"/>
  <path id="path746" d="m61.695 2466.1h443.54"/>
  <path id="path748" d="m61.862 2466.4h443.2"/>
  <path id="path750" d="m62.028 2466.7h442.87"/>
  <path id="path752" d="m62.195 2466.9h442.54"/>
  <path id="path754" d="m62.362 2467.2h442.2"/>
  <path id="path756" d="m62.529 2467.4h441.87"/>
  <path id="path758" d="m62.696 2467.7h441.54"/>
  <path id="path760" d="m62.862 2467.9h441.2"/>
  <path id="path762" d="m63.029 2468.2h440.87"/>
  <path id="path764" d="m63.196 2468.5h440.54"/>
  <path id="path766" d="m63.363 2468.7h440.2"/>
  <path id="path768" d="m63.529 2469h439.87"/>
  <path id="path770" d="m63.696 2469.2h439.54"/>
  <path id="path772" d="m63.863 2469.5h439.2"/>
  <path id="path774" d="m64.029 2469.8h438.87"/>
  <path id="path776" d="m64.196 2470h438.54"/>
  <path id="path778" d="m64.363 2470.3h438.2"/>
  <path id="path780" d="m64.53 2470.5h437.87"/>
  <path id="path782" d="m64.696 2470.8h437.54"/>
  <path id="path784" d="m64.863 2471h437.2"/>
  <path id="path786" d="m65.03 2471.3h436.87"/>
  <path id="path788" d="m65.197 2471.6h436.54"/>
  <path id="path790" d="m65.363 2471.8h436.2"/>
  <path id="path792" d="m65.53 2472.1h435.87"/>
  <path id="path794" d="m65.697 2472.3h435.54"/>
  <path id="path796" d="m65.864 2472.6h435.2"/>
  <path id="path798" d="m66.03 2472.8h434.87"/>
  <path id="path800" d="m66.197 2473.1h434.54"/>
  <path id="path802" d="m66.364 2473.4h434.2"/>
  <path id="path804" d="m66.531 2473.6h433.87"/>
  <path id="path806" d="m66.697 2473.9h433.54"/>
  <path id="path808" d="m66.864 2474.1h433.2"/>
  <path id="path810" d="m67.031 2474.4h432.87"/>
  <path id="path812" d="m67.197 2474.6h432.53"/>
  <path id="path814" d="m67.364 2474.9h432.2"/>
  <path id="path816" d="m67.531 2475.2h431.87"/>
  <path id="path818" d="m67.698 2475.4h431.53"/>
  <path id="path820" d="m67.865 2475.7h431.2"/>
  <path id="path822" d="m68.031 2475.9h430.87"/>
  <path id="path824" d="m68.198 2476.2h430.53"/>
  <path id="path826" d="m68.365 2476.4h430.2"/>
  <path id="path828" d="m68.532 2476.7h429.86"/>
  <path id="path830" d="m68.698 2477h429.53"/>
  <path id="path832" d="m68.865 2477.2h429.2"/>
  <path id="path834" d="m69.032 2477.5h428.86"/>
  <path id="path836" d="m69.198 2477.7h428.53"/>
  <path id="path838" d="m69.365 2478h428.2"/>
  <path id="path840" d="m69.532 2478.3h427.86"/>
  <path id="path842" d="m69.699 2478.5h427.53"/>
  <path id="path844" d="m69.866 2478.8h427.2"/>
  <path id="path846" d="m70.032 2479h426.86"/>
  <path id="path848" d="m70.199 2479.3h426.53"/>
  <path id="path850" d="m70.366 2479.5h426.2"/>
  <path id="path852" d="m70.532 2479.8h425.86"/>
  <path id="path854" d="m70.699 2480.1h425.53"/>
  <path id="path856" d="m70.866 2480.3h425.2"/>
  <path id="path858" d="m71.033 2480.6h424.86"/>
  <path id="path860" d="m71.199 2480.8h424.53"/>
  <path id="path862" d="m71.366 2481.1h424.2"/>
  <path id="path864" d="m71.533 2481.3h423.86"/>
  <path id="path866" d="m71.7 2481.6h423.53"/>
  <path id="path868" d="m71.866 2481.9h423.2"/>
  <path id="path870" d="m72.033 2482.1h422.86"/>
  <path id="path872" d="m72.2 2482.4h422.53"/>
  <path id="path874" d="m72.367 2482.6h422.2"/>
  <path id="path876" d="m72.533 2482.9h421.86"/>
  <path id="path878" d="m72.7 2483.2h421.53"/>
  <path id="path880" d="m72.867 2483.4h421.2"/>
  <path id="path882" d="m73.034 2483.7h420.86"/>
  <path id="path884" d="m73.2 2483.9h420.53"/>
  <path id="path886" d="m73.367 2484.2h420.2"/>
  <path id="path888" d="m73.534 2484.4h419.86"/>
  <path id="path890" d="m73.701 2484.7h419.53"/>
  <path id="path892" d="m73.867 2485h419.2"/>
  <path id="path894" d="m74.034 2485.2h418.86"/>
  <path id="path896" d="m74.201 2485.5h418.53"/>
  <path id="path898" d="m74.367 2485.7h418.19"/>
  <path id="path900" d="m74.534 2486h417.86"/>
  <path id="path902" d="m74.701 2486.2h417.53"/>
  <path id="path904" d="m74.868 2486.5h417.19"/>
  <path id="path906" d="m75.035 2486.8h416.86"/>
  <path id="path908" d="m75.201 2487h416.53"/>
  <path id="path910" d="m75.368 2487.3h416.19"/>
  <path id="path912" d="m75.535 2487.5h415.86"/>
  <path id="path914" d="m75.701 2487.8h415.53"/>
  <path id="path916" d="m75.868 2488h415.19"/>
  <path id="path918" d="m76.035 2488.3h414.86"/>
  <path id="path920" d="m76.202 2488.6h414.52"/>
  <path id="path922" d="m76.368 2488.8h414.19"/>
  <path id="path924" d="m76.535 2489.1h413.86"/>
  <path id="path926" d="m76.702 2489.3h413.52"/>
  <path id="path928" d="m76.869 2489.6h413.19"/>
  <path id="path930" d="m77.036 2489.8h412.86"/>
  <path id="path932" d="m77.202 2490.1h412.52"/>
  <path id="path934" d="m77.369 2490.4h412.19"/>
  <path id="path936" d="m77.536 2490.6h411.86"/>
  <path id="path938" d="m77.702 2490.9h411.52"/>
  <path id="path940" d="m77.869 2491.1h411.19"/>
  <path id="path942" d="m78.036 2491.4h410.86"/>
  <path id="path944" d="m78.203 2491.7h410.52"/>
  <path id="path946" d="m78.369 2491.9h410.19"/>
  <path id="path948" d="m78.536 2492.2h409.86"/>
  <path id="path950" d="m78.703 2492.4h409.52"/>
  <path id="path952" d="m78.87 2492.7h409.19"/>
  <path id="path954" d="m79.036 2492.9h408.86"/>
  <path id="path956" d="m79.203 2493.2h408.52"/>
  <path id="path958" d="m79.37 2493.5h408.19"/>
  <path id="path960" d="m79.537 2493.7h407.86"/>
  <path id="path962" d="m79.703 2494h407.52"/>
  <path id="path964" d="m79.87 2494.2h407.19"/>
  <path id="path966" d="m80.037 2494.5h406.86"/>
  <path id="path968" d="m80.204 2494.7h406.52"/>
  <path id="path970" d="m80.37 2495h406.19"/>
  <path id="path972" d="m80.537 2495.3h405.86"/>
  <path id="path974" d="m80.704 2495.5h405.52"/>
  <path id="path976" d="m80.87 2495.8h405.19"/>
  <path id="path978" d="m81.037 2496h404.86"/>
  <path id="path980" d="m81.204 2496.3h404.52"/>
  <path id="path982" d="m81.371 2496.6h404.19"/>
  <path id="path984" d="m81.538 2496.8h403.85"/>
  <path id="path986" d="m81.704 2497.1h403.52"/>
  <path id="path988" d="m81.871 2497.3h403.19"/>
  <path id="path990" d="m82.038 2497.6h402.85"/>
  <path id="path992" d="m82.205 2497.8h402.52"/>
  <path id="path994" d="m82.371 2498.1h402.19"/>
  <path id="path996" d="m82.538 2498.4h401.85"/>
  <path id="path998" d="m82.705 2498.6h401.52"/>
  <path id="path1000" d="m82.871 2498.9h401.19"/>
  <path id="path1002" d="m83.038 2499.1h400.85"/>
  <path id="path1004" d="m83.205 2499.4h400.52"/>
  <path id="path1006" d="m83.372 2499.6h400.18"/>
  <path id="path1008" d="m83.538 2499.9h399.85"/>
  <path id="path1010" d="m83.705 2500.2h399.52"/>
  <path id="path1012" d="m83.872 2500.4h399.18"/>
  <path id="path1014" d="m84.039 2500.7h398.85"/>
  <path id="path1016" d="m84.206 2500.9h398.52"/>
  <path id="path1018" d="m84.372 2501.2h398.18"/>
  <path id="path1020" d="m84.539 2501.4h397.85"/>
  <path id="path1022" d="m84.706 2501.7h397.52"/>
  <path id="path1024" d="m84.872 2502h397.18"/>
  <path id="path1026" d="m85.039 2502.2h396.85"/>
  <path id="path1028" d="m85.206 2502.5h396.52"/>
  <path id="path1030" d="m85.373 2502.7h396.18"/>
  <path id="path1032" d="m85.539 2503h395.85"/>
  <path id="path1034" d="m85.706 2503.2h395.52"/>
  <path id="path1036" d="m85.873 2503.5h395.18"/>
  <path id="path1038" d="m86.039 2503.8h394.85"/>
  <path id="path1040" d="m86.206 2504h394.52"/>
  <path id="path1042" d="m86.373 2504.3h394.18"/>
  <path id="path1044" d="m86.54 2504.5h393.85"/>
  <path id="path1046" d="m86.707 2504.8h393.52"/>
  <path id="path1048" d="m86.873 2505.1h393.18"/>
  <path id="path1050" d="m87.04 2505.3h392.85"/>
  <path id="path1052" d="m87.207 2505.6h392.52"/>
  <path id="path1054" d="m87.374 2505.8h392.18"/>
  <path id="path1056" d="m87.54 2506.1h391.85"/>
  <path id="path1058" d="m87.707 2506.3h391.52"/>
  <path id="path1060" d="m87.874 2506.6h391.18"/>
  <path id="path1062" d="m88.04 2506.9h390.85"/>
  <path id="path1064" d="m88.207 2507.1h390.52"/>
  <path id="path1066" d="m88.374 2507.4h390.18"/>
  <path id="path1068" d="m88.541 2507.6h389.85"/>
  <path id="path1070" d="m88.708 2507.9h389.51"/>
  <path id="path1072" d="m88.874 2508.1h389.18"/>
  <path id="path1074" d="m89.041 2508.4h388.85"/>
  <path id="path1076" d="m89.208 2508.7h388.51"/>
  <path id="path1078" d="m89.375 2508.9h388.18"/>
  <path id="path1080" d="m89.541 2509.2h387.85"/>
  <path id="path1082" d="m89.708 2509.4h387.51"/>
  <path id="path1084" d="m89.875 2509.7h387.18"/>
  <path id="path1086" d="m90.041 2510h386.85"/>
  <path id="path1088" d="m90.208 2510.2h386.51"/>
  <path id="path1090" d="m90.375 2510.5h386.18"/>
  <path id="path1092" d="m90.542 2510.7h385.84"/>
  <path id="path1094" d="m90.708 2511h385.51"/>
  <path id="path1096" d="m90.875 2511.2h385.18"/>
  <path id="path1098" d="m91.042 2511.5h384.84"/>
  <path id="path1100" d="m91.209 2511.8h384.51"/>
  <path id="path1102" d="m91.376 2512h384.18"/>
  <path id="path1104" d="m91.542 2512.3h383.84"/>
  <path id="path1106" d="m91.709 2512.5h383.51"/>
  <path id="path1108" d="m91.876 2512.8h383.18"/>
  <path id="path1110" d="m92.042 2513h382.84"/>
  <path id="path1112" d="m92.209 2513.3h382.51"/>
  <path id="path1114" d="m92.376 2513.6h382.18"/>
  <path id="path1116" d="m92.543 2513.8h381.84"/>
  <path id="path1118" d="m92.709 2514.1h381.51"/>
  <path id="path1120" d="m92.876 2514.3h381.18"/>
  <path id="path1122" d="m93.043 2514.6h380.84"/>
  <path id="path1124" d="m93.209 2514.8h380.51"/>
  <path id="path1126" d="m93.377 2515.1h380.18"/>
  <path id="path1128" d="m93.543 2515.4h379.84"/>
  <path id="path1130" d="m93.71 2515.6h379.51"/>
  <path id="path1132" d="m93.877 2515.9h379.18"/>
  <path id="path1134" d="m94.043 2516.1h378.84"/>
  <path id="path1136" d="m94.21 2516.4h378.51"/>
  <path id="path1138" d="m94.377 2516.6h378.18"/>
  <path id="path1140" d="m94.544 2516.9h377.84"/>
  <path id="path1142" d="m94.71 2517.2h377.51"/>
  <path id="path1144" d="m94.877 2517.4h377.18"/>
  <path id="path1146" d="m95.044 2517.7h376.84"/>
  <path id="path1148" d="m95.21 2517.9h376.51"/>
  <path id="path1150" d="m95.377 2518.2h376.18"/>
  <path id="path1152" d="m95.544 2518.5h375.84"/>
  <path id="path1154" d="m95.711 2518.7h375.51"/>
  <path id="path1156" d="m95.878 2519h375.17"/>
  <path id="path1158" d="m96.044 2519.2h374.84"/>
  <path id="path1160" d="m96.211 2519.5h374.51"/>
  <path id="path1162" d="m96.378 2519.7h374.17"/>
  <path id="path1164" d="m96.545 2520h373.84"/>
  <path id="path1166" d="m96.711 2520.3h373.51"/>
  <path id="path1168" d="m96.878 2520.5h373.17"/>
  <path id="path1170" d="m97.045 2520.8h372.84"/>
  <path id="path1172" d="m97.211 2521h372.51"/>
  <path id="path1174" d="m97.378 2521.3h372.17"/>
  <path id="path1176" d="m97.545 2521.5h371.84"/>
  <path id="path1178" d="m97.712 2521.8h371.5"/>
  <path id="path1180" d="m97.878 2522.1h371.17"/>
  <path id="path1182" d="m98.045 2522.3h370.84"/>
  <path id="path1184" d="m98.212 2522.6h370.5"/>
  <path id="path1186" d="m98.379 2522.8h370.17"/>
  <path id="path1188" d="m98.546 2523.1h369.84"/>
  <path id="path1190" d="m98.712 2523.4h369.5"/>
  <path id="path1192" d="m98.879 2523.6h369.17"/>
  <path id="path1194" d="m99.046 2523.9h368.84"/>
  <path id="path1196" d="m99.212 2524.1h368.5"/>
  <path id="path1198" d="m99.379 2524.4h368.17"/>
  <path id="path1200" d="m99.546 2524.6h367.84"/>
  <path id="path1202" d="m99.713 2524.9h367.5"/>
  <path id="path1204" d="m99.879 2525.2h367.17"/>
  <path id="path1206" d="m100.05 2525.4h366.84"/>
  <path id="path1208" d="m100.21 2525.7h366.5"/>
  <path id="path1210" d="m100.38 2525.9h366.17"/>
  <path id="path1212" d="m100.55 2526.2h365.84"/>
  <path id="path1214" d="m100.71 2526.4h365.5"/>
  <path id="path1216" d="m100.88 2526.7h365.17"/>
  <path id="path1218" d="m101.05 2527h364.84"/>
  <path id="path1220" d="m101.21 2527.2h364.5"/>
  <path id="path1222" d="m101.38 2527.5h364.17"/>
  <path id="path1224" d="m101.55 2527.7h363.84"/>
  <path id="path1226" d="m101.71 2528h363.5"/>
  <path id="path1228" d="m101.88 2528.2h363.17"/>
  <path id="path1230" d="m102.05 2528.5h362.84"/>
  <path id="path1232" d="m102.21 2528.8h362.5"/>
  <path id="path1234" d="m102.38 2529h362.17"/>
  <path id="path1236" d="m102.55 2529.3h361.84"/>
  <path id="path1238" d="m102.71 2529.5h361.5"/>
  <path id="path1240" d="m102.88 2529.8h361.17"/>
  <path id="path1242" d="m103.05 2530h360.83"/>
  <path id="path1244" d="m103.21 2530.3h360.5"/>
  <path id="path1246" d="m103.38 2530.6h360.17"/>
  <path id="path1248" d="m103.55 2530.8h359.83"/>
  <path id="path1250" d="m103.72 2531.1h359.5"/>
  <path id="path1252" d="m103.88 2531.3h359.17"/>
  <path id="path1254" d="m104.05 2531.6h358.83"/>
  <path id="path1256" d="m104.22 2531.9h358.5"/>
  <path id="path1258" d="m104.38 2532.1h358.17"/>
  <path id="path1260" d="m104.55 2532.4h357.83"/>
  <path id="path1262" d="m104.72 2532.6h357.5"/>
  <path id="path1264" d="m104.88 2532.9h357.16"/>
  <path id="path1266" d="m105.05 2533.1h356.83"/>
  <path id="path1268" d="m105.22 2533.4h356.5"/>
  <path id="path1270" d="m105.38 2533.7h356.16"/>
  <path id="path1272" d="m105.55 2533.9h355.83"/>
  <path id="path1274" d="m105.72 2534.2h355.5"/>
  <path id="path1276" d="m105.88 2534.4h355.16"/>
  <path id="path1278" d="m106.05 2534.7h354.83"/>
  <path id="path1280" d="m106.22 2534.9h354.5"/>
  <path id="path1282" d="m106.38 2535.2h354.16"/>
  <path id="path1284" d="m106.55 2535.5h353.83"/>
  <path id="path1286" d="m106.72 2535.7h353.5"/>
  <path id="path1288" d="m106.88 2536h353.16"/>
  <path id="path1290" d="m107.05 2536.2h352.83"/>
  <path id="path1292" d="m107.22 2536.5h352.5"/>
  <path id="path1294" d="m107.38 2536.8h352.16"/>
  <path id="path1296" d="m107.55 2537h351.83"/>
  <path id="path1298" d="m107.72 2537.3h351.5"/>
  <path id="path1300" d="m107.88 2537.5h351.16"/>
  <path id="path1302" d="m108.05 2537.8h350.83"/>
  <path id="path1304" d="m108.22 2538h350.5"/>
  <path id="path1306" d="m108.38 2538.3h350.16"/>
  <path id="path1308" d="m108.55 2538.6h349.83"/>
  <path id="path1310" d="m108.72 2538.8h349.5"/>
  <path id="path1312" d="m108.88 2539.1h349.16"/>
  <path id="path1314" d="m109.05 2539.3h348.83"/>
  <path id="path1316" d="m109.22 2539.6h348.5"/>
  <path id="path1318" d="m109.38 2539.8h348.16"/>
  <path id="path1320" d="m109.55 2540.1h347.83"/>
  <path id="path1322" d="m109.72 2540.4h347.5"/>
  <path id="path1324" d="m109.88 2540.6h347.16"/>
  <path id="path1326" d="m110.05 2540.9h346.83"/>
  <path id="path1328" d="m110.22 2541.1h346.49"/>
  <path id="path1330" d="m110.38 2541.4h346.16"/>
  <path id="path1332" d="m110.55 2541.6h345.83"/>
  <path id="path1334" d="m110.72 2541.9h345.49"/>
  <path id="path1336" d="m110.88 2542.2h345.16"/>
  <path id="path1338" d="m111.05 2542.4h344.83"/>
  <path id="path1340" d="m111.22 2542.7h344.49"/>
  <path id="path1342" d="m111.38 2542.9h344.16"/>
  <path id="path1344" d="m111.55 2543.2h343.83"/>
  <path id="path1346" d="m111.72 2543.5h343.49"/>
  <path id="path1348" d="m111.88 2543.7h343.16"/>
  <path id="path1350" d="m112.05 2544h342.82"/>
  <path id="path1352" d="m112.22 2544.2h342.49"/>
  <path id="path1354" d="m112.38 2544.5h342.16"/>
  <path id="path1356" d="m112.55 2544.7h341.82"/>
  <path id="path1358" d="m112.72 2545h341.49"/>
  <path id="path1360" d="m112.88 2545.3h341.16"/>
  <path id="path1362" d="m113.05 2545.5h340.82"/>
  <path id="path1364" d="m113.22 2545.8h340.49"/>
  <path id="path1366" d="m113.39 2546h340.16"/>
  <path id="path1368" d="m113.55 2546.3h339.82"/>
  <path id="path1370" d="m113.72 2546.5h339.49"/>
  <path id="path1372" d="m113.89 2546.8h339.16"/>
  <path id="path1374" d="m114.05 2547.1h338.82"/>
  <path id="path1376" d="m114.22 2547.3h338.49"/>
  <path id="path1378" d="m114.39 2547.6h338.16"/>
  <path id="path1380" d="m114.55 2547.8h337.82"/>
  <path id="path1382" d="m114.72 2548.1h337.49"/>
  <path id="path1384" d="m114.89 2548.3h337.16"/>
  <path id="path1386" d="m115.05 2548.6h336.82"/>
  <path id="path1388" d="m115.22 2548.9h336.49"/>
  <path id="path1390" d="m115.39 2549.1h336.16"/>
  <path id="path1392" d="m115.55 2549.4h335.82"/>
  <path id="path1394" d="m115.72 2549.6h335.49"/>
  <path id="path1396" d="m115.89 2549.9h335.16"/>
  <path id="path1398" d="m116.05 2550.2h334.82"/>
  <path id="path1400" d="m116.22 2550.4h334.49"/>
  <path id="path1402" d="m116.39 2550.7h334.16"/>
  <path id="path1404" d="m116.55 2550.9h333.82"/>
  <path id="path1406" d="m116.72 2551.2h333.49"/>
  <path id="path1408" d="m116.89 2551.4h333.16"/>
  <path id="path1410" d="m117.05 2551.7h332.82"/>
  <path id="path1412" d="m117.22 2552h332.49"/>
  <path id="path1414" d="m117.39 2552.2h332.15"/>
  <path id="path1416" d="m117.55 2552.5h331.82"/>
  <path id="path1418" d="m117.72 2552.7h331.49"/>
  <path id="path1420" d="m117.89 2553h331.15"/>
  <path id="path1422" d="m118.05 2553.2h330.82"/>
  <path id="path1424" d="m118.22 2553.5h330.49"/>
  <path id="path1426" d="m118.39 2553.8h330.15"/>
  <path id="path1428" d="m118.56 2554h329.82"/>
  <path id="path1430" d="m118.72 2554.3h329.49"/>
  <path id="path1432" d="m118.89 2554.5h329.15"/>
  <path id="path1434" d="m119.06 2554.8h328.82"/>
  <path id="path1436" d="m119.22 2555h328.48"/>
  <path id="path1438" d="m119.39 2555.3h328.15"/>
  <path id="path1440" d="m119.56 2555.6h327.82"/>
  <path id="path1442" d="m119.72 2555.8h327.48"/>
  <path id="path1444" d="m119.89 2556.1h327.15"/>
  <path id="path1446" d="m120.06 2556.3h326.82"/>
  <path id="path1448" d="m120.22 2556.6h326.48"/>
  <path id="path1450" d="m120.39 2556.9h326.15"/>
  <path id="path1452" d="m120.56 2557.1h325.82"/>
  <path id="path1454" d="m120.72 2557.4h325.48"/>
  <path id="path1456" d="m120.89 2557.6h325.15"/>
  <path id="path1458" d="m121.06 2557.9h324.82"/>
  <path id="path1460" d="m121.22 2558.1h324.48"/>
  <path id="path1462" d="m121.39 2558.4h324.15"/>
  <path id="path1464" d="m121.56 2558.7h323.82"/>
  <path id="path1466" d="m121.72 2558.9h323.48"/>
  <path id="path1468" d="m121.89 2559.2h323.15"/>
  <path id="path1470" d="m122.06 2559.4h322.82"/>
  <path id="path1472" d="m122.22 2559.7h322.48"/>
  <path id="path1474" d="m122.39 2559.9h322.15"/>
  <path id="path1476" d="m122.56 2560.2h321.82"/>
  <path id="path1478" d="m122.72 2560.5h321.48"/>
  <path id="path1480" d="m122.89 2560.7h321.15"/>
  <path id="path1482" d="m123.06 2561h320.82"/>
  <path id="path1484" d="m123.22 2561.2h320.48"/>
  <path id="path1486" d="m123.39 2561.5h320.15"/>
  <path id="path1488" d="m123.56 2561.7h319.82"/>
  <path id="path1490" d="m123.72 2562h319.48"/>
  <path id="path1492" d="m123.89 2562.3h319.15"/>
  <path id="path1494" d="m124.06 2562.5h318.81"/>
  <path id="path1496" d="m124.22 2562.8h318.48"/>
  <path id="path1498" d="m124.39 2563h318.15"/>
  <path id="path1500" d="m124.56 2563.3h317.81"/>
  <path id="path1502" d="m124.72 2563.6h317.48"/>
  <path id="path1504" d="m124.89 2563.8h317.15"/>
  <path id="path1506" d="m125.06 2564.1h316.81"/>
  <path id="path1508" d="m125.22 2564.3h316.48"/>
  <path id="path1510" d="m125.39 2564.6h316.15"/>
  <path id="path1512" d="m125.56 2564.8h315.81"/>
  <path id="path1514" d="m125.72 2565.1h315.48"/>
  <path id="path1516" d="m125.89 2565.4h315.15"/>
  <path id="path1518" d="m126.06 2565.6h314.81"/>
  <path id="path1520" d="m126.22 2565.9h314.48"/>
  <path id="path1522" d="m126.39 2566.1h314.14"/>
  <path id="path1524" d="m126.56 2566.4h313.81"/>
  <path id="path1526" d="m126.72 2566.6h313.48"/>
  <path id="path1528" d="m126.89 2566.9h313.14"/>
  <path id="path1530" d="m127.06 2567.2h312.81"/>
  <path id="path1532" d="m127.22 2567.4h312.48"/>
  <path id="path1534" d="m127.39 2567.7h312.14"/>
  <path id="path1536" d="m127.56 2567.9h311.81"/>
  <path id="path1538" d="m127.73 2568.2h311.48"/>
  <path id="path1540" d="m127.89 2568.4h311.14"/>
  <path id="path1542" d="m128.06 2568.7h310.81"/>
  <path id="path1544" d="m128.23 2569h310.48"/>
  <path id="path1546" d="m128.39 2569.2h310.14"/>
  <path id="path1548" d="m128.56 2569.5h309.81"/>
  <path id="path1550" d="m128.73 2569.7h309.48"/>
  <path id="path1552" d="m128.89 2570h309.14"/>
  <path id="path1554" d="m129.06 2570.3h308.81"/>
  <path id="path1556" d="m129.23 2570.5h308.48"/>
  <path id="path1558" d="m129.39 2570.8h308.14"/>
  <path id="path1560" d="m129.56 2571h307.81"/>
  <path id="path1562" d="m129.73 2571.3h307.48"/>
  <path id="path1564" d="m129.89 2571.5h307.14"/>
  <path id="path1566" d="m130.06 2571.8h306.81"/>
  <path id="path1568" d="m130.23 2572.1h306.48"/>
  <path id="path1570" d="m130.39 2572.3h306.14"/>
  <path id="path1572" d="m130.56 2572.6h305.81"/>
  <path id="path1574" d="m130.73 2572.8h305.48"/>
  <path id="path1576" d="m130.89 2573.1h305.14"/>
  <path id="path1578" d="m131.06 2573.3h304.81"/>
  <path id="path1580" d="m131.23 2573.6h304.47"/>
  <path id="path1582" d="m131.39 2573.9h304.14"/>
  <path id="path1584" d="m131.56 2574.1h303.81"/>
  <path id="path1586" d="m131.73 2574.4h303.47"/>
  <path id="path1588" d="m131.89 2574.6h303.14"/>
  <path id="path1590" d="m132.06 2574.9h302.81"/>
  <path id="path1592" d="m132.23 2575.1h302.47"/>
  <path id="path1594" d="m132.39 2575.4h302.14"/>
  <path id="path1596" d="m132.56 2575.7h301.81"/>
  <path id="path1598" d="m132.73 2575.9h301.47"/>
  <path id="path1600" d="m132.9 2576.2h301.14"/>
  <path id="path1602" d="m133.06 2576.4h300.81"/>
  <path id="path1604" d="m133.23 2576.7h300.47"/>
  <path id="path1606" d="m133.4 2577h300.14"/>
  <path id="path1608" d="m133.56 2577.2h299.8"/>
  <path id="path1610" d="m133.73 2577.5h299.47"/>
  <path id="path1612" d="m133.9 2577.7h299.14"/>
  <path id="path1614" d="m134.06 2578h298.8"/>
  <path id="path1616" d="m134.23 2578.2h298.47"/>
  <path id="path1618" d="m134.4 2578.5h298.14"/>
  <path id="path1620" d="m134.56 2578.8h297.8"/>
  <path id="path1622" d="m134.73 2579h297.47"/>
  <path id="path1624" d="m134.9 2579.3h297.14"/>
  <path id="path1626" d="m135.06 2579.5h296.8"/>
  <path id="path1628" d="m135.23 2579.8h296.47"/>
  <path id="path1630" d="m135.4 2580h296.14"/>
  <path id="path1632" d="m135.56 2580.3h295.8"/>
  <path id="path1634" d="m135.73 2580.6h295.47"/>
  <path id="path1636" d="m135.9 2580.8h295.14"/>
  <path id="path1638" d="m136.06 2581.1h294.8"/>
  <path id="path1640" d="m136.23 2581.3h294.47"/>
  <path id="path1642" d="m136.4 2581.6h294.14"/>
  <path id="path1644" d="m136.56 2581.8h293.8"/>
  <path id="path1646" d="m136.73 2582.1h293.47"/>
  <path id="path1648" d="m136.9 2582.4h293.14"/>
  <path id="path1650" d="m137.06 2582.6h292.8"/>
  <path id="path1652" d="m137.23 2582.9h292.47"/>
  <path id="path1654" d="m137.4 2583.1h292.14"/>
  <path id="path1656" d="m137.56 2583.4h291.8"/>
  <path id="path1658" d="m137.73 2583.7h291.47"/>
  <path id="path1660" d="m137.9 2583.9h291.14"/>
  <path id="path1662" d="m138.06 2584.2h290.8"/>
  <path id="path1664" d="m138.23 2584.4h290.47"/>
  <path id="path1666" d="m138.4 2584.7h290.13"/>
  <path id="path1668" d="m138.56 2584.9h289.8"/>
  <path id="path1670" d="m138.73 2585.2h289.47"/>
  <path id="path1672" d="m138.9 2585.5h289.13"/>
  <path id="path1674" d="m139.06 2585.7h288.8"/>
  <path id="path1676" d="m139.23 2586h288.47"/>
  <path id="path1678" d="m139.4 2586.2h288.13"/>
  <path id="path1680" d="m139.56 2586.5h287.8"/>
  <path id="path1682" d="m139.73 2586.7h287.47"/>
  <path id="path1684" d="m139.9 2587h287.13"/>
  <path id="path1686" d="m140.06 2587.3h286.8"/>
  <path id="path1688" d="m140.23 2587.5h286.47"/>
  <path id="path1690" d="m140.4 2587.8h286.13"/>
  <path id="path1692" d="m140.56 2588h285.8"/>
  <path id="path1694" d="m140.73 2588.3h285.46"/>
  <path id="path1696" d="m140.9 2588.5h285.13"/>
  <path id="path1698" d="m141.06 2588.8h284.8"/>
  <path id="path1700" d="m141.23 2589.1h284.46"/>
  <path id="path1702" d="m141.4 2589.3h284.13"/>
  <path id="path1704" d="m141.56 2589.6h283.8"/>
  <path id="path1706" d="m141.73 2589.8h283.46"/>
  <path id="path1708" d="m141.9 2590.1h283.13"/>
  <path id="path1710" d="m142.07 2590.4h282.8"/>
  <path id="path1712" d="m142.23 2590.6h282.46"/>
  <path id="path1714" d="m142.4 2590.9h282.13"/>
  <path id="path1716" d="m142.57 2591.1h281.8"/>
  <path id="path1718" d="m142.73 2591.4h281.46"/>
  <path id="path1720" d="m142.9 2591.6h281.13"/>
  <path id="path1722" d="m143.07 2591.9h280.8"/>
  <path id="path1724" d="m143.23 2592.2h280.46"/>
  <path id="path1726" d="m143.4 2592.4h280.13"/>
  <path id="path1728" d="m143.57 2592.7h279.8"/>
  <path id="path1730" d="m143.73 2592.9h279.46"/>
  <path id="path1732" d="m143.9 2593.2h279.13"/>
  <path id="path1734" d="m144.07 2593.4h278.8"/>
  <path id="path1736" d="m144.23 2593.7h278.46"/>
  <path id="path1738" d="m144.4 2594h278.13"/>
  <path id="path1740" d="m144.57 2594.2h277.8"/>
  <path id="path1742" d="m144.73 2594.5h277.46"/>
  <path id="path1744" d="m144.9 2594.7h277.13"/>
  <path id="path1746" d="m145.07 2595h276.8"/>
  <path id="path1748" d="m145.23 2595.2h276.46"/>
  <path id="path1750" d="m145.4 2595.5h276.13"/>
  <path id="path1752" d="m145.57 2595.8h275.79"/>
  <path id="path1754" d="m145.73 2596h275.46"/>
  <path id="path1756" d="m145.9 2596.3h275.13"/>
  <path id="path1758" d="m146.07 2596.5h274.79"/>
  <path id="path1760" d="m146.23 2596.8h274.46"/>
  <path id="path1762" d="m146.4 2597.1h274.13"/>
  <path id="path1764" d="m146.57 2597.3h273.79"/>
  <path id="path1766" d="m146.73 2597.6h273.46"/>
  <path id="path1768" d="m146.9 2597.8h273.13"/>
  <path id="path1770" d="m147.07 2598.1h272.79"/>
  <path id="path1772" d="m147.24 2598.3h272.46"/>
  <path id="path1774" d="m147.4 2598.6h272.13"/>
  <path id="path1776" d="m147.57 2598.9h271.79"/>
  <path id="path1778" d="m147.74 2599.1h271.46"/>
  <path id="path1780" d="m147.9 2599.4h271.12"/>
  <path id="path1782" d="m148.07 2599.6h270.79"/>
  <path id="path1784" d="m148.24 2599.9h270.46"/>
  <path id="path1786" d="m148.4 2600.1h270.12"/>
  <path id="path1788" d="m148.57 2600.4h269.79"/>
  <path id="path1790" d="m148.74 2600.7h269.46"/>
  <path id="path1792" d="m148.9 2600.9h269.12"/>
  <path id="path1794" d="m149.07 2601.2h268.79"/>
  <path id="path1796" d="m149.24 2601.4h268.46"/>
  <path id="path1798" d="m149.4 2601.7h268.12"/>
  <path id="path1800" d="m149.57 2601.9h267.79"/>
  <path id="path1802" d="m149.74 2602.2h267.46"/>
  <path id="path1804" d="m149.9 2602.5h267.12"/>
  <path id="path1806" d="m150.07 2602.7h266.79"/>
  <path id="path1808" d="m150.24 2603h266.46"/>
  <path id="path1810" d="m150.4 2603.2h266.12"/>
  <path id="path1812" d="m150.57 2603.5h265.79"/>
  <path id="path1814" d="m150.74 2603.8h265.46"/>
  <path id="path1816" d="m150.9 2604h265.12"/>
  <path id="path1818" d="m151.07 2604.3h264.79"/>
  <path id="path1820" d="m151.24 2604.5h264.46"/>
  <path id="path1822" d="m151.4 2604.8h264.12"/>
  <path id="path1824" d="m151.57 2605h263.79"/>
  <path id="path1826" d="m151.74 2605.3h263.46"/>
  <path id="path1828" d="m151.9 2605.6h263.12"/>
  <path id="path1830" d="m152.07 2605.8h262.79"/>
  <path id="path1832" d="m152.24 2606.1h262.46"/>
  <path id="path1834" d="m152.4 2606.3h262.12"/>
  <path id="path1836" d="m152.57 2606.6h261.79"/>
  <path id="path1838" d="m152.74 2606.8h261.45"/>
  <path id="path1840" d="m152.9 2607.1h261.12"/>
  <path id="path1842" d="m153.07 2607.4h260.79"/>
  <path id="path1844" d="m153.24 2607.6h260.45"/>
  <path id="path1846" d="m153.4 2607.9h260.12"/>
  <path id="path1848" d="m153.57 2608.1h259.79"/>
  <path id="path1850" d="m153.74 2608.4h259.45"/>
  <path id="path1852" d="m153.9 2608.6h259.12"/>
  <path id="path1854" d="m154.07 2608.9h258.79"/>
  <path id="path1856" d="m154.24 2609.2h258.45"/>
  <path id="path1858" d="m154.4 2609.4h258.12"/>
  <path id="path1860" d="m154.57 2609.7h257.79"/>
  <path id="path1862" d="m154.74 2609.9h257.45"/>
  <path id="path1864" d="m154.9 2610.2h257.12"/>
  <path id="path1866" d="m155.07 2610.5h256.78"/>
  <path id="path1868" d="m155.24 2610.7h256.45"/>
  <path id="path1870" d="m155.4 2611h256.12"/>
  <path id="path1872" d="m155.57 2611.2h255.78"/>
  <path id="path1874" d="m155.74 2611.5h255.45"/>
  <path id="path1876" d="m155.9 2611.7h255.12"/>
  <path id="path1878" d="m156.07 2612h254.78"/>
  <path id="path1880" d="m156.24 2612.3h254.45"/>
  <path id="path1882" d="m156.4 2612.5h254.12"/>
  <path id="path1884" d="m156.57 2612.8h253.78"/>
  <path id="path1886" d="m156.74 2613h253.45"/>
  <path id="path1888" d="m156.91 2613.3h253.12"/>
  <path id="path1890" d="m157.07 2613.5h252.78"/>
  <path id="path1892" d="m157.24 2613.8h252.45"/>
  <path id="path1894" d="m157.41 2614.1h252.12"/>
  <path id="path1896" d="m157.57 2614.3h251.78"/>
  <path id="path1898" d="m157.74 2614.6h251.45"/>
  <path id="path1900" d="m157.91 2614.8h251.12"/>
  <path id="path1902" d="m158.07 2615.1h250.78"/>
  <path id="path1904" d="m158.24 2615.3h250.45"/>
  <path id="path1906" d="m158.41 2615.6h250.12"/>
  <path id="path1908" d="m158.57 2615.9h249.78"/>
  <path id="path1910" d="m158.74 2616.1h249.45"/>
  <path id="path1912" d="m158.91 2616.4h249.12"/>
  <path id="path1914" d="m159.07 2616.6h248.78"/>
  <path id="path1916" d="m159.24 2616.9h248.45"/>
  <path id="path1918" d="m159.41 2617.2h248.12"/>
  <path id="path1920" d="m159.57 2617.4h247.78"/>
  <path id="path1922" d="m159.74 2617.7h247.45"/>
  <path id="path1924" d="m159.91 2617.9h247.12"/>
  <path id="path1926" d="m160.07 2618.2h246.78"/>
  <path id="path1928" d="m160.24 2618.4h246.45"/>
  <path id="path1930" d="m160.41 2618.7h246.11"/>
  <path id="path1932" d="m160.57 2619h245.78"/>
  <path id="path1934" d="m160.74 2619.2h245.45"/>
  <path id="path1936" d="m160.91 2619.5h245.11"/>
  <path id="path1938" d="m161.07 2619.7h244.78"/>
  <path id="path1940" d="m161.24 2620h244.45"/>
  <path id="path1942" d="m161.41 2620.2h244.11"/>
  <path id="path1944" d="m161.57 2620.5h243.78"/>
  <path id="path1946" d="m161.74 2620.8h243.45"/>
  <path id="path1948" d="m161.91 2621h243.11"/>
  <path id="path1950" d="m162.08 2621.3h242.78"/>
  <path id="path1952" d="m162.24 2621.5h242.44"/>
  <path id="path1954" d="m162.41 2621.8h242.11"/>
  <path id="path1956" d="m162.58 2622h241.78"/>
  <path id="path1958" d="m162.74 2622.3h241.44"/>
  <path id="path1960" d="m162.91 2622.6h241.11"/>
  <path id="path1962" d="m163.08 2622.8h240.78"/>
  <path id="path1964" d="m163.24 2623.1h240.44"/>
  <path id="path1966" d="m163.41 2623.3h240.11"/>
  <path id="path1968" d="m163.58 2623.6h239.78"/>
  <path id="path1970" d="m163.74 2623.9h239.44"/>
  <path id="path1972" d="m163.91 2624.1h239.11"/>
  <path id="path1974" d="m164.08 2624.4h238.78"/>
  <path id="path1976" d="m164.24 2624.6h238.44"/>
  <path id="path1978" d="m164.41 2624.9h238.11"/>
  <path id="path1980" d="m164.58 2625.1h237.78"/>
  <path id="path1982" d="m164.74 2625.4h237.44"/>
  <path id="path1984" d="m164.91 2625.7h237.11"/>
  <path id="path1986" d="m165.08 2625.9h236.78"/>
  <path id="path1988" d="m165.24 2626.2h236.44"/>
  <path id="path1990" d="m165.41 2626.4h236.11"/>
  <path id="path1992" d="m165.58 2626.7h235.78"/>
  <path id="path1994" d="m165.74 2626.9h235.44"/>
  <path id="path1996" d="m165.91 2627.2h235.11"/>
  <path id="path1998" d="m166.08 2627.5h234.78"/>
  <path id="path2000" d="m166.24 2627.7h234.44"/>
  <path id="path2002" d="m166.41 2628h234.11"/>
  <path id="path2004" d="m166.58 2628.2h233.78"/>
  <path id="path2006" d="m166.74 2628.5h233.44"/>
  <path id="path2008" d="m166.91 2628.7h233.11"/>
  <path id="path2010" d="m167.08 2629h232.78"/>
  <path id="path2012" d="m167.24 2629.3h232.44"/>
  <path id="path2014" d="m167.41 2629.5h232.11"/>
  <path id="path2016" d="m167.58 2629.8h231.77"/>
  <path id="path2018" d="m167.74 2630h231.44"/>
  <path id="path2020" d="m167.91 2630.3h231.11"/>
  <path id="path2022" d="m168.08 2630.6h230.77"/>
  <path id="path2024" d="m168.24 2630.8h230.44"/>
  <path id="path2026" d="m168.41 2631.1h230.11"/>
  <path id="path2028" d="m168.58 2631.3h229.77"/>
  <path id="path2030" d="m168.74 2631.6h229.44"/>
  <path id="path2032" d="m168.91 2631.8h229.11"/>
  <path id="path2034" d="m169.08 2632.1h228.77"/>
  <path id="path2036" d="m169.24 2632.4h228.44"/>
  <path id="path2038" d="m169.41 2632.6h228.1"/>
  <path id="path2040" d="m169.58 2632.9h227.77"/>
  <path id="path2042" d="m169.74 2633.1h227.44"/>
  <path id="path2044" d="m169.91 2633.4h227.1"/>
  <path id="path2046" d="m170.08 2633.6h226.77"/>
  <path id="path2048" d="m170.24 2633.9h226.44"/>
  <path id="path2050" d="m170.41 2634.2h226.1"/>
  <path id="path2052" d="m170.58 2634.4h225.77"/>
  <path id="path2054" d="m170.74 2634.7h225.44"/>
  <path id="path2056" d="m170.91 2634.9h225.1"/>
  <path id="path2058" d="m171.08 2635.2h224.77"/>
  <path id="path2060" d="m171.25 2635.4h224.44"/>
  <path id="path2062" d="m171.41 2635.7h224.1"/>
  <path id="path2064" d="m171.58 2636h223.77"/>
  <path id="path2066" d="m171.75 2636.2h223.44"/>
  <path id="path2068" d="m171.91 2636.5h223.1"/>
  <path id="path2070" d="m172.08 2636.7h222.77"/>
  <path id="path2072" d="m172.25 2637h222.44"/>
  <path id="path2074" d="m172.41 2637.3h222.1"/>
  <path id="path2076" d="m172.58 2637.5h221.77"/>
  <path id="path2078" d="m172.75 2637.8h221.44"/>
  <path id="path2080" d="m172.91 2638h221.1"/>
  <path id="path2082" d="m173.08 2638.3h220.77"/>
  <path id="path2084" d="m173.25 2638.5h220.44"/>
  <path id="path2086" d="m173.41 2638.8h220.1"/>
  <path id="path2088" d="m173.58 2639.1h219.77"/>
  <path id="path2090" d="m173.75 2639.3h219.44"/>
  <path id="path2092" d="m173.91 2639.6h219.1"/>
  <path id="path2094" d="m174.08 2639.8h218.77"/>
  <path id="path2096" d="m174.25 2640.1h218.44"/>
  <path id="path2098" d="m174.41 2640.3h218.1"/>
  <path id="path2100" d="m174.58 2640.6h217.77"/>
  <path id="path2102" d="m174.75 2640.9h217.43"/>
  <path id="path2104" d="m174.91 2641.1h217.1"/>
  <path id="path2106" d="m175.08 2641.4h216.77"/>
  <path id="path2108" d="m175.25 2641.6h216.43"/>
  <path id="path2110" d="m175.41 2641.9h216.1"/>
  <path id="path2112" d="m175.58 2642.1h215.77"/>
  <path id="path2114" d="m175.75 2642.4h215.43"/>
  <path id="path2116" d="m175.91 2642.7h215.1"/>
  <path id="path2118" d="m176.08 2642.9h214.77"/>
  <path id="path2120" d="m176.25 2643.2h214.43"/>
  <path id="path2122" d="m176.42 2643.4h214.1"/>
  <path id="path2124" d="m176.58 2643.7h213.76"/>
  <path id="path2126" d="m176.75 2644h213.43"/>
  <path id="path2128" d="m176.92 2644.2h213.1"/>
  <path id="path2130" d="m177.08 2644.5h212.76"/>
  <path id="path2132" d="m177.25 2644.7h212.43"/>
  <path id="path2134" d="m177.42 2645h212.1"/>
  <path id="path2136" d="m177.58 2645.2h211.76"/>
  <path id="path2138" d="m177.75 2645.5h211.43"/>
  <path id="path2140" d="m177.92 2645.8h211.1"/>
  <path id="path2142" d="m178.08 2646h210.76"/>
  <path id="path2144" d="m178.25 2646.3h210.43"/>
  <path id="path2146" d="m178.42 2646.5h210.1"/>
  <path id="path2148" d="m178.58 2646.8h209.76"/>
  <path id="path2150" d="m178.75 2647h209.43"/>
  <path id="path2152" d="m178.92 2647.3h209.1"/>
  <path id="path2154" d="m179.08 2647.6h208.76"/>
  <path id="path2156" d="m179.25 2647.8h208.43"/>
  <path id="path2158" d="m179.42 2648.1h208.1"/>
  <path id="path2160" d="m179.58 2648.3h207.76"/>
  <path id="path2162" d="m179.75 2648.6h207.43"/>
  <path id="path2164" d="m179.92 2648.8h207.1"/>
  <path id="path2166" d="m180.08 2649.1h206.76"/>
  <path id="path2168" d="m180.25 2649.4h206.43"/>
  <path id="path2170" d="m180.42 2649.6h206.1"/>
  <path id="path2172" d="m180.58 2649.9h205.76"/>
  <path id="path2174" d="m180.75 2650.1h205.43"/>
  <path id="path2176" d="m180.92 2650.4h205.1"/>
  <path id="path2178" d="m181.08 2650.7h204.76"/>
  <path id="path2180" d="m181.25 2650.9h204.43"/>
  <path id="path2182" d="m181.42 2651.2h204.1"/>
  <path id="path2184" d="m181.58 2651.4h203.76"/>
  <path id="path2186" d="m181.75 2651.7h203.43"/>
  <path id="path2188" d="m181.92 2651.9h203.09"/>
  <path id="path2190" d="m182.08 2652.2h202.76"/>
  <path id="path2192" d="m182.25 2652.5h202.43"/>
  <path id="path2194" d="m182.42 2652.7h202.09"/>
  <path id="path2196" d="m182.58 2653h201.76"/>
  <path id="path2198" d="m182.75 2653.2h201.43"/>
  <path id="path2200" d="m182.92 2653.5h201.09"/>
  <path id="path2202" d="m183.08 2653.7h200.76"/>
  <path id="path2204" d="m183.25 2654h200.43"/>
  <path id="path2206" d="m183.42 2654.3h200.09"/>
  <path id="path2208" d="m183.58 2654.5h199.76"/>
  <path id="path2210" d="m183.75 2654.8h199.42"/>
  <path id="path2212" d="m183.92 2655h199.09"/>
  <path id="path2214" d="m184.08 2655.3h198.76"/>
  <path id="path2216" d="m184.25 2655.5h198.42"/>
  <path id="path2218" d="m184.42 2655.8h198.09"/>
  <path id="path2220" d="m184.58 2656.1h197.76"/>
  <path id="path2222" d="m184.75 2656.3h197.42"/>
  <path id="path2224" d="m184.92 2656.6h197.09"/>
  <path id="path2226" d="m185.08 2656.8h196.76"/>
  <path id="path2228" d="m185.25 2657.1h196.42"/>
  <path id="path2230" d="m185.42 2657.4h196.09"/>
  <path id="path2232" d="m185.59 2657.6h195.76"/>
  <path id="path2234" d="m185.75 2657.9h195.42"/>
  <path id="path2236" d="m185.92 2658.1h195.09"/>
  <path id="path2238" d="m186.09 2658.4h194.76"/>
  <path id="path2240" d="m186.25 2658.6h194.42"/>
  <path id="path2242" d="m186.42 2658.9h194.09"/>
  <path id="path2244" d="m186.59 2659.2h193.76"/>
  <path id="path2246" d="m186.75 2659.4h193.42"/>
  <path id="path2248" d="m186.92 2659.7h193.09"/>
  <path id="path2250" d="m187.09 2659.9h192.76"/>
  <path id="path2252" d="m187.25 2660.2h192.42"/>
  <path id="path2254" d="m187.42 2660.4h192.09"/>
  <path id="path2256" d="m187.59 2660.7h191.76"/>
  <path id="path2258" d="m187.75 2661h191.42"/>
  <path id="path2260" d="m187.92 2661.2h191.09"/>
  <path id="path2262" d="m188.09 2661.5h190.76"/>
  <path id="path2264" d="m188.25 2661.7h190.42"/>
  <path id="path2266" d="m188.42 2662h190.09"/>
  <path id="path2268" d="m188.59 2662.2h189.76"/>
  <path id="path2270" d="m188.75 2662.5h189.42"/>
  <path id="path2272" d="m188.92 2662.8h189.09"/>
  <path id="path2274" d="m189.09 2663h188.75"/>
  <path id="path2276" d="m189.25 2663.3h188.42"/>
  <path id="path2278" d="m189.42 2663.5h188.09"/>
  <path id="path2280" d="m189.59 2663.8h187.75"/>
  <path id="path2282" d="m189.75 2664.1h187.42"/>
  <path id="path2284" d="m189.92 2664.3h187.09"/>
  <path id="path2286" d="m190.09 2664.6h186.75"/>
  <path id="path2288" d="m190.26 2664.8h186.42"/>
  <path id="path2290" d="m190.42 2665.1h186.09"/>
  <path id="path2292" d="m190.59 2665.3h185.75"/>
  <path id="path2294" d="m190.76 2665.6h185.42"/>
  <path id="path2296" d="m190.92 2665.9h185.08"/>
  <path id="path2298" d="m191.09 2666.1h184.75"/>
  <path id="path2300" d="m191.26 2666.4h184.42"/>
  <path id="path2302" d="m191.42 2666.6h184.08"/>
  <path id="path2304" d="m191.59 2666.9h183.75"/>
  <path id="path2306" d="m191.76 2667.1h183.42"/>
  <path id="path2308" d="m191.92 2667.4h183.08"/>
  <path id="path2310" d="m192.09 2667.7h182.75"/>
  <path id="path2312" d="m192.26 2667.9h182.42"/>
  <path id="path2314" d="m192.42 2668.2h182.08"/>
  <path id="path2316" d="m192.59 2668.4h181.75"/>
  <path id="path2318" d="m192.76 2668.7h181.42"/>
  <path id="path2320" d="m192.92 2668.9h181.08"/>
  <path id="path2322" d="m193.09 2669.2h180.75"/>
  <path id="path2324" d="m193.26 2669.5h180.42"/>
  <path id="path2326" d="m193.42 2669.7h180.08"/>
  <path id="path2328" d="m193.59 2670h179.75"/>
  <path id="path2330" d="m193.76 2670.2h179.42"/>
  <path id="path2332" d="m193.92 2670.5h179.08"/>
  <path id="path2334" d="m194.09 2670.8h178.75"/>
  <path id="path2336" d="m194.26 2671h178.42"/>
  <path id="path2338" d="m194.42 2671.3h178.08"/>
  <path id="path2340" d="m194.59 2671.5h177.75"/>
  <path id="path2342" d="m194.76 2671.8h177.42"/>
  <path id="path2344" d="m194.92 2672h177.08"/>
  <path id="path2346" d="m195.09 2672.3h176.75"/>
  <path id="path2348" d="m195.26 2672.6h176.42"/>
  <path id="path2350" d="m195.42 2672.8h176.08"/>
  <path id="path2352" d="m195.59 2673.1h175.75"/>
  <path id="path2354" d="m195.76 2673.3h175.42"/>
  <path id="path2356" d="m195.92 2673.6h175.08"/>
  <path id="path2358" d="m196.09 2673.8h174.75"/>
  <path id="path2360" d="m196.26 2674.1h174.41"/>
  <path id="path2362" d="m196.42 2674.4h174.08"/>
  <path id="path2364" d="m196.59 2674.6h173.75"/>
  <path id="path2366" d="m196.76 2674.9h173.41"/>
  <path id="path2368" d="m196.92 2675.1h173.08"/>
  <path id="path2370" d="m197.09 2675.4h172.75"/>
  <path id="path2372" d="m197.26 2675.6h172.41"/>
  <path id="path2374" d="m197.42 2675.9h172.08"/>
  <path id="path2376" d="m197.59 2676.2h171.75"/>
  <path id="path2378" d="m197.76 2676.4h171.41"/>
  <path id="path2380" d="m197.92 2676.7h171.08"/>
  <path id="path2382" d="m198.09 2676.9h170.74"/>
  <path id="path2384" d="m198.26 2677.2h170.41"/>
  <path id="path2386" d="m198.42 2677.5h170.08"/>
  <path id="path2388" d="m198.59 2677.7h169.74"/>
  <path id="path2390" d="m198.76 2678h169.41"/>
  <path id="path2392" d="m198.92 2678.2h169.08"/>
  <path id="path2394" d="m199.09 2678.5h168.74"/>
  <path id="path2396" d="m199.26 2678.7h168.41"/>
  <path id="path2398" d="m199.42 2679h168.08"/>
  <path id="path2400" d="m199.59 2679.3h167.74"/>
  <path id="path2402" d="m199.76 2679.5h167.41"/>
  <path id="path2404" d="m199.93 2679.8h167.08"/>
  <path id="path2406" d="m200.09 2680h166.74"/>
  <path id="path2408" d="m200.26 2680.3h166.41"/>
  <path id="path2410" d="m200.43 2680.5h166.08"/>
  <path id="path2412" d="m200.59 2680.8h165.74"/>
  <path id="path2414" d="m200.76 2681.1h165.41"/>
  <path id="path2416" d="m200.93 2681.3h165.08"/>
  <path id="path2418" d="m201.09 2681.6h164.74"/>
  <path id="path2420" d="m201.26 2681.8h164.41"/>
  <path id="path2422" d="m201.43 2682.1h164.08"/>
  <path id="path2424" d="m201.59 2682.3h163.74"/>
  <path id="path2426" d="m201.76 2682.6h163.41"/>
  <path id="path2428" d="m201.93 2682.9h163.08"/>
  <path id="path2430" d="m202.09 2683.1h162.74"/>
  <path id="path2432" d="m202.26 2683.4h162.41"/>
  <path id="path2434" d="m202.43 2683.6h162.08"/>
  <path id="path2436" d="m202.59 2683.9h161.74"/>
  <path id="path2438" d="m202.76 2684.2h161.41"/>
  <path id="path2440" d="m202.93 2684.4h161.08"/>
  <path id="path2442" d="m203.09 2684.7h160.74"/>
  <path id="path2444" d="m203.26 2684.9h160.41"/>
  <path id="path2446" d="m203.43 2685.2h160.07"/>
  <path id="path2448" d="m203.59 2685.4h159.74"/>
  <path id="path2450" d="m203.76 2685.7h159.41"/>
  <path id="path2452" d="m203.93 2686h159.07"/>
  <path id="path2454" d="m204.09 2686.2h158.74"/>
  <path id="path2456" d="m204.26 2686.5h158.41"/>
  <path id="path2458" d="m204.43 2686.7h158.07"/>
  <path id="path2460" d="m204.6 2687h157.74"/>
  <path id="path2462" d="m204.76 2687.2h157.41"/>
  <path id="path2464" d="m204.93 2687.5h157.07"/>
  <path id="path2466" d="m205.1 2687.8h156.74"/>
  <path id="path2468" d="m205.26 2688h156.4"/>
  <path id="path2470" d="m205.43 2688.3h156.07"/>
  <path id="path2472" d="m205.6 2688.5h155.74"/>
  <path id="path2474" d="m205.76 2688.8h155.4"/>
  <path id="path2476" d="m205.93 2689h155.07"/>
  <path id="path2478" d="m206.1 2689.3h154.74"/>
  <path id="path2480" d="m206.26 2689.6h154.4"/>
  <path id="path2482" d="m206.43 2689.8h154.07"/>
  <path id="path2484" d="m206.6 2690.1h153.74"/>
  <path id="path2486" d="m206.76 2690.3h153.4"/>
  <path id="path2488" d="m206.93 2690.6h153.07"/>
  <path id="path2490" d="m207.1 2690.9h152.74"/>
  <path id="path2492" d="m207.26 2691.1h152.4"/>
  <path id="path2494" d="m207.43 2691.4h152.07"/>
  <path id="path2496" d="m207.6 2691.6h151.74"/>
  <path id="path2498" d="m207.76 2691.9h151.4"/>
  <path id="path2500" d="m207.93 2692.1h151.07"/>
  <path id="path2502" d="m208.1 2692.4h150.74"/>
  <path id="path2504" d="m208.26 2692.7h150.4"/>
  <path id="path2506" d="m208.43 2692.9h150.07"/>
  <path id="path2508" d="m208.6 2693.2h149.74"/>
  <path id="path2510" d="m208.76 2693.4h149.4"/>
  <path id="path2512" d="m208.93 2693.7h149.07"/>
  <path id="path2514" d="m209.1 2693.9h148.74"/>
  <path id="path2516" d="m209.26 2694.2h148.4"/>
  <path id="path2518" d="m209.43 2694.5h148.07"/>
  <path id="path2520" d="m209.6 2694.7h147.74"/>
  <path id="path2522" d="m209.76 2695h147.4"/>
  <path id="path2524" d="m209.93 2695.2h147.07"/>
  <path id="path2526" d="m210.1 2695.5h146.74"/>
  <path id="path2528" d="m210.26 2695.7h146.4"/>
  <path id="path2530" d="m210.43 2696h146.07"/>
  <path id="path2532" d="m210.6 2696.3h145.74"/>
  <path id="path2534" d="m210.76 2696.5h145.4"/>
  <path id="path2536" d="m210.93 2696.8h145.07"/>
  <path id="path2538" d="m211.1 2697h144.73"/>
  <path id="path2540" d="m211.26 2697.3h144.4"/>
  <path id="path2542" d="m211.43 2697.6h144.07"/>
  <path id="path2544" d="m211.6 2697.8h143.73"/>
  <path id="path2546" d="m211.76 2698.1h143.4"/>
  <path id="path2548" d="m211.93 2698.3h143.07"/>
  <path id="path2550" d="m212.1 2698.6h142.73"/>
  <path id="path2552" d="m212.26 2698.8h142.4"/>
  <path id="path2554" d="m212.43 2699.1h142.06"/>
  <path id="path2556" d="m212.6 2699.4h141.73"/>
  <path id="path2558" d="m212.76 2699.6h141.4"/>
  <path id="path2560" d="m212.93 2699.9h141.06"/>
  <path id="path2562" d="m213.1 2700.1h140.73"/>
  <path id="path2564" d="m213.26 2700.4h140.4"/>
  <path id="path2566" d="m213.43 2700.6h140.06"/>
  <path id="path2568" d="m213.6 2700.9h139.73"/>
  <path id="path2570" d="m213.76 2701.2h139.4"/>
  <path id="path2572" d="m213.93 2701.4h139.06"/>
  <path id="path2574" d="m214.1 2701.7h138.73"/>
  <path id="path2576" d="m214.27 2701.9h138.4"/>
  <path id="path2578" d="m214.43 2702.2h138.06"/>
  <path id="path2580" d="m214.6 2702.4h137.73"/>
  <path id="path2582" d="m214.77 2702.7h137.4"/>
  <path id="path2584" d="m214.93 2703h137.06"/>
  <path id="path2586" d="m215.1 2703.2h136.73"/>
  <path id="path2588" d="m215.27 2703.5h136.4"/>
  <path id="path2590" d="m215.43 2703.7h136.06"/>
  <path id="path2592" d="m215.6 2704h135.73"/>
  <path id="path2594" d="m215.77 2704.3h135.4"/>
  <path id="path2596" d="m215.93 2704.5h135.06"/>
  <path id="path2598" d="m216.1 2704.8h134.73"/>
  <path id="path2600" d="m216.27 2705h134.4"/>
  <path id="path2602" d="m216.43 2705.3h134.06"/>
  <path id="path2604" d="m216.6 2705.5h133.73"/>
  <path id="path2606" d="m216.77 2705.8h133.4"/>
  <path id="path2608" d="m216.93 2706.1h133.06"/>
  <path id="path2610" d="m217.1 2706.3h132.73"/>
  <path id="path2612" d="m217.27 2706.6h132.4"/>
  <path id="path2614" d="m217.43 2706.8h132.06"/>
  <path id="path2616" d="m217.6 2707.1h131.73"/>
  <path id="path2618" d="m217.77 2707.3h131.4"/>
  <path id="path2620" d="m217.93 2707.6h131.06"/>
  <path id="path2622" d="m218.1 2707.9h130.73"/>
  <path id="path2624" d="m218.27 2708.1h130.39"/>
  <path id="path2626" d="m218.43 2708.4h130.06"/>
  <path id="path2628" d="m218.6 2708.6h129.73"/>
  <path id="path2630" d="m218.77 2708.9h129.39"/>
  <path id="path2632" d="m218.94 2709.1h129.06"/>
  <path id="path2634" d="m219.1 2709.4h128.73"/>
  <path id="path2636" d="m219.27 2709.7h128.39"/>
  <path id="path2638" d="m219.44 2709.9h128.06"/>
  <path id="path2640" d="m219.6 2710.2h127.73"/>
  <path id="path2642" d="m219.77 2710.4h127.39"/>
  <path id="path2644" d="m219.94 2710.7h127.06"/>
  <path id="path2646" d="m220.1 2711h126.72"/>
  <path id="path2648" d="m220.27 2711.2h126.39"/>
  <path id="path2650" d="m220.44 2711.5h126.06"/>
  <path id="path2652" d="m220.6 2711.7h125.72"/>
  <path id="path2654" d="m220.77 2712h125.39"/>
  <path id="path2656" d="m220.94 2712.2h125.06"/>
  <path id="path2658" d="m221.1 2712.5h124.72"/>
  <path id="path2660" d="m221.27 2712.8h124.39"/>
  <path id="path2662" d="m221.44 2713h124.06"/>
  <path id="path2664" d="m221.6 2713.3h123.72"/>
  <path id="path2666" d="m221.77 2713.5h123.39"/>
  <path id="path2668" d="m221.94 2713.8h123.06"/>
  <path id="path2670" d="m222.1 2714h122.72"/>
  <path id="path2672" d="m222.27 2714.3h122.39"/>
  <path id="path2674" d="m222.44 2714.6h122.06"/>
  <path id="path2676" d="m222.6 2714.8h121.72"/>
  <path id="path2678" d="m222.77 2715.1h121.39"/>
  <path id="path2680" d="m222.94 2715.3h121.06"/>
  <path id="path2682" d="m223.1 2715.6h120.72"/>
  <path id="path2684" d="m223.27 2715.8h120.39"/>
  <path id="path2686" d="m223.44 2716.1h120.06"/>
  <path id="path2688" d="m223.6 2716.4h119.72"/>
  <path id="path2690" d="m223.77 2716.6h119.39"/>
  <path id="path2692" d="m223.94 2716.9h119.06"/>
  <path id="path2694" d="m224.1 2717.1h118.72"/>
  <path id="path2696" d="m224.27 2717.4h118.39"/>
  <path id="path2698" d="m224.44 2717.7h118.06"/>
  <path id="path2700" d="m224.6 2717.9h117.72"/>
  <path id="path2702" d="m224.77 2718.2h117.39"/>
  <path id="path2704" d="m224.94 2718.4h117.06"/>
  <path id="path2706" d="m225.1 2718.7h116.72"/>
  <path id="path2708" d="m225.27 2718.9h116.39"/>
  <path id="path2710" d="m225.44 2719.2h116.05"/>
  <path id="path2712" d="m225.6 2719.5h115.72"/>
  <path id="path2714" d="m225.77 2719.7h115.39"/>
  <path id="path2716" d="m225.94 2720h115.05"/>
  <path id="path2718" d="m226.1 2720.2h114.72"/>
  <path id="path2720" d="m226.27 2720.5h114.39"/>
  <path id="path2722" d="m226.44 2720.7h114.05"/>
  <path id="path2724" d="m226.6 2721h113.72"/>
  <path id="path2726" d="m226.77 2721.3h113.39"/>
  <path id="path2728" d="m226.94 2721.5h113.05"/>
  <path id="path2730" d="m227.1 2721.8h112.72"/>
  <path id="path2732" d="m227.27 2722h112.38"/>
  <path id="path2734" d="m227.44 2722.3h112.05"/>
  <path id="path2736" d="m227.6 2722.5h111.72"/>
  <path id="path2738" d="m227.77 2722.8h111.38"/>
  <path id="path2740" d="m227.94 2723.1h111.05"/>
  <path id="path2742" d="m228.11 2723.3h110.72"/>
  <path id="path2744" d="m228.27 2723.6h110.38"/>
  <path id="path2746" d="m228.44 2723.8h110.05"/>
  <path id="path2748" d="m228.61 2724.1h109.72"/>
  <path id="path2750" d="m228.77 2724.4h109.38"/>
  <path id="path2752" d="m228.94 2724.6h109.05"/>
  <path id="path2754" d="m229.11 2724.9h108.72"/>
  <path id="path2756" d="m229.27 2725.1h108.38"/>
  <path id="path2758" d="m229.44 2725.4h108.05"/>
  <path id="path2760" d="m229.61 2725.6h107.72"/>
  <path id="path2762" d="m229.77 2725.9h107.38"/>
  <path id="path2764" d="m229.94 2726.2h107.05"/>
  <path id="path2766" d="m230.11 2726.4h106.72"/>
  <path id="path2768" d="m230.27 2726.7h106.38"/>
  <path id="path2770" d="m230.44 2726.9h106.05"/>
  <path id="path2772" d="m230.61 2727.2h105.72"/>
  <path id="path2774" d="m230.77 2727.4h105.38"/>
  <path id="path2776" d="m230.94 2727.7h105.05"/>
  <path id="path2778" d="m231.11 2728h104.72"/>
  <path id="path2780" d="m231.27 2728.2h104.38"/>
  <path id="path2782" d="m231.44 2728.5h104.05"/>
  <path id="path2784" d="m231.61 2728.7h103.72"/>
  <path id="path2786" d="m231.77 2729h103.38"/>
  <path id="path2788" d="m231.94 2729.2h103.05"/>
  <path id="path2790" d="m232.11 2729.5h102.72"/>
  <path id="path2792" d="m232.27 2729.8h102.38"/>
  <path id="path2794" d="m232.44 2730h102.05"/>
  <path id="path2796" d="m232.61 2730.3h101.71"/>
  <path id="path2798" d="m232.77 2730.5h101.38"/>
  <path id="path2800" d="m232.94 2730.8h101.05"/>
  <path id="path2802" d="m233.11 2731.1h100.71"/>
  <path id="path2804" d="m233.28 2731.3h100.38"/>
  <path id="path2806" d="m233.44 2731.6h100.05"/>
  <path id="path2808" d="m233.61 2731.8h99.713"/>
  <path id="path2810" d="m233.78 2732.1h99.379"/>
  <path id="path2812" d="m233.94 2732.3h99.046"/>
  <path id="path2814" d="m234.11 2732.6h98.713"/>
  <path id="path2816" d="m234.28 2732.9h98.379"/>
  <path id="path2818" d="m234.44 2733.1h98.045"/>
  <path id="path2820" d="m234.61 2733.4h97.712"/>
  <path id="path2822" d="m234.78 2733.6h97.379"/>
  <path id="path2824" d="m234.94 2733.9h97.045"/>
  <path id="path2826" d="m235.11 2734.1h96.711"/>
  <path id="path2828" d="m235.28 2734.4h96.377"/>
  <path id="path2830" d="m235.44 2734.7h96.045"/>
  <path id="path2832" d="m235.61 2734.9h95.711"/>
  <path id="path2834" d="m235.78 2735.2h95.377"/>
  <path id="path2836" d="m235.94 2735.4h95.044"/>
  <path id="path2838" d="m236.11 2735.7h94.711"/>
  <path id="path2840" d="m236.28 2735.9h94.377"/>
  <path id="path2842" d="m236.44 2736.2h94.043"/>
  <path id="path2844" d="m236.61 2736.5h93.71"/>
  <path id="path2846" d="m236.78 2736.7h93.377"/>
  <path id="path2848" d="m236.94 2737h93.043"/>
  <path id="path2850" d="m237.11 2737.2h92.71"/>
  <path id="path2852" d="m237.28 2737.5h92.377"/>
  <path id="path2854" d="m237.44 2737.8h92.043"/>
  <path id="path2856" d="m237.61 2738h91.709"/>
  <path id="path2858" d="m237.78 2738.3h91.375"/>
  <path id="path2860" d="m237.94 2738.5h91.042"/>
  <path id="path2862" d="m238.11 2738.8h90.709"/>
  <path id="path2864" d="m238.28 2739h90.375"/>
  <path id="path2866" d="m238.44 2739.3h90.041"/>
  <path id="path2868" d="m238.61 2739.6h89.708"/>
  <path id="path2870" d="m238.78 2739.8h89.375"/>
  <path id="path2872" d="m238.94 2740.1h89.041"/>
  <path id="path2874" d="m239.11 2740.3h88.708"/>
  <path id="path2876" d="m239.28 2740.6h88.375"/>
  <path id="path2878" d="m239.44 2740.8h88.041"/>
  <path id="path2880" d="m239.61 2741.1h87.707"/>
  <path id="path2882" d="m239.78 2741.4h87.373"/>
  <path id="path2884" d="m239.94 2741.6h87.04"/>
  <path id="path2886" d="m240.11 2741.9h86.707"/>
  <path id="path2888" d="m240.28 2742.1h86.373"/>
  <path id="path2890" d="m240.44 2742.4h86.039"/>
  <path id="path2892" d="m240.61 2742.6h85.707"/>
  <path id="path2894" d="m240.78 2742.9h85.373"/>
  <path id="path2896" d="m240.94 2743.2h85.039"/>
  <path id="path2898" d="m241.11 2743.4h84.706"/>
  <path id="path2900" d="m241.28 2743.7h84.373"/>
  <path id="path2902" d="m241.44 2743.9h84.039"/>
  <path id="path2904" d="m241.61 2744.2h83.705"/>
  <path id="path2906" d="m241.78 2744.5h83.372"/>
  <path id="path2908" d="m241.94 2744.7h83.039"/>
  <path id="path2910" d="m242.11 2745h82.705"/>
  <path id="path2912" d="m242.28 2745.2h82.371"/>
  <path id="path2914" d="m242.45 2745.5h82.037"/>
  <path id="path2916" d="m242.61 2745.7h81.705"/>
  <path id="path2918" d="m242.78 2746h81.371"/>
  <path id="path2920" d="m242.95 2746.3h81.037"/>
  <path id="path2922" d="m243.11 2746.5h80.704"/>
  <path id="path2924" d="m243.28 2746.8h80.371"/>
  <path id="path2926" d="m243.45 2747h80.037"/>
  <path id="path2928" d="m243.61 2747.3h79.703"/>
  <path id="path2930" d="m243.78 2747.5h79.37"/>
  <path id="path2932" d="m243.95 2747.8h79.037"/>
  <path id="path2934" d="m244.11 2748.1h78.703"/>
  <path id="path2936" d="m244.28 2748.3h78.37"/>
  <path id="path2938" d="m244.45 2748.6h78.037"/>
  <path id="path2940" d="m244.61 2748.8h77.703"/>
  <path id="path2942" d="m244.78 2749.1h77.369"/>
  <path id="path2944" d="m244.95 2749.3h77.035"/>
  <path id="path2946" d="m245.11 2749.6h76.702"/>
  <path id="path2948" d="m245.28 2749.9h76.369"/>
  <path id="path2950" d="m245.45 2750.1h76.035"/>
  <path id="path2952" d="m245.61 2750.4h75.701"/>
  <path id="path2954" d="m245.78 2750.6h75.369"/>
  <path id="path2956" d="m245.95 2750.9h75.035"/>
  <path id="path2958" d="m246.11 2751.2h74.701"/>
  <path id="path2960" d="m246.28 2751.4h74.368"/>
  <path id="path2962" d="m246.45 2751.7h74.035"/>
  <path id="path2964" d="m246.61 2751.9h73.701"/>
  <path id="path2966" d="m246.78 2752.2h73.367"/>
  <path id="path2968" d="m246.95 2752.4h73.033"/>
  <path id="path2970" d="m247.11 2752.7h72.7"/>
  <path id="path2972" d="m247.28 2753h72.367"/>
  <path id="path2974" d="m247.45 2753.2h72.033"/>
  <path id="path2976" d="m247.62 2753.5h71.699"/>
  <path id="path2978" d="m247.78 2753.7h71.367"/>
  <path id="path2980" d="m247.95 2754h71.033"/>
  <path id="path2982" d="m248.12 2754.2h70.699"/>
  <path id="path2984" d="m248.28 2754.5h70.366"/>
  <path id="path2986" d="m248.45 2754.8h70.033"/>
  <path id="path2988" d="m248.62 2755h69.699"/>
  <path id="path2990" d="m248.78 2755.3h69.365"/>
  <path id="path2992" d="m248.95 2755.5h69.032"/>
  <path id="path2994" d="m249.12 2755.8h68.699"/>
  <path id="path2996" d="m249.28 2756h68.365"/>
  <path id="path2998" d="m249.45 2756.3h68.031"/>
  <path id="path3000" d="m249.62 2756.6h67.698"/>
  <path id="path3002" d="m249.78 2756.8h67.365"/>
  <path id="path3004" d="m249.95 2757.1h67.031"/>
  <path id="path3006" d="m250.12 2757.3h66.697"/>
  <path id="path3008" d="m250.28 2757.6h66.364"/>
  <path id="path3010" d="m250.45 2757.9h66.031"/>
  <path id="path3012" d="m250.62 2758.1h65.697"/>
  <path id="path3014" d="m250.78 2758.4h65.363"/>
  <path id="path3016" d="m250.95 2758.6h65.031"/>
  <path id="path3018" d="m251.12 2758.9h64.697"/>
  <path id="path3020" d="m251.28 2759.1h64.363"/>
  <path id="path3022" d="m251.45 2759.4h64.03"/>
  <path id="path3024" d="m251.62 2759.7h63.696"/>
  <path id="path3026" d="m251.78 2759.9h63.363"/>
  <path id="path3028" d="m251.95 2760.2h63.029"/>
  <path id="path3030" d="m252.12 2760.4h62.695"/>
  <path id="path3032" d="m252.28 2760.7h62.362"/>
  <path id="path3034" d="m252.45 2760.9h62.029"/>
  <path id="path3036" d="m252.62 2761.2h61.695"/>
  <path id="path3038" d="m252.78 2761.5h61.361"/>
  <path id="path3040" d="m252.95 2761.7h61.029"/>
  <path id="path3042" d="m253.12 2762h60.695"/>
  <path id="path3044" d="m253.28 2762.2h60.361"/>
  <path id="path3046" d="m253.45 2762.5h60.028"/>
  <path id="path3048" d="m253.62 2762.7h59.695"/>
  <path id="path3050" d="m253.78 2763h59.361"/>
  <path id="path3052" d="m253.95 2763.3h59.027"/>
  <path id="path3054" d="m254.12 2763.5h58.693"/>
  <path id="path3056" d="m254.28 2763.8h58.36"/>
  <path id="path3058" d="m254.45 2764h58.027"/>
  <path id="path3060" d="m254.62 2764.3h57.693"/>
  <path id="path3062" d="m254.78 2764.6h57.36"/>
  <path id="path3064" d="m254.95 2764.8h57.027"/>
  <path id="path3066" d="m255.12 2765.1h56.693"/>
  <path id="path3068" d="m255.28 2765.3h56.359"/>
  <path id="path3070" d="m255.45 2765.6h56.026"/>
  <path id="path3072" d="m255.62 2765.8h55.693"/>
  <path id="path3074" d="m255.78 2766.1h55.359"/>
  <path id="path3076" d="m255.95 2766.4h55.025"/>
  <path id="path3078" d="m256.12 2766.6h54.693"/>
  <path id="path3080" d="m256.28 2766.9h54.359"/>
  <path id="path3082" d="m256.45 2767.1h54.025"/>
  <path id="path3084" d="m256.62 2767.4h53.691"/>
  <path id="path3086" d="m256.78 2767.6h53.358"/>
  <path id="path3088" d="m256.95 2767.9h53.025"/>
  <path id="path3090" d="m257.12 2768.2h52.691"/>
  <path id="path3092" d="m257.29 2768.4h52.357"/>
  <path id="path3094" d="m257.45 2768.7h52.024"/>
  <path id="path3096" d="m257.62 2768.9h51.691"/>
  <path id="path3098" d="m257.79 2769.2h51.357"/>
  <path id="path3100" d="m257.95 2769.4h51.023"/>
  <path id="path3102" d="m258.12 2769.7h50.691"/>
  <path id="path3104" d="m258.29 2770h50.357"/>
  <path id="path3106" d="m258.45 2770.2h50.023"/>
  <path id="path3108" d="m258.62 2770.5h49.69"/>
  <path id="path3110" d="m258.79 2770.7h49.356"/>
  <path id="path3112" d="m258.95 2771h49.023"/>
  <path id="path3114" d="m259.12 2771.3h48.689"/>
  <path id="path3116" d="m259.29 2771.5h48.355"/>
  <path id="path3118" d="m259.45 2771.8h48.022"/>
  <path id="path3120" d="m259.62 2772h47.689"/>
  <path id="path3122" d="m259.79 2772.3h47.355"/>
  <path id="path3124" d="m259.95 2772.5h47.022"/>
  <path id="path3126" d="m260.12 2772.8h46.689"/>
  <path id="path3128" d="m260.29 2773.1h46.355"/>
  <path id="path3130" d="m260.45 2773.3h46.021"/>
  <path id="path3132" d="m260.62 2773.6h45.688"/>
  <path id="path3134" d="m260.79 2773.8h45.355"/>
  <path id="path3136" d="m260.95 2774.1h45.021"/>
  <path id="path3138" d="m261.12 2774.3h44.687"/>
  <path id="path3140" d="m261.29 2774.6h44.353"/>
  <path id="path3142" d="m261.45 2774.9h44.02"/>
  <path id="path3144" d="m261.62 2775.1h43.687"/>
  <path id="path3146" d="m261.79 2775.4h43.353"/>
  <path id="path3148" d="m261.95 2775.6h43.02"/>
  <path id="path3150" d="m262.12 2775.9h42.687"/>
  <path id="path3152" d="m262.29 2776.1h42.353"/>
  <path id="path3154" d="m262.46 2776.4h42.019"/>
  <path id="path3156" d="m262.62 2776.7h41.686"/>
  <path id="path3158" d="m262.79 2776.9h41.353"/>
  <path id="path3160" d="m262.96 2777.2h41.019"/>
  <path id="path3162" d="m263.12 2777.4h40.685"/>
  <path id="path3164" d="m263.29 2777.7h40.353"/>
  <path id="path3166" d="m263.46 2778h40.019"/>
  <path id="path3168" d="m263.62 2778.2h39.685"/>
  <path id="path3170" d="m263.79 2778.5h39.351"/>
  <path id="path3172" d="m263.96 2778.7h39.018"/>
  <path id="path3174" d="m264.12 2779h38.685"/>
  <path id="path3176" d="m264.29 2779.2h38.351"/>
  <path id="path3178" d="m264.46 2779.5h38.017"/>
  <path id="path3180" d="m264.62 2779.8h37.684"/>
  <path id="path3182" d="m264.79 2780h37.351"/>
  <path id="path3184" d="m264.96 2780.3h37.017"/>
  <path id="path3186" d="m265.12 2780.5h36.684"/>
  <path id="path3188" d="m265.29 2780.8h36.351"/>
  <path id="path3190" d="m265.46 2781h36.017"/>
  <path id="path3192" d="m265.62 2781.3h35.683"/>
  <path id="path3194" d="m265.79 2781.6h35.349"/>
  <path id="path3196" d="m265.96 2781.8h35.016"/>
  <path id="path3198" d="m266.12 2782.1h34.683"/>
  <path id="path3200" d="m266.29 2782.3h34.349"/>
  <path id="path3202" d="m266.46 2782.6h34.015"/>
  <path id="path3204" d="m266.62 2782.8h33.682"/>
  <path id="path3206" d="m266.79 2783.1h33.349"/>
  <path id="path3208" d="m266.96 2783.4h33.015"/>
  <path id="path3210" d="m267.12 2783.6h32.682"/>
  <path id="path3212" d="m267.29 2783.9h32.349"/>
  <path id="path3214" d="m267.46 2784.1h32.015"/>
  <path id="path3216" d="m267.62 2784.4h31.681"/>
  <path id="path3218" d="m267.79 2784.7h31.348"/>
  <path id="path3220" d="m267.96 2784.9h31.015"/>
  <path id="path3222" d="m268.12 2785.2h30.681"/>
  <path id="path3224" d="m268.29 2785.4h30.347"/>
  <path id="path3226" d="m268.46 2785.7h30.013"/>
  <path id="path3228" d="m268.62 2785.9h29.681"/>
  <path id="path3230" d="m268.79 2786.2h29.347"/>
  <path id="path3232" d="m268.96 2786.5h29.013"/>
  <path id="path3234" d="m269.12 2786.7h28.68"/>
  <path id="path3236" d="m269.29 2787h28.347"/>
  <path id="path3238" d="m269.46 2787.2h28.013"/>
  <path id="path3240" d="m269.62 2787.5h27.679"/>
  <path id="path3242" d="m269.79 2787.7h27.346"/>
  <path id="path3244" d="m269.96 2788h27.013"/>
  <path id="path3246" d="m270.12 2788.3h26.679"/>
  <path id="path3248" d="m270.29 2788.5h26.346"/>
  <path id="path3250" d="m270.46 2788.8h26.013"/>
  <path id="path3252" d="m270.62 2789h25.679"/>
  <path id="path3254" d="m270.79 2789.3h25.345"/>
  <path id="path3256" d="m270.96 2789.5h25.011"/>
  <path id="path3258" d="m271.12 2789.8h24.678"/>
  <path id="path3260" d="m271.29 2790.1h24.345"/>
  <path id="path3262" d="m271.46 2790.3h24.011"/>
  <path id="path3264" d="m271.63 2790.6h23.677"/>
  <path id="path3266" d="m271.79 2790.8h23.344"/>
  <path id="path3268" d="m271.96 2791.1h23.011"/>
  <path id="path3270" d="m272.13 2791.4h22.677"/>
  <path id="path3272" d="m272.29 2791.6h22.344"/>
  <path id="path3274" d="m272.46 2791.9h22.011"/>
  <path id="path3276" d="m272.63 2792.1h21.677"/>
  <path id="path3278" d="m272.79 2792.4h21.343"/>
  <path id="path3280" d="m272.96 2792.6h21.009"/>
  <path id="path3282" d="m273.13 2792.9h20.676"/>
  <path id="path3284" d="m273.29 2793.2h20.343"/>
  <path id="path3286" d="m273.46 2793.4h20.009"/>
  <path id="path3288" d="m273.63 2793.7h19.675"/>
  <path id="path3290" d="m273.79 2793.9h19.343"/>
  <path id="path3292" d="m273.96 2794.2h19.009"/>
  <path id="path3294" d="m274.13 2794.4h18.675"/>
  <path id="path3296" d="m274.29 2794.7h18.342"/>
  <path id="path3298" d="m274.46 2795h18.009"/>
  <path id="path3300" d="m274.63 2795.2h17.675"/>
  <path id="path3302" d="m274.79 2795.5h17.341"/>
  <path id="path3304" d="m274.96 2795.7h17.008"/>
  <path id="path3306" d="m275.13 2796h16.675"/>
  <path id="path3308" d="m275.29 2796.2h16.341"/>
  <path id="path3310" d="m275.46 2796.5h16.007"/>
  <path id="path3312" d="m275.63 2796.8h15.673"/>
  <path id="path3314" d="m275.79 2797h15.341"/>
  <path id="path3316" d="m275.96 2797.3h15.007"/>
  <path id="path3318" d="m276.13 2797.5h14.673"/>
  <path id="path3320" d="m276.29 2797.8h14.34"/>
  <path id="path3322" d="m276.46 2798.1h14.007"/>
  <path id="path3324" d="m276.63 2798.3h13.673"/>
  <path id="path3326" d="m276.8 2798.6h13.339"/>
  <path id="path3328" d="m276.96 2798.8h13.006"/>
  <path id="path3330" d="m277.13 2799.1h12.673"/>
  <path id="path3332" d="m277.3 2799.3h12.339"/>
  <path id="path3334" d="m277.46 2799.6h12.006"/>
  <path id="path3336" d="m277.63 2799.9h11.672"/>
  <path id="path3338" d="m277.8 2800.1h11.339"/>
  <path id="path3340" d="m277.96 2800.4h11.005"/>
  <path id="path3342" d="m278.13 2800.6h10.671"/>
  <path id="path3344" d="m278.3 2800.9h10.338"/>
  <path id="path3346" d="m278.46 2801.1h10.005"/>
  <path id="path3348" d="m278.63 2801.4h9.671"/>
  <path id="path3350" d="m278.8 2801.7h9.337"/>
  <path id="path3352" d="m278.96 2801.9h9.005"/>
  <path id="path3354" d="m279.13 2802.2h8.671"/>
  <path id="path3356" d="m279.3 2802.4h8.337"/>
  <path id="path3358" d="m279.46 2802.7h8.004"/>
  <path id="path3360" d="m279.63 2803h7.671"/>
  <path id="path3362" d="m279.8 2803.2h7.337"/>
  <path id="path3364" d="m279.96 2803.5h7.003"/>
  <path id="path3366" d="m280.13 2803.7h6.669"/>
  <path id="path3368" d="m280.3 2804h6.336"/>
  <path id="path3370" d="m280.46 2804.2h6.003"/>
  <path id="path3372" d="m280.63 2804.5h5.669"/>
  <path id="path3374" d="m280.8 2804.8h5.335"/>
  <path id="path3376" d="m280.96 2805h5.003"/>
  <path id="path3378" d="m281.13 2805.3h4.669"/>
  <path id="path3380" d="m281.3 2805.5h4.335"/>
  <path id="path3382" d="m281.46 2805.8h4.002"/>
  <path id="path3384" d="m281.63 2806h3.669"/>
  <path id="path3386" d="m281.8 2806.3h3.335"/>
  <path id="path3388" d="m281.96 2806.6h3.001"/>
  <path id="path3390" d="m282.13 2806.8h2.668"/>
  <path id="path3392" d="m282.3 2807.1h2.334"/>
  <path id="path3394" d="m282.46 2807.3h2.001"/>
  <path id="path3396" d="m282.63 2807.6h1.667"/>
  <path id="path3398" d="m282.8 2807.8h1.333"/>
  <path id="path3400" d="m282.96 2808.1h1.001"/>
  <path id="path3402" d="m283.13 2808.4h0.667"/>
  <path id="path3404" d="m283.3 2808.6h0.333"/>
 </g>
</svg>
