<?xml version="1.0" encoding="UTF-8"?>
<svg id="svg3506" width="566.6" height="465.57" version="1.1" viewBox="0 0 566.6 465.57" xmlns="http://www.w3.org/2000/svg">
 <g id="g3504" transform="translate(-.162 -2363.5)" fill="none" stroke="#000" stroke-width="4mm">
  <path id="path6" d="m283.3 2371.1h0.324"/>
  <path id="path8" d="m283.14 2371.3h0.648"/>
  <path id="path10" d="m282.98 2371.6h0.972"/>
  <path id="path12" d="m282.82 2371.8h1.296"/>
  <path id="path14" d="m282.65 2372.1h1.62"/>
  <path id="path16" d="m282.49 2372.3h1.944"/>
  <path id="path18" d="m282.33 2372.6h2.267"/>
  <path id="path20" d="m282.17 2372.9h2.591"/>
  <path id="path22" d="m282.01 2373.1h2.915"/>
  <path id="path24" d="m281.84 2373.4h3.239"/>
  <path id="path26" d="m281.68 2373.6h3.563"/>
  <path id="path28" d="m281.52 2373.9h3.887"/>
  <path id="path30" d="m281.36 2374.1h4.211"/>
  <path id="path32" d="m281.2 2374.4h4.535"/>
  <path id="path34" d="m281.04 2374.7h4.859"/>
  <path id="path36" d="m280.87 2374.9h5.183"/>
  <path id="path38" d="m280.71 2375.2h5.507"/>
  <path id="path40" d="m280.55 2375.4h5.831"/>
  <path id="path42" d="m280.39 2375.7h6.155"/>
  <path id="path44" d="m280.22 2375.9h6.479"/>
  <path id="path46" d="m280.06 2376.2h6.803"/>
  <path id="path48" d="m279.9 2376.5h7.127"/>
  <path id="path50" d="m279.74 2376.7h7.451"/>
  <path id="path52" d="m279.58 2377h7.775"/>
  <path id="path54" d="m279.42 2377.2h8.099"/>
  <path id="path56" d="m279.25 2377.5h8.423"/>
  <path id="path58" d="m279.09 2377.8h8.747"/>
  <path id="path60" d="m278.93 2378h9.071"/>
  <path id="path62" d="m278.77 2378.3h9.395"/>
  <path id="path64" d="m278.6 2378.5h9.719"/>
  <path id="path66" d="m278.44 2378.8h10.043"/>
  <path id="path68" d="m278.28 2379h10.367"/>
  <path id="path70" d="m278.12 2379.3h10.691"/>
  <path id="path72" d="m277.96 2379.6h11.015"/>
  <path id="path74" d="m277.8 2379.8h11.339"/>
  <path id="path76" d="m277.63 2380.1h11.663"/>
  <path id="path78" d="m277.47 2380.3h11.987"/>
  <path id="path80" d="m277.31 2380.6h12.311"/>
  <path id="path82" d="m277.15 2380.8h12.635"/>
  <path id="path84" d="m276.98 2381.1h12.959"/>
  <path id="path86" d="m276.82 2381.4h13.283"/>
  <path id="path88" d="m276.66 2381.6h13.607"/>
  <path id="path90" d="m276.5 2381.9h13.931"/>
  <path id="path92" d="m276.34 2382.1h14.255"/>
  <path id="path94" d="m276.18 2382.4h14.579"/>
  <path id="path96" d="m276.01 2382.6h14.903"/>
  <path id="path98" d="m275.85 2382.9h15.227"/>
  <path id="path100" d="m275.69 2383.2h15.55"/>
  <path id="path102" d="m275.53 2383.4h15.874"/>
  <path id="path104" d="m275.36 2383.7h16.198"/>
  <path id="path106" d="m275.2 2383.9h16.522"/>
  <path id="path108" d="m275.04 2384.2h16.846"/>
  <path id="path110" d="m274.88 2384.5h17.17"/>
  <path id="path112" d="m274.72 2384.7h17.494"/>
  <path id="path114" d="m274.56 2385h17.818"/>
  <path id="path116" d="m274.39 2385.2h18.142"/>
  <path id="path118" d="m274.23 2385.5h18.466"/>
  <path id="path120" d="m274.07 2385.7h18.79"/>
  <path id="path122" d="m273.91 2386h19.114"/>
  <path id="path124" d="m273.74 2386.3h19.438"/>
  <path id="path126" d="m273.58 2386.5h19.761"/>
  <path id="path128" d="m273.42 2386.8h20.085"/>
  <path id="path130" d="m273.26 2387h20.409"/>
  <path id="path132" d="m273.1 2387.3h20.733"/>
  <path id="path134" d="m272.94 2387.5h21.057"/>
  <path id="path136" d="m272.77 2387.8h21.381"/>
  <path id="path138" d="m272.61 2388.1h21.705"/>
  <path id="path140" d="m272.45 2388.3h22.029"/>
  <path id="path142" d="m272.29 2388.6h22.353"/>
  <path id="path144" d="m272.13 2388.8h22.677"/>
  <path id="path146" d="m271.96 2389.1h23.001"/>
  <path id="path148" d="m271.8 2389.3h23.325"/>
  <path id="path150" d="m271.64 2389.6h23.649"/>
  <path id="path152" d="m271.48 2389.9h23.973"/>
  <path id="path154" d="m271.32 2390.1h24.297"/>
  <path id="path156" d="m271.15 2390.4h24.621"/>
  <path id="path158" d="m270.99 2390.6h24.945"/>
  <path id="path160" d="m270.83 2390.9h25.269"/>
  <path id="path162" d="m270.67 2391.2h25.593"/>
  <path id="path164" d="m270.51 2391.4h25.917"/>
  <path id="path166" d="m270.34 2391.7h26.241"/>
  <path id="path168" d="m270.18 2391.9h26.565"/>
  <path id="path170" d="m270.02 2392.2h26.889"/>
  <path id="path172" d="m269.86 2392.4h27.213"/>
  <path id="path174" d="m269.7 2392.7h27.537"/>
  <path id="path176" d="m269.53 2393h27.861"/>
  <path id="path178" d="m269.37 2393.2h28.185"/>
  <path id="path180" d="m269.21 2393.5h28.508"/>
  <path id="path182" d="m269.05 2393.7h28.832"/>
  <path id="path184" d="m268.89 2394h29.156"/>
  <path id="path186" d="m268.72 2394.2h29.48"/>
  <path id="path188" d="m268.56 2394.5h29.804"/>
  <path id="path190" d="m268.4 2394.8h30.128"/>
  <path id="path192" d="m268.24 2395h30.452"/>
  <path id="path194" d="m268.08 2395.3h30.776"/>
  <path id="path196" d="m267.91 2395.5h31.1"/>
  <path id="path198" d="m267.75 2395.8h31.424"/>
  <path id="path200" d="m267.59 2396h31.748"/>
  <path id="path202" d="m267.43 2396.3h32.072"/>
  <path id="path204" d="m267.27 2396.6h32.396"/>
  <path id="path206" d="m267.1 2396.8h32.719"/>
  <path id="path208" d="m266.94 2397.1h33.043"/>
  <path id="path210" d="m266.78 2397.3h33.367"/>
  <path id="path212" d="m266.62 2397.6h33.691"/>
  <path id="path214" d="m266.46 2397.9h34.015"/>
  <path id="path216" d="m266.3 2398.1h34.339"/>
  <path id="path218" d="m266.13 2398.4h34.663"/>
  <path id="path220" d="m265.97 2398.6h34.987"/>
  <path id="path222" d="m265.81 2398.9h35.311"/>
  <path id="path224" d="m265.65 2399.1h35.635"/>
  <path id="path226" d="m265.48 2399.4h35.959"/>
  <path id="path228" d="m265.32 2399.7h36.283"/>
  <path id="path230" d="m265.16 2399.9h36.607"/>
  <path id="path232" d="m265 2400.2h36.931"/>
  <path id="path234" d="m264.84 2400.4h37.255"/>
  <path id="path236" d="m264.68 2400.7h37.579"/>
  <path id="path238" d="m264.51 2400.9h37.903"/>
  <path id="path240" d="m264.35 2401.2h38.227"/>
  <path id="path242" d="m264.19 2401.5h38.551"/>
  <path id="path244" d="m264.03 2401.7h38.875"/>
  <path id="path246" d="m263.86 2402h39.199"/>
  <path id="path248" d="m263.7 2402.2h39.523"/>
  <path id="path250" d="m263.54 2402.5h39.847"/>
  <path id="path252" d="m263.38 2402.7h40.171"/>
  <path id="path254" d="m263.22 2403h40.495"/>
  <path id="path256" d="m263.06 2403.3h40.819"/>
  <path id="path258" d="m262.89 2403.5h41.143"/>
  <path id="path260" d="m262.73 2403.8h41.467"/>
  <path id="path262" d="m262.57 2404h41.791"/>
  <path id="path264" d="m262.41 2404.3h42.115"/>
  <path id="path266" d="m262.24 2404.6h42.439"/>
  <path id="path268" d="m262.08 2404.8h42.763"/>
  <path id="path270" d="m261.92 2405.1h43.087"/>
  <path id="path272" d="m261.76 2405.3h43.411"/>
  <path id="path274" d="m261.6 2405.6h43.735"/>
  <path id="path276" d="m261.44 2405.8h44.059"/>
  <path id="path278" d="m261.27 2406.1h44.383"/>
  <path id="path280" d="m261.11 2406.4h44.707"/>
  <path id="path282" d="m260.95 2406.6h45.031"/>
  <path id="path284" d="m260.79 2406.9h45.355"/>
  <path id="path286" d="m260.62 2407.1h45.679"/>
  <path id="path288" d="m260.46 2407.4h46.002"/>
  <path id="path290" d="m260.3 2407.6h46.326"/>
  <path id="path292" d="m260.14 2407.9h46.65"/>
  <path id="path294" d="m259.98 2408.2h46.974"/>
  <path id="path296" d="m259.82 2408.4h47.298"/>
  <path id="path298" d="m259.65 2408.7h47.622"/>
  <path id="path300" d="m259.49 2408.9h47.946"/>
  <path id="path302" d="m259.33 2409.2h48.27"/>
  <path id="path304" d="m259.17 2409.4h48.594"/>
  <path id="path306" d="m259 2409.7h48.918"/>
  <path id="path308" d="m258.84 2410h49.242"/>
  <path id="path310" d="m258.68 2410.2h49.566"/>
  <path id="path312" d="m258.52 2410.5h49.89"/>
  <path id="path314" d="m258.36 2410.7h50.213"/>
  <path id="path316" d="m258.2 2411h50.537"/>
  <path id="path318" d="m258.03 2411.3h50.861"/>
  <path id="path320" d="m257.87 2411.5h51.185"/>
  <path id="path322" d="m257.71 2411.8h51.509"/>
  <path id="path324" d="m257.55 2412h51.833"/>
  <path id="path326" d="m257.39 2412.3h52.157"/>
  <path id="path328" d="m257.22 2412.5h52.481"/>
  <path id="path330" d="m257.06 2412.8h52.805"/>
  <path id="path332" d="m256.9 2413.1h53.129"/>
  <path id="path334" d="m256.74 2413.3h53.453"/>
  <path id="path336" d="m256.58 2413.6h53.777"/>
  <path id="path338" d="m256.41 2413.8h54.101"/>
  <path id="path340" d="m256.25 2414.1h54.425"/>
  <path id="path342" d="m256.09 2414.3h54.749"/>
  <path id="path344" d="m255.93 2414.6h55.073"/>
  <path id="path346" d="m255.77 2414.9h55.397"/>
  <path id="path348" d="m255.6 2415.1h55.721"/>
  <path id="path350" d="m255.44 2415.4h56.045"/>
  <path id="path352" d="m255.28 2415.6h56.369"/>
  <path id="path354" d="m255.12 2415.9h56.693"/>
  <path id="path356" d="m254.96 2416.1h57.017"/>
  <path id="path358" d="m254.79 2416.4h57.341"/>
  <path id="path360" d="m254.63 2416.7h57.665"/>
  <path id="path362" d="m254.47 2416.9h57.989"/>
  <path id="path364" d="m254.31 2417.2h58.313"/>
  <path id="path366" d="m254.15 2417.4h58.637"/>
  <path id="path368" d="m253.98 2417.7h58.961"/>
  <path id="path370" d="m253.82 2418h59.285"/>
  <path id="path372" d="m253.66 2418.2h59.609"/>
  <path id="path374" d="m253.5 2418.5h59.933"/>
  <path id="path376" d="m253.34 2418.7h60.257"/>
  <path id="path378" d="m253.17 2419h60.581"/>
  <path id="path380" d="m253.01 2419.2h60.905"/>
  <path id="path382" d="m252.85 2419.5h61.229"/>
  <path id="path384" d="m252.69 2419.8h61.553"/>
  <path id="path386" d="m252.53 2420h61.877"/>
  <path id="path388" d="m252.36 2420.3h62.201"/>
  <path id="path390" d="m252.2 2420.5h62.525"/>
  <path id="path392" d="m252.04 2420.8h62.849"/>
  <path id="path394" d="m251.88 2421h63.173"/>
  <path id="path396" d="m251.72 2421.3h63.496"/>
  <path id="path398" d="m251.55 2421.6h63.82"/>
  <path id="path400" d="m251.39 2421.8h64.144"/>
  <path id="path402" d="m251.23 2422.1h64.468"/>
  <path id="path404" d="m251.07 2422.3h64.792"/>
  <path id="path406" d="m250.91 2422.6h65.116"/>
  <path id="path408" d="m250.74 2422.8h65.44"/>
  <path id="path410" d="m250.58 2423.1h65.764"/>
  <path id="path412" d="m250.42 2423.4h66.088"/>
  <path id="path414" d="m250.26 2423.6h66.412"/>
  <path id="path416" d="m250.1 2423.9h66.736"/>
  <path id="path418" d="m249.93 2424.1h67.06"/>
  <path id="path420" d="m249.77 2424.4h67.384"/>
  <path id="path422" d="m249.61 2424.7h67.707"/>
  <path id="path424" d="m249.45 2424.9h68.031"/>
  <path id="path426" d="m249.29 2425.2h68.355"/>
  <path id="path428" d="m249.12 2425.4h68.679"/>
  <path id="path430" d="m248.96 2425.7h69.003"/>
  <path id="path432" d="m248.8 2425.9h69.327"/>
  <path id="path434" d="m248.64 2426.2h69.651"/>
  <path id="path436" d="m248.48 2426.5h69.975"/>
  <path id="path438" d="m248.32 2426.7h70.299"/>
  <path id="path440" d="m248.15 2427h70.623"/>
  <path id="path442" d="m247.99 2427.2h70.947"/>
  <path id="path444" d="m247.83 2427.5h71.271"/>
  <path id="path446" d="m247.67 2427.7h71.595"/>
  <path id="path448" d="m247.5 2428h71.919"/>
  <path id="path450" d="m247.34 2428.3h72.243"/>
  <path id="path452" d="m247.18 2428.5h72.567"/>
  <path id="path454" d="m247.02 2428.8h72.891"/>
  <path id="path456" d="m246.86 2429h73.215"/>
  <path id="path458" d="m246.7 2429.3h73.539"/>
  <path id="path460" d="m246.53 2429.5h73.863"/>
  <path id="path462" d="m246.37 2429.8h74.187"/>
  <path id="path464" d="m246.21 2430.1h74.511"/>
  <path id="path466" d="m246.05 2430.3h74.835"/>
  <path id="path468" d="m245.88 2430.6h75.159"/>
  <path id="path470" d="m245.72 2430.8h75.483"/>
  <path id="path472" d="m245.56 2431.1h75.807"/>
  <path id="path474" d="m245.4 2431.4h76.131"/>
  <path id="path476" d="m245.24 2431.6h76.454"/>
  <path id="path478" d="m245.08 2431.9h76.778"/>
  <path id="path480" d="m244.91 2432.1h77.102"/>
  <path id="path482" d="m244.75 2432.4h77.426"/>
  <path id="path484" d="m244.59 2432.6h77.75"/>
  <path id="path486" d="m244.43 2432.9h78.074"/>
  <path id="path488" d="m244.26 2433.2h78.398"/>
  <path id="path490" d="m244.1 2433.4h78.722"/>
  <path id="path492" d="m243.94 2433.7h79.046"/>
  <path id="path494" d="m243.78 2433.9h79.37"/>
  <path id="path496" d="m243.62 2434.2h79.694"/>
  <path id="path498" d="m243.46 2434.4h80.019"/>
  <path id="path500" d="m243.29 2434.7h80.343"/>
  <path id="path502" d="m243.13 2435h80.667"/>
  <path id="path504" d="m242.97 2435.2h80.989"/>
  <path id="path506" d="m242.81 2435.5h81.313"/>
  <path id="path508" d="m242.65 2435.7h81.637"/>
  <path id="path510" d="m242.48 2436h81.961"/>
  <path id="path512" d="m242.32 2436.2h82.285"/>
  <path id="path514" d="m242.16 2436.5h82.609"/>
  <path id="path516" d="m242 2436.8h82.933"/>
  <path id="path518" d="m241.84 2437h83.257"/>
  <path id="path520" d="m241.67 2437.3h83.581"/>
  <path id="path522" d="m241.51 2437.5h83.905"/>
  <path id="path524" d="m241.35 2437.8h84.229"/>
  <path id="path526" d="m241.19 2438.1h84.553"/>
  <path id="path528" d="m241.03 2438.3h84.877"/>
  <path id="path530" d="m240.86 2438.6h85.201"/>
  <path id="path532" d="m240.7 2438.8h85.525"/>
  <path id="path534" d="m240.54 2439.1h85.849"/>
  <path id="path536" d="m240.38 2439.3h86.173"/>
  <path id="path538" d="m240.22 2439.6h86.497"/>
  <path id="path540" d="m240.05 2439.9h86.821"/>
  <path id="path542" d="m239.89 2440.1h87.145"/>
  <path id="path544" d="m239.73 2440.4h87.469"/>
  <path id="path546" d="m239.57 2440.6h87.793"/>
  <path id="path548" d="m239.41 2440.9h88.117"/>
  <path id="path550" d="m239.24 2441.1h88.441"/>
  <path id="path552" d="m239.08 2441.4h88.765"/>
  <path id="path554" d="m238.92 2441.7h89.089"/>
  <path id="path556" d="m238.76 2441.9h89.413"/>
  <path id="path558" d="m238.6 2442.2h89.737"/>
  <path id="path560" d="m238.43 2442.4h90.061"/>
  <path id="path562" d="m238.27 2442.7h90.385"/>
  <path id="path564" d="m238.11 2443h90.709"/>
  <path id="path566" d="m237.95 2443.2h91.033"/>
  <path id="path568" d="m237.79 2443.5h91.357"/>
  <path id="path570" d="m237.62 2443.7h91.681"/>
  <path id="path572" d="m237.46 2444h92.005"/>
  <path id="path574" d="m237.3 2444.2h92.329"/>
  <path id="path576" d="m237.14 2444.5h92.653"/>
  <path id="path578" d="m236.98 2444.8h92.977"/>
  <path id="path580" d="m236.81 2445h93.301"/>
  <path id="path582" d="m236.65 2445.3h93.625"/>
  <path id="path584" d="m236.49 2445.5h93.948"/>
  <path id="path586" d="m236.33 2445.8h94.272"/>
  <path id="path588" d="m236.17 2446h94.596"/>
  <path id="path590" d="m236 2446.3h94.92"/>
  <path id="path592" d="m235.84 2446.6h95.244"/>
  <path id="path594" d="m235.68 2446.8h95.568"/>
  <path id="path596" d="m235.52 2447.1h95.892"/>
  <path id="path598" d="m235.36 2447.3h96.216"/>
  <path id="path600" d="m235.19 2447.6h96.54"/>
  <path id="path602" d="m235.03 2447.8h96.864"/>
  <path id="path604" d="m234.87 2448.1h97.188"/>
  <path id="path606" d="m234.71 2448.4h97.512"/>
  <path id="path608" d="m234.55 2448.6h97.836"/>
  <path id="path610" d="m234.38 2448.9h98.159"/>
  <path id="path612" d="m234.22 2449.1h98.483"/>
  <path id="path614" d="m234.06 2449.4h98.807"/>
  <path id="path616" d="m233.9 2449.6h99.131"/>
  <path id="path618" d="m233.74 2449.9h99.455"/>
  <path id="path620" d="m233.58 2450.2h99.779"/>
  <path id="path622" d="m233.41 2450.4h100.1"/>
  <path id="path624" d="m233.25 2450.7h100.43"/>
  <path id="path626" d="m233.09 2450.9h100.75"/>
  <path id="path628" d="m232.93 2451.2h101.08"/>
  <path id="path630" d="m232.76 2451.5h101.4"/>
  <path id="path632" d="m232.6 2451.7h101.72"/>
  <path id="path634" d="m232.44 2452h102.05"/>
  <path id="path636" d="m232.28 2452.2h102.37"/>
  <path id="path638" d="m232.12 2452.5h102.7"/>
  <path id="path640" d="m231.96 2452.7h103.02"/>
  <path id="path642" d="m231.79 2453h103.34"/>
  <path id="path644" d="m231.63 2453.3h103.67"/>
  <path id="path646" d="m231.47 2453.5h103.99"/>
  <path id="path648" d="m231.31 2453.8h104.32"/>
  <path id="path650" d="m231.14 2454h104.64"/>
  <path id="path652" d="m230.98 2454.3h104.96"/>
  <path id="path654" d="m230.82 2454.5h105.29"/>
  <path id="path656" d="m230.66 2454.8h105.61"/>
  <path id="path658" d="m230.5 2455.1h105.94"/>
  <path id="path660" d="m230.34 2455.3h106.26"/>
  <path id="path662" d="m230.17 2455.6h106.58"/>
  <path id="path664" d="m230.01 2455.8h106.91"/>
  <path id="path666" d="m229.85 2456.1h107.23"/>
  <path id="path668" d="m229.69 2456.4h107.56"/>
  <path id="path670" d="m229.52 2456.6h107.88"/>
  <path id="path672" d="m229.36 2456.9h108.2"/>
  <path id="path674" d="m229.2 2457.1h108.53"/>
  <path id="path676" d="m229.04 2457.4h108.85"/>
  <path id="path678" d="m228.88 2457.6h109.18"/>
  <path id="path680" d="m228.72 2457.9h109.5"/>
  <path id="path682" d="m228.55 2458.2h109.82"/>
  <path id="path684" d="m228.39 2458.4h110.15"/>
  <path id="path686" d="m228.23 2458.7h110.47"/>
  <path id="path688" d="m228.07 2458.9h110.8"/>
  <path id="path690" d="m227.9 2459.2h111.12"/>
  <path id="path692" d="m227.74 2459.4h111.44"/>
  <path id="path694" d="m227.58 2459.7h111.77"/>
  <path id="path696" d="m227.42 2460h112.09"/>
  <path id="path698" d="m227.26 2460.2h112.41"/>
  <path id="path700" d="m227.1 2460.5h112.74"/>
  <path id="path702" d="m226.93 2460.7h113.06"/>
  <path id="path704" d="m226.77 2461h113.39"/>
  <path id="path706" d="m226.61 2461.2h113.71"/>
  <path id="path708" d="m226.45 2461.5h114.03"/>
  <path id="path710" d="m226.28 2461.8h114.36"/>
  <path id="path712" d="m226.12 2462h114.68"/>
  <path id="path714" d="m225.96 2462.3h115.01"/>
  <path id="path716" d="m225.8 2462.5h115.33"/>
  <path id="path718" d="m225.64 2462.8h115.65"/>
  <path id="path720" d="m225.48 2463h115.98"/>
  <path id="path722" d="m225.31 2463.3h116.3"/>
  <path id="path724" d="m225.15 2463.6h116.62"/>
  <path id="path726" d="m224.99 2463.8h116.95"/>
  <path id="path728" d="m224.83 2464.1h117.27"/>
  <path id="path730" d="m224.67 2464.3h117.6"/>
  <path id="path732" d="m224.5 2464.6h117.92"/>
  <path id="path734" d="m224.34 2464.9h118.24"/>
  <path id="path736" d="m224.18 2465.1h118.57"/>
  <path id="path738" d="m224.02 2465.4h118.89"/>
  <path id="path740" d="m223.86 2465.6h119.22"/>
  <path id="path742" d="m223.69 2465.9h119.54"/>
  <path id="path744" d="m223.53 2466.1h119.86"/>
  <path id="path746" d="m223.37 2466.4h120.19"/>
  <path id="path748" d="m223.21 2466.7h120.51"/>
  <path id="path750" d="m223.05 2466.9h120.84"/>
  <path id="path752" d="m222.88 2467.2h121.16"/>
  <path id="path754" d="m222.72 2467.4h121.48"/>
  <path id="path756" d="m222.56 2467.7h121.81"/>
  <path id="path758" d="m222.4 2467.9h122.13"/>
  <path id="path760" d="m222.24 2468.2h122.46"/>
  <path id="path762" d="m222.07 2468.5h122.78"/>
  <path id="path764" d="m221.91 2468.7h123.1"/>
  <path id="path766" d="m221.75 2469h123.43"/>
  <path id="path768" d="m221.59 2469.2h123.75"/>
  <path id="path770" d="m221.43 2469.5h124.08"/>
  <path id="path772" d="m221.26 2469.8h124.4"/>
  <path id="path774" d="m221.1 2470h124.72"/>
  <path id="path776" d="m220.94 2470.3h125.05"/>
  <path id="path778" d="m220.78 2470.5h125.37"/>
  <path id="path780" d="m220.62 2470.8h125.7"/>
  <path id="path782" d="m220.45 2471h126.02"/>
  <path id="path784" d="m220.29 2471.3h126.34"/>
  <path id="path786" d="m220.13 2471.6h126.67"/>
  <path id="path788" d="m219.97 2471.8h126.99"/>
  <path id="path790" d="m219.81 2472.1h127.32"/>
  <path id="path792" d="m219.64 2472.3h127.64"/>
  <path id="path794" d="m219.48 2472.6h127.96"/>
  <path id="path796" d="m219.32 2472.8h128.29"/>
  <path id="path798" d="m219.16 2473.1h128.61"/>
  <path id="path800" d="m219 2473.4h128.94"/>
  <path id="path802" d="m218.84 2473.6h129.26"/>
  <path id="path804" d="m218.67 2473.9h129.58"/>
  <path id="path806" d="m218.51 2474.1h129.91"/>
  <path id="path808" d="m218.35 2474.4h130.23"/>
  <path id="path810" d="m218.19 2474.6h130.56"/>
  <path id="path812" d="m218.02 2474.9h130.88"/>
  <path id="path814" d="m217.86 2475.2h131.2"/>
  <path id="path816" d="m217.7 2475.4h131.53"/>
  <path id="path818" d="m217.54 2475.7h131.85"/>
  <path id="path820" d="m217.38 2475.9h132.18"/>
  <path id="path822" d="m217.22 2476.2h132.5"/>
  <path id="path824" d="m217.05 2476.4h132.82"/>
  <path id="path826" d="m216.89 2476.7h133.15"/>
  <path id="path828" d="m216.73 2477h133.47"/>
  <path id="path830" d="m216.57 2477.2h133.8"/>
  <path id="path832" d="m216.4 2477.5h134.12"/>
  <path id="path834" d="m216.24 2477.7h134.44"/>
  <path id="path836" d="m216.08 2478h134.77"/>
  <path id="path838" d="m215.92 2478.3h135.09"/>
  <path id="path840" d="m215.76 2478.5h135.42"/>
  <path id="path842" d="m215.6 2478.8h135.74"/>
  <path id="path844" d="m215.43 2479h136.06"/>
  <path id="path846" d="m215.27 2479.3h136.39"/>
  <path id="path848" d="m215.11 2479.5h136.71"/>
  <path id="path850" d="m214.95 2479.8h137.04"/>
  <path id="path852" d="m214.78 2480.1h137.36"/>
  <path id="path854" d="m214.62 2480.3h137.68"/>
  <path id="path856" d="m214.46 2480.6h138.01"/>
  <path id="path858" d="m214.3 2480.8h138.33"/>
  <path id="path860" d="m214.14 2481.1h138.66"/>
  <path id="path862" d="m213.98 2481.3h138.98"/>
  <path id="path864" d="m213.81 2481.6h139.3"/>
  <path id="path866" d="m213.65 2481.9h139.63"/>
  <path id="path868" d="m213.49 2482.1h139.95"/>
  <path id="path870" d="m213.33 2482.4h140.28"/>
  <path id="path872" d="m213.16 2482.6h140.6"/>
  <path id="path874" d="m213 2482.9h140.92"/>
  <path id="path876" d="m212.84 2483.2h141.25"/>
  <path id="path878" d="m212.68 2483.4h141.57"/>
  <path id="path880" d="m212.52 2483.7h141.89"/>
  <path id="path882" d="m212.36 2483.9h142.22"/>
  <path id="path884" d="m212.19 2484.2h142.54"/>
  <path id="path886" d="m212.03 2484.4h142.87"/>
  <path id="path888" d="m211.87 2484.7h143.19"/>
  <path id="path890" d="m211.71 2485h143.51"/>
  <path id="path892" d="m211.54 2485.2h143.84"/>
  <path id="path894" d="m211.38 2485.5h144.16"/>
  <path id="path896" d="m211.22 2485.7h144.49"/>
  <path id="path898" d="m211.06 2486h144.81"/>
  <path id="path900" d="m210.9 2486.2h145.13"/>
  <path id="path902" d="m210.74 2486.5h145.46"/>
  <path id="path904" d="m210.57 2486.8h145.78"/>
  <path id="path906" d="m210.41 2487h146.1"/>
  <path id="path908" d="m210.25 2487.3h146.43"/>
  <path id="path910" d="m210.09 2487.5h146.75"/>
  <path id="path912" d="m209.93 2487.8h147.08"/>
  <path id="path914" d="m209.76 2488h147.4"/>
  <path id="path916" d="m209.6 2488.3h147.72"/>
  <path id="path918" d="m209.44 2488.6h148.05"/>
  <path id="path920" d="m209.28 2488.8h148.37"/>
  <path id="path922" d="m209.12 2489.1h148.7"/>
  <path id="path924" d="m208.95 2489.3h149.02"/>
  <path id="path926" d="m208.79 2489.6h149.34"/>
  <path id="path928" d="m208.63 2489.8h149.67"/>
  <path id="path930" d="m208.47 2490.1h149.99"/>
  <path id="path932" d="m208.31 2490.4h150.32"/>
  <path id="path934" d="m208.14 2490.6h150.64"/>
  <path id="path936" d="m207.98 2490.9h150.96"/>
  <path id="path938" d="m207.82 2491.1h151.29"/>
  <path id="path940" d="m207.66 2491.4h151.61"/>
  <path id="path942" d="m207.5 2491.7h151.94"/>
  <path id="path944" d="m207.33 2491.9h152.26"/>
  <path id="path946" d="m207.17 2492.2h152.58"/>
  <path id="path948" d="m207.01 2492.4h152.91"/>
  <path id="path950" d="m206.85 2492.7h153.23"/>
  <path id="path952" d="m206.69 2492.9h153.56"/>
  <path id="path954" d="m206.52 2493.2h153.88"/>
  <path id="path956" d="m206.36 2493.5h154.2"/>
  <path id="path958" d="m206.2 2493.7h154.53"/>
  <path id="path960" d="m206.04 2494h154.85"/>
  <path id="path962" d="m205.88 2494.2h155.18"/>
  <path id="path964" d="m205.71 2494.5h155.5"/>
  <path id="path966" d="m205.55 2494.7h155.82"/>
  <path id="path968" d="m205.39 2495h156.15"/>
  <path id="path970" d="m205.23 2495.3h156.47"/>
  <path id="path972" d="m205.07 2495.5h156.8"/>
  <path id="path974" d="m204.9 2495.8h157.12"/>
  <path id="path976" d="m204.74 2496h157.44"/>
  <path id="path978" d="m204.58 2496.3h157.77"/>
  <path id="path980" d="m204.42 2496.6h158.09"/>
  <path id="path982" d="m204.26 2496.8h158.42"/>
  <path id="path984" d="m204.09 2497.1h158.74"/>
  <path id="path986" d="m203.93 2497.3h159.06"/>
  <path id="path988" d="m203.77 2497.6h159.39"/>
  <path id="path990" d="m203.61 2497.8h159.71"/>
  <path id="path992" d="m203.45 2498.1h160.04"/>
  <path id="path994" d="m203.28 2498.4h160.36"/>
  <path id="path996" d="m203.12 2498.6h160.68"/>
  <path id="path998" d="m202.96 2498.9h161.01"/>
  <path id="path1000" d="m202.8 2499.1h161.33"/>
  <path id="path1002" d="m202.64 2499.4h161.66"/>
  <path id="path1004" d="m202.47 2499.6h161.98"/>
  <path id="path1006" d="m202.31 2499.9h162.3"/>
  <path id="path1008" d="m202.15 2500.2h162.63"/>
  <path id="path1010" d="m201.99 2500.4h162.95"/>
  <path id="path1012" d="m201.83 2500.7h163.28"/>
  <path id="path1014" d="m201.66 2500.9h163.6"/>
  <path id="path1016" d="m201.5 2501.2h163.92"/>
  <path id="path1018" d="m201.34 2501.4h164.25"/>
  <path id="path1020" d="m201.18 2501.7h164.57"/>
  <path id="path1022" d="m201.02 2502h164.9"/>
  <path id="path1024" d="m200.86 2502.2h165.22"/>
  <path id="path1026" d="m200.69 2502.5h165.54"/>
  <path id="path1028" d="m200.53 2502.7h165.87"/>
  <path id="path1030" d="m200.37 2503h166.19"/>
  <path id="path1032" d="m200.21 2503.2h166.52"/>
  <path id="path1034" d="m200.04 2503.5h166.84"/>
  <path id="path1036" d="m199.88 2503.8h167.16"/>
  <path id="path1038" d="m199.72 2504h167.49"/>
  <path id="path1040" d="m199.56 2504.3h167.81"/>
  <path id="path1042" d="m199.4 2504.5h168.14"/>
  <path id="path1044" d="m199.24 2504.8h168.46"/>
  <path id="path1046" d="m199.07 2505.1h168.78"/>
  <path id="path1048" d="m198.91 2505.3h169.11"/>
  <path id="path1050" d="m198.75 2505.6h169.43"/>
  <path id="path1052" d="m198.59 2505.8h169.76"/>
  <path id="path1054" d="m198.42 2506.1h170.08"/>
  <path id="path1056" d="m198.26 2506.3h170.4"/>
  <path id="path1058" d="m198.1 2506.6h170.73"/>
  <path id="path1060" d="m197.94 2506.9h171.05"/>
  <path id="path1062" d="m197.78 2507.1h171.38"/>
  <path id="path1064" d="m197.62 2507.4h171.7"/>
  <path id="path1066" d="m197.45 2507.6h172.02"/>
  <path id="path1068" d="m197.29 2507.9h172.35"/>
  <path id="path1070" d="m197.13 2508.1h172.67"/>
  <path id="path1072" d="m196.97 2508.4h172.99"/>
  <path id="path1074" d="m196.8 2508.7h173.32"/>
  <path id="path1076" d="m196.64 2508.9h173.64"/>
  <path id="path1078" d="m196.48 2509.2h173.97"/>
  <path id="path1080" d="m196.32 2509.4h174.29"/>
  <path id="path1082" d="m196.16 2509.7h174.62"/>
  <path id="path1084" d="m196 2510h174.94"/>
  <path id="path1086" d="m195.83 2510.2h175.26"/>
  <path id="path1088" d="m195.67 2510.5h175.59"/>
  <path id="path1090" d="m195.51 2510.7h175.91"/>
  <path id="path1092" d="m195.35 2511h176.24"/>
  <path id="path1094" d="m195.18 2511.2h176.56"/>
  <path id="path1096" d="m195.02 2511.5h176.88"/>
  <path id="path1098" d="m194.86 2511.8h177.2"/>
  <path id="path1100" d="m194.7 2512h177.53"/>
  <path id="path1102" d="m194.54 2512.3h177.85"/>
  <path id="path1104" d="m194.38 2512.5h178.18"/>
  <path id="path1106" d="m194.21 2512.8h178.5"/>
  <path id="path1108" d="m194.05 2513h178.82"/>
  <path id="path1110" d="m193.89 2513.3h179.15"/>
  <path id="path1112" d="m193.73 2513.6h179.47"/>
  <path id="path1114" d="m193.57 2513.8h179.8"/>
  <path id="path1116" d="m193.4 2514.1h180.12"/>
  <path id="path1118" d="m193.24 2514.3h180.44"/>
  <path id="path1120" d="m193.08 2514.6h180.77"/>
  <path id="path1122" d="m192.92 2514.8h181.09"/>
  <path id="path1124" d="m192.76 2515.1h181.42"/>
  <path id="path1126" d="m192.59 2515.4h181.74"/>
  <path id="path1128" d="m192.43 2515.6h182.06"/>
  <path id="path1130" d="m192.27 2515.9h182.39"/>
  <path id="path1132" d="m192.11 2516.1h182.71"/>
  <path id="path1134" d="m191.95 2516.4h183.04"/>
  <path id="path1136" d="m191.78 2516.6h183.36"/>
  <path id="path1138" d="m191.62 2516.9h183.68"/>
  <path id="path1140" d="m191.46 2517.2h184.01"/>
  <path id="path1142" d="m191.3 2517.4h184.33"/>
  <path id="path1144" d="m191.14 2517.7h184.66"/>
  <path id="path1146" d="m190.97 2517.9h184.98"/>
  <path id="path1148" d="m190.81 2518.2h185.3"/>
  <path id="path1150" d="m190.65 2518.5h185.63"/>
  <path id="path1152" d="m190.49 2518.7h185.95"/>
  <path id="path1154" d="m190.33 2519h186.28"/>
  <path id="path1156" d="m190.16 2519.2h186.6"/>
  <path id="path1158" d="m190 2519.5h186.92"/>
  <path id="path1160" d="m189.84 2519.7h187.25"/>
  <path id="path1162" d="m189.68 2520h187.57"/>
  <path id="path1164" d="m189.52 2520.3h187.9"/>
  <path id="path1166" d="m189.35 2520.5h188.22"/>
  <path id="path1168" d="m189.19 2520.8h188.54"/>
  <path id="path1170" d="m189.03 2521h188.87"/>
  <path id="path1172" d="m188.87 2521.3h189.19"/>
  <path id="path1174" d="m188.71 2521.5h189.52"/>
  <path id="path1176" d="m188.54 2521.8h189.84"/>
  <path id="path1178" d="m188.38 2522.1h190.16"/>
  <path id="path1180" d="m188.22 2522.3h190.49"/>
  <path id="path1182" d="m188.06 2522.6h190.81"/>
  <path id="path1184" d="m187.9 2522.8h191.14"/>
  <path id="path1186" d="m187.73 2523.1h191.46"/>
  <path id="path1188" d="m187.57 2523.4h191.78"/>
  <path id="path1190" d="m187.41 2523.6h192.11"/>
  <path id="path1192" d="m187.25 2523.9h192.43"/>
  <path id="path1194" d="m187.09 2524.1h192.76"/>
  <path id="path1196" d="m186.92 2524.4h193.08"/>
  <path id="path1198" d="m186.76 2524.6h193.4"/>
  <path id="path1200" d="m186.6 2524.9h193.73"/>
  <path id="path1202" d="m186.44 2525.2h194.05"/>
  <path id="path1204" d="m186.28 2525.4h194.38"/>
  <path id="path1206" d="m186.12 2525.7h194.7"/>
  <path id="path1208" d="m185.95 2525.9h195.02"/>
  <path id="path1210" d="m185.79 2526.2h195.35"/>
  <path id="path1212" d="m185.63 2526.4h195.67"/>
  <path id="path1214" d="m185.47 2526.7h196"/>
  <path id="path1216" d="m185.3 2527h196.32"/>
  <path id="path1218" d="m185.14 2527.2h196.64"/>
  <path id="path1220" d="m184.98 2527.5h196.97"/>
  <path id="path1222" d="m184.82 2527.7h197.29"/>
  <path id="path1224" d="m184.66 2528h197.62"/>
  <path id="path1226" d="m184.5 2528.2h197.94"/>
  <path id="path1228" d="m184.33 2528.5h198.26"/>
  <path id="path1230" d="m184.17 2528.8h198.59"/>
  <path id="path1232" d="m184.01 2529h198.91"/>
  <path id="path1234" d="m183.85 2529.3h199.24"/>
  <path id="path1236" d="m183.68 2529.5h199.56"/>
  <path id="path1238" d="m183.52 2529.8h199.88"/>
  <path id="path1240" d="m183.36 2530h200.21"/>
  <path id="path1242" d="m183.2 2530.3h200.53"/>
  <path id="path1244" d="m183.04 2530.6h200.86"/>
  <path id="path1246" d="m182.88 2530.8h201.18"/>
  <path id="path1248" d="m182.71 2531.1h201.5"/>
  <path id="path1250" d="m182.55 2531.3h201.83"/>
  <path id="path1252" d="m182.39 2531.6h202.15"/>
  <path id="path1254" d="m182.23 2531.9h202.48"/>
  <path id="path1256" d="m182.06 2532.1h202.8"/>
  <path id="path1258" d="m181.9 2532.4h203.12"/>
  <path id="path1260" d="m181.74 2532.6h203.45"/>
  <path id="path1262" d="m181.58 2532.9h203.77"/>
  <path id="path1264" d="m181.42 2533.1h204.1"/>
  <path id="path1266" d="m181.26 2533.4h204.42"/>
  <path id="path1268" d="m181.09 2533.7h204.74"/>
  <path id="path1270" d="m180.93 2533.9h205.07"/>
  <path id="path1272" d="m180.77 2534.2h205.39"/>
  <path id="path1274" d="m180.61 2534.4h205.72"/>
  <path id="path1276" d="m180.44 2534.7h206.04"/>
  <path id="path1278" d="m180.28 2534.9h206.36"/>
  <path id="path1280" d="m180.12 2535.2h206.69"/>
  <path id="path1282" d="m179.96 2535.5h207.01"/>
  <path id="path1284" d="m179.8 2535.7h207.33"/>
  <path id="path1286" d="m179.64 2536h207.66"/>
  <path id="path1288" d="m179.47 2536.2h207.98"/>
  <path id="path1290" d="m179.31 2536.5h208.31"/>
  <path id="path1292" d="m179.15 2536.8h208.63"/>
  <path id="path1294" d="m178.99 2537h208.95"/>
  <path id="path1296" d="m178.82 2537.3h209.28"/>
  <path id="path1298" d="m178.66 2537.5h209.6"/>
  <path id="path1300" d="m178.5 2537.8h209.93"/>
  <path id="path1302" d="m178.34 2538h210.25"/>
  <path id="path1304" d="m178.18 2538.3h210.57"/>
  <path id="path1306" d="m178.02 2538.6h210.9"/>
  <path id="path1308" d="m177.85 2538.8h211.22"/>
  <path id="path1310" d="m177.69 2539.1h211.54"/>
  <path id="path1312" d="m177.53 2539.3h211.87"/>
  <path id="path1314" d="m177.37 2539.6h212.19"/>
  <path id="path1316" d="m177.21 2539.8h212.52"/>
  <path id="path1318" d="m177.04 2540.1h212.84"/>
  <path id="path1320" d="m176.88 2540.4h213.16"/>
  <path id="path1322" d="m176.72 2540.6h213.49"/>
  <path id="path1324" d="m176.56 2540.9h213.81"/>
  <path id="path1326" d="m176.4 2541.1h214.14"/>
  <path id="path1328" d="m176.23 2541.4h214.46"/>
  <path id="path1330" d="m176.07 2541.6h214.78"/>
  <path id="path1332" d="m175.91 2541.9h215.11"/>
  <path id="path1334" d="m175.75 2542.2h215.43"/>
  <path id="path1336" d="m175.59 2542.4h215.76"/>
  <path id="path1338" d="m175.42 2542.7h216.08"/>
  <path id="path1340" d="m175.26 2542.9h216.4"/>
  <path id="path1342" d="m175.1 2543.2h216.73"/>
  <path id="path1344" d="m174.94 2543.5h217.05"/>
  <path id="path1346" d="m174.78 2543.7h217.38"/>
  <path id="path1348" d="m174.61 2544h217.7"/>
  <path id="path1350" d="m174.45 2544.2h218.02"/>
  <path id="path1352" d="m174.29 2544.5h218.35"/>
  <path id="path1354" d="m174.13 2544.7h218.67"/>
  <path id="path1356" d="m173.97 2545h219"/>
  <path id="path1358" d="m173.8 2545.3h219.32"/>
  <path id="path1360" d="m173.64 2545.5h219.64"/>
  <path id="path1362" d="m173.48 2545.8h219.97"/>
  <path id="path1364" d="m173.32 2546h220.29"/>
  <path id="path1366" d="m173.16 2546.3h220.62"/>
  <path id="path1368" d="m172.99 2546.5h220.94"/>
  <path id="path1370" d="m172.83 2546.8h221.26"/>
  <path id="path1372" d="m172.67 2547.1h221.59"/>
  <path id="path1374" d="m172.51 2547.3h221.91"/>
  <path id="path1376" d="m172.35 2547.6h222.24"/>
  <path id="path1378" d="m172.18 2547.8h222.56"/>
  <path id="path1380" d="m172.02 2548.1h222.88"/>
  <path id="path1382" d="m171.86 2548.3h223.21"/>
  <path id="path1384" d="m171.7 2548.6h223.53"/>
  <path id="path1386" d="m171.54 2548.9h223.86"/>
  <path id="path1388" d="m171.37 2549.1h224.18"/>
  <path id="path1390" d="m171.21 2549.4h224.5"/>
  <path id="path1392" d="m171.05 2549.6h224.83"/>
  <path id="path1394" d="m170.89 2549.9h225.15"/>
  <path id="path1396" d="m170.73 2550.2h225.48"/>
  <path id="path1398" d="m170.56 2550.4h225.8"/>
  <path id="path1400" d="m170.4 2550.7h226.12"/>
  <path id="path1402" d="m170.24 2550.9h226.45"/>
  <path id="path1404" d="m170.08 2551.2h226.77"/>
  <path id="path1406" d="m169.92 2551.4h227.1"/>
  <path id="path1408" d="m169.76 2551.7h227.42"/>
  <path id="path1410" d="m169.59 2552h227.74"/>
  <path id="path1412" d="m169.43 2552.2h228.07"/>
  <path id="path1414" d="m169.27 2552.5h228.39"/>
  <path id="path1416" d="m169.11 2552.7h228.72"/>
  <path id="path1418" d="m168.94 2553h229.04"/>
  <path id="path1420" d="m168.78 2553.2h229.36"/>
  <path id="path1422" d="m168.62 2553.5h229.69"/>
  <path id="path1424" d="m168.46 2553.8h230.01"/>
  <path id="path1426" d="m168.3 2554h230.34"/>
  <path id="path1428" d="m168.14 2554.3h230.66"/>
  <path id="path1430" d="m167.97 2554.5h230.98"/>
  <path id="path1432" d="m167.81 2554.8h231.31"/>
  <path id="path1434" d="m167.65 2555h231.63"/>
  <path id="path1436" d="m167.49 2555.3h231.96"/>
  <path id="path1438" d="m167.32 2555.6h232.28"/>
  <path id="path1440" d="m167.16 2555.8h232.6"/>
  <path id="path1442" d="m167 2556.1h232.93"/>
  <path id="path1444" d="m166.84 2556.3h233.25"/>
  <path id="path1446" d="m166.68 2556.6h233.58"/>
  <path id="path1448" d="m166.52 2556.9h233.9"/>
  <path id="path1450" d="m166.35 2557.1h234.22"/>
  <path id="path1452" d="m166.19 2557.4h234.55"/>
  <path id="path1454" d="m166.03 2557.6h234.87"/>
  <path id="path1456" d="m165.87 2557.9h235.2"/>
  <path id="path1458" d="m165.7 2558.1h235.52"/>
  <path id="path1460" d="m165.54 2558.4h235.84"/>
  <path id="path1462" d="m165.38 2558.7h236.17"/>
  <path id="path1464" d="m165.22 2558.9h236.49"/>
  <path id="path1466" d="m165.06 2559.2h236.82"/>
  <path id="path1468" d="m164.9 2559.4h237.14"/>
  <path id="path1470" d="m164.73 2559.7h237.46"/>
  <path id="path1472" d="m164.57 2559.9h237.79"/>
  <path id="path1474" d="m164.41 2560.2h238.11"/>
  <path id="path1476" d="m164.25 2560.5h238.43"/>
  <path id="path1478" d="m164.08 2560.7h238.76"/>
  <path id="path1480" d="m163.92 2561h239.08"/>
  <path id="path1482" d="m163.76 2561.2h239.41"/>
  <path id="path1484" d="m163.6 2561.5h239.73"/>
  <path id="path1486" d="m163.44 2561.7h240.05"/>
  <path id="path1488" d="m163.28 2562h240.38"/>
  <path id="path1490" d="m163.11 2562.3h240.7"/>
  <path id="path1492" d="m162.95 2562.5h241.03"/>
  <path id="path1494" d="m162.79 2562.8h241.35"/>
  <path id="path1496" d="m162.63 2563h241.67"/>
  <path id="path1498" d="m162.46 2563.3h242"/>
  <path id="path1500" d="m162.3 2563.6h242.32"/>
  <path id="path1502" d="m162.14 2563.8h242.64"/>
  <path id="path1504" d="m161.98 2564.1h242.97"/>
  <path id="path1506" d="m161.82 2564.3h243.29"/>
  <path id="path1508" d="m161.66 2564.6h243.62"/>
  <path id="path1510" d="m161.49 2564.8h243.94"/>
  <path id="path1512" d="m161.33 2565.1h244.26"/>
  <path id="path1514" d="m161.17 2565.4h244.59"/>
  <path id="path1516" d="m161.01 2565.6h244.91"/>
  <path id="path1518" d="m160.85 2565.9h245.24"/>
  <path id="path1520" d="m160.68 2566.1h245.56"/>
  <path id="path1522" d="m160.52 2566.4h245.88"/>
  <path id="path1524" d="m160.36 2566.6h246.21"/>
  <path id="path1526" d="m160.2 2566.9h246.53"/>
  <path id="path1528" d="m160.04 2567.2h246.86"/>
  <path id="path1530" d="m159.87 2567.4h247.18"/>
  <path id="path1532" d="m159.71 2567.7h247.5"/>
  <path id="path1534" d="m159.55 2567.9h247.83"/>
  <path id="path1536" d="m159.39 2568.2h248.15"/>
  <path id="path1538" d="m159.23 2568.4h248.48"/>
  <path id="path1540" d="m159.06 2568.7h248.8"/>
  <path id="path1542" d="m158.9 2569h249.12"/>
  <path id="path1544" d="m158.74 2569.2h249.45"/>
  <path id="path1546" d="m158.58 2569.5h249.77"/>
  <path id="path1548" d="m158.42 2569.7h250.1"/>
  <path id="path1550" d="m158.25 2570h250.42"/>
  <path id="path1552" d="m158.09 2570.3h250.74"/>
  <path id="path1554" d="m157.93 2570.5h251.07"/>
  <path id="path1556" d="m157.77 2570.8h251.39"/>
  <path id="path1558" d="m157.61 2571h251.72"/>
  <path id="path1560" d="m157.44 2571.3h252.04"/>
  <path id="path1562" d="m157.28 2571.5h252.36"/>
  <path id="path1564" d="m157.12 2571.8h252.69"/>
  <path id="path1566" d="m156.96 2572.1h253.01"/>
  <path id="path1568" d="m156.8 2572.3h253.34"/>
  <path id="path1570" d="m156.63 2572.6h253.66"/>
  <path id="path1572" d="m156.47 2572.8h253.98"/>
  <path id="path1574" d="m156.31 2573.1h254.31"/>
  <path id="path1576" d="m156.15 2573.3h254.63"/>
  <path id="path1578" d="m155.99 2573.6h254.96"/>
  <path id="path1580" d="m155.82 2573.9h255.28"/>
  <path id="path1582" d="m155.66 2574.1h255.6"/>
  <path id="path1584" d="m155.5 2574.4h255.93"/>
  <path id="path1586" d="m155.34 2574.6h256.25"/>
  <path id="path1588" d="m155.18 2574.9h256.58"/>
  <path id="path1590" d="m155.01 2575.1h256.9"/>
  <path id="path1592" d="m154.85 2575.4h257.22"/>
  <path id="path1594" d="m154.69 2575.7h257.55"/>
  <path id="path1596" d="m154.53 2575.9h257.87"/>
  <path id="path1598" d="m154.37 2576.2h258.2"/>
  <path id="path1600" d="m154.2 2576.4h258.52"/>
  <path id="path1602" d="m154.04 2576.7h258.84"/>
  <path id="path1604" d="m153.88 2577h259.17"/>
  <path id="path1606" d="m153.72 2577.2h259.49"/>
  <path id="path1608" d="m153.56 2577.5h259.82"/>
  <path id="path1610" d="m153.4 2577.7h260.14"/>
  <path id="path1612" d="m153.23 2578h260.46"/>
  <path id="path1614" d="m153.07 2578.2h260.79"/>
  <path id="path1616" d="m152.91 2578.5h261.11"/>
  <path id="path1618" d="m152.75 2578.8h261.44"/>
  <path id="path1620" d="m152.58 2579h261.76"/>
  <path id="path1622" d="m152.42 2579.3h262.08"/>
  <path id="path1624" d="m152.26 2579.5h262.41"/>
  <path id="path1626" d="m152.1 2579.8h262.73"/>
  <path id="path1628" d="m151.94 2580h263.06"/>
  <path id="path1630" d="m151.78 2580.3h263.38"/>
  <path id="path1632" d="m151.61 2580.6h263.7"/>
  <path id="path1634" d="m151.45 2580.8h264.03"/>
  <path id="path1636" d="m151.29 2581.1h264.35"/>
  <path id="path1638" d="m151.13 2581.3h264.68"/>
  <path id="path1640" d="m150.96 2581.6h265"/>
  <path id="path1642" d="m150.8 2581.8h265.32"/>
  <path id="path1644" d="m150.64 2582.1h265.65"/>
  <path id="path1646" d="m150.48 2582.4h265.97"/>
  <path id="path1648" d="m150.32 2582.6h266.3"/>
  <path id="path1650" d="m150.16 2582.9h266.62"/>
  <path id="path1652" d="m149.99 2583.1h266.94"/>
  <path id="path1654" d="m149.83 2583.4h267.27"/>
  <path id="path1656" d="m149.67 2583.7h267.59"/>
  <path id="path1658" d="m149.51 2583.9h267.92"/>
  <path id="path1660" d="m149.34 2584.2h268.24"/>
  <path id="path1662" d="m149.18 2584.4h268.56"/>
  <path id="path1664" d="m149.02 2584.7h268.89"/>
  <path id="path1666" d="m148.86 2584.9h269.21"/>
  <path id="path1668" d="m148.7 2585.2h269.54"/>
  <path id="path1670" d="m148.54 2585.5h269.86"/>
  <path id="path1672" d="m148.37 2585.7h270.18"/>
  <path id="path1674" d="m148.21 2586h270.51"/>
  <path id="path1676" d="m148.05 2586.2h270.83"/>
  <path id="path1678" d="m147.89 2586.5h271.16"/>
  <path id="path1680" d="m147.72 2586.7h271.48"/>
  <path id="path1682" d="m147.56 2587h271.8"/>
  <path id="path1684" d="m147.4 2587.3h272.13"/>
  <path id="path1686" d="m147.24 2587.5h272.45"/>
  <path id="path1688" d="m147.08 2587.8h272.77"/>
  <path id="path1690" d="m146.92 2588h273.1"/>
  <path id="path1692" d="m146.75 2588.3h273.42"/>
  <path id="path1694" d="m146.59 2588.5h273.74"/>
  <path id="path1696" d="m146.43 2588.8h274.07"/>
  <path id="path1698" d="m146.27 2589.1h274.39"/>
  <path id="path1700" d="m146.11 2589.3h274.72"/>
  <path id="path1702" d="m145.94 2589.6h275.04"/>
  <path id="path1704" d="m145.78 2589.8h275.36"/>
  <path id="path1706" d="m145.62 2590.1h275.69"/>
  <path id="path1708" d="m145.46 2590.4h276.01"/>
  <path id="path1710" d="m145.3 2590.6h276.34"/>
  <path id="path1712" d="m145.13 2590.9h276.66"/>
  <path id="path1714" d="m144.97 2591.1h276.98"/>
  <path id="path1716" d="m144.81 2591.4h277.31"/>
  <path id="path1718" d="m144.65 2591.6h277.63"/>
  <path id="path1720" d="m144.49 2591.9h277.96"/>
  <path id="path1722" d="m144.32 2592.2h278.28"/>
  <path id="path1724" d="m144.16 2592.4h278.6"/>
  <path id="path1726" d="m144 2592.7h278.93"/>
  <path id="path1728" d="m143.84 2592.9h279.25"/>
  <path id="path1730" d="m143.68 2593.2h279.58"/>
  <path id="path1732" d="m143.51 2593.4h279.9"/>
  <path id="path1734" d="m143.35 2593.7h280.22"/>
  <path id="path1736" d="m143.19 2594h280.55"/>
  <path id="path1738" d="m143.03 2594.2h280.87"/>
  <path id="path1740" d="m142.87 2594.5h281.2"/>
  <path id="path1742" d="m142.7 2594.7h281.52"/>
  <path id="path1744" d="m142.54 2595h281.84"/>
  <path id="path1746" d="m142.38 2595.2h282.17"/>
  <path id="path1748" d="m142.22 2595.5h282.49"/>
  <path id="path1750" d="m142.06 2595.8h282.82"/>
  <path id="path1752" d="m141.89 2596h283.14"/>
  <path id="path1754" d="m141.73 2596.3h283.46"/>
  <path id="path1756" d="m141.57 2596.5h283.79"/>
  <path id="path1758" d="m141.41 2596.8h284.11"/>
  <path id="path1760" d="m141.25 2597.1h284.44"/>
  <path id="path1762" d="m141.08 2597.3h284.76"/>
  <path id="path1764" d="m140.92 2597.6h285.08"/>
  <path id="path1766" d="m140.76 2597.8h285.41"/>
  <path id="path1768" d="m140.6 2598.1h285.73"/>
  <path id="path1770" d="m140.44 2598.3h286.06"/>
  <path id="path1772" d="m140.27 2598.6h286.38"/>
  <path id="path1774" d="m140.11 2598.9h286.7"/>
  <path id="path1776" d="m139.95 2599.1h287.03"/>
  <path id="path1778" d="m139.79 2599.4h287.35"/>
  <path id="path1780" d="m139.63 2599.6h287.68"/>
  <path id="path1782" d="m139.46 2599.9h288"/>
  <path id="path1784" d="m139.3 2600.1h288.32"/>
  <path id="path1786" d="m139.14 2600.4h288.65"/>
  <path id="path1788" d="m138.98 2600.7h288.97"/>
  <path id="path1790" d="m138.82 2600.9h289.3"/>
  <path id="path1792" d="m138.65 2601.2h289.62"/>
  <path id="path1794" d="m138.49 2601.4h289.94"/>
  <path id="path1796" d="m138.33 2601.7h290.27"/>
  <path id="path1798" d="m138.17 2601.9h290.59"/>
  <path id="path1800" d="m138.01 2602.2h290.92"/>
  <path id="path1802" d="m137.84 2602.5h291.24"/>
  <path id="path1804" d="m137.68 2602.7h291.56"/>
  <path id="path1806" d="m137.52 2603h291.89"/>
  <path id="path1808" d="m137.36 2603.2h292.21"/>
  <path id="path1810" d="m137.2 2603.5h292.54"/>
  <path id="path1812" d="m137.04 2603.8h292.86"/>
  <path id="path1814" d="m136.87 2604h293.18"/>
  <path id="path1816" d="m136.71 2604.3h293.51"/>
  <path id="path1818" d="m136.55 2604.5h293.83"/>
  <path id="path1820" d="m136.39 2604.8h294.16"/>
  <path id="path1822" d="m136.22 2605h294.48"/>
  <path id="path1824" d="m136.06 2605.3h294.8"/>
  <path id="path1826" d="m135.9 2605.6h295.13"/>
  <path id="path1828" d="m135.74 2605.8h295.45"/>
  <path id="path1830" d="m135.58 2606.1h295.78"/>
  <path id="path1832" d="m135.42 2606.3h296.1"/>
  <path id="path1834" d="m135.25 2606.6h296.42"/>
  <path id="path1836" d="m135.09 2606.8h296.75"/>
  <path id="path1838" d="m134.93 2607.1h297.07"/>
  <path id="path1840" d="m134.77 2607.4h297.4"/>
  <path id="path1842" d="m134.6 2607.6h297.72"/>
  <path id="path1844" d="m134.44 2607.9h298.04"/>
  <path id="path1846" d="m134.28 2608.1h298.37"/>
  <path id="path1848" d="m134.12 2608.4h298.69"/>
  <path id="path1850" d="m133.96 2608.6h299.02"/>
  <path id="path1852" d="m133.8 2608.9h299.34"/>
  <path id="path1854" d="m133.63 2609.2h299.66"/>
  <path id="path1856" d="m133.47 2609.4h299.99"/>
  <path id="path1858" d="m133.31 2609.7h300.31"/>
  <path id="path1860" d="m133.15 2609.9h300.64"/>
  <path id="path1862" d="m132.98 2610.2h300.96"/>
  <path id="path1864" d="m132.82 2610.5h301.28"/>
  <path id="path1866" d="m132.66 2610.7h301.61"/>
  <path id="path1868" d="m132.5 2611h301.93"/>
  <path id="path1870" d="m132.34 2611.2h302.26"/>
  <path id="path1872" d="m132.18 2611.5h302.58"/>
  <path id="path1874" d="m132.01 2611.7h302.9"/>
  <path id="path1876" d="m131.85 2612h303.23"/>
  <path id="path1878" d="m131.69 2612.3h303.55"/>
  <path id="path1880" d="m131.53 2612.5h303.87"/>
  <path id="path1882" d="m131.36 2612.8h304.2"/>
  <path id="path1884" d="m131.2 2613h304.52"/>
  <path id="path1886" d="m131.04 2613.3h304.85"/>
  <path id="path1888" d="m130.88 2613.5h305.17"/>
  <path id="path1890" d="m130.72 2613.8h305.49"/>
  <path id="path1892" d="m130.56 2614.1h305.82"/>
  <path id="path1894" d="m130.39 2614.3h306.14"/>
  <path id="path1896" d="m130.23 2614.6h306.47"/>
  <path id="path1898" d="m130.07 2614.8h306.79"/>
  <path id="path1900" d="m129.91 2615.1h307.11"/>
  <path id="path1902" d="m129.74 2615.3h307.44"/>
  <path id="path1904" d="m129.58 2615.6h307.76"/>
  <path id="path1906" d="m129.42 2615.9h308.08"/>
  <path id="path1908" d="m129.26 2616.1h308.41"/>
  <path id="path1910" d="m129.1 2616.4h308.73"/>
  <path id="path1912" d="m128.94 2616.6h309.06"/>
  <path id="path1914" d="m128.77 2616.9h309.38"/>
  <path id="path1916" d="m128.61 2617.2h309.7"/>
  <path id="path1918" d="m128.45 2617.4h310.03"/>
  <path id="path1920" d="m128.29 2617.7h310.35"/>
  <path id="path1922" d="m128.13 2617.9h310.68"/>
  <path id="path1924" d="m127.96 2618.2h311"/>
  <path id="path1926" d="m127.8 2618.4h311.32"/>
  <path id="path1928" d="m127.64 2618.7h311.65"/>
  <path id="path1930" d="m127.48 2619h311.97"/>
  <path id="path1932" d="m127.32 2619.2h312.3"/>
  <path id="path1934" d="m127.15 2619.5h312.62"/>
  <path id="path1936" d="m126.99 2619.7h312.94"/>
  <path id="path1938" d="m126.83 2620h313.27"/>
  <path id="path1940" d="m126.67 2620.2h313.59"/>
  <path id="path1942" d="m126.51 2620.5h313.92"/>
  <path id="path1944" d="m126.34 2620.8h314.24"/>
  <path id="path1946" d="m126.18 2621h314.56"/>
  <path id="path1948" d="m126.02 2621.3h314.89"/>
  <path id="path1950" d="m125.86 2621.5h315.21"/>
  <path id="path1952" d="m125.7 2621.8h315.54"/>
  <path id="path1954" d="m125.53 2622h315.86"/>
  <path id="path1956" d="m125.37 2622.3h316.18"/>
  <path id="path1958" d="m125.21 2622.6h316.51"/>
  <path id="path1960" d="m125.05 2622.8h316.83"/>
  <path id="path1962" d="m124.89 2623.1h317.16"/>
  <path id="path1964" d="m124.72 2623.3h317.48"/>
  <path id="path1966" d="m124.56 2623.6h317.8"/>
  <path id="path1968" d="m124.4 2623.9h318.13"/>
  <path id="path1970" d="m124.24 2624.1h318.45"/>
  <path id="path1972" d="m124.08 2624.4h318.78"/>
  <path id="path1974" d="m123.91 2624.6h319.1"/>
  <path id="path1976" d="m123.75 2624.9h319.42"/>
  <path id="path1978" d="m123.59 2625.1h319.75"/>
  <path id="path1980" d="m123.43 2625.4h320.07"/>
  <path id="path1982" d="m123.27 2625.7h320.4"/>
  <path id="path1984" d="m123.1 2625.9h320.72"/>
  <path id="path1986" d="m122.94 2626.2h321.04"/>
  <path id="path1988" d="m122.78 2626.4h321.37"/>
  <path id="path1990" d="m122.62 2626.7h321.69"/>
  <path id="path1992" d="m122.46 2626.9h322.02"/>
  <path id="path1994" d="m122.3 2627.2h322.34"/>
  <path id="path1996" d="m122.13 2627.5h322.66"/>
  <path id="path1998" d="m121.97 2627.7h322.99"/>
  <path id="path2000" d="m121.81 2628h323.31"/>
  <path id="path2002" d="m121.65 2628.2h323.64"/>
  <path id="path2004" d="m121.48 2628.5h323.96"/>
  <path id="path2006" d="m121.32 2628.7h324.28"/>
  <path id="path2008" d="m121.16 2629h324.61"/>
  <path id="path2010" d="m121 2629.3h324.93"/>
  <path id="path2012" d="m120.84 2629.5h325.26"/>
  <path id="path2014" d="m120.68 2629.8h325.58"/>
  <path id="path2016" d="m120.51 2630h325.9"/>
  <path id="path2018" d="m120.35 2630.3h326.23"/>
  <path id="path2020" d="m120.19 2630.6h326.55"/>
  <path id="path2022" d="m120.03 2630.8h326.88"/>
  <path id="path2024" d="m119.86 2631.1h327.2"/>
  <path id="path2026" d="m119.7 2631.3h327.52"/>
  <path id="path2028" d="m119.54 2631.6h327.85"/>
  <path id="path2030" d="m119.38 2631.8h328.17"/>
  <path id="path2032" d="m119.22 2632.1h328.5"/>
  <path id="path2034" d="m119.06 2632.4h328.82"/>
  <path id="path2036" d="m118.89 2632.6h329.14"/>
  <path id="path2038" d="m118.73 2632.9h329.47"/>
  <path id="path2040" d="m118.57 2633.1h329.79"/>
  <path id="path2042" d="m118.41 2633.4h330.12"/>
  <path id="path2044" d="m118.24 2633.6h330.44"/>
  <path id="path2046" d="m118.08 2633.9h330.76"/>
  <path id="path2048" d="m117.92 2634.2h331.09"/>
  <path id="path2050" d="m117.76 2634.4h331.41"/>
  <path id="path2052" d="m117.6 2634.7h331.74"/>
  <path id="path2054" d="m117.44 2634.9h332.06"/>
  <path id="path2056" d="m117.27 2635.2h332.38"/>
  <path id="path2058" d="m117.11 2635.4h332.71"/>
  <path id="path2060" d="m116.95 2635.7h333.03"/>
  <path id="path2062" d="m116.79 2636h333.36"/>
  <path id="path2064" d="m116.62 2636.2h333.68"/>
  <path id="path2066" d="m116.46 2636.5h334"/>
  <path id="path2068" d="m116.3 2636.7h334.33"/>
  <path id="path2070" d="m116.14 2637h334.65"/>
  <path id="path2072" d="m115.98 2637.3h334.97"/>
  <path id="path2074" d="m115.82 2637.5h335.3"/>
  <path id="path2076" d="m115.65 2637.8h335.62"/>
  <path id="path2078" d="m115.49 2638h335.95"/>
  <path id="path2080" d="m115.33 2638.3h336.27"/>
  <path id="path2082" d="m115.17 2638.5h336.59"/>
  <path id="path2084" d="m115 2638.8h336.92"/>
  <path id="path2086" d="m114.84 2639.1h337.24"/>
  <path id="path2088" d="m114.68 2639.3h337.57"/>
  <path id="path2090" d="m114.52 2639.6h337.89"/>
  <path id="path2092" d="m114.36 2639.8h338.21"/>
  <path id="path2094" d="m114.2 2640.1h338.54"/>
  <path id="path2096" d="m114.03 2640.3h338.86"/>
  <path id="path2098" d="m113.87 2640.6h339.18"/>
  <path id="path2100" d="m113.71 2640.9h339.51"/>
  <path id="path2102" d="m113.55 2641.1h339.83"/>
  <path id="path2104" d="m113.39 2641.4h340.16"/>
  <path id="path2106" d="m113.22 2641.6h340.48"/>
  <path id="path2108" d="m113.06 2641.9h340.8"/>
  <path id="path2110" d="m112.9 2642.1h341.13"/>
  <path id="path2112" d="m112.74 2642.4h341.45"/>
  <path id="path2114" d="m112.58 2642.7h341.78"/>
  <path id="path2116" d="m112.41 2642.9h342.1"/>
  <path id="path2118" d="m112.25 2643.2h342.42"/>
  <path id="path2120" d="m112.09 2643.4h342.75"/>
  <path id="path2122" d="m111.93 2643.7h343.07"/>
  <path id="path2124" d="m111.77 2644h343.4"/>
  <path id="path2126" d="m111.6 2644.2h343.72"/>
  <path id="path2128" d="m111.44 2644.5h344.04"/>
  <path id="path2130" d="m111.28 2644.7h344.37"/>
  <path id="path2132" d="m111.12 2645h344.69"/>
  <path id="path2134" d="m110.96 2645.2h345.02"/>
  <path id="path2136" d="m110.79 2645.5h345.34"/>
  <path id="path2138" d="m110.63 2645.8h345.66"/>
  <path id="path2140" d="m110.47 2646h345.99"/>
  <path id="path2142" d="m110.31 2646.3h346.31"/>
  <path id="path2144" d="m110.15 2646.5h346.64"/>
  <path id="path2146" d="m109.98 2646.8h346.96"/>
  <path id="path2148" d="m109.82 2647h347.28"/>
  <path id="path2150" d="m109.66 2647.3h347.61"/>
  <path id="path2152" d="m109.5 2647.6h347.93"/>
  <path id="path2154" d="m109.34 2647.8h348.26"/>
  <path id="path2156" d="m109.17 2648.1h348.58"/>
  <path id="path2158" d="m109.01 2648.3h348.9"/>
  <path id="path2160" d="m108.85 2648.6h349.23"/>
  <path id="path2162" d="m108.69 2648.8h349.55"/>
  <path id="path2164" d="m108.53 2649.1h349.88"/>
  <path id="path2166" d="m108.36 2649.4h350.2"/>
  <path id="path2168" d="m108.2 2649.6h350.52"/>
  <path id="path2170" d="m108.04 2649.9h350.85"/>
  <path id="path2172" d="m107.88 2650.1h351.17"/>
  <path id="path2174" d="m107.72 2650.4h351.5"/>
  <path id="path2176" d="m107.55 2650.7h351.82"/>
  <path id="path2178" d="m107.39 2650.9h352.14"/>
  <path id="path2180" d="m107.23 2651.2h352.47"/>
  <path id="path2182" d="m107.07 2651.4h352.79"/>
  <path id="path2184" d="m106.91 2651.7h353.12"/>
  <path id="path2186" d="m106.74 2651.9h353.44"/>
  <path id="path2188" d="m106.58 2652.2h353.76"/>
  <path id="path2190" d="m106.42 2652.5h354.09"/>
  <path id="path2192" d="m106.26 2652.7h354.41"/>
  <path id="path2194" d="m106.1 2653h354.74"/>
  <path id="path2196" d="m105.93 2653.2h355.06"/>
  <path id="path2198" d="m105.77 2653.5h355.38"/>
  <path id="path2200" d="m105.61 2653.7h355.71"/>
  <path id="path2202" d="m105.45 2654h356.03"/>
  <path id="path2204" d="m105.29 2654.3h356.36"/>
  <path id="path2206" d="m105.12 2654.5h356.68"/>
  <path id="path2208" d="m104.96 2654.8h357"/>
  <path id="path2210" d="m104.8 2655h357.33"/>
  <path id="path2212" d="m104.64 2655.3h357.65"/>
  <path id="path2214" d="m104.48 2655.5h357.98"/>
  <path id="path2216" d="m104.32 2655.8h358.3"/>
  <path id="path2218" d="m104.15 2656.1h358.62"/>
  <path id="path2220" d="m103.99 2656.3h358.95"/>
  <path id="path2222" d="m103.83 2656.6h359.27"/>
  <path id="path2224" d="m103.67 2656.8h359.6"/>
  <path id="path2226" d="m103.5 2657.1h359.92"/>
  <path id="path2228" d="m103.34 2657.4h360.24"/>
  <path id="path2230" d="m103.18 2657.6h360.57"/>
  <path id="path2232" d="m103.02 2657.9h360.89"/>
  <path id="path2234" d="m102.86 2658.1h361.22"/>
  <path id="path2236" d="m102.7 2658.4h361.54"/>
  <path id="path2238" d="m102.53 2658.6h361.86"/>
  <path id="path2240" d="m102.37 2658.9h362.19"/>
  <path id="path2242" d="m102.21 2659.2h362.51"/>
  <path id="path2244" d="m102.05 2659.4h362.84"/>
  <path id="path2246" d="m101.88 2659.7h363.16"/>
  <path id="path2248" d="m101.72 2659.9h363.48"/>
  <path id="path2250" d="m101.56 2660.2h363.81"/>
  <path id="path2252" d="m101.4 2660.4h364.13"/>
  <path id="path2254" d="m101.24 2660.7h364.46"/>
  <path id="path2256" d="m101.08 2661h364.78"/>
  <path id="path2258" d="m100.91 2661.2h365.1"/>
  <path id="path2260" d="m100.75 2661.5h365.43"/>
  <path id="path2262" d="m100.59 2661.7h365.75"/>
  <path id="path2264" d="m100.43 2662h366.08"/>
  <path id="path2266" d="m100.26 2662.2h366.4"/>
  <path id="path2268" d="m100.1 2662.5h366.72"/>
  <path id="path2270" d="m99.941 2662.8h367.05"/>
  <path id="path2272" d="m99.779 2663h367.37"/>
  <path id="path2274" d="m99.617 2663.3h367.7"/>
  <path id="path2276" d="m99.455 2663.5h368.02"/>
  <path id="path2278" d="m99.293 2663.8h368.34"/>
  <path id="path2280" d="m99.132 2664.1h368.66"/>
  <path id="path2282" d="m98.97 2664.3h368.99"/>
  <path id="path2284" d="m98.808 2664.6h369.31"/>
  <path id="path2286" d="m98.646 2664.8h369.64"/>
  <path id="path2288" d="m98.484 2665.1h369.96"/>
  <path id="path2290" d="m98.322 2665.3h370.28"/>
  <path id="path2292" d="m98.16 2665.6h370.61"/>
  <path id="path2294" d="m97.998 2665.9h370.93"/>
  <path id="path2296" d="m97.836 2666.1h371.26"/>
  <path id="path2298" d="m97.674 2666.4h371.58"/>
  <path id="path2300" d="m97.512 2666.6h371.9"/>
  <path id="path2302" d="m97.35 2666.9h372.23"/>
  <path id="path2304" d="m97.188 2667.1h372.55"/>
  <path id="path2306" d="m97.026 2667.4h372.88"/>
  <path id="path2308" d="m96.864 2667.7h373.2"/>
  <path id="path2310" d="m96.702 2667.9h373.52"/>
  <path id="path2312" d="m96.54 2668.2h373.85"/>
  <path id="path2314" d="m96.378 2668.4h374.17"/>
  <path id="path2316" d="m96.216 2668.7h374.5"/>
  <path id="path2318" d="m96.054 2668.9h374.82"/>
  <path id="path2320" d="m95.892 2669.2h375.14"/>
  <path id="path2322" d="m95.73 2669.5h375.47"/>
  <path id="path2324" d="m95.568 2669.7h375.79"/>
  <path id="path2326" d="m95.406 2670h376.12"/>
  <path id="path2328" d="m95.244 2670.2h376.44"/>
  <path id="path2330" d="m95.082 2670.5h376.76"/>
  <path id="path2332" d="m94.92 2670.8h377.09"/>
  <path id="path2334" d="m94.758 2671h377.41"/>
  <path id="path2336" d="m94.596 2671.3h377.74"/>
  <path id="path2338" d="m94.434 2671.5h378.06"/>
  <path id="path2340" d="m94.272 2671.8h378.38"/>
  <path id="path2342" d="m94.11 2672h378.71"/>
  <path id="path2344" d="m93.948 2672.3h379.03"/>
  <path id="path2346" d="m93.786 2672.6h379.36"/>
  <path id="path2348" d="m93.624 2672.8h379.68"/>
  <path id="path2350" d="m93.462 2673.1h380"/>
  <path id="path2352" d="m93.3 2673.3h380.33"/>
  <path id="path2354" d="m93.138 2673.6h380.65"/>
  <path id="path2356" d="m92.976 2673.8h380.98"/>
  <path id="path2358" d="m92.814 2674.1h381.3"/>
  <path id="path2360" d="m92.652 2674.4h381.62"/>
  <path id="path2362" d="m92.49 2674.6h381.95"/>
  <path id="path2364" d="m92.328 2674.9h382.27"/>
  <path id="path2366" d="m92.166 2675.1h382.6"/>
  <path id="path2368" d="m92.004 2675.4h382.92"/>
  <path id="path2370" d="m91.842 2675.6h383.24"/>
  <path id="path2372" d="m91.68 2675.9h383.57"/>
  <path id="path2374" d="m91.518 2676.2h383.89"/>
  <path id="path2376" d="m91.356 2676.4h384.22"/>
  <path id="path2378" d="m91.194 2676.7h384.54"/>
  <path id="path2380" d="m91.032 2676.9h384.86"/>
  <path id="path2382" d="m90.87 2677.2h385.19"/>
  <path id="path2384" d="m90.708 2677.5h385.51"/>
  <path id="path2386" d="m90.546 2677.7h385.84"/>
  <path id="path2388" d="m90.385 2678h386.16"/>
  <path id="path2390" d="m90.223 2678.2h386.48"/>
  <path id="path2392" d="m90.061 2678.5h386.81"/>
  <path id="path2394" d="m89.899 2678.7h387.13"/>
  <path id="path2396" d="m89.737 2679h387.46"/>
  <path id="path2398" d="m89.575 2679.3h387.78"/>
  <path id="path2400" d="m89.413 2679.5h388.1"/>
  <path id="path2402" d="m89.251 2679.8h388.43"/>
  <path id="path2404" d="m89.089 2680h388.75"/>
  <path id="path2406" d="m88.927 2680.3h389.08"/>
  <path id="path2408" d="m88.765 2680.5h389.4"/>
  <path id="path2410" d="m88.603 2680.8h389.72"/>
  <path id="path2412" d="m88.441 2681.1h390.05"/>
  <path id="path2414" d="m88.279 2681.3h390.37"/>
  <path id="path2416" d="m88.117 2681.6h390.7"/>
  <path id="path2418" d="m87.955 2681.8h391.02"/>
  <path id="path2420" d="m87.793 2682.1h391.34"/>
  <path id="path2422" d="m87.631 2682.3h391.67"/>
  <path id="path2424" d="m87.469 2682.6h391.99"/>
  <path id="path2426" d="m87.307 2682.9h392.32"/>
  <path id="path2428" d="m87.145 2683.1h392.64"/>
  <path id="path2430" d="m86.983 2683.4h392.96"/>
  <path id="path2432" d="m86.821 2683.6h393.29"/>
  <path id="path2434" d="m86.659 2683.9h393.61"/>
  <path id="path2436" d="m86.497 2684.2h393.94"/>
  <path id="path2438" d="m86.335 2684.4h394.26"/>
  <path id="path2440" d="m86.173 2684.7h394.58"/>
  <path id="path2442" d="m86.011 2684.9h394.91"/>
  <path id="path2444" d="m85.849 2685.2h395.23"/>
  <path id="path2446" d="m85.687 2685.4h395.56"/>
  <path id="path2448" d="m85.525 2685.7h395.88"/>
  <path id="path2450" d="m85.363 2686h396.2"/>
  <path id="path2452" d="m85.201 2686.2h396.53"/>
  <path id="path2454" d="m85.039 2686.5h396.85"/>
  <path id="path2456" d="m84.877 2686.7h397.18"/>
  <path id="path2458" d="m84.715 2687h397.5"/>
  <path id="path2460" d="m84.553 2687.2h397.82"/>
  <path id="path2462" d="m84.391 2687.5h398.15"/>
  <path id="path2464" d="m84.229 2687.8h398.47"/>
  <path id="path2466" d="m84.067 2688h398.8"/>
  <path id="path2468" d="m83.905 2688.3h399.12"/>
  <path id="path2470" d="m83.743 2688.5h399.44"/>
  <path id="path2472" d="m83.581 2688.8h399.77"/>
  <path id="path2474" d="m83.419 2689h400.09"/>
  <path id="path2476" d="m83.257 2689.3h400.41"/>
  <path id="path2478" d="m83.095 2689.6h400.74"/>
  <path id="path2480" d="m82.933 2689.8h401.06"/>
  <path id="path2482" d="m82.771 2690.1h401.39"/>
  <path id="path2484" d="m82.609 2690.3h401.71"/>
  <path id="path2486" d="m82.447 2690.6h402.03"/>
  <path id="path2488" d="m82.285 2690.9h402.36"/>
  <path id="path2490" d="m82.123 2691.1h402.68"/>
  <path id="path2492" d="m81.961 2691.4h403.01"/>
  <path id="path2494" d="m81.799 2691.6h403.33"/>
  <path id="path2496" d="m81.638 2691.9h403.65"/>
  <path id="path2498" d="m81.476 2692.1h403.98"/>
  <path id="path2500" d="m81.314 2692.4h404.3"/>
  <path id="path2502" d="m81.152 2692.7h404.62"/>
  <path id="path2504" d="m80.99 2692.9h404.95"/>
  <path id="path2506" d="m80.828 2693.2h405.27"/>
  <path id="path2508" d="m80.666 2693.4h405.6"/>
  <path id="path2510" d="m80.504 2693.7h405.92"/>
  <path id="path2512" d="m80.342 2693.9h406.24"/>
  <path id="path2514" d="m80.18 2694.2h406.57"/>
  <path id="path2516" d="m80.018 2694.5h406.89"/>
  <path id="path2518" d="m79.856 2694.7h407.22"/>
  <path id="path2520" d="m79.694 2695h407.54"/>
  <path id="path2522" d="m79.532 2695.2h407.86"/>
  <path id="path2524" d="m79.37 2695.5h408.19"/>
  <path id="path2526" d="m79.208 2695.7h408.51"/>
  <path id="path2528" d="m79.046 2696h408.84"/>
  <path id="path2530" d="m78.884 2696.3h409.16"/>
  <path id="path2532" d="m78.722 2696.5h409.48"/>
  <path id="path2534" d="m78.56 2696.8h409.81"/>
  <path id="path2536" d="m78.398 2697h410.13"/>
  <path id="path2538" d="m78.236 2697.3h410.46"/>
  <path id="path2540" d="m78.074 2697.6h410.78"/>
  <path id="path2542" d="m77.912 2697.8h411.1"/>
  <path id="path2544" d="m77.75 2698.1h411.43"/>
  <path id="path2546" d="m77.588 2698.3h411.75"/>
  <path id="path2548" d="m77.426 2698.6h412.08"/>
  <path id="path2550" d="m77.264 2698.8h412.4"/>
  <path id="path2552" d="m77.102 2699.1h412.72"/>
  <path id="path2554" d="m76.94 2699.4h413.05"/>
  <path id="path2556" d="m76.778 2699.6h413.37"/>
  <path id="path2558" d="m76.616 2699.9h413.7"/>
  <path id="path2560" d="m76.454 2700.1h414.02"/>
  <path id="path2562" d="m76.292 2700.4h414.34"/>
  <path id="path2564" d="m76.13 2700.6h414.67"/>
  <path id="path2566" d="m75.968 2700.9h414.99"/>
  <path id="path2568" d="m75.806 2701.2h415.32"/>
  <path id="path2570" d="m75.644 2701.4h415.64"/>
  <path id="path2572" d="m75.482 2701.7h415.96"/>
  <path id="path2574" d="m75.32 2701.9h416.29"/>
  <path id="path2576" d="m75.159 2702.2h416.61"/>
  <path id="path2578" d="m74.997 2702.4h416.94"/>
  <path id="path2580" d="m74.835 2702.7h417.26"/>
  <path id="path2582" d="m74.673 2703h417.58"/>
  <path id="path2584" d="m74.511 2703.2h417.91"/>
  <path id="path2586" d="m74.349 2703.5h418.23"/>
  <path id="path2588" d="m74.187 2703.7h418.56"/>
  <path id="path2590" d="m74.025 2704h418.88"/>
  <path id="path2592" d="m73.863 2704.3h419.2"/>
  <path id="path2594" d="m73.701 2704.5h419.53"/>
  <path id="path2596" d="m73.539 2704.8h419.85"/>
  <path id="path2598" d="m73.377 2705h420.18"/>
  <path id="path2600" d="m73.215 2705.3h420.5"/>
  <path id="path2602" d="m73.052 2705.5h420.82"/>
  <path id="path2604" d="m72.891 2705.8h421.15"/>
  <path id="path2606" d="m72.729 2706.1h421.47"/>
  <path id="path2608" d="m72.567 2706.3h421.8"/>
  <path id="path2610" d="m72.405 2706.6h422.12"/>
  <path id="path2612" d="m72.243 2706.8h422.44"/>
  <path id="path2614" d="m72.081 2707.1h422.77"/>
  <path id="path2616" d="m71.919 2707.3h423.09"/>
  <path id="path2618" d="m71.757 2707.6h423.42"/>
  <path id="path2620" d="m71.595 2707.9h423.74"/>
  <path id="path2622" d="m71.433 2708.1h424.06"/>
  <path id="path2624" d="m71.271 2708.4h424.39"/>
  <path id="path2626" d="m71.109 2708.6h424.71"/>
  <path id="path2628" d="m70.947 2708.9h425.04"/>
  <path id="path2630" d="m70.785 2709.1h425.36"/>
  <path id="path2632" d="m70.623 2709.4h425.68"/>
  <path id="path2634" d="m70.461 2709.7h426.01"/>
  <path id="path2636" d="m70.299 2709.9h426.33"/>
  <path id="path2638" d="m70.137 2710.2h426.66"/>
  <path id="path2640" d="m69.975 2710.4h426.98"/>
  <path id="path2642" d="m69.813 2710.7h427.3"/>
  <path id="path2644" d="m69.651 2711h427.63"/>
  <path id="path2646" d="m69.489 2711.2h427.95"/>
  <path id="path2648" d="m69.327 2711.5h428.28"/>
  <path id="path2650" d="m69.165 2711.7h428.6"/>
  <path id="path2652" d="m69.003 2712h428.92"/>
  <path id="path2654" d="m68.841 2712.2h429.25"/>
  <path id="path2656" d="m68.679 2712.5h429.57"/>
  <path id="path2658" d="m68.517 2712.8h429.89"/>
  <path id="path2660" d="m68.355 2713h430.22"/>
  <path id="path2662" d="m68.193 2713.3h430.54"/>
  <path id="path2664" d="m68.031 2713.5h430.87"/>
  <path id="path2666" d="m67.869 2713.8h431.19"/>
  <path id="path2668" d="m67.707 2714h431.51"/>
  <path id="path2670" d="m67.545 2714.3h431.84"/>
  <path id="path2672" d="m67.383 2714.6h432.16"/>
  <path id="path2674" d="m67.221 2714.8h432.49"/>
  <path id="path2676" d="m67.059 2715.1h432.81"/>
  <path id="path2678" d="m66.897 2715.3h433.13"/>
  <path id="path2680" d="m66.735 2715.6h433.46"/>
  <path id="path2682" d="m66.573 2715.8h433.78"/>
  <path id="path2684" d="m66.412 2716.1h434.1"/>
  <path id="path2686" d="m66.25 2716.4h434.43"/>
  <path id="path2688" d="m66.088 2716.6h434.75"/>
  <path id="path2690" d="m65.926 2716.9h435.08"/>
  <path id="path2692" d="m65.764 2717.1h435.4"/>
  <path id="path2694" d="m65.602 2717.4h435.72"/>
  <path id="path2696" d="m65.44 2717.7h436.05"/>
  <path id="path2698" d="m65.278 2717.9h436.37"/>
  <path id="path2700" d="m65.116 2718.2h436.7"/>
  <path id="path2702" d="m64.954 2718.4h437.02"/>
  <path id="path2704" d="m64.792 2718.7h437.34"/>
  <path id="path2706" d="m64.63 2718.9h437.67"/>
  <path id="path2708" d="m64.468 2719.2h437.99"/>
  <path id="path2710" d="m64.306 2719.5h438.32"/>
  <path id="path2712" d="m64.144 2719.7h438.64"/>
  <path id="path2714" d="m63.982 2720h438.96"/>
  <path id="path2716" d="m63.82 2720.2h439.29"/>
  <path id="path2718" d="m63.658 2720.5h439.61"/>
  <path id="path2720" d="m63.496 2720.7h439.94"/>
  <path id="path2722" d="m63.334 2721h440.26"/>
  <path id="path2724" d="m63.172 2721.3h440.58"/>
  <path id="path2726" d="m63.01 2721.5h440.91"/>
  <path id="path2728" d="m62.848 2721.8h441.23"/>
  <path id="path2730" d="m62.686 2722h441.56"/>
  <path id="path2732" d="m62.524 2722.3h441.88"/>
  <path id="path2734" d="m62.362 2722.5h442.2"/>
  <path id="path2736" d="m62.2 2722.8h442.53"/>
  <path id="path2738" d="m62.038 2723.1h442.85"/>
  <path id="path2740" d="m61.876 2723.3h443.18"/>
  <path id="path2742" d="m61.714 2723.6h443.5"/>
  <path id="path2744" d="m61.552 2723.8h443.82"/>
  <path id="path2746" d="m61.39 2724.1h444.15"/>
  <path id="path2748" d="m61.228 2724.4h444.47"/>
  <path id="path2750" d="m61.066 2724.6h444.8"/>
  <path id="path2752" d="m60.904 2724.9h445.12"/>
  <path id="path2754" d="m60.742 2725.1h445.44"/>
  <path id="path2756" d="m60.58 2725.4h445.77"/>
  <path id="path2758" d="m60.418 2725.6h446.09"/>
  <path id="path2760" d="m60.256 2725.9h446.42"/>
  <path id="path2762" d="m60.094 2726.2h446.74"/>
  <path id="path2764" d="m59.932 2726.4h447.06"/>
  <path id="path2766" d="m59.77 2726.7h447.39"/>
  <path id="path2768" d="m59.608 2726.9h447.71"/>
  <path id="path2770" d="m59.446 2727.2h448.04"/>
  <path id="path2772" d="m59.284 2727.4h448.36"/>
  <path id="path2774" d="m59.122 2727.7h448.68"/>
  <path id="path2776" d="m58.96 2728h449.01"/>
  <path id="path2778" d="m58.798 2728.2h449.33"/>
  <path id="path2780" d="m58.636 2728.5h449.66"/>
  <path id="path2782" d="m58.474 2728.7h449.98"/>
  <path id="path2784" d="m58.312 2729h450.3"/>
  <path id="path2786" d="m58.15 2729.2h450.63"/>
  <path id="path2788" d="m57.988 2729.5h450.95"/>
  <path id="path2790" d="m57.826 2729.8h451.28"/>
  <path id="path2792" d="m57.665 2730h451.6"/>
  <path id="path2794" d="m57.503 2730.3h451.92"/>
  <path id="path2796" d="m57.341 2730.5h452.25"/>
  <path id="path2798" d="m57.179 2730.8h452.57"/>
  <path id="path2800" d="m57.017 2731.1h452.9"/>
  <path id="path2802" d="m56.855 2731.3h453.22"/>
  <path id="path2804" d="m56.693 2731.6h453.54"/>
  <path id="path2806" d="m56.531 2731.8h453.87"/>
  <path id="path2808" d="m56.369 2732.1h454.19"/>
  <path id="path2810" d="m56.207 2732.3h454.52"/>
  <path id="path2812" d="m56.045 2732.6h454.84"/>
  <path id="path2814" d="m55.883 2732.9h455.16"/>
  <path id="path2816" d="m55.721 2733.1h455.49"/>
  <path id="path2818" d="m55.559 2733.4h455.81"/>
  <path id="path2820" d="m55.397 2733.6h456.14"/>
  <path id="path2822" d="m55.235 2733.9h456.46"/>
  <path id="path2824" d="m55.073 2734.1h456.78"/>
  <path id="path2826" d="m54.911 2734.4h457.11"/>
  <path id="path2828" d="m54.749 2734.7h457.43"/>
  <path id="path2830" d="m54.587 2734.9h457.76"/>
  <path id="path2832" d="m54.425 2735.2h458.08"/>
  <path id="path2834" d="m54.263 2735.4h458.4"/>
  <path id="path2836" d="m54.101 2735.7h458.73"/>
  <path id="path2838" d="m53.939 2735.9h459.05"/>
  <path id="path2840" d="m53.777 2736.2h459.38"/>
  <path id="path2842" d="m53.615 2736.5h459.7"/>
  <path id="path2844" d="m53.453 2736.7h460.02"/>
  <path id="path2846" d="m53.291 2737h460.35"/>
  <path id="path2848" d="m53.129 2737.2h460.67"/>
  <path id="path2850" d="m52.967 2737.5h461"/>
  <path id="path2852" d="m52.805 2737.8h461.32"/>
  <path id="path2854" d="m52.643 2738h461.64"/>
  <path id="path2856" d="m52.481 2738.3h461.97"/>
  <path id="path2858" d="m52.319 2738.5h462.29"/>
  <path id="path2860" d="m52.157 2738.8h462.62"/>
  <path id="path2862" d="m51.995 2739h462.94"/>
  <path id="path2864" d="m51.833 2739.3h463.26"/>
  <path id="path2866" d="m51.671 2739.6h463.59"/>
  <path id="path2868" d="m51.509 2739.8h463.91"/>
  <path id="path2870" d="m51.347 2740.1h464.24"/>
  <path id="path2872" d="m51.186 2740.3h464.56"/>
  <path id="path2874" d="m51.024 2740.6h464.88"/>
  <path id="path2876" d="m50.862 2740.8h465.2"/>
  <path id="path2878" d="m50.7 2741.1h465.53"/>
  <path id="path2880" d="m50.538 2741.4h465.85"/>
  <path id="path2882" d="m50.376 2741.6h466.18"/>
  <path id="path2884" d="m50.214 2741.9h466.5"/>
  <path id="path2886" d="m50.052 2742.1h466.82"/>
  <path id="path2888" d="m49.89 2742.4h467.15"/>
  <path id="path2890" d="m49.728 2742.6h467.47"/>
  <path id="path2892" d="m49.566 2742.9h467.8"/>
  <path id="path2894" d="m49.403 2743.2h468.12"/>
  <path id="path2896" d="m49.241 2743.4h468.45"/>
  <path id="path2898" d="m49.079 2743.7h468.77"/>
  <path id="path2900" d="m48.918 2743.9h469.09"/>
  <path id="path2902" d="m48.756 2744.2h469.42"/>
  <path id="path2904" d="m48.594 2744.5h469.74"/>
  <path id="path2906" d="m48.432 2744.7h470.06"/>
  <path id="path2908" d="m48.27 2745h470.39"/>
  <path id="path2910" d="m48.108 2745.2h470.71"/>
  <path id="path2912" d="m47.946 2745.5h471.04"/>
  <path id="path2914" d="m47.784 2745.7h471.36"/>
  <path id="path2916" d="m47.622 2746h471.68"/>
  <path id="path2918" d="m47.46 2746.3h472.01"/>
  <path id="path2920" d="m47.298 2746.5h472.33"/>
  <path id="path2922" d="m47.136 2746.8h472.66"/>
  <path id="path2924" d="m46.974 2747h472.98"/>
  <path id="path2926" d="m46.812 2747.3h473.3"/>
  <path id="path2928" d="m46.65 2747.5h473.63"/>
  <path id="path2930" d="m46.488 2747.8h473.95"/>
  <path id="path2932" d="m46.326 2748.1h474.28"/>
  <path id="path2934" d="m46.164 2748.3h474.6"/>
  <path id="path2936" d="m46.002 2748.6h474.92"/>
  <path id="path2938" d="m45.84 2748.8h475.25"/>
  <path id="path2940" d="m45.678 2749.1h475.57"/>
  <path id="path2942" d="m45.516 2749.3h475.9"/>
  <path id="path2944" d="m45.354 2749.6h476.22"/>
  <path id="path2946" d="m45.192 2749.9h476.54"/>
  <path id="path2948" d="m45.03 2750.1h476.87"/>
  <path id="path2950" d="m44.868 2750.4h477.19"/>
  <path id="path2952" d="m44.706 2750.6h477.52"/>
  <path id="path2954" d="m44.544 2750.9h477.84"/>
  <path id="path2956" d="m44.382 2751.2h478.16"/>
  <path id="path2958" d="m44.22 2751.4h478.49"/>
  <path id="path2960" d="m44.058 2751.7h478.81"/>
  <path id="path2962" d="m43.896 2751.9h479.14"/>
  <path id="path2964" d="m43.734 2752.2h479.46"/>
  <path id="path2966" d="m43.572 2752.4h479.78"/>
  <path id="path2968" d="m43.41 2752.7h480.11"/>
  <path id="path2970" d="m43.248 2753h480.43"/>
  <path id="path2972" d="m43.086 2753.2h480.76"/>
  <path id="path2974" d="m42.924 2753.5h481.08"/>
  <path id="path2976" d="m42.762 2753.7h481.4"/>
  <path id="path2978" d="m42.6 2754h481.73"/>
  <path id="path2980" d="m42.439 2754.2h482.05"/>
  <path id="path2982" d="m42.277 2754.5h482.38"/>
  <path id="path2984" d="m42.115 2754.8h482.7"/>
  <path id="path2986" d="m41.953 2755h483.02"/>
  <path id="path2988" d="m41.791 2755.3h483.35"/>
  <path id="path2990" d="m41.629 2755.5h483.67"/>
  <path id="path2992" d="m41.467 2755.8h484"/>
  <path id="path2994" d="m41.305 2756h484.32"/>
  <path id="path2996" d="m41.143 2756.3h484.64"/>
  <path id="path2998" d="m40.981 2756.6h484.97"/>
  <path id="path3000" d="m40.819 2756.8h485.29"/>
  <path id="path3002" d="m40.657 2757.1h485.62"/>
  <path id="path3004" d="m40.495 2757.3h485.94"/>
  <path id="path3006" d="m40.333 2757.6h486.26"/>
  <path id="path3008" d="m40.171 2757.9h486.59"/>
  <path id="path3010" d="m40.009 2758.1h486.91"/>
  <path id="path3012" d="m39.847 2758.4h487.24"/>
  <path id="path3014" d="m39.685 2758.6h487.56"/>
  <path id="path3016" d="m39.523 2758.9h487.88"/>
  <path id="path3018" d="m39.361 2759.1h488.21"/>
  <path id="path3020" d="m39.199 2759.4h488.53"/>
  <path id="path3022" d="m39.037 2759.7h488.86"/>
  <path id="path3024" d="m38.875 2759.9h489.18"/>
  <path id="path3026" d="m38.713 2760.2h489.5"/>
  <path id="path3028" d="m38.551 2760.4h489.83"/>
  <path id="path3030" d="m38.389 2760.7h490.15"/>
  <path id="path3032" d="m38.227 2760.9h490.48"/>
  <path id="path3034" d="m38.065 2761.2h490.8"/>
  <path id="path3036" d="m37.903 2761.5h491.12"/>
  <path id="path3038" d="m37.741 2761.7h491.45"/>
  <path id="path3040" d="m37.579 2762h491.77"/>
  <path id="path3042" d="m37.417 2762.2h492.1"/>
  <path id="path3044" d="m37.255 2762.5h492.42"/>
  <path id="path3046" d="m37.093 2762.7h492.74"/>
  <path id="path3048" d="m36.931 2763h493.07"/>
  <path id="path3050" d="m36.769 2763.3h493.39"/>
  <path id="path3052" d="m36.607 2763.5h493.72"/>
  <path id="path3054" d="m36.445 2763.8h494.04"/>
  <path id="path3056" d="m36.283 2764h494.36"/>
  <path id="path3058" d="m36.121 2764.3h494.69"/>
  <path id="path3060" d="m35.959 2764.6h495.01"/>
  <path id="path3062" d="m35.797 2764.8h495.33"/>
  <path id="path3064" d="m35.635 2765.1h495.66"/>
  <path id="path3066" d="m35.473 2765.3h495.98"/>
  <path id="path3068" d="m35.311 2765.6h496.31"/>
  <path id="path3070" d="m35.149 2765.8h496.63"/>
  <path id="path3072" d="m34.987 2766.1h496.95"/>
  <path id="path3074" d="m34.825 2766.4h497.28"/>
  <path id="path3076" d="m34.663 2766.6h497.6"/>
  <path id="path3078" d="m34.501 2766.9h497.93"/>
  <path id="path3080" d="m34.339 2767.1h498.25"/>
  <path id="path3082" d="m34.177 2767.4h498.57"/>
  <path id="path3084" d="m34.015 2767.6h498.9"/>
  <path id="path3086" d="m33.853 2767.9h499.22"/>
  <path id="path3088" d="m33.692 2768.2h499.54"/>
  <path id="path3090" d="m33.53 2768.4h499.87"/>
  <path id="path3092" d="m33.368 2768.7h500.19"/>
  <path id="path3094" d="m33.206 2768.9h500.52"/>
  <path id="path3096" d="m33.044 2769.2h500.84"/>
  <path id="path3098" d="m32.882 2769.4h501.16"/>
  <path id="path3100" d="m32.72 2769.7h501.49"/>
  <path id="path3102" d="m32.558 2770h501.81"/>
  <path id="path3104" d="m32.396 2770.2h502.14"/>
  <path id="path3106" d="m32.234 2770.5h502.46"/>
  <path id="path3108" d="m32.072 2770.7h502.78"/>
  <path id="path3110" d="m31.91 2771h503.11"/>
  <path id="path3112" d="m31.748 2771.3h503.43"/>
  <path id="path3114" d="m31.586 2771.5h503.76"/>
  <path id="path3116" d="m31.424 2771.8h504.08"/>
  <path id="path3118" d="m31.262 2772h504.4"/>
  <path id="path3120" d="m31.1 2772.3h504.73"/>
  <path id="path3122" d="m30.938 2772.5h505.05"/>
  <path id="path3124" d="m30.776 2772.8h505.38"/>
  <path id="path3126" d="m30.614 2773.1h505.7"/>
  <path id="path3128" d="m30.452 2773.3h506.02"/>
  <path id="path3130" d="m30.29 2773.6h506.35"/>
  <path id="path3132" d="m30.128 2773.8h506.67"/>
  <path id="path3134" d="m29.966 2774.1h507"/>
  <path id="path3136" d="m29.804 2774.3h507.32"/>
  <path id="path3138" d="m29.642 2774.6h507.64"/>
  <path id="path3140" d="m29.48 2774.9h507.97"/>
  <path id="path3142" d="m29.318 2775.1h508.29"/>
  <path id="path3144" d="m29.156 2775.4h508.62"/>
  <path id="path3146" d="m28.994 2775.6h508.94"/>
  <path id="path3148" d="m28.832 2775.9h509.26"/>
  <path id="path3150" d="m28.67 2776.1h509.59"/>
  <path id="path3152" d="m28.508 2776.4h509.91"/>
  <path id="path3154" d="m28.346 2776.7h510.24"/>
  <path id="path3156" d="m28.184 2776.9h510.56"/>
  <path id="path3158" d="m28.022 2777.2h510.88"/>
  <path id="path3160" d="m27.86 2777.4h511.21"/>
  <path id="path3162" d="m27.698 2777.7h511.53"/>
  <path id="path3164" d="m27.536 2778h511.86"/>
  <path id="path3166" d="m27.374 2778.2h512.18"/>
  <path id="path3168" d="m27.213 2778.5h512.5"/>
  <path id="path3170" d="m27.051 2778.7h512.83"/>
  <path id="path3172" d="m26.889 2779h513.15"/>
  <path id="path3174" d="m26.727 2779.2h513.48"/>
  <path id="path3176" d="m26.565 2779.5h513.8"/>
  <path id="path3178" d="m26.403 2779.8h514.12"/>
  <path id="path3180" d="m26.241 2780h514.45"/>
  <path id="path3182" d="m26.079 2780.3h514.77"/>
  <path id="path3184" d="m25.917 2780.5h515.1"/>
  <path id="path3186" d="m25.754 2780.8h515.42"/>
  <path id="path3188" d="m25.592 2781h515.74"/>
  <path id="path3190" d="m25.43 2781.3h516.07"/>
  <path id="path3192" d="m25.268 2781.6h516.39"/>
  <path id="path3194" d="m25.106 2781.8h516.72"/>
  <path id="path3196" d="m24.945 2782.1h517.04"/>
  <path id="path3198" d="m24.783 2782.3h517.36"/>
  <path id="path3200" d="m24.621 2782.6h517.69"/>
  <path id="path3202" d="m24.459 2782.8h518.01"/>
  <path id="path3204" d="m24.297 2783.1h518.34"/>
  <path id="path3206" d="m24.135 2783.4h518.66"/>
  <path id="path3208" d="m23.973 2783.6h518.98"/>
  <path id="path3210" d="m23.811 2783.9h519.31"/>
  <path id="path3212" d="m23.649 2784.1h519.63"/>
  <path id="path3214" d="m23.487 2784.4h519.96"/>
  <path id="path3216" d="m23.325 2784.7h520.28"/>
  <path id="path3218" d="m23.163 2784.9h520.6"/>
  <path id="path3220" d="m23.001 2785.2h520.93"/>
  <path id="path3222" d="m22.839 2785.4h521.25"/>
  <path id="path3224" d="m22.677 2785.7h521.58"/>
  <path id="path3226" d="m22.515 2785.9h521.9"/>
  <path id="path3228" d="m22.353 2786.2h522.22"/>
  <path id="path3230" d="m22.191 2786.5h522.55"/>
  <path id="path3232" d="m22.029 2786.7h522.87"/>
  <path id="path3234" d="m21.867 2787h523.2"/>
  <path id="path3236" d="m21.705 2787.2h523.52"/>
  <path id="path3238" d="m21.543 2787.5h523.84"/>
  <path id="path3240" d="m21.381 2787.7h524.17"/>
  <path id="path3242" d="m21.219 2788h524.49"/>
  <path id="path3244" d="m21.057 2788.3h524.82"/>
  <path id="path3246" d="m20.895 2788.5h525.14"/>
  <path id="path3248" d="m20.733 2788.8h525.46"/>
  <path id="path3250" d="m20.571 2789h525.79"/>
  <path id="path3252" d="m20.409 2789.3h526.11"/>
  <path id="path3254" d="m20.247 2789.5h526.43"/>
  <path id="path3256" d="m20.085 2789.8h526.76"/>
  <path id="path3258" d="m19.923 2790.1h527.08"/>
  <path id="path3260" d="m19.761 2790.3h527.41"/>
  <path id="path3262" d="m19.599 2790.6h527.73"/>
  <path id="path3264" d="m19.437 2790.8h528.05"/>
  <path id="path3266" d="m19.275 2791.1h528.38"/>
  <path id="path3268" d="m19.113 2791.4h528.7"/>
  <path id="path3270" d="m18.951 2791.6h529.03"/>
  <path id="path3272" d="m18.789 2791.9h529.35"/>
  <path id="path3274" d="m18.627 2792.1h529.67"/>
  <path id="path3276" d="m18.466 2792.4h530"/>
  <path id="path3278" d="m18.304 2792.6h530.32"/>
  <path id="path3280" d="m18.142 2792.9h530.64"/>
  <path id="path3282" d="m17.98 2793.2h530.97"/>
  <path id="path3284" d="m17.818 2793.4h531.29"/>
  <path id="path3286" d="m17.656 2793.7h531.62"/>
  <path id="path3288" d="m17.494 2793.9h531.94"/>
  <path id="path3290" d="m17.332 2794.2h532.26"/>
  <path id="path3292" d="m17.17 2794.4h532.59"/>
  <path id="path3294" d="m17.008 2794.7h532.91"/>
  <path id="path3296" d="m16.846 2795h533.24"/>
  <path id="path3298" d="m16.684 2795.2h533.56"/>
  <path id="path3300" d="m16.522 2795.5h533.88"/>
  <path id="path3302" d="m16.36 2795.7h534.21"/>
  <path id="path3304" d="m16.198 2796h534.53"/>
  <path id="path3306" d="m16.036 2796.2h534.86"/>
  <path id="path3308" d="m15.874 2796.5h535.18"/>
  <path id="path3310" d="m15.712 2796.8h535.5"/>
  <path id="path3312" d="m15.55 2797h535.83"/>
  <path id="path3314" d="m15.388 2797.3h536.15"/>
  <path id="path3316" d="m15.226 2797.5h536.48"/>
  <path id="path3318" d="m15.064 2797.8h536.8"/>
  <path id="path3320" d="m14.902 2798.1h537.12"/>
  <path id="path3322" d="m14.74 2798.3h537.45"/>
  <path id="path3324" d="m14.578 2798.6h537.77"/>
  <path id="path3326" d="m14.416 2798.8h538.1"/>
  <path id="path3328" d="m14.254 2799.1h538.42"/>
  <path id="path3330" d="m14.092 2799.3h538.74"/>
  <path id="path3332" d="m13.93 2799.6h539.07"/>
  <path id="path3334" d="m13.768 2799.9h539.39"/>
  <path id="path3336" d="m13.606 2800.1h539.72"/>
  <path id="path3338" d="m13.444 2800.4h540.04"/>
  <path id="path3340" d="m13.282 2800.6h540.36"/>
  <path id="path3342" d="m13.12 2800.9h540.69"/>
  <path id="path3344" d="m12.958 2801.1h541.01"/>
  <path id="path3346" d="m12.796 2801.4h541.34"/>
  <path id="path3348" d="m12.634 2801.7h541.66"/>
  <path id="path3350" d="m12.472 2801.9h541.98"/>
  <path id="path3352" d="m12.31 2802.2h542.31"/>
  <path id="path3354" d="m12.148 2802.4h542.63"/>
  <path id="path3356" d="m11.986 2802.7h542.96"/>
  <path id="path3358" d="m11.824 2803h543.28"/>
  <path id="path3360" d="m11.662 2803.2h543.6"/>
  <path id="path3362" d="m11.5 2803.5h543.93"/>
  <path id="path3364" d="m11.338 2803.7h544.25"/>
  <path id="path3366" d="m11.176 2804h544.58"/>
  <path id="path3368" d="m11.014 2804.2h544.9"/>
  <path id="path3370" d="m10.852 2804.5h545.22"/>
  <path id="path3372" d="m10.69 2804.8h545.55"/>
  <path id="path3374" d="m10.528 2805h545.87"/>
  <path id="path3376" d="m10.366 2805.3h546.2"/>
  <path id="path3378" d="m10.204 2805.5h546.52"/>
  <path id="path3380" d="m10.042 2805.8h546.84"/>
  <path id="path3382" d="m9.88 2806h547.17"/>
  <path id="path3384" d="m9.719 2806.3h547.49"/>
  <path id="path3386" d="m9.557 2806.6h547.82"/>
  <path id="path3388" d="m9.395 2806.8h548.14"/>
  <path id="path3390" d="m9.233 2807.1h548.46"/>
  <path id="path3392" d="m9.071 2807.3h548.79"/>
  <path id="path3394" d="m8.909 2807.6h549.11"/>
  <path id="path3396" d="m8.747 2807.8h549.44"/>
  <path id="path3398" d="m8.585 2808.1h549.76"/>
  <path id="path3400" d="m8.423 2808.4h550.08"/>
  <path id="path3402" d="m8.261 2808.6h550.41"/>
  <path id="path3404" d="m8.099 2808.9h550.73"/>
  <path id="path3406" d="m7.937 2809.1h551.06"/>
  <path id="path3408" d="m7.775 2809.4h551.38"/>
  <path id="path3410" d="m7.613 2809.6h551.7"/>
  <path id="path3412" d="m7.451 2809.9h552.03"/>
  <path id="path3414" d="m7.289 2810.2h552.35"/>
  <path id="path3416" d="m7.127 2810.4h552.68"/>
  <path id="path3418" d="m6.965 2810.7h553"/>
  <path id="path3420" d="m6.803 2810.9h553.32"/>
  <path id="path3422" d="m6.641 2811.2h553.65"/>
  <path id="path3424" d="m6.479 2811.5h553.97"/>
  <path id="path3426" d="m6.317 2811.7h554.3"/>
  <path id="path3428" d="m6.155 2812h554.62"/>
  <path id="path3430" d="m5.993 2812.2h554.94"/>
  <path id="path3432" d="m5.831 2812.5h555.27"/>
  <path id="path3434" d="m5.669 2812.7h555.59"/>
  <path id="path3436" d="m5.507 2813h555.92"/>
  <path id="path3438" d="m5.345 2813.3h556.24"/>
  <path id="path3440" d="m5.183 2813.5h556.56"/>
  <path id="path3442" d="m5.021 2813.8h556.89"/>
  <path id="path3444" d="m4.859 2814h557.21"/>
  <path id="path3446" d="m4.697 2814.3h557.54"/>
  <path id="path3448" d="m4.535 2814.5h557.86"/>
  <path id="path3450" d="m4.373 2814.8h558.18"/>
  <path id="path3452" d="m4.211 2815.1h558.51"/>
  <path id="path3454" d="m4.049 2815.3h558.83"/>
  <path id="path3456" d="m3.887 2815.6h559.16"/>
  <path id="path3458" d="m3.725 2815.8h559.48"/>
  <path id="path3460" d="m3.563 2816.1h559.8"/>
  <path id="path3462" d="m3.401 2816.4h560.13"/>
  <path id="path3464" d="m3.24 2816.6h560.45"/>
  <path id="path3466" d="m3.078 2816.9h560.77"/>
  <path id="path3468" d="m2.916 2817.1h561.1"/>
  <path id="path3470" d="m2.754 2817.4h561.42"/>
  <path id="path3472" d="m2.592 2817.6h561.74"/>
  <path id="path3474" d="m2.43 2817.9h562.07"/>
  <path id="path3476" d="m2.268 2818.2h562.39"/>
  <path id="path3478" d="m2.106 2818.4h562.72"/>
  <path id="path3480" d="m1.943 2818.7h563.04"/>
  <path id="path3482" d="m1.781 2818.9h563.37"/>
  <path id="path3484" d="m1.619 2819.2h563.69"/>
  <path id="path3486" d="m1.457 2819.4h564.01"/>
  <path id="path3488" d="m1.295 2819.7h564.34"/>
  <path id="path3490" d="m1.133 2820h564.66"/>
  <path id="path3492" d="m0.972 2820.2h564.98"/>
  <path id="path3494" d="m0.81 2820.5h565.31"/>
  <path id="path3496" d="m0.648 2820.7h565.63"/>
  <path id="path3498" d="m0.486 2821h565.96"/>
  <path id="path3500" d="m0.324 2821.2h566.28"/>
  <path id="path3502" d="m0.162 2821.5h566.6"/>
 </g>
</svg>
