<?xml version="1.0" encoding="UTF-8"?>
<svg id="svg3306" width="566.59" height="460.02" version="1.1" viewBox="0 0 566.59 460.02" xmlns="http://www.w3.org/2000/svg">
 <g id="g3304" transform="translate(-.106 -2557.4)" fill="none" stroke="#000" stroke-width="4mm">
  <path id="path6" d="m391.08 2565h0.343"/>
  <path id="path8" d="m390.84 2565.2h0.687"/>
  <path id="path10" d="m390.61 2565.5h1.031"/>
  <path id="path12" d="m390.37 2565.8h1.374"/>
  <path id="path14" d="m390.13 2566h1.718"/>
  <path id="path16" d="m389.9 2566.3h2.061"/>
  <path id="path18" d="m389.66 2566.6h2.405"/>
  <path id="path20" d="m389.42 2566.8h2.749"/>
  <path id="path22" d="m389.18 2567.1h3.092"/>
  <path id="path24" d="m388.95 2567.4h3.436"/>
  <path id="path26" d="m388.71 2567.6h3.78"/>
  <path id="path28" d="m388.47 2567.9h4.123"/>
  <path id="path30" d="m388.24 2568.2h4.466"/>
  <path id="path32" d="m388 2568.5h4.811"/>
  <path id="path34" d="m387.76 2568.7h5.154"/>
  <path id="path36" d="m387.52 2569h5.497"/>
  <path id="path38" d="m387.29 2569.3h5.841"/>
  <path id="path40" d="m387.05 2569.5h6.184"/>
  <path id="path42" d="m386.81 2569.8h6.529"/>
  <path id="path44" d="m386.58 2570.1h6.872"/>
  <path id="path46" d="m386.34 2570.3h7.215"/>
  <path id="path48" d="m386.1 2570.6h7.559"/>
  <path id="path50" d="m385.86 2570.9h7.903"/>
  <path id="path52" d="m385.63 2571.2h8.246"/>
  <path id="path54" d="m385.39 2571.4h8.59"/>
  <path id="path56" d="m385.15 2571.7h8.933"/>
  <path id="path58" d="m384.91 2572h9.277"/>
  <path id="path60" d="m384.68 2572.2h9.621"/>
  <path id="path62" d="m384.44 2572.5h9.964"/>
  <path id="path64" d="m384.2 2572.8h10.307"/>
  <path id="path66" d="m383.96 2573h10.652"/>
  <path id="path68" d="m383.73 2573.3h10.995"/>
  <path id="path70" d="m383.49 2573.6h11.339"/>
  <path id="path72" d="m383.25 2573.9h11.682"/>
  <path id="path74" d="m383.02 2574.1h12.026"/>
  <path id="path76" d="m382.78 2574.4h12.37"/>
  <path id="path78" d="m382.54 2574.7h12.713"/>
  <path id="path80" d="m382.3 2574.9h13.056"/>
  <path id="path82" d="m382.07 2575.2h13.4"/>
  <path id="path84" d="m381.83 2575.5h13.744"/>
  <path id="path86" d="m381.59 2575.7h14.087"/>
  <path id="path88" d="m381.36 2576h14.431"/>
  <path id="path90" d="m381.12 2576.3h14.775"/>
  <path id="path92" d="m380.88 2576.6h15.118"/>
  <path id="path94" d="m380.64 2576.8h15.462"/>
  <path id="path96" d="m380.41 2577.1h15.805"/>
  <path id="path98" d="m380.17 2577.4h16.149"/>
  <path id="path100" d="m379.93 2577.6h16.493"/>
  <path id="path102" d="m379.7 2577.9h16.836"/>
  <path id="path104" d="m379.46 2578.2h17.18"/>
  <path id="path106" d="m379.22 2578.4h17.523"/>
  <path id="path108" d="m378.98 2578.7h17.867"/>
  <path id="path110" d="m378.75 2579h18.211"/>
  <path id="path112" d="m378.51 2579.3h18.554"/>
  <path id="path114" d="m378.27 2579.5h18.898"/>
  <path id="path116" d="m378.03 2579.8h19.242"/>
  <path id="path118" d="m377.8 2580.1h19.585"/>
  <path id="path120" d="m377.56 2580.3h19.928"/>
  <path id="path122" d="m377.32 2580.6h20.272"/>
  <path id="path124" d="m377.08 2580.9h20.616"/>
  <path id="path126" d="m376.85 2581.1h20.959"/>
  <path id="path128" d="m376.61 2581.4h21.303"/>
  <path id="path130" d="m376.37 2581.7h21.646"/>
  <path id="path132" d="m376.14 2582h21.99"/>
  <path id="path134" d="m375.9 2582.2h22.334"/>
  <path id="path136" d="m375.66 2582.5h22.677"/>
  <path id="path138" d="m375.42 2582.8h23.021"/>
  <path id="path140" d="m375.19 2583h23.364"/>
  <path id="path142" d="m374.95 2583.3h23.708"/>
  <path id="path144" d="m374.71 2583.6h24.051"/>
  <path id="path146" d="m374.48 2583.8h24.395"/>
  <path id="path148" d="m374.24 2584.1h24.739"/>
  <path id="path150" d="m374 2584.4h25.082"/>
  <path id="path152" d="m373.76 2584.7h25.426"/>
  <path id="path154" d="m373.53 2584.9h25.769"/>
  <path id="path156" d="m373.29 2585.2h26.113"/>
  <path id="path158" d="m373.05 2585.5h26.457"/>
  <path id="path160" d="m372.82 2585.7h26.8"/>
  <path id="path162" d="m372.58 2586h27.143"/>
  <path id="path164" d="m372.34 2586.3h27.487"/>
  <path id="path166" d="m372.1 2586.5h27.831"/>
  <path id="path168" d="m371.87 2586.8h28.175"/>
  <path id="path170" d="m371.63 2587.1h28.518"/>
  <path id="path172" d="m371.39 2587.4h28.862"/>
  <path id="path174" d="m371.15 2587.6h29.206"/>
  <path id="path176" d="m370.92 2587.9h29.549"/>
  <path id="path178" d="m370.68 2588.2h29.892"/>
  <path id="path180" d="m370.44 2588.4h30.236"/>
  <path id="path182" d="m370.2 2588.7h30.58"/>
  <path id="path184" d="m369.97 2589h30.923"/>
  <path id="path186" d="m369.73 2589.2h31.267"/>
  <path id="path188" d="m369.49 2589.5h31.61"/>
  <path id="path190" d="m369.26 2589.8h31.955"/>
  <path id="path192" d="m369.02 2590.1h32.298"/>
  <path id="path194" d="m368.78 2590.3h32.641"/>
  <path id="path196" d="m368.54 2590.6h32.986"/>
  <path id="path198" d="m368.31 2590.9h33.329"/>
  <path id="path200" d="m368.07 2591.1h33.672"/>
  <path id="path202" d="m367.83 2591.4h34.016"/>
  <path id="path204" d="m367.6 2591.7h34.359"/>
  <path id="path206" d="m367.36 2591.9h34.703"/>
  <path id="path208" d="m367.12 2592.2h35.047"/>
  <path id="path210" d="m366.88 2592.5h35.39"/>
  <path id="path212" d="m366.65 2592.8h35.733"/>
  <path id="path214" d="m366.41 2593h36.078"/>
  <path id="path216" d="m366.17 2593.3h36.421"/>
  <path id="path218" d="m365.94 2593.6h36.765"/>
  <path id="path220" d="m365.7 2593.8h37.109"/>
  <path id="path222" d="m365.46 2594.1h37.451"/>
  <path id="path224" d="m365.22 2594.4h37.796"/>
  <path id="path226" d="m364.99 2594.6h38.139"/>
  <path id="path228" d="m364.75 2594.9h38.482"/>
  <path id="path230" d="m364.51 2595.2h38.827"/>
  <path id="path232" d="m364.27 2595.5h39.17"/>
  <path id="path234" d="m364.04 2595.7h39.513"/>
  <path id="path236" d="m363.8 2596h39.857"/>
  <path id="path238" d="m363.56 2596.3h40.201"/>
  <path id="path240" d="m363.32 2596.5h40.544"/>
  <path id="path242" d="m363.09 2596.8h40.888"/>
  <path id="path244" d="m362.85 2597.1h41.231"/>
  <path id="path246" d="m362.61 2597.3h41.574"/>
  <path id="path248" d="m362.38 2597.6h41.919"/>
  <path id="path250" d="m362.14 2597.9h42.262"/>
  <path id="path252" d="m361.9 2598.2h42.605"/>
  <path id="path254" d="m361.66 2598.4h42.95"/>
  <path id="path256" d="m361.43 2598.7h43.293"/>
  <path id="path258" d="m361.19 2599h43.636"/>
  <path id="path260" d="m360.95 2599.2h43.98"/>
  <path id="path262" d="m360.72 2599.5h44.323"/>
  <path id="path264" d="m360.48 2599.8h44.667"/>
  <path id="path266" d="m360.24 2600h45.011"/>
  <path id="path268" d="m360 2600.3h45.354"/>
  <path id="path270" d="m359.77 2600.6h45.697"/>
  <path id="path272" d="m359.53 2600.9h46.042"/>
  <path id="path274" d="m359.29 2601.1h46.385"/>
  <path id="path276" d="m359.06 2601.4h46.728"/>
  <path id="path278" d="m358.82 2601.7h47.072"/>
  <path id="path280" d="m358.58 2601.9h47.416"/>
  <path id="path282" d="m358.34 2602.2h47.759"/>
  <path id="path284" d="m358.11 2602.5h48.103"/>
  <path id="path286" d="m357.87 2602.7h48.446"/>
  <path id="path288" d="m357.63 2603h48.791"/>
  <path id="path290" d="m357.39 2603.3h49.134"/>
  <path id="path292" d="m357.16 2603.6h49.477"/>
  <path id="path294" d="m356.92 2603.8h49.821"/>
  <path id="path296" d="m356.68 2604.1h50.165"/>
  <path id="path298" d="m356.44 2604.4h50.508"/>
  <path id="path300" d="m356.21 2604.6h50.852"/>
  <path id="path302" d="m355.97 2604.9h51.195"/>
  <path id="path304" d="m355.73 2605.2h51.538"/>
  <path id="path306" d="m355.5 2605.4h51.883"/>
  <path id="path308" d="m355.26 2605.7h52.226"/>
  <path id="path310" d="m355.02 2606h52.569"/>
  <path id="path312" d="m354.78 2606.3h52.914"/>
  <path id="path314" d="m354.55 2606.5h53.257"/>
  <path id="path316" d="m354.31 2606.8h53.601"/>
  <path id="path318" d="m354.07 2607.1h53.944"/>
  <path id="path320" d="m353.84 2607.3h54.288"/>
  <path id="path322" d="m353.6 2607.6h54.632"/>
  <path id="path324" d="m353.36 2607.9h54.975"/>
  <path id="path326" d="m353.12 2608.1h55.318"/>
  <path id="path328" d="m352.89 2608.4h55.662"/>
  <path id="path330" d="m352.65 2608.7h56.006"/>
  <path id="path332" d="m352.41 2609h56.349"/>
  <path id="path334" d="m352.18 2609.2h56.693"/>
  <path id="path336" d="m351.94 2609.5h57.036"/>
  <path id="path338" d="m351.7 2609.8h57.38"/>
  <path id="path340" d="m351.46 2610h57.724"/>
  <path id="path342" d="m351.23 2610.3h58.067"/>
  <path id="path344" d="m350.99 2610.6h58.412"/>
  <path id="path346" d="m350.75 2610.8h58.755"/>
  <path id="path348" d="m350.51 2611.1h59.098"/>
  <path id="path350" d="m350.28 2611.4h59.442"/>
  <path id="path352" d="m350.04 2611.7h59.785"/>
  <path id="path354" d="m349.8 2611.9h60.129"/>
  <path id="path356" d="m349.56 2612.2h60.473"/>
  <path id="path358" d="m349.33 2612.5h60.816"/>
  <path id="path360" d="m349.09 2612.7h61.159"/>
  <path id="path362" d="m348.85 2613h61.504"/>
  <path id="path364" d="m348.62 2613.3h61.847"/>
  <path id="path366" d="m348.38 2613.5h62.19"/>
  <path id="path368" d="m348.14 2613.8h62.534"/>
  <path id="path370" d="m347.9 2614.1h62.877"/>
  <path id="path372" d="m347.67 2614.4h63.222"/>
  <path id="path374" d="m347.43 2614.6h63.565"/>
  <path id="path376" d="m347.19 2614.9h63.908"/>
  <path id="path378" d="m346.96 2615.2h64.253"/>
  <path id="path380" d="m346.72 2615.4h64.596"/>
  <path id="path382" d="m346.48 2615.7h64.939"/>
  <path id="path384" d="m346.24 2616h65.283"/>
  <path id="path386" d="m346.01 2616.2h65.626"/>
  <path id="path388" d="m345.77 2616.5h65.97"/>
  <path id="path390" d="m345.53 2616.8h66.314"/>
  <path id="path392" d="m345.3 2617.1h66.657"/>
  <path id="path394" d="m345.06 2617.3h67"/>
  <path id="path396" d="m344.82 2617.6h67.345"/>
  <path id="path398" d="m344.58 2617.9h67.688"/>
  <path id="path400" d="m344.35 2618.1h68.031"/>
  <path id="path402" d="m344.11 2618.4h68.376"/>
  <path id="path404" d="m343.87 2618.7h68.719"/>
  <path id="path406" d="m343.63 2618.9h69.062"/>
  <path id="path408" d="m343.4 2619.2h69.406"/>
  <path id="path410" d="m343.16 2619.5h69.749"/>
  <path id="path412" d="m342.92 2619.8h70.093"/>
  <path id="path414" d="m342.68 2620h70.437"/>
  <path id="path416" d="m342.45 2620.3h70.78"/>
  <path id="path418" d="m342.21 2620.6h71.123"/>
  <path id="path420" d="m341.97 2620.8h71.468"/>
  <path id="path422" d="m341.74 2621.1h71.811"/>
  <path id="path424" d="m341.5 2621.4h72.154"/>
  <path id="path426" d="m341.26 2621.6h72.499"/>
  <path id="path428" d="m341.02 2621.9h72.841"/>
  <path id="path430" d="m340.79 2622.2h73.185"/>
  <path id="path432" d="m340.55 2622.5h73.529"/>
  <path id="path434" d="m340.31 2622.7h73.872"/>
  <path id="path436" d="m340.08 2623h74.216"/>
  <path id="path438" d="m339.84 2623.3h74.56"/>
  <path id="path440" d="m339.6 2623.5h74.903"/>
  <path id="path442" d="m339.36 2623.8h75.247"/>
  <path id="path444" d="m339.13 2624.1h75.591"/>
  <path id="path446" d="m338.89 2624.3h75.934"/>
  <path id="path448" d="m338.65 2624.6h76.278"/>
  <path id="path450" d="m338.42 2624.9h76.621"/>
  <path id="path452" d="m338.18 2625.2h76.964"/>
  <path id="path454" d="m337.94 2625.4h77.309"/>
  <path id="path456" d="m337.7 2625.7h77.652"/>
  <path id="path458" d="m337.47 2626h77.995"/>
  <path id="path460" d="m337.23 2626.2h78.34"/>
  <path id="path462" d="m336.99 2626.5h78.683"/>
  <path id="path464" d="m336.75 2626.8h79.026"/>
  <path id="path466" d="m336.52 2627h79.37"/>
  <path id="path468" d="m336.28 2627.3h79.714"/>
  <path id="path470" d="m336.04 2627.6h80.058"/>
  <path id="path472" d="m335.8 2627.9h80.401"/>
  <path id="path474" d="m335.57 2628.1h80.744"/>
  <path id="path476" d="m335.33 2628.4h81.088"/>
  <path id="path478" d="m335.09 2628.7h81.432"/>
  <path id="path480" d="m334.86 2628.9h81.775"/>
  <path id="path482" d="m334.62 2629.2h82.119"/>
  <path id="path484" d="m334.38 2629.5h82.463"/>
  <path id="path486" d="m334.14 2629.7h82.806"/>
  <path id="path488" d="m333.91 2630h83.15"/>
  <path id="path490" d="m333.67 2630.3h83.493"/>
  <path id="path492" d="m333.43 2630.6h83.836"/>
  <path id="path494" d="m333.2 2630.8h84.181"/>
  <path id="path496" d="m332.96 2631.1h84.524"/>
  <path id="path498" d="m332.72 2631.4h84.868"/>
  <path id="path500" d="m332.48 2631.6h85.211"/>
  <path id="path502" d="m332.25 2631.9h85.555"/>
  <path id="path504" d="m332.01 2632.2h85.899"/>
  <path id="path506" d="m331.77 2632.4h86.242"/>
  <path id="path508" d="m331.54 2632.7h86.585"/>
  <path id="path510" d="m331.3 2633h86.929"/>
  <path id="path512" d="m331.06 2633.3h87.273"/>
  <path id="path514" d="m330.82 2633.5h87.616"/>
  <path id="path516" d="m330.59 2633.8h87.96"/>
  <path id="path518" d="m330.35 2634.1h88.304"/>
  <path id="path520" d="m330.11 2634.3h88.647"/>
  <path id="path522" d="m329.87 2634.6h88.991"/>
  <path id="path524" d="m329.64 2634.9h89.334"/>
  <path id="path526" d="m329.4 2635.1h89.678"/>
  <path id="path528" d="m329.16 2635.4h90.022"/>
  <path id="path530" d="m328.92 2635.7h90.365"/>
  <path id="path532" d="m328.69 2636h90.708"/>
  <path id="path534" d="m328.45 2636.2h91.052"/>
  <path id="path536" d="m328.21 2636.5h91.396"/>
  <path id="path538" d="m327.98 2636.8h91.739"/>
  <path id="path540" d="m327.74 2637h92.083"/>
  <path id="path542" d="m327.5 2637.3h92.427"/>
  <path id="path544" d="m327.26 2637.6h92.77"/>
  <path id="path546" d="m327.03 2637.8h93.114"/>
  <path id="path548" d="m326.79 2638.1h93.457"/>
  <path id="path550" d="m326.55 2638.4h93.801"/>
  <path id="path552" d="m326.32 2638.7h94.145"/>
  <path id="path554" d="m326.08 2638.9h94.488"/>
  <path id="path556" d="m325.84 2639.2h94.831"/>
  <path id="path558" d="m325.6 2639.5h95.175"/>
  <path id="path560" d="m325.37 2639.7h95.519"/>
  <path id="path562" d="m325.13 2640h95.863"/>
  <path id="path564" d="m324.89 2640.3h96.206"/>
  <path id="path566" d="m324.66 2640.5h96.549"/>
  <path id="path568" d="m324.42 2640.8h96.894"/>
  <path id="path570" d="m324.18 2641.1h97.237"/>
  <path id="path572" d="m323.94 2641.4h97.58"/>
  <path id="path574" d="m323.71 2641.6h97.924"/>
  <path id="path576" d="m323.47 2641.9h98.268"/>
  <path id="path578" d="m323.23 2642.2h98.611"/>
  <path id="path580" d="m322.99 2642.4h98.955"/>
  <path id="path582" d="m322.76 2642.7h99.298"/>
  <path id="path584" d="m322.52 2643h99.642"/>
  <path id="path586" d="m322.28 2643.2h99.986"/>
  <path id="path588" d="m322.04 2643.5h100.33"/>
  <path id="path590" d="m321.81 2643.8h100.67"/>
  <path id="path592" d="m321.57 2644h101.02"/>
  <path id="path594" d="m321.33 2644.3h101.36"/>
  <path id="path596" d="m321.1 2644.6h101.7"/>
  <path id="path598" d="m320.86 2644.9h102.05"/>
  <path id="path600" d="m320.62 2645.1h102.39"/>
  <path id="path602" d="m320.38 2645.4h102.74"/>
  <path id="path604" d="m320.15 2645.7h103.08"/>
  <path id="path606" d="m319.91 2645.9h103.42"/>
  <path id="path608" d="m319.67 2646.2h103.77"/>
  <path id="path610" d="m319.44 2646.5h104.11"/>
  <path id="path612" d="m319.2 2646.8h104.45"/>
  <path id="path614" d="m318.96 2647h104.8"/>
  <path id="path616" d="m318.72 2647.3h105.14"/>
  <path id="path618" d="m318.49 2647.6h105.48"/>
  <path id="path620" d="m318.25 2647.8h105.83"/>
  <path id="path622" d="m318.01 2648.1h106.17"/>
  <path id="path624" d="m317.78 2648.4h106.51"/>
  <path id="path626" d="m317.54 2648.6h106.86"/>
  <path id="path628" d="m317.3 2648.9h107.2"/>
  <path id="path630" d="m317.06 2649.2h107.54"/>
  <path id="path632" d="m316.82 2649.4h107.89"/>
  <path id="path634" d="m316.59 2649.7h108.23"/>
  <path id="path636" d="m316.35 2650h108.58"/>
  <path id="path638" d="m316.11 2650.3h108.92"/>
  <path id="path640" d="m315.88 2650.5h109.26"/>
  <path id="path642" d="m315.64 2650.8h109.61"/>
  <path id="path644" d="m315.4 2651.1h109.95"/>
  <path id="path646" d="m315.16 2651.3h110.29"/>
  <path id="path648" d="m314.93 2651.6h110.64"/>
  <path id="path650" d="m314.69 2651.9h110.98"/>
  <path id="path652" d="m314.45 2652.1h111.32"/>
  <path id="path654" d="m314.22 2652.4h111.67"/>
  <path id="path656" d="m313.98 2652.7h112.01"/>
  <path id="path658" d="m313.74 2653h112.36"/>
  <path id="path660" d="m313.5 2653.2h112.7"/>
  <path id="path662" d="m313.27 2653.5h113.04"/>
  <path id="path664" d="m313.03 2653.8h113.39"/>
  <path id="path666" d="m312.79 2654h113.73"/>
  <path id="path668" d="m312.56 2654.3h114.07"/>
  <path id="path670" d="m312.32 2654.6h114.42"/>
  <path id="path672" d="m312.08 2654.8h114.76"/>
  <path id="path674" d="m311.84 2655.1h115.1"/>
  <path id="path676" d="m311.61 2655.4h115.45"/>
  <path id="path678" d="m311.37 2655.7h115.79"/>
  <path id="path680" d="m311.13 2655.9h116.13"/>
  <path id="path682" d="m310.9 2656.2h116.48"/>
  <path id="path684" d="m310.66 2656.5h116.82"/>
  <path id="path686" d="m310.42 2656.7h117.16"/>
  <path id="path688" d="m310.18 2657h117.51"/>
  <path id="path690" d="m309.94 2657.3h117.85"/>
  <path id="path692" d="m309.71 2657.5h118.2"/>
  <path id="path694" d="m309.47 2657.8h118.54"/>
  <path id="path696" d="m309.23 2658.1h118.88"/>
  <path id="path698" d="m309 2658.4h119.23"/>
  <path id="path700" d="m308.76 2658.6h119.57"/>
  <path id="path702" d="m308.52 2658.9h119.91"/>
  <path id="path704" d="m308.28 2659.2h120.26"/>
  <path id="path706" d="m308.05 2659.4h120.6"/>
  <path id="path708" d="m307.81 2659.7h120.94"/>
  <path id="path710" d="m307.57 2660h121.29"/>
  <path id="path712" d="m307.34 2660.2h121.63"/>
  <path id="path714" d="m307.1 2660.5h121.98"/>
  <path id="path716" d="m306.86 2660.8h122.32"/>
  <path id="path718" d="m306.62 2661.1h122.66"/>
  <path id="path720" d="m306.39 2661.3h123.01"/>
  <path id="path722" d="m306.15 2661.6h123.35"/>
  <path id="path724" d="m305.91 2661.9h123.69"/>
  <path id="path726" d="m305.68 2662.1h124.04"/>
  <path id="path728" d="m305.44 2662.4h124.38"/>
  <path id="path730" d="m305.2 2662.7h124.72"/>
  <path id="path732" d="m304.96 2662.9h125.07"/>
  <path id="path734" d="m304.73 2663.2h125.41"/>
  <path id="path736" d="m304.49 2663.5h125.76"/>
  <path id="path738" d="m304.25 2663.8h126.1"/>
  <path id="path740" d="m304.02 2664h126.44"/>
  <path id="path742" d="m303.78 2664.3h126.79"/>
  <path id="path744" d="m303.54 2664.6h127.13"/>
  <path id="path746" d="m303.3 2664.8h127.47"/>
  <path id="path748" d="m303.06 2665.1h127.82"/>
  <path id="path750" d="m302.83 2665.4h128.16"/>
  <path id="path752" d="m302.59 2665.6h128.5"/>
  <path id="path754" d="m302.35 2665.9h128.85"/>
  <path id="path756" d="m302.12 2666.2h129.19"/>
  <path id="path758" d="m301.88 2666.5h129.54"/>
  <path id="path760" d="m301.64 2666.7h129.88"/>
  <path id="path762" d="m301.4 2667h130.22"/>
  <path id="path764" d="m301.17 2667.3h130.56"/>
  <path id="path766" d="m300.93 2667.5h130.91"/>
  <path id="path768" d="m300.69 2667.8h131.25"/>
  <path id="path770" d="m300.46 2668.1h131.6"/>
  <path id="path772" d="m300.22 2668.3h131.94"/>
  <path id="path774" d="m299.98 2668.6h132.28"/>
  <path id="path776" d="m299.74 2668.9h132.63"/>
  <path id="path778" d="m299.51 2669.2h132.97"/>
  <path id="path780" d="m299.27 2669.4h133.31"/>
  <path id="path782" d="m299.03 2669.7h133.66"/>
  <path id="path784" d="m298.8 2670h134"/>
  <path id="path786" d="m298.56 2670.2h134.34"/>
  <path id="path788" d="m298.32 2670.5h134.69"/>
  <path id="path790" d="m298.08 2670.8h135.03"/>
  <path id="path792" d="m297.85 2671h135.38"/>
  <path id="path794" d="m297.61 2671.3h135.72"/>
  <path id="path796" d="m297.37 2671.6h136.06"/>
  <path id="path798" d="m297.13 2671.9h136.41"/>
  <path id="path800" d="m296.9 2672.1h136.75"/>
  <path id="path802" d="m296.66 2672.4h137.09"/>
  <path id="path804" d="m296.42 2672.7h137.44"/>
  <path id="path806" d="m296.18 2672.9h137.78"/>
  <path id="path808" d="m295.95 2673.2h138.12"/>
  <path id="path810" d="m295.71 2673.5h138.47"/>
  <path id="path812" d="m295.47 2673.7h138.81"/>
  <path id="path814" d="m295.24 2674h139.16"/>
  <path id="path816" d="m295 2674.3h139.5"/>
  <path id="path818" d="m294.76 2674.6h139.84"/>
  <path id="path820" d="m294.52 2674.8h140.19"/>
  <path id="path822" d="m294.29 2675.1h140.53"/>
  <path id="path824" d="m294.05 2675.4h140.87"/>
  <path id="path826" d="m293.81 2675.6h141.22"/>
  <path id="path828" d="m293.58 2675.9h141.56"/>
  <path id="path830" d="m293.34 2676.2h141.9"/>
  <path id="path832" d="m293.1 2676.4h142.25"/>
  <path id="path834" d="m292.86 2676.7h142.59"/>
  <path id="path836" d="m292.63 2677h142.94"/>
  <path id="path838" d="m292.39 2677.3h143.28"/>
  <path id="path840" d="m292.15 2677.5h143.62"/>
  <path id="path842" d="m291.92 2677.8h143.97"/>
  <path id="path844" d="m291.68 2678.1h144.31"/>
  <path id="path846" d="m291.44 2678.3h144.65"/>
  <path id="path848" d="m291.2 2678.6h145"/>
  <path id="path850" d="m290.97 2678.9h145.34"/>
  <path id="path852" d="m290.73 2679.1h145.68"/>
  <path id="path854" d="m290.49 2679.4h146.03"/>
  <path id="path856" d="m290.25 2679.7h146.37"/>
  <path id="path858" d="m290.02 2680h146.71"/>
  <path id="path860" d="m289.78 2680.2h147.06"/>
  <path id="path862" d="m289.54 2680.5h147.4"/>
  <path id="path864" d="m289.3 2680.8h147.75"/>
  <path id="path866" d="m289.07 2681h148.09"/>
  <path id="path868" d="m288.83 2681.3h148.43"/>
  <path id="path870" d="m288.59 2681.6h148.78"/>
  <path id="path872" d="m288.36 2681.8h149.12"/>
  <path id="path874" d="m288.12 2682.1h149.46"/>
  <path id="path876" d="m287.88 2682.4h149.81"/>
  <path id="path878" d="m287.64 2682.7h150.15"/>
  <path id="path880" d="m287.41 2682.9h150.49"/>
  <path id="path882" d="m287.17 2683.2h150.84"/>
  <path id="path884" d="m286.93 2683.5h151.18"/>
  <path id="path886" d="m286.7 2683.7h151.52"/>
  <path id="path888" d="m286.46 2684h151.87"/>
  <path id="path890" d="m286.22 2684.3h152.21"/>
  <path id="path892" d="m285.98 2684.5h152.56"/>
  <path id="path894" d="m285.75 2684.8h152.9"/>
  <path id="path896" d="m285.51 2685.1h153.24"/>
  <path id="path898" d="m285.27 2685.4h153.59"/>
  <path id="path900" d="m285.04 2685.6h153.93"/>
  <path id="path902" d="m284.8 2685.9h154.27"/>
  <path id="path904" d="m284.56 2686.2h154.62"/>
  <path id="path906" d="m284.32 2686.4h154.96"/>
  <path id="path908" d="m284.09 2686.7h155.3"/>
  <path id="path910" d="m283.85 2687h155.65"/>
  <path id="path912" d="m283.61 2687.2h155.99"/>
  <path id="path914" d="m283.37 2687.5h156.34"/>
  <path id="path916" d="m283.14 2687.8h156.68"/>
  <path id="path918" d="m282.9 2688.1h157.02"/>
  <path id="path920" d="m282.66 2688.3h157.37"/>
  <path id="path922" d="m282.42 2688.6h157.71"/>
  <path id="path924" d="m282.19 2688.9h158.05"/>
  <path id="path926" d="m281.95 2689.1h158.4"/>
  <path id="path928" d="m281.71 2689.4h158.74"/>
  <path id="path930" d="m281.48 2689.7h159.08"/>
  <path id="path932" d="m281.24 2689.9h159.43"/>
  <path id="path934" d="m281 2690.2h159.77"/>
  <path id="path936" d="m280.76 2690.5h160.11"/>
  <path id="path938" d="m280.53 2690.8h160.46"/>
  <path id="path940" d="m280.29 2691h160.8"/>
  <path id="path942" d="m280.05 2691.3h161.14"/>
  <path id="path944" d="m279.82 2691.6h161.49"/>
  <path id="path946" d="m279.58 2691.8h161.83"/>
  <path id="path948" d="m279.34 2692.1h162.18"/>
  <path id="path950" d="m279.1 2692.4h162.52"/>
  <path id="path952" d="m278.87 2692.6h162.86"/>
  <path id="path954" d="m278.63 2692.9h163.21"/>
  <path id="path956" d="m278.39 2693.2h163.55"/>
  <path id="path958" d="m278.16 2693.5h163.89"/>
  <path id="path960" d="m277.92 2693.7h164.24"/>
  <path id="path962" d="m277.68 2694h164.58"/>
  <path id="path964" d="m277.44 2694.3h164.92"/>
  <path id="path966" d="m277.21 2694.5h165.27"/>
  <path id="path968" d="m276.97 2694.8h165.61"/>
  <path id="path970" d="m276.73 2695.1h165.96"/>
  <path id="path972" d="m276.49 2695.3h166.3"/>
  <path id="path974" d="m276.26 2695.6h166.64"/>
  <path id="path976" d="m276.02 2695.9h166.99"/>
  <path id="path978" d="m275.78 2696.2h167.33"/>
  <path id="path980" d="m275.54 2696.4h167.67"/>
  <path id="path982" d="m275.31 2696.7h168.02"/>
  <path id="path984" d="m275.07 2697h168.36"/>
  <path id="path986" d="m274.83 2697.2h168.7"/>
  <path id="path988" d="m274.6 2697.5h169.05"/>
  <path id="path990" d="m274.36 2697.8h169.39"/>
  <path id="path992" d="m274.12 2698h169.74"/>
  <path id="path994" d="m273.88 2698.3h170.08"/>
  <path id="path996" d="m273.65 2698.6h170.42"/>
  <path id="path998" d="m273.41 2698.9h170.77"/>
  <path id="path1000" d="m273.17 2699.1h171.11"/>
  <path id="path1002" d="m272.94 2699.4h171.45"/>
  <path id="path1004" d="m272.7 2699.7h171.8"/>
  <path id="path1006" d="m272.46 2699.9h172.14"/>
  <path id="path1008" d="m272.22 2700.2h172.48"/>
  <path id="path1010" d="m271.99 2700.5h172.83"/>
  <path id="path1012" d="m271.75 2700.7h173.17"/>
  <path id="path1014" d="m271.51 2701h173.52"/>
  <path id="path1016" d="m271.28 2701.3h173.86"/>
  <path id="path1018" d="m271.04 2701.6h174.2"/>
  <path id="path1020" d="m270.8 2701.8h174.55"/>
  <path id="path1022" d="m270.56 2702.1h174.89"/>
  <path id="path1024" d="m270.33 2702.4h175.23"/>
  <path id="path1026" d="m270.09 2702.6h175.58"/>
  <path id="path1028" d="m269.85 2702.9h175.92"/>
  <path id="path1030" d="m269.61 2703.2h176.26"/>
  <path id="path1032" d="m269.38 2703.4h176.61"/>
  <path id="path1034" d="m269.14 2703.7h176.95"/>
  <path id="path1036" d="m268.9 2704h177.3"/>
  <path id="path1038" d="m268.66 2704.3h177.64"/>
  <path id="path1040" d="m268.43 2704.5h177.98"/>
  <path id="path1042" d="m268.19 2704.8h178.32"/>
  <path id="path1044" d="m267.95 2705.1h178.67"/>
  <path id="path1046" d="m267.72 2705.3h179.01"/>
  <path id="path1048" d="m267.48 2705.6h179.36"/>
  <path id="path1050" d="m267.24 2705.9h179.7"/>
  <path id="path1052" d="m267 2706.1h180.04"/>
  <path id="path1054" d="m266.77 2706.4h180.39"/>
  <path id="path1056" d="m266.53 2706.7h180.73"/>
  <path id="path1058" d="m266.29 2707h181.07"/>
  <path id="path1060" d="m266.06 2707.2h181.42"/>
  <path id="path1062" d="m265.82 2707.5h181.76"/>
  <path id="path1064" d="m265.58 2707.8h182.1"/>
  <path id="path1066" d="m265.34 2708h182.45"/>
  <path id="path1068" d="m265.11 2708.3h182.79"/>
  <path id="path1070" d="m264.87 2708.6h183.14"/>
  <path id="path1072" d="m264.63 2708.8h183.48"/>
  <path id="path1074" d="m264.4 2709.1h183.82"/>
  <path id="path1076" d="m264.16 2709.4h184.17"/>
  <path id="path1078" d="m263.92 2709.7h184.51"/>
  <path id="path1080" d="m263.68 2709.9h184.85"/>
  <path id="path1082" d="m263.45 2710.2h185.2"/>
  <path id="path1084" d="m263.21 2710.5h185.54"/>
  <path id="path1086" d="m262.97 2710.7h185.88"/>
  <path id="path1088" d="m262.73 2711h186.23"/>
  <path id="path1090" d="m262.5 2711.3h186.57"/>
  <path id="path1092" d="m262.26 2711.5h186.91"/>
  <path id="path1094" d="m262.02 2711.8h187.26"/>
  <path id="path1096" d="m261.78 2712.1h187.6"/>
  <path id="path1098" d="m261.55 2712.4h187.94"/>
  <path id="path1100" d="m261.31 2712.6h188.29"/>
  <path id="path1102" d="m261.07 2712.9h188.63"/>
  <path id="path1104" d="m260.84 2713.2h188.98"/>
  <path id="path1106" d="m260.6 2713.4h189.32"/>
  <path id="path1108" d="m260.36 2713.7h189.66"/>
  <path id="path1110" d="m260.12 2714h190.01"/>
  <path id="path1112" d="m259.89 2714.2h190.35"/>
  <path id="path1114" d="m259.65 2714.5h190.69"/>
  <path id="path1116" d="m259.41 2714.8h191.04"/>
  <path id="path1118" d="m259.18 2715.1h191.38"/>
  <path id="path1120" d="m258.94 2715.3h191.72"/>
  <path id="path1122" d="m258.7 2715.6h192.07"/>
  <path id="path1124" d="m258.46 2715.9h192.41"/>
  <path id="path1126" d="m258.23 2716.1h192.76"/>
  <path id="path1128" d="m257.99 2716.4h193.1"/>
  <path id="path1130" d="m257.75 2716.7h193.44"/>
  <path id="path1132" d="m257.52 2716.9h193.79"/>
  <path id="path1134" d="m257.28 2717.2h194.13"/>
  <path id="path1136" d="m257.04 2717.5h194.47"/>
  <path id="path1138" d="m256.8 2717.8h194.82"/>
  <path id="path1140" d="m256.57 2718h195.16"/>
  <path id="path1142" d="m256.33 2718.3h195.5"/>
  <path id="path1144" d="m256.09 2718.6h195.85"/>
  <path id="path1146" d="m255.85 2718.8h196.19"/>
  <path id="path1148" d="m255.62 2719.1h196.54"/>
  <path id="path1150" d="m255.38 2719.4h196.88"/>
  <path id="path1152" d="m255.14 2719.6h197.22"/>
  <path id="path1154" d="m254.9 2719.9h197.57"/>
  <path id="path1156" d="m254.67 2720.2h197.91"/>
  <path id="path1158" d="m254.43 2720.4h198.25"/>
  <path id="path1160" d="m254.19 2720.7h198.6"/>
  <path id="path1162" d="m253.96 2721h198.94"/>
  <path id="path1164" d="m253.72 2721.3h199.28"/>
  <path id="path1166" d="m253.48 2721.5h199.63"/>
  <path id="path1168" d="m253.24 2721.8h199.97"/>
  <path id="path1170" d="m253.01 2722.1h200.32"/>
  <path id="path1172" d="m252.77 2722.3h200.66"/>
  <path id="path1174" d="m252.53 2722.6h201"/>
  <path id="path1176" d="m252.3 2722.9h201.34"/>
  <path id="path1178" d="m252.06 2723.2h201.69"/>
  <path id="path1180" d="m251.82 2723.4h202.03"/>
  <path id="path1182" d="m251.58 2723.7h202.38"/>
  <path id="path1184" d="m251.35 2724h202.72"/>
  <path id="path1186" d="m251.11 2724.2h203.06"/>
  <path id="path1188" d="m250.87 2724.5h203.41"/>
  <path id="path1190" d="m250.64 2724.8h203.75"/>
  <path id="path1192" d="m250.4 2725h204.09"/>
  <path id="path1194" d="m250.16 2725.3h204.44"/>
  <path id="path1196" d="m249.92 2725.6h204.78"/>
  <path id="path1198" d="m249.69 2725.8h205.12"/>
  <path id="path1200" d="m249.45 2726.1h205.47"/>
  <path id="path1202" d="m249.21 2726.4h205.81"/>
  <path id="path1204" d="m248.97 2726.7h206.16"/>
  <path id="path1206" d="m248.74 2726.9h206.5"/>
  <path id="path1208" d="m248.5 2727.2h206.84"/>
  <path id="path1210" d="m248.26 2727.5h207.19"/>
  <path id="path1212" d="m248.02 2727.7h207.53"/>
  <path id="path1214" d="m247.79 2728h207.87"/>
  <path id="path1216" d="m247.55 2728.3h208.22"/>
  <path id="path1218" d="m247.31 2728.5h208.56"/>
  <path id="path1220" d="m247.08 2728.8h208.9"/>
  <path id="path1222" d="m246.84 2729.1h209.25"/>
  <path id="path1224" d="m246.6 2729.4h209.59"/>
  <path id="path1226" d="m246.36 2729.6h209.94"/>
  <path id="path1228" d="m246.13 2729.9h210.28"/>
  <path id="path1230" d="m245.89 2730.2h210.62"/>
  <path id="path1232" d="m245.65 2730.4h210.97"/>
  <path id="path1234" d="m245.42 2730.7h211.31"/>
  <path id="path1236" d="m245.18 2731h211.65"/>
  <path id="path1238" d="m244.94 2731.2h212"/>
  <path id="path1240" d="m244.7 2731.5h212.34"/>
  <path id="path1242" d="m244.47 2731.8h212.68"/>
  <path id="path1244" d="m244.23 2732.1h213.03"/>
  <path id="path1246" d="m243.99 2732.3h213.37"/>
  <path id="path1248" d="m243.76 2732.6h213.72"/>
  <path id="path1250" d="m243.52 2732.9h214.06"/>
  <path id="path1252" d="m243.28 2733.1h214.4"/>
  <path id="path1254" d="m243.04 2733.4h214.75"/>
  <path id="path1256" d="m242.81 2733.7h215.09"/>
  <path id="path1258" d="m242.57 2733.9h215.43"/>
  <path id="path1260" d="m242.33 2734.2h215.78"/>
  <path id="path1262" d="m242.09 2734.5h216.12"/>
  <path id="path1264" d="m241.86 2734.8h216.46"/>
  <path id="path1266" d="m241.62 2735h216.81"/>
  <path id="path1268" d="m241.38 2735.3h217.15"/>
  <path id="path1270" d="m241.14 2735.6h217.5"/>
  <path id="path1272" d="m240.91 2735.8h217.84"/>
  <path id="path1274" d="m240.67 2736.1h218.18"/>
  <path id="path1276" d="m240.43 2736.4h218.53"/>
  <path id="path1278" d="m240.2 2736.6h218.87"/>
  <path id="path1280" d="m239.96 2736.9h219.21"/>
  <path id="path1282" d="m239.72 2737.2h219.56"/>
  <path id="path1284" d="m239.48 2737.5h219.9"/>
  <path id="path1286" d="m239.25 2737.7h220.24"/>
  <path id="path1288" d="m239.01 2738h220.59"/>
  <path id="path1290" d="m238.77 2738.3h220.93"/>
  <path id="path1292" d="m238.54 2738.5h221.28"/>
  <path id="path1294" d="m238.3 2738.8h221.62"/>
  <path id="path1296" d="m238.06 2739.1h221.96"/>
  <path id="path1298" d="m237.82 2739.3h222.3"/>
  <path id="path1300" d="m237.59 2739.6h222.65"/>
  <path id="path1302" d="m237.35 2739.9h222.99"/>
  <path id="path1304" d="m237.11 2740.2h223.34"/>
  <path id="path1306" d="m236.88 2740.4h223.68"/>
  <path id="path1308" d="m236.64 2740.7h224.02"/>
  <path id="path1310" d="m236.4 2741h224.37"/>
  <path id="path1312" d="m236.16 2741.2h224.71"/>
  <path id="path1314" d="m235.93 2741.5h225.05"/>
  <path id="path1316" d="m235.69 2741.8h225.4"/>
  <path id="path1318" d="m235.45 2742h225.74"/>
  <path id="path1320" d="m235.21 2742.3h226.08"/>
  <path id="path1322" d="m234.98 2742.6h226.43"/>
  <path id="path1324" d="m234.74 2742.9h226.77"/>
  <path id="path1326" d="m234.5 2743.1h227.12"/>
  <path id="path1328" d="m234.26 2743.4h227.46"/>
  <path id="path1330" d="m234.03 2743.7h227.8"/>
  <path id="path1332" d="m233.79 2743.9h228.15"/>
  <path id="path1334" d="m233.55 2744.2h228.49"/>
  <path id="path1336" d="m233.32 2744.5h228.83"/>
  <path id="path1338" d="m233.08 2744.7h229.18"/>
  <path id="path1340" d="m232.84 2745h229.52"/>
  <path id="path1342" d="m232.6 2745.3h229.86"/>
  <path id="path1344" d="m232.37 2745.6h230.21"/>
  <path id="path1346" d="m232.13 2745.8h230.55"/>
  <path id="path1348" d="m231.89 2746.1h230.9"/>
  <path id="path1350" d="m231.66 2746.4h231.24"/>
  <path id="path1352" d="m231.42 2746.6h231.58"/>
  <path id="path1354" d="m231.18 2746.9h231.92"/>
  <path id="path1356" d="m230.94 2747.2h232.27"/>
  <path id="path1358" d="m230.71 2747.4h232.61"/>
  <path id="path1360" d="m230.47 2747.7h232.96"/>
  <path id="path1362" d="m230.23 2748h233.3"/>
  <path id="path1364" d="m230 2748.3h233.64"/>
  <path id="path1366" d="m229.76 2748.5h233.99"/>
  <path id="path1368" d="m229.52 2748.8h234.33"/>
  <path id="path1370" d="m229.28 2749.1h234.67"/>
  <path id="path1372" d="m229.05 2749.3h235.02"/>
  <path id="path1374" d="m228.81 2749.6h235.36"/>
  <path id="path1376" d="m228.57 2749.9h235.7"/>
  <path id="path1378" d="m228.33 2750.1h236.05"/>
  <path id="path1380" d="m228.1 2750.4h236.39"/>
  <path id="path1382" d="m227.86 2750.7h236.74"/>
  <path id="path1384" d="m227.62 2751h237.08"/>
  <path id="path1386" d="m227.38 2751.2h237.42"/>
  <path id="path1388" d="m227.15 2751.5h237.77"/>
  <path id="path1390" d="m226.91 2751.8h238.11"/>
  <path id="path1392" d="m226.67 2752h238.45"/>
  <path id="path1394" d="m226.44 2752.3h238.8"/>
  <path id="path1396" d="m226.2 2752.6h239.14"/>
  <path id="path1398" d="m225.96 2752.8h239.48"/>
  <path id="path1400" d="m225.72 2753.1h239.83"/>
  <path id="path1402" d="m225.49 2753.4h240.17"/>
  <path id="path1404" d="m225.25 2753.7h240.52"/>
  <path id="path1406" d="m225.01 2753.9h240.86"/>
  <path id="path1408" d="m224.78 2754.2h241.2"/>
  <path id="path1410" d="m224.54 2754.5h241.55"/>
  <path id="path1412" d="m224.3 2754.7h241.89"/>
  <path id="path1414" d="m224.06 2755h242.23"/>
  <path id="path1416" d="m223.83 2755.3h242.58"/>
  <path id="path1418" d="m223.59 2755.5h242.92"/>
  <path id="path1420" d="m223.35 2755.8h243.26"/>
  <path id="path1422" d="m223.12 2756.1h243.61"/>
  <path id="path1424" d="m222.88 2756.4h243.95"/>
  <path id="path1426" d="m222.64 2756.6h244.3"/>
  <path id="path1428" d="m222.4 2756.9h244.64"/>
  <path id="path1430" d="m222.17 2757.2h244.98"/>
  <path id="path1432" d="m221.93 2757.4h245.33"/>
  <path id="path1434" d="m221.69 2757.7h245.67"/>
  <path id="path1436" d="m221.45 2758h246.01"/>
  <path id="path1438" d="m221.22 2758.2h246.36"/>
  <path id="path1440" d="m220.98 2758.5h246.7"/>
  <path id="path1442" d="m220.74 2758.8h247.04"/>
  <path id="path1444" d="m220.5 2759.1h247.39"/>
  <path id="path1446" d="m220.27 2759.3h247.73"/>
  <path id="path1448" d="m220.03 2759.6h248.08"/>
  <path id="path1450" d="m219.79 2759.9h248.42"/>
  <path id="path1452" d="m219.56 2760.1h248.76"/>
  <path id="path1454" d="m219.32 2760.4h249.1"/>
  <path id="path1456" d="m219.08 2760.7h249.45"/>
  <path id="path1458" d="m218.84 2760.9h249.79"/>
  <path id="path1460" d="m218.61 2761.2h250.14"/>
  <path id="path1462" d="m218.37 2761.5h250.48"/>
  <path id="path1464" d="m218.13 2761.8h250.82"/>
  <path id="path1466" d="m217.9 2762h251.17"/>
  <path id="path1468" d="m217.66 2762.3h251.51"/>
  <path id="path1470" d="m217.42 2762.6h251.85"/>
  <path id="path1472" d="m217.18 2762.8h252.2"/>
  <path id="path1474" d="m216.95 2763.1h252.54"/>
  <path id="path1476" d="m216.71 2763.4h252.88"/>
  <path id="path1478" d="m216.47 2763.6h253.23"/>
  <path id="path1480" d="m216.24 2763.9h253.57"/>
  <path id="path1482" d="m216 2764.2h253.92"/>
  <path id="path1484" d="m215.76 2764.5h254.26"/>
  <path id="path1486" d="m215.52 2764.7h254.6"/>
  <path id="path1488" d="m215.29 2765h254.95"/>
  <path id="path1490" d="m215.05 2765.3h255.29"/>
  <path id="path1492" d="m214.81 2765.5h255.63"/>
  <path id="path1494" d="m214.57 2765.8h255.98"/>
  <path id="path1496" d="m214.34 2766.1h256.32"/>
  <path id="path1498" d="m214.1 2766.3h256.66"/>
  <path id="path1500" d="m213.86 2766.6h257.01"/>
  <path id="path1502" d="m213.62 2766.9h257.35"/>
  <path id="path1504" d="m213.39 2767.2h257.7"/>
  <path id="path1506" d="m213.15 2767.4h258.04"/>
  <path id="path1508" d="m212.91 2767.7h258.38"/>
  <path id="path1510" d="m212.68 2768h258.73"/>
  <path id="path1512" d="m212.44 2768.2h259.07"/>
  <path id="path1514" d="m212.2 2768.5h259.41"/>
  <path id="path1516" d="m211.96 2768.8h259.76"/>
  <path id="path1518" d="m211.73 2769h260.1"/>
  <path id="path1520" d="m211.49 2769.3h260.44"/>
  <path id="path1522" d="m211.25 2769.6h260.79"/>
  <path id="path1524" d="m211.02 2769.9h261.13"/>
  <path id="path1526" d="m210.78 2770.1h261.47"/>
  <path id="path1528" d="m210.54 2770.4h261.82"/>
  <path id="path1530" d="m210.3 2770.7h262.16"/>
  <path id="path1532" d="m210.07 2770.9h262.5"/>
  <path id="path1534" d="m209.83 2771.2h262.85"/>
  <path id="path1536" d="m209.59 2771.5h263.19"/>
  <path id="path1538" d="m209.35 2771.7h263.54"/>
  <path id="path1540" d="m209.12 2772h263.88"/>
  <path id="path1542" d="m208.88 2772.3h264.22"/>
  <path id="path1544" d="m208.64 2772.6h264.57"/>
  <path id="path1546" d="m208.41 2772.8h264.91"/>
  <path id="path1548" d="m208.17 2773.1h265.25"/>
  <path id="path1550" d="m207.93 2773.4h265.6"/>
  <path id="path1552" d="m207.69 2773.6h265.94"/>
  <path id="path1554" d="m207.46 2773.9h266.28"/>
  <path id="path1556" d="m207.22 2774.2h266.63"/>
  <path id="path1558" d="m206.98 2774.4h266.97"/>
  <path id="path1560" d="m206.74 2774.7h267.32"/>
  <path id="path1562" d="m206.51 2775h267.66"/>
  <path id="path1564" d="m206.27 2775.3h268"/>
  <path id="path1566" d="m206.03 2775.5h268.35"/>
  <path id="path1568" d="m205.8 2775.8h268.69"/>
  <path id="path1570" d="m205.56 2776.1h269.03"/>
  <path id="path1572" d="m205.32 2776.3h269.38"/>
  <path id="path1574" d="m205.08 2776.6h269.72"/>
  <path id="path1576" d="m204.85 2776.9h270.06"/>
  <path id="path1578" d="m204.61 2777.1h270.41"/>
  <path id="path1580" d="m204.37 2777.4h270.75"/>
  <path id="path1582" d="m204.14 2777.7h271.1"/>
  <path id="path1584" d="m203.9 2778h271.44"/>
  <path id="path1586" d="m203.66 2778.2h271.78"/>
  <path id="path1588" d="m203.42 2778.5h272.13"/>
  <path id="path1590" d="m203.19 2778.8h272.47"/>
  <path id="path1592" d="m202.95 2779h272.81"/>
  <path id="path1594" d="m202.71 2779.3h273.16"/>
  <path id="path1596" d="m202.47 2779.6h273.5"/>
  <path id="path1598" d="m202.24 2779.8h273.84"/>
  <path id="path1600" d="m202 2780.1h274.19"/>
  <path id="path1602" d="m201.76 2780.4h274.53"/>
  <path id="path1604" d="m201.53 2780.7h274.87"/>
  <path id="path1606" d="m201.29 2780.9h275.22"/>
  <path id="path1608" d="m201.05 2781.2h275.56"/>
  <path id="path1610" d="m200.81 2781.5h275.9"/>
  <path id="path1612" d="m200.58 2781.7h276.25"/>
  <path id="path1614" d="m200.34 2782h276.59"/>
  <path id="path1616" d="m200.1 2782.3h276.94"/>
  <path id="path1618" d="m199.86 2782.5h277.28"/>
  <path id="path1620" d="m199.63 2782.8h277.62"/>
  <path id="path1622" d="m199.39 2783.1h277.97"/>
  <path id="path1624" d="m199.15 2783.4h278.31"/>
  <path id="path1626" d="m198.92 2783.6h278.65"/>
  <path id="path1628" d="m198.68 2783.9h279"/>
  <path id="path1630" d="m198.44 2784.2h279.34"/>
  <path id="path1632" d="m198.2 2784.4h279.68"/>
  <path id="path1634" d="m197.97 2784.7h280.03"/>
  <path id="path1636" d="m197.73 2785h280.37"/>
  <path id="path1638" d="m197.49 2785.2h280.72"/>
  <path id="path1640" d="m197.26 2785.5h281.06"/>
  <path id="path1642" d="m197.02 2785.8h281.4"/>
  <path id="path1644" d="m196.78 2786.1h281.75"/>
  <path id="path1646" d="m196.54 2786.3h282.09"/>
  <path id="path1648" d="m196.31 2786.6h282.43"/>
  <path id="path1650" d="m196.07 2786.9h282.78"/>
  <path id="path1652" d="m195.83 2787.1h283.12"/>
  <path id="path1654" d="m195.59 2787.4h283.46"/>
  <path id="path1656" d="m195.36 2787.7h283.81"/>
  <path id="path1658" d="m195.12 2787.9h284.15"/>
  <path id="path1660" d="m194.88 2788.2h284.5"/>
  <path id="path1662" d="m194.64 2788.5h284.84"/>
  <path id="path1664" d="m194.41 2788.8h285.18"/>
  <path id="path1666" d="m194.17 2789h285.53"/>
  <path id="path1668" d="m193.93 2789.3h285.87"/>
  <path id="path1670" d="m193.7 2789.6h286.21"/>
  <path id="path1672" d="m193.46 2789.8h286.56"/>
  <path id="path1674" d="m193.22 2790.1h286.9"/>
  <path id="path1676" d="m192.98 2790.4h287.24"/>
  <path id="path1678" d="m192.75 2790.6h287.59"/>
  <path id="path1680" d="m192.51 2790.9h287.93"/>
  <path id="path1682" d="m192.27 2791.2h288.28"/>
  <path id="path1684" d="m192.04 2791.5h288.62"/>
  <path id="path1686" d="m191.8 2791.7h288.96"/>
  <path id="path1688" d="m191.56 2792h289.31"/>
  <path id="path1690" d="m191.32 2792.3h289.65"/>
  <path id="path1692" d="m191.09 2792.5h289.99"/>
  <path id="path1694" d="m190.85 2792.8h290.34"/>
  <path id="path1696" d="m190.61 2793.1h290.68"/>
  <path id="path1698" d="m190.38 2793.3h291.02"/>
  <path id="path1700" d="m190.14 2793.6h291.37"/>
  <path id="path1702" d="m189.9 2793.9h291.71"/>
  <path id="path1704" d="m189.66 2794.2h292.06"/>
  <path id="path1706" d="m189.43 2794.4h292.4"/>
  <path id="path1708" d="m189.19 2794.7h292.74"/>
  <path id="path1710" d="m188.95 2795h293.08"/>
  <path id="path1712" d="m188.71 2795.2h293.43"/>
  <path id="path1714" d="m188.48 2795.5h293.77"/>
  <path id="path1716" d="m188.24 2795.8h294.12"/>
  <path id="path1718" d="m188 2796h294.46"/>
  <path id="path1720" d="m187.76 2796.3h294.8"/>
  <path id="path1722" d="m187.53 2796.6h295.15"/>
  <path id="path1724" d="m187.29 2796.9h295.49"/>
  <path id="path1726" d="m187.05 2797.1h295.84"/>
  <path id="path1728" d="m186.82 2797.4h296.18"/>
  <path id="path1730" d="m186.58 2797.7h296.52"/>
  <path id="path1732" d="m186.34 2797.9h296.86"/>
  <path id="path1734" d="m186.1 2798.2h297.21"/>
  <path id="path1736" d="m185.87 2798.5h297.55"/>
  <path id="path1738" d="m185.63 2798.7h297.9"/>
  <path id="path1740" d="m185.39 2799h298.24"/>
  <path id="path1742" d="m185.16 2799.3h298.58"/>
  <path id="path1744" d="m184.92 2799.6h298.93"/>
  <path id="path1746" d="m184.68 2799.8h299.27"/>
  <path id="path1748" d="m184.44 2800.1h299.61"/>
  <path id="path1750" d="m184.21 2800.4h299.96"/>
  <path id="path1752" d="m183.97 2800.6h300.3"/>
  <path id="path1754" d="m183.73 2800.9h300.64"/>
  <path id="path1756" d="m183.5 2801.2h300.99"/>
  <path id="path1758" d="m183.26 2801.4h301.33"/>
  <path id="path1760" d="m183.02 2801.7h301.68"/>
  <path id="path1762" d="m182.78 2802h302.02"/>
  <path id="path1764" d="m182.55 2802.2h302.36"/>
  <path id="path1766" d="m182.31 2802.5h302.71"/>
  <path id="path1768" d="m182.07 2802.8h303.05"/>
  <path id="path1770" d="m181.83 2803.1h303.39"/>
  <path id="path1772" d="m181.6 2803.3h303.74"/>
  <path id="path1774" d="m181.36 2803.6h304.08"/>
  <path id="path1776" d="m181.12 2803.9h304.42"/>
  <path id="path1778" d="m180.88 2804.1h304.77"/>
  <path id="path1780" d="m180.65 2804.4h305.11"/>
  <path id="path1782" d="m180.41 2804.7h305.45"/>
  <path id="path1784" d="m180.17 2805h305.8"/>
  <path id="path1786" d="m179.94 2805.2h306.14"/>
  <path id="path1788" d="m179.7 2805.5h306.48"/>
  <path id="path1790" d="m179.46 2805.8h306.83"/>
  <path id="path1792" d="m179.22 2806h307.17"/>
  <path id="path1794" d="m178.99 2806.3h307.52"/>
  <path id="path1796" d="m178.75 2806.6h307.86"/>
  <path id="path1798" d="m178.51 2806.8h308.2"/>
  <path id="path1800" d="m178.28 2807.1h308.55"/>
  <path id="path1802" d="m178.04 2807.4h308.89"/>
  <path id="path1804" d="m177.8 2807.6h309.23"/>
  <path id="path1806" d="m177.56 2807.9h309.58"/>
  <path id="path1808" d="m177.33 2808.2h309.92"/>
  <path id="path1810" d="m177.09 2808.5h310.26"/>
  <path id="path1812" d="m176.85 2808.7h310.61"/>
  <path id="path1814" d="m176.62 2809h310.95"/>
  <path id="path1816" d="m176.38 2809.3h311.3"/>
  <path id="path1818" d="m176.14 2809.5h311.64"/>
  <path id="path1820" d="m175.9 2809.8h311.98"/>
  <path id="path1822" d="m175.67 2810.1h312.33"/>
  <path id="path1824" d="m175.43 2810.3h312.67"/>
  <path id="path1826" d="m175.19 2810.6h313.01"/>
  <path id="path1828" d="m174.95 2810.9h313.36"/>
  <path id="path1830" d="m174.72 2811.2h313.7"/>
  <path id="path1832" d="m174.48 2811.4h314.04"/>
  <path id="path1834" d="m174.24 2811.7h314.39"/>
  <path id="path1836" d="m174 2812h314.73"/>
  <path id="path1838" d="m173.77 2812.2h315.08"/>
  <path id="path1840" d="m173.53 2812.5h315.42"/>
  <path id="path1842" d="m173.29 2812.8h315.76"/>
  <path id="path1844" d="m173.06 2813h316.11"/>
  <path id="path1846" d="m172.82 2813.3h316.45"/>
  <path id="path1848" d="m172.58 2813.6h316.79"/>
  <path id="path1850" d="m172.34 2813.9h317.14"/>
  <path id="path1852" d="m172.11 2814.1h317.48"/>
  <path id="path1854" d="m171.87 2814.4h317.82"/>
  <path id="path1856" d="m171.63 2814.7h318.17"/>
  <path id="path1858" d="m171.4 2814.9h318.51"/>
  <path id="path1860" d="m171.16 2815.2h318.86"/>
  <path id="path1862" d="m170.92 2815.5h319.2"/>
  <path id="path1864" d="m170.68 2815.7h319.54"/>
  <path id="path1866" d="m170.45 2816h319.89"/>
  <path id="path1868" d="m170.21 2816.3h320.23"/>
  <path id="path1870" d="m169.97 2816.6h320.57"/>
  <path id="path1872" d="m169.74 2816.8h320.92"/>
  <path id="path1874" d="m169.5 2817.1h321.26"/>
  <path id="path1876" d="m169.26 2817.4h321.6"/>
  <path id="path1878" d="m169.02 2817.6h321.95"/>
  <path id="path1880" d="m168.79 2817.9h322.29"/>
  <path id="path1882" d="m168.55 2818.2h322.63"/>
  <path id="path1884" d="m168.31 2818.4h322.98"/>
  <path id="path1886" d="m168.07 2818.7h323.32"/>
  <path id="path1888" d="m167.84 2819h323.66"/>
  <path id="path1890" d="m167.6 2819.3h324.01"/>
  <path id="path1892" d="m167.36 2819.5h324.35"/>
  <path id="path1894" d="m167.12 2819.8h324.7"/>
  <path id="path1896" d="m166.89 2820.1h325.04"/>
  <path id="path1898" d="m166.65 2820.3h325.38"/>
  <path id="path1900" d="m166.41 2820.6h325.73"/>
  <path id="path1902" d="m166.18 2820.9h326.07"/>
  <path id="path1904" d="m165.94 2821.1h326.41"/>
  <path id="path1906" d="m165.7 2821.4h326.76"/>
  <path id="path1908" d="m165.46 2821.7h327.1"/>
  <path id="path1910" d="m165.23 2822h327.44"/>
  <path id="path1912" d="m164.99 2822.2h327.79"/>
  <path id="path1914" d="m164.75 2822.5h328.13"/>
  <path id="path1916" d="m164.52 2822.8h328.48"/>
  <path id="path1918" d="m164.28 2823h328.82"/>
  <path id="path1920" d="m164.04 2823.3h329.16"/>
  <path id="path1922" d="m163.8 2823.6h329.51"/>
  <path id="path1924" d="m163.57 2823.8h329.85"/>
  <path id="path1926" d="m163.33 2824.1h330.19"/>
  <path id="path1928" d="m163.09 2824.4h330.54"/>
  <path id="path1930" d="m162.86 2824.7h330.88"/>
  <path id="path1932" d="m162.62 2824.9h331.22"/>
  <path id="path1934" d="m162.38 2825.2h331.57"/>
  <path id="path1936" d="m162.14 2825.5h331.91"/>
  <path id="path1938" d="m161.91 2825.7h332.26"/>
  <path id="path1940" d="m161.67 2826h332.6"/>
  <path id="path1942" d="m161.43 2826.3h332.94"/>
  <path id="path1944" d="m161.19 2826.5h333.29"/>
  <path id="path1946" d="m160.96 2826.8h333.63"/>
  <path id="path1948" d="m160.72 2827.1h333.97"/>
  <path id="path1950" d="m160.48 2827.4h334.32"/>
  <path id="path1952" d="m160.24 2827.6h334.66"/>
  <path id="path1954" d="m160.01 2827.9h335"/>
  <path id="path1956" d="m159.77 2828.2h335.35"/>
  <path id="path1958" d="m159.53 2828.4h335.69"/>
  <path id="path1960" d="m159.3 2828.7h336.03"/>
  <path id="path1962" d="m159.06 2829h336.38"/>
  <path id="path1964" d="m158.82 2829.2h336.72"/>
  <path id="path1966" d="m158.58 2829.5h337.07"/>
  <path id="path1968" d="m158.35 2829.8h337.41"/>
  <path id="path1970" d="m158.11 2830.1h337.75"/>
  <path id="path1972" d="m157.87 2830.3h338.1"/>
  <path id="path1974" d="m157.64 2830.6h338.44"/>
  <path id="path1976" d="m157.4 2830.9h338.78"/>
  <path id="path1978" d="m157.16 2831.1h339.13"/>
  <path id="path1980" d="m156.92 2831.4h339.47"/>
  <path id="path1982" d="m156.69 2831.7h339.81"/>
  <path id="path1984" d="m156.45 2831.9h340.16"/>
  <path id="path1986" d="m156.21 2832.2h340.5"/>
  <path id="path1988" d="m155.98 2832.5h340.84"/>
  <path id="path1990" d="m155.74 2832.8h341.19"/>
  <path id="path1992" d="m155.5 2833h341.53"/>
  <path id="path1994" d="m155.26 2833.3h341.88"/>
  <path id="path1996" d="m155.03 2833.6h342.22"/>
  <path id="path1998" d="m154.79 2833.8h342.56"/>
  <path id="path2000" d="m154.55 2834.1h342.91"/>
  <path id="path2002" d="m154.31 2834.4h343.25"/>
  <path id="path2004" d="m154.08 2834.6h343.59"/>
  <path id="path2006" d="m153.84 2834.9h343.94"/>
  <path id="path2008" d="m153.6 2835.2h344.28"/>
  <path id="path2010" d="m153.36 2835.5h344.62"/>
  <path id="path2012" d="m153.13 2835.7h344.97"/>
  <path id="path2014" d="m152.89 2836h345.31"/>
  <path id="path2016" d="m152.65 2836.3h345.66"/>
  <path id="path2018" d="m152.42 2836.5h346"/>
  <path id="path2020" d="m152.18 2836.8h346.34"/>
  <path id="path2022" d="m151.94 2837.1h346.69"/>
  <path id="path2024" d="m151.7 2837.3h347.03"/>
  <path id="path2026" d="m151.47 2837.6h347.37"/>
  <path id="path2028" d="m151.23 2837.9h347.72"/>
  <path id="path2030" d="m150.99 2838.2h348.06"/>
  <path id="path2032" d="m150.76 2838.4h348.4"/>
  <path id="path2034" d="m150.52 2838.7h348.75"/>
  <path id="path2036" d="m150.28 2839h349.09"/>
  <path id="path2038" d="m150.04 2839.2h349.43"/>
  <path id="path2040" d="m149.81 2839.5h349.78"/>
  <path id="path2042" d="m149.57 2839.8h350.12"/>
  <path id="path2044" d="m149.33 2840h350.46"/>
  <path id="path2046" d="m149.1 2840.3h350.81"/>
  <path id="path2048" d="m148.86 2840.6h351.15"/>
  <path id="path2050" d="m148.62 2840.9h351.5"/>
  <path id="path2052" d="m148.38 2841.1h351.84"/>
  <path id="path2054" d="m148.15 2841.4h352.18"/>
  <path id="path2056" d="m147.91 2841.7h352.53"/>
  <path id="path2058" d="m147.67 2841.9h352.87"/>
  <path id="path2060" d="m147.43 2842.2h353.21"/>
  <path id="path2062" d="m147.2 2842.5h353.56"/>
  <path id="path2064" d="m146.96 2842.7h353.9"/>
  <path id="path2066" d="m146.72 2843h354.24"/>
  <path id="path2068" d="m146.48 2843.3h354.59"/>
  <path id="path2070" d="m146.25 2843.6h354.93"/>
  <path id="path2072" d="m146.01 2843.8h355.28"/>
  <path id="path2074" d="m145.77 2844.1h355.62"/>
  <path id="path2076" d="m145.54 2844.4h355.96"/>
  <path id="path2078" d="m145.3 2844.6h356.31"/>
  <path id="path2080" d="m145.06 2844.9h356.65"/>
  <path id="path2082" d="m144.82 2845.2h356.99"/>
  <path id="path2084" d="m144.59 2845.4h357.34"/>
  <path id="path2086" d="m144.35 2845.7h357.68"/>
  <path id="path2088" d="m144.11 2846h358.02"/>
  <path id="path2090" d="m143.88 2846.3h358.37"/>
  <path id="path2092" d="m143.64 2846.5h358.71"/>
  <path id="path2094" d="m143.4 2846.8h359.06"/>
  <path id="path2096" d="m143.16 2847.1h359.4"/>
  <path id="path2098" d="m142.93 2847.3h359.74"/>
  <path id="path2100" d="m142.69 2847.6h360.09"/>
  <path id="path2102" d="m142.45 2847.9h360.43"/>
  <path id="path2104" d="m142.22 2848.1h360.77"/>
  <path id="path2106" d="m141.98 2848.4h361.12"/>
  <path id="path2108" d="m141.74 2848.7h361.46"/>
  <path id="path2110" d="m141.5 2849h361.8"/>
  <path id="path2112" d="m141.27 2849.2h362.15"/>
  <path id="path2114" d="m141.03 2849.5h362.49"/>
  <path id="path2116" d="m140.79 2849.8h362.84"/>
  <path id="path2118" d="m140.55 2850h363.18"/>
  <path id="path2120" d="m140.32 2850.3h363.52"/>
  <path id="path2122" d="m140.08 2850.6h363.86"/>
  <path id="path2124" d="m139.84 2850.8h364.21"/>
  <path id="path2126" d="m139.6 2851.1h364.55"/>
  <path id="path2128" d="m139.37 2851.4h364.9"/>
  <path id="path2130" d="m139.13 2851.7h365.24"/>
  <path id="path2132" d="m138.89 2851.9h365.58"/>
  <path id="path2134" d="m138.66 2852.2h365.93"/>
  <path id="path2136" d="m138.42 2852.5h366.27"/>
  <path id="path2138" d="m138.18 2852.7h366.62"/>
  <path id="path2140" d="m137.94 2853h366.96"/>
  <path id="path2142" d="m137.71 2853.3h367.3"/>
  <path id="path2144" d="m137.47 2853.5h367.64"/>
  <path id="path2146" d="m137.23 2853.8h367.99"/>
  <path id="path2148" d="m137 2854.1h368.33"/>
  <path id="path2150" d="m136.76 2854.4h368.68"/>
  <path id="path2152" d="m136.52 2854.6h369.02"/>
  <path id="path2154" d="m136.28 2854.9h369.36"/>
  <path id="path2156" d="m136.05 2855.2h369.71"/>
  <path id="path2158" d="m135.81 2855.4h370.05"/>
  <path id="path2160" d="m135.57 2855.7h370.39"/>
  <path id="path2162" d="m135.34 2856h370.74"/>
  <path id="path2164" d="m135.1 2856.2h371.08"/>
  <path id="path2166" d="m134.86 2856.5h371.42"/>
  <path id="path2168" d="m134.62 2856.8h371.77"/>
  <path id="path2170" d="m134.39 2857.1h372.11"/>
  <path id="path2172" d="m134.15 2857.3h372.46"/>
  <path id="path2174" d="m133.91 2857.6h372.8"/>
  <path id="path2176" d="m133.67 2857.9h373.14"/>
  <path id="path2178" d="m133.44 2858.1h373.49"/>
  <path id="path2180" d="m133.2 2858.4h373.83"/>
  <path id="path2182" d="m132.96 2858.7h374.17"/>
  <path id="path2184" d="m132.72 2858.9h374.52"/>
  <path id="path2186" d="m132.49 2859.2h374.86"/>
  <path id="path2188" d="m132.25 2859.5h375.2"/>
  <path id="path2190" d="m132.01 2859.8h375.55"/>
  <path id="path2192" d="m131.78 2860h375.89"/>
  <path id="path2194" d="m131.54 2860.3h376.24"/>
  <path id="path2196" d="m131.3 2860.6h376.58"/>
  <path id="path2198" d="m131.06 2860.8h376.92"/>
  <path id="path2200" d="m130.83 2861.1h377.27"/>
  <path id="path2202" d="m130.59 2861.4h377.61"/>
  <path id="path2204" d="m130.35 2861.6h377.95"/>
  <path id="path2206" d="m130.12 2861.9h378.3"/>
  <path id="path2208" d="m129.88 2862.2h378.64"/>
  <path id="path2210" d="m129.64 2862.5h378.98"/>
  <path id="path2212" d="m129.4 2862.7h379.33"/>
  <path id="path2214" d="m129.17 2863h379.67"/>
  <path id="path2216" d="m128.93 2863.3h380.01"/>
  <path id="path2218" d="m128.69 2863.5h380.36"/>
  <path id="path2220" d="m128.45 2863.8h380.7"/>
  <path id="path2222" d="m128.22 2864.1h381.04"/>
  <path id="path2224" d="m127.98 2864.3h381.39"/>
  <path id="path2226" d="m127.74 2864.6h381.73"/>
  <path id="path2228" d="m127.51 2864.9h382.08"/>
  <path id="path2230" d="m127.27 2865.2h382.42"/>
  <path id="path2232" d="m127.03 2865.4h382.76"/>
  <path id="path2234" d="m126.79 2865.7h383.11"/>
  <path id="path2236" d="m126.56 2866h383.45"/>
  <path id="path2238" d="m126.32 2866.2h383.79"/>
  <path id="path2240" d="m126.08 2866.5h384.14"/>
  <path id="path2242" d="m125.84 2866.8h384.48"/>
  <path id="path2244" d="m125.61 2867h384.82"/>
  <path id="path2246" d="m125.37 2867.3h385.17"/>
  <path id="path2248" d="m125.13 2867.6h385.51"/>
  <path id="path2250" d="m124.9 2867.9h385.86"/>
  <path id="path2252" d="m124.66 2868.1h386.2"/>
  <path id="path2254" d="m124.42 2868.4h386.54"/>
  <path id="path2256" d="m124.18 2868.7h386.89"/>
  <path id="path2258" d="m123.95 2868.9h387.23"/>
  <path id="path2260" d="m123.71 2869.2h387.57"/>
  <path id="path2262" d="m123.47 2869.5h387.92"/>
  <path id="path2264" d="m123.24 2869.7h388.26"/>
  <path id="path2266" d="m123 2870h388.6"/>
  <path id="path2268" d="m122.76 2870.3h388.95"/>
  <path id="path2270" d="m122.52 2870.6h389.29"/>
  <path id="path2272" d="m122.29 2870.8h389.64"/>
  <path id="path2274" d="m122.05 2871.1h389.98"/>
  <path id="path2276" d="m121.81 2871.4h390.32"/>
  <path id="path2278" d="m121.57 2871.6h390.67"/>
  <path id="path2280" d="m121.34 2871.9h391.01"/>
  <path id="path2282" d="m121.1 2872.2h391.35"/>
  <path id="path2284" d="m120.86 2872.4h391.7"/>
  <path id="path2286" d="m120.63 2872.7h392.04"/>
  <path id="path2288" d="m120.39 2873h392.38"/>
  <path id="path2290" d="m120.15 2873.3h392.73"/>
  <path id="path2292" d="m119.91 2873.5h393.07"/>
  <path id="path2294" d="m119.68 2873.8h393.41"/>
  <path id="path2296" d="m119.44 2874.1h393.76"/>
  <path id="path2298" d="m119.2 2874.3h394.1"/>
  <path id="path2300" d="m118.96 2874.6h394.44"/>
  <path id="path2302" d="m118.73 2874.9h394.79"/>
  <path id="path2304" d="m118.49 2875.1h395.13"/>
  <path id="path2306" d="m118.25 2875.4h395.48"/>
  <path id="path2308" d="m118.02 2875.7h395.82"/>
  <path id="path2310" d="m117.78 2876h396.16"/>
  <path id="path2312" d="m117.54 2876.2h396.51"/>
  <path id="path2314" d="m117.3 2876.5h396.85"/>
  <path id="path2316" d="m117.07 2876.8h397.19"/>
  <path id="path2318" d="m116.83 2877h397.54"/>
  <path id="path2320" d="m116.59 2877.3h397.88"/>
  <path id="path2322" d="m116.36 2877.6h398.22"/>
  <path id="path2324" d="m116.12 2877.8h398.57"/>
  <path id="path2326" d="m115.88 2878.1h398.91"/>
  <path id="path2328" d="m115.64 2878.4h399.26"/>
  <path id="path2330" d="m115.41 2878.7h399.6"/>
  <path id="path2332" d="m115.17 2878.9h399.94"/>
  <path id="path2334" d="m114.93 2879.2h400.29"/>
  <path id="path2336" d="m114.69 2879.5h400.63"/>
  <path id="path2338" d="m114.46 2879.7h400.97"/>
  <path id="path2340" d="m114.22 2880h401.32"/>
  <path id="path2342" d="m113.98 2880.3h401.66"/>
  <path id="path2344" d="m113.74 2880.5h402"/>
  <path id="path2346" d="m113.51 2880.8h402.35"/>
  <path id="path2348" d="m113.27 2881.1h402.69"/>
  <path id="path2350" d="m113.03 2881.4h403.04"/>
  <path id="path2352" d="m112.8 2881.6h403.38"/>
  <path id="path2354" d="m112.56 2881.9h403.72"/>
  <path id="path2356" d="m112.32 2882.2h404.07"/>
  <path id="path2358" d="m112.08 2882.4h404.41"/>
  <path id="path2360" d="m111.85 2882.7h404.75"/>
  <path id="path2362" d="m111.61 2883h405.1"/>
  <path id="path2364" d="m111.37 2883.2h405.44"/>
  <path id="path2366" d="m111.14 2883.5h405.78"/>
  <path id="path2368" d="m110.9 2883.8h406.13"/>
  <path id="path2370" d="m110.66 2884h406.47"/>
  <path id="path2372" d="m110.42 2884.3h406.82"/>
  <path id="path2374" d="m110.19 2884.6h407.16"/>
  <path id="path2376" d="m109.95 2884.9h407.5"/>
  <path id="path2378" d="m109.71 2885.1h407.85"/>
  <path id="path2380" d="m109.48 2885.4h408.19"/>
  <path id="path2382" d="m109.24 2885.7h408.53"/>
  <path id="path2384" d="m109 2885.9h408.88"/>
  <path id="path2386" d="m108.76 2886.2h409.22"/>
  <path id="path2388" d="m108.53 2886.5h409.56"/>
  <path id="path2390" d="m108.29 2886.8h409.91"/>
  <path id="path2392" d="m108.05 2887h410.25"/>
  <path id="path2394" d="m107.81 2887.3h410.6"/>
  <path id="path2396" d="m107.58 2887.6h410.94"/>
  <path id="path2398" d="m107.34 2887.8h411.28"/>
  <path id="path2400" d="m107.1 2888.1h411.62"/>
  <path id="path2402" d="m106.86 2888.4h411.97"/>
  <path id="path2404" d="m106.63 2888.6h412.31"/>
  <path id="path2406" d="m106.39 2888.9h412.66"/>
  <path id="path2408" d="m106.15 2889.2h413"/>
  <path id="path2410" d="m105.92 2889.4h413.34"/>
  <path id="path2412" d="m105.68 2889.7h413.69"/>
  <path id="path2414" d="m105.44 2890h414.03"/>
  <path id="path2416" d="m105.2 2890.3h414.37"/>
  <path id="path2418" d="m104.97 2890.5h414.72"/>
  <path id="path2420" d="m104.73 2890.8h415.06"/>
  <path id="path2422" d="m104.49 2891.1h415.4"/>
  <path id="path2424" d="m104.26 2891.3h415.75"/>
  <path id="path2426" d="m104.02 2891.6h416.09"/>
  <path id="path2428" d="m103.78 2891.9h416.44"/>
  <path id="path2430" d="m103.54 2892.1h416.78"/>
  <path id="path2432" d="m103.31 2892.4h417.12"/>
  <path id="path2434" d="m103.07 2892.7h417.47"/>
  <path id="path2436" d="m102.83 2893h417.81"/>
  <path id="path2438" d="m102.6 2893.2h418.15"/>
  <path id="path2440" d="m102.36 2893.5h418.5"/>
  <path id="path2442" d="m102.12 2893.8h418.84"/>
  <path id="path2444" d="m101.88 2894h419.18"/>
  <path id="path2446" d="m101.65 2894.3h419.53"/>
  <path id="path2448" d="m101.41 2894.6h419.87"/>
  <path id="path2450" d="m101.17 2894.8h420.22"/>
  <path id="path2452" d="m100.93 2895.1h420.56"/>
  <path id="path2454" d="m100.7 2895.4h420.9"/>
  <path id="path2456" d="m100.46 2895.7h421.25"/>
  <path id="path2458" d="m100.22 2895.9h421.59"/>
  <path id="path2460" d="m99.985 2896.2h421.93"/>
  <path id="path2462" d="m99.748 2896.5h422.28"/>
  <path id="path2464" d="m99.511 2896.7h422.62"/>
  <path id="path2466" d="m99.274 2897h422.96"/>
  <path id="path2468" d="m99.036 2897.3h423.31"/>
  <path id="path2470" d="m98.799 2897.5h423.65"/>
  <path id="path2472" d="m98.562 2897.8h423.99"/>
  <path id="path2474" d="m98.325 2898.1h424.34"/>
  <path id="path2476" d="m98.087 2898.4h424.68"/>
  <path id="path2478" d="m97.85 2898.6h425.02"/>
  <path id="path2480" d="m97.613 2898.9h425.37"/>
  <path id="path2482" d="m97.376 2899.2h425.71"/>
  <path id="path2484" d="m97.138 2899.4h426.06"/>
  <path id="path2486" d="m96.901 2899.7h426.4"/>
  <path id="path2488" d="m96.664 2900h426.74"/>
  <path id="path2490" d="m96.427 2900.2h427.09"/>
  <path id="path2492" d="m96.19 2900.5h427.43"/>
  <path id="path2494" d="m95.952 2900.8h427.77"/>
  <path id="path2496" d="m95.715 2901.1h428.12"/>
  <path id="path2498" d="m95.478 2901.3h428.46"/>
  <path id="path2500" d="m95.241 2901.6h428.8"/>
  <path id="path2502" d="m95.003 2901.9h429.15"/>
  <path id="path2504" d="m94.766 2902.1h429.49"/>
  <path id="path2506" d="m94.529 2902.4h429.84"/>
  <path id="path2508" d="m94.291 2902.7h430.18"/>
  <path id="path2510" d="m94.054 2902.9h430.52"/>
  <path id="path2512" d="m93.817 2903.2h430.87"/>
  <path id="path2514" d="m93.58 2903.5h431.21"/>
  <path id="path2516" d="m93.343 2903.8h431.55"/>
  <path id="path2518" d="m93.105 2904h431.9"/>
  <path id="path2520" d="m92.868 2904.3h432.24"/>
  <path id="path2522" d="m92.631 2904.6h432.58"/>
  <path id="path2524" d="m92.394 2904.8h432.93"/>
  <path id="path2526" d="m92.156 2905.1h433.27"/>
  <path id="path2528" d="m91.919 2905.4h433.62"/>
  <path id="path2530" d="m91.682 2905.6h433.96"/>
  <path id="path2532" d="m91.445 2905.9h434.3"/>
  <path id="path2534" d="m91.207 2906.2h434.65"/>
  <path id="path2536" d="m90.97 2906.5h434.99"/>
  <path id="path2538" d="m90.733 2906.7h435.33"/>
  <path id="path2540" d="m90.496 2907h435.68"/>
  <path id="path2542" d="m90.258 2907.3h436.02"/>
  <path id="path2544" d="m90.021 2907.5h436.36"/>
  <path id="path2546" d="m89.784 2907.8h436.71"/>
  <path id="path2548" d="m89.547 2908.1h437.05"/>
  <path id="path2550" d="m89.309 2908.3h437.4"/>
  <path id="path2552" d="m89.072 2908.6h437.74"/>
  <path id="path2554" d="m88.835 2908.9h438.08"/>
  <path id="path2556" d="m88.598 2909.2h438.42"/>
  <path id="path2558" d="m88.361 2909.4h438.77"/>
  <path id="path2560" d="m88.123 2909.7h439.11"/>
  <path id="path2562" d="m87.886 2910h439.46"/>
  <path id="path2564" d="m87.649 2910.2h439.8"/>
  <path id="path2566" d="m87.411 2910.5h440.14"/>
  <path id="path2568" d="m87.174 2910.8h440.49"/>
  <path id="path2570" d="m86.937 2911h440.83"/>
  <path id="path2572" d="m86.7 2911.3h441.17"/>
  <path id="path2574" d="m86.463 2911.6h441.52"/>
  <path id="path2576" d="m86.225 2911.9h441.86"/>
  <path id="path2578" d="m85.988 2912.1h442.2"/>
  <path id="path2580" d="m85.751 2912.4h442.55"/>
  <path id="path2582" d="m85.514 2912.7h442.89"/>
  <path id="path2584" d="m85.276 2912.9h443.24"/>
  <path id="path2586" d="m85.039 2913.2h443.58"/>
  <path id="path2588" d="m84.802 2913.5h443.92"/>
  <path id="path2590" d="m84.564 2913.7h444.27"/>
  <path id="path2592" d="m84.327 2914h444.61"/>
  <path id="path2594" d="m84.09 2914.3h444.95"/>
  <path id="path2596" d="m83.853 2914.6h445.3"/>
  <path id="path2598" d="m83.616 2914.8h445.64"/>
  <path id="path2600" d="m83.378 2915.1h445.98"/>
  <path id="path2602" d="m83.141 2915.4h446.33"/>
  <path id="path2604" d="m82.904 2915.6h446.67"/>
  <path id="path2606" d="m82.667 2915.9h447.02"/>
  <path id="path2608" d="m82.429 2916.2h447.36"/>
  <path id="path2610" d="m82.192 2916.4h447.7"/>
  <path id="path2612" d="m81.955 2916.7h448.05"/>
  <path id="path2614" d="m81.718 2917h448.39"/>
  <path id="path2616" d="m81.481 2917.3h448.73"/>
  <path id="path2618" d="m81.243 2917.5h449.08"/>
  <path id="path2620" d="m81.006 2917.8h449.42"/>
  <path id="path2622" d="m80.769 2918.1h449.76"/>
  <path id="path2624" d="m80.531 2918.3h450.11"/>
  <path id="path2626" d="m80.294 2918.6h450.45"/>
  <path id="path2628" d="m80.057 2918.9h450.79"/>
  <path id="path2630" d="m79.82 2919.1h451.14"/>
  <path id="path2632" d="m79.582 2919.4h451.48"/>
  <path id="path2634" d="m79.345 2919.7h451.82"/>
  <path id="path2636" d="m79.108 2920h452.17"/>
  <path id="path2638" d="m78.871 2920.2h452.51"/>
  <path id="path2640" d="m78.634 2920.5h452.86"/>
  <path id="path2642" d="m78.396 2920.8h453.2"/>
  <path id="path2644" d="m78.159 2921h453.54"/>
  <path id="path2646" d="m77.922 2921.3h453.89"/>
  <path id="path2648" d="m77.684 2921.6h454.23"/>
  <path id="path2650" d="m77.447 2921.8h454.57"/>
  <path id="path2652" d="m77.21 2922.1h454.92"/>
  <path id="path2654" d="m76.973 2922.4h455.26"/>
  <path id="path2656" d="m76.736 2922.7h455.6"/>
  <path id="path2658" d="m76.498 2922.9h455.95"/>
  <path id="path2660" d="m76.261 2923.2h456.29"/>
  <path id="path2662" d="m76.024 2923.5h456.64"/>
  <path id="path2664" d="m75.787 2923.7h456.98"/>
  <path id="path2666" d="m75.549 2924h457.32"/>
  <path id="path2668" d="m75.312 2924.3h457.67"/>
  <path id="path2670" d="m75.075 2924.5h458.01"/>
  <path id="path2672" d="m74.837 2924.8h458.35"/>
  <path id="path2674" d="m74.6 2925.1h458.7"/>
  <path id="path2676" d="m74.363 2925.4h459.04"/>
  <path id="path2678" d="m74.126 2925.6h459.38"/>
  <path id="path2680" d="m73.889 2925.9h459.73"/>
  <path id="path2682" d="m73.651 2926.2h460.07"/>
  <path id="path2684" d="m73.414 2926.4h460.42"/>
  <path id="path2686" d="m73.177 2926.7h460.76"/>
  <path id="path2688" d="m72.94 2927h461.1"/>
  <path id="path2690" d="m72.702 2927.2h461.45"/>
  <path id="path2692" d="m72.465 2927.5h461.79"/>
  <path id="path2694" d="m72.228 2927.8h462.13"/>
  <path id="path2696" d="m71.991 2928.1h462.48"/>
  <path id="path2698" d="m71.754 2928.3h462.82"/>
  <path id="path2700" d="m71.516 2928.6h463.16"/>
  <path id="path2702" d="m71.279 2928.9h463.51"/>
  <path id="path2704" d="m71.042 2929.1h463.85"/>
  <path id="path2706" d="m70.804 2929.4h464.2"/>
  <path id="path2708" d="m70.567 2929.7h464.54"/>
  <path id="path2710" d="m70.33 2929.9h464.88"/>
  <path id="path2712" d="m70.093 2930.2h465.22"/>
  <path id="path2714" d="m69.855 2930.5h465.57"/>
  <path id="path2716" d="m69.618 2930.8h465.91"/>
  <path id="path2718" d="m69.381 2931h466.26"/>
  <path id="path2720" d="m69.144 2931.3h466.6"/>
  <path id="path2722" d="m68.907 2931.6h466.94"/>
  <path id="path2724" d="m68.669 2931.8h467.29"/>
  <path id="path2726" d="m68.432 2932.1h467.63"/>
  <path id="path2728" d="m68.195 2932.4h467.97"/>
  <path id="path2730" d="m67.958 2932.6h468.32"/>
  <path id="path2732" d="m67.72 2932.9h468.66"/>
  <path id="path2734" d="m67.483 2933.2h469"/>
  <path id="path2736" d="m67.246 2933.5h469.35"/>
  <path id="path2738" d="m67.009 2933.7h469.69"/>
  <path id="path2740" d="m66.771 2934h470.04"/>
  <path id="path2742" d="m66.534 2934.3h470.38"/>
  <path id="path2744" d="m66.297 2934.5h470.72"/>
  <path id="path2746" d="m66.06 2934.8h471.07"/>
  <path id="path2748" d="m65.822 2935.1h471.41"/>
  <path id="path2750" d="m65.585 2935.3h471.75"/>
  <path id="path2752" d="m65.348 2935.6h472.1"/>
  <path id="path2754" d="m65.111 2935.9h472.44"/>
  <path id="path2756" d="m64.873 2936.2h472.78"/>
  <path id="path2758" d="m64.636 2936.4h473.13"/>
  <path id="path2760" d="m64.399 2936.7h473.47"/>
  <path id="path2762" d="m64.162 2937h473.82"/>
  <path id="path2764" d="m63.924 2937.2h474.16"/>
  <path id="path2766" d="m63.687 2937.5h474.5"/>
  <path id="path2768" d="m63.45 2937.8h474.85"/>
  <path id="path2770" d="m63.213 2938h475.19"/>
  <path id="path2772" d="m62.975 2938.3h475.53"/>
  <path id="path2774" d="m62.738 2938.6h475.88"/>
  <path id="path2776" d="m62.501 2938.9h476.22"/>
  <path id="path2778" d="m62.264 2939.1h476.56"/>
  <path id="path2780" d="m62.027 2939.4h476.91"/>
  <path id="path2782" d="m61.789 2939.7h477.25"/>
  <path id="path2784" d="m61.552 2939.9h477.6"/>
  <path id="path2786" d="m61.315 2940.2h477.94"/>
  <path id="path2788" d="m61.078 2940.5h478.28"/>
  <path id="path2790" d="m60.84 2940.7h478.63"/>
  <path id="path2792" d="m60.603 2941h478.97"/>
  <path id="path2794" d="m60.366 2941.3h479.31"/>
  <path id="path2796" d="m60.128 2941.6h479.66"/>
  <path id="path2798" d="m59.891 2941.8h480"/>
  <path id="path2800" d="m59.654 2942.1h480.34"/>
  <path id="path2802" d="m59.417 2942.4h480.69"/>
  <path id="path2804" d="m59.18 2942.6h481.03"/>
  <path id="path2806" d="m58.942 2942.9h481.38"/>
  <path id="path2808" d="m58.705 2943.2h481.72"/>
  <path id="path2810" d="m58.468 2943.4h482.06"/>
  <path id="path2812" d="m58.231 2943.7h482.4"/>
  <path id="path2814" d="m57.993 2944h482.75"/>
  <path id="path2816" d="m57.756 2944.3h483.09"/>
  <path id="path2818" d="m57.519 2944.5h483.44"/>
  <path id="path2820" d="m57.282 2944.8h483.78"/>
  <path id="path2822" d="m57.044 2945.1h484.12"/>
  <path id="path2824" d="m56.807 2945.3h484.47"/>
  <path id="path2826" d="m56.57 2945.6h484.81"/>
  <path id="path2828" d="m56.333 2945.9h485.15"/>
  <path id="path2830" d="m56.095 2946.1h485.5"/>
  <path id="path2832" d="m55.858 2946.4h485.84"/>
  <path id="path2834" d="m55.621 2946.7h486.18"/>
  <path id="path2836" d="m55.384 2947h486.53"/>
  <path id="path2838" d="m55.146 2947.2h486.87"/>
  <path id="path2840" d="m54.909 2947.5h487.22"/>
  <path id="path2842" d="m54.672 2947.8h487.56"/>
  <path id="path2844" d="m54.435 2948h487.9"/>
  <path id="path2846" d="m54.198 2948.3h488.25"/>
  <path id="path2848" d="m53.96 2948.6h488.59"/>
  <path id="path2850" d="m53.723 2948.8h488.93"/>
  <path id="path2852" d="m53.486 2949.1h489.28"/>
  <path id="path2854" d="m53.248 2949.4h489.62"/>
  <path id="path2856" d="m53.011 2949.7h489.96"/>
  <path id="path2858" d="m52.774 2949.9h490.31"/>
  <path id="path2860" d="m52.537 2950.2h490.65"/>
  <path id="path2862" d="m52.3 2950.5h491"/>
  <path id="path2864" d="m52.062 2950.7h491.34"/>
  <path id="path2866" d="m51.825 2951h491.68"/>
  <path id="path2868" d="m51.588 2951.3h492.03"/>
  <path id="path2870" d="m51.351 2951.5h492.37"/>
  <path id="path2872" d="m51.113 2951.8h492.71"/>
  <path id="path2874" d="m50.876 2952.1h493.06"/>
  <path id="path2876" d="m50.639 2952.4h493.4"/>
  <path id="path2878" d="m50.401 2952.6h493.74"/>
  <path id="path2880" d="m50.164 2952.9h494.09"/>
  <path id="path2882" d="m49.927 2953.2h494.43"/>
  <path id="path2884" d="m49.69 2953.4h494.77"/>
  <path id="path2886" d="m49.453 2953.7h495.12"/>
  <path id="path2888" d="m49.215 2954h495.46"/>
  <path id="path2890" d="m48.978 2954.2h495.8"/>
  <path id="path2892" d="m48.741 2954.5h496.15"/>
  <path id="path2894" d="m48.504 2954.8h496.49"/>
  <path id="path2896" d="m48.266 2955.1h496.84"/>
  <path id="path2898" d="m48.029 2955.3h497.18"/>
  <path id="path2900" d="m47.792 2955.6h497.52"/>
  <path id="path2902" d="m47.555 2955.9h497.87"/>
  <path id="path2904" d="m47.318 2956.1h498.21"/>
  <path id="path2906" d="m47.08 2956.4h498.55"/>
  <path id="path2908" d="m46.843 2956.7h498.9"/>
  <path id="path2910" d="m46.606 2956.9h499.24"/>
  <path id="path2912" d="m46.368 2957.2h499.58"/>
  <path id="path2914" d="m46.131 2957.5h499.93"/>
  <path id="path2916" d="m45.894 2957.8h500.27"/>
  <path id="path2918" d="m45.657 2958h500.62"/>
  <path id="path2920" d="m45.419 2958.3h500.96"/>
  <path id="path2922" d="m45.182 2958.6h501.3"/>
  <path id="path2924" d="m44.945 2958.8h501.65"/>
  <path id="path2926" d="m44.708 2959.1h501.99"/>
  <path id="path2928" d="m44.471 2959.4h502.33"/>
  <path id="path2930" d="m44.233 2959.6h502.68"/>
  <path id="path2932" d="m43.996 2959.9h503.02"/>
  <path id="path2934" d="m43.759 2960.2h503.36"/>
  <path id="path2936" d="m43.521 2960.4h503.71"/>
  <path id="path2938" d="m43.284 2960.7h504.05"/>
  <path id="path2940" d="m43.047 2961h504.4"/>
  <path id="path2942" d="m42.81 2961.3h504.74"/>
  <path id="path2944" d="m42.573 2961.5h505.08"/>
  <path id="path2946" d="m42.335 2961.8h505.43"/>
  <path id="path2948" d="m42.098 2962.1h505.77"/>
  <path id="path2950" d="m41.861 2962.3h506.11"/>
  <path id="path2952" d="m41.624 2962.6h506.46"/>
  <path id="path2954" d="m41.386 2962.9h506.8"/>
  <path id="path2956" d="m41.149 2963.2h507.14"/>
  <path id="path2958" d="m40.912 2963.4h507.49"/>
  <path id="path2960" d="m40.674 2963.7h507.83"/>
  <path id="path2962" d="m40.437 2964h508.18"/>
  <path id="path2964" d="m40.2 2964.2h508.52"/>
  <path id="path2966" d="m39.963 2964.5h508.86"/>
  <path id="path2968" d="m39.726 2964.8h509.2"/>
  <path id="path2970" d="m39.488 2965h509.55"/>
  <path id="path2972" d="m39.251 2965.3h509.89"/>
  <path id="path2974" d="m39.014 2965.6h510.24"/>
  <path id="path2976" d="m38.777 2965.8h510.58"/>
  <path id="path2978" d="m38.539 2966.1h510.92"/>
  <path id="path2980" d="m38.302 2966.4h511.27"/>
  <path id="path2982" d="m38.065 2966.7h511.61"/>
  <path id="path2984" d="m37.828 2966.9h511.95"/>
  <path id="path2986" d="m37.591 2967.2h512.3"/>
  <path id="path2988" d="m37.353 2967.5h512.64"/>
  <path id="path2990" d="m37.116 2967.7h512.98"/>
  <path id="path2992" d="m36.879 2968h513.33"/>
  <path id="path2994" d="m36.641 2968.3h513.67"/>
  <path id="path2996" d="m36.404 2968.5h514.02"/>
  <path id="path2998" d="m36.167 2968.8h514.36"/>
  <path id="path3000" d="m35.93 2969.1h514.7"/>
  <path id="path3002" d="m35.692 2969.4h515.05"/>
  <path id="path3004" d="m35.455 2969.6h515.39"/>
  <path id="path3006" d="m35.218 2969.9h515.73"/>
  <path id="path3008" d="m34.981 2970.2h516.08"/>
  <path id="path3010" d="m34.744 2970.4h516.42"/>
  <path id="path3012" d="m34.506 2970.7h516.76"/>
  <path id="path3014" d="m34.269 2971h517.11"/>
  <path id="path3016" d="m34.032 2971.2h517.45"/>
  <path id="path3018" d="m33.795 2971.5h517.8"/>
  <path id="path3020" d="m33.557 2971.8h518.14"/>
  <path id="path3022" d="m33.32 2972.1h518.48"/>
  <path id="path3024" d="m33.083 2972.3h518.83"/>
  <path id="path3026" d="m32.846 2972.6h519.17"/>
  <path id="path3028" d="m32.608 2972.9h519.51"/>
  <path id="path3030" d="m32.371 2973.1h519.86"/>
  <path id="path3032" d="m32.134 2973.4h520.2"/>
  <path id="path3034" d="m31.897 2973.7h520.54"/>
  <path id="path3036" d="m31.659 2973.9h520.89"/>
  <path id="path3038" d="m31.422 2974.2h521.23"/>
  <path id="path3040" d="m31.185 2974.5h521.58"/>
  <path id="path3042" d="m30.948 2974.8h521.92"/>
  <path id="path3044" d="m30.71 2975h522.26"/>
  <path id="path3046" d="m30.473 2975.3h522.61"/>
  <path id="path3048" d="m30.236 2975.6h522.95"/>
  <path id="path3050" d="m29.999 2975.8h523.29"/>
  <path id="path3052" d="m29.761 2976.1h523.64"/>
  <path id="path3054" d="m29.524 2976.4h523.98"/>
  <path id="path3056" d="m29.287 2976.6h524.32"/>
  <path id="path3058" d="m29.05 2976.9h524.67"/>
  <path id="path3060" d="m28.812 2977.2h525.01"/>
  <path id="path3062" d="m28.575 2977.5h525.35"/>
  <path id="path3064" d="m28.338 2977.7h525.7"/>
  <path id="path3066" d="m28.101 2978h526.04"/>
  <path id="path3068" d="m27.864 2978.3h526.38"/>
  <path id="path3070" d="m27.626 2978.5h526.73"/>
  <path id="path3072" d="m27.389 2978.8h527.07"/>
  <path id="path3074" d="m27.152 2979.1h527.42"/>
  <path id="path3076" d="m26.915 2979.3h527.76"/>
  <path id="path3078" d="m26.677 2979.6h528.1"/>
  <path id="path3080" d="m26.44 2979.9h528.45"/>
  <path id="path3082" d="m26.203 2980.2h528.79"/>
  <path id="path3084" d="m25.965 2980.4h529.13"/>
  <path id="path3086" d="m25.728 2980.7h529.48"/>
  <path id="path3088" d="m25.491 2981h529.82"/>
  <path id="path3090" d="m25.254 2981.2h530.16"/>
  <path id="path3092" d="m25.017 2981.5h530.51"/>
  <path id="path3094" d="m24.779 2981.8h530.85"/>
  <path id="path3096" d="m24.542 2982h531.2"/>
  <path id="path3098" d="m24.305 2982.3h531.54"/>
  <path id="path3100" d="m24.068 2982.6h531.88"/>
  <path id="path3102" d="m23.83 2982.9h532.23"/>
  <path id="path3104" d="m23.593 2983.1h532.57"/>
  <path id="path3106" d="m23.356 2983.4h532.91"/>
  <path id="path3108" d="m23.118 2983.7h533.26"/>
  <path id="path3110" d="m22.882 2983.9h533.6"/>
  <path id="path3112" d="m22.644 2984.2h533.94"/>
  <path id="path3114" d="m22.407 2984.5h534.29"/>
  <path id="path3116" d="m22.17 2984.7h534.63"/>
  <path id="path3118" d="m21.932 2985h534.98"/>
  <path id="path3120" d="m21.695 2985.3h535.32"/>
  <path id="path3122" d="m21.458 2985.6h535.66"/>
  <path id="path3124" d="m21.221 2985.8h536.01"/>
  <path id="path3126" d="m20.983 2986.1h536.35"/>
  <path id="path3128" d="m20.746 2986.4h536.69"/>
  <path id="path3130" d="m20.509 2986.6h537.04"/>
  <path id="path3132" d="m20.272 2986.9h537.38"/>
  <path id="path3134" d="m20.035 2987.2h537.72"/>
  <path id="path3136" d="m19.797 2987.4h538.07"/>
  <path id="path3138" d="m19.56 2987.7h538.41"/>
  <path id="path3140" d="m19.323 2988h538.75"/>
  <path id="path3142" d="m19.085 2988.3h539.1"/>
  <path id="path3144" d="m18.848 2988.5h539.44"/>
  <path id="path3146" d="m18.611 2988.8h539.78"/>
  <path id="path3148" d="m18.374 2989.1h540.13"/>
  <path id="path3150" d="m18.137 2989.3h540.47"/>
  <path id="path3152" d="m17.899 2989.6h540.82"/>
  <path id="path3154" d="m17.662 2989.9h541.16"/>
  <path id="path3156" d="m17.425 2990.1h541.5"/>
  <path id="path3158" d="m17.188 2990.4h541.85"/>
  <path id="path3160" d="m16.95 2990.7h542.19"/>
  <path id="path3162" d="m16.713 2991h542.53"/>
  <path id="path3164" d="m16.476 2991.2h542.88"/>
  <path id="path3166" d="m16.238 2991.5h543.22"/>
  <path id="path3168" d="m16.001 2991.8h543.56"/>
  <path id="path3170" d="m15.764 2992h543.91"/>
  <path id="path3172" d="m15.527 2992.3h544.25"/>
  <path id="path3174" d="m15.29 2992.6h544.6"/>
  <path id="path3176" d="m15.052 2992.8h544.94"/>
  <path id="path3178" d="m14.815 2993.1h545.28"/>
  <path id="path3180" d="m14.578 2993.4h545.63"/>
  <path id="path3182" d="m14.341 2993.7h545.97"/>
  <path id="path3184" d="m14.103 2993.9h546.31"/>
  <path id="path3186" d="m13.866 2994.2h546.66"/>
  <path id="path3188" d="m13.629 2994.5h547"/>
  <path id="path3190" d="m13.391 2994.7h547.34"/>
  <path id="path3192" d="m13.155 2995h547.69"/>
  <path id="path3194" d="m12.917 2995.3h548.03"/>
  <path id="path3196" d="m12.68 2995.5h548.38"/>
  <path id="path3198" d="m12.443 2995.8h548.72"/>
  <path id="path3200" d="m12.205 2996.1h549.06"/>
  <path id="path3202" d="m11.968 2996.4h549.41"/>
  <path id="path3204" d="m11.731 2996.6h549.75"/>
  <path id="path3206" d="m11.494 2996.9h550.09"/>
  <path id="path3208" d="m11.256 2997.2h550.44"/>
  <path id="path3210" d="m11.019 2997.4h550.78"/>
  <path id="path3212" d="m10.782 2997.7h551.12"/>
  <path id="path3214" d="m10.545 2998h551.47"/>
  <path id="path3216" d="m10.308 2998.2h551.81"/>
  <path id="path3218" d="m10.07 2998.5h552.16"/>
  <path id="path3220" d="m9.833 2998.8h552.5"/>
  <path id="path3222" d="m9.596 2999.1h552.84"/>
  <path id="path3224" d="m9.358 2999.3h553.19"/>
  <path id="path3226" d="m9.121 2999.6h553.53"/>
  <path id="path3228" d="m8.884 2999.9h553.87"/>
  <path id="path3230" d="m8.647 3000.1h554.22"/>
  <path id="path3232" d="m8.41 3000.4h554.56"/>
  <path id="path3234" d="m8.172 3000.7h554.9"/>
  <path id="path3236" d="m7.935 3000.9h555.25"/>
  <path id="path3238" d="m7.698 3001.2h555.59"/>
  <path id="path3240" d="m7.461 3001.5h555.93"/>
  <path id="path3242" d="m7.223 3001.8h556.28"/>
  <path id="path3244" d="m6.986 3002h556.62"/>
  <path id="path3246" d="m6.749 3002.3h556.96"/>
  <path id="path3248" d="m6.511 3002.6h557.31"/>
  <path id="path3250" d="m6.274 3002.8h557.65"/>
  <path id="path3252" d="m6.037 3003.1h558"/>
  <path id="path3254" d="m5.8 3003.4h558.34"/>
  <path id="path3256" d="m5.563 3003.6h558.68"/>
  <path id="path3258" d="m5.325 3003.9h559.03"/>
  <path id="path3260" d="m5.088 3004.2h559.37"/>
  <path id="path3262" d="m4.851 3004.5h559.71"/>
  <path id="path3264" d="m4.614 3004.7h560.06"/>
  <path id="path3266" d="m4.376 3005h560.4"/>
  <path id="path3268" d="m4.139 3005.3h560.74"/>
  <path id="path3270" d="m3.902 3005.5h561.09"/>
  <path id="path3272" d="m3.665 3005.8h561.43"/>
  <path id="path3274" d="m3.428 3006.1h561.78"/>
  <path id="path3276" d="m3.19 3006.3h562.12"/>
  <path id="path3278" d="m2.953 3006.6h562.46"/>
  <path id="path3280" d="m2.716 3006.9h562.81"/>
  <path id="path3282" d="m2.478 3007.2h563.15"/>
  <path id="path3284" d="m2.241 3007.4h563.49"/>
  <path id="path3286" d="m2.004 3007.7h563.84"/>
  <path id="path3288" d="m1.767 3008h564.18"/>
  <path id="path3290" d="m1.529 3008.2h564.52"/>
  <path id="path3292" d="m1.292 3008.5h564.87"/>
  <path id="path3294" d="m1.055 3008.8h565.21"/>
  <path id="path3296" d="m0.818 3009h565.56"/>
  <path id="path3298" d="m0.581 3009.3h565.9"/>
  <path id="path3300" d="m0.343 3009.6h566.24"/>
  <path id="path3302" d="m0.106 3009.9h566.59"/>
 </g>
</svg>
