<?xml version="1.0" encoding="UTF-8"?>
<svg id="svg36" width="241.89" height="579.84" version="1.1" viewBox="0 0 241.89 579.84" xmlns="http://www.w3.org/2000/svg">
 <g id="g34" transform="translate(7.5591 -863.95)" fill="none" stroke="#000" stroke-width="4mm">
  <path id="path6" d="m151.18 1398.4-0.143 3.294-0.431 3.269-0.713 3.22-0.992 3.144-1.262 3.046-1.522 2.925-1.772 2.781-2.007 2.616-2.228 2.431-2.43 2.227"/>
  <path id="path8" d="m137.68 1427.4-2.616 2.008-2.781 1.771-2.925 1.523-3.046 1.261-3.145 0.992-3.219 0.713-3.269 0.431-3.294 0.144-3.294-0.144-3.269-0.431"/>
  <path id="path10" d="m106.82 1435.6-3.219-0.713-3.145-0.992-3.046-1.261-2.924-1.523-2.781-1.771-2.616-2.008-2.431-2.227-2.228-2.431-2.007-2.616-1.772-2.781"/>
  <path id="path12" d="m80.654 1417.3-1.522-2.925-1.262-3.046-0.991-3.144-0.714-3.22-0.43-3.269-0.144-3.294 0.144-3.294 0.43-3.269 0.714-3.219 0.991-3.144"/>
  <path id="path14" d="m77.87 1385.5 1.262-3.047 1.522-2.924 1.772-2.781 2.007-2.616 2.228-2.431 2.431-2.227 2.616-2.008 2.781-1.771 2.924-1.523 3.046-1.262"/>
  <path id="path16" d="m100.46 1362.9 3.145-0.991 3.219-0.714 3.269-0.43 3.294-0.144 3.294 0.144 3.269 0.43 3.219 0.714 3.145 0.991 3.046 1.262 2.925 1.523"/>
  <path id="path18" d="m132.28 1365.7 2.781 1.771 2.616 2.008 2.43 2.227 2.228 2.431 2.007 2.616 1.772 2.781 1.522 2.924 1.262 3.047 0.992 3.144 0.713 3.219"/>
  <path id="path20" d="m150.61 1391.9 0.431 3.269 0.143 3.294-0.143 3.294"/>
  <path id="path22" d="m37.796 1398.4 37.795-377.95h75.59l25.701 377.95"/>
  <path id="path24" d="m63.496 1088.5h87.685"/>
  <path id="path26" d="m0 1398.4h75.591"/>
  <path id="path28" d="m151.18 1398.4h75.591"/>
  <path id="path30" d="m188.98 869.29 37.795 37.796v113.39"/>
  <path id="path32" d="m37.796 869.29-37.796 37.796v113.39"/>
 </g>
</svg>
