<?xml version="1.0" encoding="UTF-8"?>
<svg id="svg32" width="308.91" height="582.06" version="1.1" viewBox="0 0 308.91 582.06" xmlns="http://www.w3.org/2000/svg">
 <g id="g30" transform="translate(0 -712.04)" fill="none" stroke="#000" stroke-width="4mm">
  <path id="path6" d="m206.24 1236.5-0.19 4.357-0.57 4.324-0.944 4.259-1.311 4.16-1.67 4.029-2.014 3.869-2.343 3.679-2.655 3.46-2.947 3.216-3.216 2.946"/>
  <path id="path8" d="m188.38 1274.8-3.46 2.656-3.679 2.343-3.869 2.014-4.029 1.669-4.16 1.312-4.258 0.944-4.325 0.569-4.357 0.191-4.358-0.191-4.324-0.569"/>
  <path id="path10" d="m147.56 1285.8-4.258-0.944-4.16-1.312-4.03-1.669-3.869-2.014-3.678-2.343-3.461-2.656-3.215-2.946-2.947-3.216-2.655-3.46-2.344-3.679"/>
  <path id="path12" d="m112.94 1261.5-2.014-3.869-1.669-4.029-1.311-4.16-0.944-4.259-0.57-4.324-0.19-4.357 0.19-4.358 0.57-4.324 0.944-4.259 1.311-4.159"/>
  <path id="path14" d="m109.26 1219.4 1.669-4.03 2.014-3.869 2.344-3.678 2.655-3.461 2.947-3.216 3.215-2.946 3.461-2.655 3.678-2.344 3.869-2.014 4.03-1.669"/>
  <path id="path16" d="m139.14 1189.5 4.16-1.312 4.258-0.944 4.324-0.569 4.358-0.19 4.357 0.19 4.325 0.569 4.258 0.944 4.16 1.312 4.029 1.669 3.869 2.014"/>
  <path id="path18" d="m181.24 1193.2 3.679 2.344 3.46 2.655 3.216 2.946 2.947 3.216 2.655 3.461 2.343 3.678 2.014 3.869 1.67 4.03 1.311 4.159 0.944 4.259"/>
  <path id="path20" d="m205.48 1227.8 0.57 4.324 0.19 4.358-0.19 4.357"/>
  <path id="path22" d="m60.71 1236.5 41.962-516.93h103.56l41.961 516.93"/>
  <path id="path24" d="m206.24 1236.5h102.67"/>
  <path id="path26" d="m102.67 1236.5h-102.67"/>
  <path id="path28" d="m97.315 817.81h108.92"/>
 </g>
</svg>
