<?xml version="1.0" encoding="UTF-8"?>
<svg id="svg32" width="308.02" height="582.05" version="1.1" viewBox="0 0 308.02 582.05" xmlns="http://www.w3.org/2000/svg">
 <g id="g30" transform="translate(0 -712.93)" fill="none" stroke="#000" stroke-width="4mm">
  <path id="path6" d="m205.34 1236.5-0.194 4.435-0.579 4.402-0.961 4.334-1.335 4.234-1.699 4.102-2.05 3.937-2.386 3.745-2.702 3.522-2.999 3.273-3.274 2.999"/>
  <path id="path8" d="m187.17 1275.5-3.522 2.703-3.744 2.385-3.938 2.05-4.102 1.699-4.234 1.335-4.334 0.961-4.402 0.58-4.435 0.193-4.435-0.193-4.402-0.58"/>
  <path id="path10" d="m145.62 1286.6-4.334-0.961-4.234-1.335-4.102-1.699-3.938-2.05-3.744-2.385-3.522-2.703-3.273-2.999-3-3.273-2.702-3.522-2.386-3.745"/>
  <path id="path12" d="m110.38 1262-2.05-3.937-1.699-4.102-1.335-4.234-0.96-4.334-0.58-4.402-0.194-4.435 0.194-4.436 0.58-4.401 0.96-4.335 1.335-4.234"/>
  <path id="path14" d="m106.63 1219.1 1.699-4.101 2.05-3.938 2.386-3.745 2.702-3.522 3-3.273 3.273-2.999 3.522-2.703 3.744-2.385 3.938-2.05 4.102-1.699"/>
  <path id="path16" d="m137.05 1188.7 4.234-1.335 4.334-0.961 4.402-0.579 4.435-0.194 4.435 0.194 4.402 0.579 4.334 0.961 4.234 1.335 4.102 1.699 3.938 2.05"/>
  <path id="path18" d="m179.9 1192.5 3.744 2.385 3.522 2.703 3.274 2.999 2.999 3.273 2.702 3.522 2.386 3.745 2.05 3.938 1.699 4.101 1.335 4.234 0.961 4.335"/>
  <path id="path20" d="m204.57 1227.7 0.579 4.401 0.194 4.436-0.194 4.435"/>
  <path id="path22" d="m60.711 1236.5 41.962-516.04h102.67l42.854 516.04"/>
  <path id="path24" d="m205.34 1236.5h102.67"/>
  <path id="path26" d="m102.67 1236.5h-102.67"/>
  <path id="path28" d="m98.209 818.7h107.14"/>
 </g>
</svg>
