<?xml version="1.0" encoding="UTF-8" standalone="no"?>
<svg
   width="241.89011"
   height="579.84131"
   viewBox="0 0 241.8901 579.84129"
   version="1.1"
   id="svg36"
   sodipodi:docname="TOWERS15.hpgl.svg"
   inkscape:version="1.1.2 (0a00cf5339, 2022-02-04)"
   xmlns:inkscape="http://www.inkscape.org/namespaces/inkscape"
   xmlns:sodipodi="http://sodipodi.sourceforge.net/DTD/sodipodi-0.dtd"
   xmlns="http://www.w3.org/2000/svg"
   xmlns:svg="http://www.w3.org/2000/svg">
  <defs
     id="defs40" />
  <sodipodi:namedview
     id="namedview38"
     pagecolor="#ffffff"
     bordercolor="#666666"
     borderopacity="1.0"
     inkscape:pageshadow="2"
     inkscape:pageopacity="0.0"
     inkscape:pagecheckerboard="0"
     showgrid="false"
     inkscape:zoom="1.2682364"
     inkscape:cx="121.42846"
     inkscape:cy="-580.72769"
     inkscape:window-width="1495"
     inkscape:window-height="970"
     inkscape:window-x="0"
     inkscape:window-y="32"
     inkscape:window-maximized="0"
     inkscape:current-layer="svg36" />
  <g
     id="g2"
     transform="translate(7.5590553,-863.94594)" />
  <g
     style="fill:none;stroke:#000000;stroke-width:1mm"
     id="g4"
     transform="translate(7.5590553,-863.94594)" />
  <g
     style="fill:none;stroke:#000000;stroke-width:4mm"
     id="g34"
     transform="translate(7.5590553,-863.94594)">
    <path
       d="m 151.181,1398.425 -0.143,3.294 -0.431,3.269 -0.713,3.22 -0.992,3.144 -1.262,3.046 -1.522,2.925 -1.772,2.781 -2.007,2.616 -2.228,2.431 -2.43,2.227"
       id="path6" />
    <path
       d="m 137.681,1427.378 -2.616,2.008 -2.781,1.771 -2.925,1.523 -3.046,1.261 -3.145,0.992 -3.219,0.713 -3.269,0.431 -3.294,0.144 -3.294,-0.144 -3.269,-0.431"
       id="path8" />
    <path
       d="m 106.823,1435.646 -3.219,-0.713 -3.145,-0.992 -3.046,-1.261 -2.924,-1.523 -2.781,-1.771 -2.616,-2.008 -2.431,-2.227 -2.228,-2.431 -2.007,-2.616 -1.772,-2.781"
       id="path10" />
    <path
       d="m 80.654,1417.323 -1.522,-2.925 -1.262,-3.046 -0.991,-3.144 -0.714,-3.22 -0.43,-3.269 -0.144,-3.294 0.144,-3.294 0.43,-3.269 0.714,-3.219 0.991,-3.144"
       id="path12" />
    <path
       d="m 77.87,1385.499 1.262,-3.047 1.522,-2.924 1.772,-2.781 2.007,-2.616 2.228,-2.431 2.431,-2.227 2.616,-2.008 2.781,-1.771 2.924,-1.523 3.046,-1.262"
       id="path14" />
    <path
       d="m 100.459,1362.909 3.145,-0.991 3.219,-0.714 3.269,-0.43 3.294,-0.144 3.294,0.144 3.269,0.43 3.219,0.714 3.145,0.991 3.046,1.262 2.925,1.523"
       id="path16" />
    <path
       d="m 132.284,1365.694 2.781,1.771 2.616,2.008 2.43,2.227 2.228,2.431 2.007,2.616 1.772,2.781 1.522,2.924 1.262,3.047 0.992,3.144 0.713,3.219"
       id="path18" />
    <path
       d="m 150.607,1391.862 0.431,3.269 0.143,3.294 -0.143,3.294"
       id="path20" />
    <path
       d="m 37.796,1398.425 37.795,-377.952 h 75.59 l 25.701,377.952"
       id="path22" />
    <path
       d="m 63.496,1088.504 h 87.685"
       id="path24" />
    <path
       d="M 0,1398.425 H 75.591"
       id="path26" />
    <path
       d="m 151.181,1398.425 h 75.591"
       id="path28" />
    <path
       d="m 188.977,869.291 37.795,37.796 v 113.386"
       id="path30" />
    <path
       d="M 37.796,869.291 0,907.087 v 113.386"
       id="path32" />
  </g>
</svg>
