<?xml version="1.0" encoding="UTF-8" standalone="no"?>
<svg
   width="308.017"
   height="582.05426"
   viewBox="0 0 308.017 582.05424"
   version="1.1"
   id="svg32"
   sodipodi:docname="TOWERS01.hpgl.svg"
   inkscape:version="1.1.2 (0a00cf5339, 2022-02-04)"
   xmlns:inkscape="http://www.inkscape.org/namespaces/inkscape"
   xmlns:sodipodi="http://sodipodi.sourceforge.net/DTD/sodipodi-0.dtd"
   xmlns="http://www.w3.org/2000/svg"
   xmlns:svg="http://www.w3.org/2000/svg">
  <defs
     id="defs36" />
  <sodipodi:namedview
     id="namedview34"
     pagecolor="#ffffff"
     bordercolor="#666666"
     borderopacity="1.0"
     inkscape:pageshadow="2"
     inkscape:pageopacity="0.0"
     inkscape:pagecheckerboard="0"
     showgrid="false"
     inkscape:zoom="1.2682364"
     inkscape:cx="153.75682"
     inkscape:cy="-429.33636"
     inkscape:window-width="1495"
     inkscape:window-height="970"
     inkscape:window-x="0"
     inkscape:window-y="32"
     inkscape:window-maximized="0"
     inkscape:current-layer="svg32" />
  <g
     id="g2"
     transform="translate(0,-712.93194)" />
  <g
     style="fill:none;stroke:#000000;stroke-width:1mm"
     id="g4"
     transform="translate(0,-712.93194)" />
  <g
     style="fill:none;stroke:#000000;stroke-width:4mm"
     id="g30"
     transform="translate(0,-712.93194)">
    <path
       d="m 205.345,1236.531 -0.194,4.435 -0.579,4.402 -0.961,4.334 -1.335,4.234 -1.699,4.102 -2.05,3.937 -2.386,3.745 -2.702,3.522 -2.999,3.273 -3.274,2.999"
       id="path6" />
    <path
       d="m 187.166,1275.514 -3.522,2.703 -3.744,2.385 -3.938,2.05 -4.102,1.699 -4.234,1.335 -4.334,0.961 -4.402,0.58 -4.435,0.193 -4.435,-0.193 -4.402,-0.58"
       id="path8" />
    <path
       d="m 145.618,1286.647 -4.334,-0.961 -4.234,-1.335 -4.102,-1.699 -3.938,-2.05 -3.744,-2.385 -3.522,-2.703 -3.273,-2.999 -3,-3.273 -2.702,-3.522 -2.386,-3.745"
       id="path10" />
    <path
       d="m 110.383,1261.975 -2.05,-3.937 -1.699,-4.102 -1.335,-4.234 -0.96,-4.334 -0.58,-4.402 -0.194,-4.435 0.194,-4.436 0.58,-4.401 0.96,-4.335 1.335,-4.234"
       id="path12" />
    <path
       d="m 106.634,1219.125 1.699,-4.101 2.05,-3.938 2.386,-3.745 2.702,-3.522 3,-3.273 3.273,-2.999 3.522,-2.703 3.744,-2.385 3.938,-2.05 4.102,-1.699"
       id="path14" />
    <path
       d="m 137.05,1188.71 4.234,-1.335 4.334,-0.961 4.402,-0.579 4.435,-0.194 4.435,0.194 4.402,0.579 4.334,0.961 4.234,1.335 4.102,1.699 3.938,2.05"
       id="path16" />
    <path
       d="m 179.9,1192.459 3.744,2.385 3.522,2.703 3.274,2.999 2.999,3.273 2.702,3.522 2.386,3.745 2.05,3.938 1.699,4.101 1.335,4.234 0.961,4.335"
       id="path18" />
    <path
       d="m 204.572,1227.694 0.579,4.401 0.194,4.436 -0.194,4.435"
       id="path20" />
    <path
       d="m 60.711,1236.531 41.962,-516.04 h 102.672 l 42.854,516.04"
       id="path22" />
    <path
       d="M 205.345,1236.531 H 308.017"
       id="path24" />
    <path
       d="M 102.673,1236.531 H 0"
       id="path26" />
    <path
       d="M 98.209,818.699 H 205.345"
       id="path28" />
  </g>
</svg>
