<?xml version="1.0" encoding="UTF-8"?>
<svg id="svg34" width="309.23" height="582.06" version="1.1" viewBox="0 0 309.23 582.06" xmlns="http://www.w3.org/2000/svg">
 <g id="g32" transform="translate(0 -817.06)" fill="none" stroke="#000" stroke-width="4mm">
  <path id="path6" d="m206.16 1340-0.196 4.491-0.587 4.458-0.973 4.39-1.352 4.288-1.721 4.154-2.076 3.988-2.416 3.792-2.737 3.567-3.037 3.315-3.315 3.038"/>
  <path id="path8" d="m187.75 1379.5-3.567 2.737-3.793 2.416-3.988 2.076-4.154 1.72-4.288 1.352-4.389 0.974-4.458 0.586-4.492 0.197-4.492-0.197-4.458-0.586"/>
  <path id="path10" d="m145.67 1390.8-4.389-0.974-4.288-1.352-4.154-1.72-3.989-2.076-3.792-2.416-3.567-2.737-3.315-3.038-3.037-3.315-2.737-3.567-2.416-3.792"/>
  <path id="path12" d="m109.98 1365.8-2.076-3.988-1.721-4.154-1.352-4.288-0.973-4.39-0.587-4.458-0.196-4.491 0.196-4.492 0.587-4.458 0.973-4.39 1.352-4.288"/>
  <path id="path14" d="m106.19 1322.4 1.721-4.154 2.076-3.988 2.416-3.792 2.737-3.567 3.037-3.315 3.315-3.038 3.567-2.737 3.792-2.416 3.989-2.076 4.154-1.72"/>
  <path id="path16" d="m136.99 1291.6 4.288-1.352 4.389-0.973 4.458-0.587 4.492-0.196 4.492 0.196 4.458 0.587 4.389 0.973 4.288 1.352 4.154 1.72 3.988 2.076"/>
  <path id="path18" d="m180.39 1295.4 3.793 2.416 3.567 2.737 3.315 3.038 3.037 3.315 2.737 3.567 2.416 3.792 2.076 3.988 1.721 4.154 1.352 4.288 0.973 4.39"/>
  <path id="path20" d="m205.37 1331.1 0.587 4.458 0.196 4.492-0.196 4.491"/>
  <path id="path22" d="m51.539 1340 44.323-412.31"/>
  <path id="path24" d="m257.7 927.7v-103.08h-206.16v103.08h206.16"/>
  <path id="path26" d="m0 1340h103.08"/>
  <path id="path28" d="m206.16 1340h103.08"/>
  <path id="path30" d="m257.7 1340-48.447-416.44"/>
 </g>
</svg>
