<?xml version="1.0" encoding="UTF-8" standalone="no"?>
<svg
   width="308.909"
   height="582.05536"
   viewBox="0 0 308.909 582.05534"
   version="1.1"
   id="svg32"
   sodipodi:docname="TOWERS03.hpgl.svg"
   inkscape:version="1.1.2 (0a00cf5339, 2022-02-04)"
   xmlns:inkscape="http://www.inkscape.org/namespaces/inkscape"
   xmlns:sodipodi="http://sodipodi.sourceforge.net/DTD/sodipodi-0.dtd"
   xmlns="http://www.w3.org/2000/svg"
   xmlns:svg="http://www.w3.org/2000/svg">
  <defs
     id="defs36" />
  <sodipodi:namedview
     id="namedview34"
     pagecolor="#ffffff"
     bordercolor="#666666"
     borderopacity="1.0"
     inkscape:pageshadow="2"
     inkscape:pageopacity="0.0"
     inkscape:pagecheckerboard="0"
     showgrid="false"
     inkscape:zoom="1.2682364"
     inkscape:cx="154.54532"
     inkscape:cy="-428.54786"
     inkscape:window-width="1495"
     inkscape:window-height="970"
     inkscape:window-x="0"
     inkscape:window-y="32"
     inkscape:window-maximized="0"
     inkscape:current-layer="svg32" />
  <g
     id="g2"
     transform="translate(0,-712.03894)" />
  <g
     style="fill:none;stroke:#000000;stroke-width:1mm"
     id="g4"
     transform="translate(0,-712.03894)" />
  <g
     style="fill:none;stroke:#000000;stroke-width:4mm"
     id="g30"
     transform="translate(0,-712.03894)">
    <path
       d="m 206.237,1236.531 -0.19,4.357 -0.57,4.324 -0.944,4.259 -1.311,4.16 -1.67,4.029 -2.014,3.869 -2.343,3.679 -2.655,3.46 -2.947,3.216 -3.216,2.946"
       id="path6" />
    <path
       d="m 188.377,1274.83 -3.46,2.656 -3.679,2.343 -3.869,2.014 -4.029,1.669 -4.16,1.312 -4.258,0.944 -4.325,0.569 -4.357,0.191 -4.358,-0.191 -4.324,-0.569"
       id="path8" />
    <path
       d="m 147.558,1285.768 -4.258,-0.944 -4.16,-1.312 -4.03,-1.669 -3.869,-2.014 -3.678,-2.343 -3.461,-2.656 -3.215,-2.946 -2.947,-3.216 -2.655,-3.46 -2.344,-3.679"
       id="path10" />
    <path
       d="m 112.941,1261.529 -2.014,-3.869 -1.669,-4.029 -1.311,-4.16 -0.944,-4.259 -0.57,-4.324 -0.19,-4.357 0.19,-4.358 0.57,-4.324 0.944,-4.259 1.311,-4.159"
       id="path12" />
    <path
       d="m 109.258,1219.431 1.669,-4.03 2.014,-3.869 2.344,-3.678 2.655,-3.461 2.947,-3.216 3.215,-2.946 3.461,-2.655 3.678,-2.344 3.869,-2.014 4.03,-1.669"
       id="path14" />
    <path
       d="m 139.14,1189.549 4.16,-1.312 4.258,-0.944 4.324,-0.569 4.358,-0.19 4.357,0.19 4.325,0.569 4.258,0.944 4.16,1.312 4.029,1.669 3.869,2.014"
       id="path16" />
    <path
       d="m 181.238,1193.232 3.679,2.344 3.46,2.655 3.216,2.946 2.947,3.216 2.655,3.461 2.343,3.678 2.014,3.869 1.67,4.03 1.311,4.159 0.944,4.259"
       id="path18" />
    <path
       d="m 205.477,1227.849 0.57,4.324 0.19,4.358 -0.19,4.357"
       id="path20" />
    <path
       d="m 60.71,1236.531 41.962,-516.933 h 103.565 l 41.961,516.933"
       id="path22" />
    <path
       d="M 206.237,1236.531 H 308.909"
       id="path24" />
    <path
       d="M 102.672,1236.531 H 0"
       id="path26" />
    <path
       d="M 97.315,817.807 H 206.237"
       id="path28" />
  </g>
</svg>
