<?xml version="1.0" encoding="UTF-8" standalone="no"?>
<svg
   width="569.65509"
   height="593.55786"
   viewBox="0 0 569.6551 593.55784"
   version="1.1"
   id="svg14"
   sodipodi:docname="TSSRON51.hpgl.svg"
   inkscape:version="1.1.2 (0a00cf5339, 2022-02-04)"
   xmlns:inkscape="http://www.inkscape.org/namespaces/inkscape"
   xmlns:sodipodi="http://sodipodi.sourceforge.net/DTD/sodipodi-0.dtd"
   xmlns="http://www.w3.org/2000/svg"
   xmlns:svg="http://www.w3.org/2000/svg">
  <defs
     id="defs18" />
  <sodipodi:namedview
     id="namedview16"
     pagecolor="#ffffff"
     bordercolor="#666666"
     borderopacity="1.0"
     inkscape:pageshadow="2"
     inkscape:pageopacity="0.0"
     inkscape:pagecheckerboard="0"
     showgrid="false"
     inkscape:zoom="1.2682364"
     inkscape:cx="285.43574"
     inkscape:cy="-440.37531"
     inkscape:window-width="1495"
     inkscape:window-height="970"
     inkscape:window-x="0"
     inkscape:window-y="32"
     inkscape:window-maximized="0"
     inkscape:current-layer="svg14" />
  <g
     id="g2"
     transform="translate(7.5590553,-723.85795)" />
  <g
     style="fill:none;stroke:#000000;stroke-width:1mm"
     id="g4"
     transform="translate(7.5590553,-723.85795)" />
  <g
     style="fill:none;stroke:#000000;stroke-width:4mm"
     id="g12"
     transform="translate(7.5590553,-723.85795)">
    <path
       d="m 0,1058.268 16.109,56.383 24.164,59.481 35.317,47.709 55.144,41.513 63.818,34.697 71.254,11.772 57.003,-3.098 60.72,-17.968 62.579,-32.838 48.948,-50.188"
       id="path6" />
    <path
       d="m 495.056,1205.731 38.415,-65.677 21.066,-70.014 v -76.83 l -21.066,-79.308 -39.654,-66.916 -58.242,-48.948 -70.014,-37.176 -78.689,-11.772 -89.222,11.772 -63.818,31.6"
       id="path8" />
    <path
       d="M 133.832,792.462 78.688,829.637 184.019,934.968 H 0 V 742.894 l 81.786,86.743"
       id="path10" />
  </g>
</svg>
