<?xml version="1.0" encoding="UTF-8" standalone="no"?>
<svg
   width="564.37317"
   height="592.32465"
   viewBox="0 0 564.37316 592.32463"
   version="1.1"
   id="svg40"
   sodipodi:docname="TWRDEF51.hpgl.svg"
   inkscape:version="1.1.2 (0a00cf5339, 2022-02-04)"
   xmlns:inkscape="http://www.inkscape.org/namespaces/inkscape"
   xmlns:sodipodi="http://sodipodi.sourceforge.net/DTD/sodipodi-0.dtd"
   xmlns="http://www.w3.org/2000/svg"
   xmlns:svg="http://www.w3.org/2000/svg">
  <defs
     id="defs44" />
  <sodipodi:namedview
     id="namedview42"
     pagecolor="#ffffff"
     bordercolor="#666666"
     borderopacity="1.0"
     inkscape:pageshadow="2"
     inkscape:pageopacity="0.0"
     inkscape:pagecheckerboard="0"
     showgrid="false"
     inkscape:zoom="1.2682364"
     inkscape:cx="283.07025"
     inkscape:cy="-829.89259"
     inkscape:window-width="1495"
     inkscape:window-height="970"
     inkscape:window-x="0"
     inkscape:window-y="32"
     inkscape:window-maximized="0"
     inkscape:current-layer="svg40" />
  <g
     id="g2"
     transform="translate(7.5590553,-1113.2767)" />
  <g
     style="fill:none;stroke:#000000;stroke-width:1mm"
     id="g4"
     transform="translate(7.5590553,-1113.2767)" />
  <g
     style="fill:none;stroke:#000000;stroke-width:4mm"
     id="g38"
     transform="translate(7.5590553,-1113.2767)">
    <path
       d="m 228.00906,1191.238 49.702,-65.461 49.702,65.461"
       id="path6" />
    <path
       d="m 191.23706,1238.112 -33.539,46.874 h 59.804"
       id="path8" />
    <path
       d="m 333.07006,1283.369 h 65.866 l -37.984,-49.702"
       id="path10" />
    <path
       d="m 216.29006,1360.953 v 86.07"
       id="path12" />
    <path
       d="m 334.68706,1358.529 v 85.262"
       id="path14" />
    <path
       d="m 229.22106,1624.012 49.702,68.694 49.702,-68.694"
       id="path16" />
    <path
       d="m 216.29006,1525.819 h -64.249 l 37.984,48.491"
       id="path18" />
    <path
       d="m 335.89906,1525.819 h 60.208 l -33.943,52.935"
       id="path20" />
    <path
       d="m -0.70294089,1351.659 5.25299999,-11.314 5.253,-10.102 6.8699999,-6.869 6.869,-6.87 10.506,-3.637 9.294,0.809 12.123,3.636 11.314,2.425 9.294,13.739 7.274,7.677"
       id="path22" />
    <path
       d="m 83.347059,1341.153 4.849,8.89 v 10.102 l -4.849,9.698 -5.253,8.486 -8.082,9.698 -9.294,10.102 -8.486,10.506 -5.253,7.678 -4.445,6.869 -0.808,8.89"
       id="path24" />
    <path
       d="m 41.726059,1432.072 v 9.294 6.869 l 0.808,8.89 v 0.808"
       id="path26" />
    <path
       d="m 34.048059,1491.876 h 21.417"
       id="path28" />
    <path
       d="m 460.35706,1350.447 5.253,-11.314 5.253,-10.102 6.869,-6.87 6.87,-6.869 10.506,-3.637 9.294,0.808 12.122,3.637 11.315,2.425 9.293,13.738 7.274,7.678"
       id="path30" />
    <path
       d="m 544.40606,1339.941 4.849,8.89 v 10.102 l -4.849,9.698 -5.253,8.486 -8.082,9.698 -9.294,10.102 -8.485,10.506 -5.254,7.678 -4.444,6.869 -0.809,8.89"
       id="path32" />
    <path
       d="m 502.78506,1430.86 v 9.294 6.869 l 0.809,8.89 v 0.808"
       id="path34" />
    <path
       d="m 495.10806,1490.664 h 21.416"
       id="path36" />
  </g>
</svg>
