<?xml version="1.0" encoding="UTF-8"?>
<svg id="svg40" width="564.37" height="592.32" version="1.1" viewBox="0 0 564.37 592.32" xmlns="http://www.w3.org/2000/svg">
 <g id="g38" transform="translate(7.5591 -1113.3)" fill="none" stroke="#000" stroke-width="4mm">
  <path id="path6" d="m228.01 1191.2 49.702-65.461 49.702 65.461"/>
  <path id="path8" d="m191.24 1238.1-33.539 46.874h59.804"/>
  <path id="path10" d="m333.07 1283.4h65.866l-37.984-49.702"/>
  <path id="path12" d="m216.29 1361v86.07"/>
  <path id="path14" d="m334.69 1358.5v85.262"/>
  <path id="path16" d="m229.22 1624 49.702 68.694 49.702-68.694"/>
  <path id="path18" d="m216.29 1525.8h-64.249l37.984 48.491"/>
  <path id="path20" d="m335.9 1525.8h60.208l-33.943 52.935"/>
  <path id="path22" d="m-0.70294 1351.7 5.253-11.314 5.253-10.102 6.87-6.869 6.869-6.87 10.506-3.637 9.294 0.809 12.123 3.636 11.314 2.425 9.294 13.739 7.274 7.677"/>
  <path id="path24" d="m83.347 1341.2 4.849 8.89v10.102l-4.849 9.698-5.253 8.486-8.082 9.698-9.294 10.102-8.486 10.506-5.253 7.678-4.445 6.869-0.808 8.89"/>
  <path id="path26" d="m41.726 1432.1v16.163l0.808 8.89v0.808"/>
  <path id="path28" d="m34.048 1491.9h21.417"/>
  <path id="path30" d="m460.36 1350.4 5.253-11.314 5.253-10.102 6.869-6.87 6.87-6.869 10.506-3.637 9.294 0.808 12.122 3.637 11.315 2.425 9.293 13.738 7.274 7.678"/>
  <path id="path32" d="m544.41 1339.9 4.849 8.89v10.102l-4.849 9.698-5.253 8.486-8.082 9.698-9.294 10.102-8.485 10.506-5.254 7.678-4.444 6.869-0.809 8.89"/>
  <path id="path34" d="m502.79 1430.9v16.163l0.809 8.89v0.808"/>
  <path id="path36" d="m495.11 1490.7h21.416"/>
 </g>
</svg>
