<?xml version="1.0" encoding="UTF-8" standalone="no"?>
<svg
   width="583.74133"
   height="132.62581"
   viewBox="0 0 583.74132 132.62581"
   version="1.1"
   id="svg14"
   sodipodi:docname="WATTUR02.hpgl.svg"
   inkscape:version="1.1.2 (0a00cf5339, 2022-02-04)"
   xmlns:inkscape="http://www.inkscape.org/namespaces/inkscape"
   xmlns:sodipodi="http://sodipodi.sourceforge.net/DTD/sodipodi-0.dtd"
   xmlns="http://www.w3.org/2000/svg"
   xmlns:svg="http://www.w3.org/2000/svg">
  <defs
     id="defs18" />
  <sodipodi:namedview
     id="namedview16"
     pagecolor="#ffffff"
     bordercolor="#666666"
     borderopacity="1.0"
     inkscape:pageshadow="2"
     inkscape:pageopacity="0.0"
     inkscape:pagecheckerboard="0"
     showgrid="false"
     inkscape:zoom="2.3389172"
     inkscape:cx="298.00114"
     inkscape:cy="-492.74938"
     inkscape:window-width="1495"
     inkscape:window-height="970"
     inkscape:window-x="0"
     inkscape:window-y="32"
     inkscape:window-maximized="0"
     inkscape:current-layer="svg14" />
  <g
     id="g2"
     transform="translate(14.704947,-550.61779)" />
  <g
     style="fill:none;stroke:#000000;stroke-width:1mm"
     id="g4"
     transform="translate(14.704947,-550.61779)" />
  <g
     style="fill:none;stroke:#000000;stroke-width:4mm"
     id="g12"
     transform="translate(14.704947,-550.61779)">
    <path
       d="m -12.597555,670.754 34.733,-10.083 39.961,-29.131 38.468005,-54.154 37.72,-19.047 41.829,3.735 -41.829,37.347 v 36.6 l 42.949,38.468 36.6,-14.565 33.613,-22.035"
       id="path6" />
    <path
       d="m 251.44645,637.889 39.588,-60.503 41.829,-18.3 33.985,1.868 -39.214,38.467 -1.867,40.335 44.816,34.733 37.347,-16.433 32.119,-20.167 39.214,-57.888 42.949,-19.794"
       id="path8" />
    <path
       d="m 522.21245,560.207 32.119,2.614 -38.468,48.551 1.868,28.384 34.733,34.733"
       id="path10" />
  </g>
</svg>
