<?xml version="1.0" encoding="UTF-8" standalone="no"?>
<svg
   width="582.06152"
   height="582.06152"
   viewBox="0 0 582.06151 582.06151"
   version="1.1"
   id="svg40"
   sodipodi:docname="WAYPNT11.hpgl.svg"
   inkscape:version="1.1.2 (0a00cf5339, 2022-02-04)"
   xmlns:inkscape="http://www.inkscape.org/namespaces/inkscape"
   xmlns:sodipodi="http://sodipodi.sourceforge.net/DTD/sodipodi-0.dtd"
   xmlns="http://www.w3.org/2000/svg"
   xmlns:svg="http://www.w3.org/2000/svg">
  <defs
     id="defs44" />
  <sodipodi:namedview
     id="namedview42"
     pagecolor="#ffffff"
     bordercolor="#666666"
     borderopacity="1.0"
     inkscape:pageshadow="2"
     inkscape:pageopacity="0.0"
     inkscape:pagecheckerboard="0"
     showgrid="false"
     inkscape:zoom="1.2682364"
     inkscape:cx="290.95522"
     inkscape:cy="-701.36766"
     inkscape:window-width="1495"
     inkscape:window-height="970"
     inkscape:window-x="0"
     inkscape:window-y="32"
     inkscape:window-maximized="0"
     inkscape:current-layer="svg40" />
  <g
     id="g2"
     transform="translate(7.5662612,-984.55974)" />
  <g
     style="fill:none;stroke:#000000;stroke-width:1mm"
     id="g4"
     transform="translate(7.5662612,-984.55974)" />
  <g
     style="fill:none;stroke:#000000;stroke-width:4mm"
     id="g38"
     transform="translate(7.5662612,-984.55974)">
    <path
       d="m 566.92899,1275.591 -1.079,24.705 -3.227,24.518 -5.353,24.143 -7.436,23.584 -9.463,22.847 -11.419,21.935 -13.287,20.856 -15.054,19.619 -16.707,18.232 -18.232,16.707"
       id="path6" />
    <path
       d="m 465.67199,1492.737 -19.619,15.054 -20.856,13.287 -21.935,11.419 -22.847,9.463 -23.585,7.436 -24.142,5.353 -24.518,3.228 -24.706,1.078 -24.705,-1.078 -24.518,-3.228"
       id="path8" />
    <path
       d="m 234.24099,1554.749 -24.143,-5.353 -23.584,-7.436 -22.847,-9.463 -21.935,-11.419 -20.856,-13.287 -19.619,-15.054 -18.232003,-16.707 -16.707,-18.232 -15.054,-19.619 -13.287,-20.856"
       id="path10" />
    <path
       d="m 37.976987,1417.323 -11.419,-21.935 -9.463,-22.847 -7.4360003,-23.584 -5.353,-24.143 -3.228,-24.518 L -1.3344028e-5,1275.591 1.0779867,1250.885 l 3.228,-24.517 5.353,-24.143 7.4360003,-23.585"
       id="path12" />
    <path
       d="m 17.094987,1178.64 9.463,-22.847 11.419,-21.935 13.287,-20.856 15.054,-19.619 16.707,-18.232 18.232003,-16.707 19.619,-15.054 20.856,-13.287 21.935,-11.418 22.847,-9.464"
       id="path14" />
    <path
       d="m 186.51399,1009.221 23.584,-7.436 24.143,-5.352 24.518,-3.228 24.705,-1.079 24.706,1.079 24.517,3.228 24.143,5.352 23.585,7.436 22.847,9.464 21.935,11.418"
       id="path16" />
    <path
       d="m 425.19699,1030.103 20.856,13.287 19.619,15.054 18.232,16.707 16.707,18.232 15.054,19.619 13.287,20.856 11.419,21.935 9.463,22.847 7.436,23.585 5.352,24.143"
       id="path18" />
    <path
       d="m 562.62199,1226.368 3.228,24.517 1.079,24.706 v 0 l -1.079,24.705"
       id="path20" />
    <path
       d="m 468.66099,1274.646 -0.712,16.306 -2.13,16.181 -3.533,15.934 -4.907,15.566 -6.246,15.079 -7.537,14.477 -8.769,13.765 -9.936,12.949 -11.026,12.033 -12.033,11.027"
       id="path22" />
    <path
       d="m 401.83199,1417.963 -12.949,9.935 -13.765,8.77 -14.477,7.536 -15.079,6.246 -15.566,4.908 -15.934,3.532 -16.182,2.131 -16.305,0.712 -16.306,-0.712 -16.182,-2.131"
       id="path24" />
    <path
       d="m 249.08699,1458.89 -15.934,-3.532 -15.566,-4.908 -15.079,-6.246 -14.477,-7.536 -13.765,-8.77 -12.948,-9.935 -12.034,-11.027 -11.026,-12.033 -9.936,-12.949 -8.769,-13.765"
       id="path26" />
    <path
       d="m 119.55299,1368.189 -7.536,-14.477 -6.246,-15.079 -4.908,-15.566 -3.533003,-15.934 -2.13,-16.181 -0.712,-16.306 0.712,-16.306 2.13,-16.181 3.533003,-15.935 4.908,-15.566"
       id="path28" />
    <path
       d="m 105.77099,1210.658 6.246,-15.078 7.536,-14.477 8.769,-13.766 9.936,-12.948 11.026,-12.033 12.034,-11.027 12.948,-9.936 13.765,-8.769 14.477,-7.536 15.079,-6.246"
       id="path30" />
    <path
       d="m 217.58699,1098.842 15.566,-4.908 15.934,-3.533 16.182,-2.13 16.306,-0.712 16.305,0.712 16.182,2.13 15.934,3.533 15.566,4.908 15.079,6.246 14.477,7.536"
       id="path32" />
    <path
       d="m 375.11799,1112.624 13.765,8.769 12.949,9.936 12.033,11.027 11.026,12.033 9.936,12.948 8.769,13.766 7.537,14.477 6.246,15.078 4.907,15.566 3.533,15.935"
       id="path34" />
    <path
       d="m 465.81899,1242.159 2.13,16.181 0.712,16.306 v 0 l -0.712,16.306"
       id="path36" />
  </g>
</svg>
