<?xml version="1.0" encoding="UTF-8"?>
<svg id="svg40" width="582.06" height="582.06" version="1.1" viewBox="0 0 582.06 582.06" xmlns="http://www.w3.org/2000/svg">
 <g id="g38" transform="translate(7.5663 -984.56)" fill="none" stroke="#000" stroke-width="4mm">
  <path id="path6" d="m566.93 1275.6-1.079 24.705-3.227 24.518-5.353 24.143-7.436 23.584-9.463 22.847-11.419 21.935-13.287 20.856-15.054 19.619-16.707 18.232-18.232 16.707"/>
  <path id="path8" d="m465.67 1492.7-19.619 15.054-20.856 13.287-21.935 11.419-22.847 9.463-23.585 7.436-24.142 5.353-24.518 3.228-24.706 1.078-24.705-1.078-24.518-3.228"/>
  <path id="path10" d="m234.24 1554.7-24.143-5.353-23.584-7.436-22.847-9.463-21.935-11.419-20.856-13.287-19.619-15.054-18.232-16.707-16.707-18.232-15.054-19.619-13.287-20.856"/>
  <path id="path12" d="m37.977 1417.3-11.419-21.935-9.463-22.847-7.436-23.584-5.353-24.143-3.228-24.518-1.078-24.705 1.078-24.706 3.228-24.517 5.353-24.143 7.436-23.585"/>
  <path id="path14" d="m17.095 1178.6 9.463-22.847 11.419-21.935 13.287-20.856 15.054-19.619 16.707-18.232 18.232-16.707 19.619-15.054 20.856-13.287 21.935-11.418 22.847-9.464"/>
  <path id="path16" d="m186.51 1009.2 23.584-7.436 24.143-5.352 24.518-3.228 24.705-1.079 24.706 1.079 24.517 3.228 24.143 5.352 23.585 7.436 22.847 9.464 21.935 11.418"/>
  <path id="path18" d="m425.2 1030.1 20.856 13.287 19.619 15.054 18.232 16.707 16.707 18.232 15.054 19.619 13.287 20.856 11.419 21.935 9.463 22.847 7.436 23.585 5.352 24.143"/>
  <path id="path20" d="m562.62 1226.4 3.228 24.517 1.079 24.706-1.079 24.705"/>
  <path id="path22" d="m468.66 1274.6-0.712 16.306-2.13 16.181-3.533 15.934-4.907 15.566-6.246 15.079-7.537 14.477-8.769 13.765-9.936 12.949-11.026 12.033-12.033 11.027"/>
  <path id="path24" d="m401.83 1418-12.949 9.935-13.765 8.77-14.477 7.536-15.079 6.246-15.566 4.908-15.934 3.532-16.182 2.131-16.305 0.712-16.306-0.712-16.182-2.131"/>
  <path id="path26" d="m249.09 1458.9-15.934-3.532-15.566-4.908-15.079-6.246-14.477-7.536-13.765-8.77-12.948-9.935-12.034-11.027-11.026-12.033-9.936-12.949-8.769-13.765"/>
  <path id="path28" d="m119.55 1368.2-7.536-14.477-6.246-15.079-4.908-15.566-3.533-15.934-2.13-16.181-0.712-16.306 0.712-16.306 2.13-16.181 3.533-15.935 4.908-15.566"/>
  <path id="path30" d="m105.77 1210.7 6.246-15.078 7.536-14.477 8.769-13.766 9.936-12.948 11.026-12.033 12.034-11.027 12.948-9.936 13.765-8.769 14.477-7.536 15.079-6.246"/>
  <path id="path32" d="m217.59 1098.8 15.566-4.908 15.934-3.533 16.182-2.13 16.306-0.712 16.305 0.712 16.182 2.13 15.934 3.533 15.566 4.908 15.079 6.246 14.477 7.536"/>
  <path id="path34" d="m375.12 1112.6 13.765 8.769 12.949 9.936 12.033 11.027 11.026 12.033 9.936 12.948 8.769 13.766 7.537 14.477 6.246 15.078 4.907 15.566 3.533 15.935"/>
  <path id="path36" d="m465.82 1242.2 2.13 16.181 0.712 16.306-0.712 16.306"/>
 </g>
</svg>
