<?xml version="1.0" encoding="UTF-8"?>
<svg id="svg36" width="314.68" height="579.38" version="1.1" viewBox="0 0 314.68 579.38" xmlns="http://www.w3.org/2000/svg">
 <g id="g34" transform="translate(0 -679.19)" fill="none" stroke="#000" stroke-width="4mm">
  <path id="path6" d="m171.02 1208.3-0.163 3.726-0.487 3.698-0.807 3.642-1.122 3.557-1.427 3.446-1.722 3.308-2.004 3.146-2.271 2.959-2.52 2.75-2.75 2.52"/>
  <path id="path8" d="m155.75 1241-2.959 2.271-3.146 2.004-3.308 1.722-3.446 1.427-3.557 1.122-3.642 0.807-3.698 0.487-3.726 0.163-3.726-0.163-3.698-0.487"/>
  <path id="path10" d="m120.84 1250.4-3.642-0.807-3.557-1.122-3.446-1.427-3.309-1.722-3.145-2.004-2.959-2.271-2.75-2.52-2.52-2.75-2.271-2.959-2.004-3.146"/>
  <path id="path12" d="m91.238 1229.6-1.722-3.308-1.428-3.446-1.121-3.557-0.807-3.642-0.487-3.698-0.163-3.726 0.163-3.726 0.487-3.698 0.807-3.642 1.121-3.557"/>
  <path id="path14" d="m88.088 1193.6 1.428-3.446 1.722-3.309 2.004-3.145 2.271-2.959 2.52-2.75 2.75-2.52 2.959-2.271 3.145-2.004 3.309-1.722 3.446-1.428"/>
  <path id="path16" d="m113.64 1168.1 3.557-1.121 3.642-0.807 3.698-0.487 3.726-0.163 3.726 0.163 3.698 0.487 3.642 0.807 3.557 1.121 3.446 1.428 3.308 1.722"/>
  <path id="path18" d="m149.64 1171.2 3.146 2.004 2.959 2.271 2.75 2.52 2.52 2.75 2.271 2.959 2.004 3.145 1.722 3.309 1.427 3.446 1.122 3.557 0.807 3.642"/>
  <path id="path20" d="m170.37 1200.8 0.487 3.698 0.163 3.726-0.163 3.726"/>
  <path id="path22" d="m128.26 823.46v342.04"/>
  <path id="path24" d="m171.02 1208.3h85.509"/>
  <path id="path26" d="m85.51 1208.3h-85.51"/>
  <path id="path28" d="m128.26 823.46h186.41"/>
  <path id="path30" d="m128.26 823.46-118-139.38"/>
  <path id="path32" d="m128.26 823.46-118 138.53"/>
 </g>
</svg>
