<?xml version="1.0" encoding="UTF-8"?>
<svg id="svg34" width="582.05" height="582.06" version="1.1" viewBox="0 0 582.05 582.06" xmlns="http://www.w3.org/2000/svg">
 <g id="g32" transform="translate(7.5519 -616.2)" fill="none" stroke="#000" stroke-width="4mm">
  <path id="path6" d="m284.21 785.54h158.86"/>
  <path id="path8" d="m284.21 785.54-100.56-118.78"/>
  <path id="path10" d="m284.21 785.54-100.56 118.05"/>
  <path id="path12" d="m566.94 907.23-1.079 24.706-3.227 24.518-5.353 24.142-7.436 23.585-9.463 22.847-11.419 21.935-13.287 20.856-15.054 19.619-16.707 18.232-18.232 16.707-19.619 15.054"/>
  <path id="path14" d="m446.07 1139.4-20.856 13.287-21.935 11.419-22.847 9.463-23.585 7.436-24.142 5.353-24.518 3.227-24.706 1.079-24.705-1.079-24.518-3.227-24.143-5.353"/>
  <path id="path16" d="m210.11 1181-23.584-7.436-22.847-9.463-21.935-11.419-20.856-13.287-19.619-15.054-18.232-16.707-16.707-18.232-15.054-19.619-13.287-20.856-11.419-21.935"/>
  <path id="path18" d="m26.572 1027-9.463-22.847-7.436-23.584-5.353-24.143-3.228-24.518-1.078-24.706 1.078-24.705 3.228-24.518 5.353-24.143 7.436-23.584 9.463-22.847"/>
  <path id="path20" d="m26.572 787.44 11.419-21.935 13.287-20.856 15.054-19.619 16.707-18.232 18.232-16.707 19.619-15.054 20.856-13.287 21.935-11.419 22.847-9.463 23.584-7.436"/>
  <path id="path22" d="m210.11 633.43 24.143-5.353 24.518-3.227 24.705-1.079 24.706 1.079 24.517 3.227 24.143 5.353 23.585 7.436 22.847 9.463 21.935 11.419 20.856 13.287"/>
  <path id="path24" d="m446.07 675.03 19.619 15.054 18.232 16.707 16.707 18.232 15.054 19.619 13.287 20.856 11.419 21.935 9.463 22.847 7.436 23.584 5.353 24.143 3.227 24.518 1.079 24.705"/>
  <path id="path26" d="m566.94 907.23-1.079 24.706"/>
  <path id="path28" d="m171.99 1110.5h220.8"/>
  <path id="path30" d="m283.48 784.08v325.73"/>
 </g>
</svg>
