<?xml version="1.0" encoding="UTF-8" standalone="no"?>
<svg
   width="582.04712"
   height="582.06152"
   viewBox="0 0 582.0471 582.06151"
   version="1.1"
   id="svg34"
   sodipodi:docname="WNDFRM51.hpgl.svg"
   inkscape:version="1.1.2 (0a00cf5339, 2022-02-04)"
   xmlns:inkscape="http://www.inkscape.org/namespaces/inkscape"
   xmlns:sodipodi="http://sodipodi.sourceforge.net/DTD/sodipodi-0.dtd"
   xmlns="http://www.w3.org/2000/svg"
   xmlns:svg="http://www.w3.org/2000/svg">
  <defs
     id="defs38" />
  <sodipodi:namedview
     id="namedview36"
     pagecolor="#ffffff"
     bordercolor="#666666"
     borderopacity="1.0"
     inkscape:pageshadow="2"
     inkscape:pageopacity="0.0"
     inkscape:pagecheckerboard="0"
     showgrid="false"
     inkscape:zoom="1.2682364"
     inkscape:cx="290.95522"
     inkscape:cy="-332.35128"
     inkscape:window-width="1495"
     inkscape:window-height="970"
     inkscape:window-x="0"
     inkscape:window-y="32"
     inkscape:window-maximized="0"
     inkscape:current-layer="svg34" />
  <g
     id="g2"
     transform="translate(7.5518566,-616.20174)" />
  <g
     style="fill:none;stroke:#000000;stroke-width:1mm"
     id="g4"
     transform="translate(7.5518566,-616.20174)" />
  <g
     style="fill:none;stroke:#000000;stroke-width:4mm"
     id="g32"
     transform="translate(7.5518566,-616.20174)">
    <path
       d="m 284.20739,785.539 h 158.857"
       id="path6" />
    <path
       d="M 284.20739,785.539 183.64639,666.761"
       id="path8" />
    <path
       d="m 284.20739,785.539 -100.561,118.05"
       id="path10" />
    <path
       d="m 566.94339,907.232 -1.079,24.706 -3.227,24.518 -5.353,24.142 -7.436,23.585 -9.463,22.847 -11.419,21.935 -13.287,20.856 -15.054,19.619 -16.707,18.232 -18.232,16.707 -19.619,15.054"
       id="path12" />
    <path
       d="m 446.06739,1139.433 -20.856,13.287 -21.935,11.419 -22.847,9.463 -23.585,7.436 -24.142,5.353 -24.518,3.227 -24.706,1.079 -24.705,-1.079 -24.518,-3.227 -24.143,-5.353"
       id="path14" />
    <path
       d="m 210.11239,1181.038 -23.584,-7.436 -22.847,-9.463 -21.935,-11.419 -20.856,-13.287 -19.619,-15.054 -18.231999,-16.707 -16.707,-18.232 -15.054,-19.619 -13.287,-20.856 -11.419,-21.935"
       id="path16" />
    <path
       d="m 26.572391,1027.03 -9.463,-22.847 -7.4359998,-23.584 -5.353,-24.143 -3.228,-24.518 -1.07799997,-24.706 1.07799997,-24.705 3.228,-24.518 5.353,-24.143 7.4359998,-23.584 9.463,-22.847"
       id="path18" />
    <path
       d="m 26.572391,787.435 11.419,-21.935 13.287,-20.856 15.054,-19.619 16.707,-18.232 18.231999,-16.707 19.619,-15.054 20.856,-13.287 21.935,-11.419 22.847,-9.463 23.584,-7.436"
       id="path20" />
    <path
       d="m 210.11239,633.427 24.143,-5.353 24.518,-3.227 24.705,-1.079 24.706,1.079 24.517,3.227 24.143,5.353 23.585,7.436 22.847,9.463 21.935,11.419 20.856,13.287"
       id="path22" />
    <path
       d="m 446.06739,675.032 19.619,15.054 18.232,16.707 16.707,18.232 15.054,19.619 13.287,20.856 11.419,21.935 9.463,22.847 7.436,23.584 5.353,24.143 3.227,24.518 1.079,24.705"
       id="path24" />
    <path
       d="m 566.94339,907.232 v 0 l -1.079,24.706"
       id="path26" />
    <path
       d="m 171.98739,1110.54 h 220.797"
       id="path28" />
    <path
       d="m 283.47839,784.082 v 325.729"
       id="path30" />
  </g>
</svg>
