<?xml version="1.0" encoding="UTF-8"?>
<svg id="svg28" width="425.52" height="579.84" version="1.1" viewBox="0 0 425.52 579.84" xmlns="http://www.w3.org/2000/svg">
 <g id="g26" transform="translate(5.3451 -1183.8)" fill="none" stroke="#000" stroke-width="4mm">
  <path id="path6" d="m359.52 1604-0.579 13.257-1.732 13.155-2.872 12.955-3.99 12.655-5.078 12.259-6.127 11.77-7.13 11.192-8.077 10.527-8.965 9.783-9.783 8.965"/>
  <path id="path8" d="m305.18 1720.5-10.527 8.077-11.192 7.13-11.77 6.127-12.259 5.078-12.655 3.99-12.955 2.872-13.155 1.732-13.257 0.579-13.257-0.579-13.156-1.732"/>
  <path id="path10" d="m181 1753.8-12.954-2.872-12.655-3.99-12.26-5.078-11.77-6.127-11.191-7.13-10.527-8.077-9.783-8.965-8.965-9.783-8.078-10.527-7.129-11.192"/>
  <path id="path12" d="m75.688 1680-6.127-11.77-5.078-12.259-3.99-12.655-2.872-12.955-1.732-13.155-0.579-13.257 0.579-13.257 1.732-13.156 2.872-12.954 3.99-12.655"/>
  <path id="path14" d="m64.483 1552 5.078-12.26 6.127-11.77 7.129-11.191 8.078-10.527 8.965-9.783 9.783-8.965 10.527-8.078 11.191-7.129 11.77-6.127 12.26-5.078"/>
  <path id="path16" d="m155.39 1461.1 12.655-3.99 12.954-2.872 13.156-1.732 13.257-0.579 13.256 0.579 13.156 1.732 12.955 2.872 12.655 3.99 12.259 5.078 11.77 6.127"/>
  <path id="path18" d="m283.46 1472.3 11.192 7.129 10.527 8.078 9.783 8.965 8.965 9.783 8.077 10.527 7.13 11.191 6.127 11.77 5.078 12.26 3.99 12.655 2.872 12.954"/>
  <path id="path20" d="m357.2 1577.6 1.732 13.156 0.579 13.257-0.579 13.257"/>
  <path id="path22" d="m414.83 1189.2-414.83 414.83"/>
  <path id="path24" d="m0 1189.2 414.83 414.83"/>
 </g>
</svg>
